<svg xmlns="http://www.w3.org/2000/svg" width="610" height="367.622" viewBox="0 0 610 367.622">
  <g id="Grupo_1115721" data-name="Grupo 1115721" transform="translate(-495.05 -1585)">
    <path id="Trazado_983301" data-name="Trazado 983301" d="M2.828-1.227H8.219V0H1.32V-11.375H2.828ZM9.32-4.3a4.993,4.993,0,0,1,.488-2.234A3.643,3.643,0,0,1,11.168-8.07a3.7,3.7,0,0,1,1.988-.539,3.565,3.565,0,0,1,2.793,1.2,4.6,4.6,0,0,1,1.066,3.18v.1a5.036,5.036,0,0,1-.473,2.215A3.589,3.589,0,0,1,15.191-.391a3.743,3.743,0,0,1-2.02.547,3.556,3.556,0,0,1-2.785-1.2A4.575,4.575,0,0,1,9.32-4.2Zm1.453.172a3.616,3.616,0,0,0,.652,2.258,2.088,2.088,0,0,0,1.746.852,2.075,2.075,0,0,0,1.75-.863A3.955,3.955,0,0,0,15.57-4.3a3.61,3.61,0,0,0-.66-2.254,2.1,2.1,0,0,0-1.754-.863,2.075,2.075,0,0,0-1.727.852A3.925,3.925,0,0,0,10.773-4.133ZM20.2-8.453l.047,1.063a3.08,3.08,0,0,1,2.531-1.219q2.68,0,2.7,3.023V0H24.031V-5.594a1.946,1.946,0,0,0-.418-1.352,1.675,1.675,0,0,0-1.277-.437,2.086,2.086,0,0,0-1.234.375,2.546,2.546,0,0,0-.828.984V0H18.828V-8.453ZM27.313-4.3a4.968,4.968,0,0,1,.914-3.145,2.923,2.923,0,0,1,2.422-1.168,2.908,2.908,0,0,1,2.414,1.094l.07-.937h1.32V-.2a3.439,3.439,0,0,1-.973,2.586,3.589,3.589,0,0,1-2.613.945,4.348,4.348,0,0,1-1.789-.391,3.08,3.08,0,0,1-1.336-1.07L28.492,1a2.826,2.826,0,0,0,2.273,1.148,2.214,2.214,0,0,0,1.645-.594A2.269,2.269,0,0,0,33-.117V-.844a2.971,2.971,0,0,1-2.367,1,2.887,2.887,0,0,1-2.4-1.2A5.224,5.224,0,0,1,27.313-4.3Zm1.453.164a3.79,3.79,0,0,0,.586,2.246,1.9,1.9,0,0,0,1.641.816A2.117,2.117,0,0,0,33-2.312V-6.172a2.142,2.142,0,0,0-1.992-1.211,1.921,1.921,0,0,0-1.648.82A4.128,4.128,0,0,0,28.766-4.133ZM38.2,0H36.758V-8.453H38.2ZM36.641-10.7a.863.863,0,0,1,.215-.594.807.807,0,0,1,.637-.242.819.819,0,0,1,.641.242.854.854,0,0,1,.219.594.826.826,0,0,1-.219.586.834.834,0,0,1-.641.234.821.821,0,0,1-.637-.234A.834.834,0,0,1,36.641-10.7Zm5.836.2v2.047h1.578v1.117H42.477v5.249a1.173,1.173,0,0,0,.211.763.888.888,0,0,0,.719.254,3.5,3.5,0,0,0,.688-.094V0a4.215,4.215,0,0,1-1.109.155A1.8,1.8,0,0,1,41.523-.43a2.517,2.517,0,0,1-.492-1.664V-7.336H39.492V-8.453h1.539V-10.5ZM50.961-.836a3.07,3.07,0,0,1-2.477.992,2.628,2.628,0,0,1-2.059-.785,3.4,3.4,0,0,1-.715-2.324v-5.5h1.445v5.461q0,1.922,1.563,1.922a2.163,2.163,0,0,0,2.2-1.234V-8.453h1.445V0H50.992ZM54.211-4.3a4.952,4.952,0,0,1,.922-3.129,2.915,2.915,0,0,1,2.414-1.184A2.932,2.932,0,0,1,59.9-7.594V-12h1.445V0H60.016l-.07-.906A2.943,2.943,0,0,1,57.531.156a2.887,2.887,0,0,1-2.395-1.2,5.008,5.008,0,0,1-.926-3.141Zm1.445.164a3.749,3.749,0,0,0,.594,2.25,1.92,1.92,0,0,0,1.641.813A2.108,2.108,0,0,0,59.9-2.3V-6.187a2.125,2.125,0,0,0-1.992-1.2,1.929,1.929,0,0,0-1.656.82A4.128,4.128,0,0,0,55.656-4.133ZM67.2-4.3a4.952,4.952,0,0,1,.922-3.129,2.915,2.915,0,0,1,2.414-1.184,2.932,2.932,0,0,1,2.352,1.016V-12h1.445V0H73l-.07-.906A2.943,2.943,0,0,1,70.516.156a2.887,2.887,0,0,1-2.395-1.2A5.008,5.008,0,0,1,67.2-4.187Zm1.445.164a3.749,3.749,0,0,0,.594,2.25,1.92,1.92,0,0,0,1.641.813A2.109,2.109,0,0,0,72.883-2.3V-6.187a2.125,2.125,0,0,0-1.992-1.2,1.929,1.929,0,0,0-1.656.82A4.128,4.128,0,0,0,68.641-4.133ZM80.078.156a3.693,3.693,0,0,1-2.8-1.129A4.19,4.19,0,0,1,76.2-3.992v-.266a5.073,5.073,0,0,1,.48-2.246,3.748,3.748,0,0,1,1.344-1.547A3.378,3.378,0,0,1,79.9-8.609a3.166,3.166,0,0,1,2.563,1.086,4.7,4.7,0,0,1,.914,3.109v.6H77.648a3,3,0,0,0,.73,2.02,2.3,2.3,0,0,0,1.777.77,2.517,2.517,0,0,0,1.3-.312,3.259,3.259,0,0,0,.93-.828l.883.688A3.55,3.55,0,0,1,80.078.156ZM79.9-7.422a1.928,1.928,0,0,0-1.469.637A3.1,3.1,0,0,0,77.7-5H81.93v-.109a2.753,2.753,0,0,0-.594-1.707A1.815,1.815,0,0,0,79.9-7.422ZM88.625-4.3a4.993,4.993,0,0,1,.488-2.234A3.643,3.643,0,0,1,90.473-8.07a3.7,3.7,0,0,1,1.988-.539,3.565,3.565,0,0,1,2.793,1.2,4.6,4.6,0,0,1,1.066,3.18v.1a5.036,5.036,0,0,1-.473,2.215A3.589,3.589,0,0,1,94.5-.391a3.743,3.743,0,0,1-2.02.547,3.556,3.556,0,0,1-2.785-1.2A4.575,4.575,0,0,1,88.625-4.2Zm1.453.172a3.616,3.616,0,0,0,.652,2.258,2.088,2.088,0,0,0,1.746.852,2.075,2.075,0,0,0,1.75-.863A3.955,3.955,0,0,0,94.875-4.3a3.61,3.61,0,0,0-.66-2.254,2.1,2.1,0,0,0-1.754-.863,2.075,2.075,0,0,0-1.727.852A3.925,3.925,0,0,0,90.078-4.133ZM99.5-8.453l.047,1.063a3.08,3.08,0,0,1,2.531-1.219q2.68,0,2.7,3.023V0h-1.445V-5.594a1.946,1.946,0,0,0-.418-1.352,1.675,1.675,0,0,0-1.277-.437,2.086,2.086,0,0,0-1.234.375,2.546,2.546,0,0,0-.828.984V0H98.133V-8.453ZM106.609-4.3a4.952,4.952,0,0,1,.922-3.129,2.915,2.915,0,0,1,2.414-1.184A2.932,2.932,0,0,1,112.3-7.594V-12h1.445V0h-1.328l-.07-.906A2.943,2.943,0,0,1,109.93.156a2.887,2.887,0,0,1-2.395-1.2,5.008,5.008,0,0,1-.926-3.141Zm1.445.164a3.749,3.749,0,0,0,.594,2.25,1.92,1.92,0,0,0,1.641.813A2.109,2.109,0,0,0,112.3-2.3V-6.187a2.125,2.125,0,0,0-1.992-1.2,1.929,1.929,0,0,0-1.656.82A4.128,4.128,0,0,0,108.055-4.133ZM121.2,0a3.036,3.036,0,0,1-.2-.891A3.225,3.225,0,0,1,118.594.156a2.984,2.984,0,0,1-2.051-.707,2.288,2.288,0,0,1-.8-1.793,2.39,2.39,0,0,1,1-2.051,4.733,4.733,0,0,1,2.824-.73h1.406v-.664A1.623,1.623,0,0,0,120.523-7a1.821,1.821,0,0,0-1.336-.449,2.108,2.108,0,0,0-1.3.391,1.151,1.151,0,0,0-.523.945h-1.453a2,2,0,0,1,.449-1.223,3.066,3.066,0,0,1,1.219-.934,4.1,4.1,0,0,1,1.691-.344,3.342,3.342,0,0,1,2.289.73,2.635,2.635,0,0,1,.859,2.012v3.891a4.757,4.757,0,0,0,.3,1.852V0Zm-2.4-1.1a2.54,2.54,0,0,0,1.289-.352,2.127,2.127,0,0,0,.883-.914V-4.1h-1.133q-2.656,0-2.656,1.555a1.316,1.316,0,0,0,.453,1.063A1.742,1.742,0,0,0,118.8-1.1Z" transform="translate(638.051 1602)" fill="#12263f"/>
    <path id="Trazado_983302" data-name="Trazado 983302" d="M-2.421-13.588A2.308,2.308,0,0,1-.075-12.154L3.634-2.84l.141.308q.3.633.756.642h.176L4.847-1.9l.018,2A6.033,6.033,0,0,1,3.9.158,2.715,2.715,0,0,1,2.3-.277a2.924,2.924,0,0,1-.989-1.428l-1.5-4.122L-2.131,0H-4.874l3.366-9.29-.633-1.456a1.263,1.263,0,0,0-.448-.618,1.237,1.237,0,0,0-.686-.176l-.51.026L-3.836-13.4A4.741,4.741,0,0,1-2.421-13.588Z" transform="translate(698.051 1648)" fill="#fc7777"/>
    <path id="Trazado_983314" data-name="Trazado 983314" d="M2.312-2.637H-2.312L-3.19,0h-2.8L-1.23-12.8H1.213L6,0H3.2ZM-1.6-4.772H1.6L-.009-9.562Z" transform="translate(651.051 1946)" fill="#fc7777"/>
    <path id="Trazado_983303" data-name="Trazado 983303" d="M2.312-2.637H-2.312L-3.19,0h-2.8L-1.23-12.8H1.213L6,0H3.2ZM-1.6-4.772H1.6L-.009-9.562Z" transform="translate(995.051 1750)" fill="#fc7777"/>
    <path id="Trazado_983313" data-name="Trazado 983313" d="M2.82-4.453V0H1.32V-11.375h4.2a4.215,4.215,0,0,1,2.926.953A3.231,3.231,0,0,1,9.5-7.9,3.189,3.189,0,0,1,8.465-5.348,4.4,4.4,0,0,1,5.5-4.453Zm0-1.227h2.7a2.7,2.7,0,0,0,1.844-.567A2.075,2.075,0,0,0,8-7.887a2.143,2.143,0,0,0-.641-1.628A2.525,2.525,0,0,0,5.6-10.148H2.82ZM14.7.156A3.693,3.693,0,0,1,11.9-.973a4.19,4.19,0,0,1-1.078-3.02v-.266A5.073,5.073,0,0,1,11.3-6.5a3.748,3.748,0,0,1,1.344-1.547,3.378,3.378,0,0,1,1.871-.559,3.166,3.166,0,0,1,2.563,1.086,4.7,4.7,0,0,1,.914,3.109v.6H12.266A3,3,0,0,0,13-1.793a2.3,2.3,0,0,0,1.777.77,2.517,2.517,0,0,0,1.3-.312A3.259,3.259,0,0,0,17-2.164l.883.688A3.55,3.55,0,0,1,14.7.156Zm-.18-7.578a1.928,1.928,0,0,0-1.469.637A3.1,3.1,0,0,0,12.313-5h4.234v-.109a2.753,2.753,0,0,0-.594-1.707A1.815,1.815,0,0,0,14.516-7.422Zm9.234.266a4.331,4.331,0,0,0-.711-.055A1.9,1.9,0,0,0,21.109-6V0H19.664V-8.453H21.07l.023.977a2.251,2.251,0,0,1,2.016-1.133,1.477,1.477,0,0,1,.641.109ZM26.648,0H25.2V-8.453h1.445ZM25.086-10.7a.863.863,0,0,1,.215-.594.807.807,0,0,1,.637-.242.819.819,0,0,1,.641.242.854.854,0,0,1,.219.594.826.826,0,0,1-.219.586.834.834,0,0,1-.641.234.821.821,0,0,1-.637-.234A.834.834,0,0,1,25.086-10.7ZM28.578-4.3a4.993,4.993,0,0,1,.488-2.234A3.643,3.643,0,0,1,30.426-8.07a3.7,3.7,0,0,1,1.988-.539,3.565,3.565,0,0,1,2.793,1.2,4.6,4.6,0,0,1,1.066,3.18v.1A5.036,5.036,0,0,1,35.8-1.918,3.589,3.589,0,0,1,34.449-.391a3.743,3.743,0,0,1-2.02.547,3.556,3.556,0,0,1-2.785-1.2A4.575,4.575,0,0,1,28.578-4.2Zm1.453.172a3.616,3.616,0,0,0,.652,2.258,2.088,2.088,0,0,0,1.746.852,2.075,2.075,0,0,0,1.75-.863A3.955,3.955,0,0,0,34.828-4.3a3.61,3.61,0,0,0-.66-2.254,2.1,2.1,0,0,0-1.754-.863,2.075,2.075,0,0,0-1.727.852A3.925,3.925,0,0,0,30.031-4.133Zm7.7-.164a4.952,4.952,0,0,1,.922-3.129A2.915,2.915,0,0,1,41.07-8.609a2.932,2.932,0,0,1,2.352,1.016V-12h1.445V0H43.539l-.07-.906A2.943,2.943,0,0,1,41.055.156a2.887,2.887,0,0,1-2.395-1.2,5.008,5.008,0,0,1-.926-3.141Zm1.445.164a3.749,3.749,0,0,0,.594,2.25,1.92,1.92,0,0,0,1.641.813A2.108,2.108,0,0,0,43.422-2.3V-6.187a2.125,2.125,0,0,0-1.992-1.2,1.929,1.929,0,0,0-1.656.82A4.128,4.128,0,0,0,39.18-4.133ZM46.727-4.3a4.993,4.993,0,0,1,.488-2.234A3.643,3.643,0,0,1,48.574-8.07a3.7,3.7,0,0,1,1.988-.539,3.565,3.565,0,0,1,2.793,1.2,4.6,4.6,0,0,1,1.066,3.18v.1a5.036,5.036,0,0,1-.473,2.215A3.589,3.589,0,0,1,52.6-.391a3.743,3.743,0,0,1-2.02.547,3.556,3.556,0,0,1-2.785-1.2A4.575,4.575,0,0,1,46.727-4.2Zm1.453.172a3.616,3.616,0,0,0,.652,2.258,2.088,2.088,0,0,0,1.746.852,2.075,2.075,0,0,0,1.75-.863A3.955,3.955,0,0,0,52.977-4.3a3.61,3.61,0,0,0-.66-2.254,2.1,2.1,0,0,0-1.754-.863,2.075,2.075,0,0,0-1.727.852A3.925,3.925,0,0,0,48.18-4.133Z" transform="translate(623.051 1905)" fill="#12263f"/>
    <path id="Trazado_983304" data-name="Trazado 983304" d="M9.688-3.609A4.185,4.185,0,0,1,8.355-.824a4.365,4.365,0,0,1-2.98.98,4.008,4.008,0,0,1-3.23-1.445A5.815,5.815,0,0,1,.93-5.156V-6.25A6.481,6.481,0,0,1,1.5-9.039,4.231,4.231,0,0,1,3.1-10.887a4.47,4.47,0,0,1,2.406-.645A4.11,4.11,0,0,1,8.414-10.52a4.235,4.235,0,0,1,1.273,2.8H8.18a3.268,3.268,0,0,0-.848-1.975A2.565,2.565,0,0,0,5.508-10.3,2.684,2.684,0,0,0,3.254-9.241a4.882,4.882,0,0,0-.816,3.026v1.1a5.018,5.018,0,0,0,.773,2.948A2.5,2.5,0,0,0,5.375-1.07a2.887,2.887,0,0,0,1.918-.566A3.143,3.143,0,0,0,8.18-3.609Zm5.906-3.547a4.331,4.331,0,0,0-.711-.055A1.9,1.9,0,0,0,12.953-6V0H11.508V-8.453h1.406l.023.977a2.251,2.251,0,0,1,2.016-1.133,1.477,1.477,0,0,1,.641.109ZM20.43.156a3.693,3.693,0,0,1-2.8-1.129,4.19,4.19,0,0,1-1.078-3.02v-.266a5.073,5.073,0,0,1,.48-2.246,3.748,3.748,0,0,1,1.344-1.547,3.378,3.378,0,0,1,1.871-.559,3.166,3.166,0,0,1,2.563,1.086,4.7,4.7,0,0,1,.914,3.109v.6H18a3,3,0,0,0,.73,2.02,2.3,2.3,0,0,0,1.777.77,2.517,2.517,0,0,0,1.3-.312,3.259,3.259,0,0,0,.93-.828l.883.688A3.55,3.55,0,0,1,20.43.156Zm-.18-7.578a1.928,1.928,0,0,0-1.469.637A3.1,3.1,0,0,0,18.047-5h4.234v-.109a2.753,2.753,0,0,0-.594-1.707A1.815,1.815,0,0,0,20.25-7.422Zm10.07,5.18a1.064,1.064,0,0,0-.441-.91,4.249,4.249,0,0,0-1.539-.559A7.277,7.277,0,0,1,26.6-4.273a2.479,2.479,0,0,1-.953-.781,1.869,1.869,0,0,1-.309-1.078,2.193,2.193,0,0,1,.879-1.758,3.432,3.432,0,0,1,2.246-.719,3.532,3.532,0,0,1,2.332.742,2.357,2.357,0,0,1,.895,1.9H30.234a1.3,1.3,0,0,0-.5-1.023,1.888,1.888,0,0,0-1.27-.43,1.976,1.976,0,0,0-1.234.344,1.082,1.082,0,0,0-.445.9.877.877,0,0,0,.414.789,5.1,5.1,0,0,0,1.5.508,7.8,7.8,0,0,1,1.754.578,2.558,2.558,0,0,1,1,.809,1.988,1.988,0,0,1,.324,1.152,2.163,2.163,0,0,1-.906,1.816,3.8,3.8,0,0,1-2.352.684,4.257,4.257,0,0,1-1.8-.359,2.922,2.922,0,0,1-1.223-1A2.42,2.42,0,0,1,25.047-2.6h1.445a1.5,1.5,0,0,0,.582,1.152,2.258,2.258,0,0,0,1.434.426,2.331,2.331,0,0,0,1.316-.332A1.02,1.02,0,0,0,30.32-2.242ZM35.609-10.5v2.047h1.578v1.117H35.609v5.249a1.173,1.173,0,0,0,.211.763.888.888,0,0,0,.719.254,3.5,3.5,0,0,0,.688-.094V0a4.215,4.215,0,0,1-1.109.155A1.8,1.8,0,0,1,34.656-.43a2.517,2.517,0,0,1-.492-1.664V-7.336H32.625V-8.453h1.539V-10.5ZM44.094,0a3.036,3.036,0,0,1-.2-.891A3.225,3.225,0,0,1,41.484.156a2.984,2.984,0,0,1-2.051-.707,2.287,2.287,0,0,1-.8-1.793,2.39,2.39,0,0,1,1-2.051,4.733,4.733,0,0,1,2.824-.73h1.406v-.664A1.623,1.623,0,0,0,43.414-7a1.821,1.821,0,0,0-1.336-.449,2.107,2.107,0,0,0-1.3.391,1.151,1.151,0,0,0-.523.945H38.8a2,2,0,0,1,.449-1.223,3.066,3.066,0,0,1,1.219-.934,4.1,4.1,0,0,1,1.691-.344,3.342,3.342,0,0,1,2.289.73,2.635,2.635,0,0,1,.859,2.012v3.891a4.757,4.757,0,0,0,.3,1.852V0ZM41.7-1.1a2.54,2.54,0,0,0,1.289-.352,2.127,2.127,0,0,0,.883-.914V-4.1H42.734q-2.656,0-2.656,1.555a1.316,1.316,0,0,0,.453,1.063A1.742,1.742,0,0,0,41.7-1.1Z" transform="translate(580.051 1744)" fill="#12263f"/>
    <path id="Trazado_983312" data-name="Trazado 983312" d="M5.086-1.992l3.25-9.383H9.977L5.758,0H4.43L.219-11.375H1.852ZM16.133,0a3.036,3.036,0,0,1-.2-.891A3.225,3.225,0,0,1,13.523.156a2.984,2.984,0,0,1-2.051-.707,2.287,2.287,0,0,1-.8-1.793,2.39,2.39,0,0,1,1-2.051,4.733,4.733,0,0,1,2.824-.73h1.406v-.664A1.623,1.623,0,0,0,15.453-7a1.821,1.821,0,0,0-1.336-.449,2.107,2.107,0,0,0-1.3.391,1.151,1.151,0,0,0-.523.945H10.844a2,2,0,0,1,.449-1.223,3.066,3.066,0,0,1,1.219-.934A4.1,4.1,0,0,1,14.2-8.609a3.342,3.342,0,0,1,2.289.73,2.635,2.635,0,0,1,.859,2.012v3.891a4.757,4.757,0,0,0,.3,1.852V0Zm-2.4-1.1a2.54,2.54,0,0,0,1.289-.352,2.127,2.127,0,0,0,.883-.914V-4.1H14.773q-2.656,0-2.656,1.555a1.316,1.316,0,0,0,.453,1.063A1.742,1.742,0,0,0,13.734-1.1ZM21.188,0H19.742V-12h1.445ZM25.07,0H23.625V-12H25.07Zm5.82.156a3.693,3.693,0,0,1-2.8-1.129,4.19,4.19,0,0,1-1.078-3.02v-.266A5.073,5.073,0,0,1,27.5-6.5,3.748,3.748,0,0,1,28.84-8.051a3.378,3.378,0,0,1,1.871-.559,3.166,3.166,0,0,1,2.563,1.086,4.7,4.7,0,0,1,.914,3.109v.6H28.461a3,3,0,0,0,.73,2.02,2.3,2.3,0,0,0,1.777.77,2.517,2.517,0,0,0,1.3-.312,3.259,3.259,0,0,0,.93-.828l.883.688A3.55,3.55,0,0,1,30.891.156Zm-.18-7.578a1.928,1.928,0,0,0-1.469.637A3.1,3.1,0,0,0,28.508-5h4.234v-.109a2.753,2.753,0,0,0-.594-1.707A1.815,1.815,0,0,0,30.711-7.422Z" transform="translate(682.051 1825)" fill="#12263f"/>
    <path id="Trazado_983305" data-name="Trazado 983305" d="M10.063,0H8.555L2.828-8.766V0H1.32V-11.375H2.828L8.57-2.57v-8.8h1.492Zm2.055-4.3a4.993,4.993,0,0,1,.488-2.234A3.643,3.643,0,0,1,13.965-8.07a3.7,3.7,0,0,1,1.988-.539,3.565,3.565,0,0,1,2.793,1.2,4.6,4.6,0,0,1,1.066,3.18v.1a5.036,5.036,0,0,1-.473,2.215A3.589,3.589,0,0,1,17.988-.391a3.743,3.743,0,0,1-2.02.547,3.556,3.556,0,0,1-2.785-1.2A4.575,4.575,0,0,1,12.117-4.2Zm1.453.172a3.616,3.616,0,0,0,.652,2.258,2.088,2.088,0,0,0,1.746.852,2.075,2.075,0,0,0,1.75-.863A3.955,3.955,0,0,0,18.367-4.3a3.61,3.61,0,0,0-.66-2.254,2.1,2.1,0,0,0-1.754-.863,2.075,2.075,0,0,0-1.727.852A3.925,3.925,0,0,0,13.57-4.133Zm7.7-.164A4.952,4.952,0,0,1,22.2-7.426a2.915,2.915,0,0,1,2.414-1.184,2.932,2.932,0,0,1,2.352,1.016V-12h1.445V0H27.078l-.07-.906A2.943,2.943,0,0,1,24.594.156a2.887,2.887,0,0,1-2.395-1.2,5.008,5.008,0,0,1-.926-3.141Zm1.445.164a3.749,3.749,0,0,0,.594,2.25,1.92,1.92,0,0,0,1.641.813A2.108,2.108,0,0,0,26.961-2.3V-6.187a2.125,2.125,0,0,0-1.992-1.2,1.929,1.929,0,0,0-1.656.82A4.128,4.128,0,0,0,22.719-4.133ZM30.266-4.3a4.993,4.993,0,0,1,.488-2.234A3.643,3.643,0,0,1,32.113-8.07,3.7,3.7,0,0,1,34.1-8.609a3.565,3.565,0,0,1,2.793,1.2,4.6,4.6,0,0,1,1.066,3.18v.1a5.036,5.036,0,0,1-.473,2.215A3.589,3.589,0,0,1,36.137-.391a3.743,3.743,0,0,1-2.02.547,3.556,3.556,0,0,1-2.785-1.2A4.575,4.575,0,0,1,30.266-4.2Zm1.453.172a3.616,3.616,0,0,0,.652,2.258,2.088,2.088,0,0,0,1.746.852,2.075,2.075,0,0,0,1.75-.863A3.955,3.955,0,0,0,36.516-4.3a3.61,3.61,0,0,0-.66-2.254A2.1,2.1,0,0,0,34.1-7.422a2.075,2.075,0,0,0-1.727.852A3.925,3.925,0,0,0,31.719-4.133Z" transform="translate(868.051 1747)" fill="#12263f"/>
    <path id="Trazado_983306" data-name="Trazado 983306" d="M7.6-2.977H2.836L1.766,0H.219L4.563-11.375H5.875L10.227,0H8.688ZM3.289-4.2H7.156L5.219-9.523Zm9.6-4.25.039.938a3.122,3.122,0,0,1,2.508-1.094A2.417,2.417,0,0,1,17.852-7.25a3.2,3.2,0,0,1,1.1-.984,3.242,3.242,0,0,1,1.6-.375q2.781,0,2.828,2.945V0H21.93V-5.578a1.941,1.941,0,0,0-.414-1.355,1.823,1.823,0,0,0-1.391-.449,1.916,1.916,0,0,0-1.336.48,1.949,1.949,0,0,0-.617,1.293V0H16.719V-5.539a1.613,1.613,0,0,0-1.8-1.844,1.934,1.934,0,0,0-1.945,1.211V0H11.523V-8.453Zm19.8,4.32a5.062,5.062,0,0,1-.883,3.109A2.829,2.829,0,0,1,29.422.156,3.1,3.1,0,0,1,27-.82V3.25H25.555v-11.7h1.32l.07.938A2.977,2.977,0,0,1,29.4-8.609a2.882,2.882,0,0,1,2.41,1.148,5.117,5.117,0,0,1,.887,3.2ZM31.25-4.3a3.735,3.735,0,0,0-.609-2.258,1.963,1.963,0,0,0-1.672-.828A2.125,2.125,0,0,0,27-6.219V-2.18a2.129,2.129,0,0,0,1.984,1.156,1.954,1.954,0,0,0,1.652-.824A4.077,4.077,0,0,0,31.25-4.3ZM36.1,0H34.656V-12H36.1Zm3.883,0H38.539V-8.453h1.445ZM38.422-10.7a.863.863,0,0,1,.215-.594.807.807,0,0,1,.637-.242.819.819,0,0,1,.641.242.854.854,0,0,1,.219.594.826.826,0,0,1-.219.586.834.834,0,0,1-.641.234.821.821,0,0,1-.637-.234A.834.834,0,0,1,38.422-10.7Zm5.836.2v2.047h1.578v1.117H44.258v5.249a1.173,1.173,0,0,0,.211.763.888.888,0,0,0,.719.254,3.5,3.5,0,0,0,.688-.094V0a4.215,4.215,0,0,1-1.109.155A1.8,1.8,0,0,1,43.3-.43a2.517,2.517,0,0,1-.492-1.664V-7.336H41.273V-8.453h1.539V-10.5ZM52.742-.836a3.07,3.07,0,0,1-2.477.992,2.628,2.628,0,0,1-2.059-.785,3.4,3.4,0,0,1-.715-2.324v-5.5h1.445v5.461q0,1.922,1.563,1.922A2.163,2.163,0,0,0,52.7-2.3V-8.453h1.445V0H52.773ZM55.992-4.3a4.952,4.952,0,0,1,.922-3.129,2.915,2.915,0,0,1,2.414-1.184A2.932,2.932,0,0,1,61.68-7.594V-12h1.445V0H61.8l-.07-.906A2.943,2.943,0,0,1,59.313.156a2.887,2.887,0,0,1-2.395-1.2,5.008,5.008,0,0,1-.926-3.141Zm1.445.164a3.749,3.749,0,0,0,.594,2.25,1.92,1.92,0,0,0,1.641.813A2.108,2.108,0,0,0,61.68-2.3V-6.187a2.125,2.125,0,0,0-1.992-1.2,1.929,1.929,0,0,0-1.656.82A4.128,4.128,0,0,0,57.438-4.133ZM.742,15.7a4.952,4.952,0,0,1,.922-3.129,2.915,2.915,0,0,1,2.414-1.184A2.932,2.932,0,0,1,6.43,12.406V8H7.875V20H6.547l-.07-.906a2.943,2.943,0,0,1-2.414,1.063,2.887,2.887,0,0,1-2.395-1.2,5.008,5.008,0,0,1-.926-3.141Zm1.445.164a3.749,3.749,0,0,0,.594,2.25,1.92,1.92,0,0,0,1.641.813A2.108,2.108,0,0,0,6.43,17.7V13.813a2.125,2.125,0,0,0-1.992-1.2,1.929,1.929,0,0,0-1.656.82A4.128,4.128,0,0,0,2.188,15.867Zm11.438,4.289a3.693,3.693,0,0,1-2.8-1.129,4.19,4.19,0,0,1-1.078-3.02v-.266a5.073,5.073,0,0,1,.48-2.246,3.748,3.748,0,0,1,1.344-1.547,3.378,3.378,0,0,1,1.871-.559,3.166,3.166,0,0,1,2.563,1.086,4.7,4.7,0,0,1,.914,3.109v.6H11.2a3,3,0,0,0,.73,2.02,2.3,2.3,0,0,0,1.777.77,2.517,2.517,0,0,0,1.3-.312,3.259,3.259,0,0,0,.93-.828l.883.688A3.55,3.55,0,0,1,13.625,20.156Zm-.18-7.578a1.928,1.928,0,0,0-1.469.637A3.1,3.1,0,0,0,11.242,15h4.234v-.109a2.753,2.753,0,0,0-.594-1.707A1.815,1.815,0,0,0,13.445,12.578ZM22.172,15.7a4.993,4.993,0,0,1,.488-2.234A3.643,3.643,0,0,1,24.02,11.93a3.7,3.7,0,0,1,1.988-.539,3.565,3.565,0,0,1,2.793,1.2,4.6,4.6,0,0,1,1.066,3.18v.1a5.036,5.036,0,0,1-.473,2.215,3.589,3.589,0,0,1-1.352,1.527,3.743,3.743,0,0,1-2.02.547,3.556,3.556,0,0,1-2.785-1.2A4.575,4.575,0,0,1,22.172,15.8Zm1.453.172a3.616,3.616,0,0,0,.652,2.258,2.211,2.211,0,0,0,3.5-.012,3.955,3.955,0,0,0,.648-2.418,3.61,3.61,0,0,0-.66-2.254,2.1,2.1,0,0,0-1.754-.863,2.075,2.075,0,0,0-1.727.852A3.925,3.925,0,0,0,23.625,15.867Zm9.422-4.32.047,1.063a3.08,3.08,0,0,1,2.531-1.219q2.68,0,2.7,3.023V20H36.883V14.406a1.946,1.946,0,0,0-.418-1.352,1.675,1.675,0,0,0-1.277-.437,2.086,2.086,0,0,0-1.234.375,2.546,2.546,0,0,0-.828.984V20H31.68V11.547ZM40.156,15.7a4.952,4.952,0,0,1,.922-3.129,3.137,3.137,0,0,1,4.766-.168V8h1.445V20H45.961l-.07-.906a2.943,2.943,0,0,1-2.414,1.063,2.887,2.887,0,0,1-2.395-1.2,5.008,5.008,0,0,1-.926-3.141Zm1.445.164a3.749,3.749,0,0,0,.594,2.25,1.92,1.92,0,0,0,1.641.813A2.108,2.108,0,0,0,45.844,17.7V13.813a2.125,2.125,0,0,0-1.992-1.2,1.929,1.929,0,0,0-1.656.82A4.128,4.128,0,0,0,41.6,15.867ZM54.75,20a3.036,3.036,0,0,1-.2-.891,3.225,3.225,0,0,1-2.406,1.047,2.984,2.984,0,0,1-2.051-.707,2.287,2.287,0,0,1-.8-1.793,2.39,2.39,0,0,1,1-2.051,4.733,4.733,0,0,1,2.824-.73h1.406v-.664A1.623,1.623,0,0,0,54.07,13a1.821,1.821,0,0,0-1.336-.449,2.107,2.107,0,0,0-1.3.391,1.151,1.151,0,0,0-.523.945H49.461a2,2,0,0,1,.449-1.223,3.066,3.066,0,0,1,1.219-.934,4.1,4.1,0,0,1,1.691-.344,3.342,3.342,0,0,1,2.289.73,2.635,2.635,0,0,1,.859,2.012v3.891a4.757,4.757,0,0,0,.3,1.852V20Zm-2.4-1.1a2.54,2.54,0,0,0,1.289-.352,2.127,2.127,0,0,0,.883-.914V15.9H53.391q-2.656,0-2.656,1.555a1.316,1.316,0,0,0,.453,1.063A1.742,1.742,0,0,0,52.352,18.9Z" transform="translate(989.051 1704)" fill="#12263f"/>
    <path id="Trazado_981976" data-name="Trazado 981976" d="M-8642.051-9834h192.225" transform="translate(9196.602 11751.5)" fill="none" stroke="#000" stroke-linecap="round" stroke-width="6"/>
    <path id="Trazado_982919" data-name="Trazado 982919" d="M-8642.051-9834H-8442.6" transform="translate(9242.602 11454.5)" fill="none" stroke="#000" stroke-linecap="round" stroke-width="6"/>
    <g id="Grupo_1115458" data-name="Grupo 1115458" transform="translate(-695.368 1023.838)">
      <g id="Grupo_1115388" data-name="Grupo 1115388" transform="translate(1245.452 647.163)">
        <g id="Grupo_1115387" data-name="Grupo 1115387" transform="translate(0 -0.001)">
          <path id="Trazado_982562" data-name="Trazado 982562" d="M1594.717,731.356c-.185.837-.369,1.675-.579,2.511a2.884,2.884,0,0,1-.105.477c-.315,1.354-.633,2.692-.948,4.027-2.211,9.03-4.394,18.079-6.844,27.087-1.868,6.936-3.895,13.852-6.157,20.73-.894,2.75-1.816,5.562-2.816,8.411a97.867,97.867,0,0,1-7.894,17.84,54.878,54.878,0,0,1-6.265,8.61,27.309,27.309,0,0,1-2.736,2.692,15.524,15.524,0,0,1-7.894,3.887,12.886,12.886,0,0,1-9-2.412,31.762,31.762,0,0,1-7.894-8.032,88.544,88.544,0,0,1-9-16.425c-1.289-2.969-2.263-5.562-2.921-7.355q-2.683-7.385-4.973-14.83c-3.421-10.943-6.29-21.966-8.973-33.027-.92-3.728-1.817-7.475-2.685-11.2q-.358-1.5-.71-2.991t-.71-2.991c-1.238-5.282-2.5-10.584-3.79-15.866q-2.014-8.252-4.212-16.464c-1.527-5.6-3.052-11.242-4.789-16.843a191.2,191.2,0,0,0-7.894-21.407c-.553-1.255-1.1-2.492-1.709-3.728a79.707,79.707,0,0,0-7.289-12.8,33.834,33.834,0,0,0-7.894-7.933,26.351,26.351,0,0,0-3.29-1.993,27.771,27.771,0,0,0-5.686-2.174,19.887,19.887,0,0,0-7.894-.419,21.934,21.934,0,0,0-9,3.668,37.208,37.208,0,0,0-7.894,7.4,74.458,74.458,0,0,0-9,14.59c-.789,1.614-1.473,3.109-2.027,4.425q-3.236,7.5-5.868,15.129c-3.526,10.025-6.4,20.192-8.973,30.437-2.027,7.974-3.869,15.987-5.685,23.978q-.354,1.5-.71,2.991c-.21,1-.446,1.993-.684,2.99-.264,1.157-.528,2.333-.815,3.487-1.158,5.022-2.37,10.047-3.633,15.03-1.709,6.757-3.446,13.495-5.368,20.231-2.263,8.013-4.814,15.987-7.894,23.839-.131.338-.261.7-.395,1.036-2.132,5.422-4.579,12.538-8.607,18.577a29.484,29.484,0,0,1-7.894,8.292,21.318,21.318,0,0,1-2.262,1.376,14.4,14.4,0,0,1-6.71,1.814,14.085,14.085,0,0,1-7.894-2.571c-3.341-2.272-6.341-5.841-9-10.006a95.9,95.9,0,0,1-7.895-16.146c-3.131-8.054-5.157-15.368-6.026-18.178-1.053-3.35-2.027-6.7-2.974-10.066-2.9-10.107-5.422-20.25-7.895-30.4-.5-2.113-1-4.225-1.527-6.319q-.354-1.5-.71-2.991t-.71-2.99c-1.973-8.213-3.92-16.4-6.052-24.6-1.816-7.076-3.764-14.151-5.9-21.188-.658-2.152-1.317-4.306-2-6.458a153.075,153.075,0,0,0-8.975-22.983,83.86,83.86,0,0,0-4.238-7.634c-1.079-1.714-2.291-3.547-3.659-5.321a31.641,31.641,0,0,0-9-8.273,21.889,21.889,0,0,0-7.763-2.87c-.054,0-.08-.019-.131-.019a24.229,24.229,0,0,0-9,.14,23.178,23.178,0,0,0-7.894,3.369,35.437,35.437,0,0,0-8.975,8.849,74.581,74.581,0,0,0-7.894,14.312c-2.4,5.6-4.1,10.864-5.342,14.392q-1.934,5.473-3.659,11c-2.947,9.389-5.526,18.855-7.894,28.364-1.6,6.3-3.105,12.6-4.6,18.915q-.357,1.5-.71,2.99t-.709,2.991h8.078c.236-.976.448-1.974.684-2.991.236-1,.446-1.993.659-2.99,1.5-6.637,2.947-13.375,4.5-20.112a292.13,292.13,0,0,1,9-32.449,156.461,156.461,0,0,1,7.894-18.756c1.263-2.511,2.606-4.984,4.054-7.415a57.912,57.912,0,0,1,4.922-7.314,22.408,22.408,0,0,1,7.894-6.478,12.955,12.955,0,0,1,8.368-.737c.21.06.42.1.633.178a18.358,18.358,0,0,1,7.894,4.745c4.053,3.967,6.895,9.449,9,14.013.71,1.574,1.368,3.029,1.922,4.285,2.211,4.883,4.184,9.806,5.973,14.789,3.554,9.668,6.421,19.515,8.976,29.419,2.211,8.591,4.184,17.221,6.157,25.833.238,1,.448,1.993.684,2.99s.449,1.993.684,2.991c.131.537.238,1.056.369,1.6q1.814,7.862,3.736,15.647c1.684,6.716,3.395,13.454,5.263,20.171,2.291,8.273,4.842,16.484,7.894,24.6.184.578.42,1.135.63,1.714,2.291,5.96,4.789,12.358,8.368,18.257a47.822,47.822,0,0,0,7.895,10.047c.236.239.474.458.71.677a26.834,26.834,0,0,0,8.289,5.321,19.925,19.925,0,0,0,7.894,1.355,22.541,22.541,0,0,0,8.973-2.292,34.691,34.691,0,0,0,7.894-5.381,47.641,47.641,0,0,0,9-11.122c.133-.239.264-.458.395-.7a147.627,147.627,0,0,0,7.5-15.428,218.3,218.3,0,0,0,9-26.61c3.026-10.962,5.447-22.045,7.894-32.988.369-1.634.735-3.249,1.1-4.863.236-1,.446-1.993.684-2.99s.474-1.993.684-2.991c.315-1.355.658-2.692.974-4.027,1.789-7.374,3.605-14.77,5.527-22.144,2.237-8.591,4.658-17.163,7.474-25.653.131-.419.264-.837.42-1.256,2.421-7.435,5.027-15.387,9-22.742a55.846,55.846,0,0,1,7.553-10.883c.105-.14.236-.258.341-.378,3.131-3.369,6.131-5.222,9-5.921a11.685,11.685,0,0,1,7.895.8c3.264,1.475,6.262,4.246,8.973,7.634a71.772,71.772,0,0,1,7.894,12.917,127.4,127.4,0,0,1,5.342,12.6c1.289,3.547,2.526,7.095,3.656,10.664,2.974,9.129,5.552,18.337,7.894,27.586,1.788,6.936,3.449,13.873,5.078,20.809q.354,1.5.71,2.991c.236,1,.474,1.993.71,2.99.843,3.528,1.658,7.037,2.5,10.565,1.763,7.275,3.551,14.531,5.5,21.766.789,2.89,1.578,5.8,2.4,8.711a228.312,228.312,0,0,0,8.973,26.549c.948,2.253,1.947,4.5,3.026,6.717,1.42,2.93,2.975,6.1,4.869,9.189a38.725,38.725,0,0,0,9,10.565,25.68,25.68,0,0,0,4.6,2.99,26.886,26.886,0,0,0,3.29,1.436,20.956,20.956,0,0,0,9,1.3,19.9,19.9,0,0,0,7.894-2.371,32.6,32.6,0,0,0,9-7.355,65.156,65.156,0,0,0,7.894-11.461c1.868-3.369,3.315-6.538,4.394-9.03q2.448-5.711,4.578-11.481c3.026-8.273,5.606-16.643,7.894-25.055,3-10.962,5.552-22,8.078-33.027q.357-1.5.71-2.991c.054-.318.131-.638.21-.957C1603.276,729.726,1594.953,730.358,1594.717,731.356Z" transform="translate(-1208.712 -628.523)" fill="#68d5e9"/>
        </g>
      </g>
      <path id="Trazado_982563" data-name="Trazado 982563" d="M1797.006,679.979H1193.822a3.674,3.674,0,0,0-1.178.188c-2.966.988-2.966,5.7,0,6.687a3.649,3.649,0,0,0,1.178.188h603.185C1801.545,687.042,1801.568,679.979,1797.006,679.979Z" transform="translate(0 66.5)" fill="#37353a"/>
    </g>
    <path id="Trazado_983307" data-name="Trazado 983307" d="M10,0A10,10,0,1,1,0,10,10,10,0,0,1,10,0Z" transform="translate(544.051 1765)" fill="#fc7777"/>
    <path id="Trazado_983308" data-name="Trazado 983308" d="M10,0A10,10,0,1,1,0,10,10,10,0,0,1,10,0Z" transform="translate(642.051 1765)" fill="#fc7777"/>
    <path id="Trazado_983309" data-name="Trazado 983309" d="M10,0A10,10,0,1,1,0,10,10,10,0,0,1,10,0Z" transform="translate(737.051 1765)" fill="#fc7777"/>
    <path id="Trazado_983310" data-name="Trazado 983310" d="M10,0A10,10,0,1,1,0,10,10,10,0,0,1,10,0Z" transform="translate(835.051 1765)" fill="#fc7777"/>
    <path id="Trazado_983311" data-name="Trazado 983311" d="M10,0A10,10,0,1,1,0,10,10,10,0,0,1,10,0Z" transform="translate(930.051 1765)" fill="#fc7777"/>
    <path id="Trazado_982920" data-name="Trazado 982920" d="M-8537.051-9955v-65.622" transform="translate(9137.051 11608.122)" fill="none" stroke="#fc7777" stroke-linecap="round" stroke-width="5" stroke-dasharray="3 7"/>
    <path id="Trazado_982923" data-name="Trazado 982923" d="M-8537.051-9955v-65.622" transform="translate(9088.102 11905.122)" fill="none" stroke="#fc7777" stroke-linecap="round" stroke-width="5" stroke-dasharray="3 7"/>
    <path id="Trazado_982921" data-name="Trazado 982921" d="M-8537.051-9955v-65.622" transform="translate(9337.051 11608.122)" fill="none" stroke="#fc7777" stroke-linecap="round" stroke-width="5" stroke-dasharray="3 7"/>
    <path id="Trazado_982922" data-name="Trazado 982922" d="M-8537.051-9955v-65.622" transform="translate(9288.102 11905.122)" fill="none" stroke="#fc7777" stroke-linecap="round" stroke-width="5" stroke-dasharray="3 7"/>
    <path id="Trazado_982924" data-name="Trazado 982924" d="M-8537.051-9923.974v-96.648" transform="translate(9507.102 11691.622)" fill="none" stroke="#fc7777" stroke-linecap="round" stroke-width="5" stroke-dasharray="3 7"/>
    <path id="Trazado_982925" data-name="Trazado 982925" d="M-8287.043-9841.25l14.2-14.2" transform="translate(9139.051 11608)" fill="none" stroke="#f7e081" stroke-linecap="round" stroke-width="2"/>
  </g>
</svg>
