<svg xmlns="http://www.w3.org/2000/svg" xmlns:xlink="http://www.w3.org/1999/xlink" width="123" height="123" viewBox="0 0 123 123">
  <defs>
    <filter id="Elipse_11613" x="0" y="0" width="123" height="123" filterUnits="userSpaceOnUse">
      <feOffset dy="3" input="SourceAlpha"/>
      <feGaussianBlur stdDeviation="3" result="blur"/>
      <feFlood flood-opacity="0.161"/>
      <feComposite operator="in" in2="blur"/>
      <feComposite in="SourceGraphic"/>
    </filter>
  </defs>
  <g id="Grupo_1115477" data-name="Grupo 1115477" transform="translate(-276.051 -792)">
    <g transform="matrix(1, 0, 0, 1, 276.05, 792)" filter="url(#Elipse_11613)">
      <circle id="Elipse_11613-2" data-name="Elipse 11613" cx="52.5" cy="52.5" r="52.5" transform="translate(9 6)" fill="#fcf3cc"/>
    </g>
    <g id="Grupo_1115464" data-name="Grupo 1115464" transform="translate(306.051 819)">
      <g id="Grupo_1115475" data-name="Grupo 1115475">
        <g id="Grupo_1115464-2" data-name="Grupo 1115464">
          <path id="Trazado_982966" data-name="Trazado 982966" d="M59,49a2.006,2.006,0,0,0,2-2V46a2.006,2.006,0,0,0-2-2,2.006,2.006,0,0,0,2-2V41a2.006,2.006,0,0,0-2-2H47V6a3.009,3.009,0,0,0-3-3H4A3.009,3.009,0,0,0,1,6V58a3.009,3.009,0,0,0,3,3H60a3.009,3.009,0,0,0,3-3V49Z" fill="#ffdaaa"/>
        </g>
        <g id="Grupo_1115474" data-name="Grupo 1115474">
          <g id="Grupo_1115465" data-name="Grupo 1115465">
            <path id="Trazado_982967" data-name="Trazado 982967" d="M47,6a3.009,3.009,0,0,0-3-3H4A3.009,3.009,0,0,0,1,6v9H47Z" fill="#fff"/>
          </g>
          <g id="Grupo_1115466" data-name="Grupo 1115466">
            <circle id="Elipse_11609" data-name="Elipse 11609" cx="15" cy="15" r="15" transform="translate(9.001 22)" fill="#fff"/>
          </g>
          <g id="Grupo_1115467" data-name="Grupo 1115467">
            <circle id="Elipse_11610" data-name="Elipse 11610" cx="10" cy="10" r="10" transform="translate(14.001 27)" fill="#ff9478"/>
          </g>
          <g id="Grupo_1115468" data-name="Grupo 1115468">
            <path id="Trazado_982968" data-name="Trazado 982968" d="M41,49v9a3.009,3.009,0,0,0,3,3H60a3.009,3.009,0,0,0,3-3V49Z" fill="#ff9478"/>
          </g>
          <g id="Grupo_1115469" data-name="Grupo 1115469">
            <circle id="Elipse_11611" data-name="Elipse 11611" cx="2" cy="2" r="2" transform="translate(5 7)" fill="#ff9478"/>
          </g>
          <g id="Grupo_1115470" data-name="Grupo 1115470">
            <circle id="Elipse_11612" data-name="Elipse 11612" cx="2" cy="2" r="2" transform="translate(39 7)" fill="#ff9478"/>
          </g>
          <g id="Grupo_1115471" data-name="Grupo 1115471">
            <path id="Trazado_982969" data-name="Trazado 982969" d="M35,9a2.006,2.006,0,0,1-2,2H27a2,2,0,0,1,0-4h6A2.006,2.006,0,0,1,35,9Z" fill="#ff9478"/>
          </g>
          <g id="Grupo_1115472" data-name="Grupo 1115472">
            <path id="Trazado_982970" data-name="Trazado 982970" d="M61,46a2.006,2.006,0,0,0-2-2H45a2.006,2.006,0,0,0-2,2v1a2.006,2.006,0,0,0,2,2H59a2.006,2.006,0,0,0,2-2Z" fill="#fff"/>
          </g>
          <g id="Grupo_1115473" data-name="Grupo 1115473">
            <path id="Trazado_982971" data-name="Trazado 982971" d="M61,41a2.006,2.006,0,0,0-2-2H45a2.006,2.006,0,0,0-2,2v1a2.006,2.006,0,0,0,2,2H59a2.006,2.006,0,0,0,2-2Z" fill="#fff"/>
          </g>
        </g>
      </g>
      <g id="Grupo_1115476" data-name="Grupo 1115476">
        <path id="Trazado_982972" data-name="Trazado 982972" d="M24,21A16,16,0,1,0,40,37,16.019,16.019,0,0,0,24,21Zm0,30A14,14,0,1,1,38,37,14.015,14.015,0,0,1,24,51Z"/>
        <path id="Trazado_982973" data-name="Trazado 982973" d="M24,26A11,11,0,1,0,35,37,11.012,11.012,0,0,0,24,26Zm0,20a9,9,0,1,1,9-9A9.01,9.01,0,0,1,24,46Z"/>
        <path id="Trazado_982974" data-name="Trazado 982974" d="M30,36a1,1,0,0,0-1,1,5.006,5.006,0,0,1-5,5,1,1,0,0,0,0,2,7.009,7.009,0,0,0,7-7A1,1,0,0,0,30,36Z"/>
        <path id="Trazado_982975" data-name="Trazado 982975" d="M63,48H61.815A2.938,2.938,0,0,0,62,47V46a2.981,2.981,0,0,0-.78-2A2.981,2.981,0,0,0,62,42V41a3,3,0,0,0-3-3H48V6a4,4,0,0,0-4-4H4A4,4,0,0,0,0,6v8.995S0,15,0,15s0,0,0,.005V58a4,4,0,0,0,4,4H60a4,4,0,0,0,4-4V49A1,1,0,0,0,63,48ZM44,47V46a1,1,0,0,1,1-1H59a1,1,0,0,1,1,1v1a1,1,0,0,1-1,1H45A1,1,0,0,1,44,47Zm16-6v1a1,1,0,0,1-1,1H45a1,1,0,0,1-1-1V41a1,1,0,0,1,1-1H59A1,1,0,0,1,60,41ZM4,4H44a2,2,0,0,1,2,2v8H2V6A2,2,0,0,1,4,4ZM2,58V16H46V38H45a3,3,0,0,0-3,3v1a2.981,2.981,0,0,0,.78,2A2.981,2.981,0,0,0,42,46v1a2.938,2.938,0,0,0,.185,1H41a1,1,0,0,0-1,1v9a3.953,3.953,0,0,0,.557,2H4A2,2,0,0,1,2,58Zm60,0a2,2,0,0,1-2,2H44a2,2,0,0,1-2-2V50H62Z"/>
        <path id="Trazado_982976" data-name="Trazado 982976" d="M7,12A3,3,0,1,0,4,9,3,3,0,0,0,7,12ZM7,8A1,1,0,1,1,6,9,1,1,0,0,1,7,8Z"/>
        <path id="Trazado_982977" data-name="Trazado 982977" d="M41,12a3,3,0,1,0-3-3A3,3,0,0,0,41,12Zm0-4a1,1,0,1,1-1,1A1,1,0,0,1,41,8Z"/>
        <path id="Trazado_982978" data-name="Trazado 982978" d="M27,12h6a3,3,0,0,0,0-6H27a3,3,0,0,0,0,6Zm0-4h6a1,1,0,0,1,0,2H27a1,1,0,0,1,0-2Z"/>
      </g>
    </g>
  </g>
</svg>
