<svg xmlns="http://www.w3.org/2000/svg" xmlns:xlink="http://www.w3.org/1999/xlink" width="118" height="118.001" viewBox="0 0 118 118.001">
  <defs>
    <filter id="Trazado_874925" x="0" y="0" width="118" height="118.001" filterUnits="userSpaceOnUse">
      <feOffset dy="3" input="SourceAlpha"/>
      <feGaussianBlur stdDeviation="3" result="blur"/>
      <feFlood flood-opacity="0.161"/>
      <feComposite operator="in" in2="blur"/>
      <feComposite in="SourceGraphic"/>
    </filter>
  </defs>
  <g id="Grupo_1115046" data-name="Grupo 1115046" transform="translate(-817.427 -2518.29)">
    <g transform="matrix(1, 0, 0, 1, 817.43, 2518.29)" filter="url(#Trazado_874925)">
      <g id="Trazado_874925-2" data-name="Trazado 874925" transform="translate(9 6)" fill="#68d5e9" opacity="0.859">
        <path d="M 50.00000381469727 98.50060272216797 C 43.45188903808594 98.50060272216797 37.10043334960938 97.21847534179688 31.1220760345459 94.68984222412109 C 25.34690475463867 92.24716186523438 20.15996170043945 88.74991607666016 15.70531845092773 84.2952880859375 C 11.25068950653076 79.84064483642578 7.753446578979492 74.65370178222656 5.310760974884033 68.87853240966797 C 2.782132387161255 62.90017318725586 1.500003814697266 56.5487174987793 1.500003814697266 50.00058746337891 C 1.500003814697266 43.45190048217773 2.782132387161255 37.10044479370117 5.310760974884033 31.1220874786377 C 7.753446578979492 25.34691619873047 11.25068950653076 20.15997314453125 15.70531845092773 15.70532989501953 C 20.15996170043945 11.25068664550781 25.34690475463867 7.753444194793701 31.1220760345459 5.310758590698242 C 37.10043334960938 2.782130002975464 43.45188903808594 1.500001311302185 50.00000381469727 1.500001311302185 C 56.54811859130859 1.500001311302185 62.89957427978516 2.782130002975464 68.8779296875 5.310758590698242 C 74.65310668945312 7.753444194793701 79.84004974365234 11.25068664550781 84.29469299316406 15.70532989501953 C 88.74932098388672 20.15997314453125 92.24655914306641 25.34691619873047 94.68924713134766 31.1220874786377 C 97.21787261962891 37.10044479370117 98.5 43.45190048217773 98.5 50.00001525878906 C 98.5 56.5487174987793 97.21787261962891 62.90017318725586 94.68924713134766 68.87853240966797 C 92.24655914306641 74.65370178222656 88.74932098388672 79.84064483642578 84.29469299316406 84.2952880859375 C 79.84004974365234 88.74991607666016 74.65310668945312 92.24716186523438 68.8779296875 94.68984222412109 C 62.89957427978516 97.21847534179688 56.54811859130859 98.50060272216797 50.00000381469727 98.50060272216797 Z" stroke="none"/>
        <path d="M 50.00000381469727 2.999992370605469 C 43.65372848510742 2.999992370605469 37.49886703491211 4.242256164550781 31.70640563964844 6.692253112792969 C 26.11003112792969 9.059318542480469 21.08334350585938 12.4486083984375 16.7659912109375 16.76597595214844 C 12.44861602783203 21.08335113525391 9.059326171875 26.11002349853516 6.692268371582031 31.70640563964844 C 4.242263793945312 37.49887084960938 3.000007629394531 43.65373229980469 3.000007629394531 50.00059509277344 C 3.000007629394531 56.34687042236328 4.242263793945312 62.50173187255859 6.692268371582031 68.294189453125 C 9.059326171875 73.89056396484375 12.44861602783203 78.91725158691406 16.7659912109375 83.23461151123047 C 21.08334350585938 87.55197906494141 26.11003112792969 90.94126892089844 31.70640563964844 93.30833435058594 C 37.49886703491211 95.75833129882812 43.65372848510742 97.00059509277344 50.00000381469727 97.00059509277344 C 56.34627914428711 97.00059509277344 62.50114059448242 95.75833129882812 68.29360198974609 93.30833435058594 C 73.88996887207031 90.94126892089844 78.91664886474609 87.55197906494141 83.23401641845703 83.23461151123047 C 87.5513916015625 78.91725158691406 90.94068145751953 73.89056396484375 93.3077392578125 68.294189453125 C 95.75774383544922 62.50173187255859 97 56.34687042236328 97 50.00000762939453 C 97 43.65373229980469 95.75774383544922 37.49887084960938 93.3077392578125 31.70640563964844 C 90.94068145751953 26.11002349853516 87.5513916015625 21.08335113525391 83.23401641845703 16.76597595214844 C 78.91664886474609 12.4486083984375 73.88996887207031 9.059318542480469 68.29360198974609 6.692253112792969 C 62.50114059448242 4.242256164550781 56.34627914428711 2.999992370605469 50.00000381469727 2.999992370605469 M 50.00000381469727 -7.62939453125e-06 C 77.61423492431641 -7.62939453125e-06 100 22.38576507568359 100 50.00000762939453 L 100 50.00059509277344 C 100 77.61483764648438 77.61423492431641 100.0005950927734 50.00000381469727 100.0005950927734 C 22.38575744628906 100.0005950927734 7.62939453125e-06 77.61483764648438 7.62939453125e-06 50.00059509277344 L 7.62939453125e-06 50.00000762939453 C 7.62939453125e-06 22.38576507568359 22.38575744628906 -7.62939453125e-06 50.00000381469727 -7.62939453125e-06 Z" stroke="none" fill="#fff"/>
      </g>
    </g>
    <g id="Page-1" transform="translate(850.375 2548.466)">
      <g id="_082---Audio-Keyframes" data-name="082---Audio-Keyframes">
        <rect id="Rectangle-path" width="50" height="22" rx="2" transform="translate(1.052 29.052)" fill="#02a9f4"/>
        <path id="Shape" d="M56.605,33H54a1.742,1.742,0,0,1,1.737,1.737v19.1A1.742,1.742,0,0,1,54,55.578h2.605a1.742,1.742,0,0,0,1.737-1.737v-19.1A1.742,1.742,0,0,0,56.605,33Z" transform="translate(-7.107 -4.343)" fill="#0377bc"/>
        <rect id="Rectangle-path-2" data-name="Rectangle-path" width="50" height="22" rx="2" transform="translate(1.052 1.052)" fill="#ffdc00"/>
        <path id="Shape-2" data-name="Shape" d="M56.605,1H54a1.742,1.742,0,0,1,1.737,1.737v19.1A1.742,1.742,0,0,1,54,23.578h2.605a1.742,1.742,0,0,0,1.737-1.737V2.737A1.742,1.742,0,0,0,56.605,1Z" transform="translate(-7.107 -0.132)" fill="#fec108"/>
        <rect id="Rectangle-path-3" data-name="Rectangle-path" width="4.083" height="4.083" rx="0.784" transform="translate(5.791 44.284) rotate(-45)" fill="#f5f5f5"/>
        <rect id="Rectangle-path-4" data-name="Rectangle-path" width="4.083" height="4.083" rx="0.784" transform="translate(14.475 35.601) rotate(-45)" fill="#f5f5f5"/>
        <g id="Grupo_1115063" data-name="Grupo 1115063">
          <path id="Shape-3" data-name="Shape" d="M49.5,0H2.605A2.605,2.605,0,0,0,0,2.605v19.1a2.605,2.605,0,0,0,2.605,2.605H49.5A2.605,2.605,0,0,0,52.1,21.71V2.605A2.605,2.605,0,0,0,49.5,0Zm.868,21.71a.868.868,0,0,1-.868.868H2.605a.868.868,0,0,1-.868-.868V2.605a.868.868,0,0,1,.868-.868H49.5a.868.868,0,0,1,.868.868Z"/>
          <path id="Shape-4" data-name="Shape" d="M49.5,32H2.605A2.605,2.605,0,0,0,0,34.605v19.1a2.605,2.605,0,0,0,2.605,2.605H49.5A2.605,2.605,0,0,0,52.1,53.71v-19.1A2.605,2.605,0,0,0,49.5,32ZM2.605,33.737H49.5a.868.868,0,0,1,.868.868v4.342H20.573a1.571,1.571,0,0,0-.185-.228l-1.925-1.925a1.554,1.554,0,0,0-2.191,0L14.348,38.72a1.554,1.554,0,0,0,0,2.191l.347.347-4.568,4.568-.347-.347a1.554,1.554,0,0,0-2.191,0L5.664,47.4a1.519,1.519,0,0,0-.185.227H1.737V34.605a.868.868,0,0,1,.868-.868Zm13.1,6.079,1.659-1.66,1.659,1.66-1.659,1.659ZM10.343,48.5l-1.659,1.66L7.024,48.5,8.684,46.84ZM49.5,54.578H2.605a.868.868,0,0,1-.868-.868V49.368H5.479a1.571,1.571,0,0,0,.185.228l1.925,1.925a1.555,1.555,0,0,0,2.191,0L11.7,49.6a1.554,1.554,0,0,0,0-2.191l-.347-.347,4.568-4.568.347.347a1.555,1.555,0,0,0,2.191,0l1.924-1.924a1.519,1.519,0,0,0,.186-.229H50.367V53.71A.868.868,0,0,1,49.5,54.578Z" transform="translate(0 -4.211)"/>
          <path id="Shape-5" data-name="Shape" d="M5.868,12A.868.868,0,0,0,5,12.868v1.737a.868.868,0,0,0,1.737,0V12.868A.868.868,0,0,0,5.868,12Z" transform="translate(-0.658 -1.579)"/>
          <path id="Shape-6" data-name="Shape" d="M9.868,10A.868.868,0,0,0,9,10.868v5.21a.868.868,0,1,0,1.737,0v-5.21A.868.868,0,0,0,9.868,10Z" transform="translate(-1.184 -1.316)"/>
          <path id="Shape-7" data-name="Shape" d="M17.868,12a.868.868,0,0,0-.868.868v1.737a.868.868,0,1,0,1.737,0V12.868A.868.868,0,0,0,17.868,12Z" transform="translate(-2.237 -1.579)"/>
          <path id="Shape-8" data-name="Shape" d="M21.868,10a.868.868,0,0,0-.868.868v5.21a.868.868,0,1,0,1.737,0v-5.21A.868.868,0,0,0,21.868,10Z" transform="translate(-2.764 -1.316)"/>
          <path id="Shape-9" data-name="Shape" d="M29.868,7A.868.868,0,0,0,29,7.868V18.289a.868.868,0,0,0,1.737,0V7.868A.868.868,0,0,0,29.868,7Z" transform="translate(-3.817 -0.921)"/>
          <path id="Shape-10" data-name="Shape" d="M25.868,9A.868.868,0,0,0,25,9.868v6.947a.868.868,0,1,0,1.737,0V9.868A.868.868,0,0,0,25.868,9Z" transform="translate(-3.29 -1.184)"/>
          <path id="Shape-11" data-name="Shape" d="M13.868,12a.868.868,0,0,0-.868.868v1.737a.868.868,0,1,0,1.737,0V12.868A.868.868,0,0,0,13.868,12Z" transform="translate(-1.711 -1.579)"/>
          <path id="Shape-12" data-name="Shape" d="M53.868,12a.868.868,0,0,0-.868.868v1.737a.868.868,0,1,0,1.737,0V12.868A.868.868,0,0,0,53.868,12Z" transform="translate(-6.975 -1.579)"/>
          <path id="Shape-13" data-name="Shape" d="M49.868,10a.868.868,0,0,0-.868.868v5.21a.868.868,0,1,0,1.737,0v-5.21A.868.868,0,0,0,49.868,10Z" transform="translate(-6.449 -1.316)"/>
          <path id="Shape-14" data-name="Shape" d="M41.868,12a.868.868,0,0,0-.868.868v1.737a.868.868,0,0,0,1.737,0V12.868A.868.868,0,0,0,41.868,12Z" transform="translate(-5.396 -1.579)"/>
          <path id="Shape-15" data-name="Shape" d="M37.868,10a.868.868,0,0,0-.868.868v5.21a.868.868,0,0,0,1.737,0v-5.21A.868.868,0,0,0,37.868,10Z" transform="translate(-4.869 -1.316)"/>
          <path id="Shape-16" data-name="Shape" d="M33.868,9A.868.868,0,0,0,33,9.868v6.947a.868.868,0,1,0,1.737,0V9.868A.868.868,0,0,0,33.868,9Z" transform="translate(-4.343 -1.184)"/>
          <path id="Shape-17" data-name="Shape" d="M45.868,12a.868.868,0,0,0-.868.868v1.737a.868.868,0,0,0,1.737,0V12.868A.868.868,0,0,0,45.868,12Z" transform="translate(-5.922 -1.579)"/>
        </g>
      </g>
    </g>
  </g>
</svg>
