<svg xmlns="http://www.w3.org/2000/svg" xmlns:xlink="http://www.w3.org/1999/xlink" width="118" height="118.001" viewBox="0 0 118 118.001">
  <defs>
    <filter id="Trazado_874925" x="0" y="0" width="118" height="118.001" filterUnits="userSpaceOnUse">
      <feOffset dy="3" input="SourceAlpha"/>
      <feGaussianBlur stdDeviation="3" result="blur"/>
      <feFlood flood-opacity="0.161"/>
      <feComposite operator="in" in2="blur"/>
      <feComposite in="SourceGraphic"/>
    </filter>
  </defs>
  <g id="Grupo_1115047" data-name="Grupo 1115047" transform="translate(-817.427 -2518.29)">
    <g transform="matrix(1, 0, 0, 1, 817.43, 2518.29)" filter="url(#Trazado_874925)">
      <g id="Trazado_874925-2" data-name="Trazado 874925" transform="translate(9 6)" fill="#68d5e9" opacity="0.859">
        <path d="M 50.00000381469727 98.50060272216797 C 43.45188903808594 98.50060272216797 37.10043334960938 97.21847534179688 31.1220760345459 94.68984222412109 C 25.34690475463867 92.24716186523438 20.15996170043945 88.74991607666016 15.70531845092773 84.2952880859375 C 11.25068950653076 79.84064483642578 7.753446578979492 74.65370178222656 5.310760974884033 68.87853240966797 C 2.782132387161255 62.90017318725586 1.500003814697266 56.5487174987793 1.500003814697266 50.00058746337891 C 1.500003814697266 43.45190048217773 2.782132387161255 37.10044479370117 5.310760974884033 31.1220874786377 C 7.753446578979492 25.34691619873047 11.25068950653076 20.15997314453125 15.70531845092773 15.70532989501953 C 20.15996170043945 11.25068664550781 25.34690475463867 7.753444194793701 31.1220760345459 5.310758590698242 C 37.10043334960938 2.782130002975464 43.45188903808594 1.500001311302185 50.00000381469727 1.500001311302185 C 56.54811859130859 1.500001311302185 62.89957427978516 2.782130002975464 68.8779296875 5.310758590698242 C 74.65310668945312 7.753444194793701 79.84004974365234 11.25068664550781 84.29469299316406 15.70532989501953 C 88.74932098388672 20.15997314453125 92.24655914306641 25.34691619873047 94.68924713134766 31.1220874786377 C 97.21787261962891 37.10044479370117 98.5 43.45190048217773 98.5 50.00001525878906 C 98.5 56.5487174987793 97.21787261962891 62.90017318725586 94.68924713134766 68.87853240966797 C 92.24655914306641 74.65370178222656 88.74932098388672 79.84064483642578 84.29469299316406 84.2952880859375 C 79.84004974365234 88.74991607666016 74.65310668945312 92.24716186523438 68.8779296875 94.68984222412109 C 62.89957427978516 97.21847534179688 56.54811859130859 98.50060272216797 50.00000381469727 98.50060272216797 Z" stroke="none"/>
        <path d="M 50.00000381469727 2.999992370605469 C 43.65372848510742 2.999992370605469 37.49886703491211 4.242256164550781 31.70640563964844 6.692253112792969 C 26.11003112792969 9.059318542480469 21.08334350585938 12.4486083984375 16.7659912109375 16.76597595214844 C 12.44861602783203 21.08335113525391 9.059326171875 26.11002349853516 6.692268371582031 31.70640563964844 C 4.242263793945312 37.49887084960938 3.000007629394531 43.65373229980469 3.000007629394531 50.00059509277344 C 3.000007629394531 56.34687042236328 4.242263793945312 62.50173187255859 6.692268371582031 68.294189453125 C 9.059326171875 73.89056396484375 12.44861602783203 78.91725158691406 16.7659912109375 83.23461151123047 C 21.08334350585938 87.55197906494141 26.11003112792969 90.94126892089844 31.70640563964844 93.30833435058594 C 37.49886703491211 95.75833129882812 43.65372848510742 97.00059509277344 50.00000381469727 97.00059509277344 C 56.34627914428711 97.00059509277344 62.50114059448242 95.75833129882812 68.29360198974609 93.30833435058594 C 73.88996887207031 90.94126892089844 78.91664886474609 87.55197906494141 83.23401641845703 83.23461151123047 C 87.5513916015625 78.91725158691406 90.94068145751953 73.89056396484375 93.3077392578125 68.294189453125 C 95.75774383544922 62.50173187255859 97 56.34687042236328 97 50.00000762939453 C 97 43.65373229980469 95.75774383544922 37.49887084960938 93.3077392578125 31.70640563964844 C 90.94068145751953 26.11002349853516 87.5513916015625 21.08335113525391 83.23401641845703 16.76597595214844 C 78.91664886474609 12.4486083984375 73.88996887207031 9.059318542480469 68.29360198974609 6.692253112792969 C 62.50114059448242 4.242256164550781 56.34627914428711 2.999992370605469 50.00000381469727 2.999992370605469 M 50.00000381469727 -7.62939453125e-06 C 77.61423492431641 -7.62939453125e-06 100 22.38576507568359 100 50.00000762939453 L 100 50.00059509277344 C 100 77.61483764648438 77.61423492431641 100.0005950927734 50.00000381469727 100.0005950927734 C 22.38575744628906 100.0005950927734 7.62939453125e-06 77.61483764648438 7.62939453125e-06 50.00059509277344 L 7.62939453125e-06 50.00000762939453 C 7.62939453125e-06 22.38576507568359 22.38575744628906 -7.62939453125e-06 50.00000381469727 -7.62939453125e-06 Z" stroke="none" fill="#fff"/>
      </g>
    </g>
    <g id="Artboard401" transform="translate(824.464 2533.151)">
      <g id="Grupo_1115070" data-name="Grupo 1115070" transform="translate(19.551 7)">
        <g id="Grupo_1115069" data-name="Grupo 1115069" transform="translate(19.716 1.101)">
          <g id="Grupo_1115068" data-name="Grupo 1115068">
            <g id="Grupo_1115064" data-name="Grupo 1115064" transform="translate(0 14.309)">
              <path id="Trazado_980720" data-name="Trazado 980720" d="M177.694,125.56a10.747,10.747,0,0,1,10.059,10.719v32.371a2.065,2.065,0,0,1-2.065,2.065H164.839a2.065,2.065,0,0,1-2.065-2.065V136.28a10.747,10.747,0,0,1,10.059-10.719v-6.611h4.861Z" transform="translate(-162.774 -118.949)" fill="#8192a5" fill-rule="evenodd"/>
              <path id="Trazado_980721" data-name="Trazado 980721" d="M260.156,118.949h1.514v6.611a10.747,10.747,0,0,1,10.059,10.719v32.371a2.065,2.065,0,0,1-2.065,2.065H268.15a2.065,2.065,0,0,0,2.065-2.065V136.28a10.747,10.747,0,0,0-10.059-10.719Z" transform="translate(-246.751 -118.949)" fill="#65788e" fill-rule="evenodd"/>
            </g>
            <g id="Grupo_1115065" data-name="Grupo 1115065" transform="translate(4.673)">
              <path id="Trazado_980722" data-name="Trazado 980722" d="M212.354,28.9a1.377,1.377,0,0,1-1.377,1.377H198.1a1.377,1.377,0,0,1-1.377-1.377V22.816a7.816,7.816,0,0,1,15.632,0Z" transform="translate(-196.722 -15)" fill="#837683" fill-rule="evenodd"/>
              <path id="Trazado_980723" data-name="Trazado 980723" d="M248.5,15.03q.34-.03.688-.03A7.82,7.82,0,0,1,257,22.816V28.9a1.377,1.377,0,0,1-1.377,1.377h-1.377a1.377,1.377,0,0,0,1.377-1.377V22.816A7.821,7.821,0,0,0,248.5,15.03Z" transform="translate(-241.372 -15)" fill="#685e68" fill-rule="evenodd"/>
            </g>
            <g id="Grupo_1115066" data-name="Grupo 1115066" transform="translate(6.223 29.643)">
              <path id="Trazado_980724" data-name="Trazado 980724" d="M219.826,230.341a.688.688,0,0,1,.688.688v14.847a.688.688,0,0,1-.688.688H208.671a.688.688,0,0,1-.688-.688V231.029a.688.688,0,0,1,.688-.688Z" transform="translate(-207.983 -230.341)" fill="#837683" fill-rule="evenodd"/>
              <path id="Trazado_980725" data-name="Trazado 980725" d="M210.323,246.564h-1.652a.688.688,0,0,1-.688-.688V231.029a.688.688,0,0,1,.688-.688h1.652a.688.688,0,0,0-.688.688v14.847A.688.688,0,0,0,210.323,246.564Z" transform="translate(-207.983 -230.341)" fill="#685e68" fill-rule="evenodd"/>
            </g>
            <g id="Grupo_1115067" data-name="Grupo 1115067" transform="translate(8.993 53.901)">
              <circle id="Elipse_11571" data-name="Elipse 11571" cx="3.497" cy="3.497" r="3.497" fill="#837683"/>
              <path id="Trazado_980726" data-name="Trazado 980726" d="M248.5,406.622a3.5,3.5,0,1,1,0,6.857,3.5,3.5,0,0,0,0-6.857Z" transform="translate(-245.692 -406.554)" fill="#685e68" fill-rule="evenodd"/>
            </g>
          </g>
        </g>
        <path id="Trazado_980727" data-name="Trazado 980727" d="M55.288,24.48v3.553A11.852,11.852,0,0,1,65.346,39.741V74.177a1.1,1.1,0,0,1-1.1,1.1H39.267a1.1,1.1,0,0,1-1.1-1.1V39.741A11.852,11.852,0,0,1,48.224,28.033V24.48H45.317A2.478,2.478,0,0,1,42.839,22V15.917a8.917,8.917,0,0,1,17.834,0V22A2.478,2.478,0,0,1,58.2,24.48Zm-4.861,0v4.542a1.1,1.1,0,0,1-1.032,1.1,9.645,9.645,0,0,0-9.026,9.62V73.076H63.144V39.741a9.645,9.645,0,0,0-9.026-9.62,1.1,1.1,0,0,1-1.032-1.1V24.48ZM58.471,22V15.917a6.715,6.715,0,0,0-13.429,0V22a.275.275,0,0,0,.275.275H58.2A.275.275,0,0,0,58.471,22ZM42.711,67.315a1.1,1.1,0,1,1,0-2.2h2.384a1.1,1.1,0,0,1,0,2.2Zm15.633,0a1.1,1.1,0,0,1,0-2.2h2.384a1.1,1.1,0,0,1,0,2.2ZM51.756,60.9a4.6,4.6,0,1,1-4.6,4.6A4.6,4.6,0,0,1,51.756,60.9Zm0,2.2a2.4,2.4,0,1,0,2.4,2.4A2.4,2.4,0,0,0,51.756,63.1Zm7.367-25.358V53.968a1.1,1.1,0,0,1-1.1,1.1H45.49a1.1,1.1,0,0,1-1.1-1.1V37.745a1.1,1.1,0,0,1,1.1-1.1H58.022A1.1,1.1,0,0,1,59.123,37.745Zm-2.2,1.1H46.592V52.867H56.921Zm-7.429,5.9a1.1,1.1,0,0,1,0-2.2h4.53a1.1,1.1,0,0,1,0,2.2Zm0,4.424a1.1,1.1,0,0,1,0-2.2h4.53a1.1,1.1,0,1,1,0,2.2Zm-29.582-11.5a1.1,1.1,0,1,1,1.486-1.626,8.854,8.854,0,0,1,0,13.29,1.1,1.1,0,1,1-1.485-1.626,6.653,6.653,0,0,0,0-10.037Zm5.613,15.434a1.1,1.1,0,1,1-1.486-1.626,11.667,11.667,0,0,0,0-17.579,1.1,1.1,0,1,1,1.486-1.626,13.868,13.868,0,0,1,0,20.831Zm2.641-22.976a1.1,1.1,0,1,1,1.486-1.626,18.881,18.881,0,0,1,0,28.372,1.1,1.1,0,0,1-1.486-1.626,16.68,16.68,0,0,0,0-25.12ZM82.53,38.079A1.1,1.1,0,1,1,84.016,39.7a6.653,6.653,0,0,0,0,10.037,1.1,1.1,0,1,1-1.485,1.626,8.854,8.854,0,0,1,0-13.29ZM79.889,53.513A1.1,1.1,0,1,1,78.4,55.139a13.868,13.868,0,0,1,0-20.831,1.1,1.1,0,1,1,1.486,1.626,11.667,11.667,0,0,0,0,17.579ZM74.276,30.538a1.1,1.1,0,1,1,1.486,1.626,16.68,16.68,0,0,0,0,25.12,1.1,1.1,0,1,1-1.486,1.626,18.881,18.881,0,0,1,0-28.372Z" transform="translate(-19.551 -7)" fill-rule="evenodd"/>
      </g>
    </g>
  </g>
</svg>
