<svg xmlns="http://www.w3.org/2000/svg" xmlns:xlink="http://www.w3.org/1999/xlink" width="231.916" height="178.011" viewBox="0 0 231.916 178.011">
  <defs>
    <clipPath id="clip-path">
      <rect id="Rectángulo_402351" data-name="Rectángulo 402351" width="231.916" height="178.011" fill="none"/>
    </clipPath>
  </defs>
  <g id="_1" data-name="1" transform="translate(0 -0.005)">
    <g id="Grupo_1100582" data-name="Grupo 1100582" transform="translate(0 0.005)" clip-path="url(#clip-path)">
      <path id="Trazado_877160" data-name="Trazado 877160" d="M1341.9,45.026a4.653,4.653,0,1,1-4.653-4.653,4.653,4.653,0,0,1,4.653,4.653" transform="translate(-1153.02 -34.933)" fill="#f2e5fd"/>
      <path id="Trazado_877161" data-name="Trazado 877161" d="M1480.03,45.026a4.653,4.653,0,1,1-4.653-4.653,4.653,4.653,0,0,1,4.653,4.653" transform="translate(-1272.536 -34.933)" fill="#f2e5fd"/>
      <path id="Trazado_877162" data-name="Trazado 877162" d="M1618.16,45.026a4.653,4.653,0,1,1-4.653-4.653,4.653,4.653,0,0,1,4.653,4.653" transform="translate(-1392.052 -34.933)" fill="#f2e5fd"/>
      <path id="Trazado_877163" data-name="Trazado 877163" d="M1409,114.091a4.653,4.653,0,1,1-4.653-4.653,4.653,4.653,0,0,1,4.653,4.653" transform="translate(-1211.076 -94.691)" fill="#f2e5fd"/>
      <path id="Trazado_877164" data-name="Trazado 877164" d="M1547.127,114.091a4.653,4.653,0,1,1-4.653-4.653,4.653,4.653,0,0,1,4.653,4.653" transform="translate(-1330.591 -94.691)" fill="#f2e5fd"/>
      <path id="Trazado_877165" data-name="Trazado 877165" d="M1340.916,183.155a4.653,4.653,0,1,1-4.653-4.654,4.653,4.653,0,0,1,4.653,4.654" transform="translate(-1152.168 -154.449)" fill="#f2e5fd"/>
      <path id="Trazado_877166" data-name="Trazado 877166" d="M1479.046,183.155a4.653,4.653,0,1,1-4.653-4.654,4.653,4.653,0,0,1,4.653,4.654" transform="translate(-1271.684 -154.449)" fill="#f2e5fd"/>
      <path id="Trazado_877167" data-name="Trazado 877167" d="M1617.176,183.155a4.653,4.653,0,1,1-4.653-4.654,4.653,4.653,0,0,1,4.653,4.654" transform="translate(-1391.201 -154.449)" fill="#f2e5fd"/>
      <path id="Trazado_877168" data-name="Trazado 877168" d="M1408.014,252.22a4.653,4.653,0,1,1-4.653-4.653,4.654,4.654,0,0,1,4.653,4.653" transform="translate(-1210.224 -214.207)" fill="#231f20"/>
      <path id="Trazado_877169" data-name="Trazado 877169" d="M1546.144,252.22a4.653,4.653,0,1,1-4.653-4.653,4.653,4.653,0,0,1,4.653,4.653" transform="translate(-1329.741 -214.207)" fill="#231f20"/>
      <path id="Trazado_877170" data-name="Trazado 877170" d="M1339.933,321.285a4.653,4.653,0,1,1-4.653-4.653,4.653,4.653,0,0,1,4.653,4.653" transform="translate(-1151.318 -273.965)" fill="#231f20"/>
      <path id="Trazado_877171" data-name="Trazado 877171" d="M1478.063,321.285a4.653,4.653,0,1,1-4.654-4.653,4.653,4.653,0,0,1,4.654,4.653" transform="translate(-1270.834 -273.965)" fill="#231f20"/>
      <path id="Trazado_877172" data-name="Trazado 877172" d="M1616.192,321.285a4.653,4.653,0,1,1-4.653-4.653,4.653,4.653,0,0,1,4.653,4.653" transform="translate(-1390.349 -273.965)" fill="#231f20"/>
      <path id="Trazado_877173" data-name="Trazado 877173" d="M402.712,885.391a4.653,4.653,0,1,1-4.654-4.653,4.654,4.654,0,0,1,4.654,4.653" transform="translate(-340.392 -762.055)" fill="#231f20"/>
      <path id="Trazado_877174" data-name="Trazado 877174" d="M540.842,885.391a4.653,4.653,0,1,1-4.653-4.653,4.653,4.653,0,0,1,4.653,4.653" transform="translate(-459.908 -762.055)" fill="#231f20"/>
      <path id="Trazado_877175" data-name="Trazado 877175" d="M678.972,885.391a4.653,4.653,0,1,1-4.654-4.653,4.653,4.653,0,0,1,4.654,4.653" transform="translate(-579.424 -762.055)" fill="#231f20"/>
      <path id="Trazado_877176" data-name="Trazado 877176" d="M469.809,954.456a4.653,4.653,0,1,1-4.653-4.653,4.653,4.653,0,0,1,4.653,4.653" transform="translate(-398.447 -821.813)" fill="#231f20"/>
      <path id="Trazado_877177" data-name="Trazado 877177" d="M607.939,954.456a4.653,4.653,0,1,1-4.653-4.653,4.654,4.654,0,0,1,4.653,4.653" transform="translate(-517.963 -821.813)" fill="#231f20"/>
      <path id="Trazado_877178" data-name="Trazado 877178" d="M401.728,1023.52a4.653,4.653,0,1,1-4.653-4.654,4.653,4.653,0,0,1,4.653,4.654" transform="translate(-339.54 -881.57)" fill="#8722e2"/>
      <path id="Trazado_877179" data-name="Trazado 877179" d="M539.858,1023.52a4.653,4.653,0,1,1-4.653-4.654,4.653,4.653,0,0,1,4.653,4.654" transform="translate(-459.057 -881.57)" fill="#8722e2"/>
      <path id="Trazado_877180" data-name="Trazado 877180" d="M677.988,1023.52a4.653,4.653,0,1,1-4.653-4.654,4.653,4.653,0,0,1,4.653,4.654" transform="translate(-578.573 -881.57)" fill="#8722e2"/>
      <path id="Trazado_877181" data-name="Trazado 877181" d="M468.825,1092.585a4.653,4.653,0,1,1-4.653-4.654,4.654,4.654,0,0,1,4.653,4.654" transform="translate(-397.596 -941.328)" fill="#8722e2"/>
      <path id="Trazado_877182" data-name="Trazado 877182" d="M606.955,1092.585a4.653,4.653,0,1,1-4.653-4.654,4.654,4.654,0,0,1,4.653,4.654" transform="translate(-517.112 -941.328)" fill="#8722e2"/>
      <path id="Trazado_877183" data-name="Trazado 877183" d="M400.744,1161.65A4.653,4.653,0,1,1,396.09,1157a4.654,4.654,0,0,1,4.653,4.653" transform="translate(-338.689 -1001.086)" fill="#8722e2"/>
      <path id="Trazado_877184" data-name="Trazado 877184" d="M538.874,1161.65A4.653,4.653,0,1,1,534.22,1157a4.654,4.654,0,0,1,4.653,4.653" transform="translate(-458.205 -1001.086)" fill="#8722e2"/>
      <path id="Trazado_877185" data-name="Trazado 877185" d="M677,1161.65A4.653,4.653,0,1,1,672.35,1157,4.654,4.654,0,0,1,677,1161.65" transform="translate(-577.722 -1001.086)" fill="#8722e2"/>
      <rect id="Rectángulo_402295" data-name="Rectángulo 402295" width="29.458" height="22.512" transform="translate(114.806 137.579)" fill="#2d6935"/>
      <path id="Trazado_877186" data-name="Trazado 877186" d="M880.007,1042.066H850.028v-23.033h29.979Zm-29.458-.521h28.937v-21.992H850.549Z" transform="translate(-735.483 -881.714)" fill="#231f20"/>
      <rect id="Rectángulo_402296" data-name="Rectángulo 402296" width="29.458" height="22.513" transform="translate(112.06 137.579)" fill="#fff6ed"/>
      <path id="Trazado_877187" data-name="Trazado 877187" d="M861.039,1053.4l-29.458,15.907V1053.4Z" transform="translate(-719.521 -911.45)" fill="#2d6935"/>
      <path id="Trazado_877188" data-name="Trazado 877188" d="M833.058,1192.4h-47.3v-1.257a3.113,3.113,0,0,1,3.114-3.113h41.073a3.113,3.113,0,0,1,3.113,3.113Z" transform="translate(-679.873 -1027.935)" fill="#2d6935"/>
      <path id="Trazado_877189" data-name="Trazado 877189" d="M831.648,1190.987H783.827v-1.518a3.378,3.378,0,0,1,3.374-3.374h41.073a3.378,3.378,0,0,1,3.374,3.374Zm-47.3-.521h46.779v-1a2.856,2.856,0,0,0-2.853-2.853H787.2a2.856,2.856,0,0,0-2.853,2.853Z" transform="translate(-678.203 -1026.264)" fill="#231f20"/>
      <path id="Trazado_877190" data-name="Trazado 877190" d="M812.678,1192.4h-47.3v-1.257a3.113,3.113,0,0,1,3.114-3.113h41.073a3.113,3.113,0,0,1,3.113,3.113Z" transform="translate(-662.24 -1027.935)" fill="#fff6ed"/>
      <path id="Trazado_877191" data-name="Trazado 877191" d="M859.629,1042.066H829.65v-23.033h29.979Zm-29.458-.521h28.937v-21.992H830.171Z" transform="translate(-717.85 -881.714)" fill="#231f20"/>
      <path id="Trazado_877192" data-name="Trazado 877192" d="M811.267,1190.987H763.446v-1.518a3.378,3.378,0,0,1,3.374-3.374h41.073a3.378,3.378,0,0,1,3.374,3.374Zm-47.3-.521h46.779v-1a2.856,2.856,0,0,0-2.853-2.853H766.82a2.856,2.856,0,0,0-2.853,2.853Z" transform="translate(-660.568 -1026.264)" fill="#231f20"/>
      <path id="Trazado_877193" data-name="Trazado 877193" d="M535.883,428.518H387.6a4.619,4.619,0,0,1-4.619-4.619V335.817A4.619,4.619,0,0,1,387.6,331.2H535.883a4.619,4.619,0,0,1,4.619,4.619V423.9a4.619,4.619,0,0,1-4.619,4.619" transform="translate(-331.368 -286.568)" fill="#2d6935"/>
      <path id="Trazado_877194" data-name="Trazado 877194" d="M534.211,427.106H385.923a4.885,4.885,0,0,1-4.88-4.88V334.145a4.885,4.885,0,0,1,4.88-4.88H534.211a4.885,4.885,0,0,1,4.88,4.88v88.082a4.885,4.885,0,0,1-4.88,4.88m-148.288-97.32a4.364,4.364,0,0,0-4.359,4.359v88.082a4.364,4.364,0,0,0,4.359,4.359H534.211a4.364,4.364,0,0,0,4.359-4.359V334.145a4.364,4.364,0,0,0-4.359-4.359Z" transform="translate(-329.696 -284.896)" fill="#231f20"/>
      <path id="Trazado_877195" data-name="Trazado 877195" d="M509.3,428.518H361.008a4.619,4.619,0,0,1-4.619-4.619V335.817a4.619,4.619,0,0,1,4.619-4.619H509.3a4.619,4.619,0,0,1,4.619,4.619V423.9a4.619,4.619,0,0,1-4.619,4.619" transform="translate(-308.364 -286.568)" fill="#fff6ed"/>
      <rect id="Rectángulo_402297" data-name="Rectángulo 402297" width="150.342" height="81.185" transform="translate(51.618 48.302)" fill="#00ffdf"/>
      <path id="Trazado_877196" data-name="Trazado 877196" d="M507.624,427.106H359.336a4.885,4.885,0,0,1-4.88-4.88V334.145a4.885,4.885,0,0,1,4.88-4.88H507.624a4.885,4.885,0,0,1,4.88,4.88v88.082a4.885,4.885,0,0,1-4.88,4.88m-148.288-97.32a4.364,4.364,0,0,0-4.359,4.359v88.082a4.364,4.364,0,0,0,4.359,4.359H507.624a4.364,4.364,0,0,0,4.359-4.359V334.145a4.364,4.364,0,0,0-4.359-4.359Z" transform="translate(-306.691 -284.896)" fill="#231f20"/>
      <path id="Trazado_877197" data-name="Trazado 877197" d="M531.979,438.223H381.116V356.517H531.979ZM381.637,437.7H531.458V357.038H381.637Z" transform="translate(-329.759 -308.475)" fill="#231f20"/>
      <path id="Trazado_877198" data-name="Trazado 877198" d="M930.219,997a1.437,1.437,0,1,1,1.437,1.437A1.437,1.437,0,0,1,930.219,997" transform="translate(-804.867 -861.411)" fill="#231f20"/>
      <rect id="Rectángulo_402298" data-name="Rectángulo 402298" width="20.657" height="29.023" transform="translate(21.053 130.077)" fill="#f0c518"/>
      <path id="Trazado_877199" data-name="Trazado 877199" d="M204.084,1005.579a4.505,4.505,0,1,1,4.505-4.505,4.511,4.511,0,0,1-4.505,4.505m0-8.663a4.158,4.158,0,1,0,4.158,4.158,4.163,4.163,0,0,0-4.158-4.158" transform="translate(-172.685 -862.276)" fill="#2d6935"/>
      <rect id="Rectángulo_402299" data-name="Rectángulo 402299" width="11.069" height="1.054" transform="translate(25.865 146.374)" fill="#ef4647"/>
      <rect id="Rectángulo_402300" data-name="Rectángulo 402300" width="11.069" height="1.054" transform="translate(25.865 148.878)" fill="#ef4647"/>
      <rect id="Rectángulo_402301" data-name="Rectángulo 402301" width="11.069" height="1.054" transform="translate(25.865 151.095)" fill="#ef4647"/>
      <path id="Trazado_877200" data-name="Trazado 877200" d="M1292.3,1113.011h1.513l-.019,1.9,1.63-.97.757,1.358-1.688.912,1.688.931-.757,1.358-1.649-.97.039,1.882H1292.3l.039-1.9-1.649.97-.757-1.339,1.669-.931-1.669-.912.757-1.377,1.649.99Z" transform="translate(-1116.11 -963.028)" fill="#8722e2"/>
      <path id="Trazado_877201" data-name="Trazado 877201" d="M1388.483,1113.011H1390l-.019,1.9,1.63-.97.757,1.358-1.688.912,1.688.931-.757,1.358-1.649-.97.039,1.882h-1.513l.039-1.9-1.649.97-.757-1.339,1.669-.931-1.669-.912.757-1.377,1.649.99Z" transform="translate(-1199.33 -963.028)" fill="#8722e2"/>
      <path id="Trazado_877202" data-name="Trazado 877202" d="M1484.663,1113.011h1.513l-.019,1.9,1.63-.97.757,1.358-1.688.912,1.688.931-.757,1.358-1.649-.97.039,1.882h-1.513l.039-1.9-1.649.97-.757-1.339,1.669-.931-1.669-.912.757-1.377,1.649.99Z" transform="translate(-1282.55 -963.028)" fill="#8722e2"/>
      <path id="Trazado_877203" data-name="Trazado 877203" d="M1580.844,1113.011h1.513l-.019,1.9,1.63-.97.757,1.358-1.688.912,1.688.931-.757,1.358-1.649-.97.039,1.882h-1.513l.039-1.9-1.649.97-.757-1.339,1.669-.931-1.669-.912.757-1.377,1.649.99Z" transform="translate(-1365.77 -963.028)" fill="#8722e2"/>
      <path id="Trazado_877204" data-name="Trazado 877204" d="M1677.025,1113.011h1.513l-.019,1.9,1.63-.97.757,1.358-1.688.912,1.688.931-.757,1.358-1.649-.97.039,1.882h-1.513l.039-1.9-1.649.97-.757-1.339,1.669-.931-1.669-.912.757-1.377,1.649.99Z" transform="translate(-1448.99 -963.028)" fill="#8722e2"/>
      <rect id="Rectángulo_402302" data-name="Rectángulo 402302" width="63.334" height="11.689" transform="translate(130.361 104.285)" fill="#fff"/>
      <path id="Trazado_877205" data-name="Trazado 877205" d="M1018.334,775.229H954.479v-12.21h63.855ZM955,774.708h62.814V763.54H955Z" transform="translate(-825.858 -660.199)" fill="#231f20"/>
      <path id="Trazado_877206" data-name="Trazado 877206" d="M1314.527,829.764l-18.4-17.917,2.854,25.52,5.286-5.541,4.357,8.906,2.636-1.29-4.357-8.906Z" transform="translate(-1121.472 -702.448)" fill="#231f20"/>
      <path id="Trazado_877207" data-name="Trazado 877207" d="M100.106,417.649H4.711a2.778,2.778,0,0,0-2.778,2.778v4.751h100.95v-4.751a2.778,2.778,0,0,0-2.778-2.778" transform="translate(-1.673 -361.369)" fill="#8722e2"/>
      <rect id="Rectángulo_402303" data-name="Rectángulo 402303" width="48.319" height="55.47" transform="translate(31.381 69.008)" fill="#fff6ed"/>
      <rect id="Rectángulo_402304" data-name="Rectángulo 402304" width="15.077" height="2.027" transform="translate(7.972 87.156)" fill="#00ffdf"/>
      <rect id="Rectángulo_402305" data-name="Rectángulo 402305" width="11.123" height="3.056" transform="translate(34.993 73.011)" fill="#fbb033"/>
      <rect id="Rectángulo_402306" data-name="Rectángulo 402306" width="12.484" height="2.027" transform="translate(9.242 90.17)" fill="#00ffdf"/>
      <rect id="Rectángulo_402307" data-name="Rectángulo 402307" width="41.214" height="1.159" transform="translate(34.934 80.353)" fill="#fbb033"/>
      <rect id="Rectángulo_402308" data-name="Rectángulo 402308" width="41.214" height="1.159" transform="translate(34.934 82.818)" fill="#fbb033"/>
      <rect id="Rectángulo_402309" data-name="Rectángulo 402309" width="41.214" height="1.159" transform="translate(34.934 77.887)" fill="#fbb033"/>
      <path id="Trazado_877208" data-name="Trazado 877208" d="M101.471,480.632H0V418.755a3.042,3.042,0,0,1,3.038-3.038h95.4a3.041,3.041,0,0,1,3.038,3.038ZM.521,480.111H100.95V418.755a2.52,2.52,0,0,0-2.517-2.517H3.038a2.52,2.52,0,0,0-2.517,2.517Z" transform="translate(0 -359.698)" fill="#231f20"/>
      <path id="Trazado_877209" data-name="Trazado 877209" d="M28.758,439.032a1.389,1.389,0,1,1,1.389-1.389,1.39,1.39,0,0,1-1.389,1.389m0-2.257a.868.868,0,1,0,.868.868.869.869,0,0,0-.868-.868" transform="translate(-23.681 -377.467)" fill="#231f20"/>
      <path id="Trazado_877210" data-name="Trazado 877210" d="M56.682,439.032a1.389,1.389,0,1,1,1.389-1.389,1.39,1.39,0,0,1-1.389,1.389m0-2.257a.868.868,0,1,0,.868.868.869.869,0,0,0-.868-.868" transform="translate(-47.842 -377.467)" fill="#231f20"/>
      <path id="Trazado_877211" data-name="Trazado 877211" d="M84.607,439.032A1.389,1.389,0,1,1,86,437.643a1.39,1.39,0,0,1-1.389,1.389m0-2.257a.868.868,0,1,0,.868.868.869.869,0,0,0-.868-.868" transform="translate(-72.004 -377.467)" fill="#231f20"/>
      <path id="Trazado_877212" data-name="Trazado 877212" d="M101.471,423.767H0v-5.012a3.042,3.042,0,0,1,3.038-3.038h95.4a3.041,3.041,0,0,1,3.038,3.038ZM.521,423.246H100.95v-4.491a2.52,2.52,0,0,0-2.517-2.517H3.038a2.52,2.52,0,0,0-2.517,2.517Z" transform="translate(0 -359.698)" fill="#231f20"/>
      <rect id="Rectángulo_402313" data-name="Rectángulo 402313" width="2.874" height="2.874" transform="translate(228.483 99.672)" fill="#a854f3"/>
      <rect id="Rectángulo_402314" data-name="Rectángulo 402314" width="2.874" height="2.874" transform="translate(228.483 106.024)" fill="#a854f3"/>
      <rect id="Rectángulo_402315" data-name="Rectángulo 402315" width="2.874" height="2.874" transform="translate(27.068 42.188)" fill="#fbb033"/>
      <rect id="Rectángulo_402316" data-name="Rectángulo 402316" width="2.874" height="2.874" transform="translate(99.774)" fill="#fbb033"/>
      <rect id="Rectángulo_402317" data-name="Rectángulo 402317" width="2.874" height="2.874" transform="translate(164.762 175.137)" fill="#fbb033"/>
      <rect id="Rectángulo_402318" data-name="Rectángulo 402318" width="2.874" height="2.874" transform="translate(222.052 99.672)" fill="#a854f3"/>
      <rect id="Rectángulo_402319" data-name="Rectángulo 402319" width="2.874" height="2.874" transform="translate(222.052 106.024)" fill="#2d6935"/>
      <rect id="Rectángulo_402320" data-name="Rectángulo 402320" width="2.874" height="2.874" transform="translate(153.635 16.929)" fill="#2d6935"/>
      <rect id="Rectángulo_402321" data-name="Rectángulo 402321" width="100.95" height="56.866" transform="translate(128.881 36.148)" fill="#fff6ed"/>
      <rect id="Rectángulo_402322" data-name="Rectángulo 402322" width="20.928" height="5.619" transform="translate(143.835 82.298)" fill="#f0c518"/>
      <path id="Trazado_877213" data-name="Trazado 877213" d="M1046.226,553.337h-36.453v-5.256h36.453Zm-35.932-.521H1045.7V548.6h-35.411Z" transform="translate(-873.701 -474.225)" fill="#231f20"/>
      <path id="Trazado_877214" data-name="Trazado 877214" d="M1046.226,483.263h-36.453v-5.256h36.453Zm-35.932-.521H1045.7v-4.214h-35.411Z" transform="translate(-873.701 -413.594)" fill="#231f20"/>
      <rect id="Rectángulo_402323" data-name="Rectángulo 402323" width="19.38" height="4.347" transform="translate(145.382 42.812)" fill="#00ffdf"/>
      <rect id="Rectángulo_402324" data-name="Rectángulo 402324" width="35.932" height="1.222" transform="translate(137.106 50.237)" fill="#a854f3"/>
      <rect id="Rectángulo_402325" data-name="Rectángulo 402325" width="29.629" height="1.001" transform="translate(140.258 52.542)" fill="#a854f3"/>
      <rect id="Rectángulo_402326" data-name="Rectángulo 402326" width="20.304" height="1.001" transform="translate(144.92 54.749)" fill="#a854f3"/>
      <rect id="Rectángulo_402327" data-name="Rectángulo 402327" width="9.05" height="1.001" transform="translate(136.072 62.17)" fill="#fbb033"/>
      <rect id="Rectángulo_402328" data-name="Rectángulo 402328" width="9.05" height="1.001" transform="translate(136.072 71.754)" fill="#fbb033"/>
      <path id="Trazado_877215" data-name="Trazado 877215" d="M1054.585,212.383h-95.4a2.778,2.778,0,0,0-2.778,2.778v4.751h100.95v-4.751a2.778,2.778,0,0,0-2.778-2.778" transform="translate(-827.531 -183.764)" fill="#8722e2"/>
      <path id="Trazado_877216" data-name="Trazado 877216" d="M1055.95,275.366H954.479V213.489a3.041,3.041,0,0,1,3.038-3.038h95.4a3.041,3.041,0,0,1,3.038,3.038ZM955,274.845h100.43V213.489a2.52,2.52,0,0,0-2.517-2.517h-95.4A2.52,2.52,0,0,0,955,213.489Z" transform="translate(-825.858 -182.092)" fill="#231f20"/>
      <rect id="Rectángulo_402329" data-name="Rectángulo 402329" width="100.951" height="0.521" transform="translate(128.881 35.887)" fill="#231f20"/>
      <path id="Trazado_877217" data-name="Trazado 877217" d="M983.237,233.765a1.389,1.389,0,1,1,1.389-1.389,1.39,1.39,0,0,1-1.389,1.389m0-2.257a.868.868,0,1,0,.868.868.869.869,0,0,0-.868-.868" transform="translate(-849.539 -199.861)" fill="#231f20"/>
      <path id="Trazado_877218" data-name="Trazado 877218" d="M1011.162,233.765a1.389,1.389,0,1,1,1.389-1.389,1.39,1.39,0,0,1-1.389,1.389m0-2.257a.868.868,0,1,0,.868.868.869.869,0,0,0-.868-.868" transform="translate(-873.701 -199.861)" fill="#231f20"/>
      <path id="Trazado_877219" data-name="Trazado 877219" d="M1039.086,233.765a1.389,1.389,0,1,1,1.389-1.389,1.391,1.391,0,0,1-1.389,1.389m0-2.257a.868.868,0,1,0,.868.868.869.869,0,0,0-.868-.868" transform="translate(-897.862 -199.861)" fill="#231f20"/>
      <rect id="Rectángulo_402330" data-name="Rectángulo 402330" width="47.348" height="49.477" transform="translate(179.356 39.298)" fill="#debefb"/>
      <path id="Trazado_877220" data-name="Trazado 877220" d="M1456.042,300.539l-.078-.459c9.257-1.565,12.067-4.732,14.551-10.808l.431.176c-2.55,6.239-5.43,9.49-14.9,11.092" transform="translate(-1259.766 -250.291)" fill="#b693d5"/>
      <path id="Trazado_877221" data-name="Trazado 877221" d="M1576.464,593.734l-.439-.154c2.284-6.511,9.2-10.163,14.542-10.293l.012.466c-5.19.127-11.9,3.668-14.114,9.982" transform="translate(-1363.648 -504.686)" fill="#b693d5"/>
      <path id="Trazado_877222" data-name="Trazado 877222" d="M1335.629,293.786a28.069,28.069,0,0,1-6.233-.8l.1-.454c9.759,2.242,12.9-.578,15.271-3.659l.369.284c-1.784,2.313-4.138,4.633-9.511,4.633" transform="translate(-1150.253 -249.943)" fill="#b693d5"/>
      <path id="Trazado_877223" data-name="Trazado 877223" d="M1327.783,364.336l-.4-.246a29.084,29.084,0,0,1,17.251-12.71,11.7,11.7,0,0,1,5.223-.355,6.443,6.443,0,0,1,1.352.44,27.15,27.15,0,0,1,4.325-1.637c1.149-.335,2.332-.63,3.476-.915a36.783,36.783,0,0,0,8.122-2.708c2.711-1.407,5.577-3.487,8.209-11.929l.445.139c-2.685,8.612-5.641,10.751-8.438,12.2a37.144,37.144,0,0,1-8.224,2.746c-1.14.284-2.319.577-3.459.91a27.314,27.314,0,0,0-3.935,1.457,4.957,4.957,0,0,1,2.214,2.482c.988,2.611-.8,5.489-3.074,6.983a5.986,5.986,0,0,1-2.907,1.092,3.319,3.319,0,0,1-2.875-1.21c-1.008-1.358-.5-3.283.312-4.632a12.965,12.965,0,0,1,5.264-4.7,6.093,6.093,0,0,0-.9-.261,11.262,11.262,0,0,0-5.012.351,28.614,28.614,0,0,0-16.971,12.506m23.434-12.355a12.733,12.733,0,0,0-5.415,4.7c-.734,1.22-1.208,2.941-.337,4.114a2.839,2.839,0,0,0,2.472,1.022,5.539,5.539,0,0,0,2.68-1.016c2.12-1.392,3.8-4.047,2.893-6.428a4.581,4.581,0,0,0-2.294-2.4" transform="translate(-1148.516 -289.23)" fill="#b693d5"/>
      <path id="Trazado_877224" data-name="Trazado 877224" d="M1327.32,315.994l-.342-.316a32.55,32.55,0,0,1,17.757-9.917c1.411-.267,2.861-.418,4.263-.564a45.663,45.663,0,0,0,4.778-.67c9.064-1.935,14.235-7.04,14.955-14.764l.464.043c-.741,7.946-6.039,13.194-15.322,15.176a46.07,46.07,0,0,1-4.827.678c-1.392.145-2.832.3-4.225.559a32.082,32.082,0,0,0-17.5,9.775" transform="translate(-1148.161 -250.717)" fill="#b693d5"/>
      <path id="Trazado_877225" data-name="Trazado 877225" d="M1421.68,555.112l-.437-.162c.944-2.553,3.957-3.564,6.25-3.654.755-.03,1.525-.009,2.27.011a14.375,14.375,0,0,0,5-.447c2.545-.865,4.35-3.087,6.1-5.237,1.84-2.265,3.742-4.607,6.536-5.432a14.209,14.209,0,0,1,3.842-.407c.719-.01,1.462-.021,2.179-.1a6.943,6.943,0,0,0,3.1-1.044l.26.387a7.409,7.409,0,0,1-3.315,1.121c-.738.077-1.492.088-2.22.1a13.87,13.87,0,0,0-3.717.388c-2.655.785-4.428,2.968-6.306,5.279-1.788,2.2-3.636,4.476-6.308,5.384a14.708,14.708,0,0,1-5.163.471c-.737-.02-1.5-.041-2.239-.011-2.15.084-4.967,1.012-5.831,3.35" transform="translate(-1229.723 -466.061)" fill="#b693d5"/>
      <path id="Trazado_877226" data-name="Trazado 877226" d="M1327.835,302.374l-.376-.275c1.622-2.219,4.83-4.18,8.583-5.244a28.088,28.088,0,0,1,3.987-.656c1.08-.128,2.1-.25,2.927-.425a12.369,12.369,0,0,0,8.448-6.675l.41.222a12.814,12.814,0,0,1-8.761,6.908c-.847.18-1.877.3-2.968.432a27.8,27.8,0,0,0-3.915.641c-3.656,1.037-6.771,2.933-8.333,5.071" transform="translate(-1148.577 -250.143)" fill="#b693d5"/>
      <path id="Trazado_877227" data-name="Trazado 877227" d="M1346.475,508.7l-.457-.089c1.379-7.1,3.246-9.492,4.719-10.786a8.369,8.369,0,0,1,8.312-1.122c.533.21,1.05.475,1.551.73a9.4,9.4,0,0,0,2.7,1.053c2.077.344,4.41-.771,6.247-2.982a27.907,27.907,0,0,0,2.219-3.256,32.061,32.061,0,0,1,1.962-2.944c1.889-2.424,4.254-3.724,6.493-3.571a10.309,10.309,0,0,1,2.419.566c.426.137.866.278,1.3.382a8.993,8.993,0,0,0,7.473-1.636l.288.367a9.47,9.47,0,0,1-7.869,1.723c-.453-.108-.9-.253-1.335-.392a9.819,9.819,0,0,0-2.309-.544c-2.952-.2-5.245,2.3-6.093,3.392a31.668,31.668,0,0,0-1.933,2.9,28.229,28.229,0,0,1-2.258,3.31c-1.943,2.339-4.443,3.513-6.681,3.144a9.893,9.893,0,0,1-2.84-1.1c-.491-.251-1-.51-1.51-.712a7.889,7.889,0,0,0-7.834,1.039c-1.417,1.244-3.217,3.565-4.569,10.524" transform="translate(-1164.635 -419.68)" fill="#b693d5"/>
      <path id="Trazado_877228" data-name="Trazado 877228" d="M1643.112,437.394l-.058-.462a10.181,10.181,0,0,0,5.35-2.652l.333.326a10.467,10.467,0,0,1-5.625,2.788" transform="translate(-1421.644 -375.759)" fill="#b693d5"/>
      <rect id="Rectángulo_402331" data-name="Rectángulo 402331" width="38.64" height="14.497" transform="translate(84.149 69.008)" fill="#fff6ed"/>
      <rect id="Rectángulo_402332" data-name="Rectángulo 402332" width="38.64" height="14.497" transform="translate(84.149 85.736)" fill="#fff6ed"/>
      <rect id="Rectángulo_402333" data-name="Rectángulo 402333" width="38.64" height="14.497" transform="translate(84.149 102.892)" fill="#fff6ed"/>
      <rect id="Rectángulo_402334" data-name="Rectángulo 402334" width="19.266" height="1.305" transform="translate(97.528 72.423)" fill="#fbb033"/>
      <rect id="Rectángulo_402335" data-name="Rectángulo 402335" width="19.266" height="1.305" transform="translate(97.528 75.201)" fill="#fbb033"/>
      <rect id="Rectángulo_402336" data-name="Rectángulo 402336" width="15.748" height="1.305" transform="translate(97.528 77.978)" fill="#fbb033"/>
      <rect id="Rectángulo_402337" data-name="Rectángulo 402337" width="19.266" height="1.305" transform="translate(97.528 89.352)" fill="#fbb033"/>
      <rect id="Rectángulo_402338" data-name="Rectángulo 402338" width="19.266" height="1.305" transform="translate(97.528 92.13)" fill="#fbb033"/>
      <rect id="Rectángulo_402339" data-name="Rectángulo 402339" width="15.748" height="1.305" transform="translate(97.528 94.907)" fill="#fbb033"/>
      <rect id="Rectángulo_402340" data-name="Rectángulo 402340" width="19.266" height="1.305" transform="translate(97.823 106.71)" fill="#fbb033"/>
      <rect id="Rectángulo_402341" data-name="Rectángulo 402341" width="19.266" height="1.305" transform="translate(97.823 109.488)" fill="#fbb033"/>
      <rect id="Rectángulo_402342" data-name="Rectángulo 402342" width="15.748" height="1.305" transform="translate(97.823 112.266)" fill="#fbb033"/>
      <path id="Trazado_877229" data-name="Trazado 877229" d="M543.621,174.075h10.137a14.346,14.346,0,0,1,4.176-10.629l-9.026-21.837v20.583a1.246,1.246,0,1,1-.438,0V141.609l-9.026,21.837a14.346,14.346,0,0,1,4.176,10.629" transform="translate(-466.752 -122.527)" fill="#3a1d71"/>
      <rect id="Rectángulo_402343" data-name="Rectángulo 402343" width="11.046" height="2.071" transform="translate(76.423 51.931)" fill="#3a1d71"/>
      <path id="Trazado_877230" data-name="Trazado 877230" d="M261.392,179.465h-3v-3h3Zm-2.655-.347h2.307V176.81h-2.307Z" transform="translate(-223.571 -152.684)" fill="#ef4647"/>
      <path id="Trazado_877231" data-name="Trazado 877231" d="M913.694,51.818h-3v-3h3Zm-2.655-.347h2.307V49.163h-2.307Z" transform="translate(-787.972 -42.238)" fill="#ef4647"/>
      <path id="Trazado_877232" data-name="Trazado 877232" d="M630.626,78.03a37.121,37.121,0,0,1-13.161-2.416l.122-.325a38.079,38.079,0,0,0,27.934-.572,43.38,43.38,0,0,0,11.516-6.771l.231.259a43.721,43.721,0,0,1-11.6,6.829,40.447,40.447,0,0,1-15.037,3" transform="translate(-534.259 -58.791)" fill="#ef4647"/>
      <path id="Trazado_877233" data-name="Trazado 877233" d="M278.694,105.15l-.252-.238a39.639,39.639,0,0,1,11.851-7.864c6.883-3.015,17.9-5.529,31.3-.374l-.125.324c-13.287-5.112-24.21-2.621-31.033.368a39.249,39.249,0,0,0-11.738,7.785" transform="translate(-240.921 -81.079)" fill="#ef4647"/>
      <rect id="Rectángulo_402344" data-name="Rectángulo 402344" width="0.521" height="25.854" transform="translate(56.238 7.333) rotate(-70.435)" fill="#231f20"/>
      <rect id="Rectángulo_402345" data-name="Rectángulo 402345" width="0.521" height="25.855" transform="translate(83.101 16.88) rotate(-70.435)" fill="#231f20"/>
      <path id="Trazado_877234" data-name="Trazado 877234" d="M410.691,45.914a.99.99,0,1,1,.6,1.265.99.99,0,0,1-.6-1.265" transform="translate(-355.299 -39.157)" fill="#231f20"/>
      <path id="Trazado_877235" data-name="Trazado 877235" d="M790.823,181.011a.99.99,0,1,1,.6,1.265.99.99,0,0,1-.6-1.265" transform="translate(-684.206 -156.049)" fill="#231f20"/>
      <path id="Trazado_877236" data-name="Trazado 877236" d="M599.913,112.017h-3v-3h3Zm-2.655-.347h2.307v-2.307h-2.307Z" transform="translate(-516.474 -94.325)" fill="#ef4647"/>
      <rect id="Rectángulo_402346" data-name="Rectángulo 402346" width="6.828" height="6.828" transform="translate(87.469 72.423)" fill="#3a1d71"/>
      <rect id="Rectángulo_402347" data-name="Rectángulo 402347" width="6.828" height="6.828" transform="translate(87.469 89.368)" fill="#3a1d71"/>
      <rect id="Rectángulo_402348" data-name="Rectángulo 402348" width="6.828" height="6.828" transform="translate(87.469 106.726)" fill="#3a1d71"/>
      <rect id="Rectángulo_402349" data-name="Rectángulo 402349" width="15.021" height="15.021" transform="translate(8.027 69.008)" fill="#3a1d71"/>
      <path id="Trazado_877237" data-name="Trazado 877237" d="M79.505,533.01a5.226,5.226,0,0,1-.348,1.848H85.75a6.726,6.726,0,0,1-.859-3.1c2.267-.021,3.394-1.536,3.3-4.5s-1.337-6.29-4.406-6.212-5.414,1.566-5.241,5.372,1.2,5.141.96,6.6" transform="translate(-67.953 -450.829)" fill="#fff6ed"/>
      <path id="Trazado_877238" data-name="Trazado 877238" d="M77.851,530.041a4.212,4.212,0,0,0,1.492-1.4,6.849,6.849,0,0,0,.585-1.256.443.443,0,0,0-.28-.576,1.213,1.213,0,0,1-.78-.807c-.327-.954.164-1.492.657-1.535.464-.04.934.373,1.1,1.018a.126.126,0,0,0,.151.094l.427-.105a.124.124,0,0,0,.094-.141c-.07-.419-.277-1.881.164-2.253.516-.436,4.232-.815,4.538-.879s-.563-3.323-4.819-2.82-4.71,4.132-4.341,6.342a38.625,38.625,0,0,0,1.011,4.316" transform="translate(-66.397 -449.349)" fill="#231f20"/>
      <path id="Trazado_877239" data-name="Trazado 877239" d="M134.557,560.178a.136.136,0,0,1-.016-.271l.807-.1-.334-1.584a.136.136,0,1,1,.266-.056l.364,1.73a.136.136,0,0,1-.117.163l-.954.113h-.016" transform="translate(-116.307 -482.863)" fill="#231f20"/>
      <rect id="Rectángulo_402350" data-name="Rectángulo 402350" width="23.32" height="23.745" transform="translate(43.236 87.872)" fill="#f2e5fd"/>
      <path id="Trazado_877240" data-name="Trazado 877240" d="M374.495,846.45a.76.76,0,1,1,.76.76.76.76,0,0,1-.76-.76" transform="translate(-324.03 -731.73)" fill="#2d6935"/>
      <path id="Trazado_877241" data-name="Trazado 877241" d="M399.44,846.45a.76.76,0,1,1,.76.76.76.76,0,0,1-.76-.76" transform="translate(-345.613 -731.73)" fill="#2d6935"/>
      <path id="Trazado_877242" data-name="Trazado 877242" d="M424.386,846.45a.76.76,0,1,1,.76.76.76.76,0,0,1-.76-.76" transform="translate(-367.198 -731.73)" fill="#2d6935"/>
      <path id="Trazado_877243" data-name="Trazado 877243" d="M267.535,716.935l-4-4,4.105-4.105.368.368-3.737,3.737,3.634,3.633Z" transform="translate(-228.021 -613.311)" fill="#231f20"/>
      <path id="Trazado_877244" data-name="Trazado 877244" d="M525.189,716.935l-.368-.368,3.737-3.737-3.633-3.633.368-.368,4,4Z" transform="translate(-454.099 -613.311)" fill="#231f20"/>
    </g>
  </g>
</svg>
