<svg id="_12" data-name="12" xmlns="http://www.w3.org/2000/svg" xmlns:xlink="http://www.w3.org/1999/xlink" width="128.602" height="124.987" viewBox="0 0 128.602 124.987">
  <defs>
    <clipPath id="clip-path">
      <rect id="Rectángulo_401164" data-name="Rectángulo 401164" width="128.602" height="124.987" fill="none"/>
    </clipPath>
    <clipPath id="clip-path-4">
      <rect id="Rectángulo_401148" data-name="Rectángulo 401148" width="20.617" height="29.044" fill="none"/>
    </clipPath>
    <clipPath id="clip-path-5">
      <rect id="Rectángulo_401149" data-name="Rectángulo 401149" width="32.714" height="28.936" fill="none"/>
    </clipPath>
    <clipPath id="clip-path-6">
      <rect id="Rectángulo_401150" data-name="Rectángulo 401150" width="18.195" height="32.75" fill="none"/>
    </clipPath>
    <clipPath id="clip-path-7">
      <rect id="Rectángulo_401151" data-name="Rectángulo 401151" width="19.561" height="8.352" fill="none"/>
    </clipPath>
    <clipPath id="clip-path-8">
      <rect id="Rectángulo_401152" data-name="Rectángulo 401152" width="6.552" height="10.785" fill="none"/>
    </clipPath>
    <clipPath id="clip-path-9">
      <rect id="Rectángulo_401153" data-name="Rectángulo 401153" width="7.001" height="4.378" fill="none"/>
    </clipPath>
    <clipPath id="clip-path-10">
      <rect id="Rectángulo_401154" data-name="Rectángulo 401154" width="16.026" height="10.379" fill="none"/>
    </clipPath>
    <clipPath id="clip-path-11">
      <rect id="Rectángulo_401155" data-name="Rectángulo 401155" width="37.594" height="52.585" fill="none"/>
    </clipPath>
    <clipPath id="clip-path-12">
      <rect id="Rectángulo_401156" data-name="Rectángulo 401156" width="27.719" height="59.443" fill="none"/>
    </clipPath>
    <clipPath id="clip-path-13">
      <rect id="Rectángulo_401157" data-name="Rectángulo 401157" width="7.741" height="14.357" fill="none"/>
    </clipPath>
    <clipPath id="clip-path-14">
      <rect id="Rectángulo_401158" data-name="Rectángulo 401158" width="3.14" height="5.282" fill="none"/>
    </clipPath>
    <clipPath id="clip-path-15">
      <rect id="Rectángulo_401159" data-name="Rectángulo 401159" width="15.867" height="9.617" fill="none"/>
    </clipPath>
    <clipPath id="clip-path-16">
      <rect id="Rectángulo_401160" data-name="Rectángulo 401160" width="2.822" height="4.36" fill="none"/>
    </clipPath>
    <clipPath id="clip-path-17">
      <rect id="Rectángulo_401161" data-name="Rectángulo 401161" width="27.582" height="17.732" fill="none"/>
    </clipPath>
    <clipPath id="clip-path-18">
      <rect id="Rectángulo_401162" data-name="Rectángulo 401162" width="24.801" height="57.144" fill="none"/>
    </clipPath>
  </defs>
  <g id="Grupo_1100535" data-name="Grupo 1100535" clip-path="url(#clip-path)">
    <g id="Grupo_1100487" data-name="Grupo 1100487">
      <g id="Grupo_1100486" data-name="Grupo 1100486" clip-path="url(#clip-path)">
        <path id="Trazado_873874" data-name="Trazado 873874" d="M182.266,232.209l-32.52-.3-9.855-.046-2.679.006-.7.009a1.556,1.556,0,0,0-.237.013,1.481,1.481,0,0,0,.237.015l.7.016,2.679.033,9.855.052,32.522.02c12.693,0,24.187.015,32.508.075,4.16.029,7.527.067,9.855.111,1.163.022,2.067.045,2.679.068a5.041,5.041,0,0,1,.934.069,5.1,5.1,0,0,1-.935.059c-.613.017-1.516.031-2.68.041-2.327.02-5.695.025-9.855.013-8.321-.023-19.815-.121-32.507-.249" transform="translate(-99.641 -169.529)" fill="#f5f5f5"/>
        <path id="Trazado_873875" data-name="Trazado 873875" d="M182.984,223.76l-32.076-5.214-9.728-1.533-2.648-.4-.69-.1a1.467,1.467,0,0,0-.237-.023,1.466,1.466,0,0,0,.232.051l.686.122,2.641.438,9.727,1.54,32.124,4.929c12.539,1.914,23.891,3.665,32.1,4.981,4.105.657,7.425,1.2,9.717,1.6,1.146.2,2.034.357,2.636.473a4.97,4.97,0,0,1,.912.21,4.949,4.949,0,0,1-.933-.081c-.608-.076-1.5-.2-2.654-.363-2.3-.331-5.63-.834-9.738-1.475-8.216-1.28-19.555-3.114-32.072-5.159" transform="translate(-100.613 -158.295)" fill="#f5f5f5"/>
        <path id="Trazado_873876" data-name="Trazado 873876" d="M185.127,215.205l-30.83-10.06-9.359-3-2.551-.8-.666-.2a1.47,1.47,0,0,0-.23-.059,1.415,1.415,0,0,0,.221.086l.657.225,2.537.837,9.356,3.01,30.925,9.783c12.073,3.809,23,7.275,30.894,9.831,3.947,1.277,7.138,2.326,9.336,3.067,1.1.37,1.951.664,2.526.87a4.86,4.86,0,0,1,.866.348,4.908,4.908,0,0,1-.908-.223c-.588-.167-1.452-.425-2.562-.765-2.22-.679-5.424-1.685-9.377-2.946-7.907-2.521-18.806-6.068-30.836-10" transform="translate(-103.454 -147.028)" fill="#f5f5f5"/>
        <path id="Trazado_873877" data-name="Trazado 873877" d="M188.622,207.091,159.8,192.444l-8.756-4.4-2.39-1.178-.625-.3a1.5,1.5,0,0,0-.218-.094,1.449,1.449,0,0,0,.2.119l.613.323,2.37,1.214,8.752,4.4,28.955,14.393c11.305,5.609,21.535,10.7,28.917,14.435,3.692,1.865,6.673,3.388,8.724,4.456,1.026.534,1.82.954,2.354,1.245a4.892,4.892,0,0,1,.8.474,4.974,4.974,0,0,1-.86-.36c-.554-.256-1.365-.643-2.406-1.148-2.082-1.01-5.084-2.494-8.783-4.345-7.4-3.7-17.59-8.868-28.833-14.594" transform="translate(-108.078 -136.345)" fill="#f5f5f5"/>
        <path id="Trazado_873878" data-name="Trazado 873878" d="M193.316,199.719l-26.109-18.846-7.941-5.673-2.171-1.527-.569-.391a1.409,1.409,0,0,0-.2-.125,1.442,1.442,0,0,0,.183.148l.553.412,2.146,1.559,7.937,5.679,26.284,18.614c10.264,7.257,19.549,13.843,26.24,18.651,3.346,2.4,6.045,4.36,7.9,5.726.927.683,1.644,1.219,2.125,1.588a4.828,4.828,0,0,1,.713.59,4.909,4.909,0,0,1-.792-.486c-.506-.336-1.245-.842-2.192-1.5-1.894-1.314-4.62-3.236-7.976-5.625-6.714-4.778-15.947-11.431-26.131-18.794" transform="translate(-114.302 -126.607)" fill="#f5f5f5"/>
        <path id="Trazado_873879" data-name="Trazado 873879" d="M199.071,193.218,176.3,170.655l-6.936-6.8-1.9-1.837-.5-.472a1.506,1.506,0,0,0-.177-.154,1.37,1.37,0,0,0,.156.174l.481.49,1.87,1.865,6.931,6.809,22.985,22.361c8.978,8.721,17.095,16.63,22.936,22.39,2.921,2.88,5.274,5.221,6.888,6.851.807.815,1.429,1.452,1.845,1.89a4.762,4.762,0,0,1,.61.691,4.836,4.836,0,0,1-.7-.6c-.446-.409-1.095-1.02-1.925-1.812-1.661-1.584-4.046-3.895-6.979-6.763-5.868-5.734-13.924-13.7-22.806-22.515" transform="translate(-121.948 -118.002)" fill="#f5f5f5"/>
        <path id="Trazado_873880" data-name="Trazado 873880" d="M205.8,187.667l-18.887-25.732-5.763-7.77-1.583-2.1-.418-.542a1.4,1.4,0,0,0-.151-.179,1.407,1.407,0,0,0,.127.2l.4.557,1.549,2.125,5.757,7.774,19.127,25.563c7.473,9.972,14.226,19.012,19.074,25.585,2.425,3.286,4.374,5.954,5.707,7.808.667.927,1.179,1.651,1.52,2.146a4.7,4.7,0,0,1,.492.775,4.771,4.771,0,0,1-.6-.7c-.375-.471-.919-1.173-1.612-2.081-1.387-1.816-3.374-4.459-5.812-7.735-4.878-6.552-11.561-15.641-18.925-25.689" transform="translate(-130.879 -110.658)" fill="#f5f5f5"/>
        <path id="Trazado_873881" data-name="Trazado 873881" d="M213.425,183.151,198.91,154.866l-4.442-8.551L193.243,144l-.326-.6a1.373,1.373,0,0,0-.12-.2,1.333,1.333,0,0,0,.094.212l.3.611,1.188,2.334,4.436,8.554,14.78,28.155c5.777,10.984,10.993,20.939,14.724,28.168,1.866,3.614,3.362,6.546,4.381,8.58.509,1.017.9,1.809,1.156,2.35a4.65,4.65,0,0,1,.361.84,4.658,4.658,0,0,1-.481-.781c-.295-.522-.719-1.3-1.258-2.3-1.078-2-2.615-4.917-4.5-8.523-3.765-7.212-8.9-17.205-14.559-28.249" transform="translate(-140.968 -104.705)" fill="#f5f5f5"/>
        <path id="Trazado_873882" data-name="Trazado 873882" d="M221.8,179.807l-9.754-30.153-3-9.123-.836-2.474-.225-.641a1.3,1.3,0,0,0-.087-.216,1.38,1.38,0,0,0,.058.224l.2.649.8,2.487,3,9.125c2.571,7.7,6.118,18.325,10.039,30.064s7.467,22.359,9.981,30.069c1.258,3.854,2.261,6.978,2.937,9.143.338,1.082.595,1.925.761,2.5a4.573,4.573,0,0,1,.22.885,4.6,4.6,0,0,1-.348-.845c-.206-.561-.5-1.392-.87-2.464-.74-2.144-1.786-5.255-3.061-9.1-2.55-7.7-6.006-18.352-9.8-30.124" transform="translate(-152.005 -100.318)" fill="#f5f5f5"/>
        <path id="Trazado_873883" data-name="Trazado 873883" d="M230.6,177.785l-4.752-31.269-1.488-9.469-.424-2.571-.118-.668a1.369,1.369,0,0,0-.05-.226,1.393,1.393,0,0,0,.021.23l.092.672.383,2.578,1.481,9.47,5.046,31.225c1.979,12.185,3.753,23.223,4.988,31.22.618,4,1.1,7.237,1.421,9.478.159,1.12.276,1.991.347,2.583a4.562,4.562,0,0,1,.074.908,4.622,4.622,0,0,1-.207-.888c-.113-.586-.268-1.451-.46-2.566-.384-2.231-.913-5.463-1.548-9.459-1.272-7.992-2.961-19.042-4.806-31.247" transform="translate(-163.613 -97.672)" fill="#f5f5f5"/>
        <path id="Trazado_873884" data-name="Trazado 873884" d="M237.865,177.143c.114-12.342.218-23.511.293-31.606.017-4.039.032-7.308.042-9.578,0-1.124-.006-2-.008-2.6,0-.292-.008-.516-.01-.677a1.423,1.423,0,0,0-.013-.231,1.405,1.405,0,0,0-.015.231c0,.161-.009.385-.016.677-.008.6-.018,1.479-.032,2.6-.011,2.27-.027,5.54-.047,9.578,0,8.1,0,19.265,0,31.608s0,23.508-.057,31.595c-.027,4.044-.065,7.316-.108,9.577-.021,1.131-.045,2.009-.068,2.6a4.657,4.657,0,0,1-.07.908,4.652,4.652,0,0,1-.062-.909c-.018-.6-.033-1.474-.044-2.6-.023-2.262-.03-5.535-.02-9.578.019-8.087.113-19.258.237-31.594" transform="translate(-173.744 -96.841)" fill="#f5f5f5"/>
        <path id="Trazado_873885" data-name="Trazado 873885" d="M208.109,177.836l5.345-31.178,1.572-9.456.408-2.574.1-.671a1.359,1.359,0,0,0,.023-.23,1.382,1.382,0,0,0-.052.225c-.03.159-.071.38-.125.667l-.449,2.567c-.374,2.241-.913,5.468-1.579,9.455L208.3,177.866c-1.961,12.188-3.756,23.222-5.1,31.2-.673,3.99-1.234,7.217-1.639,9.445-.2,1.114-.366,1.978-.484,2.562a4.612,4.612,0,0,1-.215.886,4.555,4.555,0,0,1,.083-.907c.077-.591.2-1.461.372-2.58.339-2.238.855-5.472,1.512-9.465,1.311-7.986,3.191-19.007,5.287-31.174" transform="translate(-146.854 -97.778)" fill="#f5f5f5"/>
        <path id="Trazado_873886" data-name="Trazado 873886" d="M178.539,179.913l10.332-29.97,3.084-9.1.819-2.48.205-.647a1.341,1.341,0,0,0,.06-.224,1.331,1.331,0,0,0-.088.215l-.231.639-.86,2.466-3.091,9.1-10.046,30.062c-3.911,11.736-7.471,22.358-10.1,30.032-1.312,3.838-2.388,6.938-3.15,9.076-.38,1.069-.682,1.9-.894,2.456a4.592,4.592,0,0,1-.357.842,4.56,4.56,0,0,1,.229-.883c.172-.572.436-1.412.785-2.491.7-2.158,1.73-5.273,3.026-9.116,2.589-7.686,6.232-18.281,10.274-29.975" transform="translate(-120.075 -100.533)" fill="#f5f5f5"/>
        <path id="Trazado_873887" data-name="Trazado 873887" d="M150.49,183.3l15.053-28.018,4.519-8.512,1.211-2.323.308-.608a1.406,1.406,0,0,0,.1-.212,1.389,1.389,0,0,0-.122.2l-.332.6-1.248,2.3-4.525,8.509L150.66,183.39c-5.764,10.991-11,20.936-14.834,28.113-1.917,3.589-3.482,6.487-4.579,8.482-.548,1-.98,1.769-1.28,2.289a4.725,4.725,0,0,1-.488.777,4.656,4.656,0,0,1,.37-.837c.263-.538.66-1.327,1.179-2.339,1.038-2.024,2.563-4.942,4.465-8.539,3.8-7.194,9.113-17.1,15-28.031" transform="translate(-94.67 -105.02)" fill="#f5f5f5"/>
        <path id="Trazado_873888" data-name="Trazado 873888" d="M124.752,187.863l19.375-25.387,5.832-7.721,1.57-2.111.4-.553a1.411,1.411,0,0,0,.129-.194,1.454,1.454,0,0,0-.152.177l-.423.538-1.6,2.087-5.838,7.717-19.136,25.557c-7.461,9.98-14.232,19.008-19.174,25.514-2.47,3.254-4.482,5.878-5.887,7.681-.7.9-1.253,1.6-1.632,2.066a4.723,4.723,0,0,1-.607.694,4.717,4.717,0,0,1,.5-.77c.346-.492.865-1.211,1.541-2.132,1.351-1.842,3.327-4.492,5.783-7.756,4.911-6.528,11.752-15.506,19.321-25.408" transform="translate(-71.367 -111.063)" fill="#f5f5f5"/>
        <path id="Trazado_873889" data-name="Trazado 873889" d="M101.895,193.452,125.1,171.3l7-6.745,1.889-1.848.486-.486a1.369,1.369,0,0,0,.158-.173,1.48,1.48,0,0,0-.179.153l-.5.467-1.918,1.819-7,6.741L102.03,193.584c-8.967,8.731-17.1,16.625-23.023,22.305-2.961,2.841-5.368,5.129-7.045,6.7-.838.785-1.493,1.39-1.943,1.794a4.832,4.832,0,0,1-.711.593,4.763,4.763,0,0,1,.617-.685c.42-.434,1.048-1.065,1.863-1.872,1.629-1.615,4.005-3.935,6.954-6.787,5.9-5.706,14.09-13.541,23.152-22.179" transform="translate(-50.676 -118.488)" fill="#f5f5f5"/>
        <path id="Trazado_873890" data-name="Trazado 873890" d="M82.384,199.988l26.464-18.372,7.991-5.606,2.161-1.54.557-.407a1.372,1.372,0,0,0,.184-.147,1.544,1.544,0,0,0-.2.123l-.573.386-2.185,1.507-8,5.6L82.5,200.139c-10.255,7.269-19.553,13.838-26.313,18.554-3.379,2.358-6.124,4.255-8.031,5.552-.954.648-1.7,1.147-2.207,1.479a4.9,4.9,0,0,1-.8.479,4.846,4.846,0,0,1,.719-.584c.485-.365,1.206-.894,2.14-1.568,1.868-1.349,4.586-3.281,7.955-5.653,6.738-4.745,16.086-11.246,26.42-18.409" transform="translate(-33.012 -127.164)" fill="#f5f5f5"/>
        <path id="Trazado_873891" data-name="Trazado 873891" d="M66.655,207.4l29.094-14.124,8.795-4.322,2.382-1.193.616-.317a1.391,1.391,0,0,0,.205-.117,1.48,1.48,0,0,0-.219.091l-.628.294-2.4,1.156-8.8,4.316-28.96,14.383c-11.3,5.622-21.538,10.7-28.974,14.328-3.717,1.816-6.733,3.272-8.825,4.263-1.046.5-1.861.875-2.417,1.125a4.963,4.963,0,0,1-.864.351,4.849,4.849,0,0,1,.8-.468c.537-.287,1.335-.7,2.366-1.224,2.062-1.049,5.057-2.544,8.767-4.375C45.017,217.9,55.3,212.9,66.655,207.4" transform="translate(-18.763 -136.964)" fill="#f5f5f5"/>
        <path id="Trazado_873892" data-name="Trazado 873892" d="M55.134,215.529l31.018-9.5,9.385-2.924,2.546-.814.659-.219a1.426,1.426,0,0,0,.222-.084,1.463,1.463,0,0,0-.231.057l-.668.194-2.558.774-9.387,2.917-30.927,9.776c-12.067,3.825-23,7.271-30.932,9.72-3.965,1.225-7.179,2.2-9.405,2.86-1.113.329-1.98.579-2.57.741a4.912,4.912,0,0,1-.91.215,4.916,4.916,0,0,1,.869-.339c.577-.2,1.432-.487,2.535-.847,2.206-.72,5.406-1.739,9.366-2.98,7.919-2.483,18.879-5.849,30.989-9.547" transform="translate(-8.317 -147.689)" fill="#f5f5f5"/>
        <path id="Trazado_873893" data-name="Trazado 873893" d="M48.188,224.086l32.17-4.638L90.1,218l2.646-.414.687-.116a1.479,1.479,0,0,0,.233-.049,1.463,1.463,0,0,0-.237.021l-.691.09-2.651.374-9.743,1.445-32.125,4.923c-12.536,1.931-23.892,3.662-32.12,4.868-4.114.6-7.446,1.077-9.751,1.387-1.153.155-2.049.269-2.657.339a4.967,4.967,0,0,1-.934.073,4.968,4.968,0,0,1,.913-.2c.6-.11,1.493-.262,2.64-.448,2.3-.374,5.62-.891,9.732-1.511,8.223-1.241,19.591-2.889,32.148-4.69" transform="translate(-2.014 -158.969)" fill="#f5f5f5"/>
        <path id="Trazado_873894" data-name="Trazado 873894" d="M45.977,231.28l32.521.265,9.855.034,2.68-.009.7-.01a1.487,1.487,0,0,0,.237-.013,1.578,1.578,0,0,0-.237-.015l-.7-.015-2.679-.03-9.855-.04-32.522.019c-12.693.017-24.187.014-32.508-.035-4.16-.024-7.528-.058-9.855-.1-1.163-.02-2.067-.042-2.679-.065A5.065,5.065,0,0,1,0,231.2a5.084,5.084,0,0,1,.935-.061c.613-.018,1.516-.033,2.68-.044,2.328-.023,5.695-.032,9.855-.025,8.321.013,19.815.1,32.508.21" transform="translate(0 -168.951)" fill="#f5f5f5"/>
        <path id="Trazado_873895" data-name="Trazado 873895" d="M48.459,202.378l32.083,5.175,9.73,1.522,2.648.394.69.095a1.483,1.483,0,0,0,.237.023,1.438,1.438,0,0,0-.232-.051l-.686-.121-2.642-.435-9.729-1.528-32.13-4.889c-12.542-1.9-23.9-3.636-32.108-4.941-4.106-.652-7.427-1.195-9.719-1.587-1.146-.2-2.035-.354-2.636-.469a4.949,4.949,0,0,1-.912-.209,4.956,4.956,0,0,1,.933.08c.608.075,1.5.2,2.655.36,2.3.328,5.631.827,9.74,1.463,8.218,1.27,19.559,3.09,32.079,5.119" transform="translate(-2.232 -142.834)" fill="#f5f5f5"/>
        <path id="Trazado_873896" data-name="Trazado 873896" d="M55.68,173.635l30.844,10.022,9.362,2.992,2.552.795.666.2a1.461,1.461,0,0,0,.23.058,1.4,1.4,0,0,0-.221-.086l-.658-.224-2.539-.834-9.36-3L55.62,173.813c-12.078-3.794-23.009-7.246-30.907-9.793-3.949-1.272-7.141-2.317-9.34-3.055-1.1-.369-1.952-.662-2.528-.867a4.858,4.858,0,0,1-.866-.347,4.906,4.906,0,0,1,.908.222c.589.167,1.453.423,2.564.761,2.221.676,5.426,1.678,9.381,2.935,7.91,2.511,18.814,6.045,30.849,9.966" transform="translate(-8.758 -116.803)" fill="#f5f5f5"/>
        <path id="Trazado_873897" data-name="Trazado 873897" d="M67.463,146.368,96.3,160.98l8.761,4.386,2.391,1.175.625.3a1.5,1.5,0,0,0,.218.093,1.434,1.434,0,0,0-.2-.119l-.613-.322-2.372-1.211-8.758-4.392L67.376,146.532c-11.313-5.595-21.549-10.677-28.936-14.4-3.694-1.861-6.677-3.38-8.73-4.445-1.027-.533-1.821-.951-2.356-1.242a4.863,4.863,0,0,1-.8-.474,4.967,4.967,0,0,1,.861.359c.554.255,1.366.641,2.408,1.145,2.083,1.008,5.086,2.488,8.789,4.334,7.4,3.69,17.6,8.847,28.851,14.558" transform="translate(-19.415 -92.106)" fill="#f5f5f5"/>
        <path id="Trazado_873898" data-name="Trazado 873898" d="M83.43,121.343l26.133,18.814,7.948,5.664,2.172,1.525.57.39a1.428,1.428,0,0,0,.2.125,1.426,1.426,0,0,0-.183-.148l-.554-.411-2.148-1.557-7.944-5.669L83.316,121.493c-10.273-7.245-19.566-13.82-26.264-18.618-3.35-2.4-6.051-4.353-7.908-5.717-.928-.682-1.645-1.216-2.127-1.585a4.807,4.807,0,0,1-.714-.59,4.925,4.925,0,0,1,.793.485c.506.336,1.246.84,2.194,1.5,1.9,1.312,4.624,3.23,7.984,5.616,6.72,4.769,15.962,11.412,26.155,18.762" transform="translate(-33.856 -69.448)" fill="#f5f5f5"/>
        <path id="Trazado_873899" data-name="Trazado 873899" d="M103.151,99.115l22.8,22.535,6.945,6.8,1.9,1.834.5.472a1.431,1.431,0,0,0,.177.154,1.422,1.422,0,0,0-.157-.174l-.481-.49-1.873-1.862-6.94-6.8L103.015,99.246C94.026,90.537,85.9,82.637,80.05,76.884c-2.925-2.876-5.281-5.214-6.9-6.842-.808-.814-1.431-1.45-1.848-1.887a4.741,4.741,0,0,1-.611-.69,4.857,4.857,0,0,1,.705.6c.447.408,1.1,1.019,1.928,1.81,1.663,1.583,4.051,3.89,6.988,6.754,5.875,5.727,13.942,13.686,22.835,22.488" transform="translate(-51.69 -49.328)" fill="#f5f5f5"/>
        <path id="Trazado_873900" data-name="Trazado 873900" d="M126.188,80.139l18.92,25.708,5.773,7.763,1.586,2.1.419.541a1.423,1.423,0,0,0,.151.179,1.38,1.38,0,0,0-.127-.2l-.4-.557-1.552-2.123-5.767-7.767-19.16-25.54c-7.486-9.962-14.25-18.994-19.107-25.561-2.429-3.283-4.382-5.949-5.717-7.8-.668-.926-1.181-1.649-1.523-2.144a4.691,4.691,0,0,1-.493-.774,4.778,4.778,0,0,1,.6.7c.376.471.92,1.172,1.615,2.079,1.389,1.815,3.379,4.455,5.822,7.728,4.887,6.546,11.582,15.627,18.958,25.666" transform="translate(-72.526 -32.148)" fill="#f5f5f5"/>
        <path id="Trazado_873901" data-name="Trazado 873901" d="M152.073,64.836,166.624,93.1l4.453,8.545,1.228,2.314.327.6a1.355,1.355,0,0,0,.12.2,1.389,1.389,0,0,0-.094-.212l-.3-.61-1.191-2.333-4.447-8.548L151.9,64.92c-5.792-10.977-11.02-20.926-14.761-28.15-1.871-3.612-3.371-6.542-4.392-8.574-.511-1.016-.9-1.808-1.159-2.349a4.622,4.622,0,0,1-.362-.84,4.7,4.7,0,0,1,.482.781c.3.522.72,1.3,1.261,2.3,1.081,2,2.621,4.914,4.507,8.518,3.774,7.208,8.925,17.194,14.6,28.231" transform="translate(-95.949 -18.284)" fill="#f5f5f5"/>
        <path id="Trazado_873902" data-name="Trazado 873902" d="M180.222,53.622l9.794,30.141,3.015,9.119.839,2.473.226.641a1.342,1.342,0,0,0,.087.215,1.379,1.379,0,0,0-.058-.224l-.2-.649-.8-2.486-3.007-9.122L180.039,53.679c-3.943-11.726-7.5-22.35-10.021-30.056-1.263-3.853-2.27-6.976-2.949-9.139-.34-1.082-.6-1.924-.764-2.5a4.578,4.578,0,0,1-.221-.885,4.647,4.647,0,0,1,.349.845c.207.561.5,1.391.873,2.463.743,2.144,1.793,5.253,3.072,9.1,2.56,7.695,6.03,18.345,9.843,30.112" transform="translate(-121.433 -8.117)" fill="#f5f5f5"/>
        <path id="Trazado_873903" data-name="Trazado 873903" d="M209.833,46.852l4.792,31.263c.633,3.992,1.145,7.223,1.5,9.467l.427,2.571.119.667a1.372,1.372,0,0,0,.051.226,1.377,1.377,0,0,0-.021-.23l-.092-.672-.386-2.577c-.354-2.244-.863-5.476-1.493-9.468L209.644,46.88c-1.995-12.183-3.783-23.218-5.029-31.214-.623-4-1.112-7.236-1.433-9.476-.16-1.12-.279-1.991-.351-2.583a4.6,4.6,0,0,1-.076-.908,4.592,4.592,0,0,1,.208.888c.114.585.27,1.45.463,2.566.387,2.231.92,5.462,1.561,9.457,1.282,7.991,2.985,19.039,4.846,31.242" transform="translate(-148.243 -1.973)" fill="#f5f5f5"/>
        <path id="Trazado_873904" data-name="Trazado 873904" d="M239.01,44.685c-.1,12.342-.188,23.511-.252,31.607-.012,4.039-.022,7.308-.029,9.578,0,1.125.008,2,.011,2.6,0,.292.008.516.011.677a1.355,1.355,0,0,0,.013.231,1.463,1.463,0,0,0,.015-.231c0-.161.009-.385.015-.677.007-.6.016-1.479.028-2.6.009-2.27.02-5.54.035-9.578-.01-8.1-.025-19.265-.04-31.608s-.03-23.508.016-31.595c.022-4.043.056-7.316.1-9.577.02-1.131.042-2.009.065-2.6A4.61,4.61,0,0,1,239.064,0a4.687,4.687,0,0,1,.063.908c.019.6.035,1.474.047,2.6.025,2.262.037,5.534.031,9.578-.008,8.087-.088,19.258-.2,31.594" transform="translate(-174.552)" fill="#f5f5f5"/>
        <path id="Trazado_873905" data-name="Trazado 873905" d="M230.339,47.078l-5.3,31.184-1.559,9.458-.4,2.575-.1.671a1.316,1.316,0,0,0-.023.23A1.38,1.38,0,0,0,223,90.97l.124-.667.445-2.568,1.566-9.457,5.01-31.23c1.945-12.19,3.725-23.227,5.064-31.209.668-3.991,1.225-7.219,1.626-9.447.2-1.114.363-1.978.481-2.563a4.571,4.571,0,0,1,.214-.886,4.568,4.568,0,0,1-.082.907c-.077.591-.2,1.461-.369,2.58-.336,2.239-.848,5.473-1.5,9.467-1.3,7.988-3.166,19.011-5.246,31.18" transform="translate(-163.015 -2.152)" fill="#f5f5f5"/>
        <path id="Trazado_873906" data-name="Trazado 873906" d="M221.532,54.078,211.24,84.062l-3.072,9.1-.816,2.481-.2.647a1.351,1.351,0,0,0-.06.224,1.343,1.343,0,0,0,.088-.215l.231-.639.856-2.468,3.079-9.1L221.349,54.02c3.9-11.741,7.441-22.367,10.056-30.045,1.307-3.839,2.379-6.941,3.137-9.08.379-1.069.68-1.9.891-2.457a4.6,4.6,0,0,1,.356-.842,4.567,4.567,0,0,1-.227.883c-.171.572-.434,1.412-.782,2.492-.694,2.159-1.723,5.275-3.014,9.119-2.579,7.689-6.207,18.289-10.234,29.988" transform="translate(-151.417 -8.478)" fill="#f5f5f5"/>
        <path id="Trazado_873907" data-name="Trazado 873907" d="M213.177,65.512,198.161,93.548l-4.507,8.518-1.208,2.325-.307.608a1.365,1.365,0,0,0-.1.212,1.39,1.39,0,0,0,.122-.2l.331-.6,1.245-2.306,4.514-8.515,14.753-28.168c5.749-11,10.972-20.95,14.8-28.132,1.912-3.592,3.473-6.491,4.568-8.487.547-1,.978-1.77,1.277-2.291a4.72,4.72,0,0,1,.487-.778,4.683,4.683,0,0,1-.369.837c-.262.538-.658,1.328-1.176,2.341-1.036,2.026-2.557,4.945-4.453,8.544-3.792,7.2-9.091,17.112-14.96,28.05" transform="translate(-140.416 -18.82)" fill="#f5f5f5"/>
        <path id="Trazado_873908" data-name="Trazado 873908" d="M205.58,81.014l-19.341,25.411-5.822,7.728-1.567,2.112-.4.554a1.411,1.411,0,0,0-.128.194,1.423,1.423,0,0,0,.152-.178l.423-.538,1.6-2.089,5.828-7.724,19.1-25.581c7.448-9.99,14.207-19.025,19.14-25.538,2.466-3.257,4.474-5.884,5.877-7.689.7-.9,1.251-1.6,1.63-2.068a4.739,4.739,0,0,1,.606-.694,4.724,4.724,0,0,1-.5.771c-.345.492-.864,1.212-1.538,2.133-1.349,1.843-3.321,4.5-5.773,7.763-4.9,6.534-11.731,15.52-19.288,25.432" transform="translate(-130.383 -32.84)" fill="#f5f5f5"/>
        <path id="Trazado_873909" data-name="Trazado 873909" d="M198.88,100.167l-23.172,22.178L168.72,129.1l-1.886,1.85-.485.487a1.433,1.433,0,0,0-.158.173,1.406,1.406,0,0,0,.179-.152l.5-.468,1.915-1.822,6.993-6.749,22.964-22.381c8.956-8.742,17.079-16.646,22.994-22.333,2.957-2.844,5.362-5.136,7.036-6.707.837-.786,1.491-1.391,1.941-1.8a4.862,4.862,0,0,1,.71-.594,4.753,4.753,0,0,1-.616.686c-.42.434-1.047,1.066-1.861,1.875-1.627,1.617-4,3.94-6.945,6.8-5.889,5.714-14.073,13.559-23.123,22.207" transform="translate(-121.514 -50.16)" fill="#f5f5f5"/>
        <path id="Trazado_873910" data-name="Trazado 873910" d="M193.156,122.544l-26.44,18.4-7.984,5.615-2.159,1.542-.557.408a1.4,1.4,0,0,0-.184.147,1.442,1.442,0,0,0,.2-.124l.573-.386,2.183-1.51,7.988-5.61,26.266-18.638c10.246-7.281,19.535-13.862,26.289-18.586,3.376-2.363,6.118-4.263,8.023-5.562.952-.649,1.7-1.149,2.2-1.481a4.871,4.871,0,0,1,.8-.48,4.862,4.862,0,0,1-.718.584c-.484.366-1.205.9-2.139,1.571-1.866,1.351-4.582,3.287-7.948,5.663-6.732,4.754-16.071,11.266-26.4,18.442" transform="translate(-113.941 -70.399)" fill="#f5f5f5"/>
        <path id="Trazado_873911" data-name="Trazado 873911" d="M188.5,147.691l-29.075,14.16-8.789,4.333-2.38,1.2-.615.318a1.428,1.428,0,0,0-.205.117,1.454,1.454,0,0,0,.218-.091l.628-.295,2.4-1.159,8.793-4.327,28.941-14.418c11.291-5.636,21.524-10.724,28.955-14.364,3.715-1.82,6.729-3.28,8.819-4.274,1.045-.5,1.86-.877,2.416-1.128a4.933,4.933,0,0,1,.864-.353,4.869,4.869,0,0,1-.8.469c-.537.287-1.334.7-2.365,1.227-2.061,1.051-5.054,2.551-8.761,4.386-7.414,3.672-17.686,8.685-29.038,14.2" transform="translate(-107.797 -93.154)" fill="#f5f5f5"/>
        <path id="Trazado_873912" data-name="Trazado 873912" d="M185.041,175.041l-31.006,9.538-9.381,2.936-2.544.817-.659.22a1.371,1.371,0,0,0-.221.084,1.535,1.535,0,0,0,.23-.057l.667-.195,2.557-.777,9.384-2.929,30.914-9.814c12.063-3.84,22.991-7.3,30.919-9.758,3.964-1.23,7.176-2.211,9.4-2.873,1.113-.33,1.979-.581,2.569-.744a4.912,4.912,0,0,1,.91-.216,4.928,4.928,0,0,1-.869.34c-.577.2-1.431.489-2.534.85-2.205.723-5.4,1.746-9.362,2.992-7.916,2.493-18.872,5.873-30.976,9.586" transform="translate(-103.263 -117.916)" fill="#f5f5f5"/>
        <path id="Trazado_873913" data-name="Trazado 873913" d="M182.943,203.817l-32.164,4.678-9.739,1.464-2.645.417-.687.116a1.534,1.534,0,0,0-.233.049,1.406,1.406,0,0,0,.237-.021l.691-.09,2.651-.377L150.8,208.6l32.118-4.963c12.534-1.947,23.887-3.692,32.114-4.908,4.113-.608,7.445-1.086,9.75-1.4,1.153-.156,2.048-.272,2.657-.342a4.985,4.985,0,0,1,.934-.074,4.966,4.966,0,0,1-.913.2c-.6.111-1.492.263-2.64.452-2.3.377-5.62.9-9.73,1.523-8.221,1.252-19.587,2.914-32.142,4.73" transform="translate(-100.519 -143.969)" fill="#f5f5f5"/>
        <path id="Trazado_873914" data-name="Trazado 873914" d="M340.5,50.4l4.753-5.8-1.941-.748,1.518-4.228-4.333,5,2.229.65Z" transform="translate(-248.96 -28.972)" fill="#e0e0e0"/>
        <path id="Trazado_873915" data-name="Trazado 873915" d="M397.1,264.284l4.5,6,1.19-1.705,3.742,2.485-3.819-5.4-1.164,2.009Z" transform="translate(-290.346 -193.238)" fill="#e0e0e0"/>
        <path id="Trazado_873916" data-name="Trazado 873916" d="M94.063,76.036l4.79,14.02,3.277-2.48,5.518,6.951-3.885-12.483-3.412,3.066Z" transform="translate(-68.777 -55.595)" fill="#e0e0e0"/>
        <path id="Trazado_873917" data-name="Trazado 873917" d="M218.269,323.02l3.223-11.545-3.321.154-.5-7.163-3.123,10.105,3.68-.483Z" transform="translate(-156.873 -222.618)" fill="#e0e0e0"/>
        <path id="Trazado_873918" data-name="Trazado 873918" d="M168.638,83.842l-.028,5.4,1.426-.462,1.069,3.056.156-4.767-1.543.648Z" transform="translate(-123.283 -61.303)" fill="#e0e0e0"/>
        <path id="Trazado_873919" data-name="Trazado 873919" d="M78.383,143.637l3.419,4.186.805-1.265,2.771,1.676-2.915-3.775-.777,1.482Z" transform="translate(-57.312 -105.024)" fill="#e0e0e0"/>
        <path id="Trazado_873920" data-name="Trazado 873920" d="M265.336,309.311l-.028,5.4,1.426-.462,1.069,3.056.156-4.767-1.543.648Z" transform="translate(-193.986 -226.16)" fill="#e0e0e0"/>
      </g>
    </g>
    <g id="Grupo_1100534" data-name="Grupo 1100534">
      <g id="Grupo_1100533" data-name="Grupo 1100533" clip-path="url(#clip-path)">
        <path id="Trazado_873921" data-name="Trazado 873921" d="M66.5,229.851c1.533,5.349-1.158,10.814-6.011,12.2s-10.031-1.817-11.564-7.167,1.158-10.814,6.011-12.2S64.968,224.5,66.5,229.851" transform="translate(-35.458 -162.583)" fill="#455a64"/>
        <path id="Trazado_873922" data-name="Trazado 873922" d="M74.322,220.912c2.507,7.146,1.076,14.154-3.2,15.654s-9.77-3.078-12.278-10.224-1.076-14.155,3.2-15.654,9.77,3.078,12.278,10.224" transform="translate(-42.124 -153.842)" fill="#f0c518"/>
        <path id="Trazado_873923" data-name="Trazado 873923" d="M144.335,193.2c2.746,7.826.93,15.587-4.056,17.337s-11.254-3.176-14-11-.93-15.587,4.056-17.337,11.254,3.176,14,11" transform="translate(-91.396 -132.961)" fill="#ff725e"/>
        <path id="Trazado_873924" data-name="Trazado 873924" d="M98.894,234.163c-3.375-6.96-2.32-18.069-2.32-18.069a9.434,9.434,0,0,1,0-2.883c.281-.844,4.32-1.993,4.32-1.993l-9.62-28.441-20.141,8.073,6.431,25.531s1.012,9.907,1.715,14.407,1.687,10.828,2.6,13.218,5.132,2.672,7.383,2.953,10.757-3.867,11.631-5.132,1.376-.7-2-7.664" transform="translate(-52.01 -133.642)" fill="#f0c518"/>
        <g id="Grupo_1100490" data-name="Grupo 1100490" transform="translate(33.603 48.885)" opacity="0.3">
          <g id="Grupo_1100489" data-name="Grupo 1100489">
            <g id="Grupo_1100488" data-name="Grupo 1100488" clip-path="url(#clip-path-4)">
              <path id="Trazado_873925" data-name="Trazado 873925" d="M144.335,193.2c2.746,7.826.93,15.587-4.056,17.337s-11.254-3.176-14-11-.93-15.587,4.056-17.337,11.254,3.176,14,11" transform="translate(-124.999 -181.846)"/>
            </g>
          </g>
        </g>
        <path id="Trazado_873926" data-name="Trazado 873926" d="M144.266,123.159s9.912-5.865,15.031-11.7c4.165-4.746,9.883-12.74,9.883-12.74l26.314,55.247s-13.693-5.239-26.314-5.358c-12.04-.114-16.565-.035-16.565-.035Z" transform="translate(-105.483 -72.181)" fill="#e0e0e0"/>
        <path id="Trazado_873927" data-name="Trazado 873927" d="M148.273,197.77c2.472,7.044,1.3,13.867-2.612,15.24s-9.09-3.223-11.562-10.267-1.3-13.867,2.612-15.24,9.09,3.223,11.562,10.267" transform="translate(-97.103 -136.92)" fill="#e0e0e0"/>
        <g id="Grupo_1100493" data-name="Grupo 1100493" transform="translate(35.837 39.438)" opacity="0.3">
          <g id="Grupo_1100492" data-name="Grupo 1100492">
            <g id="Grupo_1100491" data-name="Grupo 1100491" clip-path="url(#clip-path-5)">
              <path id="Trazado_873928" data-name="Trazado 873928" d="M135.531,175.638c9.3-5.609,19.326-10.12,30.493-8.735a62.089,62.089,0,0,1-4.963-20.2C154,156.36,144.9,165.191,133.31,168.143a34.848,34.848,0,0,0,.932,4.264c.468,1.337,1.288,3.232,1.288,3.232" transform="translate(-133.31 -146.702)" fill="#fff"/>
            </g>
          </g>
        </g>
        <g id="Grupo_1100496" data-name="Grupo 1100496" transform="translate(25.553 77.836)" opacity="0.2">
          <g id="Grupo_1100495" data-name="Grupo 1100495">
            <g id="Grupo_1100494" data-name="Grupo 1100494" clip-path="url(#clip-path-6)">
              <path id="Trazado_873929" data-name="Trazado 873929" d="M100.9,321.508c.137-.071.274-.141.412-.211q.263-.134.528-.266l.424-.208q.263-.127.528-.252l.426-.2q.271-.125.544-.247c.137-.062.274-.124.412-.184.2-.087.395-.172.593-.256l.369-.158q.464-.195.929-.382l.286-.113c.231-.092.463-.183.695-.272l.4-.151q.285-.108.57-.213l.432-.156.54-.192.44-.152.536-.182.436-.145c.181-.06.362-.118.543-.176l.422-.134c.193-.061.385-.12.578-.178l.38-.116q.457-.138.911-.268l.011,0c-.23-.585-2.225-4.691-4.446-10.813-2.386-6.578-.884-15.87-1.414-16.311s-12.335,4.877-12.335,4.877,1.012,9.907,1.715,14.407,1.687,10.828,2.6,13.218q.044.114.1.222c.17-.1.34-.192.511-.287.124-.068.25-.134.376-.2.183-.1.366-.2.55-.293" transform="translate(-95.054 -289.539)" fill="#f5f5f5"/>
            </g>
          </g>
        </g>
        <g id="Grupo_1100499" data-name="Grupo 1100499" transform="translate(29.967 104.979)" opacity="0.3">
          <g id="Grupo_1100498" data-name="Grupo 1100498">
            <g id="Grupo_1100497" data-name="Grupo 1100497" clip-path="url(#clip-path-7)">
              <path id="Trazado_873930" data-name="Trazado 873930" d="M125.254,390.515l-.011,0q-.454.131-.911.268l-.38.116c-.192.059-.385.118-.578.178l-.422.134-.543.176-.436.145-.536.182-.44.152-.54.192-.432.156q-.285.1-.57.213l-.4.151c-.232.089-.463.18-.695.272l-.286.113q-.465.187-.929.382c-.123.052-.246.105-.369.158-.2.085-.4.169-.593.256-.138.06-.275.123-.412.184q-.273.123-.544.247l-.426.2q-.265.125-.528.252l-.424.208q-.265.131-.528.266c-.137.07-.275.14-.412.211-.184.1-.367.194-.55.293-.125.067-.251.133-.376.2-.171.094-.341.191-.511.287,1.084,2.186,5.107,2.459,7.285,2.731,2.25.281,10.757-3.867,11.631-5.132.469-.678.829-.833.544-1.9-1.861-.454-3.568-.868-5.653-1.305l-.026.008" transform="translate(-111.473 -390.507)"/>
            </g>
          </g>
        </g>
        <path id="Trazado_873931" data-name="Trazado 873931" d="M148.742,298.587a2.419,2.419,0,0,0-1.012.289c-.217.217-.5,10.408.506,12.071.06.1-.072.072.506.434s3.266,1.5,4.091.969,2.776-2.27,2.632-2.993-.882-1.276-1.745-2.951c-.775-1.5-1.074-6.3-1.074-6.3a24.063,24.063,0,0,0-3.9-1.515" transform="translate(-107.862 -218.317)" fill="#f5f5f5"/>
        <g id="Grupo_1100502" data-name="Grupo 1100502" transform="translate(41.051 80.284)" opacity="0.3">
          <g id="Grupo_1100501" data-name="Grupo 1100501">
            <g id="Grupo_1100500" data-name="Grupo 1100500" clip-path="url(#clip-path-8)">
              <path id="Trazado_873932" data-name="Trazado 873932" d="M159.258,309.431c0-.009,0-.02,0-.028-.145-.723-.882-1.276-1.745-2.951-.775-1.5-1.074-6.3-1.074-6.3a32.578,32.578,0,0,0-3.732-1.5c.039.258.624,3.4,1.136,5.7a11.183,11.183,0,0,0,1.664,3.86c.053-.035.091-.054.108-.05a20.572,20.572,0,0,1,3.643,1.273" transform="translate(-152.706 -298.646)"/>
            </g>
          </g>
        </g>
        <g id="Grupo_1100505" data-name="Grupo 1100505" transform="translate(40.609 89.795)" opacity="0.5">
          <g id="Grupo_1100504" data-name="Grupo 1100504">
            <g id="Grupo_1100503" data-name="Grupo 1100503" clip-path="url(#clip-path-9)">
              <path id="Trazado_873933" data-name="Trazado 873933" d="M154.416,334.028c-.017,0-.055.015-.108.05-.527.349-2.678,2.475-3.246,3.04.067.046.155.1.274.178.578.362,3.266,1.5,4.091.969A8.643,8.643,0,0,0,158,335.636a.69.69,0,0,0,.06-.335,20.573,20.573,0,0,0-3.643-1.273" transform="translate(-151.062 -334.028)"/>
            </g>
          </g>
        </g>
        <path id="Trazado_873934" data-name="Trazado 873934" d="M132.935,392.042a1,1,0,0,1-.193-.012c-.126-.012-.311-.039-.547-.085-.473-.087-1.144-.278-1.965-.523-.411-.119-.862-.247-1.354-.344a3.984,3.984,0,0,0-1.576-.051,26.993,26.993,0,0,0-3.483,1.164,53.745,53.745,0,0,0-6.174,2.576c-.768.38-1.38.706-1.8.935l-.485.263a1.025,1.025,0,0,1-.174.084.977.977,0,0,1,.16-.109c.107-.066.265-.166.473-.286.413-.243,1.019-.583,1.783-.976a48.424,48.424,0,0,1,6.172-2.619,25.772,25.772,0,0,1,3.508-1.159,3.59,3.59,0,0,1,.839-.049,5.942,5.942,0,0,1,.78.114c.5.1.949.237,1.36.363.819.257,1.48.461,1.948.565.233.054.416.09.54.111a1,1,0,0,1,.189.04" transform="translate(-84.22 -285.774)" fill="#263238"/>
        <path id="Trazado_873935" data-name="Trazado 873935" d="M154.532,334.167a3.53,3.53,0,0,1-.493.448c-.312.266-.742.634-1.205,1.054s-.871.813-1.166,1.1a3.515,3.515,0,0,1-.493.448,2.85,2.85,0,0,1,.422-.517c.278-.3.678-.71,1.143-1.133s.908-.781,1.237-1.028a2.838,2.838,0,0,1,.555-.371" transform="translate(-110.534 -244.333)" fill="#263238"/>
        <path id="Trazado_873936" data-name="Trazado 873936" d="M155.777,309.56a1.357,1.357,0,0,1-.192-.272,6.424,6.424,0,0,1-.418-.806,14.777,14.777,0,0,1-.824-2.873c-.247-1.14-.438-2.179-.538-2.938-.051-.379-.083-.687-.1-.9a1.467,1.467,0,0,1-.008-.333,1.551,1.551,0,0,1,.062.326c.038.239.086.537.142.892.125.752.331,1.785.577,2.923a17.383,17.383,0,0,0,.779,2.864c.282.705.542,1.1.519,1.117" transform="translate(-112.375 -220.403)" fill="#263238"/>
        <path id="Trazado_873937" data-name="Trazado 873937" d="M166.806,335.2c-.019.037-.752-.315-1.7-.628s-1.747-.474-1.739-.515a1.8,1.8,0,0,1,.533.057,9.709,9.709,0,0,1,2.447.813,1.788,1.788,0,0,1,.461.273" transform="translate(-119.448 -244.248)" fill="#263238"/>
        <g id="Grupo_1100508" data-name="Grupo 1100508" transform="translate(16.735 59.407)" opacity="0.3">
          <g id="Grupo_1100507" data-name="Grupo 1100507">
            <g id="Grupo_1100506" data-name="Grupo 1100506" clip-path="url(#clip-path-10)">
              <path id="Trazado_873938" data-name="Trazado 873938" d="M77.885,220.988a9.6,9.6,0,0,0,.392,4.987s-10.18,3.237-15.063,5.392a6.744,6.744,0,0,1-.9-4.4Z" transform="translate(-62.251 -220.988)" fill="#fff"/>
            </g>
          </g>
        </g>
        <path id="Trazado_873939" data-name="Trazado 873939" d="M130.166,183.158a.544.544,0,0,1-.091.044l-.272.115a6.87,6.87,0,0,0-.993.547,7.809,7.809,0,0,0-2.635,3.166,14.19,14.19,0,0,0-1.276,6,22.647,22.647,0,0,0,4.927,14.043,14.191,14.191,0,0,0,4.748,3.891,7.81,7.81,0,0,0,4.035.825,6.866,6.866,0,0,0,1.117-.193l.285-.08a.581.581,0,0,1,.1-.023.525.525,0,0,1-.094.037l-.282.094a6.262,6.262,0,0,1-1.119.22,7.761,7.761,0,0,1-4.083-.79,14.179,14.179,0,0,1-4.806-3.9,22.594,22.594,0,0,1-4.957-14.126,14.174,14.174,0,0,1,1.316-6.046,7.759,7.759,0,0,1,2.694-3.168,6.282,6.282,0,0,1,1.012-.527l.279-.1a.554.554,0,0,1,.1-.03" transform="translate(-91.226 -133.92)" fill="#263238"/>
        <path id="Trazado_873940" data-name="Trazado 873940" d="M148.634,291.736a.948.948,0,0,1-.263,0c-.169-.009-.412-.033-.711-.071a18.005,18.005,0,0,1-4.547-1.212c-.279-.116-.5-.217-.652-.293a.952.952,0,0,1-.229-.129,9.388,9.388,0,0,1,.917.33c.563.209,1.349.476,2.234.712s1.7.395,2.291.494a9.351,9.351,0,0,1,.959.17" transform="translate(-103.997 -212.06)" fill="#263238"/>
        <path id="Trazado_873941" data-name="Trazado 873941" d="M106.594,289.488c.015.036-2.576,1.168-5.786,2.528s-5.826,2.435-5.841,2.4,2.575-1.168,5.786-2.528,5.825-2.434,5.841-2.4" transform="translate(-69.437 -211.665)" fill="#263238"/>
        <path id="Trazado_873942" data-name="Trazado 873942" d="M169.181,98.719a.432.432,0,0,1-.047.078l-.15.221-.592.839c-.518.726-1.276,1.771-2.226,3.05s-2.1,2.795-3.4,4.453c-.653.827-1.344,1.692-2.079,2.574q-.548.664-1.132,1.335c-.386.45-.808.881-1.218,1.332a51.951,51.951,0,0,1-5.161,4.524c-1.667,1.294-3.22,2.389-4.541,3.283s-2.413,1.582-3.173,2.049c-.38.234-.677.411-.88.529l-.232.133a.046.046,0,1,1-.007-.012l.225-.144.866-.551c.75-.481,1.833-1.181,3.146-2.085s2.858-2.006,4.517-3.3a53.18,53.18,0,0,0,5.141-4.52c.409-.449.828-.877,1.213-1.326s.766-.89,1.132-1.331c.735-.879,1.427-1.742,2.083-2.566,1.308-1.652,2.46-3.16,3.421-4.432l2.262-3.023L168.96,99l.162-.213a.467.467,0,0,1,.059-.07" transform="translate(-105.484 -72.181)" fill="#263238"/>
        <path id="Trazado_873943" data-name="Trazado 873943" d="M175.321,284.061a.355.355,0,0,1,.083-.007l.242-.006.932-.011,3.43-.015,11.317,0a62.154,62.154,0,0,1,11.256,1.128c1.425.265,2.569.52,3.358.7.395.09.7.168.906.22l.235.061a.36.36,0,0,1,.079.026.374.374,0,0,1-.082-.012l-.238-.048-.912-.194c-.792-.168-1.939-.407-3.364-.66a64.959,64.959,0,0,0-11.239-1.085l-11.315-.045-3.43-.03-.933-.015-.242-.008a.367.367,0,0,1-.083-.007" transform="translate(-128.19 -207.669)" fill="#263238"/>
        <g id="Grupo_1100511" data-name="Grupo 1100511" transform="translate(60.758 27.091)" opacity="0.3">
          <g id="Grupo_1100510" data-name="Grupo 1100510">
            <g id="Grupo_1100509" data-name="Grupo 1100509" clip-path="url(#clip-path-11)">
              <path id="Trazado_873944" data-name="Trazado 873944" d="M263.606,118.376l-35.122-17.6-2.126,2.984c-.942,7.239.017,16.391,3.108,25.814,2.983,9.1,7.417,16.811,12.26,22.081l7.022,1.706Z" transform="translate(-226.013 -100.775)"/>
            </g>
          </g>
        </g>
        <path id="Trazado_873945" data-name="Trazado 873945" d="M268.46,83.257c6.291,19.182,3.749,37.239-5.678,40.331s-22.17-9.952-28.461-29.134S230.571,57.215,240,54.123s22.17,9.952,28.461,29.134" transform="translate(-168.803 -39.242)" fill="#f0c518"/>
        <path id="Trazado_873946" data-name="Trazado 873946" d="M280.4,102.723c5.182,15.8,4.269,30.283-2.039,32.352s-15.622-9.061-20.8-24.86-4.268-30.283,2.039-32.352,15.622,9.061,20.8,24.86" transform="translate(-185.865 -56.75)" fill="#e0e0e0"/>
        <g id="Grupo_1100514" data-name="Grupo 1100514" transform="translate(73.211 19.741)" opacity="0.3">
          <g id="Grupo_1100513" data-name="Grupo 1100513">
            <g id="Grupo_1100512" data-name="Grupo 1100512" clip-path="url(#clip-path-12)">
              <path id="Trazado_873947" data-name="Trazado 873947" d="M296.78,99.026c-5.331-16.254-15.29-27.581-22.245-25.3a6.094,6.094,0,0,0-2.2,1.3,4.873,4.873,0,0,1,.544-.216c6.308-2.069,15.622,9.061,20.8,24.86s4.269,30.283-2.039,32.352a5.457,5.457,0,0,1-3.022.066,7.155,7.155,0,0,0,5.218.5c6.955-2.281,8.271-17.306,2.94-33.56" transform="translate(-272.335 -73.435)"/>
            </g>
          </g>
        </g>
        <path id="Trazado_873948" data-name="Trazado 873948" d="M259.758,166.784l16.434-3.559,2.982,9.092-14.924,7.907s-4.221-9.327-4.492-13.44" transform="translate(-189.928 -119.346)" fill="#8722e2"/>
        <g id="Grupo_1100517" data-name="Grupo 1100517" transform="translate(69.83 46.445)" opacity="0.2">
          <g id="Grupo_1100516" data-name="Grupo 1100516">
            <g id="Grupo_1100515" data-name="Grupo 1100515" clip-path="url(#clip-path-13)">
              <path id="Trazado_873949" data-name="Trazado 873949" d="M264.343,172.77c-.257.105-3.3,5.459-1.205,8.527a12.89,12.89,0,0,0,4.36,4.185l-3.043,1.645-3.179-8.423-1.519-4.941Z" transform="translate(-259.757 -172.77)"/>
            </g>
          </g>
        </g>
        <path id="Trazado_873950" data-name="Trazado 873950" d="M321.282,166.848c.823,2.511.462,4.884-.807,5.3s-2.965-1.281-3.789-3.792-.462-4.884.807-5.3,2.965,1.282,3.789,3.792" transform="translate(-231.23 -119.176)" fill="#ff725e"/>
        <path id="Trazado_873951" data-name="Trazado 873951" d="M321.1,166.7a1.5,1.5,0,0,1-.092-.218c-.052-.145-.141-.355-.259-.623a8.914,8.914,0,0,0-.5-.942,6.232,6.232,0,0,0-.855-1.116,2.866,2.866,0,0,0-1.415-.868,1.237,1.237,0,0,0-.882.141,1.635,1.635,0,0,0-.624.735,4.594,4.594,0,0,0-.334,2.1,8.982,8.982,0,0,0,1.431,4.364,4.6,4.6,0,0,0,1.513,1.5,1.638,1.638,0,0,0,.938.223,1.238,1.238,0,0,0,.794-.41,2.864,2.864,0,0,0,.626-1.537,6.225,6.225,0,0,0,.028-1.405,8.87,8.87,0,0,0-.155-1.055c-.063-.286-.116-.508-.16-.656a1.491,1.491,0,0,1-.054-.23,1.467,1.467,0,0,1,.081.222c.053.146.115.366.187.652a8.276,8.276,0,0,1,.18,1.059,6.163,6.163,0,0,1-.008,1.426,2.947,2.947,0,0,1-.639,1.6,1.356,1.356,0,0,1-.867.453,1.759,1.759,0,0,1-1.011-.231,4.7,4.7,0,0,1-1.567-1.533A9.035,9.035,0,0,1,316,165.912a4.7,4.7,0,0,1,.354-2.163,1.759,1.759,0,0,1,.678-.785,1.354,1.354,0,0,1,.966-.148,2.948,2.948,0,0,1,1.464.913,6.153,6.153,0,0,1,.85,1.144,8.276,8.276,0,0,1,.483.96c.112.273.192.487.236.636a1.5,1.5,0,0,1,.066.227" transform="translate(-231.05 -119.023)" fill="#263238"/>
        <g id="Grupo_1100520" data-name="Grupo 1100520" transform="translate(86.227 45.77)" opacity="0.3">
          <g id="Grupo_1100519" data-name="Grupo 1100519">
            <g id="Grupo_1100518" data-name="Grupo 1100518" clip-path="url(#clip-path-14)">
              <path id="Trazado_873952" data-name="Trazado 873952" d="M323.639,172.469c.472,1.439.265,2.8-.462,3.037s-1.7-.734-2.171-2.173-.265-2.8.462-3.037,1.7.734,2.171,2.173" transform="translate(-320.753 -170.26)"/>
            </g>
          </g>
        </g>
        <path id="Trazado_873953" data-name="Trazado 873953" d="M259.443,78.536s-.055.027-.163.073-.276.1-.479.21a5.781,5.781,0,0,0-1.583,1.221,12.908,12.908,0,0,0-2.747,6.76,32.721,32.721,0,0,0-.368,5.1,50.276,50.276,0,0,0,.383,5.859,72.33,72.33,0,0,0,8.344,25.44,50.292,50.292,0,0,0,3.161,4.948,32.742,32.742,0,0,0,3.316,3.889,12.906,12.906,0,0,0,6.217,3.82,5.782,5.782,0,0,0,2,.047c.227-.035.395-.092.51-.115s.175-.038.175-.038a6.7,6.7,0,0,1-.681.18,5.668,5.668,0,0,1-2.013-.021,9.093,9.093,0,0,1-2.96-1.18,17.451,17.451,0,0,1-3.316-2.623,32.547,32.547,0,0,1-3.34-3.891,49.965,49.965,0,0,1-3.18-4.953,71.826,71.826,0,0,1-8.359-25.488,49.942,49.942,0,0,1-.371-5.874,32.6,32.6,0,0,1,.387-5.113,17.45,17.45,0,0,1,1.119-4.078,9.091,9.091,0,0,1,1.686-2.7,5.671,5.671,0,0,1,1.61-1.209,6.649,6.649,0,0,1,.655-.258" transform="translate(-185.709 -57.423)" fill="#263238"/>
        <g id="Grupo_1100523" data-name="Grupo 1100523" transform="translate(72.914 51.185)" opacity="0.2">
          <g id="Grupo_1100522" data-name="Grupo 1100522">
            <g id="Grupo_1100521" data-name="Grupo 1100521" clip-path="url(#clip-path-15)">
              <path id="Trazado_873954" data-name="Trazado 873954" d="M271.232,196.117l13.485-5.714s1.046,1.779,2.382,1.846l-14.255,7.77Z" transform="translate(-271.232 -190.403)"/>
            </g>
          </g>
        </g>
        <g id="Grupo_1100526" data-name="Grupo 1100526" transform="translate(63.65 34.061)" opacity="0.3">
          <g id="Grupo_1100525" data-name="Grupo 1100525">
            <g id="Grupo_1100524" data-name="Grupo 1100524" clip-path="url(#clip-path-16)">
              <path id="Trazado_873955" data-name="Trazado 873955" d="M237.087,126.7s-.713,3.154,0,4.36h2.5V126.7Z" transform="translate(-236.77 -126.703)" fill="#fff"/>
            </g>
          </g>
        </g>
        <g id="Grupo_1100529" data-name="Grupo 1100529" transform="translate(63.836 14.493)" opacity="0.3">
          <g id="Grupo_1100528" data-name="Grupo 1100528">
            <g id="Grupo_1100527" data-name="Grupo 1100527" clip-path="url(#clip-path-17)">
              <path id="Trazado_873956" data-name="Trazado 873956" d="M248.832,53.911a11.235,11.235,0,0,0-5.568,2.763c-4.138,3.5-5.833,9.618-5.8,14.969a4.05,4.05,0,0,1,2.735,0,28.154,28.154,0,0,1,1.421-7.942,8.969,8.969,0,0,1,11.719-5.974c4.753,1.359,8.416,4.934,11.707,8.711-5.009-7.283-10.883-11.94-16.211-12.527" transform="translate(-237.461 -53.911)" fill="#fff"/>
            </g>
          </g>
        </g>
        <path id="Trazado_873957" data-name="Trazado 873957" d="M327.831,280.266a1.071,1.071,0,0,1-.075.187c-.057.119-.126.3-.247.52a10.463,10.463,0,0,1-1.16,1.773,10.167,10.167,0,0,1-2.317,2.123,8.977,8.977,0,0,1-1.651.863,8.393,8.393,0,0,1-1.938.5,7.1,7.1,0,0,1-3.773-.662,13.641,13.641,0,0,1-2.68-1.643c-.71-.545-1.254-1.023-1.623-1.36-.186-.167-.326-.3-.421-.392a1.1,1.1,0,0,1-.14-.144,1.059,1.059,0,0,1,.159.123l.438.372c.38.324.933.79,1.647,1.322a14.01,14.01,0,0,0,2.673,1.6,7.041,7.041,0,0,0,3.7.64,8.357,8.357,0,0,0,1.905-.487,8.985,8.985,0,0,0,1.63-.843,10.32,10.32,0,0,0,2.311-2.078,11.321,11.321,0,0,0,1.189-1.737c.129-.214.205-.392.27-.506a1.115,1.115,0,0,1,.1-.174" transform="translate(-227.984 -204.923)" fill="#fff"/>
        <g id="Grupo_1100532" data-name="Grupo 1100532" transform="translate(68.204 21.427)" opacity="0.3">
          <g id="Grupo_1100531" data-name="Grupo 1100531">
            <g id="Grupo_1100530" data-name="Grupo 1100530" clip-path="url(#clip-path-18)">
              <path id="Trazado_873958" data-name="Trazado 873958" d="M264.432,123.614a91.579,91.579,0,0,1-8.073-27.9,35.969,35.969,0,0,1-.14-9.654,17.882,17.882,0,0,1,2.147-6.354c-5.63,2.935-6.269,16.88-1.3,32.037,5.182,15.8,14.5,26.929,20.8,24.86a4.946,4.946,0,0,0,.638-.262,13.269,13.269,0,0,1-8.5-4.108,30.134,30.134,0,0,1-5.579-8.619" transform="translate(-253.709 -79.707)"/>
            </g>
          </g>
        </g>
      </g>
    </g>
    <path id="Trazado_873959" data-name="Trazado 873959" d="M374.859,139.616l16.518-2.975-2.541-3.619,9.053-3.817-14.431,1.743,2.616,3.967Z" transform="translate(-274.087 -94.472)" fill="#debefb"/>
    <path id="Trazado_873960" data-name="Trazado 873960" d="M369.189,82.71l10.486-8.387L375.6,72.565l3.644-6.629-8.531,7.169,3.535,1.67Z" transform="translate(-269.941 -48.211)" fill="#debefb"/>
    <path id="Trazado_873961" data-name="Trazado 873961" d="M389.6,201.114l10.528,8.37.276-3.144,7,2.873-9.063-7.3-.284,3.333Z" transform="translate(-284.863 -147.049)" fill="#debefb"/>
  </g>
</svg>
