<svg xmlns="http://www.w3.org/2000/svg" width="85" height="85" viewBox="0 0 85 85">
  <g id="Grupo_1101598" data-name="Grupo 1101598" transform="translate(-180 -5254)">
    <rect id="Rectángulo_401125" data-name="Rectángulo 401125" width="85" height="85" transform="translate(180 5254)" fill="#debefb"/>
    <g id="reshot-icon-reciprocal-link-HKGQXZ3PYU" transform="translate(193.308 5266.808)">
      <g id="Grupo_1100540" data-name="Grupo 1100540" transform="translate(0.696 0.696)">
        <path id="Trazado_873962" data-name="Trazado 873962" d="M30.265,1.5H2.892A1.39,1.39,0,0,0,1.5,2.892V27.017a1.39,1.39,0,0,0,1.392,1.392H30.265a1.39,1.39,0,0,0,1.392-1.392V2.892A1.39,1.39,0,0,0,30.265,1.5Z" transform="translate(-1.5 -1.5)" fill="#f6f7f7"/>
        <path id="Trazado_873963" data-name="Trazado 873963" d="M90.265,68.5H62.892A1.39,1.39,0,0,0,61.5,69.892V94.017a1.39,1.39,0,0,0,1.392,1.392H90.265a1.39,1.39,0,0,0,1.392-1.392V69.892A1.39,1.39,0,0,0,90.265,68.5Z" transform="translate(-33.663 -37.416)" fill="#f6f7f7"/>
        <path id="Trazado_873964" data-name="Trazado 873964" d="M30.265,1.5H2.892A1.39,1.39,0,0,0,1.5,2.892V7.067H31.657V2.892A1.39,1.39,0,0,0,30.265,1.5Z" transform="translate(-1.5 -1.5)" fill="#a854f3"/>
        <path id="Trazado_873965" data-name="Trazado 873965" d="M31.378,21.5H11.428a.928.928,0,0,0-.928.928v2.32a.928.928,0,0,0,.928.928h19.95a.928.928,0,0,0,.928-.928v-2.32A.928.928,0,0,0,31.378,21.5Z" transform="translate(-6.324 -12.221)" fill="#f7eefe"/>
        <path id="Trazado_873966" data-name="Trazado 873966" d="M12.82,44.5H11.428a.928.928,0,0,0-.928.928V46.82a.928.928,0,0,0,.928.928H12.82a.928.928,0,0,0,.928-.928V45.428A.928.928,0,0,0,12.82,44.5Z" transform="translate(-6.324 -24.55)" fill="#cff1fb"/>
        <path id="Trazado_873967" data-name="Trazado 873967" d="M90.265,68.5H62.892A1.39,1.39,0,0,0,61.5,69.892v4.176H91.657V69.892A1.39,1.39,0,0,0,90.265,68.5Z" transform="translate(-33.663 -37.416)" fill="#debefb"/>
        <path id="Trazado_873968" data-name="Trazado 873968" d="M91.378,88.5H71.428a.928.928,0,0,0-.928.928v2.32a.928.928,0,0,0,.928.928h19.95a.928.928,0,0,0,.928-.928v-2.32A.928.928,0,0,0,91.378,88.5Z" transform="translate(-38.488 -48.137)" fill="#f2e5fd"/>
        <path id="Trazado_873969" data-name="Trazado 873969" d="M72.82,111.5H71.428a.928.928,0,0,0-.928.928v1.392a.928.928,0,0,0,.928.928H72.82a.928.928,0,0,0,.928-.928v-1.392A.928.928,0,0,0,72.82,111.5Z" transform="translate(-38.488 -60.466)" fill="#cff1fb"/>
      </g>
      <g id="Grupo_1100541" data-name="Grupo 1100541">
        <path id="Trazado_873970" data-name="Trazado 873970" d="M29.461,0H2.088A2.09,2.09,0,0,0,0,2.088V6.263a.7.7,0,0,0,.7.7H30.852a.7.7,0,0,0,.7-.7V2.088A2.09,2.09,0,0,0,29.461,0Zm.7,5.567H1.392V2.088a.7.7,0,0,1,.7-.7H29.461a.7.7,0,0,1,.7.7Z" fill="#00ffdf"/>
        <path id="Trazado_873971" data-name="Trazado 873971" d="M29.461,0H2.088A2.09,2.09,0,0,0,0,2.088v10.05a.7.7,0,0,0,1.392,0V2.088a.7.7,0,0,1,.7-.7H29.461a.7.7,0,0,1,.7.7V26.213a.7.7,0,0,1-.7.7H2.088a.7.7,0,0,1-.7-.7V15.836a.7.7,0,0,0-1.392,0V26.213A2.09,2.09,0,0,0,2.088,28.3H29.461a2.09,2.09,0,0,0,2.088-2.088V2.088A2.09,2.09,0,0,0,29.461,0Z" fill="#12263f"/>
        <path id="Trazado_873972" data-name="Trazado 873972" d="M10.624,6H9.7a.7.7,0,0,0,0,1.392h.928a.7.7,0,1,0,0-1.392Z" transform="translate(-4.824 -3.216)" fill="#746887"/>
        <path id="Trazado_873973" data-name="Trazado 873973" d="M17.624,6H16.7a.7.7,0,0,0,0,1.392h.928a.7.7,0,1,0,0-1.392Z" transform="translate(-8.577 -3.216)" fill="#746887"/>
        <path id="Trazado_873974" data-name="Trazado 873974" d="M30.574,20H10.624A1.626,1.626,0,0,0,9,21.624v2.32a1.626,1.626,0,0,0,1.624,1.624h19.95A1.626,1.626,0,0,0,32.2,23.944v-2.32A1.626,1.626,0,0,0,30.574,20Zm.232,3.944a.232.232,0,0,1-.232.232H10.624a.232.232,0,0,1-.232-.232v-2.32a.232.232,0,0,1,.232-.232h19.95a.232.232,0,0,1,.232.232Z" transform="translate(-4.824 -10.721)" fill="#12263f"/>
        <path id="Trazado_873975" data-name="Trazado 873975" d="M31.5,36H9.7a.7.7,0,1,0,0,1.392H31.5A.7.7,0,1,0,31.5,36Z" transform="translate(-4.824 -19.298)" fill="#746887"/>
        <path id="Trazado_873976" data-name="Trazado 873976" d="M38.47,43H22.7a.7.7,0,1,0,0,1.392H38.47a.7.7,0,0,0,0-1.392Z" transform="translate(-11.793 -23.05)" fill="#746887"/>
        <path id="Trazado_873977" data-name="Trazado 873977" d="M38.47,50H22.7a.7.7,0,1,0,0,1.392H38.47a.7.7,0,0,0,0-1.392Z" transform="translate(-11.793 -26.803)" fill="#746887"/>
        <path id="Trazado_873978" data-name="Trazado 873978" d="M12.016,43H10.624A1.626,1.626,0,0,0,9,44.624v1.392a1.626,1.626,0,0,0,1.624,1.624h1.392a1.626,1.626,0,0,0,1.624-1.624V44.624A1.626,1.626,0,0,0,12.016,43Zm.232,3.016a.232.232,0,0,1-.232.232H10.624a.232.232,0,0,1-.232-.232V44.624a.232.232,0,0,1,.232-.232h1.392a.232.232,0,0,1,.232.232Z" transform="translate(-4.824 -23.05)" fill="#746887"/>
        <path id="Trazado_873979" data-name="Trazado 873979" d="M89.461,67H62.088A2.09,2.09,0,0,0,60,69.088v4.176a.7.7,0,0,0,.7.7H90.852a.7.7,0,0,0,.7-.7V69.088A2.09,2.09,0,0,0,89.461,67Zm.7,5.567H61.392v-3.48a.7.7,0,0,1,.7-.7H89.461a.7.7,0,0,1,.7.7Z" transform="translate(-32.163 -35.916)" fill="#00ffdf"/>
        <path id="Trazado_873980" data-name="Trazado 873980" d="M89.461,67H62.088A2.09,2.09,0,0,0,60,69.088V93.213A2.09,2.09,0,0,0,62.088,95.3H89.461a2.09,2.09,0,0,0,2.088-2.088v-10.4a.7.7,0,0,0-1.392,0v10.4a.7.7,0,0,1-.7.7H62.088a.7.7,0,0,1-.7-.7V69.088a.7.7,0,0,1,.7-.7H89.461a.7.7,0,0,1,.7.7V79.134a.7.7,0,0,0,1.392,0V69.088A2.09,2.09,0,0,0,89.461,67Z" transform="translate(-32.163 -35.916)" fill="#12263f"/>
        <path id="Trazado_873981" data-name="Trazado 873981" d="M70.624,73H69.7a.7.7,0,0,0,0,1.392h.928a.7.7,0,0,0,0-1.392Z" transform="translate(-36.988 -39.132)" fill="#746887"/>
        <path id="Trazado_873982" data-name="Trazado 873982" d="M77.624,73H76.7a.7.7,0,0,0,0,1.392h.928a.7.7,0,0,0,0-1.392Z" transform="translate(-40.74 -39.132)" fill="#746887"/>
        <path id="Trazado_873983" data-name="Trazado 873983" d="M90.574,87H70.624A1.626,1.626,0,0,0,69,88.624v2.32a1.626,1.626,0,0,0,1.624,1.624h19.95A1.626,1.626,0,0,0,92.2,90.944v-2.32A1.626,1.626,0,0,0,90.574,87Zm.232,3.944a.232.232,0,0,1-.232.232H70.624a.232.232,0,0,1-.232-.232v-2.32a.232.232,0,0,1,.232-.232h19.95a.232.232,0,0,1,.232.232Z" transform="translate(-36.988 -46.637)" fill="#12263f"/>
        <path id="Trazado_873984" data-name="Trazado 873984" d="M91.5,103H69.7a.7.7,0,0,0,0,1.392H91.5a.7.7,0,0,0,0-1.392Z" transform="translate(-36.988 -55.213)" fill="#746887"/>
        <path id="Trazado_873985" data-name="Trazado 873985" d="M98.47,110H82.7a.7.7,0,0,0,0,1.392H98.47a.7.7,0,0,0,0-1.392Z" transform="translate(-43.956 -58.966)" fill="#746887"/>
        <path id="Trazado_873986" data-name="Trazado 873986" d="M98.47,117H82.7a.7.7,0,0,0,0,1.392H98.47a.7.7,0,0,0,0-1.392Z" transform="translate(-43.956 -62.718)" fill="#746887"/>
        <path id="Trazado_873987" data-name="Trazado 873987" d="M72.016,110H70.624A1.626,1.626,0,0,0,69,111.624v1.392a1.626,1.626,0,0,0,1.624,1.624h1.392a1.626,1.626,0,0,0,1.624-1.624v-1.392A1.626,1.626,0,0,0,72.016,110Zm.232,3.016a.232.232,0,0,1-.232.232H70.624a.232.232,0,0,1-.232-.232v-1.392a.232.232,0,0,1,.232-.232h1.392a.232.232,0,0,1,.232.232Z" transform="translate(-36.988 -58.966)" fill="#746887"/>
        <path id="Trazado_873988" data-name="Trazado 873988" d="M37.675,82.107A17.317,17.317,0,0,1,23.392,64.7.7.7,0,1,0,22,64.7,18.677,18.677,0,0,0,37.409,83.473a.7.7,0,1,0,.266-1.366Z" transform="translate(-11.793 -34.307)" fill="#a854f3"/>
        <path id="Trazado_873989" data-name="Trazado 873989" d="M21.094,64.277a.72.72,0,0,0-1.087,0L18.152,66.6a.7.7,0,0,0,1.087.869l1.313-1.641,1.313,1.641A.7.7,0,0,0,22.95,66.6Z" transform="translate(-9.648 -34.323)" fill="#a854f3"/>
        <path id="Trazado_873990" data-name="Trazado 873990" d="M71.829,22.013a.7.7,0,1,0-.266,1.366A17.317,17.317,0,0,1,85.846,40.79a.7.7,0,0,0,1.392,0A18.677,18.677,0,0,0,71.829,22.013Z" transform="translate(-38.06 -11.793)" fill="#a854f3"/>
        <path id="Trazado_873991" data-name="Trazado 873991" d="M103.842,56.153a.7.7,0,0,0-.978.109L101.552,57.9l-1.313-1.641a.7.7,0,1,0-1.087.869l1.856,2.32a.7.7,0,0,0,1.087,0l1.856-2.32A.7.7,0,0,0,103.842,56.153Z" transform="translate(-53.069 -30.02)" fill="#a854f3"/>
      </g>
    </g>
  </g>
</svg>
