<svg xmlns="http://www.w3.org/2000/svg" width="85" height="85" viewBox="0 0 85 85">
  <g id="_13" data-name="13" transform="translate(-180 -6096)">
    <rect id="Rectángulo_402232" data-name="Rectángulo 402232" width="85" height="85" transform="translate(180 6096)" fill="#debefb"/>
    <g id="reshot-icon-table-DTQPMWRLFV" transform="translate(189.968 6105.759)">
      <path id="Trazado_877064" data-name="Trazado 877064" d="M54.729,6.371v46.67A1.29,1.29,0,0,1,53.44,54.33H5.321a1.29,1.29,0,0,1-1.289-1.289V6.371A1.29,1.29,0,0,1,5.321,5.082H53.44A1.29,1.29,0,0,1,54.729,6.371Z" transform="translate(-1.484 -1.484)" fill="#d8d6d7"/>
      <path id="Trazado_877065" data-name="Trazado 877065" d="M65.862,6.371v46.67a1.29,1.29,0,0,1-1.289,1.289H20.321a1.29,1.29,0,0,1-1.289-1.289V6.371a1.29,1.29,0,0,1,1.289-1.289H64.573A1.29,1.29,0,0,1,65.862,6.371Z" transform="translate(-12.617 -1.484)" fill="#fff"/>
      <path id="Trazado_877066" data-name="Trazado 877066" d="M54.729,42.3V80.627a1.29,1.29,0,0,1-1.289,1.289H5.321a1.29,1.29,0,0,1-1.289-1.289V42.252l.235.062H54.495Z" transform="translate(-1.484 -29.07)" fill="#a854f3"/>
      <path id="Trazado_877067" data-name="Trazado 877067" d="M65.627,42.447h-46.6V80.761a1.29,1.29,0,0,0,1.289,1.289H64.573a1.29,1.29,0,0,0,1.289-1.289V42.432Z" transform="translate(-12.617 -29.204)" fill="#f2e5fd"/>
      <path id="Trazado_877068" data-name="Trazado 877068" d="M191.145,179.528a10.568,10.568,0,0,1-8.715,10.4,10.678,10.678,0,0,1-1.851.162,10.566,10.566,0,0,1,0-21.133,10.678,10.678,0,0,1,1.851.162A10.568,10.568,0,0,1,191.145,179.528Z" transform="translate(-124.667 -123.109)" fill="#d8d6d7"/>
      <ellipse id="Elipse_11593" data-name="Elipse 11593" cx="8.715" cy="10.404" rx="8.715" ry="10.404" transform="translate(49.047 46.016)" fill="#fff"/>
      <path id="Trazado_877069" data-name="Trazado 877069" d="M195.11,185.744h-4.641V181.1a1.289,1.289,0,0,0-1.289-1.289h-1.1a1.289,1.289,0,0,0-1.289,1.289v4.641h-4.641a1.289,1.289,0,0,0-1.289,1.289v1.1a1.289,1.289,0,0,0,1.289,1.289h4.641v4.641a1.289,1.289,0,0,0,1.289,1.289h1.1a1.289,1.289,0,0,0,1.289-1.289v-4.641h4.641a1.289,1.289,0,0,0,1.289-1.289v-1.1A1.289,1.289,0,0,0,195.11,185.744Z" transform="translate(-132.721 -131.163)" fill="#00ffdf"/>
      <g id="Grupo_1100553" data-name="Grupo 1100553" transform="translate(2.032 3.082)">
        <path id="Trazado_877070" data-name="Trazado 877070" d="M53.761,45.548V4.887a1.807,1.807,0,0,0-1.8-1.8H3.837a1.807,1.807,0,0,0-1.8,1.8v46.67a1.807,1.807,0,0,0,1.8,1.8H45.261a11.081,11.081,0,1,0,8.5-7.813ZM3.063,4.887a.774.774,0,0,1,.774-.774H51.956a.774.774,0,0,1,.774.774v7.841H3.063ZM43.392,32.7V23.745H52.73V32.7H43.392Zm9.338,1.031v8.955H43.391V33.731h9.338ZM43.392,22.714V13.759H52.73v8.955ZM12.4,52.33H3.837a.774.774,0,0,1-.774-.774V43.718H12.4Zm0-9.644H3.063V33.731H12.4Zm0-9.986H3.063V23.745H12.4Zm0-9.986H3.063V13.759H12.4ZM22.388,52.33H13.433V43.718h8.955V52.33Zm0-9.644H13.433V33.731h8.955v8.955Zm0-9.986H13.433V23.745h8.955V32.7Zm0-9.986H13.433V13.759h8.955v8.955ZM32.374,52.33H23.419V43.718h8.955Zm0-9.644H23.419V33.731h8.955Zm0-9.986H23.419V23.745h8.955Zm0-9.986H23.419V13.759h8.955ZM42.36,52.33H33.406V43.718H42.36Zm0-9.644H33.406V33.731H42.36Zm0-9.986H33.406V23.745H42.36Zm0-9.986H33.406V13.759H42.36ZM43.392,52.33V43.718H52.73V45.8a11.131,11.131,0,0,0-7.116,6.526H43.392ZM55.911,66.47A10.051,10.051,0,1,1,65.961,56.419,10.062,10.062,0,0,1,55.911,66.47Z" transform="translate(-2.032 -3.082)"/>
        <path id="Trazado_877071" data-name="Trazado 877071" d="M193.626,183.744H189.5v-4.126a1.807,1.807,0,0,0-1.8-1.8h-1.1a1.807,1.807,0,0,0-1.8,1.8v4.126h-4.126a1.807,1.807,0,0,0-1.8,1.8v1.1a1.807,1.807,0,0,0,1.8,1.8h4.126v4.126a1.807,1.807,0,0,0,1.8,1.8h1.1a1.807,1.807,0,0,0,1.8-1.8V188.45h4.126a1.807,1.807,0,0,0,1.8-1.8v-1.1A1.807,1.807,0,0,0,193.626,183.744Zm.774,2.9a.774.774,0,0,1-.774.774h-4.641a.516.516,0,0,0-.516.516v4.641a.774.774,0,0,1-.774.774h-1.1a.774.774,0,0,1-.774-.774v-4.641a.516.516,0,0,0-.516-.516h-4.641a.774.774,0,0,1-.774-.774v-1.1a.774.774,0,0,1,.774-.774h4.641a.516.516,0,0,0,.516-.516v-4.641a.774.774,0,0,1,.774-.774h1.1a.774.774,0,0,1,.774.774v4.641a.516.516,0,0,0,.516.516h4.641a.774.774,0,0,1,.774.774Z" transform="translate(-133.269 -132.76)"/>
      </g>
    </g>
  </g>
</svg>
