<svg xmlns="http://www.w3.org/2000/svg" xmlns:xlink="http://www.w3.org/1999/xlink" width="820" height="217.448" viewBox="0 0 820 217.448">
  <defs>
    <clipPath id="clip-path">
      <rect id="Rectángulo_401143" data-name="Rectángulo 401143" width="820" height="217.448" fill="none"/>
    </clipPath>
  </defs>
  <g id="_14" data-name="14" transform="translate(-390 -7071)">
    <g id="Grupo_1100550" data-name="Grupo 1100550" transform="translate(390 7070.997)">
      <g id="Grupo_1100482" data-name="Grupo 1100482" transform="translate(0 0.003)" clip-path="url(#clip-path)">
        <path id="Trazado_873858" data-name="Trazado 873858" d="M805.5,217.451H14.5c-8.006,0-14.5-2.711-14.5-6.056V6.059C0,2.715,6.49,0,14.5,0H805.5C813.51,0,820,2.715,820,6.059V211.395c0,3.345-6.49,6.056-14.5,6.056" transform="translate(0 -0.003)" fill="#fff"/>
        <path id="Trazado_873859" data-name="Trazado 873859" d="M820,41.183H0V14.465A14.461,14.461,0,0,1,14.461,0H805.539A14.461,14.461,0,0,1,820,14.465Z" transform="translate(0 -0.004)" fill="#3a1d71"/>
        <path id="Trazado_873860" data-name="Trazado 873860" d="M1123.409,34.27H728.391a4.773,4.773,0,0,0-4.773,4.773v11.03a4.773,4.773,0,0,0,4.773,4.773h395.018a4.773,4.773,0,0,0,4.773-4.773V39.043a4.773,4.773,0,0,0-4.773-4.773" transform="translate(-461.322 -21.849)" fill="#fff"/>
        <path id="Trazado_873861" data-name="Trazado 873861" d="M1123.409,34.27H728.391a4.773,4.773,0,0,0-4.773,4.773v11.03a4.773,4.773,0,0,0,4.773,4.773h395.018a4.773,4.773,0,0,0,4.773-4.773V39.043A4.773,4.773,0,0,0,1123.409,34.27Z" transform="translate(-461.322 -21.849)" fill="none" stroke="#d9d9d9" stroke-miterlimit="10" stroke-width="1"/>
        <path id="Trazado_873862" data-name="Trazado 873862" d="M259.012,54.869H243.534a3.472,3.472,0,0,1-3.472-3.472V37.875a3.472,3.472,0,0,1,3.472-3.472h15.478a3.472,3.472,0,0,1,3.472,3.472V51.4a3.472,3.472,0,0,1-3.472,3.472" transform="translate(-108.062 -21.934)" fill="#fff"/>
        <rect id="Rectángulo_401133" data-name="Rectángulo 401133" width="22.422" height="20.466" rx="4" transform="translate(132 12.469)" fill="none" stroke="#d9d9d9" stroke-miterlimit="10" stroke-width="1"/>
        <path id="Trazado_873863" data-name="Trazado 873863" d="M326.394,54.869H310.916a3.472,3.472,0,0,1-3.472-3.472V37.875a3.472,3.472,0,0,1,3.472-3.472h15.478a3.472,3.472,0,0,1,3.472,3.472V51.4a3.472,3.472,0,0,1-3.472,3.472" transform="translate(-151.019 -21.934)" fill="#fff"/>
        <rect id="Rectángulo_401134" data-name="Rectángulo 401134" width="22.422" height="20.466" rx="3" transform="translate(156.425 12.469)" fill="none" stroke="#d9d9d9" stroke-miterlimit="10" stroke-width="1"/>
        <path id="Trazado_873864" data-name="Trazado 873864" d="M434.5,54.869H407.709a3.472,3.472,0,0,1-3.472-3.472V37.875a3.472,3.472,0,0,1,3.472-3.472H434.5a3.472,3.472,0,0,1,3.472,3.472V51.4a3.472,3.472,0,0,1-3.472,3.472" transform="translate(-212.727 -21.934)" fill="#fff"/>
        <rect id="Rectángulo_401135" data-name="Rectángulo 401135" width="33.733" height="20.466" rx="5" transform="translate(191.51 12.469)" fill="none" stroke="#d9d9d9" stroke-miterlimit="10" stroke-width="1"/>
        <path id="Trazado_873865" data-name="Trazado 873865" d="M2049.908,54.847h-26.933a3.491,3.491,0,0,1-3.491-3.491V37.762a3.491,3.491,0,0,1,3.491-3.491h26.933a3.491,3.491,0,0,1,3.491,3.491V51.356a3.491,3.491,0,0,1-3.491,3.491" transform="translate(-1287.466 -21.85)" fill="#fff"/>
        <rect id="Rectángulo_401136" data-name="Rectángulo 401136" width="33.914" height="20.576" rx="4" transform="translate(732.019 12.421)" fill="none" stroke="#d9d9d9" stroke-miterlimit="10" stroke-width="1"/>
        <path id="Trazado_873866" data-name="Trazado 873866" d="M2160.978,54.847h-26.933a3.491,3.491,0,0,1-3.491-3.491V37.762a3.491,3.491,0,0,1,3.491-3.491h26.933a3.491,3.491,0,0,1,3.491,3.491V51.356a3.491,3.491,0,0,1-3.491,3.491" transform="translate(-1358.275 -21.85)" fill="#fff"/>
        <rect id="Rectángulo_401137" data-name="Rectángulo 401137" width="33.915" height="20.576" rx="4" transform="translate(772.279 12.421)" fill="none" stroke="#d9d9d9" stroke-miterlimit="10" stroke-width="1"/>
        <path id="Trazado_873867" data-name="Trazado 873867" d="M268.3,50.391l-4.74,4.486,4.74,4.486" transform="translate(-123.045 -32.127)" fill="none" stroke="#575757" stroke-linecap="round" stroke-linejoin="round" stroke-width="2"/>
        <path id="Trazado_873868" data-name="Trazado 873868" d="M332.731,50.391l4.74,4.486-4.74,4.486" transform="translate(-167.14 -32.127)" fill="none" stroke="#c2c2c2" stroke-linecap="round" stroke-linejoin="round" stroke-width="2"/>
        <rect id="Rectángulo_401138" data-name="Rectángulo 401138" width="12.572" height="9.935" transform="translate(201.997 17.969)" fill="none" stroke="#575757" stroke-miterlimit="10" stroke-width="1"/>
        <line id="Línea_553" data-name="Línea 553" y2="9.624" transform="translate(206.453 17.969)" fill="none" stroke="#575757" stroke-miterlimit="10" stroke-width="1"/>
        <path id="Trazado_873869" data-name="Trazado 873869" d="M1803.144,50.657a4.7,4.7,0,1,0,4.7,4.7" transform="translate(-1146.545 -32.296)" fill="none" stroke="#7c7c7c" stroke-miterlimit="10" stroke-width="1"/>
        <path id="Trazado_873870" data-name="Trazado 873870" d="M1809.361,48.954v-4.7l3.512,2.351Z" transform="translate(-1153.507 -28.213)" fill="#7c7c7c"/>
        <path id="Trazado_873871" data-name="Trazado 873871" d="M2059.657,56.252h3.136v8.01h-9.154v-8.01h3.312" transform="translate(-1309.24 -35.863)" fill="none" stroke="#575757" stroke-miterlimit="10" stroke-width="1"/>
        <rect id="Rectángulo_401142" data-name="Rectángulo 401142" width="7.178" height="7.196" transform="translate(784.825 20.389)" fill="none" stroke="#575757" stroke-miterlimit="10" stroke-width="1"/>
        <line id="Línea_554" data-name="Línea 554" y2="7.768" transform="translate(749.043 16.615)" fill="none" stroke="#575757" stroke-miterlimit="10" stroke-width="1"/>
        <path id="Trazado_873872" data-name="Trazado 873872" d="M2064.493,47.412l-2.58-2.58-2.581,2.58" transform="translate(-1312.87 -28.583)" fill="none" stroke="#575757" stroke-miterlimit="10" stroke-width="1"/>
        <path id="Trazado_873873" data-name="Trazado 873873" d="M2172.905,50.041V48.718h7.119v7.2h-1.342" transform="translate(-1385.275 -31.06)" fill="none" stroke="#575757" stroke-miterlimit="10" stroke-width="1"/>
        <circle id="Elipse_11469" data-name="Elipse 11469" cx="8" cy="8" r="8" transform="translate(44 14)" fill="#fb130d"/>
        <circle id="Elipse_11470" data-name="Elipse 11470" cx="8" cy="8" r="8" transform="translate(65 14)" fill="#fecd02"/>
        <circle id="Elipse_11471" data-name="Elipse 11471" cx="8" cy="8" r="8" transform="translate(86 14)" fill="#43dfaa"/>
      </g>
    </g>
    <path id="Trazado_878644" data-name="Trazado 878644" d="M9.633-10.836l.242,3.6H9.633A4.533,4.533,0,0,0,8.25-9.562a3.368,3.368,0,0,0-2.156-.711,3.509,3.509,0,0,0-1.906.535,3.54,3.54,0,0,0-1.34,1.707,7.6,7.6,0,0,0-.488,2.914A6.188,6.188,0,0,0,2.82-2.625,3.454,3.454,0,0,0,4.207-1.008,3.988,3.988,0,0,0,6.32-.445a3.666,3.666,0,0,0,1.82-.441A6,6,0,0,0,9.875-2.641l.242.156A5.562,5.562,0,0,1,8.258-.414,4.706,4.706,0,0,1,5.734.242,4.776,4.776,0,0,1,1.656-1.711,5.584,5.584,0,0,1,.578-5.133a6.077,6.077,0,0,1,.711-2.914,5.144,5.144,0,0,1,1.957-2.059,5.288,5.288,0,0,1,2.723-.73,4.99,4.99,0,0,1,2.266.563A1.229,1.229,0,0,0,8.7-10.1a.516.516,0,0,0,.367-.148,1.217,1.217,0,0,0,.289-.586Zm5.594,9.8a11.8,11.8,0,0,1-1.383.984,2.113,2.113,0,0,1-.9.2,1.61,1.61,0,0,1-1.223-.508,1.864,1.864,0,0,1-.48-1.336,1.7,1.7,0,0,1,.234-.906,3.1,3.1,0,0,1,1.113-1,17.321,17.321,0,0,1,2.637-1.141v-.281a2.333,2.333,0,0,0-.34-1.469,1.227,1.227,0,0,0-.988-.4,1.11,1.11,0,0,0-.781.266.8.8,0,0,0-.3.609l.016.453a.779.779,0,0,1-.184.555.629.629,0,0,1-.48.2.608.608,0,0,1-.473-.2.8.8,0,0,1-.184-.555A1.6,1.6,0,0,1,12.2-6.8a2.969,2.969,0,0,1,1.93-.562,3.347,3.347,0,0,1,1.563.32,1.473,1.473,0,0,1,.68.758,4.27,4.27,0,0,1,.141,1.375v2.43a11.128,11.128,0,0,0,.039,1.254.526.526,0,0,0,.129.309.306.306,0,0,0,.207.078A.426.426,0,0,0,17.109-.9a4.88,4.88,0,0,0,.633-.57v.438Q16.867.141,16.07.141a.76.76,0,0,1-.609-.266A1.435,1.435,0,0,1,15.227-1.031Zm0-.508V-4.266A15.427,15.427,0,0,0,13.7-3.6a2.631,2.631,0,0,0-.883.719,1.389,1.389,0,0,0-.266.82,1.339,1.339,0,0,0,.336.934,1.018,1.018,0,0,0,.773.371A2.834,2.834,0,0,0,15.227-1.539Zm5.508-9.57v9.492a2.6,2.6,0,0,0,.1.891.692.692,0,0,0,.3.332,1.729,1.729,0,0,0,.758.113V0H18.383V-.281a1.516,1.516,0,0,0,.672-.1.677.677,0,0,0,.281-.336,2.616,2.616,0,0,0,.1-.9v-6.5a11.265,11.265,0,0,0-.055-1.488.651.651,0,0,0-.176-.379.464.464,0,0,0-.309-.1,1.459,1.459,0,0,0-.516.125l-.133-.273,2.133-.875ZM27.773-.8A3.614,3.614,0,0,1,26.75-.02a2.474,2.474,0,0,1-1.078.238,2.668,2.668,0,0,1-2.047-.98,3.642,3.642,0,0,1-.875-2.52A4.555,4.555,0,0,1,23.719-6.1a3,3,0,0,1,2.492-1.277,2.147,2.147,0,0,1,1.563.6v-1.32A10.8,10.8,0,0,0,27.715-9.6a.657.657,0,0,0-.184-.383.479.479,0,0,0-.312-.1,1.647,1.647,0,0,0-.539.125l-.1-.273,2.133-.875h.352v8.273A11.069,11.069,0,0,0,29.121-1.3a.681.681,0,0,0,.188.387.451.451,0,0,0,.3.109,1.7,1.7,0,0,0,.563-.133l.086.273L28.133.219h-.359Zm0-.547V-5.039a2.492,2.492,0,0,0-.281-.969,1.622,1.622,0,0,0-.621-.66,1.508,1.508,0,0,0-.754-.223,1.6,1.6,0,0,0-1.227.617A3.507,3.507,0,0,0,24.18-3.9a3.731,3.731,0,0,0,.688,2.418,1.971,1.971,0,0,0,1.531.84A1.9,1.9,0,0,0,27.773-1.352Zm7,.32a11.8,11.8,0,0,1-1.383.984,2.113,2.113,0,0,1-.9.2A1.61,1.61,0,0,1,31.27-.359a1.864,1.864,0,0,1-.48-1.336,1.7,1.7,0,0,1,.234-.906,3.1,3.1,0,0,1,1.113-1,17.321,17.321,0,0,1,2.637-1.141v-.281a2.333,2.333,0,0,0-.34-1.469,1.227,1.227,0,0,0-.988-.4,1.11,1.11,0,0,0-.781.266.8.8,0,0,0-.3.609l.016.453a.779.779,0,0,1-.184.555.629.629,0,0,1-.48.2.608.608,0,0,1-.473-.2.8.8,0,0,1-.184-.555A1.6,1.6,0,0,1,31.75-6.8a2.969,2.969,0,0,1,1.93-.562,3.347,3.347,0,0,1,1.563.32,1.473,1.473,0,0,1,.68.758,4.27,4.27,0,0,1,.141,1.375v2.43A11.128,11.128,0,0,0,36.1-1.23a.526.526,0,0,0,.129.309.306.306,0,0,0,.207.078A.426.426,0,0,0,36.656-.9a4.88,4.88,0,0,0,.633-.57v.438Q36.414.141,35.617.141a.76.76,0,0,1-.609-.266A1.435,1.435,0,0,1,34.773-1.031Zm0-.508V-4.266A15.427,15.427,0,0,0,33.25-3.6a2.631,2.631,0,0,0-.883.719,1.389,1.389,0,0,0-.266.82,1.339,1.339,0,0,0,.336.934,1.018,1.018,0,0,0,.773.371A2.834,2.834,0,0,0,34.773-1.539ZM48.953-10.3v-.289H52.7v.289h-.4a1.076,1.076,0,0,0-.961.523,2.39,2.39,0,0,0-.164,1.125v4.3a7.594,7.594,0,0,1-.316,2.473A3.1,3.1,0,0,1,49.621-.379,4.426,4.426,0,0,1,47.1.25a4.744,4.744,0,0,1-2.633-.6A3.258,3.258,0,0,1,43.2-1.969a8.977,8.977,0,0,1-.25-2.609V-8.719A2.075,2.075,0,0,0,42.676-10a1.109,1.109,0,0,0-.871-.3h-.4v-.289h4.578v.289h-.406a1.05,1.05,0,0,0-.937.414,2.313,2.313,0,0,0-.2,1.172V-4.1a10.176,10.176,0,0,0,.113,1.414,3.01,3.01,0,0,0,.41,1.242,2.231,2.231,0,0,0,.855.734A2.958,2.958,0,0,0,47.2-.422a3.781,3.781,0,0,0,1.859-.453,2.428,2.428,0,0,0,1.121-1.16,6.72,6.72,0,0,0,.3-2.395V-8.719a2.187,2.187,0,0,0-.219-1.242,1.148,1.148,0,0,0-.906-.344Zm6.508,4.453a3.378,3.378,0,0,1,2.4-1.516,1.722,1.722,0,0,1,1.008.293,1.963,1.963,0,0,1,.672.965,4.463,4.463,0,0,1,.172,1.438v3.055A2.574,2.574,0,0,0,59.82-.7a.642.642,0,0,0,.277.3,1.572,1.572,0,0,0,.707.109V0H57.266V-.281h.148a1.191,1.191,0,0,0,.7-.152.8.8,0,0,0,.277-.449,4.565,4.565,0,0,0,.031-.734v-2.93a2.975,2.975,0,0,0-.254-1.418.907.907,0,0,0-.855-.441,2.576,2.576,0,0,0-1.852,1.016v3.773a2.7,2.7,0,0,0,.086.9.723.723,0,0,0,.3.332,1.862,1.862,0,0,0,.777.105V0H53.086V-.281h.156a.841.841,0,0,0,.738-.277,2.023,2.023,0,0,0,.191-1.059V-4.273a11.545,11.545,0,0,0-.059-1.57.673.673,0,0,0-.18-.383.488.488,0,0,0-.324-.1,1.5,1.5,0,0,0-.523.117l-.117-.281,2.156-.875h.336Zm9.414-1.516a3.171,3.171,0,0,1,2.609,1.234,3.79,3.79,0,0,1,.836,2.422,4.561,4.561,0,0,1-.461,1.945A3.363,3.363,0,0,1,66.59-.281a3.356,3.356,0,0,1-1.8.5,3.032,3.032,0,0,1-2.57-1.289,3.994,3.994,0,0,1-.8-2.437A4.325,4.325,0,0,1,61.9-5.465,3.335,3.335,0,0,1,63.188-6.9,3.3,3.3,0,0,1,64.875-7.367Zm-.242.508a1.629,1.629,0,0,0-.832.246,1.725,1.725,0,0,0-.676.863,4.154,4.154,0,0,0-.258,1.586,5.525,5.525,0,0,0,.621,2.7A1.849,1.849,0,0,0,65.125-.336a1.525,1.525,0,0,0,1.25-.625,3.553,3.553,0,0,0,.492-2.148,4.9,4.9,0,0,0-.82-3A1.69,1.69,0,0,0,64.633-6.859Z" transform="translate(438 7162)" fill="#12263f"/>
    <path id="Trazado_878645" data-name="Trazado 878645" d="M9.633-10.836l.242,3.6H9.633A4.533,4.533,0,0,0,8.25-9.562a3.368,3.368,0,0,0-2.156-.711,3.509,3.509,0,0,0-1.906.535,3.54,3.54,0,0,0-1.34,1.707,7.6,7.6,0,0,0-.488,2.914A6.188,6.188,0,0,0,2.82-2.625,3.454,3.454,0,0,0,4.207-1.008,3.988,3.988,0,0,0,6.32-.445a3.666,3.666,0,0,0,1.82-.441A6,6,0,0,0,9.875-2.641l.242.156A5.562,5.562,0,0,1,8.258-.414,4.706,4.706,0,0,1,5.734.242,4.776,4.776,0,0,1,1.656-1.711,5.584,5.584,0,0,1,.578-5.133a6.077,6.077,0,0,1,.711-2.914,5.144,5.144,0,0,1,1.957-2.059,5.288,5.288,0,0,1,2.723-.73,4.99,4.99,0,0,1,2.266.563A1.229,1.229,0,0,0,8.7-10.1a.516.516,0,0,0,.367-.148,1.217,1.217,0,0,0,.289-.586Zm5.594,9.8a11.8,11.8,0,0,1-1.383.984,2.113,2.113,0,0,1-.9.2,1.61,1.61,0,0,1-1.223-.508,1.864,1.864,0,0,1-.48-1.336,1.7,1.7,0,0,1,.234-.906,3.1,3.1,0,0,1,1.113-1,17.321,17.321,0,0,1,2.637-1.141v-.281a2.333,2.333,0,0,0-.34-1.469,1.227,1.227,0,0,0-.988-.4,1.11,1.11,0,0,0-.781.266.8.8,0,0,0-.3.609l.016.453a.779.779,0,0,1-.184.555.629.629,0,0,1-.48.2.608.608,0,0,1-.473-.2.8.8,0,0,1-.184-.555A1.6,1.6,0,0,1,12.2-6.8a2.969,2.969,0,0,1,1.93-.562,3.347,3.347,0,0,1,1.563.32,1.473,1.473,0,0,1,.68.758,4.27,4.27,0,0,1,.141,1.375v2.43a11.128,11.128,0,0,0,.039,1.254.526.526,0,0,0,.129.309.306.306,0,0,0,.207.078A.426.426,0,0,0,17.109-.9a4.88,4.88,0,0,0,.633-.57v.438Q16.867.141,16.07.141a.76.76,0,0,1-.609-.266A1.435,1.435,0,0,1,15.227-1.031Zm0-.508V-4.266A15.427,15.427,0,0,0,13.7-3.6a2.631,2.631,0,0,0-.883.719,1.389,1.389,0,0,0-.266.82,1.339,1.339,0,0,0,.336.934,1.018,1.018,0,0,0,.773.371A2.834,2.834,0,0,0,15.227-1.539Zm5.508-9.57v9.492a2.6,2.6,0,0,0,.1.891.692.692,0,0,0,.3.332,1.729,1.729,0,0,0,.758.113V0H18.383V-.281a1.516,1.516,0,0,0,.672-.1.677.677,0,0,0,.281-.336,2.616,2.616,0,0,0,.1-.9v-6.5a11.265,11.265,0,0,0-.055-1.488.651.651,0,0,0-.176-.379.464.464,0,0,0-.309-.1,1.459,1.459,0,0,0-.516.125l-.133-.273,2.133-.875ZM27.773-.8A3.614,3.614,0,0,1,26.75-.02a2.474,2.474,0,0,1-1.078.238,2.668,2.668,0,0,1-2.047-.98,3.642,3.642,0,0,1-.875-2.52A4.555,4.555,0,0,1,23.719-6.1a3,3,0,0,1,2.492-1.277,2.147,2.147,0,0,1,1.563.6v-1.32A10.8,10.8,0,0,0,27.715-9.6a.657.657,0,0,0-.184-.383.479.479,0,0,0-.312-.1,1.647,1.647,0,0,0-.539.125l-.1-.273,2.133-.875h.352v8.273A11.069,11.069,0,0,0,29.121-1.3a.681.681,0,0,0,.188.387.451.451,0,0,0,.3.109,1.7,1.7,0,0,0,.563-.133l.086.273L28.133.219h-.359Zm0-.547V-5.039a2.492,2.492,0,0,0-.281-.969,1.622,1.622,0,0,0-.621-.66,1.508,1.508,0,0,0-.754-.223,1.6,1.6,0,0,0-1.227.617A3.507,3.507,0,0,0,24.18-3.9a3.731,3.731,0,0,0,.688,2.418,1.971,1.971,0,0,0,1.531.84A1.9,1.9,0,0,0,27.773-1.352Zm7,.32a11.8,11.8,0,0,1-1.383.984,2.113,2.113,0,0,1-.9.2A1.61,1.61,0,0,1,31.27-.359a1.864,1.864,0,0,1-.48-1.336,1.7,1.7,0,0,1,.234-.906,3.1,3.1,0,0,1,1.113-1,17.321,17.321,0,0,1,2.637-1.141v-.281a2.333,2.333,0,0,0-.34-1.469,1.227,1.227,0,0,0-.988-.4,1.11,1.11,0,0,0-.781.266.8.8,0,0,0-.3.609l.016.453a.779.779,0,0,1-.184.555.629.629,0,0,1-.48.2.608.608,0,0,1-.473-.2.8.8,0,0,1-.184-.555A1.6,1.6,0,0,1,31.75-6.8a2.969,2.969,0,0,1,1.93-.562,3.347,3.347,0,0,1,1.563.32,1.473,1.473,0,0,1,.68.758,4.27,4.27,0,0,1,.141,1.375v2.43A11.128,11.128,0,0,0,36.1-1.23a.526.526,0,0,0,.129.309.306.306,0,0,0,.207.078A.426.426,0,0,0,36.656-.9a4.88,4.88,0,0,0,.633-.57v.438Q36.414.141,35.617.141a.76.76,0,0,1-.609-.266A1.435,1.435,0,0,1,34.773-1.031Zm0-.508V-4.266A15.427,15.427,0,0,0,33.25-3.6a2.631,2.631,0,0,0-.883.719,1.389,1.389,0,0,0-.266.82,1.339,1.339,0,0,0,.336.934,1.018,1.018,0,0,0,.773.371A2.834,2.834,0,0,0,34.773-1.539ZM41.594,0V-.289h.4a1.052,1.052,0,0,0,.953-.43,2.449,2.449,0,0,0,.172-1.156V-8.719A2.187,2.187,0,0,0,42.9-9.961a1.148,1.148,0,0,0-.906-.344h-.4v-.289h4.313a9.418,9.418,0,0,1,3.613.539,4.3,4.3,0,0,1,1.992,1.8,5.543,5.543,0,0,1,.754,2.906,5.3,5.3,0,0,1-1.344,3.7A5.911,5.911,0,0,1,46.328,0Zm3.023-.766a7.979,7.979,0,0,0,1.664.219A3.951,3.951,0,0,0,49.289-1.82a4.843,4.843,0,0,0,1.2-3.453,4.837,4.837,0,0,0-1.2-3.461A4.035,4.035,0,0,0,46.219-10a6.634,6.634,0,0,0-1.6.227Zm12.258-6.6a3.171,3.171,0,0,1,2.609,1.234,3.79,3.79,0,0,1,.836,2.422,4.561,4.561,0,0,1-.461,1.945A3.363,3.363,0,0,1,58.59-.281a3.356,3.356,0,0,1-1.8.5,3.032,3.032,0,0,1-2.57-1.289,3.994,3.994,0,0,1-.8-2.437A4.325,4.325,0,0,1,53.9-5.465,3.335,3.335,0,0,1,55.188-6.9,3.3,3.3,0,0,1,56.875-7.367Zm-.242.508a1.629,1.629,0,0,0-.832.246,1.725,1.725,0,0,0-.676.863,4.154,4.154,0,0,0-.258,1.586,5.525,5.525,0,0,0,.621,2.7A1.849,1.849,0,0,0,57.125-.336a1.525,1.525,0,0,0,1.25-.625,3.553,3.553,0,0,0,.492-2.148,4.9,4.9,0,0,0-.82-3A1.69,1.69,0,0,0,56.633-6.859ZM66-7.367V-4.93h-.258a3.167,3.167,0,0,0-.762-1.562A1.713,1.713,0,0,0,63.8-6.906a1.306,1.306,0,0,0-.883.289.839.839,0,0,0-.336.641,1.163,1.163,0,0,0,.25.75,2.78,2.78,0,0,0,.984.68l1.141.555a2.318,2.318,0,0,1,1.586,2.039A1.926,1.926,0,0,1,65.8-.379a2.56,2.56,0,0,1-1.652.6,5.683,5.683,0,0,1-1.5-.234,1.524,1.524,0,0,0-.422-.078.311.311,0,0,0-.281.2h-.258V-2.445h.258A2.908,2.908,0,0,0,62.781-.8a2.017,2.017,0,0,0,1.383.555,1.238,1.238,0,0,0,.879-.316,1,1,0,0,0,.34-.762A1.212,1.212,0,0,0,65-2.227a6.618,6.618,0,0,0-1.512-.93,4.479,4.479,0,0,1-1.484-1.016A1.76,1.76,0,0,1,61.656-5.3a1.984,1.984,0,0,1,.605-1.477,2.142,2.142,0,0,1,1.566-.594,3.681,3.681,0,0,1,1.023.18,2.417,2.417,0,0,0,.531.117.311.311,0,0,0,.2-.055.75.75,0,0,0,.164-.242Z" transform="translate(535 7162)" fill="#12263f"/>
    <path id="Trazado_878646" data-name="Trazado 878646" d="M.1-7.156h3v.289a.974.974,0,0,0-.543.148.431.431,0,0,0-.129.336,1.68,1.68,0,0,0,.133.586L4.094-1.68,5.633-5.031,5.227-6.086a1.258,1.258,0,0,0-.492-.648,1.437,1.437,0,0,0-.641-.133v-.289H7.5v.289a1.443,1.443,0,0,0-.8.2.48.48,0,0,0-.156.4.9.9,0,0,0,.063.32L8.234-1.836,9.742-5.8A2.07,2.07,0,0,0,9.9-6.469a.334.334,0,0,0-.152-.266,1.121,1.121,0,0,0-.6-.133v-.289h2.258v.289a1.288,1.288,0,0,0-1,.922L8.016.219H7.7L5.906-4.352,3.82.219H3.531L1.234-5.8a2.157,2.157,0,0,0-.445-.77,1.485,1.485,0,0,0-.687-.3Zm11.555,0h3v.289a.974.974,0,0,0-.543.148.431.431,0,0,0-.129.336,1.68,1.68,0,0,0,.133.586L15.648-1.68l1.539-3.352-.406-1.055a1.258,1.258,0,0,0-.492-.648,1.437,1.437,0,0,0-.641-.133v-.289h3.406v.289a1.443,1.443,0,0,0-.8.2.48.48,0,0,0-.156.4.9.9,0,0,0,.063.32l1.625,4.109L21.3-5.8a2.07,2.07,0,0,0,.156-.672.334.334,0,0,0-.152-.266,1.121,1.121,0,0,0-.6-.133v-.289h2.258v.289a1.288,1.288,0,0,0-1,.922L19.57.219h-.32l-1.789-4.57L15.375.219h-.289L12.789-5.8a2.157,2.157,0,0,0-.445-.77,1.485,1.485,0,0,0-.687-.3Zm11.555,0h3v.289a.974.974,0,0,0-.543.148.431.431,0,0,0-.129.336,1.68,1.68,0,0,0,.133.586L27.2-1.68l1.539-3.352-.406-1.055a1.258,1.258,0,0,0-.492-.648,1.437,1.437,0,0,0-.641-.133v-.289h3.406v.289a1.443,1.443,0,0,0-.8.2.48.48,0,0,0-.156.4.9.9,0,0,0,.063.32l1.625,4.109L32.852-5.8a2.07,2.07,0,0,0,.156-.672.334.334,0,0,0-.152-.266,1.121,1.121,0,0,0-.6-.133v-.289h2.258v.289a1.288,1.288,0,0,0-1,.922L31.125.219H30.8l-1.789-4.57L26.93.219h-.289L24.344-5.8a2.157,2.157,0,0,0-.445-.77,1.485,1.485,0,0,0-.687-.3ZM35.625-1.516a.832.832,0,0,1,.617.254.842.842,0,0,1,.25.613.836.836,0,0,1-.254.613.836.836,0,0,1-.613.254.836.836,0,0,1-.613-.254.836.836,0,0,1-.254-.613.832.832,0,0,1,.254-.617A.842.842,0,0,1,35.625-1.516Zm4.414-1.094A2.363,2.363,0,0,1,39.031-3.5a2.384,2.384,0,0,1-.352-1.27,2.442,2.442,0,0,1,.8-1.828,2.846,2.846,0,0,1,2.051-.766,3.122,3.122,0,0,1,1.773.5H44.82a1.993,1.993,0,0,1,.391.02.133.133,0,0,1,.078.066.479.479,0,0,1,.047.25.7.7,0,0,1-.039.281.161.161,0,0,1-.082.063,1.728,1.728,0,0,1-.395.023h-.93a2.272,2.272,0,0,1,.438,1.438,2.252,2.252,0,0,1-.766,1.711,2.9,2.9,0,0,1-2.055.711,3.994,3.994,0,0,1-1.086-.156,2.057,2.057,0,0,0-.465.52.831.831,0,0,0-.121.379.362.362,0,0,0,.129.258.945.945,0,0,0,.5.18q.219.031,1.094.055,1.609.039,2.086.109a1.961,1.961,0,0,1,1.16.539A1.472,1.472,0,0,1,45.242.656a2.259,2.259,0,0,1-.828,1.656,4.466,4.466,0,0,1-3.18,1.141,4.553,4.553,0,0,1-2.547-.68q-.586-.391-.586-.812a.893.893,0,0,1,.086-.375,4.368,4.368,0,0,1,.547-.8q.055-.07.8-.844A2.466,2.466,0,0,1,38.957-.5a.64.64,0,0,1-.168-.434,1.286,1.286,0,0,1,.223-.641A5.129,5.129,0,0,1,40.039-2.609ZM41.4-6.992a1.22,1.22,0,0,0-.969.461,2.152,2.152,0,0,0-.391,1.414A3.043,3.043,0,0,0,40.57-3.2a1.259,1.259,0,0,0,1.031.516,1.231,1.231,0,0,0,.977-.445,2.116,2.116,0,0,0,.383-1.4,3.129,3.129,0,0,0-.539-1.945A1.238,1.238,0,0,0,41.4-6.992ZM39.961,0a3.849,3.849,0,0,0-.555.742,1.338,1.338,0,0,0-.187.633.791.791,0,0,0,.453.656,4.316,4.316,0,0,0,2.258.484A3.492,3.492,0,0,0,44,2.02,1.363,1.363,0,0,0,44.672.961a.592.592,0,0,0-.4-.578,5.219,5.219,0,0,0-1.609-.2A25.717,25.717,0,0,1,39.961,0Zm9.664-7.367a3.171,3.171,0,0,1,2.609,1.234,3.79,3.79,0,0,1,.836,2.422,4.561,4.561,0,0,1-.461,1.945A3.363,3.363,0,0,1,51.34-.281a3.356,3.356,0,0,1-1.8.5,3.032,3.032,0,0,1-2.57-1.289,3.994,3.994,0,0,1-.8-2.437,4.325,4.325,0,0,1,.488-1.957A3.335,3.335,0,0,1,47.938-6.9,3.3,3.3,0,0,1,49.625-7.367Zm-.242.508a1.629,1.629,0,0,0-.832.246,1.725,1.725,0,0,0-.676.863,4.154,4.154,0,0,0-.258,1.586,5.525,5.525,0,0,0,.621,2.7A1.849,1.849,0,0,0,49.875-.336a1.525,1.525,0,0,0,1.25-.625,3.553,3.553,0,0,0,.492-2.148,4.9,4.9,0,0,0-.82-3A1.69,1.69,0,0,0,49.383-6.859Zm8.242-.508a3.171,3.171,0,0,1,2.609,1.234,3.79,3.79,0,0,1,.836,2.422,4.561,4.561,0,0,1-.461,1.945A3.363,3.363,0,0,1,59.34-.281a3.356,3.356,0,0,1-1.8.5,3.032,3.032,0,0,1-2.57-1.289,3.994,3.994,0,0,1-.8-2.437,4.325,4.325,0,0,1,.488-1.957A3.335,3.335,0,0,1,55.938-6.9,3.3,3.3,0,0,1,57.625-7.367Zm-.242.508a1.629,1.629,0,0,0-.832.246,1.725,1.725,0,0,0-.676.863,4.154,4.154,0,0,0-.258,1.586,5.525,5.525,0,0,0,.621,2.7A1.849,1.849,0,0,0,57.875-.336a1.525,1.525,0,0,0,1.25-.625,3.553,3.553,0,0,0,.492-2.148,4.9,4.9,0,0,0-.82-3A1.69,1.69,0,0,0,57.383-6.859Zm6.656,4.25A2.363,2.363,0,0,1,63.031-3.5a2.384,2.384,0,0,1-.352-1.27,2.442,2.442,0,0,1,.8-1.828,2.846,2.846,0,0,1,2.051-.766,3.122,3.122,0,0,1,1.773.5H68.82a1.993,1.993,0,0,1,.391.02.133.133,0,0,1,.078.066.479.479,0,0,1,.047.25.7.7,0,0,1-.039.281.161.161,0,0,1-.082.063,1.728,1.728,0,0,1-.395.023h-.93a2.272,2.272,0,0,1,.438,1.438,2.252,2.252,0,0,1-.766,1.711,2.9,2.9,0,0,1-2.055.711,3.994,3.994,0,0,1-1.086-.156,2.057,2.057,0,0,0-.465.52.831.831,0,0,0-.121.379.362.362,0,0,0,.129.258.945.945,0,0,0,.5.18q.219.031,1.094.055,1.609.039,2.086.109a1.961,1.961,0,0,1,1.16.539A1.472,1.472,0,0,1,69.242.656a2.259,2.259,0,0,1-.828,1.656,4.466,4.466,0,0,1-3.18,1.141,4.553,4.553,0,0,1-2.547-.68q-.586-.391-.586-.812a.893.893,0,0,1,.086-.375,4.368,4.368,0,0,1,.547-.8q.055-.07.8-.844A2.466,2.466,0,0,1,62.957-.5a.64.64,0,0,1-.168-.434,1.286,1.286,0,0,1,.223-.641A5.129,5.129,0,0,1,64.039-2.609ZM65.4-6.992a1.22,1.22,0,0,0-.969.461,2.152,2.152,0,0,0-.391,1.414A3.043,3.043,0,0,0,64.57-3.2a1.259,1.259,0,0,0,1.031.516,1.231,1.231,0,0,0,.977-.445,2.116,2.116,0,0,0,.383-1.4,3.129,3.129,0,0,0-.539-1.945A1.238,1.238,0,0,0,65.4-6.992ZM63.961,0a3.849,3.849,0,0,0-.555.742,1.338,1.338,0,0,0-.187.633.791.791,0,0,0,.453.656,4.316,4.316,0,0,0,2.258.484A3.492,3.492,0,0,0,68,2.02,1.363,1.363,0,0,0,68.672.961a.592.592,0,0,0-.4-.578,5.219,5.219,0,0,0-1.609-.2A25.717,25.717,0,0,1,63.961,0Zm8.625-11.109v9.492a2.6,2.6,0,0,0,.1.891.692.692,0,0,0,.3.332,1.729,1.729,0,0,0,.758.113V0H70.234V-.281a1.516,1.516,0,0,0,.672-.1.677.677,0,0,0,.281-.336,2.616,2.616,0,0,0,.1-.9v-6.5a11.265,11.265,0,0,0-.055-1.488.651.651,0,0,0-.176-.379.464.464,0,0,0-.309-.1,1.459,1.459,0,0,0-.516.125l-.133-.273,2.133-.875Zm3.188,6.648a3.676,3.676,0,0,0,.773,2.5,2.359,2.359,0,0,0,1.836.906,1.991,1.991,0,0,0,1.223-.387,2.854,2.854,0,0,0,.871-1.324l.242.156A3.725,3.725,0,0,1,79.766-.66a2.545,2.545,0,0,1-1.977.879,2.886,2.886,0,0,1-2.207-1,3.846,3.846,0,0,1-.918-2.7,4.081,4.081,0,0,1,.941-2.863,3.07,3.07,0,0,1,2.363-1.027,2.642,2.642,0,0,1,1.977.793,2.907,2.907,0,0,1,.773,2.121Zm0-.453h3.313a3.062,3.062,0,0,0-.164-.969,1.551,1.551,0,0,0-.582-.687,1.467,1.467,0,0,0-.809-.25,1.612,1.612,0,0,0-1.16.5A2.187,2.187,0,0,0,75.773-4.914Zm7.4,3.4a.832.832,0,0,1,.617.254.842.842,0,0,1,.25.613.836.836,0,0,1-.254.613.836.836,0,0,1-.613.254.836.836,0,0,1-.613-.254A.836.836,0,0,1,82.3-.648a.832.832,0,0,1,.254-.617A.842.842,0,0,1,83.172-1.516Zm8.578-1.2A3.876,3.876,0,0,1,90.617-.543,2.724,2.724,0,0,1,88.75.219,2.759,2.759,0,0,1,86.625-.8a4.022,4.022,0,0,1-.906-2.766,3.814,3.814,0,0,1,1-2.742,3.21,3.21,0,0,1,2.41-1.055,2.642,2.642,0,0,1,1.734.559,1.545,1.545,0,0,1,.68,1.16.636.636,0,0,1-.191.48.742.742,0,0,1-.535.184.832.832,0,0,1-.7-.3,1.234,1.234,0,0,1-.176-.625,1.024,1.024,0,0,0-.316-.7,1.128,1.128,0,0,0-.758-.234,1.55,1.55,0,0,0-1.258.578,3.075,3.075,0,0,0-.633,2.023,4.1,4.1,0,0,0,.629,2.262,1.931,1.931,0,0,0,1.7.98,2.054,2.054,0,0,0,1.375-.523,3.533,3.533,0,0,0,.836-1.3Zm4.523-4.648a3.171,3.171,0,0,1,2.609,1.234,3.79,3.79,0,0,1,.836,2.422,4.561,4.561,0,0,1-.461,1.945,3.363,3.363,0,0,1-1.27,1.484,3.356,3.356,0,0,1-1.8.5,3.032,3.032,0,0,1-2.57-1.289,3.994,3.994,0,0,1-.8-2.437A4.325,4.325,0,0,1,93.3-5.465,3.335,3.335,0,0,1,94.586-6.9,3.3,3.3,0,0,1,96.273-7.367Zm-.242.508a1.629,1.629,0,0,0-.832.246,1.725,1.725,0,0,0-.676.863,4.154,4.154,0,0,0-.258,1.586,5.525,5.525,0,0,0,.621,2.7A1.849,1.849,0,0,0,96.523-.336a1.525,1.525,0,0,0,1.25-.625,3.553,3.553,0,0,0,.492-2.148,4.9,4.9,0,0,0-.82-3A1.69,1.69,0,0,0,96.031-6.859ZM102.9-5.844q.781-.781.922-.9a2.79,2.79,0,0,1,.758-.461,2.137,2.137,0,0,1,.8-.164,1.785,1.785,0,0,1,1.156.391,1.933,1.933,0,0,1,.648,1.133,5.308,5.308,0,0,1,1.359-1.23,2.414,2.414,0,0,1,1.141-.293,1.787,1.787,0,0,1,1.012.293,1.947,1.947,0,0,1,.7.957A4.312,4.312,0,0,1,111.57-4.7v3.078a2.8,2.8,0,0,0,.1.922.664.664,0,0,0,.289.293,1.452,1.452,0,0,0,.688.121V0h-3.531V-.281h.148a1.243,1.243,0,0,0,.719-.18.7.7,0,0,0,.258-.4,5.008,5.008,0,0,0,.031-.758V-4.7a2.6,2.6,0,0,0-.211-1.234,1.058,1.058,0,0,0-.977-.5,1.861,1.861,0,0,0-.832.207,4.511,4.511,0,0,0-1.012.77l-.016.086.016.336v3.414a2.944,2.944,0,0,0,.082.914.665.665,0,0,0,.309.3,1.768,1.768,0,0,0,.773.121V0h-3.617V-.281a1.657,1.657,0,0,0,.816-.141.73.73,0,0,0,.309-.422,4.157,4.157,0,0,0,.039-.773V-4.7a2.326,2.326,0,0,0-.258-1.258,1.1,1.1,0,0,0-.961-.5,1.725,1.725,0,0,0-.836.227,3.216,3.216,0,0,0-1,.773v3.836A2.658,2.658,0,0,0,103-.7a.672.672,0,0,0,.289.316,1.862,1.862,0,0,0,.777.105V0h-3.539V-.281a1.576,1.576,0,0,0,.688-.105.675.675,0,0,0,.3-.336,2.579,2.579,0,0,0,.1-.895V-4.352a9.911,9.911,0,0,0-.07-1.523.622.622,0,0,0-.172-.355.485.485,0,0,0-.32-.1,1.5,1.5,0,0,0-.523.117l-.117-.281,2.156-.875h.336ZM0,2H37.1V3H0ZM45.711,2H61.1V3H45.711Zm24,0h43.008V3H69.711Z" transform="translate(627 7162)" fill="#0b47db"/>
    <path id="Trazado_878647" data-name="Trazado 878647" d="M9.633-10.836l.242,3.6H9.633A4.533,4.533,0,0,0,8.25-9.562a3.368,3.368,0,0,0-2.156-.711,3.509,3.509,0,0,0-1.906.535,3.54,3.54,0,0,0-1.34,1.707,7.6,7.6,0,0,0-.488,2.914A6.188,6.188,0,0,0,2.82-2.625,3.454,3.454,0,0,0,4.207-1.008,3.988,3.988,0,0,0,6.32-.445a3.666,3.666,0,0,0,1.82-.441A6,6,0,0,0,9.875-2.641l.242.156A5.562,5.562,0,0,1,8.258-.414,4.706,4.706,0,0,1,5.734.242,4.776,4.776,0,0,1,1.656-1.711,5.584,5.584,0,0,1,.578-5.133a6.077,6.077,0,0,1,.711-2.914,5.144,5.144,0,0,1,1.957-2.059,5.288,5.288,0,0,1,2.723-.73,4.99,4.99,0,0,1,2.266.563A1.229,1.229,0,0,0,8.7-10.1a.516.516,0,0,0,.367-.148,1.217,1.217,0,0,0,.289-.586Zm5.594,9.8a11.8,11.8,0,0,1-1.383.984,2.113,2.113,0,0,1-.9.2,1.61,1.61,0,0,1-1.223-.508,1.864,1.864,0,0,1-.48-1.336,1.7,1.7,0,0,1,.234-.906,3.1,3.1,0,0,1,1.113-1,17.321,17.321,0,0,1,2.637-1.141v-.281a2.333,2.333,0,0,0-.34-1.469,1.227,1.227,0,0,0-.988-.4,1.11,1.11,0,0,0-.781.266.8.8,0,0,0-.3.609l.016.453a.779.779,0,0,1-.184.555.629.629,0,0,1-.48.2.608.608,0,0,1-.473-.2.8.8,0,0,1-.184-.555A1.6,1.6,0,0,1,12.2-6.8a2.969,2.969,0,0,1,1.93-.562,3.347,3.347,0,0,1,1.563.32,1.473,1.473,0,0,1,.68.758,4.27,4.27,0,0,1,.141,1.375v2.43a11.128,11.128,0,0,0,.039,1.254.526.526,0,0,0,.129.309.306.306,0,0,0,.207.078A.426.426,0,0,0,17.109-.9a4.88,4.88,0,0,0,.633-.57v.438Q16.867.141,16.07.141a.76.76,0,0,1-.609-.266A1.435,1.435,0,0,1,15.227-1.031Zm0-.508V-4.266A15.427,15.427,0,0,0,13.7-3.6a2.631,2.631,0,0,0-.883.719,1.389,1.389,0,0,0-.266.82,1.339,1.339,0,0,0,.336.934,1.018,1.018,0,0,0,.773.371A2.834,2.834,0,0,0,15.227-1.539Zm5.508-9.57v9.492a2.6,2.6,0,0,0,.1.891.692.692,0,0,0,.3.332,1.729,1.729,0,0,0,.758.113V0H18.383V-.281a1.516,1.516,0,0,0,.672-.1.677.677,0,0,0,.281-.336,2.616,2.616,0,0,0,.1-.9v-6.5a11.265,11.265,0,0,0-.055-1.488.651.651,0,0,0-.176-.379.464.464,0,0,0-.309-.1,1.459,1.459,0,0,0-.516.125l-.133-.273,2.133-.875ZM27.773-.8A3.614,3.614,0,0,1,26.75-.02a2.474,2.474,0,0,1-1.078.238,2.668,2.668,0,0,1-2.047-.98,3.642,3.642,0,0,1-.875-2.52A4.555,4.555,0,0,1,23.719-6.1a3,3,0,0,1,2.492-1.277,2.147,2.147,0,0,1,1.563.6v-1.32A10.8,10.8,0,0,0,27.715-9.6a.657.657,0,0,0-.184-.383.479.479,0,0,0-.312-.1,1.647,1.647,0,0,0-.539.125l-.1-.273,2.133-.875h.352v8.273A11.069,11.069,0,0,0,29.121-1.3a.681.681,0,0,0,.188.387.451.451,0,0,0,.3.109,1.7,1.7,0,0,0,.563-.133l.086.273L28.133.219h-.359Zm0-.547V-5.039a2.492,2.492,0,0,0-.281-.969,1.622,1.622,0,0,0-.621-.66,1.508,1.508,0,0,0-.754-.223,1.6,1.6,0,0,0-1.227.617A3.507,3.507,0,0,0,24.18-3.9a3.731,3.731,0,0,0,.688,2.418,1.971,1.971,0,0,0,1.531.84A1.9,1.9,0,0,0,27.773-1.352Zm7,.32a11.8,11.8,0,0,1-1.383.984,2.113,2.113,0,0,1-.9.2A1.61,1.61,0,0,1,31.27-.359a1.864,1.864,0,0,1-.48-1.336,1.7,1.7,0,0,1,.234-.906,3.1,3.1,0,0,1,1.113-1,17.321,17.321,0,0,1,2.637-1.141v-.281a2.333,2.333,0,0,0-.34-1.469,1.227,1.227,0,0,0-.988-.4,1.11,1.11,0,0,0-.781.266.8.8,0,0,0-.3.609l.016.453a.779.779,0,0,1-.184.555.629.629,0,0,1-.48.2.608.608,0,0,1-.473-.2.8.8,0,0,1-.184-.555A1.6,1.6,0,0,1,31.75-6.8a2.969,2.969,0,0,1,1.93-.562,3.347,3.347,0,0,1,1.563.32,1.473,1.473,0,0,1,.68.758,4.27,4.27,0,0,1,.141,1.375v2.43A11.128,11.128,0,0,0,36.1-1.23a.526.526,0,0,0,.129.309.306.306,0,0,0,.207.078A.426.426,0,0,0,36.656-.9a4.88,4.88,0,0,0,.633-.57v.438Q36.414.141,35.617.141a.76.76,0,0,1-.609-.266A1.435,1.435,0,0,1,34.773-1.031Zm0-.508V-4.266A15.427,15.427,0,0,0,33.25-3.6a2.631,2.631,0,0,0-.883.719,1.389,1.389,0,0,0-.266.82,1.339,1.339,0,0,0,.336.934,1.018,1.018,0,0,0,.773.371A2.834,2.834,0,0,0,34.773-1.539ZM43.9-9.508v2.352H45.57v.547H43.9v4.641a1.559,1.559,0,0,0,.2.938.633.633,0,0,0,.512.242.9.9,0,0,0,.5-.16,1.03,1.03,0,0,0,.375-.473h.3A2.451,2.451,0,0,1,45.016-.27a1.669,1.669,0,0,1-1.031.387,1.386,1.386,0,0,1-.7-.2,1.2,1.2,0,0,1-.508-.57A2.994,2.994,0,0,1,42.609-1.8V-6.609H41.477v-.258a2.966,2.966,0,0,0,.879-.582,4.628,4.628,0,0,0,.8-.973,8.75,8.75,0,0,0,.5-1.086Zm4.461,2.141v1.609q.9-1.609,1.844-1.609a1,1,0,0,1,.711.262A.8.8,0,0,1,51.2-6.5a.715.715,0,0,1-.2.516.649.649,0,0,1-.484.211,1.032,1.032,0,0,1-.613-.27,1.013,1.013,0,0,0-.5-.27.465.465,0,0,0-.3.156A3.759,3.759,0,0,0,48.359-5.1v3.43a2.123,2.123,0,0,0,.148.9.809.809,0,0,0,.359.352,1.579,1.579,0,0,0,.742.141V0H45.945V-.281a1.521,1.521,0,0,0,.813-.172.667.667,0,0,0,.273-.4,4.018,4.018,0,0,0,.039-.758V-4.383a11.525,11.525,0,0,0-.051-1.488.583.583,0,0,0-.187-.348.527.527,0,0,0-.34-.109,1.545,1.545,0,0,0-.547.117l-.078-.281,2.164-.875ZM52.8-4.461a3.676,3.676,0,0,0,.773,2.5,2.359,2.359,0,0,0,1.836.906,1.991,1.991,0,0,0,1.223-.387A2.854,2.854,0,0,0,57.5-2.766l.242.156A3.725,3.725,0,0,1,56.789-.66a2.545,2.545,0,0,1-1.977.879,2.886,2.886,0,0,1-2.207-1,3.846,3.846,0,0,1-.918-2.7,4.081,4.081,0,0,1,.941-2.863,3.07,3.07,0,0,1,2.363-1.027,2.642,2.642,0,0,1,1.977.793,2.907,2.907,0,0,1,.773,2.121Zm0-.453h3.313a3.062,3.062,0,0,0-.164-.969,1.551,1.551,0,0,0-.582-.687,1.467,1.467,0,0,0-.809-.25,1.612,1.612,0,0,0-1.16.5A2.187,2.187,0,0,0,52.8-4.914ZM63.32-7.367V-4.93h-.258A3.167,3.167,0,0,0,62.3-6.492a1.713,1.713,0,0,0-1.184-.414,1.306,1.306,0,0,0-.883.289.839.839,0,0,0-.336.641,1.163,1.163,0,0,0,.25.75,2.78,2.78,0,0,0,.984.68l1.141.555a2.318,2.318,0,0,1,1.586,2.039,1.926,1.926,0,0,1-.738,1.574,2.56,2.56,0,0,1-1.652.6,5.683,5.683,0,0,1-1.5-.234,1.524,1.524,0,0,0-.422-.078.311.311,0,0,0-.281.2h-.258V-2.445h.258A2.908,2.908,0,0,0,60.1-.8a2.017,2.017,0,0,0,1.383.555,1.238,1.238,0,0,0,.879-.316,1,1,0,0,0,.34-.762,1.212,1.212,0,0,0-.379-.906,6.618,6.618,0,0,0-1.512-.93,4.479,4.479,0,0,1-1.484-1.016A1.76,1.76,0,0,1,58.977-5.3a1.984,1.984,0,0,1,.605-1.477,2.142,2.142,0,0,1,1.566-.594,3.682,3.682,0,0,1,1.023.18,2.417,2.417,0,0,0,.531.117.311.311,0,0,0,.2-.055.75.75,0,0,0,.164-.242Z" transform="translate(779 7162)" fill="#12263f"/>
    <path id="Trazado_878650" data-name="Trazado 878650" d="M9.633-10.836l.242,3.6H9.633A4.533,4.533,0,0,0,8.25-9.562a3.368,3.368,0,0,0-2.156-.711,3.509,3.509,0,0,0-1.906.535,3.54,3.54,0,0,0-1.34,1.707,7.6,7.6,0,0,0-.488,2.914A6.188,6.188,0,0,0,2.82-2.625,3.454,3.454,0,0,0,4.207-1.008,3.988,3.988,0,0,0,6.32-.445a3.666,3.666,0,0,0,1.82-.441A6,6,0,0,0,9.875-2.641l.242.156A5.562,5.562,0,0,1,8.258-.414,4.706,4.706,0,0,1,5.734.242,4.776,4.776,0,0,1,1.656-1.711,5.584,5.584,0,0,1,.578-5.133a6.077,6.077,0,0,1,.711-2.914,5.144,5.144,0,0,1,1.957-2.059,5.288,5.288,0,0,1,2.723-.73,4.99,4.99,0,0,1,2.266.563A1.229,1.229,0,0,0,8.7-10.1a.516.516,0,0,0,.367-.148,1.217,1.217,0,0,0,.289-.586Zm5.594,9.8a11.8,11.8,0,0,1-1.383.984,2.113,2.113,0,0,1-.9.2,1.61,1.61,0,0,1-1.223-.508,1.864,1.864,0,0,1-.48-1.336,1.7,1.7,0,0,1,.234-.906,3.1,3.1,0,0,1,1.113-1,17.321,17.321,0,0,1,2.637-1.141v-.281a2.333,2.333,0,0,0-.34-1.469,1.227,1.227,0,0,0-.988-.4,1.11,1.11,0,0,0-.781.266.8.8,0,0,0-.3.609l.016.453a.779.779,0,0,1-.184.555.629.629,0,0,1-.48.2.608.608,0,0,1-.473-.2.8.8,0,0,1-.184-.555A1.6,1.6,0,0,1,12.2-6.8a2.969,2.969,0,0,1,1.93-.562,3.347,3.347,0,0,1,1.563.32,1.473,1.473,0,0,1,.68.758,4.27,4.27,0,0,1,.141,1.375v2.43a11.128,11.128,0,0,0,.039,1.254.526.526,0,0,0,.129.309.306.306,0,0,0,.207.078A.426.426,0,0,0,17.109-.9a4.88,4.88,0,0,0,.633-.57v.438Q16.867.141,16.07.141a.76.76,0,0,1-.609-.266A1.435,1.435,0,0,1,15.227-1.031Zm0-.508V-4.266A15.427,15.427,0,0,0,13.7-3.6a2.631,2.631,0,0,0-.883.719,1.389,1.389,0,0,0-.266.82,1.339,1.339,0,0,0,.336.934,1.018,1.018,0,0,0,.773.371A2.834,2.834,0,0,0,15.227-1.539Zm5.508-9.57v9.492a2.6,2.6,0,0,0,.1.891.692.692,0,0,0,.3.332,1.729,1.729,0,0,0,.758.113V0H18.383V-.281a1.516,1.516,0,0,0,.672-.1.677.677,0,0,0,.281-.336,2.616,2.616,0,0,0,.1-.9v-6.5a11.265,11.265,0,0,0-.055-1.488.651.651,0,0,0-.176-.379.464.464,0,0,0-.309-.1,1.459,1.459,0,0,0-.516.125l-.133-.273,2.133-.875ZM27.773-.8A3.614,3.614,0,0,1,26.75-.02a2.474,2.474,0,0,1-1.078.238,2.668,2.668,0,0,1-2.047-.98,3.642,3.642,0,0,1-.875-2.52A4.555,4.555,0,0,1,23.719-6.1a3,3,0,0,1,2.492-1.277,2.147,2.147,0,0,1,1.563.6v-1.32A10.8,10.8,0,0,0,27.715-9.6a.657.657,0,0,0-.184-.383.479.479,0,0,0-.312-.1,1.647,1.647,0,0,0-.539.125l-.1-.273,2.133-.875h.352v8.273A11.069,11.069,0,0,0,29.121-1.3a.681.681,0,0,0,.188.387.451.451,0,0,0,.3.109,1.7,1.7,0,0,0,.563-.133l.086.273L28.133.219h-.359Zm0-.547V-5.039a2.492,2.492,0,0,0-.281-.969,1.622,1.622,0,0,0-.621-.66,1.508,1.508,0,0,0-.754-.223,1.6,1.6,0,0,0-1.227.617A3.507,3.507,0,0,0,24.18-3.9a3.731,3.731,0,0,0,.688,2.418,1.971,1.971,0,0,0,1.531.84A1.9,1.9,0,0,0,27.773-1.352Zm7,.32a11.8,11.8,0,0,1-1.383.984,2.113,2.113,0,0,1-.9.2A1.61,1.61,0,0,1,31.27-.359a1.864,1.864,0,0,1-.48-1.336,1.7,1.7,0,0,1,.234-.906,3.1,3.1,0,0,1,1.113-1,17.321,17.321,0,0,1,2.637-1.141v-.281a2.333,2.333,0,0,0-.34-1.469,1.227,1.227,0,0,0-.988-.4,1.11,1.11,0,0,0-.781.266.8.8,0,0,0-.3.609l.016.453a.779.779,0,0,1-.184.555.629.629,0,0,1-.48.2.608.608,0,0,1-.473-.2.8.8,0,0,1-.184-.555A1.6,1.6,0,0,1,31.75-6.8a2.969,2.969,0,0,1,1.93-.562,3.347,3.347,0,0,1,1.563.32,1.473,1.473,0,0,1,.68.758,4.27,4.27,0,0,1,.141,1.375v2.43A11.128,11.128,0,0,0,36.1-1.23a.526.526,0,0,0,.129.309.306.306,0,0,0,.207.078A.426.426,0,0,0,36.656-.9a4.88,4.88,0,0,0,.633-.57v.438Q36.414.141,35.617.141a.76.76,0,0,1-.609-.266A1.435,1.435,0,0,1,34.773-1.031Zm0-.508V-4.266A15.427,15.427,0,0,0,33.25-3.6a2.631,2.631,0,0,0-.883.719,1.389,1.389,0,0,0-.266.82,1.339,1.339,0,0,0,.336.934,1.018,1.018,0,0,0,.773.371A2.834,2.834,0,0,0,34.773-1.539Zm16.18-9.3.242,3.6h-.242A4.533,4.533,0,0,0,49.57-9.562a3.368,3.368,0,0,0-2.156-.711,3.509,3.509,0,0,0-1.906.535,3.54,3.54,0,0,0-1.34,1.707,7.6,7.6,0,0,0-.488,2.914,6.188,6.188,0,0,0,.461,2.492,3.454,3.454,0,0,0,1.387,1.617,3.988,3.988,0,0,0,2.113.563,3.666,3.666,0,0,0,1.82-.441A6,6,0,0,0,51.2-2.641l.242.156a5.562,5.562,0,0,1-1.859,2.07,4.706,4.706,0,0,1-2.523.656,4.776,4.776,0,0,1-4.078-1.953A5.584,5.584,0,0,1,41.9-5.133a6.077,6.077,0,0,1,.711-2.914,5.144,5.144,0,0,1,1.957-2.059,5.288,5.288,0,0,1,2.723-.73,4.99,4.99,0,0,1,2.266.563,1.229,1.229,0,0,0,.469.172.516.516,0,0,0,.367-.148,1.217,1.217,0,0,0,.289-.586Zm7.813,3.68V-2.82a10.885,10.885,0,0,0,.059,1.52.681.681,0,0,0,.188.387.451.451,0,0,0,.3.109,1.391,1.391,0,0,0,.547-.133l.109.273L57.828.219h-.352V-1.3A6.519,6.519,0,0,1,56.07-.039a2.148,2.148,0,0,1-1.023.258A1.635,1.635,0,0,1,54-.129a1.8,1.8,0,0,1-.613-.895,5.407,5.407,0,0,1-.172-1.547v-3.2a1.575,1.575,0,0,0-.109-.7.728.728,0,0,0-.324-.3,1.9,1.9,0,0,0-.777-.1v-.289h2.508v4.789a1.789,1.789,0,0,0,.348,1.313,1.212,1.212,0,0,0,.84.313,1.751,1.751,0,0,0,.762-.211,4.123,4.123,0,0,0,1.012-.8V-5.812a1.148,1.148,0,0,0-.223-.824,1.443,1.443,0,0,0-.926-.23v-.289Zm5.781,6.125a11.8,11.8,0,0,1-1.383.984,2.113,2.113,0,0,1-.9.2,1.61,1.61,0,0,1-1.223-.508,1.864,1.864,0,0,1-.48-1.336A1.7,1.7,0,0,1,60.8-2.6a3.1,3.1,0,0,1,1.113-1,17.321,17.321,0,0,1,2.637-1.141v-.281a2.333,2.333,0,0,0-.34-1.469,1.227,1.227,0,0,0-.988-.4,1.11,1.11,0,0,0-.781.266.8.8,0,0,0-.3.609l.016.453a.779.779,0,0,1-.184.555.629.629,0,0,1-.48.2.608.608,0,0,1-.473-.2.8.8,0,0,1-.184-.555A1.6,1.6,0,0,1,61.523-6.8a2.969,2.969,0,0,1,1.93-.562,3.347,3.347,0,0,1,1.563.32,1.473,1.473,0,0,1,.68.758,4.27,4.27,0,0,1,.141,1.375v2.43a11.129,11.129,0,0,0,.039,1.254A.526.526,0,0,0,66-.922a.306.306,0,0,0,.207.078A.426.426,0,0,0,66.43-.9a4.88,4.88,0,0,0,.633-.57v.438Q66.187.141,65.391.141a.76.76,0,0,1-.609-.266A1.435,1.435,0,0,1,64.547-1.031Zm0-.508V-4.266a15.427,15.427,0,0,0-1.523.664,2.631,2.631,0,0,0-.883.719,1.389,1.389,0,0,0-.266.82,1.339,1.339,0,0,0,.336.934,1.018,1.018,0,0,0,.773.371A2.834,2.834,0,0,0,64.547-1.539Zm5.125-7.969v2.352h1.672v.547H69.672v4.641a1.559,1.559,0,0,0,.2.938.633.633,0,0,0,.512.242.9.9,0,0,0,.5-.16,1.03,1.03,0,0,0,.375-.473h.3A2.451,2.451,0,0,1,70.789-.27a1.669,1.669,0,0,1-1.031.387,1.386,1.386,0,0,1-.7-.2,1.2,1.2,0,0,1-.508-.57A2.994,2.994,0,0,1,68.383-1.8V-6.609H67.25v-.258a2.966,2.966,0,0,0,.879-.582,4.628,4.628,0,0,0,.8-.973,8.75,8.75,0,0,0,.5-1.086Zm4.461,2.141v1.609q.9-1.609,1.844-1.609a1,1,0,0,1,.711.262.8.8,0,0,1,.281.605.715.715,0,0,1-.2.516.649.649,0,0,1-.484.211,1.032,1.032,0,0,1-.613-.27,1.013,1.013,0,0,0-.5-.27.465.465,0,0,0-.3.156A3.759,3.759,0,0,0,74.133-5.1v3.43a2.123,2.123,0,0,0,.148.9.809.809,0,0,0,.359.352,1.579,1.579,0,0,0,.742.141V0H71.719V-.281a1.521,1.521,0,0,0,.813-.172.667.667,0,0,0,.273-.4,4.019,4.019,0,0,0,.039-.758V-4.383a11.526,11.526,0,0,0-.051-1.488.583.583,0,0,0-.187-.348.527.527,0,0,0-.34-.109,1.545,1.545,0,0,0-.547.117l-.078-.281L73.8-7.367Zm6.734,0a3.171,3.171,0,0,1,2.609,1.234,3.79,3.79,0,0,1,.836,2.422,4.561,4.561,0,0,1-.461,1.945,3.363,3.363,0,0,1-1.27,1.484,3.356,3.356,0,0,1-1.8.5,3.032,3.032,0,0,1-2.57-1.289,3.994,3.994,0,0,1-.8-2.437,4.325,4.325,0,0,1,.488-1.957A3.335,3.335,0,0,1,79.18-6.9,3.3,3.3,0,0,1,80.867-7.367Zm-.242.508a1.629,1.629,0,0,0-.832.246,1.725,1.725,0,0,0-.676.863,4.154,4.154,0,0,0-.258,1.586,5.525,5.525,0,0,0,.621,2.7A1.849,1.849,0,0,0,81.117-.336a1.525,1.525,0,0,0,1.25-.625,3.553,3.553,0,0,0,.492-2.148,4.9,4.9,0,0,0-.82-3A1.69,1.69,0,0,0,80.625-6.859Z" transform="translate(438 7197)" fill="#12263f"/>
    <path id="Trazado_878649" data-name="Trazado 878649" d="M9.633-10.836l.242,3.6H9.633A4.533,4.533,0,0,0,8.25-9.562a3.368,3.368,0,0,0-2.156-.711,3.509,3.509,0,0,0-1.906.535,3.54,3.54,0,0,0-1.34,1.707,7.6,7.6,0,0,0-.488,2.914A6.188,6.188,0,0,0,2.82-2.625,3.454,3.454,0,0,0,4.207-1.008,3.988,3.988,0,0,0,6.32-.445a3.666,3.666,0,0,0,1.82-.441A6,6,0,0,0,9.875-2.641l.242.156A5.562,5.562,0,0,1,8.258-.414,4.706,4.706,0,0,1,5.734.242,4.776,4.776,0,0,1,1.656-1.711,5.584,5.584,0,0,1,.578-5.133a6.077,6.077,0,0,1,.711-2.914,5.144,5.144,0,0,1,1.957-2.059,5.288,5.288,0,0,1,2.723-.73,4.99,4.99,0,0,1,2.266.563A1.229,1.229,0,0,0,8.7-10.1a.516.516,0,0,0,.367-.148,1.217,1.217,0,0,0,.289-.586Zm5.594,9.8a11.8,11.8,0,0,1-1.383.984,2.113,2.113,0,0,1-.9.2,1.61,1.61,0,0,1-1.223-.508,1.864,1.864,0,0,1-.48-1.336,1.7,1.7,0,0,1,.234-.906,3.1,3.1,0,0,1,1.113-1,17.321,17.321,0,0,1,2.637-1.141v-.281a2.333,2.333,0,0,0-.34-1.469,1.227,1.227,0,0,0-.988-.4,1.11,1.11,0,0,0-.781.266.8.8,0,0,0-.3.609l.016.453a.779.779,0,0,1-.184.555.629.629,0,0,1-.48.2.608.608,0,0,1-.473-.2.8.8,0,0,1-.184-.555A1.6,1.6,0,0,1,12.2-6.8a2.969,2.969,0,0,1,1.93-.562,3.347,3.347,0,0,1,1.563.32,1.473,1.473,0,0,1,.68.758,4.27,4.27,0,0,1,.141,1.375v2.43a11.128,11.128,0,0,0,.039,1.254.526.526,0,0,0,.129.309.306.306,0,0,0,.207.078A.426.426,0,0,0,17.109-.9a4.88,4.88,0,0,0,.633-.57v.438Q16.867.141,16.07.141a.76.76,0,0,1-.609-.266A1.435,1.435,0,0,1,15.227-1.031Zm0-.508V-4.266A15.427,15.427,0,0,0,13.7-3.6a2.631,2.631,0,0,0-.883.719,1.389,1.389,0,0,0-.266.82,1.339,1.339,0,0,0,.336.934,1.018,1.018,0,0,0,.773.371A2.834,2.834,0,0,0,15.227-1.539Zm5.508-9.57v9.492a2.6,2.6,0,0,0,.1.891.692.692,0,0,0,.3.332,1.729,1.729,0,0,0,.758.113V0H18.383V-.281a1.516,1.516,0,0,0,.672-.1.677.677,0,0,0,.281-.336,2.616,2.616,0,0,0,.1-.9v-6.5a11.265,11.265,0,0,0-.055-1.488.651.651,0,0,0-.176-.379.464.464,0,0,0-.309-.1,1.459,1.459,0,0,0-.516.125l-.133-.273,2.133-.875ZM27.773-.8A3.614,3.614,0,0,1,26.75-.02a2.474,2.474,0,0,1-1.078.238,2.668,2.668,0,0,1-2.047-.98,3.642,3.642,0,0,1-.875-2.52A4.555,4.555,0,0,1,23.719-6.1a3,3,0,0,1,2.492-1.277,2.147,2.147,0,0,1,1.563.6v-1.32A10.8,10.8,0,0,0,27.715-9.6a.657.657,0,0,0-.184-.383.479.479,0,0,0-.312-.1,1.647,1.647,0,0,0-.539.125l-.1-.273,2.133-.875h.352v8.273A11.069,11.069,0,0,0,29.121-1.3a.681.681,0,0,0,.188.387.451.451,0,0,0,.3.109,1.7,1.7,0,0,0,.563-.133l.086.273L28.133.219h-.359Zm0-.547V-5.039a2.492,2.492,0,0,0-.281-.969,1.622,1.622,0,0,0-.621-.66,1.508,1.508,0,0,0-.754-.223,1.6,1.6,0,0,0-1.227.617A3.507,3.507,0,0,0,24.18-3.9a3.731,3.731,0,0,0,.688,2.418,1.971,1.971,0,0,0,1.531.84A1.9,1.9,0,0,0,27.773-1.352Zm7,.32a11.8,11.8,0,0,1-1.383.984,2.113,2.113,0,0,1-.9.2A1.61,1.61,0,0,1,31.27-.359a1.864,1.864,0,0,1-.48-1.336,1.7,1.7,0,0,1,.234-.906,3.1,3.1,0,0,1,1.113-1,17.321,17.321,0,0,1,2.637-1.141v-.281a2.333,2.333,0,0,0-.34-1.469,1.227,1.227,0,0,0-.988-.4,1.11,1.11,0,0,0-.781.266.8.8,0,0,0-.3.609l.016.453a.779.779,0,0,1-.184.555.629.629,0,0,1-.48.2.608.608,0,0,1-.473-.2.8.8,0,0,1-.184-.555A1.6,1.6,0,0,1,31.75-6.8a2.969,2.969,0,0,1,1.93-.562,3.347,3.347,0,0,1,1.563.32,1.473,1.473,0,0,1,.68.758,4.27,4.27,0,0,1,.141,1.375v2.43A11.128,11.128,0,0,0,36.1-1.23a.526.526,0,0,0,.129.309.306.306,0,0,0,.207.078A.426.426,0,0,0,36.656-.9a4.88,4.88,0,0,0,.633-.57v.438Q36.414.141,35.617.141a.76.76,0,0,1-.609-.266A1.435,1.435,0,0,1,34.773-1.031Zm0-.508V-4.266A15.427,15.427,0,0,0,33.25-3.6a2.631,2.631,0,0,0-.883.719,1.389,1.389,0,0,0-.266.82,1.339,1.339,0,0,0,.336.934,1.018,1.018,0,0,0,.773.371A2.834,2.834,0,0,0,34.773-1.539Zm16.18-9.3.242,3.6h-.242A4.533,4.533,0,0,0,49.57-9.562a3.368,3.368,0,0,0-2.156-.711,3.509,3.509,0,0,0-1.906.535,3.54,3.54,0,0,0-1.34,1.707,7.6,7.6,0,0,0-.488,2.914,6.188,6.188,0,0,0,.461,2.492,3.454,3.454,0,0,0,1.387,1.617,3.988,3.988,0,0,0,2.113.563,3.666,3.666,0,0,0,1.82-.441A6,6,0,0,0,51.2-2.641l.242.156a5.562,5.562,0,0,1-1.859,2.07,4.706,4.706,0,0,1-2.523.656,4.776,4.776,0,0,1-4.078-1.953A5.584,5.584,0,0,1,41.9-5.133a6.077,6.077,0,0,1,.711-2.914,5.144,5.144,0,0,1,1.957-2.059,5.288,5.288,0,0,1,2.723-.73,4.99,4.99,0,0,1,2.266.563,1.229,1.229,0,0,0,.469.172.516.516,0,0,0,.367-.148,1.217,1.217,0,0,0,.289-.586Zm3.359-.273a.761.761,0,0,1,.559.23.761.761,0,0,1,.23.559.774.774,0,0,1-.23.563.754.754,0,0,1-.559.234.767.767,0,0,1-.562-.234.767.767,0,0,1-.234-.562.761.761,0,0,1,.23-.559A.77.77,0,0,1,54.313-11.109Zm.648,3.742v5.75a2.634,2.634,0,0,0,.1.895.686.686,0,0,0,.289.332,1.547,1.547,0,0,0,.7.109V0H52.57V-.281a1.618,1.618,0,0,0,.7-.1.7.7,0,0,0,.285-.336,2.525,2.525,0,0,0,.105-.9V-4.375a9.753,9.753,0,0,0-.07-1.508.613.613,0,0,0-.172-.348.485.485,0,0,0-.32-.1,1.564,1.564,0,0,0-.531.117l-.109-.281,2.156-.875Zm4.063,1.516a3.378,3.378,0,0,1,2.4-1.516,1.722,1.722,0,0,1,1.008.293,1.963,1.963,0,0,1,.672.965,4.463,4.463,0,0,1,.172,1.438v3.055a2.574,2.574,0,0,0,.109.922.642.642,0,0,0,.277.3,1.572,1.572,0,0,0,.707.109V0H60.828V-.281h.148a1.191,1.191,0,0,0,.7-.152.8.8,0,0,0,.277-.449,4.565,4.565,0,0,0,.031-.734v-2.93a2.975,2.975,0,0,0-.254-1.418.907.907,0,0,0-.855-.441,2.576,2.576,0,0,0-1.852,1.016v3.773a2.7,2.7,0,0,0,.086.9.723.723,0,0,0,.3.332,1.862,1.862,0,0,0,.777.105V0H56.648V-.281H56.8a.841.841,0,0,0,.738-.277,2.023,2.023,0,0,0,.191-1.059V-4.273a11.545,11.545,0,0,0-.059-1.57.673.673,0,0,0-.18-.383.488.488,0,0,0-.324-.1,1.5,1.5,0,0,0-.523.117l-.117-.281,2.156-.875h.336ZM71.016-2.719A3.876,3.876,0,0,1,69.883-.543a2.724,2.724,0,0,1-1.867.762A2.759,2.759,0,0,1,65.891-.8a4.022,4.022,0,0,1-.906-2.766,3.814,3.814,0,0,1,1-2.742A3.21,3.21,0,0,1,68.4-7.367a2.642,2.642,0,0,1,1.734.559,1.545,1.545,0,0,1,.68,1.16.636.636,0,0,1-.191.48.742.742,0,0,1-.535.184.832.832,0,0,1-.7-.3,1.234,1.234,0,0,1-.176-.625,1.024,1.024,0,0,0-.316-.7,1.128,1.128,0,0,0-.758-.234,1.55,1.55,0,0,0-1.258.578,3.075,3.075,0,0,0-.633,2.023,4.1,4.1,0,0,0,.629,2.262,1.931,1.931,0,0,0,1.7.98,2.054,2.054,0,0,0,1.375-.523,3.533,3.533,0,0,0,.836-1.3Zm4.523-4.648a3.171,3.171,0,0,1,2.609,1.234,3.79,3.79,0,0,1,.836,2.422,4.561,4.561,0,0,1-.461,1.945,3.363,3.363,0,0,1-1.27,1.484,3.356,3.356,0,0,1-1.8.5,3.032,3.032,0,0,1-2.57-1.289,3.994,3.994,0,0,1-.8-2.437,4.325,4.325,0,0,1,.488-1.957A3.335,3.335,0,0,1,73.852-6.9,3.3,3.3,0,0,1,75.539-7.367Zm-.242.508a1.629,1.629,0,0,0-.832.246,1.725,1.725,0,0,0-.676.863,4.154,4.154,0,0,0-.258,1.586,5.525,5.525,0,0,0,.621,2.7A1.849,1.849,0,0,0,75.789-.336a1.525,1.525,0,0,0,1.25-.625,3.553,3.553,0,0,0,.492-2.148,4.9,4.9,0,0,0-.82-3A1.69,1.69,0,0,0,75.3-6.859Z" transform="translate(535 7197)" fill="#12263f"/>
    <path id="Trazado_878648" data-name="Trazado 878648" d="M9.633-10.836l.242,3.6H9.633A4.533,4.533,0,0,0,8.25-9.562a3.368,3.368,0,0,0-2.156-.711,3.509,3.509,0,0,0-1.906.535,3.54,3.54,0,0,0-1.34,1.707,7.6,7.6,0,0,0-.488,2.914A6.188,6.188,0,0,0,2.82-2.625,3.454,3.454,0,0,0,4.207-1.008,3.988,3.988,0,0,0,6.32-.445a3.666,3.666,0,0,0,1.82-.441A6,6,0,0,0,9.875-2.641l.242.156A5.562,5.562,0,0,1,8.258-.414,4.706,4.706,0,0,1,5.734.242,4.776,4.776,0,0,1,1.656-1.711,5.584,5.584,0,0,1,.578-5.133a6.077,6.077,0,0,1,.711-2.914,5.144,5.144,0,0,1,1.957-2.059,5.288,5.288,0,0,1,2.723-.73,4.99,4.99,0,0,1,2.266.563A1.229,1.229,0,0,0,8.7-10.1a.516.516,0,0,0,.367-.148,1.217,1.217,0,0,0,.289-.586Zm5.594,9.8a11.8,11.8,0,0,1-1.383.984,2.113,2.113,0,0,1-.9.2,1.61,1.61,0,0,1-1.223-.508,1.864,1.864,0,0,1-.48-1.336,1.7,1.7,0,0,1,.234-.906,3.1,3.1,0,0,1,1.113-1,17.321,17.321,0,0,1,2.637-1.141v-.281a2.333,2.333,0,0,0-.34-1.469,1.227,1.227,0,0,0-.988-.4,1.11,1.11,0,0,0-.781.266.8.8,0,0,0-.3.609l.016.453a.779.779,0,0,1-.184.555.629.629,0,0,1-.48.2.608.608,0,0,1-.473-.2.8.8,0,0,1-.184-.555A1.6,1.6,0,0,1,12.2-6.8a2.969,2.969,0,0,1,1.93-.562,3.347,3.347,0,0,1,1.563.32,1.473,1.473,0,0,1,.68.758,4.27,4.27,0,0,1,.141,1.375v2.43a11.128,11.128,0,0,0,.039,1.254.526.526,0,0,0,.129.309.306.306,0,0,0,.207.078A.426.426,0,0,0,17.109-.9a4.88,4.88,0,0,0,.633-.57v.438Q16.867.141,16.07.141a.76.76,0,0,1-.609-.266A1.435,1.435,0,0,1,15.227-1.031Zm0-.508V-4.266A15.427,15.427,0,0,0,13.7-3.6a2.631,2.631,0,0,0-.883.719,1.389,1.389,0,0,0-.266.82,1.339,1.339,0,0,0,.336.934,1.018,1.018,0,0,0,.773.371A2.834,2.834,0,0,0,15.227-1.539Zm5.508-9.57v9.492a2.6,2.6,0,0,0,.1.891.692.692,0,0,0,.3.332,1.729,1.729,0,0,0,.758.113V0H18.383V-.281a1.516,1.516,0,0,0,.672-.1.677.677,0,0,0,.281-.336,2.616,2.616,0,0,0,.1-.9v-6.5a11.265,11.265,0,0,0-.055-1.488.651.651,0,0,0-.176-.379.464.464,0,0,0-.309-.1,1.459,1.459,0,0,0-.516.125l-.133-.273,2.133-.875ZM27.773-.8A3.614,3.614,0,0,1,26.75-.02a2.474,2.474,0,0,1-1.078.238,2.668,2.668,0,0,1-2.047-.98,3.642,3.642,0,0,1-.875-2.52A4.555,4.555,0,0,1,23.719-6.1a3,3,0,0,1,2.492-1.277,2.147,2.147,0,0,1,1.563.6v-1.32A10.8,10.8,0,0,0,27.715-9.6a.657.657,0,0,0-.184-.383.479.479,0,0,0-.312-.1,1.647,1.647,0,0,0-.539.125l-.1-.273,2.133-.875h.352v8.273A11.069,11.069,0,0,0,29.121-1.3a.681.681,0,0,0,.188.387.451.451,0,0,0,.3.109,1.7,1.7,0,0,0,.563-.133l.086.273L28.133.219h-.359Zm0-.547V-5.039a2.492,2.492,0,0,0-.281-.969,1.622,1.622,0,0,0-.621-.66,1.508,1.508,0,0,0-.754-.223,1.6,1.6,0,0,0-1.227.617A3.507,3.507,0,0,0,24.18-3.9a3.731,3.731,0,0,0,.688,2.418,1.971,1.971,0,0,0,1.531.84A1.9,1.9,0,0,0,27.773-1.352Zm7,.32a11.8,11.8,0,0,1-1.383.984,2.113,2.113,0,0,1-.9.2A1.61,1.61,0,0,1,31.27-.359a1.864,1.864,0,0,1-.48-1.336,1.7,1.7,0,0,1,.234-.906,3.1,3.1,0,0,1,1.113-1,17.321,17.321,0,0,1,2.637-1.141v-.281a2.333,2.333,0,0,0-.34-1.469,1.227,1.227,0,0,0-.988-.4,1.11,1.11,0,0,0-.781.266.8.8,0,0,0-.3.609l.016.453a.779.779,0,0,1-.184.555.629.629,0,0,1-.48.2.608.608,0,0,1-.473-.2.8.8,0,0,1-.184-.555A1.6,1.6,0,0,1,31.75-6.8a2.969,2.969,0,0,1,1.93-.562,3.347,3.347,0,0,1,1.563.32,1.473,1.473,0,0,1,.68.758,4.27,4.27,0,0,1,.141,1.375v2.43A11.128,11.128,0,0,0,36.1-1.23a.526.526,0,0,0,.129.309.306.306,0,0,0,.207.078A.426.426,0,0,0,36.656-.9a4.88,4.88,0,0,0,.633-.57v.438Q36.414.141,35.617.141a.76.76,0,0,1-.609-.266A1.435,1.435,0,0,1,34.773-1.031Zm0-.508V-4.266A15.427,15.427,0,0,0,33.25-3.6a2.631,2.631,0,0,0-.883.719,1.389,1.389,0,0,0-.266.82,1.339,1.339,0,0,0,.336.934,1.018,1.018,0,0,0,.773.371A2.834,2.834,0,0,0,34.773-1.539Zm13.883-9.3v3.664h-.289a4.564,4.564,0,0,0-.5-1.68,2.622,2.622,0,0,0-1.035-.992,2.864,2.864,0,0,0-1.391-.367,1.891,1.891,0,0,0-1.344.5,1.509,1.509,0,0,0-.531,1.129A1.337,1.337,0,0,0,43.9-7.7a8.637,8.637,0,0,0,2.3,1.563A15.926,15.926,0,0,1,48.23-4.918a2.982,2.982,0,0,1,.836,1A2.645,2.645,0,0,1,49.359-2.7a2.742,2.742,0,0,1-.934,2.074,3.381,3.381,0,0,1-2.4.871,5.085,5.085,0,0,1-.867-.07,8.853,8.853,0,0,1-1-.285,4.5,4.5,0,0,0-.965-.246.409.409,0,0,0-.309.117.933.933,0,0,0-.168.484h-.289V-3.391h.289a5.135,5.135,0,0,0,.547,1.707,2.627,2.627,0,0,0,1.051.941,3.258,3.258,0,0,0,1.551.375A2.206,2.206,0,0,0,47.4-.883,1.6,1.6,0,0,0,47.969-2.1a1.652,1.652,0,0,0-.215-.789,2.351,2.351,0,0,0-.668-.742,19.155,19.155,0,0,0-1.664-1,16.142,16.142,0,0,1-1.934-1.215,3.277,3.277,0,0,1-.871-1,2.481,2.481,0,0,1-.3-1.2,2.608,2.608,0,0,1,.875-1.965,3.118,3.118,0,0,1,2.227-.824,4.467,4.467,0,0,1,1.789.414,1.841,1.841,0,0,0,.617.2.465.465,0,0,0,.332-.121.967.967,0,0,0,.207-.488Zm3.266,6.375a3.676,3.676,0,0,0,.773,2.5,2.359,2.359,0,0,0,1.836.906,1.991,1.991,0,0,0,1.223-.387,2.854,2.854,0,0,0,.871-1.324l.242.156A3.725,3.725,0,0,1,55.914-.66a2.545,2.545,0,0,1-1.977.879,2.886,2.886,0,0,1-2.207-1,3.846,3.846,0,0,1-.918-2.7,4.081,4.081,0,0,1,.941-2.863,3.07,3.07,0,0,1,2.363-1.027,2.642,2.642,0,0,1,1.977.793,2.907,2.907,0,0,1,.773,2.121Zm0-.453h3.313a3.062,3.062,0,0,0-.164-.969,1.551,1.551,0,0,0-.582-.687,1.467,1.467,0,0,0-.809-.25,1.612,1.612,0,0,0-1.16.5A2.187,2.187,0,0,0,51.922-4.914Zm7.719-6.2a.761.761,0,0,1,.559.23.761.761,0,0,1,.23.559.774.774,0,0,1-.23.563.754.754,0,0,1-.559.234.767.767,0,0,1-.562-.234.767.767,0,0,1-.234-.562.761.761,0,0,1,.23-.559A.77.77,0,0,1,59.641-11.109Zm.648,3.742v5.75a2.634,2.634,0,0,0,.1.895.686.686,0,0,0,.289.332,1.547,1.547,0,0,0,.7.109V0H57.9V-.281a1.618,1.618,0,0,0,.7-.1.7.7,0,0,0,.285-.336,2.525,2.525,0,0,0,.105-.9V-4.375a9.753,9.753,0,0,0-.07-1.508.613.613,0,0,0-.172-.348.485.485,0,0,0-.32-.1,1.564,1.564,0,0,0-.531.117l-.109-.281,2.156-.875Zm6.6,0V-4.93h-.258a3.167,3.167,0,0,0-.762-1.562,1.713,1.713,0,0,0-1.184-.414,1.306,1.306,0,0,0-.883.289.839.839,0,0,0-.336.641,1.163,1.163,0,0,0,.25.75,2.78,2.78,0,0,0,.984.68l1.141.555A2.318,2.318,0,0,1,67.43-1.953a1.926,1.926,0,0,1-.738,1.574,2.56,2.56,0,0,1-1.652.6,5.683,5.683,0,0,1-1.5-.234,1.524,1.524,0,0,0-.422-.078.311.311,0,0,0-.281.2h-.258V-2.445h.258A2.908,2.908,0,0,0,63.672-.8a2.017,2.017,0,0,0,1.383.555,1.238,1.238,0,0,0,.879-.316,1,1,0,0,0,.34-.762,1.212,1.212,0,0,0-.379-.906,6.618,6.618,0,0,0-1.512-.93A4.479,4.479,0,0,1,62.9-4.172,1.76,1.76,0,0,1,62.547-5.3a1.984,1.984,0,0,1,.605-1.477,2.142,2.142,0,0,1,1.566-.594,3.681,3.681,0,0,1,1.023.18,2.417,2.417,0,0,0,.531.117.311.311,0,0,0,.2-.055.75.75,0,0,0,.164-.242Z" transform="translate(779 7197)" fill="#12263f"/>
  </g>
</svg>
