<svg xmlns="http://www.w3.org/2000/svg" width="334" height="78" viewBox="0 0 334 78">
  <g id="_16" data-name="16" transform="translate(-839 -8774)">
    <g id="Rectángulo_402248" data-name="Rectángulo 402248" transform="translate(839 8774)" fill="#fff" stroke="#19a594" stroke-width="1">
      <rect width="334" height="78" rx="12" stroke="none"/>
      <rect x="0.5" y="0.5" width="333" height="77" rx="11.5" fill="none"/>
    </g>
    <path id="Trazado_878651" data-name="Trazado 878651" d="M10.266,0H7.922L3.359-7.484V0H1.016V-11.375H3.359l4.57,7.5v-7.5h2.336Zm1.547-4.3A5.013,5.013,0,0,1,12.3-6.547,3.546,3.546,0,0,1,13.691-8.07,4.069,4.069,0,0,1,15.8-8.609,3.849,3.849,0,0,1,18.6-7.562,4.2,4.2,0,0,1,19.8-4.719l.016.578A4.418,4.418,0,0,1,18.734-1.02,3.775,3.775,0,0,1,15.82.156,3.793,3.793,0,0,1,12.9-1.016,4.5,4.5,0,0,1,11.813-4.2Zm2.258.16A3.16,3.16,0,0,0,14.523-2.3a1.5,1.5,0,0,0,1.3.638,1.5,1.5,0,0,0,1.281-.63,3.457,3.457,0,0,0,.461-2.015A3.128,3.128,0,0,0,17.1-6.14a1.5,1.5,0,0,0-1.3-.649,1.474,1.474,0,0,0-1.281.646A3.516,3.516,0,0,0,14.07-4.144Zm9.258-4.309.07.945a2.971,2.971,0,0,1,2.43-1.1A2.255,2.255,0,0,1,28.07-7.32a2.9,2.9,0,0,1,2.539-1.289,2.521,2.521,0,0,1,2.047.8,3.681,3.681,0,0,1,.672,2.41V0H31.063V-5.391a1.61,1.61,0,0,0-.281-1.051,1.246,1.246,0,0,0-.992-.332,1.409,1.409,0,0,0-1.406.969L28.391,0H26.133V-5.383a1.59,1.59,0,0,0-.289-1.062,1.259,1.259,0,0,0-.984-.328,1.463,1.463,0,0,0-1.391.8V0H21.211V-8.453Zm19.352,4.3A5.119,5.119,0,0,1,41.813-.98,2.872,2.872,0,0,1,39.391.156,2.639,2.639,0,0,1,37.2-.9l-.1.9H35.063V-12H37.32v4.3a2.571,2.571,0,0,1,2.055-.914A2.9,2.9,0,0,1,41.8-7.473a5.126,5.126,0,0,1,.879,3.2Zm-2.258-.164a3.363,3.363,0,0,0-.406-1.871,1.374,1.374,0,0,0-1.211-.59,1.489,1.489,0,0,0-1.484.883v3.336a1.509,1.509,0,0,0,1.5.891,1.394,1.394,0,0,0,1.438-1.078A5.562,5.562,0,0,0,40.422-4.312Zm8.4-2.023a6.134,6.134,0,0,0-.812-.062,1.654,1.654,0,0,0-1.68.867V0H44.07V-8.453H46.2l.063,1.008a2.092,2.092,0,0,1,1.883-1.164,2.366,2.366,0,0,1,.7.1ZM53.8.156A4.15,4.15,0,0,1,50.77-.984,4.054,4.054,0,0,1,49.6-4.023v-.219a5.106,5.106,0,0,1,.492-2.277,3.612,3.612,0,0,1,1.395-1.547,3.914,3.914,0,0,1,2.059-.543,3.508,3.508,0,0,1,2.73,1.094,4.444,4.444,0,0,1,1,3.1v.922H51.891a2.1,2.1,0,0,0,.66,1.328,2,2,0,0,0,1.395.5,2.437,2.437,0,0,0,2.039-.945l1.109,1.242A3.389,3.389,0,0,1,55.719-.246,4.511,4.511,0,0,1,53.8.156Zm-.258-6.945a1.411,1.411,0,0,0-1.09.455,2.357,2.357,0,0,0-.535,1.3h3.141v-.181a1.681,1.681,0,0,0-.406-1.165A1.456,1.456,0,0,0,53.539-6.789Z" transform="translate(856 8801)" fill="#3a1d71"/>
    <path id="Trazado_878654" data-name="Trazado 878654" d="M2.828-1.227H8.219V0H1.32V-11.375H2.828Zm11.75.391A3.07,3.07,0,0,1,12.1.156a2.628,2.628,0,0,1-2.059-.785,3.4,3.4,0,0,1-.715-2.324v-5.5h1.445v5.461q0,1.922,1.563,1.922a2.163,2.163,0,0,0,2.2-1.234V-8.453h1.445V0H14.609ZM19.75,0H18.3V-8.453H19.75ZM18.188-10.7a.863.863,0,0,1,.215-.594.807.807,0,0,1,.637-.242.819.819,0,0,1,.641.242.854.854,0,0,1,.219.594.826.826,0,0,1-.219.586.834.834,0,0,1-.641.234.821.821,0,0,1-.637-.234A.834.834,0,0,1,18.188-10.7Zm8.8,8.453a1.064,1.064,0,0,0-.441-.91A4.249,4.249,0,0,0,25-3.711a7.277,7.277,0,0,1-1.742-.562,2.479,2.479,0,0,1-.953-.781A1.869,1.869,0,0,1,22-6.133a2.193,2.193,0,0,1,.879-1.758,3.432,3.432,0,0,1,2.246-.719,3.532,3.532,0,0,1,2.332.742,2.357,2.357,0,0,1,.895,1.9H26.9a1.3,1.3,0,0,0-.5-1.023,1.888,1.888,0,0,0-1.27-.43,1.976,1.976,0,0,0-1.234.344,1.082,1.082,0,0,0-.445.9.877.877,0,0,0,.414.789,5.1,5.1,0,0,0,1.5.508,7.8,7.8,0,0,1,1.754.578,2.558,2.558,0,0,1,1,.809,1.988,1.988,0,0,1,.324,1.152,2.163,2.163,0,0,1-.906,1.816,3.8,3.8,0,0,1-2.352.684,4.257,4.257,0,0,1-1.8-.359,2.922,2.922,0,0,1-1.223-1A2.42,2.42,0,0,1,21.711-2.6h1.445a1.5,1.5,0,0,0,.582,1.152,2.258,2.258,0,0,0,1.434.426,2.331,2.331,0,0,0,1.316-.332A1.02,1.02,0,0,0,26.984-2.242ZM36-4.453V0H34.5V-11.375h4.2a4.215,4.215,0,0,1,2.926.953A3.231,3.231,0,0,1,42.68-7.9a3.189,3.189,0,0,1-1.035,2.551,4.4,4.4,0,0,1-2.965.895ZM36-5.68h2.7a2.7,2.7,0,0,0,1.844-.567,2.075,2.075,0,0,0,.641-1.64,2.143,2.143,0,0,0-.641-1.628,2.525,2.525,0,0,0-1.758-.634H36ZM47.875.156a3.693,3.693,0,0,1-2.8-1.129A4.19,4.19,0,0,1,44-3.992v-.266A5.073,5.073,0,0,1,44.48-6.5a3.748,3.748,0,0,1,1.344-1.547A3.378,3.378,0,0,1,47.7-8.609a3.166,3.166,0,0,1,2.563,1.086,4.7,4.7,0,0,1,.914,3.109v.6H45.445a3,3,0,0,0,.73,2.02,2.3,2.3,0,0,0,1.777.77,2.517,2.517,0,0,0,1.3-.312,3.259,3.259,0,0,0,.93-.828l.883.688A3.55,3.55,0,0,1,47.875.156ZM47.7-7.422a1.928,1.928,0,0,0-1.469.637A3.1,3.1,0,0,0,45.492-5h4.234v-.109a2.753,2.753,0,0,0-.594-1.707A1.815,1.815,0,0,0,47.7-7.422Zm9.234.266a4.331,4.331,0,0,0-.711-.055A1.9,1.9,0,0,0,54.289-6V0H52.844V-8.453H54.25l.023.977a2.251,2.251,0,0,1,2.016-1.133,1.477,1.477,0,0,1,.641.109ZM61.766.156a3.693,3.693,0,0,1-2.8-1.129,4.19,4.19,0,0,1-1.078-3.02v-.266a5.073,5.073,0,0,1,.48-2.246,3.748,3.748,0,0,1,1.344-1.547,3.378,3.378,0,0,1,1.871-.559,3.166,3.166,0,0,1,2.563,1.086,4.7,4.7,0,0,1,.914,3.109v.6H59.336a3,3,0,0,0,.73,2.02,2.3,2.3,0,0,0,1.777.77,2.517,2.517,0,0,0,1.3-.312,3.259,3.259,0,0,0,.93-.828l.883.688A3.55,3.55,0,0,1,61.766.156Zm-.18-7.578a1.928,1.928,0,0,0-1.469.637A3.1,3.1,0,0,0,59.383-5h4.234v-.109a2.753,2.753,0,0,0-.594-1.707A1.815,1.815,0,0,0,61.586-7.422ZM68.094-1.18h4.945V0H66.328V-1.062l4.664-6.2H66.4v-1.2H72.8V-7.43Z" transform="translate(856 8831)" fill="#3a1d71"/>
    <path id="Trazado_877084" data-name="Trazado 877084" d="M-7450.68-2902.5h65.3" transform="translate(8405.383 11699)" fill="none" stroke="#a3a3a3" stroke-width="1"/>
    <path id="Trazado_877085" data-name="Trazado 877085" d="M-7450.68-2902.5h65.3" transform="translate(8405.383 11729)" fill="none" stroke="#a3a3a3" stroke-width="1"/>
    <path id="Polígono_15" data-name="Polígono 15" d="M4.5,0,9,8H0Z" transform="translate(1028 8792) rotate(90)" fill="#8d8d8d"/>
    <path id="Polígono_16" data-name="Polígono 16" d="M4.5,0,9,8H0Z" transform="translate(1028 8822) rotate(90)" fill="#8d8d8d"/>
    <path id="Trazado_878652" data-name="Trazado 878652" d="M2.148-1.227H7.383L7.164,0H.461L2.438-11.375H3.914ZM13.844,0a1.894,1.894,0,0,1-.055-.445l.023-.445A3.465,3.465,0,0,1,11.344.156,2.526,2.526,0,0,1,9.527-.551a2.14,2.14,0,0,1-.637-1.73,2.6,2.6,0,0,1,1.176-2.1,5.005,5.005,0,0,1,2.887-.754l1.477.008.094-.672A1.545,1.545,0,0,0,14.23-7a1.414,1.414,0,0,0-1.113-.457,2.181,2.181,0,0,0-1.285.355,1.513,1.513,0,0,0-.684.98l-1.422.008A2.266,2.266,0,0,1,10.3-7.426a3.363,3.363,0,0,1,1.3-.891,4.215,4.215,0,0,1,1.648-.3,2.8,2.8,0,0,1,2.055.8,2.484,2.484,0,0,1,.617,2.043l-.687,4.188-.039.6a2.949,2.949,0,0,0,.094.852L15.281,0ZM11.625-1.094a2.466,2.466,0,0,0,1.285-.324,3.254,3.254,0,0,0,1.043-.941l.3-1.742-1.07-.008a4.054,4.054,0,0,0-2.047.422,1.554,1.554,0,0,0-.8,1.2,1.21,1.21,0,0,0,.277.988A1.321,1.321,0,0,0,11.625-1.094ZM24.867-4.187a6.586,6.586,0,0,1-.711,2.336A3.982,3.982,0,0,1,22.813-.312a3.058,3.058,0,0,1-1.75.477A2.61,2.61,0,0,1,18.789-.984L18.5,0H17.2l2.086-12H20.7l-.852,4.484a3.107,3.107,0,0,1,2.469-1.094,2.358,2.358,0,0,1,1.9.9A3.954,3.954,0,0,1,24.93-5.32a7.362,7.362,0,0,1-.047.969ZM23.523-5a3.009,3.009,0,0,0-.383-1.744A1.465,1.465,0,0,0,21.9-7.383a2.574,2.574,0,0,0-2.234,1.327l-.633,3.675a1.8,1.8,0,0,0,1.758,1.319,2.054,2.054,0,0,0,1.449-.492,3.212,3.212,0,0,0,.941-1.463A6.578,6.578,0,0,0,23.523-5ZM29.641.156a3.048,3.048,0,0,1-2.469-1.164,4.006,4.006,0,0,1-.75-2.9l.039-.336a5.624,5.624,0,0,1,.746-2.3,4.339,4.339,0,0,1,1.5-1.566,3.491,3.491,0,0,1,1.906-.5,2.688,2.688,0,0,1,2.047.867,3.566,3.566,0,0,1,.813,2.266,6.621,6.621,0,0,1-.031,1.016l-.086.648H27.828a2.856,2.856,0,0,0,.379,1.953,1.8,1.8,0,0,0,1.551.836A3.007,3.007,0,0,0,32.07-2.148l.813.688a3.718,3.718,0,0,1-1.371,1.2A3.886,3.886,0,0,1,29.641.156Zm.9-7.586a2.066,2.066,0,0,0-1.527.594A4.22,4.22,0,0,0,27.977-5l4.109.008.031-.125A2.313,2.313,0,0,0,31.8-6.754,1.488,1.488,0,0,0,30.539-7.43ZM35.813,0H34.406l2.078-12H37.9Z" transform="translate(1043 8801)" fill="#3a1d71"/>
    <path id="Trazado_878653" data-name="Trazado 878653" d="M2.031,0H.57L2.547-11.375H4.008ZM7.344-8.461l-.2,1.07A3.333,3.333,0,0,1,9.734-8.609a2.1,2.1,0,0,1,1.766.828,3.217,3.217,0,0,1,.422,2.242L11,0H9.586l.93-5.557a2.962,2.962,0,0,0,.008-.71A1.168,1.168,0,0,0,9.234-7.383,2.661,2.661,0,0,0,7-6.025L5.953,0H4.539L6.008-8.453ZM20.836-4.187a6.707,6.707,0,0,1-.7,2.32A3.949,3.949,0,0,1,18.8-.324a3.058,3.058,0,0,1-1.766.488,2.815,2.815,0,0,1-2.25-.992L14.031,3.25H12.617l2.031-11.7,1.281-.008-.156.945a3.207,3.207,0,0,1,2.508-1.094,2.358,2.358,0,0,1,1.9.9A3.954,3.954,0,0,1,20.9-5.32a8.413,8.413,0,0,1-.039.969Zm-1.391-.16L19.484-5a2.969,2.969,0,0,0-.434-1.744A1.525,1.525,0,0,0,17.8-7.383,2.508,2.508,0,0,0,15.68-6.22l-.711,4.05A1.769,1.769,0,0,0,16.68-1.016a2.224,2.224,0,0,0,1.793-.823A4.777,4.777,0,0,0,19.445-4.348ZM27.336-.836a3.265,3.265,0,0,1-2.523.992A2.107,2.107,0,0,1,23.02-.711a3.317,3.317,0,0,1-.434-2.281l.906-5.461h1.414l-.914,5.484a3.643,3.643,0,0,0-.016.672,1.4,1.4,0,0,0,.336.883,1.146,1.146,0,0,0,.828.344A2.537,2.537,0,0,0,27.484-2.3l1.063-6.156h1.414L28.492,0H27.156Zm7-9.664-.359,2.047h1.539l-.2,1.117H33.789l-.883,5.258A1.833,1.833,0,0,0,32.9-1.7a.6.6,0,0,0,.664.609,4.05,4.05,0,0,0,.688-.078L34.141.008a3.847,3.847,0,0,1-1.031.141,1.476,1.476,0,0,1-1.266-.621A2.4,2.4,0,0,1,31.516-2.1l.859-5.234H30.883l.2-1.117H32.57L32.93-10.5Z" transform="translate(1043 8831)" fill="#3a1d71"/>
  </g>
</svg>
