<svg xmlns="http://www.w3.org/2000/svg" xmlns:xlink="http://www.w3.org/1999/xlink" width="820" height="411.448" viewBox="0 0 820 411.448">
  <defs>
    <clipPath id="clip-path">
      <rect id="Rectángulo_401143" data-name="Rectángulo 401143" width="820" height="411.448" fill="none"/>
    </clipPath>
  </defs>
  <g id="_17" data-name="17" transform="translate(-390 -9712)">
    <g id="Grupo_1100550" data-name="Grupo 1100550" transform="translate(390 9711.997)">
      <g id="Grupo_1100482" data-name="Grupo 1100482" transform="translate(0 0.003)" clip-path="url(#clip-path)">
        <path id="Trazado_873858" data-name="Trazado 873858" d="M805.5,411.451H14.5c-8.006,0-14.5-5.131-14.5-11.46V11.463C0,5.134,6.49,0,14.5,0H805.5C813.51,0,820,5.134,820,11.463V399.992c0,6.329-6.49,11.46-14.5,11.46" transform="translate(0 -0.003)" fill="#fff"/>
        <path id="Trazado_873859" data-name="Trazado 873859" d="M820,41.183H0V14.465A14.461,14.461,0,0,1,14.461,0H805.539A14.461,14.461,0,0,1,820,14.465Z" transform="translate(0 -0.004)" fill="#3a1d71"/>
        <path id="Trazado_873860" data-name="Trazado 873860" d="M1123.409,34.27H728.391a4.773,4.773,0,0,0-4.773,4.773v11.03a4.773,4.773,0,0,0,4.773,4.773h395.018a4.773,4.773,0,0,0,4.773-4.773V39.043a4.773,4.773,0,0,0-4.773-4.773" transform="translate(-461.322 -21.849)" fill="#fff"/>
        <path id="Trazado_873861" data-name="Trazado 873861" d="M1123.409,34.27H728.391a4.773,4.773,0,0,0-4.773,4.773v11.03a4.773,4.773,0,0,0,4.773,4.773h395.018a4.773,4.773,0,0,0,4.773-4.773V39.043A4.773,4.773,0,0,0,1123.409,34.27Z" transform="translate(-461.322 -21.849)" fill="none" stroke="#d9d9d9" stroke-miterlimit="10" stroke-width="1"/>
        <path id="Trazado_873862" data-name="Trazado 873862" d="M259.012,54.869H243.534a3.472,3.472,0,0,1-3.472-3.472V37.875a3.472,3.472,0,0,1,3.472-3.472h15.478a3.472,3.472,0,0,1,3.472,3.472V51.4a3.472,3.472,0,0,1-3.472,3.472" transform="translate(-108.062 -21.934)" fill="#fff"/>
        <rect id="Rectángulo_401133" data-name="Rectángulo 401133" width="22.422" height="20.466" rx="4" transform="translate(132 12.469)" fill="none" stroke="#d9d9d9" stroke-miterlimit="10" stroke-width="1"/>
        <path id="Trazado_873863" data-name="Trazado 873863" d="M326.394,54.869H310.916a3.472,3.472,0,0,1-3.472-3.472V37.875a3.472,3.472,0,0,1,3.472-3.472h15.478a3.472,3.472,0,0,1,3.472,3.472V51.4a3.472,3.472,0,0,1-3.472,3.472" transform="translate(-151.019 -21.934)" fill="#fff"/>
        <rect id="Rectángulo_401134" data-name="Rectángulo 401134" width="22.422" height="20.466" rx="3" transform="translate(156.425 12.469)" fill="none" stroke="#d9d9d9" stroke-miterlimit="10" stroke-width="1"/>
        <path id="Trazado_873864" data-name="Trazado 873864" d="M434.5,54.869H407.709a3.472,3.472,0,0,1-3.472-3.472V37.875a3.472,3.472,0,0,1,3.472-3.472H434.5a3.472,3.472,0,0,1,3.472,3.472V51.4a3.472,3.472,0,0,1-3.472,3.472" transform="translate(-212.727 -21.934)" fill="#fff"/>
        <rect id="Rectángulo_401135" data-name="Rectángulo 401135" width="33.733" height="20.466" rx="5" transform="translate(191.51 12.469)" fill="none" stroke="#d9d9d9" stroke-miterlimit="10" stroke-width="1"/>
        <path id="Trazado_873865" data-name="Trazado 873865" d="M2049.908,54.847h-26.933a3.491,3.491,0,0,1-3.491-3.491V37.762a3.491,3.491,0,0,1,3.491-3.491h26.933a3.491,3.491,0,0,1,3.491,3.491V51.356a3.491,3.491,0,0,1-3.491,3.491" transform="translate(-1287.466 -21.85)" fill="#fff"/>
        <rect id="Rectángulo_401136" data-name="Rectángulo 401136" width="33.914" height="20.576" rx="4" transform="translate(732.019 12.421)" fill="none" stroke="#d9d9d9" stroke-miterlimit="10" stroke-width="1"/>
        <path id="Trazado_873866" data-name="Trazado 873866" d="M2160.978,54.847h-26.933a3.491,3.491,0,0,1-3.491-3.491V37.762a3.491,3.491,0,0,1,3.491-3.491h26.933a3.491,3.491,0,0,1,3.491,3.491V51.356a3.491,3.491,0,0,1-3.491,3.491" transform="translate(-1358.275 -21.85)" fill="#fff"/>
        <rect id="Rectángulo_401137" data-name="Rectángulo 401137" width="33.915" height="20.576" rx="4" transform="translate(772.279 12.421)" fill="none" stroke="#d9d9d9" stroke-miterlimit="10" stroke-width="1"/>
        <path id="Trazado_873867" data-name="Trazado 873867" d="M268.3,50.391l-4.74,4.486,4.74,4.486" transform="translate(-123.045 -32.127)" fill="none" stroke="#575757" stroke-linecap="round" stroke-linejoin="round" stroke-width="2"/>
        <path id="Trazado_873868" data-name="Trazado 873868" d="M332.731,50.391l4.74,4.486-4.74,4.486" transform="translate(-167.14 -32.127)" fill="none" stroke="#c2c2c2" stroke-linecap="round" stroke-linejoin="round" stroke-width="2"/>
        <rect id="Rectángulo_401138" data-name="Rectángulo 401138" width="12.572" height="9.935" transform="translate(201.997 17.969)" fill="none" stroke="#575757" stroke-miterlimit="10" stroke-width="1"/>
        <line id="Línea_553" data-name="Línea 553" y2="9.624" transform="translate(206.453 17.969)" fill="none" stroke="#575757" stroke-miterlimit="10" stroke-width="1"/>
        <path id="Trazado_873869" data-name="Trazado 873869" d="M1803.144,50.657a4.7,4.7,0,1,0,4.7,4.7" transform="translate(-1146.545 -32.296)" fill="none" stroke="#7c7c7c" stroke-miterlimit="10" stroke-width="1"/>
        <path id="Trazado_873870" data-name="Trazado 873870" d="M1809.361,48.954v-4.7l3.512,2.351Z" transform="translate(-1153.507 -28.213)" fill="#7c7c7c"/>
        <path id="Trazado_873871" data-name="Trazado 873871" d="M2059.657,56.252h3.136v8.01h-9.154v-8.01h3.312" transform="translate(-1309.24 -35.863)" fill="none" stroke="#575757" stroke-miterlimit="10" stroke-width="1"/>
        <rect id="Rectángulo_401142" data-name="Rectángulo 401142" width="7.178" height="7.196" transform="translate(784.825 20.389)" fill="none" stroke="#575757" stroke-miterlimit="10" stroke-width="1"/>
        <line id="Línea_554" data-name="Línea 554" y2="7.768" transform="translate(749.043 16.615)" fill="none" stroke="#575757" stroke-miterlimit="10" stroke-width="1"/>
        <path id="Trazado_873872" data-name="Trazado 873872" d="M2064.493,47.412l-2.58-2.58-2.581,2.58" transform="translate(-1312.87 -28.583)" fill="none" stroke="#575757" stroke-miterlimit="10" stroke-width="1"/>
        <path id="Trazado_873873" data-name="Trazado 873873" d="M2172.905,50.041V48.718h7.119v7.2h-1.342" transform="translate(-1385.275 -31.06)" fill="none" stroke="#575757" stroke-miterlimit="10" stroke-width="1"/>
        <circle id="Elipse_11469" data-name="Elipse 11469" cx="8" cy="8" r="8" transform="translate(44 14)" fill="#fb130d"/>
        <circle id="Elipse_11470" data-name="Elipse 11470" cx="8" cy="8" r="8" transform="translate(65 14)" fill="#fecd02"/>
        <circle id="Elipse_11471" data-name="Elipse 11471" cx="8" cy="8" r="8" transform="translate(86 14)" fill="#43dfaa"/>
      </g>
    </g>
    <path id="Trazado_878655" data-name="Trazado 878655" d="M-.211-10.594H2.664L9.141-2.648V-8.758a2.1,2.1,0,0,0-.219-1.219,1.158,1.158,0,0,0-.914-.328H7.641v-.289h3.688v.289h-.375A1.076,1.076,0,0,0,10-9.9a2.371,2.371,0,0,0-.172,1.141V.172H9.547L2.563-8.359v6.523A2.167,2.167,0,0,0,2.773-.617a1.173,1.173,0,0,0,.914.328h.375V0H.375V-.289H.742A1.085,1.085,0,0,0,1.7-.7a2.371,2.371,0,0,0,.172-1.141V-9.2a4.828,4.828,0,0,0-.7-.711,2.567,2.567,0,0,0-.7-.32,2.49,2.49,0,0,0-.687-.07ZM15.555-7.367a3.171,3.171,0,0,1,2.609,1.234A3.79,3.79,0,0,1,19-3.711a4.561,4.561,0,0,1-.461,1.945A3.363,3.363,0,0,1,17.27-.281a3.356,3.356,0,0,1-1.8.5A3.032,3.032,0,0,1,12.9-1.07a3.994,3.994,0,0,1-.8-2.437,4.325,4.325,0,0,1,.488-1.957A3.335,3.335,0,0,1,13.867-6.9,3.3,3.3,0,0,1,15.555-7.367Zm-.242.508a1.629,1.629,0,0,0-.832.246,1.725,1.725,0,0,0-.676.863,4.154,4.154,0,0,0-.258,1.586,5.525,5.525,0,0,0,.621,2.7A1.849,1.849,0,0,0,15.8-.336a1.525,1.525,0,0,0,1.25-.625,3.553,3.553,0,0,0,.492-2.148,4.9,4.9,0,0,0-.82-3A1.69,1.69,0,0,0,15.313-6.859ZM22.18-5.844q.781-.781.922-.9a2.79,2.79,0,0,1,.758-.461,2.137,2.137,0,0,1,.8-.164,1.785,1.785,0,0,1,1.156.391,1.933,1.933,0,0,1,.648,1.133,5.308,5.308,0,0,1,1.359-1.23,2.414,2.414,0,0,1,1.141-.293,1.787,1.787,0,0,1,1.012.293,1.947,1.947,0,0,1,.7.957A4.312,4.312,0,0,1,30.852-4.7v3.078a2.8,2.8,0,0,0,.1.922.664.664,0,0,0,.289.293,1.452,1.452,0,0,0,.688.121V0H28.4V-.281h.148a1.243,1.243,0,0,0,.719-.18.7.7,0,0,0,.258-.4,5.009,5.009,0,0,0,.031-.758V-4.7a2.6,2.6,0,0,0-.211-1.234,1.058,1.058,0,0,0-.977-.5,1.861,1.861,0,0,0-.832.207,4.511,4.511,0,0,0-1.012.77l-.016.086.016.336v3.414a2.944,2.944,0,0,0,.082.914.665.665,0,0,0,.309.3,1.768,1.768,0,0,0,.773.121V0H24.07V-.281a1.657,1.657,0,0,0,.816-.141A.73.73,0,0,0,25.2-.844a4.156,4.156,0,0,0,.039-.773V-4.7a2.326,2.326,0,0,0-.258-1.258,1.1,1.1,0,0,0-.961-.5,1.725,1.725,0,0,0-.836.227,3.216,3.216,0,0,0-1,.773v3.836a2.658,2.658,0,0,0,.1.914.672.672,0,0,0,.289.316,1.862,1.862,0,0,0,.777.105V0H19.8V-.281a1.576,1.576,0,0,0,.688-.105.675.675,0,0,0,.3-.336,2.579,2.579,0,0,0,.1-.895V-4.352a9.911,9.911,0,0,0-.07-1.523.622.622,0,0,0-.172-.355.485.485,0,0,0-.32-.1,1.5,1.5,0,0,0-.523.117l-.117-.281,2.156-.875h.336Zm12.281-.078A2.857,2.857,0,0,1,36.7-7.367a2.481,2.481,0,0,1,1.922.941,3.785,3.785,0,0,1,.82,2.574A3.974,3.974,0,0,1,38.18-.781a3.491,3.491,0,0,1-2.422,1,3.812,3.812,0,0,1-1.27-.227,5.827,5.827,0,0,1-1.316-.68V-8.1a10.71,10.71,0,0,0-.059-1.5.657.657,0,0,0-.184-.383.479.479,0,0,0-.312-.1,1.6,1.6,0,0,0-.547.125l-.109-.273,2.148-.875h.352Zm0,.5v4.281a3.009,3.009,0,0,0,.824.59,2.035,2.035,0,0,0,.871.2,1.711,1.711,0,0,0,1.324-.781,3.622,3.622,0,0,0,.613-2.273A3.225,3.225,0,0,0,37.48-5.52a1.788,1.788,0,0,0-1.395-.738,1.81,1.81,0,0,0-.828.211A3.59,3.59,0,0,0,34.461-5.422Zm8.133-1.945v1.609q.9-1.609,1.844-1.609a1,1,0,0,1,.711.262.8.8,0,0,1,.281.605.715.715,0,0,1-.2.516.649.649,0,0,1-.484.211,1.032,1.032,0,0,1-.613-.27,1.013,1.013,0,0,0-.5-.27.465.465,0,0,0-.3.156A3.759,3.759,0,0,0,42.594-5.1v3.43a2.123,2.123,0,0,0,.148.9.809.809,0,0,0,.359.352,1.579,1.579,0,0,0,.742.141V0H40.18V-.281a1.521,1.521,0,0,0,.813-.172.667.667,0,0,0,.273-.4,4.018,4.018,0,0,0,.039-.758V-4.383a11.525,11.525,0,0,0-.051-1.488.583.583,0,0,0-.187-.348.527.527,0,0,0-.34-.109,1.545,1.545,0,0,0-.547.117L40.1-6.492l2.164-.875Zm4.438,2.906a3.676,3.676,0,0,0,.773,2.5,2.359,2.359,0,0,0,1.836.906,1.991,1.991,0,0,0,1.223-.387,2.854,2.854,0,0,0,.871-1.324l.242.156A3.725,3.725,0,0,1,51.023-.66a2.545,2.545,0,0,1-1.977.879,2.886,2.886,0,0,1-2.207-1,3.846,3.846,0,0,1-.918-2.7,4.081,4.081,0,0,1,.941-2.863,3.07,3.07,0,0,1,2.363-1.027,2.642,2.642,0,0,1,1.977.793,2.907,2.907,0,0,1,.773,2.121Zm0-.453h3.313a3.062,3.062,0,0,0-.164-.969A1.551,1.551,0,0,0,49.6-6.57a1.467,1.467,0,0,0-.809-.25,1.612,1.612,0,0,0-1.16.5A2.187,2.187,0,0,0,47.031-4.914Zm7.656-2.461a.836.836,0,0,1,.613.254.836.836,0,0,1,.254.613.836.836,0,0,1-.254.613.836.836,0,0,1-.613.254.836.836,0,0,1-.613-.254.836.836,0,0,1-.254-.613.836.836,0,0,1,.254-.613A.836.836,0,0,1,54.688-7.375Zm-.016,5.852a.838.838,0,0,1,.621.258.849.849,0,0,1,.254.617.829.829,0,0,1-.258.613.849.849,0,0,1-.617.254.836.836,0,0,1-.613-.254A.836.836,0,0,1,53.8-.648a.849.849,0,0,1,.254-.617A.829.829,0,0,1,54.672-1.523Z" transform="translate(438 9813)" fill="#12263f"/>
    <g id="Trazado_878656" data-name="Trazado 878656" transform="translate(513 9791)" fill="#fff">
      <path d="M 180.5 36.5 L 0.5 36.5 L 0.5 0.5 L 180.5 0.5 L 180.5 36.5 Z" stroke="none"/>
      <path d="M 1 1 L 1 36 L 180 36 L 180 1 L 1 1 M 0 0 L 181 0 L 181 37 L 0 37 L 0 0 Z" stroke="none" fill="#707070"/>
    </g>
    <path id="Trazado_878657" data-name="Trazado 878657" d="M7.32-3.547h-4.1L2.5-1.875a2.647,2.647,0,0,0-.266.922.535.535,0,0,0,.23.426,2.014,2.014,0,0,0,1,.238V0H.125V-.289a1.8,1.8,0,0,0,.859-.3,4.786,4.786,0,0,0,.883-1.523l3.727-8.719h.273L9.555-2.023a4.017,4.017,0,0,0,.809,1.379,1.648,1.648,0,0,0,1.012.355V0H7.2V-.289A1.567,1.567,0,0,0,8.051-.5a.544.544,0,0,0,.223-.437,3.239,3.239,0,0,0-.312-1.086ZM7.1-4.125,5.3-8.406,3.461-4.125Zm4.438-2.32,2.2-.891h.3v1.672a4.056,4.056,0,0,1,1.113-1.324,2.061,2.061,0,0,1,1.176-.379,2.264,2.264,0,0,1,1.8.844,3.988,3.988,0,0,1,.883,2.688A4.474,4.474,0,0,1,17.945-.773a2.813,2.813,0,0,1-2.2.992,2.756,2.756,0,0,1-1-.164,2.342,2.342,0,0,1-.7-.469v2.18a2.9,2.9,0,0,0,.09.934.668.668,0,0,0,.313.316,1.921,1.921,0,0,0,.809.117v.289H11.5V3.133h.2a1.419,1.419,0,0,0,.734-.164.562.562,0,0,0,.23-.277,3.326,3.326,0,0,0,.082-.973V-5.047a3.681,3.681,0,0,0-.062-.883.531.531,0,0,0-.2-.281.647.647,0,0,0-.371-.094,1.413,1.413,0,0,0-.477.109Zm2.5,1.242v2.672a5.729,5.729,0,0,0,.07,1.141,1.461,1.461,0,0,0,.535.8,1.655,1.655,0,0,0,1.074.344,1.54,1.54,0,0,0,1.266-.609A3.524,3.524,0,0,0,17.617-3.1,3.9,3.9,0,0,0,16.9-5.625a1.5,1.5,0,0,0-1.187-.609,1.617,1.617,0,0,0-.742.188A4.356,4.356,0,0,0,14.039-5.2Zm7.219.742a3.676,3.676,0,0,0,.773,2.5,2.359,2.359,0,0,0,1.836.906,1.991,1.991,0,0,0,1.223-.387,2.854,2.854,0,0,0,.871-1.324l.242.156A3.725,3.725,0,0,1,25.25-.66a2.545,2.545,0,0,1-1.977.879,2.886,2.886,0,0,1-2.207-1,3.846,3.846,0,0,1-.918-2.7,4.081,4.081,0,0,1,.941-2.863,3.07,3.07,0,0,1,2.363-1.027,2.642,2.642,0,0,1,1.977.793A2.907,2.907,0,0,1,26.2-4.461Zm0-.453H24.57a3.062,3.062,0,0,0-.164-.969,1.551,1.551,0,0,0-.582-.687,1.467,1.467,0,0,0-.809-.25,1.612,1.612,0,0,0-1.16.5A2.187,2.187,0,0,0,21.258-4.914Zm8.359-6.2v9.492a2.6,2.6,0,0,0,.1.891.692.692,0,0,0,.3.332,1.729,1.729,0,0,0,.758.113V0H27.266V-.281a1.516,1.516,0,0,0,.672-.1.677.677,0,0,0,.281-.336,2.616,2.616,0,0,0,.1-.9v-6.5a11.265,11.265,0,0,0-.055-1.488.651.651,0,0,0-.176-.379.464.464,0,0,0-.309-.1,1.459,1.459,0,0,0-.516.125l-.133-.273,2.133-.875Zm4.445,0v9.492a2.6,2.6,0,0,0,.1.891.692.692,0,0,0,.3.332,1.729,1.729,0,0,0,.758.113V0H31.711V-.281a1.516,1.516,0,0,0,.672-.1.677.677,0,0,0,.281-.336,2.616,2.616,0,0,0,.1-.9v-6.5a11.266,11.266,0,0,0-.055-1.488.651.651,0,0,0-.176-.379.464.464,0,0,0-.309-.1,1.459,1.459,0,0,0-.516.125l-.133-.273,2.133-.875Zm3.8,0a.761.761,0,0,1,.559.23.761.761,0,0,1,.23.559.774.774,0,0,1-.23.563.754.754,0,0,1-.559.234.767.767,0,0,1-.562-.234.767.767,0,0,1-.234-.562.761.761,0,0,1,.23-.559A.77.77,0,0,1,37.867-11.109Zm.648,3.742v5.75a2.634,2.634,0,0,0,.1.895.686.686,0,0,0,.289.332,1.547,1.547,0,0,0,.7.109V0H36.125V-.281a1.618,1.618,0,0,0,.7-.1.7.7,0,0,0,.285-.336,2.525,2.525,0,0,0,.105-.9V-4.375a9.753,9.753,0,0,0-.07-1.508.613.613,0,0,0-.172-.348.485.485,0,0,0-.32-.1,1.564,1.564,0,0,0-.531.117l-.109-.281,2.156-.875ZM45.547-.8a3.614,3.614,0,0,1-1.023.785,2.474,2.474,0,0,1-1.078.238A2.668,2.668,0,0,1,41.4-.762a3.642,3.642,0,0,1-.875-2.52A4.555,4.555,0,0,1,41.492-6.1a3,3,0,0,1,2.492-1.277,2.147,2.147,0,0,1,1.563.6v-1.32A10.8,10.8,0,0,0,45.488-9.6a.657.657,0,0,0-.184-.383.479.479,0,0,0-.312-.1,1.647,1.647,0,0,0-.539.125l-.1-.273,2.133-.875h.352v8.273A11.069,11.069,0,0,0,46.895-1.3a.681.681,0,0,0,.188.387.451.451,0,0,0,.3.109,1.7,1.7,0,0,0,.563-.133l.086.273L45.906.219h-.359Zm0-.547V-5.039a2.492,2.492,0,0,0-.281-.969,1.622,1.622,0,0,0-.621-.66,1.508,1.508,0,0,0-.754-.223,1.6,1.6,0,0,0-1.227.617A3.507,3.507,0,0,0,41.953-3.9a3.731,3.731,0,0,0,.688,2.418,1.971,1.971,0,0,0,1.531.84A1.9,1.9,0,0,0,45.547-1.352Zm6.445-6.016A3.171,3.171,0,0,1,54.6-6.133a3.79,3.79,0,0,1,.836,2.422,4.561,4.561,0,0,1-.461,1.945,3.363,3.363,0,0,1-1.27,1.484,3.356,3.356,0,0,1-1.8.5,3.032,3.032,0,0,1-2.57-1.289,3.994,3.994,0,0,1-.8-2.437,4.325,4.325,0,0,1,.488-1.957A3.335,3.335,0,0,1,50.3-6.9,3.3,3.3,0,0,1,51.992-7.367Zm-.242.508a1.629,1.629,0,0,0-.832.246,1.725,1.725,0,0,0-.676.863,4.154,4.154,0,0,0-.258,1.586,5.525,5.525,0,0,0,.621,2.7A1.849,1.849,0,0,0,52.242-.336a1.525,1.525,0,0,0,1.25-.625,3.553,3.553,0,0,0,.492-2.148,4.9,4.9,0,0,0-.82-3A1.69,1.69,0,0,0,51.75-6.859Zm6.5-.516a.836.836,0,0,1,.613.254.836.836,0,0,1,.254.613.836.836,0,0,1-.254.613.836.836,0,0,1-.613.254.836.836,0,0,1-.613-.254.836.836,0,0,1-.254-.613.836.836,0,0,1,.254-.613A.836.836,0,0,1,58.25-7.375Zm-.016,5.852a.838.838,0,0,1,.621.258.849.849,0,0,1,.254.617.829.829,0,0,1-.258.613.849.849,0,0,1-.617.254.836.836,0,0,1-.613-.254.836.836,0,0,1-.254-.613.849.849,0,0,1,.254-.617A.829.829,0,0,1,58.234-1.523Z" transform="translate(438 9863)" fill="#12263f"/>
    <g id="Rectángulo_402251" data-name="Rectángulo 402251" transform="translate(513 9841)" fill="#fff" stroke="#707070" stroke-width="1">
      <rect width="181" height="37" stroke="none"/>
      <rect x="0.5" y="0.5" width="180" height="36" fill="none"/>
    </g>
    <path id="Trazado_878658" data-name="Trazado 878658" d="M3.344-10.016v4.188H5.672A1.9,1.9,0,0,0,6.883-6.1a1.76,1.76,0,0,0,.453-1.266h.289V-3.68H7.336a4.032,4.032,0,0,0-.219-.992.978.978,0,0,0-.461-.43,2.353,2.353,0,0,0-.984-.156H3.344v3.492a3.244,3.244,0,0,0,.063.855.491.491,0,0,0,.219.242,1.328,1.328,0,0,0,.594.09h1.8A4.868,4.868,0,0,0,7.32-.7,1.946,1.946,0,0,0,8.1-1.2a6.012,6.012,0,0,0,.992-1.461h.313L8.492,0H.328V-.289H.7a1.486,1.486,0,0,0,.711-.18.657.657,0,0,0,.34-.375,3.677,3.677,0,0,0,.09-1.023V-8.75a2.278,2.278,0,0,0-.2-1.242A1.21,1.21,0,0,0,.7-10.3H.328v-.289H8.492l.117,2.32H8.3a3.661,3.661,0,0,0-.363-1.148,1.247,1.247,0,0,0-.59-.477,3.539,3.539,0,0,0-1.1-.117ZM12.4-5.844q.781-.781.922-.9a2.79,2.79,0,0,1,.758-.461,2.137,2.137,0,0,1,.8-.164,1.785,1.785,0,0,1,1.156.391,1.933,1.933,0,0,1,.648,1.133,5.308,5.308,0,0,1,1.359-1.23,2.414,2.414,0,0,1,1.141-.293,1.787,1.787,0,0,1,1.012.293,1.947,1.947,0,0,1,.7.957A4.312,4.312,0,0,1,21.07-4.7v3.078a2.8,2.8,0,0,0,.1.922.664.664,0,0,0,.289.293,1.452,1.452,0,0,0,.688.121V0H18.617V-.281h.148a1.243,1.243,0,0,0,.719-.18.7.7,0,0,0,.258-.4,5.009,5.009,0,0,0,.031-.758V-4.7a2.6,2.6,0,0,0-.211-1.234,1.058,1.058,0,0,0-.977-.5,1.861,1.861,0,0,0-.832.207,4.511,4.511,0,0,0-1.012.77l-.016.086.016.336v3.414a2.944,2.944,0,0,0,.082.914.665.665,0,0,0,.309.3,1.768,1.768,0,0,0,.773.121V0H14.289V-.281a1.657,1.657,0,0,0,.816-.141.73.73,0,0,0,.309-.422,4.156,4.156,0,0,0,.039-.773V-4.7A2.326,2.326,0,0,0,15.2-5.953a1.1,1.1,0,0,0-.961-.5,1.725,1.725,0,0,0-.836.227,3.216,3.216,0,0,0-1,.773v3.836a2.658,2.658,0,0,0,.1.914.672.672,0,0,0,.289.316,1.862,1.862,0,0,0,.777.105V0H10.023V-.281a1.576,1.576,0,0,0,.688-.105.675.675,0,0,0,.3-.336,2.579,2.579,0,0,0,.1-.895V-4.352a9.911,9.911,0,0,0-.07-1.523.622.622,0,0,0-.172-.355.485.485,0,0,0-.32-.1,1.5,1.5,0,0,0-.523.117l-.117-.281,2.156-.875H12.4ZM26.773-1.031a11.8,11.8,0,0,1-1.383.984,2.113,2.113,0,0,1-.9.2A1.61,1.61,0,0,1,23.27-.359a1.864,1.864,0,0,1-.48-1.336,1.7,1.7,0,0,1,.234-.906,3.1,3.1,0,0,1,1.113-1,17.322,17.322,0,0,1,2.637-1.141v-.281a2.333,2.333,0,0,0-.34-1.469,1.227,1.227,0,0,0-.988-.4,1.11,1.11,0,0,0-.781.266.8.8,0,0,0-.3.609l.016.453a.779.779,0,0,1-.184.555.629.629,0,0,1-.48.2.608.608,0,0,1-.473-.2.8.8,0,0,1-.184-.555A1.6,1.6,0,0,1,23.75-6.8a2.969,2.969,0,0,1,1.93-.562,3.347,3.347,0,0,1,1.563.32,1.473,1.473,0,0,1,.68.758,4.27,4.27,0,0,1,.141,1.375v2.43A11.128,11.128,0,0,0,28.1-1.23a.526.526,0,0,0,.129.309.306.306,0,0,0,.207.078A.426.426,0,0,0,28.656-.9a4.88,4.88,0,0,0,.633-.57v.438Q28.414.141,27.617.141a.76.76,0,0,1-.609-.266A1.435,1.435,0,0,1,26.773-1.031Zm0-.508V-4.266A15.426,15.426,0,0,0,25.25-3.6a2.631,2.631,0,0,0-.883.719,1.389,1.389,0,0,0-.266.82,1.339,1.339,0,0,0,.336.934,1.018,1.018,0,0,0,.773.371A2.834,2.834,0,0,0,26.773-1.539Zm4.867-9.57a.761.761,0,0,1,.559.23.761.761,0,0,1,.23.559.774.774,0,0,1-.23.563.754.754,0,0,1-.559.234.767.767,0,0,1-.562-.234.767.767,0,0,1-.234-.562.761.761,0,0,1,.23-.559A.77.77,0,0,1,31.641-11.109Zm.648,3.742v5.75a2.634,2.634,0,0,0,.1.895.686.686,0,0,0,.289.332,1.547,1.547,0,0,0,.7.109V0H29.9V-.281a1.618,1.618,0,0,0,.7-.1.7.7,0,0,0,.285-.336,2.525,2.525,0,0,0,.105-.9V-4.375a9.753,9.753,0,0,0-.07-1.508.613.613,0,0,0-.172-.348.485.485,0,0,0-.32-.1,1.564,1.564,0,0,0-.531.117l-.109-.281,2.156-.875Zm4.438-3.742v9.492a2.6,2.6,0,0,0,.1.891.692.692,0,0,0,.3.332,1.729,1.729,0,0,0,.758.113V0H34.375V-.281a1.516,1.516,0,0,0,.672-.1.677.677,0,0,0,.281-.336,2.616,2.616,0,0,0,.1-.9v-6.5a11.266,11.266,0,0,0-.055-1.488.651.651,0,0,0-.176-.379.464.464,0,0,0-.309-.1,1.459,1.459,0,0,0-.516.125l-.133-.273,2.133-.875Zm3.742,3.734a.836.836,0,0,1,.613.254.836.836,0,0,1,.254.613.836.836,0,0,1-.254.613.836.836,0,0,1-.613.254.836.836,0,0,1-.613-.254.836.836,0,0,1-.254-.613.836.836,0,0,1,.254-.613A.836.836,0,0,1,40.469-7.375Zm-.016,5.852a.838.838,0,0,1,.621.258.849.849,0,0,1,.254.617.829.829,0,0,1-.258.613.849.849,0,0,1-.617.254.836.836,0,0,1-.613-.254.836.836,0,0,1-.254-.613.849.849,0,0,1,.254-.617A.829.829,0,0,1,40.453-1.523Z" transform="translate(438 9913)" fill="#12263f"/>
    <g id="Rectángulo_402252" data-name="Rectángulo 402252" transform="translate(513 9891)" fill="#fff" stroke="#707070" stroke-width="1">
      <rect width="181" height="37" stroke="none"/>
      <rect x="0.5" y="0.5" width="180" height="36" fill="none"/>
    </g>
    <g id="Elipse_11594" data-name="Elipse 11594" transform="translate(452 9958)" fill="#fff" stroke="#707070" stroke-width="1.5">
      <circle cx="11.5" cy="11.5" r="11.5" stroke="none"/>
      <circle cx="11.5" cy="11.5" r="10.75" fill="none"/>
    </g>
    <g id="Elipse_11595" data-name="Elipse 11595" transform="translate(452 9993)" fill="#fff" stroke="#707070" stroke-width="1.5">
      <circle cx="11.5" cy="11.5" r="11.5" stroke="none"/>
      <circle cx="11.5" cy="11.5" r="10.75" fill="none"/>
    </g>
    <path id="Trazado_878659" data-name="Trazado 878659" d="M11.359-10.594v.289a1.72,1.72,0,0,0-.852.359,3.241,3.241,0,0,0-.734,1.172L6.078.242H5.789L1.82-8.891a5.034,5.034,0,0,0-.43-.859,1.369,1.369,0,0,0-.48-.379,2.223,2.223,0,0,0-.77-.176v-.289H4.469v.289a1.968,1.968,0,0,0-.953.25.57.57,0,0,0-.219.461,3.53,3.53,0,0,0,.359,1.219l2.7,6.211L8.852-8.3a4.128,4.128,0,0,0,.367-1.258.592.592,0,0,0-.227-.434,1.49,1.49,0,0,0-.766-.293L8.094-10.3v-.289Zm4.75,9.563a11.8,11.8,0,0,1-1.383.984,2.113,2.113,0,0,1-.9.2,1.61,1.61,0,0,1-1.223-.508,1.864,1.864,0,0,1-.48-1.336,1.7,1.7,0,0,1,.234-.906,3.1,3.1,0,0,1,1.113-1,17.321,17.321,0,0,1,2.637-1.141v-.281a2.333,2.333,0,0,0-.34-1.469,1.227,1.227,0,0,0-.988-.4A1.11,1.11,0,0,0,14-6.625a.8.8,0,0,0-.3.609l.016.453a.779.779,0,0,1-.184.555.629.629,0,0,1-.48.2.608.608,0,0,1-.473-.2A.8.8,0,0,1,12.4-5.57,1.6,1.6,0,0,1,13.086-6.8a2.969,2.969,0,0,1,1.93-.562,3.347,3.347,0,0,1,1.563.32,1.473,1.473,0,0,1,.68.758A4.27,4.27,0,0,1,17.4-4.914v2.43a11.128,11.128,0,0,0,.039,1.254.526.526,0,0,0,.129.309.306.306,0,0,0,.207.078A.426.426,0,0,0,17.992-.9a4.88,4.88,0,0,0,.633-.57v.438Q17.75.141,16.953.141a.76.76,0,0,1-.609-.266A1.435,1.435,0,0,1,16.109-1.031Zm0-.508V-4.266a15.427,15.427,0,0,0-1.523.664,2.631,2.631,0,0,0-.883.719,1.389,1.389,0,0,0-.266.82,1.339,1.339,0,0,0,.336.934,1.018,1.018,0,0,0,.773.371A2.834,2.834,0,0,0,16.109-1.539Zm.773-9.32-2.3,2.7h-.266l.82-2.7ZM21.25-7.367v1.609q.9-1.609,1.844-1.609a1,1,0,0,1,.711.262.8.8,0,0,1,.281.605.715.715,0,0,1-.2.516.649.649,0,0,1-.484.211,1.032,1.032,0,0,1-.613-.27,1.013,1.013,0,0,0-.5-.27.465.465,0,0,0-.3.156A3.759,3.759,0,0,0,21.25-5.1v3.43a2.123,2.123,0,0,0,.148.9.809.809,0,0,0,.359.352,1.579,1.579,0,0,0,.742.141V0H18.836V-.281a1.521,1.521,0,0,0,.813-.172.667.667,0,0,0,.273-.4,4.019,4.019,0,0,0,.039-.758V-4.383a11.526,11.526,0,0,0-.051-1.488.583.583,0,0,0-.187-.348.527.527,0,0,0-.34-.109,1.545,1.545,0,0,0-.547.117l-.078-.281,2.164-.875Zm6.734,0a3.171,3.171,0,0,1,2.609,1.234,3.79,3.79,0,0,1,.836,2.422,4.561,4.561,0,0,1-.461,1.945A3.363,3.363,0,0,1,29.7-.281a3.356,3.356,0,0,1-1.8.5,3.032,3.032,0,0,1-2.57-1.289,3.994,3.994,0,0,1-.8-2.437,4.325,4.325,0,0,1,.488-1.957A3.335,3.335,0,0,1,26.3-6.9,3.3,3.3,0,0,1,27.984-7.367Zm-.242.508a1.629,1.629,0,0,0-.832.246,1.725,1.725,0,0,0-.676.863,4.154,4.154,0,0,0-.258,1.586,5.525,5.525,0,0,0,.621,2.7A1.849,1.849,0,0,0,28.234-.336a1.525,1.525,0,0,0,1.25-.625,3.553,3.553,0,0,0,.492-2.148,4.9,4.9,0,0,0-.82-3A1.69,1.69,0,0,0,27.742-6.859ZM34.57-5.852a3.378,3.378,0,0,1,2.4-1.516,1.722,1.722,0,0,1,1.008.293,1.963,1.963,0,0,1,.672.965,4.463,4.463,0,0,1,.172,1.438v3.055A2.574,2.574,0,0,0,38.93-.7a.642.642,0,0,0,.277.3,1.572,1.572,0,0,0,.707.109V0H36.375V-.281h.148a1.191,1.191,0,0,0,.7-.152A.8.8,0,0,0,37.5-.883a4.565,4.565,0,0,0,.031-.734v-2.93a2.975,2.975,0,0,0-.254-1.418.907.907,0,0,0-.855-.441A2.576,2.576,0,0,0,34.57-5.391v3.773a2.7,2.7,0,0,0,.086.9.723.723,0,0,0,.3.332,1.862,1.862,0,0,0,.777.105V0H32.2V-.281h.156a.841.841,0,0,0,.738-.277,2.023,2.023,0,0,0,.191-1.059V-4.273a11.545,11.545,0,0,0-.059-1.57.673.673,0,0,0-.18-.383.488.488,0,0,0-.324-.1,1.5,1.5,0,0,0-.523.117l-.117-.281,2.156-.875h.336Z" transform="translate(495 9969)" fill="#12263f"/>
    <path id="Trazado_878660" data-name="Trazado 878660" d="M6.547,0,2.453-8.914v7.078A2.167,2.167,0,0,0,2.664-.617a1.158,1.158,0,0,0,.914.328h.375V0H.266V-.289H.641A1.076,1.076,0,0,0,1.594-.7a2.371,2.371,0,0,0,.172-1.141V-8.758a2.421,2.421,0,0,0-.156-1.016.867.867,0,0,0-.4-.379A2.158,2.158,0,0,0,.266-10.3v-.289h3L7.109-2.3l3.781-8.289h3v.289h-.367a1.085,1.085,0,0,0-.961.406,2.371,2.371,0,0,0-.172,1.141v6.922a2.1,2.1,0,0,0,.219,1.219,1.158,1.158,0,0,0,.914.328h.367V0h-4.5V-.289h.375A1.064,1.064,0,0,0,10.719-.7a2.371,2.371,0,0,0,.172-1.141V-8.914L6.8,0ZM21-7.156V-2.82a10.885,10.885,0,0,0,.059,1.52.681.681,0,0,0,.188.387.451.451,0,0,0,.3.109,1.391,1.391,0,0,0,.547-.133l.109.273L20.063.219h-.352V-1.3A6.52,6.52,0,0,1,18.3-.039a2.148,2.148,0,0,1-1.023.258,1.635,1.635,0,0,1-1.043-.348,1.8,1.8,0,0,1-.613-.895,5.407,5.407,0,0,1-.172-1.547v-3.2a1.575,1.575,0,0,0-.109-.7.728.728,0,0,0-.324-.3,1.9,1.9,0,0,0-.777-.1v-.289H16.75v4.789A1.789,1.789,0,0,0,17.1-1.055a1.212,1.212,0,0,0,.84.313A1.751,1.751,0,0,0,18.7-.953a4.123,4.123,0,0,0,1.012-.8V-5.812a1.148,1.148,0,0,0-.223-.824,1.443,1.443,0,0,0-.926-.23v-.289Zm3.539-3.961a.776.776,0,0,1,.57.234.776.776,0,0,1,.234.57.767.767,0,0,1-.234.563.776.776,0,0,1-.57.234.767.767,0,0,1-.562-.234.767.767,0,0,1-.234-.562.776.776,0,0,1,.234-.57A.767.767,0,0,1,24.539-11.117Zm.672,3.75v7.2a4.048,4.048,0,0,1-.781,2.727,2.575,2.575,0,0,1-2.031.891A1.757,1.757,0,0,1,21.344,3.2.7.7,0,0,1,21,2.664a.646.646,0,0,1,.191-.469.609.609,0,0,1,.449-.2.95.95,0,0,1,.414.1,2.548,2.548,0,0,1,.512.395,1.069,1.069,0,0,0,.637.34.582.582,0,0,0,.367-.145.878.878,0,0,0,.266-.484A7.677,7.677,0,0,0,23.922.734V-4.359a9.737,9.737,0,0,0-.07-1.516.622.622,0,0,0-.172-.355.485.485,0,0,0-.32-.1,1.564,1.564,0,0,0-.531.117l-.109-.281,2.156-.875Zm3.164,2.906a3.676,3.676,0,0,0,.773,2.5,2.359,2.359,0,0,0,1.836.906,1.991,1.991,0,0,0,1.223-.387,2.854,2.854,0,0,0,.871-1.324l.242.156A3.725,3.725,0,0,1,32.367-.66a2.545,2.545,0,0,1-1.977.879,2.886,2.886,0,0,1-2.207-1,3.846,3.846,0,0,1-.918-2.7,4.081,4.081,0,0,1,.941-2.863A3.07,3.07,0,0,1,30.57-7.375a2.642,2.642,0,0,1,1.977.793,2.907,2.907,0,0,1,.773,2.121Zm0-.453h3.313a3.062,3.062,0,0,0-.164-.969,1.551,1.551,0,0,0-.582-.687,1.467,1.467,0,0,0-.809-.25,1.612,1.612,0,0,0-1.16.5A2.187,2.187,0,0,0,28.375-4.914Zm7.992-2.453v1.609q.9-1.609,1.844-1.609a1,1,0,0,1,.711.262A.8.8,0,0,1,39.2-6.5a.715.715,0,0,1-.2.516.649.649,0,0,1-.484.211,1.032,1.032,0,0,1-.613-.27,1.013,1.013,0,0,0-.5-.27.465.465,0,0,0-.3.156A3.759,3.759,0,0,0,36.367-5.1v3.43a2.123,2.123,0,0,0,.148.9.809.809,0,0,0,.359.352,1.579,1.579,0,0,0,.742.141V0H33.953V-.281a1.521,1.521,0,0,0,.813-.172.667.667,0,0,0,.273-.4,4.018,4.018,0,0,0,.039-.758V-4.383a11.525,11.525,0,0,0-.051-1.488.583.583,0,0,0-.187-.348.527.527,0,0,0-.34-.109,1.545,1.545,0,0,0-.547.117l-.078-.281,2.164-.875Z" transform="translate(495 10011)" fill="#12263f"/>
    <g id="Rectángulo_402253" data-name="Rectángulo 402253" transform="translate(438 10039)" fill="#efefef" stroke="#707070" stroke-width="1">
      <rect width="106" height="32" stroke="none"/>
      <rect x="0.5" y="0.5" width="105" height="31" fill="none"/>
    </g>
    <path id="Trazado_878661" data-name="Trazado 878661" d="M3.344-10.016v4.188H5.672A1.9,1.9,0,0,0,6.883-6.1a1.76,1.76,0,0,0,.453-1.266h.289V-3.68H7.336a4.032,4.032,0,0,0-.219-.992.978.978,0,0,0-.461-.43,2.353,2.353,0,0,0-.984-.156H3.344v3.492a3.244,3.244,0,0,0,.063.855.491.491,0,0,0,.219.242,1.328,1.328,0,0,0,.594.09h1.8A4.868,4.868,0,0,0,7.32-.7,1.946,1.946,0,0,0,8.1-1.2a6.012,6.012,0,0,0,.992-1.461h.313L8.492,0H.328V-.289H.7a1.486,1.486,0,0,0,.711-.18.657.657,0,0,0,.34-.375,3.677,3.677,0,0,0,.09-1.023V-8.75a2.278,2.278,0,0,0-.2-1.242A1.21,1.21,0,0,0,.7-10.3H.328v-.289H8.492l.117,2.32H8.3a3.661,3.661,0,0,0-.363-1.148,1.247,1.247,0,0,0-.59-.477,3.539,3.539,0,0,0-1.1-.117Zm9.016,4.164a3.378,3.378,0,0,1,2.4-1.516,1.722,1.722,0,0,1,1.008.293,1.963,1.963,0,0,1,.672.965,4.463,4.463,0,0,1,.172,1.438v3.055a2.574,2.574,0,0,0,.109.922.642.642,0,0,0,.277.3,1.572,1.572,0,0,0,.707.109V0H14.164V-.281h.148a1.191,1.191,0,0,0,.7-.152.8.8,0,0,0,.277-.449,4.565,4.565,0,0,0,.031-.734v-2.93a2.975,2.975,0,0,0-.254-1.418.907.907,0,0,0-.855-.441,2.576,2.576,0,0,0-1.852,1.016v3.773a2.7,2.7,0,0,0,.086.9.723.723,0,0,0,.3.332,1.862,1.862,0,0,0,.777.105V0H9.984V-.281h.156a.841.841,0,0,0,.738-.277,2.023,2.023,0,0,0,.191-1.059V-4.273a11.545,11.545,0,0,0-.059-1.57.673.673,0,0,0-.18-.383.488.488,0,0,0-.324-.1,1.5,1.5,0,0,0-.523.117l-.117-.281,2.156-.875h.336Zm5.547-1.3h3.367v.289h-.219a.66.66,0,0,0-.465.148.517.517,0,0,0-.16.4,1.667,1.667,0,0,0,.164.648l1.664,3.953,1.672-4.1a1.949,1.949,0,0,0,.18-.664.26.26,0,0,0-.062-.18.431.431,0,0,0-.219-.16,2.134,2.134,0,0,0-.539-.043v-.289h2.336v.289a1.014,1.014,0,0,0-.562.164,2,2,0,0,0-.492.781L22.031.219h-.32L19.156-5.82a2.33,2.33,0,0,0-.328-.605,1.3,1.3,0,0,0-.4-.309,1.956,1.956,0,0,0-.523-.133Zm10.188-3.953a.761.761,0,0,1,.559.23.761.761,0,0,1,.23.559.774.774,0,0,1-.23.563.754.754,0,0,1-.559.234.767.767,0,0,1-.562-.234.767.767,0,0,1-.234-.562.761.761,0,0,1,.23-.559A.77.77,0,0,1,28.094-11.109Zm.648,3.742v5.75a2.634,2.634,0,0,0,.1.895.686.686,0,0,0,.289.332,1.547,1.547,0,0,0,.7.109V0H26.352V-.281a1.618,1.618,0,0,0,.7-.1.7.7,0,0,0,.285-.336,2.525,2.525,0,0,0,.105-.9V-4.375a9.753,9.753,0,0,0-.07-1.508A.613.613,0,0,0,27.2-6.23a.485.485,0,0,0-.32-.1,1.564,1.564,0,0,0-.531.117l-.109-.281L28.4-7.367Zm6.031,6.336a11.8,11.8,0,0,1-1.383.984,2.113,2.113,0,0,1-.9.2A1.61,1.61,0,0,1,31.27-.359a1.864,1.864,0,0,1-.48-1.336,1.7,1.7,0,0,1,.234-.906,3.1,3.1,0,0,1,1.113-1,17.321,17.321,0,0,1,2.637-1.141v-.281a2.333,2.333,0,0,0-.34-1.469,1.227,1.227,0,0,0-.988-.4,1.11,1.11,0,0,0-.781.266.8.8,0,0,0-.3.609l.016.453a.779.779,0,0,1-.184.555.629.629,0,0,1-.48.2.608.608,0,0,1-.473-.2.8.8,0,0,1-.184-.555A1.6,1.6,0,0,1,31.75-6.8a2.969,2.969,0,0,1,1.93-.562,3.347,3.347,0,0,1,1.563.32,1.473,1.473,0,0,1,.68.758,4.27,4.27,0,0,1,.141,1.375v2.43A11.128,11.128,0,0,0,36.1-1.23a.526.526,0,0,0,.129.309.306.306,0,0,0,.207.078A.426.426,0,0,0,36.656-.9a4.88,4.88,0,0,0,.633-.57v.438Q36.414.141,35.617.141a.76.76,0,0,1-.609-.266A1.435,1.435,0,0,1,34.773-1.031Zm0-.508V-4.266A15.427,15.427,0,0,0,33.25-3.6a2.631,2.631,0,0,0-.883.719,1.389,1.389,0,0,0-.266.82,1.339,1.339,0,0,0,.336.934,1.018,1.018,0,0,0,.773.371A2.834,2.834,0,0,0,34.773-1.539Zm5.141-5.828v1.609q.9-1.609,1.844-1.609a1,1,0,0,1,.711.262.8.8,0,0,1,.281.605.715.715,0,0,1-.2.516.649.649,0,0,1-.484.211,1.032,1.032,0,0,1-.613-.27,1.013,1.013,0,0,0-.5-.27.465.465,0,0,0-.3.156A3.759,3.759,0,0,0,39.914-5.1v3.43a2.123,2.123,0,0,0,.148.9.809.809,0,0,0,.359.352,1.579,1.579,0,0,0,.742.141V0H37.5V-.281a1.521,1.521,0,0,0,.813-.172.667.667,0,0,0,.273-.4,4.018,4.018,0,0,0,.039-.758V-4.383a11.525,11.525,0,0,0-.051-1.488.583.583,0,0,0-.187-.348.527.527,0,0,0-.34-.109,1.545,1.545,0,0,0-.547.117l-.078-.281,2.164-.875Z" transform="translate(469 10060)" fill="#12263f"/>
    <g id="Rectángulo_402254" data-name="Rectángulo 402254" transform="translate(548 10039)" fill="#efefef" stroke="#707070" stroke-width="1">
      <rect width="106" height="32" stroke="none"/>
      <rect x="0.5" y="0.5" width="105" height="31" fill="none"/>
    </g>
    <path id="Trazado_878662" data-name="Trazado 878662" d="M10.813,0H7.984L4.4-4.953q-.4.016-.648.016-.1,0-.219,0t-.242-.012v3.078A2.163,2.163,0,0,0,3.508-.633,1.113,1.113,0,0,0,4.4-.289h.414V0H.273V-.289h.4a1.065,1.065,0,0,0,.961-.437A2.466,2.466,0,0,0,1.8-1.875V-8.719a2.163,2.163,0,0,0-.219-1.242A1.148,1.148,0,0,0,.672-10.3h-.4v-.289H4.133a9.178,9.178,0,0,1,2.488.246,2.847,2.847,0,0,1,1.359.906,2.358,2.358,0,0,1,.559,1.574,2.474,2.474,0,0,1-.637,1.7A3.6,3.6,0,0,1,5.93-5.156L8.117-2.117A5.436,5.436,0,0,0,9.406-.727a3.247,3.247,0,0,0,1.406.438ZM3.289-5.445q.148,0,.258,0t.18,0a3.442,3.442,0,0,0,2.285-.656,2.1,2.1,0,0,0,.77-1.672A2.182,2.182,0,0,0,6.16-9.379,2.223,2.223,0,0,0,4.516-10a6.9,6.9,0,0,0-1.227.148Zm9.086.984a3.676,3.676,0,0,0,.773,2.5,2.359,2.359,0,0,0,1.836.906,1.991,1.991,0,0,0,1.223-.387,2.854,2.854,0,0,0,.871-1.324l.242.156A3.725,3.725,0,0,1,16.367-.66a2.545,2.545,0,0,1-1.977.879,2.886,2.886,0,0,1-2.207-1,3.846,3.846,0,0,1-.918-2.7,4.081,4.081,0,0,1,.941-2.863A3.07,3.07,0,0,1,14.57-7.375a2.642,2.642,0,0,1,1.977.793,2.907,2.907,0,0,1,.773,2.121Zm0-.453h3.313a3.062,3.062,0,0,0-.164-.969,1.551,1.551,0,0,0-.582-.687,1.467,1.467,0,0,0-.809-.25,1.612,1.612,0,0,0-1.16.5A2.187,2.187,0,0,0,12.375-4.914ZM22.9-7.367V-4.93h-.258a3.167,3.167,0,0,0-.762-1.562A1.713,1.713,0,0,0,20.7-6.906a1.306,1.306,0,0,0-.883.289.839.839,0,0,0-.336.641,1.163,1.163,0,0,0,.25.75,2.78,2.78,0,0,0,.984.68l1.141.555a2.318,2.318,0,0,1,1.586,2.039A1.926,1.926,0,0,1,22.7-.379a2.56,2.56,0,0,1-1.652.6,5.683,5.683,0,0,1-1.5-.234,1.524,1.524,0,0,0-.422-.078.311.311,0,0,0-.281.2h-.258V-2.445h.258A2.908,2.908,0,0,0,19.68-.8a2.017,2.017,0,0,0,1.383.555,1.238,1.238,0,0,0,.879-.316,1,1,0,0,0,.34-.762,1.212,1.212,0,0,0-.379-.906,6.618,6.618,0,0,0-1.512-.93,4.479,4.479,0,0,1-1.484-1.016A1.76,1.76,0,0,1,18.555-5.3a1.984,1.984,0,0,1,.605-1.477,2.142,2.142,0,0,1,1.566-.594,3.682,3.682,0,0,1,1.023.18,2.417,2.417,0,0,0,.531.117.311.311,0,0,0,.2-.055.75.75,0,0,0,.164-.242Zm3.68-2.141v2.352H28.25v.547H26.578v4.641a1.559,1.559,0,0,0,.2.938.633.633,0,0,0,.512.242.9.9,0,0,0,.5-.16,1.03,1.03,0,0,0,.375-.473h.3A2.451,2.451,0,0,1,27.7-.27a1.669,1.669,0,0,1-1.031.387,1.386,1.386,0,0,1-.7-.2,1.2,1.2,0,0,1-.508-.57A2.994,2.994,0,0,1,25.289-1.8V-6.609H24.156v-.258a2.966,2.966,0,0,0,.879-.582,4.628,4.628,0,0,0,.8-.973,8.75,8.75,0,0,0,.5-1.086ZM33-1.031a11.8,11.8,0,0,1-1.383.984,2.113,2.113,0,0,1-.9.2A1.61,1.61,0,0,1,29.5-.359a1.864,1.864,0,0,1-.48-1.336A1.7,1.7,0,0,1,29.25-2.6a3.1,3.1,0,0,1,1.113-1A17.322,17.322,0,0,1,33-4.742v-.281a2.333,2.333,0,0,0-.34-1.469,1.227,1.227,0,0,0-.988-.4,1.11,1.11,0,0,0-.781.266.8.8,0,0,0-.3.609l.016.453a.779.779,0,0,1-.184.555.629.629,0,0,1-.48.2.608.608,0,0,1-.473-.2.8.8,0,0,1-.184-.555A1.6,1.6,0,0,1,29.977-6.8a2.969,2.969,0,0,1,1.93-.562,3.347,3.347,0,0,1,1.563.32,1.473,1.473,0,0,1,.68.758,4.27,4.27,0,0,1,.141,1.375v2.43a11.128,11.128,0,0,0,.039,1.254.526.526,0,0,0,.129.309.306.306,0,0,0,.207.078A.426.426,0,0,0,34.883-.9a4.88,4.88,0,0,0,.633-.57v.438Q34.641.141,33.844.141a.76.76,0,0,1-.609-.266A1.435,1.435,0,0,1,33-1.031Zm0-.508V-4.266a15.427,15.427,0,0,0-1.523.664,2.631,2.631,0,0,0-.883.719,1.389,1.389,0,0,0-.266.82,1.339,1.339,0,0,0,.336.934,1.018,1.018,0,0,0,.773.371A2.834,2.834,0,0,0,33-1.539Zm5.008-4.383A2.857,2.857,0,0,1,40.25-7.367a2.481,2.481,0,0,1,1.922.941,3.785,3.785,0,0,1,.82,2.574,3.974,3.974,0,0,1-1.266,3.07,3.491,3.491,0,0,1-2.422,1,3.812,3.812,0,0,1-1.27-.227,5.827,5.827,0,0,1-1.316-.68V-8.1a10.71,10.71,0,0,0-.059-1.5.657.657,0,0,0-.184-.383.479.479,0,0,0-.312-.1,1.6,1.6,0,0,0-.547.125l-.109-.273,2.148-.875h.352Zm0,.5v4.281a3.009,3.009,0,0,0,.824.59,2.035,2.035,0,0,0,.871.2,1.711,1.711,0,0,0,1.324-.781,3.622,3.622,0,0,0,.613-2.273,3.225,3.225,0,0,0-.613-2.113,1.788,1.788,0,0,0-1.395-.738,1.81,1.81,0,0,0-.828.211A3.59,3.59,0,0,0,38.008-5.422Zm8.5-5.687v9.492a2.6,2.6,0,0,0,.1.891.692.692,0,0,0,.3.332,1.729,1.729,0,0,0,.758.113V0H44.156V-.281a1.516,1.516,0,0,0,.672-.1.677.677,0,0,0,.281-.336,2.616,2.616,0,0,0,.1-.9v-6.5a11.266,11.266,0,0,0-.055-1.488.651.651,0,0,0-.176-.379.464.464,0,0,0-.309-.1,1.459,1.459,0,0,0-.516.125l-.133-.273,2.133-.875ZM49.7-4.461a3.676,3.676,0,0,0,.773,2.5,2.359,2.359,0,0,0,1.836.906,1.991,1.991,0,0,0,1.223-.387A2.854,2.854,0,0,0,54.4-2.766l.242.156A3.725,3.725,0,0,1,53.688-.66a2.545,2.545,0,0,1-1.977.879,2.886,2.886,0,0,1-2.207-1,3.846,3.846,0,0,1-.918-2.7,4.081,4.081,0,0,1,.941-2.863,3.07,3.07,0,0,1,2.363-1.027,2.642,2.642,0,0,1,1.977.793,2.907,2.907,0,0,1,.773,2.121Zm0-.453h3.313a3.062,3.062,0,0,0-.164-.969,1.551,1.551,0,0,0-.582-.687,1.467,1.467,0,0,0-.809-.25,1.612,1.612,0,0,0-1.16.5A2.187,2.187,0,0,0,49.7-4.914Zm11.977,2.2A3.876,3.876,0,0,1,60.539-.543a2.724,2.724,0,0,1-1.867.762A2.759,2.759,0,0,1,56.547-.8a4.022,4.022,0,0,1-.906-2.766,3.814,3.814,0,0,1,1-2.742,3.21,3.21,0,0,1,2.41-1.055,2.642,2.642,0,0,1,1.734.559,1.545,1.545,0,0,1,.68,1.16.635.635,0,0,1-.191.48.742.742,0,0,1-.535.184.832.832,0,0,1-.7-.3,1.234,1.234,0,0,1-.176-.625,1.024,1.024,0,0,0-.316-.7,1.128,1.128,0,0,0-.758-.234,1.55,1.55,0,0,0-1.258.578,3.075,3.075,0,0,0-.633,2.023,4.1,4.1,0,0,0,.629,2.262,1.931,1.931,0,0,0,1.7.98,2.054,2.054,0,0,0,1.375-.523,3.533,3.533,0,0,0,.836-1.3ZM63.9-4.461a3.676,3.676,0,0,0,.773,2.5,2.359,2.359,0,0,0,1.836.906,1.991,1.991,0,0,0,1.223-.387A2.854,2.854,0,0,0,68.6-2.766l.242.156A3.725,3.725,0,0,1,67.891-.66a2.545,2.545,0,0,1-1.977.879,2.886,2.886,0,0,1-2.207-1,3.846,3.846,0,0,1-.918-2.7,4.081,4.081,0,0,1,.941-2.863,3.07,3.07,0,0,1,2.363-1.027,2.642,2.642,0,0,1,1.977.793,2.907,2.907,0,0,1,.773,2.121Zm0-.453h3.313a3.062,3.062,0,0,0-.164-.969,1.551,1.551,0,0,0-.582-.687,1.467,1.467,0,0,0-.809-.25,1.612,1.612,0,0,0-1.16.5A2.187,2.187,0,0,0,63.9-4.914Zm7.992-2.453v1.609q.9-1.609,1.844-1.609a1,1,0,0,1,.711.262.8.8,0,0,1,.281.605.715.715,0,0,1-.2.516.649.649,0,0,1-.484.211,1.032,1.032,0,0,1-.613-.27,1.013,1.013,0,0,0-.5-.27.465.465,0,0,0-.3.156A3.759,3.759,0,0,0,71.891-5.1v3.43a2.123,2.123,0,0,0,.148.9.809.809,0,0,0,.359.352,1.579,1.579,0,0,0,.742.141V0H69.477V-.281a1.521,1.521,0,0,0,.813-.172.667.667,0,0,0,.273-.4,4.019,4.019,0,0,0,.039-.758V-4.383a11.526,11.526,0,0,0-.051-1.488.583.583,0,0,0-.187-.348.527.527,0,0,0-.34-.109,1.545,1.545,0,0,0-.547.117L69.4-6.492l2.164-.875Z" transform="translate(566 10060)" fill="#12263f"/>
  </g>
</svg>
