<svg id="_18" data-name="18" xmlns="http://www.w3.org/2000/svg" width="64" height="64" viewBox="0 0 64 64">
  <path id="Trazado_877250" data-name="Trazado 877250" d="M63,11V61a2.006,2.006,0,0,1-2,2H3a2.006,2.006,0,0,1-2-2V11Z" fill="#dfe1ea"/>
  <path id="Trazado_877251" data-name="Trazado 877251" d="M61,1a2.006,2.006,0,0,1,2,2v8H1V3A2.006,2.006,0,0,1,3,1Z" fill="#adb2c7"/>
  <path id="Trazado_877252" data-name="Trazado 877252" d="M39.6,21C32,21,32,19,24.4,19s-7.6,2-15.2,2A26.743,26.743,0,0,1,1,19.844v8A26.743,26.743,0,0,0,9.2,29c7.6,0,7.6-2,15.2-2s7.6,2,15.2,2,7.6-2,15.2-2A26.787,26.787,0,0,1,63,28.157v-8A26.787,26.787,0,0,0,54.8,19C47.2,19,47.2,21,39.6,21Z" fill="#cdd2e1"/>
  <path id="Trazado_877253" data-name="Trazado 877253" d="M1,11v8.844A26.743,26.743,0,0,0,9.2,21c7.6,0,7.6-2,15.2-2s7.6,2,15.2,2,7.6-2,15.2-2A26.787,26.787,0,0,1,63,20.157V11Z" fill="#f6fafd"/>
  <rect id="Rectángulo_402352" data-name="Rectángulo 402352" width="22" height="23" rx="1.576" transform="translate(8 23)" fill="#adb2c7"/>
  <rect id="Rectángulo_402353" data-name="Rectángulo 402353" width="20" height="14" transform="translate(7 29)" fill="#fff"/>
  <rect id="Rectángulo_402354" data-name="Rectángulo 402354" width="20" height="8" transform="translate(7 21)" fill="#8dd5f6"/>
  <rect id="Rectángulo_402355" data-name="Rectángulo 402355" width="14" height="8" transform="translate(10 32)" fill="#dfe1ea"/>
  <rect id="Rectángulo_402356" data-name="Rectángulo 402356" width="2" height="2" transform="translate(5 5)" fill="#fff"/>
  <rect id="Rectángulo_402357" data-name="Rectángulo 402357" width="45" height="2" transform="translate(14 5)" fill="#fff"/>
  <rect id="Rectángulo_402358" data-name="Rectángulo 402358" width="2" height="2" transform="translate(10 24)" fill="#fff"/>
  <rect id="Rectángulo_402359" data-name="Rectángulo 402359" width="2" height="2" transform="translate(14 24)" fill="#fff"/>
  <path id="Trazado_877254" data-name="Trazado 877254" d="M61,0H3A3,3,0,0,0,0,3V61a3,3,0,0,0,3,3H61a3,3,0,0,0,3-3V3A3,3,0,0,0,61,0ZM3,2H61a1,1,0,0,1,1,1v7H2V3A1,1,0,0,1,3,2ZM61,62H3a1,1,0,0,1-1-1V12H62V61A1,1,0,0,1,61,62Z"/>
  <rect id="Rectángulo_402360" data-name="Rectángulo 402360" width="2" height="2" transform="translate(9 5)"/>
  <path id="Trazado_877255" data-name="Trazado 877255" d="M8,30H26v1h2V21a1,1,0,0,0-1-1H7a1,1,0,0,0-1,1V43a1,1,0,0,0,1,1H20V42H8Zm18-8v6H8V22Z"/>
  <path id="Trazado_877256" data-name="Trazado 877256" d="M14.293,32.293l-3,3a1,1,0,0,0,0,1.414l3,3,1.414-1.414L13.414,36l2.293-2.293Z"/>
  <path id="Trazado_877257" data-name="Trazado 877257" d="M19.707,32.293l-1.414,1.414L20.586,36l-2.293,2.293,1.414,1.414,3-3a1,1,0,0,0,0-1.414Z"/>
  <rect id="Rectángulo_402361" data-name="Rectángulo 402361" width="11" height="2" transform="translate(31 29)"/>
  <rect id="Rectángulo_402362" data-name="Rectángulo 402362" width="6" height="2" transform="translate(31 25)"/>
  <path id="Trazado_877258" data-name="Trazado 877258" d="M53,35a3,3,0,0,1,3,3h2a5,5,0,1,0-5,5,3,3,0,1,1-3,3H48a5,5,0,1,0,5-5,3,3,0,0,1,0-6Z"/>
  <path id="Trazado_877259" data-name="Trazado 877259" d="M41,35a3,3,0,0,1,3,3h2a5,5,0,1,0-5,5,3,3,0,1,1-3,3H36a5,5,0,1,0,5-5,3,3,0,0,1,0-6Z"/>
  <path id="Trazado_877260" data-name="Trazado 877260" d="M29,35a3,3,0,0,1,3,3h2a5,5,0,0,0-10,0v8a5,5,0,0,0,10,0H32a3,3,0,0,1-6,0V38A3,3,0,0,1,29,35Z"/>
</svg>
