<svg xmlns="http://www.w3.org/2000/svg" width="530" height="336" viewBox="0 0 530 336">
  <g id="_19" data-name="19" transform="translate(-535 -784)">
    <rect id="Rectángulo_400978" data-name="Rectángulo 400978" width="127" height="50" transform="translate(737 784)" fill="#debefb"/>
    <path id="Trazado_878663" data-name="Trazado 878663" d="M9.945-3.789A4.025,4.025,0,0,1,8.59-.9,4.76,4.76,0,0,1,5.367.156,4.28,4.28,0,0,1,1.926-1.316,6.038,6.038,0,0,1,.672-5.359v-.7A6.819,6.819,0,0,1,1.25-8.945,4.332,4.332,0,0,1,2.9-10.863a4.629,4.629,0,0,1,2.5-.668A4.637,4.637,0,0,1,8.57-10.477,4.326,4.326,0,0,1,9.961-7.516H7.617A2.376,2.376,0,0,0,7-9.113a2.271,2.271,0,0,0-1.605-.5,1.991,1.991,0,0,0-1.754.84,4.707,4.707,0,0,0-.6,2.605V-5.3a5.038,5.038,0,0,0,.559,2.7,1.954,1.954,0,0,0,1.762.852,2.314,2.314,0,0,0,1.621-.5A2.241,2.241,0,0,0,7.6-3.789Zm7.438.8A1.2,1.2,0,0,0,16.914-4a6.148,6.148,0,0,0-1.687-.75,11.963,11.963,0,0,1-1.93-.777,3.153,3.153,0,0,1-1.937-2.82A2.747,2.747,0,0,1,11.879-10a3.389,3.389,0,0,1,1.492-1.129,5.616,5.616,0,0,1,2.184-.406,5.112,5.112,0,0,1,2.172.441,3.458,3.458,0,0,1,1.48,1.246,3.261,3.261,0,0,1,.527,1.828H17.391A1.534,1.534,0,0,0,16.9-9.23a2.023,2.023,0,0,0-1.383-.434A2.162,2.162,0,0,0,14.18-9.3a1.146,1.146,0,0,0-.477.957,1.1,1.1,0,0,0,.559.93,6.311,6.311,0,0,0,1.645.7A7.106,7.106,0,0,1,18.82-5.219,2.972,2.972,0,0,1,19.734-3,2.737,2.737,0,0,1,18.617-.684a4.891,4.891,0,0,1-3.008.84,5.808,5.808,0,0,1-2.391-.48,3.783,3.783,0,0,1-1.645-1.316,3.371,3.371,0,0,1-.566-1.937h2.352q0,1.883,2.25,1.883a2.189,2.189,0,0,0,1.3-.34A1.106,1.106,0,0,0,17.383-2.984Zm9.836,0A1.2,1.2,0,0,0,26.75-4a6.148,6.148,0,0,0-1.687-.75,11.963,11.963,0,0,1-1.93-.777A3.153,3.153,0,0,1,21.2-8.352,2.747,2.747,0,0,1,21.715-10a3.389,3.389,0,0,1,1.492-1.129,5.616,5.616,0,0,1,2.184-.406,5.112,5.112,0,0,1,2.172.441,3.458,3.458,0,0,1,1.48,1.246,3.261,3.261,0,0,1,.527,1.828H27.227a1.534,1.534,0,0,0-.492-1.215,2.023,2.023,0,0,0-1.383-.434,2.162,2.162,0,0,0-1.336.363,1.146,1.146,0,0,0-.477.957,1.1,1.1,0,0,0,.559.93,6.311,6.311,0,0,0,1.645.7,7.106,7.106,0,0,1,2.914,1.492A2.972,2.972,0,0,1,29.57-3,2.737,2.737,0,0,1,28.453-.684a4.891,4.891,0,0,1-3.008.84,5.808,5.808,0,0,1-2.391-.48A3.783,3.783,0,0,1,21.41-1.641a3.371,3.371,0,0,1-.566-1.937H23.2q0,1.883,2.25,1.883a2.189,2.189,0,0,0,1.3-.34A1.106,1.106,0,0,0,27.219-2.984Z" transform="translate(785 814)" fill="#12263f"/>
    <path id="Trazado_873125" data-name="Trazado 873125" d="M-7566-7530v139.629" transform="translate(8366.5 8364)" fill="none" stroke="#000" stroke-width="1"/>
    <rect id="Rectángulo_400979" data-name="Rectángulo 400979" width="173" height="46" transform="translate(714 884)" fill="#00ffdf"/>
    <path id="Trazado_878664" data-name="Trazado 878664" d="M9.945-3.789A4.025,4.025,0,0,1,8.59-.9,4.76,4.76,0,0,1,5.367.156,4.28,4.28,0,0,1,1.926-1.316,6.038,6.038,0,0,1,.672-5.359v-.7A6.819,6.819,0,0,1,1.25-8.945,4.332,4.332,0,0,1,2.9-10.863a4.629,4.629,0,0,1,2.5-.668A4.637,4.637,0,0,1,8.57-10.477,4.326,4.326,0,0,1,9.961-7.516H7.617A2.376,2.376,0,0,0,7-9.113a2.271,2.271,0,0,0-1.605-.5,1.991,1.991,0,0,0-1.754.84,4.707,4.707,0,0,0-.6,2.605V-5.3a5.038,5.038,0,0,0,.559,2.7,1.954,1.954,0,0,0,1.762.852,2.314,2.314,0,0,0,1.621-.5A2.241,2.241,0,0,0,7.6-3.789ZM13.719,0H11.453V-12h2.266Zm6.758,0a2.507,2.507,0,0,1-.227-.758,2.732,2.732,0,0,1-2.133.914,3,3,0,0,1-2.059-.719,2.312,2.312,0,0,1-.816-1.812,2.389,2.389,0,0,1,1-2.062,4.915,4.915,0,0,1,2.879-.727h1.039v-.484a1.393,1.393,0,0,0-.3-.937,1.183,1.183,0,0,0-.949-.352,1.345,1.345,0,0,0-.895.273.929.929,0,0,0-.324.75H15.43a2.268,2.268,0,0,1,.453-1.359,3,3,0,0,1,1.281-.98,4.669,4.669,0,0,1,1.859-.355,3.689,3.689,0,0,1,2.48.785,2.747,2.747,0,0,1,.918,2.207v3.664a4.041,4.041,0,0,0,.336,1.82V0ZM18.609-1.57a1.945,1.945,0,0,0,.922-.223,1.462,1.462,0,0,0,.625-.6V-3.844h-.844q-1.7,0-1.8,1.172l-.008.133a.9.9,0,0,0,.3.7A1.153,1.153,0,0,0,18.609-1.57Zm10.125-.766a.727.727,0,0,0-.41-.652,4.659,4.659,0,0,0-1.316-.426q-3.016-.633-3.016-2.562a2.323,2.323,0,0,1,.934-1.879,3.766,3.766,0,0,1,2.441-.754,4.053,4.053,0,0,1,2.574.758,2.388,2.388,0,0,1,.965,1.969H28.648a1.092,1.092,0,0,0-.312-.8A1.322,1.322,0,0,0,27.359-7a1.351,1.351,0,0,0-.883.258.814.814,0,0,0-.312.656.7.7,0,0,0,.355.605,3.657,3.657,0,0,0,1.2.4,9.8,9.8,0,0,1,1.422.379A2.336,2.336,0,0,1,30.93-2.43a2.2,2.2,0,0,1-.992,1.871,4.28,4.28,0,0,1-2.562.715,4.47,4.47,0,0,1-1.887-.379A3.166,3.166,0,0,1,24.2-1.262a2.414,2.414,0,0,1-.469-1.426h2.141a1.179,1.179,0,0,0,.445.922,1.766,1.766,0,0,0,1.109.32,1.635,1.635,0,0,0,.98-.246A.766.766,0,0,0,28.734-2.336ZM36.273.156A4.15,4.15,0,0,1,33.246-.984a4.054,4.054,0,0,1-1.168-3.039v-.219A5.106,5.106,0,0,1,32.57-6.52a3.612,3.612,0,0,1,1.395-1.547,3.914,3.914,0,0,1,2.059-.543,3.508,3.508,0,0,1,2.73,1.094,4.444,4.444,0,0,1,1,3.1v.922H34.367a2.1,2.1,0,0,0,.66,1.328,2,2,0,0,0,1.395.5,2.437,2.437,0,0,0,2.039-.945L39.57-1.367A3.389,3.389,0,0,1,38.2-.246,4.511,4.511,0,0,1,36.273.156Zm-.258-6.945a1.411,1.411,0,0,0-1.09.455,2.357,2.357,0,0,0-.535,1.3h3.141v-.181a1.681,1.681,0,0,0-.406-1.165A1.456,1.456,0,0,0,36.016-6.789Zm9.594,4.453a.727.727,0,0,0-.41-.652,4.659,4.659,0,0,0-1.316-.426q-3.016-.633-3.016-2.562A2.323,2.323,0,0,1,41.8-7.855a3.766,3.766,0,0,1,2.441-.754,4.053,4.053,0,0,1,2.574.758,2.388,2.388,0,0,1,.965,1.969H45.523a1.092,1.092,0,0,0-.312-.8A1.322,1.322,0,0,0,44.234-7a1.351,1.351,0,0,0-.883.258.814.814,0,0,0-.312.656.7.7,0,0,0,.355.605,3.657,3.657,0,0,0,1.2.4,9.8,9.8,0,0,1,1.422.379A2.336,2.336,0,0,1,47.8-2.43a2.2,2.2,0,0,1-.992,1.871A4.28,4.28,0,0,1,44.25.156a4.47,4.47,0,0,1-1.887-.379A3.166,3.166,0,0,1,41.07-1.262,2.414,2.414,0,0,1,40.6-2.687h2.141a1.179,1.179,0,0,0,.445.922,1.766,1.766,0,0,0,1.109.32,1.635,1.635,0,0,0,.98-.246A.766.766,0,0,0,45.609-2.336Z" transform="translate(776 913)" fill="#12263f"/>
    <rect id="Rectángulo_400982" data-name="Rectángulo 400982" width="130" height="46" transform="translate(535 1007)" fill="#aec4fa"/>
    <path id="Trazado_877261" data-name="Trazado 877261" d="M-5839-10666.836v-33.535h400v33.535" transform="translate(6439 11674)" fill="none" stroke="#707070" stroke-width="1"/>
    <path id="Trazado_878666" data-name="Trazado 878666" d="M9.852-10.148H6.313L4.555,0H3.094L4.852-10.148H1.313l.219-1.227H10.07ZM13.867,0a1.894,1.894,0,0,1-.055-.445l.023-.445A3.465,3.465,0,0,1,11.367.156,2.526,2.526,0,0,1,9.551-.551a2.14,2.14,0,0,1-.637-1.73,2.6,2.6,0,0,1,1.176-2.1,5.005,5.005,0,0,1,2.887-.754l1.477.008.094-.672A1.545,1.545,0,0,0,14.254-7a1.414,1.414,0,0,0-1.113-.457,2.181,2.181,0,0,0-1.285.355,1.513,1.513,0,0,0-.684.98L9.75-6.109a2.266,2.266,0,0,1,.578-1.316,3.363,3.363,0,0,1,1.3-.891,4.215,4.215,0,0,1,1.648-.3,2.8,2.8,0,0,1,2.055.8,2.484,2.484,0,0,1,.617,2.043l-.687,4.188-.039.6a2.949,2.949,0,0,0,.094.852L15.3,0ZM11.648-1.094a2.466,2.466,0,0,0,1.285-.324,3.254,3.254,0,0,0,1.043-.941l.3-1.742-1.07-.008a4.054,4.054,0,0,0-2.047.422,1.554,1.554,0,0,0-.8,1.2,1.21,1.21,0,0,0,.277.988A1.321,1.321,0,0,0,11.648-1.094Zm5.984-3.148a6.889,6.889,0,0,1,.746-2.4,3.9,3.9,0,0,1,1.359-1.508,3.151,3.151,0,0,1,1.754-.465,2.6,2.6,0,0,1,2.219,1.109l.281-.945h1.3L23.883-.18A4.113,4.113,0,0,1,22.57,2.41a3.7,3.7,0,0,1-2.68.926,3.8,3.8,0,0,1-1.645-.406,3.127,3.127,0,0,1-1.238-1.07l.8-.867a2.419,2.419,0,0,0,2.023,1.164,2.425,2.425,0,0,0,1.707-.562,2.9,2.9,0,0,0,.926-1.687l.156-.75a3.2,3.2,0,0,1-2.414,1A2.486,2.486,0,0,1,18.84-.27a2.589,2.589,0,0,1-.9-1.164,4.759,4.759,0,0,1-.352-1.7A8.733,8.733,0,0,1,17.633-4.242Zm1.367.8a2.974,2.974,0,0,0,.387,1.728,1.461,1.461,0,0,0,1.238.644A2.561,2.561,0,0,0,22.8-2.311l.664-3.878a1.776,1.776,0,0,0-1.7-1.2,2.194,2.194,0,0,0-1.887.936,4.878,4.878,0,0,0-.871,2.614ZM31.242-2.289q.117-.875-.961-1.234l-1.469-.43q-1.859-.641-1.8-2.125a2.341,2.341,0,0,1,1.02-1.832,3.631,3.631,0,0,1,2.27-.7,3.027,3.027,0,0,1,2.082.746,2.363,2.363,0,0,1,.77,1.9L31.75-5.969A1.319,1.319,0,0,0,31.352-7a1.576,1.576,0,0,0-1.1-.414,2.059,2.059,0,0,0-1.266.359,1.316,1.316,0,0,0-.57.922q-.1.734.9,1.07l.711.2a4.577,4.577,0,0,1,2.063.977A1.865,1.865,0,0,1,32.648-2.4a2.37,2.37,0,0,1-.516,1.375,2.948,2.948,0,0,1-1.25.895,4.18,4.18,0,0,1-1.664.285A3.3,3.3,0,0,1,27-.629a2.427,2.427,0,0,1-.844-1.98L27.57-2.6a1.5,1.5,0,0,0,.453,1.141,1.732,1.732,0,0,0,1.242.43A2.436,2.436,0,0,0,30.6-1.355,1.247,1.247,0,0,0,31.242-2.289Z" transform="translate(583 1036)" fill="#12263f"/>
    <rect id="Rectángulo_402363" data-name="Rectángulo 402363" width="130" height="46" transform="translate(935 1007)" fill="#aec4fa"/>
    <path id="Trazado_878665" data-name="Trazado 878665" d="M7.6-2.977H2.836L1.766,0H.219L4.563-11.375H5.875L10.227,0H8.688ZM3.289-4.2H7.156L5.219-9.523Zm10.07-6.3v2.047h1.578v1.117H13.359v5.249a1.173,1.173,0,0,0,.211.763.888.888,0,0,0,.719.254,3.5,3.5,0,0,0,.688-.094V0a4.215,4.215,0,0,1-1.109.155A1.8,1.8,0,0,1,12.406-.43a2.517,2.517,0,0,1-.492-1.664V-7.336H10.375V-8.453h1.539V-10.5Zm7.352,3.344A4.331,4.331,0,0,0,20-7.211,1.9,1.9,0,0,0,18.07-6V0H16.625V-8.453h1.406l.023.977A2.251,2.251,0,0,1,20.07-8.609a1.477,1.477,0,0,1,.641.109ZM23.609,0H22.164V-8.453h1.445ZM22.047-10.7a.863.863,0,0,1,.215-.594.807.807,0,0,1,.637-.242.819.819,0,0,1,.641.242.854.854,0,0,1,.219.594.826.826,0,0,1-.219.586.834.834,0,0,1-.641.234.821.821,0,0,1-.637-.234A.834.834,0,0,1,22.047-10.7ZM33.078-4.133a5.026,5.026,0,0,1-.891,3.113A2.846,2.846,0,0,1,29.8.156,2.947,2.947,0,0,1,27.32-.977L27.25,0H25.922V-12h1.445v4.477a2.93,2.93,0,0,1,2.414-1.086A2.863,2.863,0,0,1,32.2-7.445a5.177,5.177,0,0,1,.879,3.188ZM31.633-4.3a3.906,3.906,0,0,0-.57-2.281,1.888,1.888,0,0,0-1.641-.8,2.122,2.122,0,0,0-2.055,1.328V-2.4a2.181,2.181,0,0,0,2.07,1.328,1.878,1.878,0,0,0,1.617-.8A4.153,4.153,0,0,0,31.633-4.3ZM40.117-.836a3.07,3.07,0,0,1-2.477.992,2.628,2.628,0,0,1-2.059-.785,3.4,3.4,0,0,1-.715-2.324v-5.5h1.445v5.461q0,1.922,1.563,1.922a2.163,2.163,0,0,0,2.2-1.234V-8.453h1.445V0H40.148ZM45.68-10.5v2.047h1.578v1.117H45.68v5.249a1.173,1.173,0,0,0,.211.763.888.888,0,0,0,.719.254,3.5,3.5,0,0,0,.688-.094V0a4.215,4.215,0,0,1-1.109.155A1.8,1.8,0,0,1,44.727-.43a2.517,2.517,0,0,1-.492-1.664V-7.336H42.7V-8.453h1.539V-10.5Zm2.727,6.2a4.993,4.993,0,0,1,.488-2.234A3.643,3.643,0,0,1,50.254-8.07a3.7,3.7,0,0,1,1.988-.539,3.565,3.565,0,0,1,2.793,1.2A4.6,4.6,0,0,1,56.1-4.234v.1a5.036,5.036,0,0,1-.473,2.215A3.589,3.589,0,0,1,54.277-.391a3.743,3.743,0,0,1-2.02.547,3.556,3.556,0,0,1-2.785-1.2A4.575,4.575,0,0,1,48.406-4.2Zm1.453.172a3.616,3.616,0,0,0,.652,2.258,2.088,2.088,0,0,0,1.746.852,2.075,2.075,0,0,0,1.75-.863A3.955,3.955,0,0,0,54.656-4.3,3.61,3.61,0,0,0,54-6.559a2.1,2.1,0,0,0-1.754-.863,2.075,2.075,0,0,0-1.727.852A3.925,3.925,0,0,0,49.859-4.133ZM62.836-2.242a1.064,1.064,0,0,0-.441-.91,4.249,4.249,0,0,0-1.539-.559,7.277,7.277,0,0,1-1.742-.562,2.479,2.479,0,0,1-.953-.781,1.869,1.869,0,0,1-.309-1.078,2.193,2.193,0,0,1,.879-1.758,3.432,3.432,0,0,1,2.246-.719,3.532,3.532,0,0,1,2.332.742,2.357,2.357,0,0,1,.895,1.9H62.75a1.3,1.3,0,0,0-.5-1.023,1.888,1.888,0,0,0-1.27-.43,1.976,1.976,0,0,0-1.234.344,1.082,1.082,0,0,0-.445.9.877.877,0,0,0,.414.789,5.1,5.1,0,0,0,1.5.508,7.8,7.8,0,0,1,1.754.578,2.558,2.558,0,0,1,1,.809,1.988,1.988,0,0,1,.324,1.152,2.163,2.163,0,0,1-.906,1.816,3.8,3.8,0,0,1-2.352.684,4.257,4.257,0,0,1-1.8-.359,2.922,2.922,0,0,1-1.223-1A2.42,2.42,0,0,1,57.563-2.6h1.445a1.5,1.5,0,0,0,.582,1.152,2.258,2.258,0,0,0,1.434.426,2.331,2.331,0,0,0,1.316-.332A1.02,1.02,0,0,0,62.836-2.242Z" transform="translate(968 1036)" fill="#12263f"/>
    <rect id="Rectángulo_402364" data-name="Rectángulo 402364" width="130" height="46" transform="translate(735 1074)" fill="#beb4d0"/>
    <path id="Trazado_878667" data-name="Trazado 878667" d="M2.82-4.453V0H1.32V-11.375h4.2a4.215,4.215,0,0,1,2.926.953A3.231,3.231,0,0,1,9.5-7.9,3.189,3.189,0,0,1,8.465-5.348,4.4,4.4,0,0,1,5.5-4.453Zm0-1.227h2.7a2.7,2.7,0,0,0,1.844-.567A2.075,2.075,0,0,0,8-7.887a2.143,2.143,0,0,0-.641-1.628A2.525,2.525,0,0,0,5.6-10.148H2.82ZM16.406,0a3.036,3.036,0,0,1-.2-.891A3.225,3.225,0,0,1,13.8.156a2.984,2.984,0,0,1-2.051-.707,2.287,2.287,0,0,1-.8-1.793,2.39,2.39,0,0,1,1-2.051,4.733,4.733,0,0,1,2.824-.73H16.18v-.664A1.623,1.623,0,0,0,15.727-7a1.821,1.821,0,0,0-1.336-.449,2.107,2.107,0,0,0-1.3.391,1.151,1.151,0,0,0-.523.945H11.117a2,2,0,0,1,.449-1.223,3.066,3.066,0,0,1,1.219-.934,4.1,4.1,0,0,1,1.691-.344,3.342,3.342,0,0,1,2.289.73,2.635,2.635,0,0,1,.859,2.012v3.891a4.757,4.757,0,0,0,.3,1.852V0Zm-2.4-1.1A2.54,2.54,0,0,0,15.3-1.453a2.127,2.127,0,0,0,.883-.914V-4.1H15.047q-2.656,0-2.656,1.555a1.316,1.316,0,0,0,.453,1.063A1.742,1.742,0,0,0,14.008-1.1ZM15.344-12h1.75L15-9.7l-1.164,0Zm4.2,7.7a4.968,4.968,0,0,1,.914-3.145,2.923,2.923,0,0,1,2.422-1.168A2.908,2.908,0,0,1,25.3-7.516l.07-.937h1.32V-.2a3.439,3.439,0,0,1-.973,2.586,3.589,3.589,0,0,1-2.613.945,4.348,4.348,0,0,1-1.789-.391,3.08,3.08,0,0,1-1.336-1.07L20.727,1A2.826,2.826,0,0,0,23,2.148a2.214,2.214,0,0,0,1.645-.594,2.269,2.269,0,0,0,.59-1.672V-.844a2.971,2.971,0,0,1-2.367,1,2.887,2.887,0,0,1-2.4-1.2A5.224,5.224,0,0,1,19.547-4.3ZM21-4.133a3.79,3.79,0,0,0,.586,2.246,1.9,1.9,0,0,0,1.641.816,2.117,2.117,0,0,0,2.008-1.242V-6.172a2.142,2.142,0,0,0-1.992-1.211,1.921,1.921,0,0,0-1.648.82A4.128,4.128,0,0,0,21-4.133ZM30.438,0H28.992V-8.453h1.445ZM28.875-10.7a.863.863,0,0,1,.215-.594.807.807,0,0,1,.637-.242.819.819,0,0,1,.641.242.854.854,0,0,1,.219.594.826.826,0,0,1-.219.586.834.834,0,0,1-.641.234.821.821,0,0,1-.637-.234A.834.834,0,0,1,28.875-10.7Zm5.242,2.242.047,1.063A3.08,3.08,0,0,1,36.7-8.609q2.68,0,2.7,3.023V0H37.953V-5.594a1.946,1.946,0,0,0-.418-1.352,1.675,1.675,0,0,0-1.277-.437,2.086,2.086,0,0,0-1.234.375,2.546,2.546,0,0,0-.828.984V0H32.75V-8.453ZM46.8,0a3.036,3.036,0,0,1-.2-.891A3.225,3.225,0,0,1,44.188.156a2.984,2.984,0,0,1-2.051-.707,2.287,2.287,0,0,1-.8-1.793,2.39,2.39,0,0,1,1-2.051,4.733,4.733,0,0,1,2.824-.73H46.57v-.664A1.623,1.623,0,0,0,46.117-7a1.821,1.821,0,0,0-1.336-.449,2.107,2.107,0,0,0-1.3.391,1.151,1.151,0,0,0-.523.945H41.508a2,2,0,0,1,.449-1.223,3.066,3.066,0,0,1,1.219-.934,4.1,4.1,0,0,1,1.691-.344,3.342,3.342,0,0,1,2.289.73,2.635,2.635,0,0,1,.859,2.012v3.891a4.757,4.757,0,0,0,.3,1.852V0ZM44.4-1.1a2.54,2.54,0,0,0,1.289-.352,2.127,2.127,0,0,0,.883-.914V-4.1H45.438q-2.656,0-2.656,1.555a1.316,1.316,0,0,0,.453,1.063A1.742,1.742,0,0,0,44.4-1.1Zm17.328-.891,1.625-6.461H64.8L62.336,0H61.164L59.109-6.406,57.109,0H55.938L53.484-8.453h1.438l1.664,6.328,1.969-6.328h1.164ZM69.773.156a3.693,3.693,0,0,1-2.8-1.129A4.19,4.19,0,0,1,65.9-3.992v-.266a5.073,5.073,0,0,1,.48-2.246,3.748,3.748,0,0,1,1.344-1.547,3.378,3.378,0,0,1,1.871-.559,3.166,3.166,0,0,1,2.563,1.086,4.7,4.7,0,0,1,.914,3.109v.6H67.344a3,3,0,0,0,.73,2.02,2.3,2.3,0,0,0,1.777.77,2.517,2.517,0,0,0,1.3-.312,3.259,3.259,0,0,0,.93-.828l.883.688A3.55,3.55,0,0,1,69.773.156Zm-.18-7.578a1.928,1.928,0,0,0-1.469.637A3.1,3.1,0,0,0,67.391-5h4.234v-.109a2.753,2.753,0,0,0-.594-1.707A1.815,1.815,0,0,0,69.594-7.422ZM81.9-4.133a5.026,5.026,0,0,1-.891,3.113A2.846,2.846,0,0,1,78.617.156,2.947,2.947,0,0,1,76.141-.977L76.07,0H74.742V-12h1.445v4.477A2.93,2.93,0,0,1,78.6-8.609,2.863,2.863,0,0,1,81.02-7.445,5.177,5.177,0,0,1,81.9-4.258ZM80.453-4.3a3.906,3.906,0,0,0-.57-2.281,1.888,1.888,0,0,0-1.641-.8,2.122,2.122,0,0,0-2.055,1.328V-2.4a2.181,2.181,0,0,0,2.07,1.328,1.878,1.878,0,0,0,1.617-.8A4.153,4.153,0,0,0,80.453-4.3Z" transform="translate(759 1103)" fill="#12263f"/>
    <path id="Trazado_877262" data-name="Trazado 877262" d="M-5734-10643v41.651h134.385" transform="translate(6334 11696)" fill="none" stroke="#707070" stroke-width="1"/>
    <path id="Trazado_877263" data-name="Trazado 877263" d="M-5599.615-10643v41.651H-5734" transform="translate(6599.615 11696)" fill="none" stroke="#707070" stroke-width="1"/>
    <path id="Polígono_17" data-name="Polígono 17" d="M5.5,0,11,9H0Z" transform="translate(806 885) rotate(180)"/>
    <path id="Polígono_18" data-name="Polígono 18" d="M5.5,0,11,9H0Z" transform="translate(606 1009) rotate(180)"/>
    <path id="Polígono_19" data-name="Polígono 19" d="M5.5,0,11,9H0Z" transform="translate(1006 1009) rotate(180)"/>
    <path id="Polígono_20" data-name="Polígono 20" d="M5.5,0,11,9H0Z" transform="translate(735 1089) rotate(90)"/>
    <path id="Polígono_21" data-name="Polígono 21" d="M5.5,0,11,9H0Z" transform="translate(865 1100) rotate(-90)"/>
  </g>
</svg>
