<svg xmlns="http://www.w3.org/2000/svg" width="85" height="85" viewBox="0 0 85 85">
  <g id="_2" data-name="2" transform="translate(-180 -656)">
    <g id="Grupo_1100570" data-name="Grupo 1100570" transform="translate(0 -1036)">
      <rect id="Rectángulo_401125" data-name="Rectángulo 401125" width="85" height="85" transform="translate(180 1692)" fill="#debefb"/>
    </g>
    <g id="_92-Html_Code" data-name="92-Html Code" transform="translate(197 673)">
      <path id="Trazado_873846" data-name="Trazado 873846" d="M50.406,11V50.844a1.6,1.6,0,0,1-1.594,1.594H2.594A1.6,1.6,0,0,1,1,50.844V11Z" transform="translate(-0.203 -2.234)" fill="#f7eefe"/>
      <path id="Trazado_873847" data-name="Trazado 873847" d="M48.813,1a1.6,1.6,0,0,1,1.594,1.594V8.969H1V2.594A1.6,1.6,0,0,1,2.594,1Z" transform="translate(-0.203 -0.203)" fill="#a854f3"/>
      <path id="Trazado_873849" data-name="Trazado 873849" d="M1,11v7.048a21.311,21.311,0,0,0,6.534.921c6.056,0,6.056-1.594,12.112-1.594s6.056,1.594,12.112,1.594,6.056-1.594,12.113-1.594a21.346,21.346,0,0,1,6.534.922V11Z" transform="translate(-0.203 -2.234)" fill="#f7eefe"/>
      <rect id="Rectángulo_401114" data-name="Rectángulo 401114" width="18" height="18" rx="1.576" transform="translate(4.5 18.5)" fill="#adb2c7"/>
      <rect id="Rectángulo_401115" data-name="Rectángulo 401115" width="16" height="11" transform="translate(3.5 23.5)" fill="#fff"/>
      <rect id="Rectángulo_401116" data-name="Rectángulo 401116" width="16" height="7" transform="translate(3.5 16.5)" fill="#00ffdf"/>
      <rect id="Rectángulo_401117" data-name="Rectángulo 401117" width="11" height="6" transform="translate(6.5 25.5)" fill="#dfe1ea"/>
      <rect id="Rectángulo_401118" data-name="Rectángulo 401118" width="2" height="2" transform="translate(3.5 3.5)" fill="#fff"/>
      <rect id="Rectángulo_401119" data-name="Rectángulo 401119" width="36" height="2" transform="translate(11.5 3.5)" fill="#fff"/>
      <rect id="Rectángulo_401120" data-name="Rectángulo 401120" width="1" height="1" transform="translate(6.5 19.5)" fill="#fff"/>
      <rect id="Rectángulo_401121" data-name="Rectángulo 401121" width="2" height="1" transform="translate(9.5 19.5)" fill="#fff"/>
      <path id="Trazado_873850" data-name="Trazado 873850" d="M27.781,39.781H24.594V35H23V46.156h1.594V41.375h3.188v4.781h1.594V35H27.781Z" transform="translate(-4.672 -7.109)"/>
      <path id="Trazado_873851" data-name="Trazado 873851" d="M33,36.594h2.391v9.563h1.594V36.594h2.391V35H33Z" transform="translate(-6.703 -7.109)"/>
      <path id="Trazado_873852" data-name="Trazado 873852" d="M48.72,35.013a.8.8,0,0,0-.889.5L46.188,39.9,44.544,35.52A.8.8,0,0,0,43,35.8V46.156h1.594V40.192l.847,2.261a.8.8,0,0,0,1.493,0l.847-2.261v5.965h1.594V35.8a.8.8,0,0,0-.655-.784Z" transform="translate(-8.734 -7.109)"/>
      <path id="Trazado_873853" data-name="Trazado 873853" d="M54.593,43.766V35H53v8.766a2.324,2.324,0,0,0,2.391,2.391h3.188V44.563H55.39a.729.729,0,0,1-.8-.8Z" transform="translate(-10.765 -7.109)"/>
      <path id="Trazado_873854" data-name="Trazado 873854" d="M48.609,0H2.391A2.391,2.391,0,0,0,0,2.391V48.609A2.391,2.391,0,0,0,2.391,51H48.609A2.391,2.391,0,0,0,51,48.609V2.391A2.391,2.391,0,0,0,48.609,0ZM2.391,1.594H48.609a.8.8,0,0,1,.8.8V7.969H1.594V2.391a.8.8,0,0,1,.8-.8ZM48.609,49.406H2.391a.8.8,0,0,1-.8-.8V9.563H49.406V48.609A.8.8,0,0,1,48.609,49.406Z"/>
      <rect id="Rectángulo_401122" data-name="Rectángulo 401122" width="1" height="2" transform="translate(7.5 3.5)"/>
      <path id="Trazado_873855" data-name="Trazado 873855" d="M5.594,27.969H19.938v.8h1.594V20.8a.8.8,0,0,0-.8-.8H4.8a.8.8,0,0,0-.8.8V38.328a.8.8,0,0,0,.8.8H15.156V37.531H5.594Zm14.344-6.375v4.781H5.594V21.594Z" transform="translate(-0.813 -4.063)"/>
      <path id="Trazado_873856" data-name="Trazado 873856" d="M11.624,32.293,9.234,34.684a.8.8,0,0,0,0,1.127L11.624,38.2l1.127-1.127-1.827-1.827,1.827-1.827Z" transform="translate(-1.828 -6.56)"/>
      <path id="Trazado_873857" data-name="Trazado 873857" d="M17.42,32.293,16.293,33.42l1.827,1.827-1.827,1.827L17.42,38.2,19.81,35.81a.8.8,0,0,0,0-1.127Z" transform="translate(-3.31 -6.56)"/>
      <rect id="Rectángulo_401123" data-name="Rectángulo 401123" width="8" height="1" transform="translate(23.5 23.5)"/>
      <rect id="Rectángulo_401124" data-name="Rectángulo 401124" width="4" height="2" transform="translate(23.5 19.5)"/>
    </g>
  </g>
</svg>
