<svg xmlns="http://www.w3.org/2000/svg" width="101" height="101" viewBox="0 0 101 101">
  <g id="_26" data-name="26" transform="translate(-332 -3223)">
    <circle id="Elipse_11604" data-name="Elipse 11604" cx="50.5" cy="50.5" r="50.5" transform="translate(332 3223)" fill="#debefb"/>
    <g id="_40-Coding" data-name="40-Coding" transform="translate(353 3244)">
      <circle id="Elipse_11602" data-name="Elipse 11602" cx="2.751" cy="2.751" r="2.751" transform="translate(51.481 16.112)" fill="#73c6b2"/>
      <circle id="Elipse_11603" data-name="Elipse 11603" cx="2.751" cy="2.751" r="2.751" transform="translate(1.179 31.831)" fill="#ffc247"/>
      <path id="Trazado_877274" data-name="Trazado 877274" d="M43.086,1V21.128H19.3L14.724,25.7V21.128H1V1Z" transform="translate(-0.085 -0.085)" fill="#f5f5fc"/>
      <path id="Trazado_877275" data-name="Trazado 877275" d="M58.916,34V55.958h-18.3l-4.575,4.575V55.958H15V34Z" transform="translate(-1.276 -2.893)" fill="#f5f5fc"/>
      <path id="Trazado_877276" data-name="Trazado 877276" d="M2.093,12.234c6.953,0,6.953-1.83,13.907-1.83s6.953,1.83,13.907,1.83c6.7,0,6.963-1.692,13.179-1.818v-6.4C36.87,4.138,36.6,5.83,29.911,5.83,22.958,5.83,22.958,4,16,4S9.046,5.83,2.092,5.83c-.39,0-.744-.009-1.092-.02v6.4C1.349,12.225,1.7,12.234,2.093,12.234Z" transform="translate(-0.085 -0.34)" fill="#dfe1ea"/>
      <path id="Trazado_877277" data-name="Trazado 877277" d="M16,3.745c6.959,0,6.959,1.83,13.912,1.83,6.691,0,6.959-1.692,13.175-1.818V1H1V5.554c.349.011.7.02,1.093.02C9.046,5.575,9.046,3.745,16,3.745Z" transform="translate(-0.085 -0.085)" fill="#adb2c7"/>
      <path id="Trazado_877278" data-name="Trazado 877278" d="M18.843,45.234c6.953,0,6.953-1.83,13.907-1.83s6.953,1.83,13.907,1.83c6.351,0,6.918-1.522,12.264-1.787v-6.4C53.569,37.307,53,38.83,46.656,38.83,39.7,38.83,39.7,37,32.749,37S25.8,38.83,18.843,38.83A26.523,26.523,0,0,1,15,38.583v6.4a26.523,26.523,0,0,0,3.843.247Z" transform="translate(-1.276 -3.148)" fill="#dfe1ea"/>
      <path id="Trazado_877279" data-name="Trazado 877279" d="M32.744,36.745c6.953,0,6.953,1.83,13.907,1.83,6.351,0,6.918-1.522,12.264-1.787V34H15v4.328a26.523,26.523,0,0,0,3.843.247C25.791,38.575,25.791,36.745,32.744,36.745Z" transform="translate(-1.276 -2.893)" fill="#adb2c7"/>
      <path id="Trazado_877280" data-name="Trazado 877280" d="M11.489,10.489H7.83V5H6V17.809H7.83V12.319h3.66v5.489h1.83V5h-1.83Z" transform="translate(-0.511 -0.425)"/>
      <path id="Trazado_877281" data-name="Trazado 877281" d="M18.745,17.809h1.83V6.83h2.745V5H16V6.83h2.745Z" transform="translate(-1.361 -0.425)"/>
      <path id="Trazado_877282" data-name="Trazado 877282" d="M27.83,10.961l.973,2.595a.915.915,0,0,0,1.715,0l.973-2.595v6.848h1.83V5.915a.915.915,0,0,0-1.772-.321L29.66,10.628,27.772,5.6A.915.915,0,0,0,26,5.915V17.809h1.83Z" transform="translate(-2.212 -0.425)"/>
      <path id="Trazado_877283" data-name="Trazado 877283" d="M38.745,17.809H42.4v-1.83h-3.66a.837.837,0,0,1-.915-.915V5H36V15.064a2.668,2.668,0,0,0,2.745,2.745Z" transform="translate(-3.063 -0.425)"/>
      <path id="Trazado_877284" data-name="Trazado 877284" d="M.915,21.958H13.724v3.66a.915.915,0,0,0,1.562.647l4.307-4.307H43a.915.915,0,0,0,.915-.915V.915A.915.915,0,0,0,43,0H.915A.915.915,0,0,0,0,.915V21.043a.915.915,0,0,0,.915.915ZM1.83,1.83H42.086v18.3H19.213a.915.915,0,0,0-.647.268l-3.013,3.013V21.043a.915.915,0,0,0-.915-.915H1.83Z" transform="translate(0)"/>
      <path id="Trazado_877285" data-name="Trazado 877285" d="M58.831,33H14.915a.915.915,0,0,0-.915.915V55.873a.915.915,0,0,0,.915.915H35.043v3.66a.915.915,0,0,0,1.562.647l4.307-4.307h17.92a.915.915,0,0,0,.915-.915V33.915A.915.915,0,0,0,58.831,33Zm-.915,21.958H40.533a.915.915,0,0,0-.647.268l-3.013,3.013V55.873a.915.915,0,0,0-.915-.915H15.83V34.83H57.916Z" transform="translate(-1.191 -2.808)"/>
      <path id="Trazado_877286" data-name="Trazado 877286" d="M50.575,51.639a2.745,2.745,0,0,1-2.745-2.745H46a4.575,4.575,0,1,0,4.575-4.575,2.745,2.745,0,1,1,2.745-2.745h1.83a4.575,4.575,0,1,0-4.575,4.575,2.745,2.745,0,1,1,0,5.489Z" transform="translate(-3.914 -3.148)"/>
      <path id="Trazado_877287" data-name="Trazado 877287" d="M38.575,51.639a2.745,2.745,0,0,1-2.745-2.745H34a4.575,4.575,0,1,0,4.575-4.575,2.745,2.745,0,1,1,2.745-2.745h1.83a4.575,4.575,0,1,0-4.575,4.575,2.745,2.745,0,0,1,0,5.489Z" transform="translate(-2.893 -3.148)"/>
      <path id="Trazado_877288" data-name="Trazado 877288" d="M26.575,53.468a4.58,4.58,0,0,0,4.575-4.575h-1.83a2.745,2.745,0,1,1-5.489,0V41.575a2.745,2.745,0,0,1,5.489,0h1.83a4.575,4.575,0,0,0-9.149,0v7.319A4.58,4.58,0,0,0,26.575,53.468Z" transform="translate(-1.872 -3.148)"/>
      <path id="Trazado_877289" data-name="Trazado 877289" d="M54.937,15.574v1.045a3.642,3.642,0,0,0,0,7.059v.13a2.61,2.61,0,0,1-2.745,2.745H22v1.83H52.192a4.411,4.411,0,0,0,4.575-4.575v-.13a3.642,3.642,0,0,0,0-7.059V15.574A4.411,4.411,0,0,0,52.192,11H47.618v1.83h4.569a2.611,2.611,0,0,1,2.75,2.745Zm2.745,4.575a1.83,1.83,0,1,1-1.83-1.83A1.83,1.83,0,0,1,57.682,20.149Z" transform="translate(-1.872 -0.936)"/>
      <path id="Trazado_877290" data-name="Trazado 877290" d="M2.745,33.489v.13a3.642,3.642,0,0,0,0,7.059v.13A5.293,5.293,0,0,0,8.234,46.3h2.745v-1.83H8.234a3.522,3.522,0,0,1-3.66-3.66v-.13a3.642,3.642,0,0,0,0-7.059v-.13a3.522,3.522,0,0,1,3.66-3.66h2.745V28H8.234a5.293,5.293,0,0,0-5.489,5.489Zm2.745,3.66a1.83,1.83,0,1,1-1.83-1.83A1.83,1.83,0,0,1,5.49,37.149Z" transform="translate(0 -2.382)"/>
    </g>
  </g>
</svg>
