<svg xmlns="http://www.w3.org/2000/svg" width="101" height="101" viewBox="0 0 101 101">
  <g id="_27" data-name="27" transform="translate(-1012 -3211)">
    <g id="Grupo_1100620" data-name="Grupo 1100620" transform="translate(680 -12)">
      <circle id="Elipse_11604" data-name="Elipse 11604" cx="50.5" cy="50.5" r="50.5" transform="translate(332 3223)" fill="#d5fffa"/>
    </g>
    <g id="_37-Coding" data-name="37-Coding" transform="translate(1035 3234)">
      <path id="Trazado_877291" data-name="Trazado 877291" d="M54.4,11V54.066a1.728,1.728,0,0,1-1.723,1.723H2.723A1.728,1.728,0,0,1,1,54.066V11Z" transform="translate(-0.139 -1.525)" fill="#dfe1ea"/>
      <path id="Trazado_877292" data-name="Trazado 877292" d="M52.68,1A1.728,1.728,0,0,1,54.4,2.723V9.613H1V2.723A1.728,1.728,0,0,1,2.723,1Z" transform="translate(-0.139 -0.139)" fill="#a854f3"/>
      <path id="Trazado_877293" data-name="Trazado 877293" d="M34.247,20.722C27.7,20.722,27.7,19,21.155,19s-6.546,1.723-13.092,1.723a23.034,23.034,0,0,1-7.063-1v6.891a23.035,23.035,0,0,0,7.063,1c6.546,0,6.546-1.723,13.092-1.723s6.546,1.723,13.092,1.723,6.546-1.723,13.092-1.723a23.072,23.072,0,0,1,7.063,1V20a23.072,23.072,0,0,0-7.063-1C40.793,19,40.793,20.722,34.247,20.722Z" transform="translate(-0.139 -2.634)" fill="#cdd2e1"/>
      <path id="Trazado_877294" data-name="Trazado 877294" d="M1,11v7.618a23.035,23.035,0,0,0,7.063,1c6.546,0,6.546-1.723,13.092-1.723s6.546,1.723,13.092,1.723,6.546-1.723,13.092-1.723a23.072,23.072,0,0,1,7.063,1V11Z" transform="translate(-0.139 -1.525)" fill="#e9edf5"/>
      <path id="Trazado_877295" data-name="Trazado 877295" d="M55.7,30.059l.861,1.723L55.7,33.5,51.98,34a9.3,9.3,0,0,1-1.12,2.713l2.274,2.98-.612,1.826-1.826.612-2.98-2.274A9.3,9.3,0,0,1,45,40.98L44.5,44.7l-1.723.861L41.059,44.7l-.5-3.721a9.3,9.3,0,0,1-2.713-1.12l-2.98,2.274-1.826-.612L32.428,39.7l2.274-2.98A9.3,9.3,0,0,1,33.582,34l-3.721-.5L29,31.781l.861-1.723,3.721-.5a9.3,9.3,0,0,1,1.12-2.713l-2.274-2.98.612-1.826,1.826-.612,2.98,2.274a9.3,9.3,0,0,1,2.713-1.12l.5-3.721L42.781,18l1.723.861.5,3.721a9.3,9.3,0,0,1,2.713,1.12l2.98-2.274,1.826.612.612,1.826-2.274,2.98a9.3,9.3,0,0,1,1.12,2.713Zm-7.752,1.723a5.168,5.168,0,1,0-5.168,5.168A5.168,5.168,0,0,0,47.949,31.781Z" transform="translate(-4.021 -2.496)" fill="#adb2c7"/>
      <path id="Trazado_877296" data-name="Trazado 877296" d="M52.7,29.059l.861,1.723L52.7,32.5,48.98,33a9.3,9.3,0,0,1-1.12,2.713l2.274,2.98-.612,1.826-1.826.612-2.98-2.274A9.3,9.3,0,0,1,42,39.98L41.5,43.7l-1.723.861L38.059,43.7l-.5-3.721a9.3,9.3,0,0,1-2.713-1.12l-2.98,2.274-1.826-.612L29.428,38.7l2.274-2.98A9.3,9.3,0,0,1,30.582,33l-3.721-.5L26,30.781l.861-1.723,3.721-.5a9.3,9.3,0,0,1,1.12-2.713l-2.274-2.98.612-1.826,1.826-.612,2.98,2.274a9.3,9.3,0,0,1,2.713-1.12l.5-3.721L39.781,17l1.723.861.5,3.721a9.3,9.3,0,0,1,2.713,1.12l2.98-2.274,1.826.612.612,1.826-2.274,2.98a9.3,9.3,0,0,1,1.12,2.713Zm-7.752,1.723a5.168,5.168,0,1,0-5.168,5.168A5.168,5.168,0,0,0,44.949,30.781Z" transform="translate(-3.605 -2.357)" fill="#fff"/>
      <rect id="Rectángulo_402389" data-name="Rectángulo 402389" width="2" height="2" transform="translate(4 4.125)" fill="#fff"/>
      <rect id="Rectángulo_402390" data-name="Rectángulo 402390" width="39" height="2" transform="translate(12 4.125)" fill="#fff"/>
      <path id="Trazado_877297" data-name="Trazado 877297" d="M52.541,0H2.584A2.584,2.584,0,0,0,0,2.584V52.541a2.584,2.584,0,0,0,2.584,2.584H52.541a2.584,2.584,0,0,0,2.584-2.584V2.584A2.584,2.584,0,0,0,52.541,0ZM2.584,1.723H52.541a.861.861,0,0,1,.861.861V8.613H1.723V2.584a.861.861,0,0,1,.861-.861ZM52.541,53.4H2.584a.861.861,0,0,1-.861-.861V10.336H53.4V52.541A.861.861,0,0,1,52.541,53.4Z"/>
      <rect id="Rectángulo_402391" data-name="Rectángulo 402391" width="1" height="2" transform="translate(8 4.125)"/>
      <path id="Trazado_877298" data-name="Trazado 877298" d="M53.89,28.535a.861.861,0,0,0-.657-.469l-3.15-.42a10.3,10.3,0,0,0-.775-1.873l1.931-2.525a.861.861,0,0,0,.134-.8l-.61-1.827a.861.861,0,0,0-.544-.544l-1.827-.61a.861.861,0,0,0-.8.134L45.07,21.536a10.3,10.3,0,0,0-1.873-.775l-.42-3.15a.861.861,0,0,0-.469-.657l-1.723-.861a.861.861,0,0,0-.77,0l-1.723.861a.861.861,0,0,0-.469.657l-.42,3.15a10.3,10.3,0,0,0-1.873.775L32.807,19.6a.861.861,0,0,0-.8-.134l-1.827.61a.861.861,0,0,0-.544.544l-.61,1.827a.861.861,0,0,0,.134.8l2.279,2.98,1.368-1.047-2-2.618.329-.985.985-.329,2.618,2a.861.861,0,0,0,.973.051,8.556,8.556,0,0,1,2.471-1.025.861.861,0,0,0,.652-.724l.435-3.265.925-.464.929.464.435,3.265a.861.861,0,0,0,.652.724A8.556,8.556,0,0,1,44.683,23.3a.861.861,0,0,0,.973-.051l2.618-2,.985.329.329.985-2,2.613a.861.861,0,0,0-.051.973,8.557,8.557,0,0,1,1.025,2.471.861.861,0,0,0,.724.652l3.265.431.464.934-.464.929-3.265.435a.861.861,0,0,0-.724.652,8.557,8.557,0,0,1-1.025,2.471.861.861,0,0,0,.051.973l2,2.618-.329.985-.985.329-2.618-2a.861.861,0,0,0-.973-.051,8.556,8.556,0,0,1-2.471,1.025.861.861,0,0,0-.652.724l-.5,3.717,1.707.227.42-3.15a10.3,10.3,0,0,0,1.873-.775l2.525,1.931a.867.867,0,0,0,.8.134l1.827-.61a.861.861,0,0,0,.544-.544l.61-1.827a.861.861,0,0,0-.134-.8L49.3,35.514a10.3,10.3,0,0,0,.775-1.873l3.15-.42a.861.861,0,0,0,.657-.469l.861-1.723a.861.861,0,0,0,0-.77Z" transform="translate(-4.02 -2.219)"/>
      <path id="Trazado_877299" data-name="Trazado 877299" d="M41.029,36.336v1.723A6.029,6.029,0,1,0,35,32.029h1.723a4.307,4.307,0,1,1,4.307,4.307Z" transform="translate(-4.854 -3.605)"/>
      <rect id="Rectángulo_402392" data-name="Rectángulo 402392" width="19" height="1" transform="translate(8 27.125)"/>
      <rect id="Rectángulo_402393" data-name="Rectángulo 402393" width="8" height="2" transform="translate(15 23.125)"/>
      <path id="Trazado_877300" data-name="Trazado 877300" d="M34.307,36.723a2.584,2.584,0,0,1,2.584,2.584h1.723a4.307,4.307,0,1,0-4.307,4.307A2.584,2.584,0,1,1,31.723,46.2H30a4.307,4.307,0,1,0,4.307-4.307,2.584,2.584,0,0,1,0-5.168Z" transform="translate(-4.16 -4.854)"/>
      <path id="Trazado_877301" data-name="Trazado 877301" d="M22.307,36.723a2.584,2.584,0,0,1,2.584,2.584h1.723a4.307,4.307,0,1,0-4.307,4.307A2.584,2.584,0,1,1,19.723,46.2H18a4.307,4.307,0,1,0,4.307-4.307,2.584,2.584,0,0,1,0-5.168Z" transform="translate(-2.496 -4.854)"/>
      <path id="Trazado_877302" data-name="Trazado 877302" d="M10.307,36.723a2.584,2.584,0,0,1,2.584,2.584h1.723a4.307,4.307,0,1,0-8.613,0V46.2a4.307,4.307,0,0,0,8.613,0H12.891a2.584,2.584,0,1,1-5.168,0V39.307a2.584,2.584,0,0,1,2.584-2.584Z" transform="translate(-0.832 -4.854)"/>
    </g>
  </g>
</svg>
