<svg xmlns="http://www.w3.org/2000/svg" xmlns:xlink="http://www.w3.org/1999/xlink" width="505" height="343.547" viewBox="0 0 505 343.547">
  <defs>
    <clipPath id="clip-path">
      <rect id="Rectángulo_402451" data-name="Rectángulo 402451" width="505" height="343.547" fill="none"/>
    </clipPath>
    <clipPath id="clip-path-2">
      <rect id="Rectángulo_402450" data-name="Rectángulo 402450" width="504.999" height="343.545" fill="none"/>
    </clipPath>
    <clipPath id="clip-path-3">
      <rect id="Rectángulo_402416" data-name="Rectángulo 402416" width="299.061" height="161.493" fill="none"/>
    </clipPath>
  </defs>
  <g id="_28" data-name="28" transform="translate(-915 -4545.227)">
    <g id="Grupo_1100629" data-name="Grupo 1100629" transform="translate(915 4545.227)">
      <g id="Grupo_1100628" data-name="Grupo 1100628" clip-path="url(#clip-path)">
        <rect id="Rectángulo_402394" data-name="Rectángulo 402394" width="148.058" height="60.974" transform="translate(208.917 42.343)" fill="#c0c1ed"/>
        <g id="Grupo_1100627" data-name="Grupo 1100627" transform="translate(0 0.001)">
          <g id="Grupo_1100626" data-name="Grupo 1100626" clip-path="url(#clip-path-2)">
            <path id="Trazado_877303" data-name="Trazado 877303" d="M214.175,981.44a26.862,26.862,0,1,1-26.862-26.861,26.862,26.862,0,0,1,26.862,26.861" transform="translate(-117.775 -700.68)" fill="#fff"/>
            <path id="Trazado_877304" data-name="Trazado 877304" d="M344.493,173.559l-.884-2.183h-6.924v15.415h19.227V173.559Z" transform="translate(-247.133 -125.794)" fill="#ffacb0"/>
            <path id="Trazado_877305" data-name="Trazado 877305" d="M317.348,42.352l-.884-2.183H309.54V55.584h19.227V42.352Z" transform="translate(-227.208 -29.486)" fill="#6a21db"/>
            <path id="Trazado_877306" data-name="Trazado 877306" d="M391.678,37.215H263.573V.922H391.678ZM264.6,36.187H390.65V1.95H264.6Z" transform="translate(-193.468 -0.678)" fill="#231f20"/>
            <path id="Trazado_877307" data-name="Trazado 877307" d="M391.678,171.217H263.573V135.439H264.6v34.751H390.65V135.439h1.028Z" transform="translate(-193.467 -99.416)" fill="#231f20"/>
            <rect id="Rectángulo_402395" data-name="Rectángulo 402395" width="53.98" height="2.357" transform="translate(106.956 12.817)" fill="#6a21db"/>
            <rect id="Rectángulo_402396" data-name="Rectángulo 402396" width="30.406" height="2.357" transform="translate(106.956 18.416)" fill="#6a21db"/>
            <rect id="Rectángulo_402397" data-name="Rectángulo 402397" width="53.98" height="2.357" transform="translate(114.912 48.178)" fill="#ffacb0"/>
            <rect id="Rectángulo_402398" data-name="Rectángulo 402398" width="30.406" height="2.357" transform="translate(114.912 53.777)" fill="#ffacb0"/>
            <rect id="Rectángulo_402399" data-name="Rectángulo 402399" width="18.558" height="2.987" transform="translate(402.472 85.778)" fill="#fff"/>
            <rect id="Rectángulo_402400" data-name="Rectángulo 402400" width="25.523" height="0.849" transform="translate(398.99 91.817)" fill="#fff"/>
            <rect id="Rectángulo_402401" data-name="Rectángulo 402401" width="15.56" height="0.849" transform="translate(403.972 93.722)" fill="#fff"/>
            <path id="Trazado_877308" data-name="Trazado 877308" d="M1414.556,64.781H1281.47a3.875,3.875,0,0,0-3.875,3.875v6.628h140.836V68.656a3.875,3.875,0,0,0-3.875-3.875" transform="translate(-937.779 -47.552)" fill="#00ffdf"/>
            <path id="Trazado_877309" data-name="Trazado 877309" d="M1417.526,153.714H1275.662V67.238a4.394,4.394,0,0,1,4.389-4.389h133.086a4.394,4.394,0,0,1,4.389,4.389Zm-140.836-1.028H1416.5V67.238a3.365,3.365,0,0,0-3.361-3.361H1280.051a3.365,3.365,0,0,0-3.361,3.361Z" transform="translate(-936.36 -46.134)" fill="#231f20"/>
            <rect id="Rectángulo_402402" data-name="Rectángulo 402402" width="140.836" height="1.028" transform="translate(339.816 27.218)" fill="#231f20"/>
            <path id="Trazado_877310" data-name="Trazado 877310" d="M1300.087,80.87a1.574,1.574,0,1,1-1.574-1.574,1.574,1.574,0,0,1,1.574,1.574" transform="translate(-951.978 -58.206)" fill="#6a21db"/>
            <path id="Trazado_877311" data-name="Trazado 877311" d="M1319.824,80.87a1.574,1.574,0,1,1-1.574-1.574,1.574,1.574,0,0,1,1.574,1.574" transform="translate(-966.464 -58.206)" fill="#6a21db"/>
            <path id="Trazado_877312" data-name="Trazado 877312" d="M1339.561,80.87a1.574,1.574,0,1,1-1.574-1.574,1.574,1.574,0,0,1,1.574,1.574" transform="translate(-980.951 -58.206)" fill="#6a21db"/>
            <rect id="Rectángulo_402403" data-name="Rectángulo 402403" width="1.028" height="67.169" transform="translate(475.698 34.061)" fill="#231f20"/>
            <path id="Trazado_877313" data-name="Trazado 877313" d="M1477.922,263.832l-.813-.43c1.772-3.344,6.2-4.177,9.742-3.844,1.081.1,2.173.278,3.229.448a20.2,20.2,0,0,0,7.141.317c3.742-.737,6.715-3.537,9.59-6.245,3.057-2.88,6.218-5.857,10.38-6.5a20.477,20.477,0,0,1,5.567.151c1.02.122,2.074.247,3.1.277a8.276,8.276,0,0,0,6.042-1.933l.653.649a9.109,9.109,0,0,1-6.722,2.2c-1.068-.032-2.143-.16-3.183-.284a19.479,19.479,0,0,0-5.317-.156c-3.88.6-6.8,3.353-9.89,6.265-2.97,2.8-6.041,5.69-10.042,6.478a21.161,21.161,0,0,1-7.465-.311c-1.041-.168-2.118-.342-3.169-.441-3.252-.3-7.284.415-8.844,3.358" transform="translate(-1084.226 -180.621)" fill="#ffacb0"/>
            <path id="Trazado_877314" data-name="Trazado 877314" d="M1420.437,162.593l-.719-.264a20.424,20.424,0,0,1,13.26-12.537,39.473,39.473,0,0,1,4.306-.882c.884-.147,1.8-.3,2.685-.486a12.921,12.921,0,0,0,6.222-2.788,6.469,6.469,0,0,0,2.216-4.916l.764-.039a7.249,7.249,0,0,1-2.466,5.522,13.639,13.639,0,0,1-6.577,2.969c-.9.191-1.826.344-2.718.493a38.894,38.894,0,0,0-4.223.863,19.646,19.646,0,0,0-12.75,12.064" transform="translate(-1042.1 -103.265)" fill="#ffacb0"/>
            <path id="Trazado_877315" data-name="Trazado 877315" d="M1410.839,219.3l-.893-.355a13.034,13.034,0,0,1,5.525-6.394,15.246,15.246,0,0,1,12.948-.957c.833.324,1.64.725,2.42,1.112a15.638,15.638,0,0,0,4.187,1.609c3.208.57,6.853-.921,9.746-3.987a39.265,39.265,0,0,0,3.527-4.56,45.219,45.219,0,0,1,3.144-4.154c3.031-3.427,6.8-5.214,10.324-4.9a17.6,17.6,0,0,1,3.793.911c.662.213,1.347.432,2.024.6a14.78,14.78,0,0,0,12-2.274,12.351,12.351,0,0,0,2.982-3.127l.8.533a13.349,13.349,0,0,1-3.214,3.369,15.766,15.766,0,0,1-12.8,2.433c-.709-.174-1.41-.4-2.088-.616a16.635,16.635,0,0,0-3.584-.869c-4.572-.405-8.18,3.064-9.518,4.576a44.466,44.466,0,0,0-3.075,4.067,40,40,0,0,1-3.616,4.67c-3.117,3.3-7.083,4.9-10.614,4.274a16.624,16.624,0,0,1-4.446-1.7c-.761-.378-1.547-.769-2.34-1.077a14.268,14.268,0,0,0-12.114.891,12.071,12.071,0,0,0-5.118,5.918" transform="translate(-1034.927 -141.537)" fill="#ffacb0"/>
            <path id="Trazado_877316" data-name="Trazado 877316" d="M1402.51,171.469l-.97-.132c.642-4.711,5.353-7.7,9.458-8.483a35.094,35.094,0,0,1,9.979.021c1.023.1,2.045.2,3.065.271,5.477.382,9.307-.431,12.055-2.563a21,21,0,0,0,3.167-3.317,20.969,20.969,0,0,1,3.461-3.572c2.911-2.182,6.565-2.661,10.1-3.124a34.613,34.613,0,0,0,6.436-1.259,16.305,16.305,0,0,0,10.259-10.541l.937.286a17.3,17.3,0,0,1-10.885,11.184,35.332,35.332,0,0,1-6.62,1.3c-3.565.467-6.932.908-9.638,2.937a19.913,19.913,0,0,0-3.293,3.412,21.774,21.774,0,0,1-3.323,3.468c-2.95,2.288-6.991,3.169-12.723,2.765-1.029-.072-2.06-.173-3.092-.273a34.379,34.379,0,0,0-9.7-.034c-3.771.719-8.093,3.422-8.671,7.653" transform="translate(-1028.757 -101.86)" fill="#ffacb0"/>
            <path id="Trazado_877317" data-name="Trazado 877317" d="M1490.585,154.262a8.6,8.6,0,0,1-4.2-1.048l.445-.805c3.591,1.982,8.122.411,10.91-1.538a38.73,38.73,0,0,0,5.6-5.138c1.009-1.056,2.052-2.147,3.147-3.154,2.625-2.414,6.7-5.192,11.179-4.727l-.095.915c-4.143-.43-7.976,2.2-10.462,4.49-1.073.986-2.106,2.067-3.1,3.112a39.4,39.4,0,0,1-5.735,5.256,13.944,13.944,0,0,1-7.678,2.637" transform="translate(-1091.031 -101.15)" fill="#ffacb0"/>
            <rect id="Rectángulo_402404" data-name="Rectángulo 402404" width="58.598" height="44.782" transform="translate(206.986 267.413)" fill="#572daa"/>
            <path id="Trazado_877321" data-name="Trazado 877321" d="M835.893,1049.266H776.268v-45.81h59.625Zm-58.6-1.028h57.569v-43.754H777.3Z" transform="translate(-569.795 -736.557)" fill="#231f20"/>
            <rect id="Rectángulo_402405" data-name="Rectángulo 402405" width="58.598" height="44.782" transform="translate(201.523 267.413)" fill="#8223ff"/>
            <path id="Trazado_877322" data-name="Trazado 877322" d="M816.257,1038.077l-58.6,31.643v-31.643Z" transform="translate(-556.136 -761.969)" fill="#6a21db"/>
            <path id="Trazado_877323" data-name="Trazado 877323" d="M805.57,1182.447H711.48v-2.5a6.193,6.193,0,0,1,6.193-6.193h81.7a6.193,6.193,0,0,1,6.193,6.193Z" transform="translate(-522.24 -861.558)" fill="#572daa"/>
            <path id="Trazado_877324" data-name="Trazado 877324" d="M804.665,1181.544H709.547v-3.015a6.715,6.715,0,0,1,6.707-6.707h81.7a6.714,6.714,0,0,1,6.707,6.707Zm-94.09-1.028h93.062v-1.987a5.685,5.685,0,0,0-5.679-5.679h-81.7a5.686,5.686,0,0,0-5.68,5.679Z" transform="translate(-520.821 -860.141)" fill="#231f20"/>
            <path id="Trazado_877325" data-name="Trazado 877325" d="M609.722,503.834H314.747a9.189,9.189,0,0,1-9.189-9.189V319.433a9.188,9.188,0,0,1,9.189-9.188H609.722a9.188,9.188,0,0,1,9.189,9.188V494.646a9.189,9.189,0,0,1-9.189,9.189" transform="translate(-224.285 -227.727)" fill="#572daa"/>
            <path id="Trazado_877326" data-name="Trazado 877326" d="M608.3,502.93H313.328a9.714,9.714,0,0,1-9.7-9.7V318.016a9.714,9.714,0,0,1,9.7-9.7H608.3a9.714,9.714,0,0,1,9.7,9.7V493.228a9.713,9.713,0,0,1-9.7,9.7M313.328,309.341a8.685,8.685,0,0,0-8.675,8.675V493.228a8.685,8.685,0,0,0,8.675,8.675H608.3a8.685,8.685,0,0,0,8.674-8.675V318.016a8.684,8.684,0,0,0-8.674-8.675Z" transform="translate(-222.866 -226.309)" fill="#231f20"/>
            <rect id="Rectángulo_402406" data-name="Rectángulo 402406" width="34.939" height="34.939" transform="translate(357.298 287.239)" fill="#c0c1ed"/>
            <rect id="Rectángulo_402407" data-name="Rectángulo 402407" width="34.939" height="34.939" transform="translate(318.906 287.239)" fill="#c0c1ed"/>
            <rect id="Rectángulo_402408" data-name="Rectángulo 402408" width="39.291" height="1.633" transform="translate(414.988 128.53)" fill="#c0c1ed"/>
            <rect id="Rectángulo_402409" data-name="Rectángulo 402409" width="39.291" height="1.633" transform="translate(414.988 132.376)" fill="#c0c1ed"/>
            <rect id="Rectángulo_402410" data-name="Rectángulo 402410" width="39.291" height="1.633" transform="translate(414.988 136.222)" fill="#c0c1ed"/>
            <rect id="Rectángulo_402411" data-name="Rectángulo 402411" width="11.817" height="1.633" transform="translate(414.988 140.068)" fill="#c0c1ed"/>
            <rect id="Rectángulo_402412" data-name="Rectángulo 402412" width="39.291" height="1.633" transform="translate(464.854 128.53)" fill="#c0c1ed"/>
            <rect id="Rectángulo_402413" data-name="Rectángulo 402413" width="39.291" height="1.633" transform="translate(464.854 132.376)" fill="#c0c1ed"/>
            <rect id="Rectángulo_402414" data-name="Rectángulo 402414" width="23.634" height="1.633" transform="translate(464.854 136.222)" fill="#c0c1ed"/>
            <path id="Trazado_877327" data-name="Trazado 877327" d="M785.03,1182.447H690.941v-2.5a6.193,6.193,0,0,1,6.193-6.193h81.7a6.193,6.193,0,0,1,6.193,6.193Z" transform="translate(-507.164 -861.558)" fill="#8223ff"/>
            <path id="Trazado_877328" data-name="Trazado 877328" d="M815.353,1049.266H755.727v-45.81h59.626Zm-58.6-1.028h57.57v-43.754h-57.57Z" transform="translate(-554.718 -736.557)" fill="#231f20"/>
            <path id="Trazado_877329" data-name="Trazado 877329" d="M784.127,1181.544H689.009v-3.015a6.714,6.714,0,0,1,6.707-6.707h81.7a6.715,6.715,0,0,1,6.708,6.707Zm-94.089-1.028H783.1v-1.987a5.686,5.686,0,0,0-5.68-5.679h-81.7a5.685,5.685,0,0,0-5.679,5.679Z" transform="translate(-505.745 -860.141)" fill="#231f20"/>
            <path id="Trazado_877330" data-name="Trazado 877330" d="M582.928,503.835H287.953a9.188,9.188,0,0,1-9.189-9.189V319.434a9.189,9.189,0,0,1,9.189-9.189H582.928a9.189,9.189,0,0,1,9.189,9.189V494.646a9.189,9.189,0,0,1-9.189,9.189" transform="translate(-204.618 -227.727)" fill="#debefb"/>
            <rect id="Rectángulo_402415" data-name="Rectángulo 402415" width="299.06" height="161.493" transform="translate(81.292 89.823)" fill="#231f20"/>
            <g id="Grupo_1100625" data-name="Grupo 1100625" transform="translate(81.292 89.823)" opacity="0.2">
              <g id="Grupo_1100624" data-name="Grupo 1100624">
                <g id="Grupo_1100623" data-name="Grupo 1100623" clip-path="url(#clip-path-3)">
                  <path id="Trazado_877331" data-name="Trazado 877331" d="M305.63,499.2l299.06-161.493V499.2Z" transform="translate(-305.63 -337.709)" fill="#b786fb"/>
                </g>
              </g>
            </g>
            <path id="Trazado_877332" data-name="Trazado 877332" d="M581.509,502.93H286.534a9.714,9.714,0,0,1-9.7-9.7V318.016a9.714,9.714,0,0,1,9.7-9.7H581.509a9.714,9.714,0,0,1,9.7,9.7V493.228a9.714,9.714,0,0,1-9.7,9.7M286.534,309.341a8.684,8.684,0,0,0-8.675,8.675V493.228a8.685,8.685,0,0,0,8.675,8.675H581.509a8.684,8.684,0,0,0,8.674-8.675V318.016a8.684,8.684,0,0,0-8.674-8.675Z" transform="translate(-203.199 -226.309)" fill="#231f20"/>
            <path id="Trazado_877333" data-name="Trazado 877333" d="M603.787,498.3H303.7V335.776H603.787Zm-299.06-1.028H602.759V336.8H304.727Z" transform="translate(-222.921 -246.467)" fill="#231f20"/>
            <path id="Trazado_877334" data-name="Trazado 877334" d="M857.067,982.653a2.858,2.858,0,1,1,2.858,2.858,2.858,2.858,0,0,1-2.858-2.858" transform="translate(-629.103 -719.188)" fill="#231f20"/>
            <rect id="Rectángulo_402417" data-name="Rectángulo 402417" width="28.715" height="7.71" transform="translate(425.445 201.869)" fill="#6a21db"/>
            <rect id="Rectángulo_402418" data-name="Rectángulo 402418" width="32.991" height="41.554" transform="translate(462.173 168.008)" fill="#ffacb0"/>
            <rect id="Rectángulo_402419" data-name="Rectángulo 402419" width="33.215" height="1.373" transform="translate(425.69 167.933)" fill="#ffacb0"/>
            <rect id="Rectángulo_402420" data-name="Rectángulo 402420" width="33.215" height="1.373" transform="translate(425.69 170.534)" fill="#ffacb0"/>
            <rect id="Rectángulo_402421" data-name="Rectángulo 402421" width="33.215" height="1.373" transform="translate(425.69 175.737)" fill="#ffacb0"/>
            <rect id="Rectángulo_402422" data-name="Rectángulo 402422" width="33.215" height="1.373" transform="translate(425.69 178.339)" fill="#ffacb0"/>
            <rect id="Rectángulo_402423" data-name="Rectángulo 402423" width="16.607" height="1.373" transform="translate(425.69 180.94)" fill="#ffacb0"/>
            <rect id="Rectángulo_402424" data-name="Rectángulo 402424" width="33.215" height="1.373" transform="translate(425.69 186.183)" fill="#ffacb0"/>
            <rect id="Rectángulo_402425" data-name="Rectángulo 402425" width="33.215" height="1.373" transform="translate(425.69 188.784)" fill="#ffacb0"/>
            <rect id="Rectángulo_402426" data-name="Rectángulo 402426" width="33.215" height="1.373" transform="translate(425.69 191.386)" fill="#ffacb0"/>
            <rect id="Rectángulo_402427" data-name="Rectángulo 402427" width="28.134" height="1.373" transform="translate(425.69 193.988)" fill="#ffacb0"/>
            <path id="Trazado_877335" data-name="Trazado 877335" d="M1850.275,679.541h-9.39v-9.39h9.39Zm-8.362-1.028h7.334v-7.334h-7.334Z" transform="translate(-1351.244 -491.905)" fill="#231f20"/>
            <path id="Trazado_877336" data-name="Trazado 877336" d="M1559.972,589.427h-2.967V586.46h2.967Zm-1.939-1.028h.911v-.911h-.911Z" transform="translate(-1142.871 -430.474)" fill="#231f20"/>
            <path id="Trazado_877337" data-name="Trazado 877337" d="M1890.438,589.427h-2.968V586.46h2.968Zm-1.94-1.028h.911v-.911h-.911Z" transform="translate(-1385.438 -430.474)" fill="#231f20"/>
            <path id="Trazado_877338" data-name="Trazado 877338" d="M1890.438,825.944h-2.968v-2.967h2.968Zm-1.94-1.028h.911V824h-.911Z" transform="translate(-1385.438 -604.082)" fill="#231f20"/>
            <path id="Trazado_877339" data-name="Trazado 877339" d="M1559.972,825.944h-2.967v-2.967h2.967Zm-1.939-1.028h.911V824h-.911Z" transform="translate(-1142.871 -604.082)" fill="#231f20"/>
            <rect id="Rectángulo_402428" data-name="Rectángulo 402428" width="85.66" height="1.028" transform="translate(416.885 156.956)" fill="#231f20"/>
            <rect id="Rectángulo_402429" data-name="Rectángulo 402429" width="1.028" height="60.903" transform="translate(415.104 158.506)" fill="#231f20"/>
            <rect id="Rectángulo_402430" data-name="Rectángulo 402430" width="1.028" height="60.903" transform="translate(503.001 158.506)" fill="#231f20"/>
            <rect id="Rectángulo_402431" data-name="Rectángulo 402431" width="85.958" height="1.028" transform="translate(416.588 219.865)" fill="#231f20"/>
            <path id="Trazado_877340" data-name="Trazado 877340" d="M1799.9,793.079,1783.8,777.4l2.5,22.328,4.625-4.848,3.812,7.792,2.307-1.129-3.812-7.792Z" transform="translate(-1309.344 -570.63)" fill="#231f20"/>
            <path id="Trazado_877341" data-name="Trazado 877341" d="M1584.066,956.367h29.311l-14.655-24.22Z" transform="translate(-1162.734 -684.215)" fill="#6a21db"/>
            <path id="Trazado_877342" data-name="Trazado 877342" d="M1559.268,972.832h4.16l9.031-14.741-2.146-3.513Z" transform="translate(-1144.532 -700.68)" fill="#6a21db"/>
            <path id="Trazado_877343" data-name="Trazado 877343" d="M1586.349,946.444h-45.938V900.506h39.136v1.028h-38.109v43.882h43.882V907.308h1.028Z" transform="translate(-1130.69 -660.99)" fill="#231f20"/>
            <path id="Trazado_877344" data-name="Trazado 877344" d="M1705.8,892.962h-2.045v-2.045h-2.039v2.045h-2.045V895h2.045v2.045h2.039V895h2.045Z" transform="translate(-1247.588 -653.951)" fill="#231f20"/>
            <path id="Trazado_877345" data-name="Trazado 877345" d="M924.907,476.312H884v-2.418h40.9Zm43.582,16H943.353v2.418h25.136Zm-78.407,9.049H884v2.418h6.081Zm0-40.685H884V463.1h6.081Zm21.7,63.761H894.933v2.418h16.846Zm40.9-17.724H946.6v2.418h6.081Zm-57.91,28.26H884v2.418h10.771Zm94.808-61.081H974.76v2.418h14.821ZM914.636,467H899.815v2.418h14.821Zm14.14,62.8H904.9v2.418h23.874Zm8.568,5.18H897.973v2.418h39.371Zm52.237-48.643H917.335v2.418h72.246Zm-19.347,26.929H938.693v2.418h31.541Zm-.815-39.367h-40.9v2.418h40.9ZM936.7,492.315H917.335v2.418H936.7ZM947.831,467H920.493v2.418h27.337Zm51.977,57.444h-31.55v2.418h31.55Zm-56.455,15.679h-45.38v2.418h45.38Zm-8.634-26.857H904.455v2.418h30.264Zm55.77,0H974.449v2.418h16.039Zm-69.995,5.268H904.454v2.418h16.039Zm69.995,16.446H960.47v2.418h30.019Zm-33.5,0H940.947v2.418h16.039Zm-36.045,9.783H904.9v2.418h16.039Zm-33.9,11.083H884v2.418h3.04Zm40.076-54.478H894.773v2.418h32.345ZM980.184,529.8H933.471v2.418h46.713ZM992.9,501.364H931.658v2.418H992.9ZM964.015,524.44H915.49v2.418h48.526ZM943.3,506.716H894.773v2.418H943.3Zm54.389-25.837H897.973V483.3h99.715Zm0-20.2H894.933V463.1H997.688Zm-118.907,0h-1.323V558.26h1.323Z" transform="translate(-644.071 -338.148)" fill="#dcedff"/>
            <path id="Trazado_877346" data-name="Trazado 877346" d="M892.2,72.051a.686.686,0,0,1-.685-.685v-3.29a.685.685,0,0,1,1.371,0v3.29a.686.686,0,0,1-.685.685m0-7.4a.685.685,0,0,1-.685-.685V60.672a.685.685,0,1,1,1.371,0v3.291a.685.685,0,0,1-.685.685m0-7.4a.686.686,0,0,1-.685-.685V53.27a.685.685,0,1,1,1.371,0v3.29a.686.686,0,0,1-.685.685m0-7.4a.685.685,0,0,1-.685-.685v-3.29a.685.685,0,1,1,1.371,0v3.29a.685.685,0,0,1-.685.685m0-7.4a.686.686,0,0,1-.685-.685v-3.29a.685.685,0,1,1,1.371,0v3.29a.686.686,0,0,1-.685.685m0-7.4a.685.685,0,0,1-.685-.685V31.062a.685.685,0,0,1,1.371,0v3.291a.685.685,0,0,1-.685.685m0-7.4a.685.685,0,0,1-.685-.685V23.66a.685.685,0,1,1,1.371,0v3.29a.685.685,0,0,1-.685.685m0-7.4a.686.686,0,0,1-.685-.685v-3.29a.685.685,0,0,1,1.371,0v3.29a.686.686,0,0,1-.685.685m0-7.4a.685.685,0,0,1-.685-.685V8.855a.685.685,0,1,1,1.371,0v3.291a.685.685,0,0,1-.685.685m.205-7.388a.685.685,0,0,1-.67-.833,7.115,7.115,0,0,1,1.574-3.244.685.685,0,1,1,1.018.918A5.834,5.834,0,0,0,893.072,4.9a.686.686,0,0,1-.669.538m162.586-4.067h-1.954a.685.685,0,0,1,0-1.371h1.954a.685.685,0,1,1,0,1.371m-6.066,0h-3.29a.685.685,0,1,1,0-1.371h3.29a.685.685,0,1,1,0,1.371m-7.4,0h-3.29a.685.685,0,1,1,0-1.371h3.29a.685.685,0,0,1,0,1.371m-7.4,0h-3.291a.685.685,0,0,1,0-1.371h3.291a.685.685,0,1,1,0,1.371m-7.4,0h-3.291a.685.685,0,1,1,0-1.371h3.291a.685.685,0,0,1,0,1.371m-7.4,0h-3.291a.685.685,0,0,1,0-1.371h3.291a.685.685,0,1,1,0,1.371m-7.4,0h-3.29a.685.685,0,1,1,0-1.371h3.29a.685.685,0,1,1,0,1.371m-7.4,0h-3.291a.685.685,0,0,1,0-1.371h3.291a.685.685,0,1,1,0,1.371m-7.4,0h-3.291a.685.685,0,0,1,0-1.371h3.291a.685.685,0,1,1,0,1.371m-7.4,0h-3.291a.685.685,0,1,1,0-1.371H989.7a.685.685,0,0,1,0,1.371m-7.4,0h-3.29a.685.685,0,0,1,0-1.371h3.29a.685.685,0,1,1,0,1.371m-7.4,0h-3.29a.685.685,0,1,1,0-1.371h3.29a.685.685,0,0,1,0,1.371m-7.4,0h-3.291a.685.685,0,1,1,0-1.371H967.5a.685.685,0,1,1,0,1.371m-7.4,0H956.8A.685.685,0,1,1,956.8,0h3.29a.685.685,0,0,1,0,1.371m-7.4,0H949.4A.685.685,0,1,1,949.4,0h3.291a.685.685,0,1,1,0,1.371m-7.4,0H942A.685.685,0,0,1,942,0h3.291a.685.685,0,0,1,0,1.371m-7.4,0H934.6A.685.685,0,1,1,934.6,0h3.29a.685.685,0,0,1,0,1.371m-7.4,0h-3.29a.685.685,0,0,1,0-1.371h3.29a.685.685,0,1,1,0,1.371m-7.4,0h-3.29a.685.685,0,1,1,0-1.371h3.29a.685.685,0,0,1,0,1.371m-7.4,0h-3.291a.685.685,0,1,1,0-1.371h3.291a.685.685,0,1,1,0,1.371m-7.4,0h-3.29a.685.685,0,1,1,0-1.371h3.29a.685.685,0,0,1,0,1.371m-7.4,0h-3.29a.685.685,0,1,1,0-1.371h3.29a.685.685,0,1,1,0,1.371" transform="translate(-654.387 -0.005)" fill="#231f20"/>
            <rect id="Rectángulo_402432" data-name="Rectángulo 402432" width="176.868" height="96.662" transform="translate(33.731 125.304)" fill="#fff"/>
            <path id="Trazado_877347" data-name="Trazado 877347" d="M302.782,566.863h-177.9V469.174h177.9Zm-176.869-1.028H301.754V470.2H125.913Z" transform="translate(-91.668 -344.384)" fill="#231f20"/>
            <path id="Trazado_877348" data-name="Trazado 877348" d="M298.82,421.514H131.685a4.867,4.867,0,0,0-4.867,4.867V434.7H303.686v-8.324a4.867,4.867,0,0,0-4.867-4.867" transform="translate(-93.087 -309.4)" fill="#00ffdf"/>
            <path id="Trazado_877349" data-name="Trazado 877349" d="M302.782,433.8h-177.9v-8.838a5.387,5.387,0,0,1,5.381-5.381H297.4a5.387,5.387,0,0,1,5.381,5.381Zm-176.869-1.028H301.754v-7.81a4.358,4.358,0,0,0-4.353-4.353H130.266a4.358,4.358,0,0,0-4.353,4.353Z" transform="translate(-91.668 -307.982)" fill="#231f20"/>
            <path id="Trazado_877350" data-name="Trazado 877350" d="M151.671,442.793a2.491,2.491,0,1,1,2.491-2.491,2.494,2.494,0,0,1-2.491,2.491m0-3.954a1.463,1.463,0,1,0,1.463,1.463,1.464,1.464,0,0,0-1.463-1.463" transform="translate(-109.501 -321.363)" fill="#231f20"/>
            <path id="Trazado_877351" data-name="Trazado 877351" d="M176.457,442.793a2.491,2.491,0,1,1,2.491-2.491,2.494,2.494,0,0,1-2.491,2.491m0-3.954a1.463,1.463,0,1,0,1.463,1.463,1.464,1.464,0,0,0-1.463-1.463" transform="translate(-127.694 -321.363)" fill="#231f20"/>
            <path id="Trazado_877352" data-name="Trazado 877352" d="M201.244,442.793a2.491,2.491,0,1,1,2.491-2.491,2.494,2.494,0,0,1-2.491,2.491m0-3.954a1.463,1.463,0,1,0,1.463,1.463,1.464,1.464,0,0,0-1.463-1.463" transform="translate(-145.888 -321.363)" fill="#231f20"/>
            <path id="Trazado_877353" data-name="Trazado 877353" d="M194.105,564.3l-4.789,1.755,4.789,1.74v1.8l-6.846-2.6v-1.87l6.846-2.6Z" transform="translate(-137.452 -412.901)" fill="#6a21db"/>
            <path id="Trazado_877354" data-name="Trazado 877354" d="M225.746,549.219h2L223,562.767h-2Z" transform="translate(-162.218 -403.138)" fill="#6a21db"/>
            <path id="Trazado_877355" data-name="Trazado 877355" d="M260.667,565.123v1.87l-6.846,2.6v-1.8l4.789-1.74-4.789-1.755V562.52Z" transform="translate(-186.309 -412.902)" fill="#6a21db"/>
            <rect id="Rectángulo_402433" data-name="Rectángulo 402433" width="24.876" height="24.876" transform="translate(98.808 145.752)" fill="#6a21db"/>
            <rect id="Rectángulo_402434" data-name="Rectángulo 402434" width="24.876" height="24.876" transform="translate(131.758 145.752)" fill="#6a21db"/>
            <rect id="Rectángulo_402435" data-name="Rectángulo 402435" width="24.876" height="24.876" transform="translate(164.707 145.752)" fill="#6a21db"/>
            <rect id="Rectángulo_402436" data-name="Rectángulo 402436" width="90.775" height="2.386" transform="translate(98.808 178.464)" fill="#6a21db"/>
            <rect id="Rectángulo_402437" data-name="Rectángulo 402437" width="90.775" height="2.386" transform="translate(98.808 193.74)" fill="#6a21db"/>
            <rect id="Rectángulo_402438" data-name="Rectángulo 402438" width="18.084" height="2.386" transform="translate(98.808 199.132)" fill="#6a21db"/>
            <rect id="Rectángulo_402439" data-name="Rectángulo 402439" width="70.154" height="2.386" transform="translate(119.429 199.132)" fill="#6a21db"/>
            <rect id="Rectángulo_402440" data-name="Rectángulo 402440" width="32.95" height="2.386" transform="translate(98.808 184.241)" fill="#6a21db"/>
            <rect id="Rectángulo_402441" data-name="Rectángulo 402441" width="32.95" height="2.386" transform="translate(134.158 184.241)" fill="#6a21db"/>
            <path id="Trazado_877356" data-name="Trazado 877356" d="M276.333,933.11h-3.29a.685.685,0,1,1,0-1.371h3.29a.685.685,0,0,1,0,1.371m-7.4,0H265.64a.685.685,0,1,1,0-1.371h3.291a.685.685,0,1,1,0,1.371m-7.4,0h-3.29a.685.685,0,0,1,0-1.371h3.29a.685.685,0,1,1,0,1.371m-7.4,0h-3.29a.685.685,0,1,1,0-1.371h3.29a.685.685,0,1,1,0,1.371m-7.4,0h-3.29a.685.685,0,0,1,0-1.371h3.29a.685.685,0,1,1,0,1.371m-7.4,0H236.03a.685.685,0,1,1,0-1.371h3.291a.685.685,0,0,1,0,1.371m-7.4,0h-3.29a.685.685,0,0,1,0-1.371h3.29a.685.685,0,1,1,0,1.371m-7.4,0h-3.29a.685.685,0,1,1,0-1.371h3.29a.685.685,0,0,1,0,1.371m-7.4,0h-3.291a.685.685,0,1,1,0-1.371h3.291a.685.685,0,1,1,0,1.371m-7.4,0h-3.29a.685.685,0,0,1,0-1.371h3.29a.685.685,0,1,1,0,1.371m-7.4,0h-3.29a.685.685,0,1,1,0-1.371h3.29a.685.685,0,1,1,0,1.371m-7.4,0h-3.29a.685.685,0,0,1,0-1.371h3.29a.685.685,0,1,1,0,1.371m-7.4,0h-3.291a.685.685,0,1,1,0-1.371H187.5a.685.685,0,1,1,0,1.371m-7.4,0h-3.29a.685.685,0,0,1,0-1.371h3.29a.685.685,0,1,1,0,1.371m-7.4,0h-3.29a.685.685,0,1,1,0-1.371h3.29a.685.685,0,0,1,0,1.371m-7.4,0h-3.291a.685.685,0,1,1,0-1.371H165.3a.685.685,0,1,1,0,1.371m-7.4,0H154.6a.685.685,0,0,1,0-1.371h3.29a.685.685,0,1,1,0,1.371m-7.4,0H147.2a.685.685,0,1,1,0-1.371h3.29a.685.685,0,0,1,0,1.371m-7.4,0H139.8a.685.685,0,0,1,0-1.371h3.29a.685.685,0,1,1,0,1.371m-7.4,0H132.4a.685.685,0,1,1,0-1.371h3.291a.685.685,0,0,1,0,1.371m-7.4,0h-3.29a.685.685,0,0,1,0-1.371h3.29a.685.685,0,1,1,0,1.371m-3.357-4.046a.685.685,0,0,1-.685-.685v-3.29a.685.685,0,0,1,1.371,0v3.29a.685.685,0,0,1-.685.685m0-7.4a.685.685,0,0,1-.685-.685v-3.291a.685.685,0,0,1,1.371,0v3.291a.685.685,0,0,1-.685.685m0-7.4a.686.686,0,0,1-.685-.685v-3.291a.685.685,0,0,1,1.371,0v3.291a.686.686,0,0,1-.685.685m0-7.4a.685.685,0,0,1-.685-.685v-3.291a.685.685,0,0,1,1.371,0v3.291a.685.685,0,0,1-.685.685m0-7.4a.686.686,0,0,1-.685-.686v-3.29a.685.685,0,0,1,1.371,0v3.29a.686.686,0,0,1-.685.686m0-7.4a.685.685,0,0,1-.685-.685v-3.291a.685.685,0,0,1,1.371,0v3.291a.685.685,0,0,1-.685.685m0-7.4a.685.685,0,0,1-.685-.685v-3.29a.685.685,0,0,1,1.371,0v3.29a.685.685,0,0,1-.685.685m0-7.4a.686.686,0,0,1-.685-.685v-3.291a.685.685,0,0,1,1.371,0v3.291a.686.686,0,0,1-.685.685" transform="translate(-91.195 -640.496)" fill="#231f20"/>
            <rect id="Rectángulo_402442" data-name="Rectángulo 402442" width="5.717" height="5.717" transform="translate(478.669 260.606)" fill="#8223ff"/>
            <rect id="Rectángulo_402443" data-name="Rectángulo 402443" width="5.717" height="5.717" transform="translate(33.731 87.106)" fill="#ffacb0"/>
            <rect id="Rectángulo_402444" data-name="Rectángulo 402444" width="5.717" height="5.717" transform="translate(12.793 216.551)" fill="#ffacb0"/>
            <rect id="Rectángulo_402445" data-name="Rectángulo 402445" width="5.717" height="5.717" transform="translate(317.087 16.736)" fill="#8223ff"/>
            <rect id="Rectángulo_402446" data-name="Rectángulo 402446" width="5.717" height="5.717" transform="translate(185.138 337.829)" fill="#ffacb0"/>
            <rect id="Rectángulo_402447" data-name="Rectángulo 402447" width="5.717" height="5.717" transform="translate(12.793 229.187)" fill="#ffacb0"/>
            <rect id="Rectángulo_402448" data-name="Rectángulo 402448" width="5.717" height="5.717" transform="translate(0 216.551)" fill="#8223ff"/>
            <rect id="Rectángulo_402449" data-name="Rectángulo 402449" width="5.717" height="5.717" transform="translate(0 229.187)" fill="#ffacb0"/>
          </g>
        </g>
      </g>
    </g>
    <text id="CSS" transform="translate(1295 4614)" fill="#3a1d71" font-size="36" font-family="Roboto-Black, Roboto" font-weight="800"><tspan x="0" y="0">CSS</tspan></text>
  </g>
</svg>
