<svg xmlns="http://www.w3.org/2000/svg" xmlns:xlink="http://www.w3.org/1999/xlink" width="505" height="566.458" viewBox="0 0 505 566.458">
  <defs>
    <clipPath id="clip-path">
      <rect id="Rectángulo_402263" data-name="Rectángulo 402263" width="505" height="480.027" fill="none"/>
    </clipPath>
  </defs>
  <g id="_3" data-name="3" transform="translate(0 86.43)">
    <rect id="Rectángulo_402259" data-name="Rectángulo 402259" width="16.486" height="16.486" transform="matrix(0.707, -0.707, 0.707, 0.707, 26.025, -34.329)" fill="none" stroke="#9c9c9c" stroke-linecap="round" stroke-linejoin="round" stroke-width="1"/>
    <rect id="Rectángulo_402260" data-name="Rectángulo 402260" width="12.642" height="12.642" transform="translate(454.958 380.462) rotate(-45)" fill="none" stroke="#9c9c9c" stroke-linecap="round" stroke-linejoin="round" stroke-width="1"/>
    <rect id="Rectángulo_402261" data-name="Rectángulo 402261" width="12.642" height="12.642" transform="translate(461.448 22.925) rotate(-45)" fill="none" stroke="#9c9c9c" stroke-linecap="round" stroke-linejoin="round" stroke-width="1"/>
    <g id="Grupo_1100572" data-name="Grupo 1100572">
      <g id="Grupo_1100571" data-name="Grupo 1100571" clip-path="url(#clip-path)">
        <rect id="Rectángulo_402262" data-name="Rectángulo 402262" width="12.642" height="12.642" transform="matrix(0.707, -0.707, 0.707, 0.707, 0.551, 268.874)" fill="none" stroke="#9c9c9c" stroke-linecap="round" stroke-linejoin="round" stroke-width="1"/>
      </g>
    </g>
    <rect id="Rectángulo_402264" data-name="Rectángulo 402264" width="12.642" height="12.642" transform="matrix(0.707, -0.707, 0.707, 0.707, 9.18, -13.733)" fill="none" stroke="#9c9c9c" stroke-linecap="round" stroke-linejoin="round" stroke-width="1"/>
    <rect id="Rectángulo_402265" data-name="Rectángulo 402265" width="12.642" height="12.642" transform="matrix(0.707, -0.707, 0.707, 0.707, 328.139, 449.72)" fill="none" stroke="#9c9c9c" stroke-linecap="round" stroke-linejoin="round" stroke-width="1"/>
    <line id="Línea_555" data-name="Línea 555" y2="18.268" transform="translate(36.359 4.656)" fill="none" stroke="#9c9c9c" stroke-linecap="round" stroke-linejoin="round" stroke-width="1"/>
    <line id="Línea_556" data-name="Línea 556" x2="18.268" transform="translate(27.225 13.79)" fill="none" stroke="#9c9c9c" stroke-linecap="round" stroke-linejoin="round" stroke-width="1"/>
    <line id="Línea_557" data-name="Línea 557" x2="20.096" y2="20.096" transform="translate(447.164 308.017)" fill="none" stroke="#9c9c9c" stroke-linecap="round" stroke-linejoin="round" stroke-width="1"/>
    <line id="Línea_558" data-name="Línea 558" y1="20.096" x2="20.096" transform="translate(447.164 308.016)" fill="none" stroke="#9c9c9c" stroke-linecap="round" stroke-linejoin="round" stroke-width="1"/>
    <g id="Grupo_1100574" data-name="Grupo 1100574">
      <g id="Grupo_1100573" data-name="Grupo 1100573" clip-path="url(#clip-path)">
        <line id="Línea_559" data-name="Línea 559" x2="14.439" y2="14.439" transform="translate(1.768 428.38)" fill="none" stroke="#9c9c9c" stroke-linecap="round" stroke-linejoin="round" stroke-width="1"/>
        <line id="Línea_560" data-name="Línea 560" y1="14.439" x2="14.439" transform="translate(1.768 428.38)" fill="none" stroke="#9c9c9c" stroke-linecap="round" stroke-linejoin="round" stroke-width="1"/>
        <line id="Línea_561" data-name="Línea 561" x2="14.439" y2="14.439" transform="translate(347.957 0.552)" fill="none" stroke="#9c9c9c" stroke-linecap="round" stroke-linejoin="round" stroke-width="1"/>
        <line id="Línea_562" data-name="Línea 562" y1="14.439" x2="14.439" transform="translate(347.957 0.552)" fill="none" stroke="#9c9c9c" stroke-linecap="round" stroke-linejoin="round" stroke-width="1"/>
      </g>
    </g>
    <path id="Trazado_877086" data-name="Trazado 877086" d="M429.358,54.365,387.8,22.736V39.38H326.321V69.35H387.8V85.994Z" transform="translate(33.493 -108.666)" fill="none" stroke="#263238" stroke-linecap="round" stroke-linejoin="round" stroke-width="1"/>
    <g id="Grupo_1100576" data-name="Grupo 1100576">
      <g id="Grupo_1100575" data-name="Grupo 1100575" clip-path="url(#clip-path)">
        <path id="Trazado_877087" data-name="Trazado 877087" d="M291.209,471.936H79.187a12.43,12.43,0,0,1-12.43-12.429V23.343a12.43,12.43,0,0,1,12.43-12.429H291.209a12.429,12.429,0,0,1,12.429,12.429V459.508a12.429,12.429,0,0,1-12.429,12.429" transform="translate(6.852 1.12)" fill="#fff"/>
        <rect id="Rectángulo_402267" data-name="Rectángulo 402267" width="236.881" height="461.022" rx="11.272" transform="translate(73.608 12.034)" fill="none" stroke="#263238" stroke-linecap="round" stroke-linejoin="round" stroke-width="1"/>
        <path id="Trazado_877088" data-name="Trazado 877088" d="M66.757,393.5V420.24a12.429,12.429,0,0,0,12.429,12.429H291.209a12.429,12.429,0,0,0,12.429-12.429V393.5Z" transform="translate(6.852 40.388)" fill="#00ffdf"/>
        <path id="Trazado_877089" data-name="Trazado 877089" d="M66.757,393.5V420.24a12.429,12.429,0,0,0,12.429,12.429H291.209a12.429,12.429,0,0,0,12.429-12.429V393.5Z" transform="translate(6.852 40.388)" fill="none" stroke="#263238" stroke-miterlimit="10" stroke-width="1"/>
        <rect id="Rectángulo_402268" data-name="Rectángulo 402268" width="49.21" height="49.21" transform="translate(165.265 153.926)" fill="#263238"/>
        <rect id="Rectángulo_402269" data-name="Rectángulo 402269" width="49.21" height="49.21" transform="translate(165.265 153.926)" fill="none" stroke="#263238" stroke-miterlimit="10" stroke-width="1"/>
        <rect id="Rectángulo_402270" data-name="Rectángulo 402270" width="49.21" height="49.21" transform="translate(40.384 153.926)" fill="#263238"/>
        <rect id="Rectángulo_402271" data-name="Rectángulo 402271" width="49.21" height="49.21" transform="translate(40.384 153.926)" fill="none" stroke="#263238" stroke-miterlimit="10" stroke-width="1"/>
        <rect id="Rectángulo_402272" data-name="Rectángulo 402272" width="49.21" height="49.21" transform="translate(165.265 218.811)" fill="#263238"/>
        <rect id="Rectángulo_402273" data-name="Rectángulo 402273" width="49.21" height="49.21" transform="translate(165.265 218.811)" fill="none" stroke="#263238" stroke-miterlimit="10" stroke-width="1"/>
        <rect id="Rectángulo_402274" data-name="Rectángulo 402274" width="49.21" height="49.21" transform="translate(233.458 218.811)" fill="#263238"/>
        <rect id="Rectángulo_402275" data-name="Rectángulo 402275" width="49.21" height="49.21" transform="translate(233.458 218.811)" fill="none" stroke="#263238" stroke-miterlimit="10" stroke-width="1"/>
        <rect id="Rectángulo_402276" data-name="Rectángulo 402276" width="49.21" height="49.21" transform="translate(40.384 218.811)" fill="#263238"/>
        <rect id="Rectángulo_402277" data-name="Rectángulo 402277" width="49.21" height="49.21" transform="translate(40.384 218.811)" fill="none" stroke="#263238" stroke-miterlimit="10" stroke-width="1"/>
        <rect id="Rectángulo_402278" data-name="Rectángulo 402278" width="49.21" height="49.21" transform="translate(167.499 150.017)" fill="#fff"/>
        <rect id="Rectángulo_402279" data-name="Rectángulo 402279" width="49.21" height="49.21" transform="translate(167.499 150.017)" fill="none" stroke="#263238" stroke-linecap="round" stroke-linejoin="round" stroke-width="1"/>
        <rect id="Rectángulo_402280" data-name="Rectángulo 402280" width="49.21" height="49.21" transform="translate(42.618 150.017)" fill="#00ffdf"/>
        <rect id="Rectángulo_402281" data-name="Rectángulo 402281" width="49.21" height="49.21" transform="translate(42.618 150.017)" fill="none" stroke="#263238" stroke-miterlimit="10" stroke-width="1"/>
        <rect id="Rectángulo_402282" data-name="Rectángulo 402282" width="49.21" height="49.21" transform="translate(167.499 214.902)" fill="#a854f3"/>
        <rect id="Rectángulo_402283" data-name="Rectángulo 402283" width="49.21" height="49.21" transform="translate(167.499 214.902)" fill="none" stroke="#263238" stroke-miterlimit="10" stroke-width="1"/>
        <rect id="Rectángulo_402284" data-name="Rectángulo 402284" width="49.21" height="49.21" transform="translate(235.692 214.902)" fill="#00ffdf"/>
        <rect id="Rectángulo_402285" data-name="Rectángulo 402285" width="49.21" height="49.21" transform="translate(235.692 214.902)" fill="none" stroke="#263238" stroke-miterlimit="10" stroke-width="1"/>
        <rect id="Rectángulo_402286" data-name="Rectángulo 402286" width="49.21" height="49.21" transform="translate(42.618 214.902)" fill="#fff"/>
        <rect id="Rectángulo_402287" data-name="Rectángulo 402287" width="49.21" height="49.21" transform="translate(42.618 214.902)" fill="none" stroke="#263238" stroke-linecap="round" stroke-linejoin="round" stroke-width="1"/>
        <path id="Trazado_877090" data-name="Trazado 877090" d="M299.093,24.369H253.256a17.689,17.689,0,1,0,0,35.377h45.838a17.689,17.689,0,0,0,0-35.377" transform="translate(24.178 2.501)" fill="#263238"/>
        <path id="Trazado_877091" data-name="Trazado 877091" d="M299.093,24.369H253.256a17.689,17.689,0,1,0,0,35.377h45.838a17.689,17.689,0,0,0,0-35.377Z" transform="translate(24.178 2.501)" fill="none" stroke="#263238" stroke-miterlimit="10" stroke-width="1"/>
        <path id="Trazado_877092" data-name="Trazado 877092" d="M302.089,56.035H256.251a17.689,17.689,0,0,1,0-35.377h45.838a17.689,17.689,0,1,1,0,35.377" transform="translate(24.485 2.12)" fill="#00ffdf"/>
        <path id="Trazado_877093" data-name="Trazado 877093" d="M302.089,56.035H256.251a17.689,17.689,0,0,1,0-35.377h45.838a17.689,17.689,0,1,1,0,35.377Z" transform="translate(24.485 2.12)" fill="none" stroke="#263238" stroke-miterlimit="10" stroke-width="1"/>
        <path id="Trazado_877094" data-name="Trazado 877094" d="M271.31,38.164a15.723,15.723,0,1,0-15.723,15.722A15.723,15.723,0,0,0,271.31,38.164" transform="translate(24.619 2.303)" fill="#fff"/>
        <path id="Trazado_877095" data-name="Trazado 877095" d="M271.31,38.164a15.723,15.723,0,1,0-15.723,15.722A15.723,15.723,0,0,0,271.31,38.164Z" transform="translate(24.619 2.303)" fill="none" stroke="#263238" stroke-linecap="round" stroke-linejoin="round" stroke-width="1"/>
        <line id="Línea_563" data-name="Línea 563" x2="30.692" transform="translate(93.681 43.66)" fill="none" stroke="#263238" stroke-linecap="round" stroke-linejoin="round" stroke-width="1"/>
        <line id="Línea_564" data-name="Línea 564" x2="30.692" transform="translate(93.681 51.699)" fill="none" stroke="#263238" stroke-linecap="round" stroke-linejoin="round" stroke-width="1"/>
        <line id="Línea_565" data-name="Línea 565" x2="30.692" transform="translate(93.681 59.737)" fill="none" stroke="#263238" stroke-linecap="round" stroke-linejoin="round" stroke-width="1"/>
        <path id="Trazado_877096" data-name="Trazado 877096" d="M269.139,276.163a13.884,13.884,0,1,1-13.884-13.884,13.885,13.885,0,0,1,13.884,13.884" transform="translate(24.773 26.919)" fill="#fff"/>
        <circle id="Elipse_11596" data-name="Elipse 11596" cx="13.884" cy="13.884" r="13.884" transform="translate(266.143 289.199)" fill="none" stroke="#263238" stroke-linecap="round" stroke-linejoin="round" stroke-width="1"/>
        <path id="Trazado_877097" data-name="Trazado 877097" d="M269.139,317.253a13.884,13.884,0,1,1-13.884-13.884,13.885,13.885,0,0,1,13.884,13.884" transform="translate(24.773 31.137)" fill="#fff"/>
        <circle id="Elipse_11597" data-name="Elipse 11597" cx="13.884" cy="13.884" r="13.884" transform="translate(266.143 334.506)" fill="none" stroke="#263238" stroke-linecap="round" stroke-linejoin="round" stroke-width="1"/>
        <path id="Trazado_877098" data-name="Trazado 877098" d="M269.139,358.344a13.884,13.884,0,1,1-13.884-13.884,13.885,13.885,0,0,1,13.884,13.884" transform="translate(24.773 35.354)" fill="#fff"/>
        <circle id="Elipse_11598" data-name="Elipse 11598" cx="13.884" cy="13.884" r="13.884" transform="translate(266.143 379.814)" fill="none" stroke="#263238" stroke-linecap="round" stroke-linejoin="round" stroke-width="1"/>
        <line id="Línea_566" data-name="Línea 566" x2="204.74" transform="translate(92.238 73.097)" fill="none" stroke="#263238" stroke-linecap="round" stroke-linejoin="round" stroke-width="1"/>
        <rect id="Rectángulo_402288" data-name="Rectángulo 402288" width="167.142" height="127.884" transform="translate(30.047 292.591)" fill="#263238"/>
        <rect id="Rectángulo_402289" data-name="Rectángulo 402289" width="167.142" height="127.884" transform="translate(30.047 292.591)" fill="#3a1d71" stroke="#263238" stroke-miterlimit="10" stroke-width="1"/>
        <line id="Línea_567" data-name="Línea 567" y1="127.884" x2="167.142" transform="translate(30.047 292.591)" fill="#263238"/>
        <line id="Línea_568" data-name="Línea 568" y1="127.884" x2="167.142" transform="translate(30.047 292.591)" fill="none" stroke="#263238" stroke-miterlimit="10" stroke-width="1"/>
        <line id="Línea_569" data-name="Línea 569" x2="167.142" y2="127.884" transform="translate(30.047 292.591)" fill="#263238"/>
        <line id="Línea_570" data-name="Línea 570" x2="167.142" y2="127.884" transform="translate(30.047 292.591)" fill="none" stroke="#263238" stroke-miterlimit="10" stroke-width="1"/>
        <rect id="Rectángulo_402290" data-name="Rectángulo 402290" width="167.142" height="127.884" transform="translate(35.073 287.006)" fill="#fff"/>
        <rect id="Rectángulo_402291" data-name="Rectángulo 402291" width="167.142" height="127.884" transform="translate(35.073 287.006)" fill="none" stroke="#263238" stroke-linecap="round" stroke-linejoin="round" stroke-width="1"/>
        <line id="Línea_571" data-name="Línea 571" y1="127.884" x2="167.142" transform="translate(35.073 287.007)" fill="none" stroke="#263238" stroke-linecap="round" stroke-linejoin="round" stroke-width="1"/>
        <line id="Línea_572" data-name="Línea 572" x2="167.142" y2="127.884" transform="translate(35.073 287.006)" fill="none" stroke="#263238" stroke-linecap="round" stroke-linejoin="round" stroke-width="1"/>
        <path id="Trazado_877099" data-name="Trazado 877099" d="M320.462,123.4H157.89a19.761,19.761,0,1,1,0-39.522H320.462a19.761,19.761,0,0,1,0,39.522" transform="translate(14.177 8.609)" fill="#263238"/>
        <path id="Trazado_877100" data-name="Trazado 877100" d="M320.462,123.4H157.89a19.761,19.761,0,1,1,0-39.522H320.462a19.761,19.761,0,0,1,0,39.522Z" transform="translate(14.177 8.609)" fill="none" stroke="#263238" stroke-miterlimit="10" stroke-width="1"/>
        <path id="Trazado_877101" data-name="Trazado 877101" d="M324.514,120.871H161.942a19.761,19.761,0,1,1,0-39.522H324.514a19.761,19.761,0,0,1,0,39.522" transform="translate(14.593 8.349)" fill="#fff"/>
        <path id="Trazado_877102" data-name="Trazado 877102" d="M324.514,120.871H161.942a19.761,19.761,0,1,1,0-39.522H324.514a19.761,19.761,0,0,1,0,39.522Z" transform="translate(14.593 8.349)" fill="none" stroke="#263238" stroke-linecap="round" stroke-linejoin="round" stroke-width="1"/>
      </g>
    </g>
    <path id="Trazado_877103" data-name="Trazado 877103" d="M212.043,136.869v50.479h46.314V139.072Z" transform="translate(21.763 14.048)" fill="#263238"/>
    <path id="Trazado_877104" data-name="Trazado 877104" d="M212.043,136.869v50.479h46.314V139.072l-46.314-2.2" transform="translate(21.763 14.048)" fill="none" stroke="#263238" stroke-miterlimit="10" stroke-width="1"/>
    <path id="Trazado_877105" data-name="Trazado 877105" d="M264.267,184.263h-48.18l-4.043-47.395h48.18Z" transform="translate(21.763 14.048)" fill="#00ffdf"/>
    <path id="Trazado_877106" data-name="Trazado 877106" d="M264.267,184.263h-48.18l-4.043-47.395h48.18Z" transform="translate(21.763 14.048)" fill="none" stroke="#263238" stroke-miterlimit="10" stroke-width="1"/>
    <g id="Grupo_1100578" data-name="Grupo 1100578">
      <g id="Grupo_1100577" data-name="Grupo 1100577" clip-path="url(#clip-path)">
        <path id="Trazado_877107" data-name="Trazado 877107" d="M298.763,213.166s-30.17-22.364-31.647-23.63-5.486-6.119-6.963-7.807-9.916-4.22-9.916-4.22-4.43-3.165-5.274-4.43-3.376.633-1.9,3.165,5.063,4.642,5.063,4.642H230.4s8.228,7.595,9.705,9.071,17.3,2.11,17.3,2.11,12.448,18.144,22.153,26.794,21.308,14.769,23.419,14.348,2.954-4.432,2.321-6.119-6.541-13.925-6.541-13.925" transform="translate(23.648 17.723)" fill="#fff"/>
        <path id="Trazado_877108" data-name="Trazado 877108" d="M298.763,213.166s-30.17-22.364-31.647-23.63-5.486-6.119-6.963-7.807-9.916-4.22-9.916-4.22-4.43-3.165-5.274-4.43-3.376.633-1.9,3.165,5.063,4.642,5.063,4.642H230.4s8.228,7.595,9.705,9.071,17.3,2.11,17.3,2.11,12.448,18.144,22.153,26.794,21.308,14.769,23.419,14.348,2.954-4.432,2.321-6.119S298.763,213.166,298.763,213.166Z" transform="translate(23.648 17.723)" fill="none" stroke="#263238" stroke-miterlimit="10" stroke-width="1"/>
        <path id="Trazado_877109" data-name="Trazado 877109" d="M235.954,181.078l6.541,3.587s8.649-3.8,10.971-3.165,4.64,3.586,4.64,3.586" transform="translate(24.218 18.585)" fill="none" stroke="#263238" stroke-miterlimit="10" stroke-width="1"/>
        <path id="Trazado_877110" data-name="Trazado 877110" d="M321.525,281.744l4.332,75.674s-2.6,18.2-.289,25.706,3.756,28.306,3.756,28.306-2.311,3.467-1.733,4.621,2.6,8.666,2.6,8.666l.867,4.043s5.488-2.6,7.51-2.6,6.354,3.178,6.354,3.178,4.621-7.8,4.332-10.109-2.311-4.622-2.311-6.066.578-4.332.578-6.643-.289-.578-.289-6.932,2.311-57.766,2.311-58.633,5.777-43.036,5.777-43.036l10.109,44.769s-1.733,24.839,0,40.725a270.359,270.359,0,0,1,1.444,30.617s-3.178,5.488-2.311,6.353a30.521,30.521,0,0,1,2.6,3.756s-.867,3.177-.289,4.91l.578,1.733,16.751-6.066,4.044,1.156a10.132,10.132,0,0,0,.289-4.911c-.578-2.31-2.022-4.621-1.733-5.777a47.444,47.444,0,0,0,.867-5.2c.289-2.31-.289-5.488-.289-7.8s3.177-61.811,2.888-63.255-3.177-57.477-3.177-57.477Z" transform="translate(33 28.888)" fill="#00ffdf"/>
        <path id="Trazado_877111" data-name="Trazado 877111" d="M321.525,281.744l4.332,75.674s-2.6,18.2-.289,25.706,3.756,28.306,3.756,28.306-2.311,3.467-1.733,4.621,2.6,8.666,2.6,8.666l.867,4.043s5.488-2.6,7.51-2.6,6.354,3.178,6.354,3.178,4.621-7.8,4.332-10.109-2.311-4.622-2.311-6.066.578-4.332.578-6.643-.289-.578-.289-6.932,2.311-57.766,2.311-58.633,5.777-43.036,5.777-43.036l10.109,44.769s-1.733,24.839,0,40.725a270.359,270.359,0,0,1,1.444,30.617s-3.178,5.488-2.311,6.353a30.521,30.521,0,0,1,2.6,3.756s-.867,3.177-.289,4.91l.578,1.733,16.751-6.066,4.044,1.156a10.132,10.132,0,0,0,.289-4.911c-.578-2.31-2.022-4.621-1.733-5.777a47.444,47.444,0,0,0,.867-5.2c.289-2.31-.289-5.488-.289-7.8s3.177-61.811,2.888-63.255-3.177-57.477-3.177-57.477Z" transform="translate(33 28.888)" fill="none" stroke="#263238" stroke-miterlimit="10" stroke-width="1"/>
        <line id="Línea_573" data-name="Línea 573" y1="4.473" x2="12.825" transform="translate(390.216 317.525)" fill="none" stroke="#263238" stroke-miterlimit="10" stroke-width="1"/>
        <path id="Trazado_877112" data-name="Trazado 877112" d="M364.336,409.122s17.514-5.441,15.134-5.951-10.033,1.87-10.712,2.21" transform="translate(37.394 41.373)" fill="none" stroke="#263238" stroke-miterlimit="10" stroke-width="1"/>
        <path id="Trazado_877113" data-name="Trazado 877113" d="M331.488,411.8s14.114-5.781,14.285-4.931-3.232,2.72-3.232,2.72" transform="translate(34.023 41.751)" fill="none" stroke="#263238" stroke-miterlimit="10" stroke-width="1"/>
        <path id="Trazado_877114" data-name="Trazado 877114" d="M345.607,405.213s-14.623-2.892-15.644-3.911,2.721-1.53,2.721-1.53" transform="translate(33.848 41.031)" fill="none" stroke="#263238" stroke-miterlimit="10" stroke-width="1"/>
        <path id="Trazado_877115" data-name="Trazado 877115" d="M330.544,415.295s-2.286,10.021-2.966,12.4-1.7,6.122-.509,7.481,6.8,2.211,12.582,1.871,7.482-1.871,7.822-3.4-1.19-7.482-1.7-9.863-1.365-7.913-1.365-7.913-4.21-2.7-6.353-3.177-7.51,2.6-7.51,2.6" transform="translate(33.513 42.353)" fill="#fff"/>
        <path id="Trazado_877116" data-name="Trazado 877116" d="M330.544,415.295s-2.286,10.021-2.966,12.4-1.7,6.122-.509,7.481,6.8,2.211,12.582,1.871,7.482-1.871,7.822-3.4-1.19-7.482-1.7-9.863-1.365-7.913-1.365-7.913-4.21-2.7-6.353-3.177S330.544,415.295,330.544,415.295Z" transform="translate(33.513 42.353)" fill="none" stroke="#263238" stroke-miterlimit="10" stroke-width="1"/>
        <path id="Trazado_877117" data-name="Trazado 877117" d="M326.55,430.744a3.664,3.664,0,0,0,.516,2.6c1.191,1.361,6.8,2.211,12.583,1.871s7.481-1.871,7.822-3.4a4.8,4.8,0,0,0,.007-1.329,26.241,26.241,0,0,1-8.939,1.809A45.886,45.886,0,0,1,326.55,430.744Z" transform="translate(33.514 44.184)" fill="none" stroke="#263238" stroke-miterlimit="10" stroke-width="1"/>
        <path id="Trazado_877118" data-name="Trazado 877118" d="M363.186,417.447s-.419,12.081.26,13.44,8.842,1.361,12.244,2.041,7.651,2.04,9.862,2.381,12.753.17,14.284-.68,1.361-3.571-.17-5.1-4.081-1.7-6.972-3.911-7.651-7.312-8.162-8.842a18.233,18.233,0,0,1-.55-4.237l-4.043-1.156Z" transform="translate(37.263 42.223)" fill="#fff"/>
        <path id="Trazado_877119" data-name="Trazado 877119" d="M363.186,417.447s-.419,12.081.26,13.44,8.842,1.361,12.244,2.041,7.651,2.04,9.862,2.381,12.753.17,14.284-.68,1.361-3.571-.17-5.1-4.081-1.7-6.972-3.911-7.651-7.312-8.162-8.842a18.233,18.233,0,0,1-.55-4.237l-4.043-1.156Z" transform="translate(37.263 42.223)" fill="none" stroke="#263238" stroke-miterlimit="10" stroke-width="1"/>
        <path id="Trazado_877120" data-name="Trazado 877120" d="M399.93,428.328a15.225,15.225,0,0,1-7.213,3.324c-5.815,1.077-12.061-1.937-17.229-2.583a98.785,98.785,0,0,1-12.388-2.8,11.453,11.453,0,0,0,.343,3.089c.68,1.361,8.842,1.361,12.243,2.041s7.652,2.04,9.862,2.381,12.753.17,14.284-.68C401.26,432.306,401.191,429.891,399.93,428.328Z" transform="translate(37.267 43.751)" fill="none" stroke="#263238" stroke-miterlimit="10" stroke-width="1"/>
        <path id="Trazado_877121" data-name="Trazado 877121" d="M352.122,180.43s-23.419,3.587-26.373,4.853-8.861,9.283-8.861,9.283l-22.031,14.6-3.8,1.478s6.751,24.052,8.017,24.262,25.616-11.015,25.616-11.015l-1.266,46.627-2.109,25.318s6.962,1.266,27.216,1.9,44.939-2.532,45.572-2.532,1.055-48.737,1.055-48.737l.422-9.916,15.823-11.182s-13.291-31.859-14.346-35.445-2.321-5.274-5.7-6.962-17.09-4.22-17.09-4.22Z" transform="translate(29.873 18.346)" fill="#263238"/>
        <path id="Trazado_877122" data-name="Trazado 877122" d="M352.122,180.43s-23.419,3.587-26.373,4.853-8.861,9.283-8.861,9.283l-22.031,14.6-3.8,1.478s6.751,24.052,8.017,24.262,25.616-11.015,25.616-11.015l-1.266,46.627-2.109,25.318s6.962,1.266,27.216,1.9,44.939-2.532,45.572-2.532,1.055-48.737,1.055-48.737l.422-9.916,15.823-11.182s-13.291-31.859-14.346-35.445-2.321-5.274-5.7-6.962-17.09-4.22-17.09-4.22Z" transform="translate(29.873 18.346)" fill="none" stroke="#263238" stroke-miterlimit="10" stroke-width="1"/>
        <path id="Trazado_877123" data-name="Trazado 877123" d="M347.054,194.153l-7.606-10.53,5.573-3.547Z" transform="translate(34.84 18.482)" fill="#fff"/>
        <path id="Trazado_877124" data-name="Trazado 877124" d="M347.054,194.153l-7.606-10.53,5.573-3.547Z" transform="translate(34.84 18.482)" fill="none" stroke="#263238" stroke-linecap="round" stroke-linejoin="round" stroke-width="1"/>
        <path id="Trazado_877125" data-name="Trazado 877125" d="M339.637,183.293l-2.027,9.626,6.249-3.377Z" transform="translate(34.651 18.813)" fill="#fff"/>
        <path id="Trazado_877126" data-name="Trazado 877126" d="M339.637,183.293l-2.027,9.626,6.249-3.377Z" transform="translate(34.651 18.813)" fill="none" stroke="#263238" stroke-linecap="round" stroke-linejoin="round" stroke-width="1"/>
        <path id="Trazado_877127" data-name="Trazado 877127" d="M338.032,136.863s-5.633,10.769-5.136,12.426a19.951,19.951,0,0,1,.663,3.148s-7.455,8.615-6.13,10.107a21.253,21.253,0,0,0,3.644,2.982s1.16,9.609,1.16,10.272-.828,4.805.828,6.131a6.513,6.513,0,0,0,4.971,1.16c1.325-.166,5.633-1.492,5.633-1.492s3.644,19.219,4.639,17.728S368.187,181.6,368.187,181.6l-.664-9.112s9.775-14.579,10.106-17.727-4.473-16.9-6.13-19.054-18.722-6.461-24.852-5.964-10.438,3.811-8.615,7.124" transform="translate(33.59 13.312)" fill="#fff"/>
        <path id="Trazado_877128" data-name="Trazado 877128" d="M338.032,136.863s-5.633,10.769-5.136,12.426a19.951,19.951,0,0,1,.663,3.148s-7.455,8.615-6.13,10.107a21.253,21.253,0,0,0,3.644,2.982s1.16,9.609,1.16,10.272-.828,4.805.828,6.131a6.513,6.513,0,0,0,4.971,1.16c1.325-.166,5.633-1.492,5.633-1.492s3.644,19.219,4.639,17.728S368.187,181.6,368.187,181.6l-.664-9.112s9.775-14.579,10.106-17.727-4.473-16.9-6.13-19.054-18.722-6.461-24.852-5.964S336.209,133.549,338.032,136.863Z" transform="translate(33.59 13.312)" fill="none" stroke="#263238" stroke-linecap="round" stroke-linejoin="round" stroke-width="1"/>
        <path id="Trazado_877129" data-name="Trazado 877129" d="M351.6,177.786c1.325-1.657,2.816-20.875,3.645-22.367s5.3-2.651,6.958-1.491,1.657,8.946,0,11.6-3.644,1.823-.828,4.472a8.486,8.486,0,0,0,5.8,2.485s9.775-14.579,10.107-17.727-4.473-16.9-6.131-19.052-18.722-6.461-24.851-5.964-10.438,3.81-8.616,7.124a18.475,18.475,0,0,1,7.291.331c3.811.993,4.473,2.983,3.811,3.479s-5.633,2.983-4.971,5.137,8.449,6.792,8.449,6.792-1.325,7.951-1.657,10.769-3.81,6.13-3.81,6.13-9.444-5.632-12.758-4.8l-3.313.828s1.159,9.609,1.159,10.272-.828,4.8.829,6.13a6.509,6.509,0,0,0,4.97,1.16c1.326-.166,5.633-1.491,5.633-1.491s6.959-2.153,8.284-3.811" transform="translate(33.944 13.312)" fill="#263238"/>
        <path id="Trazado_877130" data-name="Trazado 877130" d="M351.6,177.786c1.325-1.657,2.816-20.875,3.645-22.367s5.3-2.651,6.958-1.491,1.657,8.946,0,11.6-3.644,1.823-.828,4.472a8.486,8.486,0,0,0,5.8,2.485s9.775-14.579,10.107-17.727-4.473-16.9-6.131-19.052-18.722-6.461-24.851-5.964-10.438,3.81-8.616,7.124a18.475,18.475,0,0,1,7.291.331c3.811.993,4.473,2.983,3.811,3.479s-5.633,2.983-4.971,5.137,8.449,6.792,8.449,6.792-1.325,7.951-1.657,10.769-3.81,6.13-3.81,6.13-9.444-5.632-12.758-4.8l-3.313.828s1.159,9.609,1.159,10.272-.828,4.8.829,6.13a6.509,6.509,0,0,0,4.97,1.16c1.326-.166,5.633-1.491,5.633-1.491S350.27,179.443,351.6,177.786Z" transform="translate(33.944 13.312)" fill="none" stroke="#263238" stroke-linecap="round" stroke-linejoin="round" stroke-width="1"/>
        <path id="Trazado_877131" data-name="Trazado 877131" d="M339.566,149.15c-2.153-2.983-4.639-1.657-4.639-1.657" transform="translate(34.376 15.108)" fill="none" stroke="#263238" stroke-linecap="round" stroke-linejoin="round" stroke-width="1"/>
        <path id="Trazado_877132" data-name="Trazado 877132" d="M333.725,166.086a15.426,15.426,0,0,0,5.964-1.491" transform="translate(34.253 16.894)" fill="none" stroke="#fff" stroke-linecap="round" stroke-linejoin="round" stroke-width="1"/>
        <path id="Trazado_877133" data-name="Trazado 877133" d="M338.117,153.36c0,1.1-.445,1.988-.995,1.988s-.993-.89-.993-1.988.444-1.988.993-1.988.995.89.995,1.988" transform="translate(34.499 15.536)" fill="#263238"/>
        <path id="Trazado_877134" data-name="Trazado 877134" d="M348.189,186.448l-1.842,7.051,4.89-3.775Z" transform="translate(35.548 19.136)" fill="none" stroke="#263238" stroke-linecap="round" stroke-linejoin="round" stroke-width="1"/>
        <path id="Trazado_877135" data-name="Trazado 877135" d="M348.017,187.771l4.61,10.182,17.481-19.787-4.226-4.61Z" transform="translate(35.719 17.813)" fill="#fff"/>
        <path id="Trazado_877136" data-name="Trazado 877136" d="M348.017,187.771l4.61,10.182,17.481-19.787-4.226-4.61Z" transform="translate(35.719 17.813)" fill="none" stroke="#263238" stroke-linecap="round" stroke-linejoin="round" stroke-width="1"/>
        <line id="Línea_574" data-name="Línea 574" x1="3.587" y1="24.262" transform="translate(350.981 217.976)" fill="none" stroke="#fff" stroke-miterlimit="10" stroke-width="1"/>
        <line id="Línea_575" data-name="Línea 575" x2="8.261" y2="25.405" transform="translate(410.267 223.672)" fill="none" stroke="#fff" stroke-miterlimit="10" stroke-width="1"/>
        <path id="Trazado_877137" data-name="Trazado 877137" d="M381.9,227.935s3.546,16.23,3.709,18.2,6.4,9.023,10.5,9.023,10.827-5.907,11.483-8.039-3.117-8.694-7.546-10.006-16.505-10.981-18.146-9.176" transform="translate(39.197 23.372)" fill="#fff"/>
        <path id="Trazado_877138" data-name="Trazado 877138" d="M381.9,227.935s3.546,16.23,3.709,18.2,6.4,9.023,10.5,9.023,10.827-5.907,11.483-8.039-3.117-8.694-7.546-10.006S383.537,226.13,381.9,227.935Z" transform="translate(39.197 23.372)" fill="none" stroke="#263238" stroke-miterlimit="10" stroke-width="1"/>
        <path id="Trazado_877139" data-name="Trazado 877139" d="M407.438,240.746l4.1,6.632-14.769-3.931-9.419.614Z" transform="translate(39.756 24.709)" fill="#fff"/>
        <path id="Trazado_877140" data-name="Trazado 877140" d="M407.438,240.746l4.1,6.632-14.769-3.931-9.419.614Z" transform="translate(39.756 24.709)" fill="none" stroke="#263238" stroke-miterlimit="10" stroke-width="1"/>
        <path id="Trazado_877141" data-name="Trazado 877141" d="M391.642,240.653s-5.185-1.469-4.344,0,7.18,9.56,8.756,10.189,6.092.42,7.772-.21,8.743-1.632,10.108-2.156,5.042-1.052,4.936-2.1-3.466-1.364-5.566-.945-5.487-2.466-5.487-2.466Z" transform="translate(39.742 24.633)" fill="#fff"/>
        <path id="Trazado_877142" data-name="Trazado 877142" d="M391.642,240.653s-5.185-1.469-4.344,0,7.18,9.56,8.756,10.189,6.092.42,7.772-.21,8.743-1.632,10.108-2.156,5.042-1.052,4.936-2.1-3.466-1.364-5.566-.945-5.487-2.466-5.487-2.466Z" transform="translate(39.742 24.633)" fill="none" stroke="#263238" stroke-miterlimit="10" stroke-width="1"/>
        <path id="Trazado_877143" data-name="Trazado 877143" d="M374.453,245.075l-31.65-5.486,71.733.633,24.477,4.853Z" transform="translate(35.184 24.591)" fill="#a3a3a3"/>
        <path id="Trazado_877144" data-name="Trazado 877144" d="M374.453,245.075l-31.65-5.486,71.733.633,24.477,4.853Z" transform="translate(35.184 24.591)" fill="none" stroke="#263238" stroke-miterlimit="10" stroke-width="1"/>
        <path id="Trazado_877145" data-name="Trazado 877145" d="M436.067,248.787h-64.56l13.92-45.361h64.559Z" transform="translate(38.13 20.879)" fill="#a3a3a3"/>
        <path id="Trazado_877146" data-name="Trazado 877146" d="M436.067,248.787h-64.56l13.92-45.361h64.559Z" transform="translate(38.13 20.879)" fill="none" stroke="#263238" stroke-miterlimit="10" stroke-width="1"/>
        <path id="Trazado_877147" data-name="Trazado 877147" d="M405.2,248s-.382-9.14.287-9.69a1.518,1.518,0,0,1,2.508.855c.355,1.517.506,6.653.739,8.188a3.555,3.555,0,0,1-.67,3.018,21.258,21.258,0,0,1-3.4-.158" transform="translate(41.533 24.421)" fill="#fff"/>
        <path id="Trazado_877148" data-name="Trazado 877148" d="M405.2,248s-.382-9.14.287-9.69a1.518,1.518,0,0,1,2.508.855c.355,1.517.506,6.653.739,8.188a3.555,3.555,0,0,1-.67,3.018,21.258,21.258,0,0,1-3.4-.158" transform="translate(41.533 24.421)" fill="none" stroke="#263238" stroke-miterlimit="10" stroke-width="1"/>
        <path id="Trazado_877149" data-name="Trazado 877149" d="M401.224,248.573c-.122-.81.375-9.73.375-9.73s.4-1.718,1.668-1.2,1.612,3.663,1.664,4.01,1.082,5.4,1.239,6.442a2.35,2.35,0,0,1-1.441,2.7c-1.351.678-4.45.4-4.45.4" transform="translate(41.083 24.381)" fill="#fff"/>
        <path id="Trazado_877150" data-name="Trazado 877150" d="M401.224,248.573c-.122-.81.375-9.73.375-9.73s.4-1.718,1.668-1.2,1.612,3.663,1.664,4.01,1.082,5.4,1.239,6.442a2.35,2.35,0,0,1-1.441,2.7c-1.351.678-4.45.4-4.45.4" transform="translate(41.083 24.381)" fill="none" stroke="#263238" stroke-miterlimit="10" stroke-width="1"/>
        <path id="Trazado_877151" data-name="Trazado 877151" d="M398.469,249.408c.032-.819,1.2-10.613,1.2-10.613s.718-1.611,1.865-.863.893,3.9.88,4.252.045,5.507,0,6.56a2.35,2.35,0,0,1-1.924,2.384,8.949,8.949,0,0,1-3.018.234" transform="translate(40.796 24.4)" fill="#fff"/>
        <path id="Trazado_877152" data-name="Trazado 877152" d="M398.469,249.408c.032-.819,1.2-10.613,1.2-10.613s.718-1.611,1.865-.863.893,3.9.88,4.252.045,5.507,0,6.56a2.35,2.35,0,0,1-1.924,2.384,8.949,8.949,0,0,1-3.018.234" transform="translate(40.796 24.4)" fill="none" stroke="#263238" stroke-miterlimit="10" stroke-width="1"/>
        <path id="Trazado_877153" data-name="Trazado 877153" d="M395.879,247.839c.025-.646.948-8.378.948-8.378s.566-1.272,1.472-.683.706,3.08.695,3.356.035,4.348,0,5.179a1.857,1.857,0,0,1-1.519,1.882,7.036,7.036,0,0,1-2.382.184" transform="translate(40.551 24.491)" fill="#fff"/>
        <path id="Trazado_877154" data-name="Trazado 877154" d="M395.879,247.839c.025-.646.948-8.378.948-8.378s.566-1.272,1.472-.683.706,3.08.695,3.356.035,4.348,0,5.179a1.857,1.857,0,0,1-1.519,1.882,7.036,7.036,0,0,1-2.382.184" transform="translate(40.551 24.491)" fill="none" stroke="#263238" stroke-miterlimit="10" stroke-width="1"/>
      </g>
    </g>
    <g id="Grupo_1100580" data-name="Grupo 1100580">
      <g id="Grupo_1100579" data-name="Grupo 1100579" clip-path="url(#clip-path)">
        <path id="Trazado_877155" data-name="Trazado 877155" d="M428.666,91.26a36.167,36.167,0,0,0-29.17,57.557l-13.58,17.713,22.11-9.4a36.171,36.171,0,1,0,20.64-65.873" transform="translate(39.609 9.367)" fill="#fff"/>
        <path id="Trazado_877156" data-name="Trazado 877156" d="M428.666,91.26a36.167,36.167,0,0,0-29.17,57.557l-13.58,17.713,22.11-9.4a36.171,36.171,0,1,0,20.64-65.873Z" transform="translate(39.609 9.367)" fill="none" stroke="#263238" stroke-linecap="round" stroke-linejoin="round" stroke-width="1"/>
        <path id="Trazado_877157" data-name="Trazado 877157" d="M414.767,137.988l-13.807-9.72v-5.541l13.807-9.72v6.087l-8.856,6.4,8.856,6.4Z" transform="translate(41.153 11.599)" fill="#8722e2"/>
        <path id="Trazado_877158" data-name="Trazado 877158" d="M417.518,142.63l10.991-36.789h4.042L421.515,142.63Z" transform="translate(42.853 10.863)" fill="#8722e2"/>
        <path id="Trazado_877159" data-name="Trazado 877159" d="M435.066,137.988V131.9l8.9-6.449-8.9-6.358v-6.087l13.854,9.72v5.541Z" transform="translate(44.654 11.599)" fill="#8722e2"/>
      </g>
    </g>
  </g>
</svg>
