<svg xmlns="http://www.w3.org/2000/svg" width="388" height="483" viewBox="0 0 388 483">
  <g id="_30" data-name="30" transform="translate(4643 6842)">
    <path id="Trazado_878695" data-name="Trazado 878695" d="M12,0H376a12,12,0,0,1,12,12V471a12,12,0,0,1-12,12H12A12,12,0,0,1,0,471V12A12,12,0,0,1,12,0Z" transform="translate(-4643 -6842)" fill="#f3f9ff"/>
    <path id="Trazado_878696" data-name="Trazado 878696" d="M5.492-4.6H2.82V0H1.313V-11.375H5.078a4.457,4.457,0,0,1,2.957.875A3.148,3.148,0,0,1,9.07-7.953,3.062,3.062,0,0,1,8.5-6.1a3.428,3.428,0,0,1-1.6,1.18L9.57-.094V0H7.961ZM2.82-5.828h2.3A2.6,2.6,0,0,0,6.9-6.407a1.959,1.959,0,0,0,.66-1.55,2.062,2.062,0,0,0-.629-1.62,2.663,2.663,0,0,0-1.816-.571H2.82ZM14.453.156a3.693,3.693,0,0,1-2.8-1.129,4.19,4.19,0,0,1-1.078-3.02v-.266a5.073,5.073,0,0,1,.48-2.246A3.748,3.748,0,0,1,12.4-8.051a3.378,3.378,0,0,1,1.871-.559,3.166,3.166,0,0,1,2.563,1.086,4.7,4.7,0,0,1,.914,3.109v.6H12.023a3,3,0,0,0,.73,2.02,2.3,2.3,0,0,0,1.777.77,2.517,2.517,0,0,0,1.3-.312,3.259,3.259,0,0,0,.93-.828l.883.688A3.55,3.55,0,0,1,14.453.156Zm-.18-7.578a1.928,1.928,0,0,0-1.469.637A3.1,3.1,0,0,0,12.07-5H16.3v-.109a2.753,2.753,0,0,0-.594-1.707A1.815,1.815,0,0,0,14.273-7.422Zm4.8,3.125a4.968,4.968,0,0,1,.914-3.145,2.923,2.923,0,0,1,2.422-1.168,2.908,2.908,0,0,1,2.414,1.094l.07-.937h1.32V-.2a3.439,3.439,0,0,1-.973,2.586,3.589,3.589,0,0,1-2.613.945,4.348,4.348,0,0,1-1.789-.391,3.08,3.08,0,0,1-1.336-1.07L20.258,1a2.826,2.826,0,0,0,2.273,1.148,2.214,2.214,0,0,0,1.645-.594,2.269,2.269,0,0,0,.59-1.672V-.844a2.971,2.971,0,0,1-2.367,1,2.887,2.887,0,0,1-2.4-1.2A5.224,5.224,0,0,1,19.078-4.3Zm1.453.164a3.79,3.79,0,0,0,.586,2.246,1.9,1.9,0,0,0,1.641.816,2.117,2.117,0,0,0,2.008-1.242V-6.172a2.142,2.142,0,0,0-1.992-1.211,1.921,1.921,0,0,0-1.648.82A4.128,4.128,0,0,0,20.531-4.133ZM29.969,0H28.523V-12h1.445ZM37.5,0a3.036,3.036,0,0,1-.2-.891A3.225,3.225,0,0,1,34.891.156,2.984,2.984,0,0,1,32.84-.551a2.287,2.287,0,0,1-.8-1.793,2.39,2.39,0,0,1,1-2.051,4.733,4.733,0,0,1,2.824-.73h1.406v-.664A1.623,1.623,0,0,0,36.82-7a1.821,1.821,0,0,0-1.336-.449,2.107,2.107,0,0,0-1.3.391,1.151,1.151,0,0,0-.523.945H32.211a2,2,0,0,1,.449-1.223,3.066,3.066,0,0,1,1.219-.934,4.1,4.1,0,0,1,1.691-.344,3.342,3.342,0,0,1,2.289.73,2.635,2.635,0,0,1,.859,2.012v3.891a4.757,4.757,0,0,0,.3,1.852V0ZM35.1-1.1a2.54,2.54,0,0,0,1.289-.352,2.127,2.127,0,0,0,.883-.914V-4.1H36.141q-2.656,0-2.656,1.555a1.316,1.316,0,0,0,.453,1.063A1.742,1.742,0,0,0,35.1-1.1ZM53.18-11.375v7.734a3.628,3.628,0,0,1-1.012,2.633A4.077,4.077,0,0,1,49.445.141l-.4.016A4.258,4.258,0,0,1,46.07-.852a3.6,3.6,0,0,1-1.125-2.773v-7.75H46.43v7.7a2.6,2.6,0,0,0,.68,1.918,2.612,2.612,0,0,0,1.938.684A2.63,2.63,0,0,0,51-1.75a2.6,2.6,0,0,0,.676-1.914v-7.711Zm3.508,2.922.047,1.063a3.08,3.08,0,0,1,2.531-1.219q2.68,0,2.7,3.023V0H60.523V-5.594a1.946,1.946,0,0,0-.418-1.352,1.675,1.675,0,0,0-1.277-.437,2.086,2.086,0,0,0-1.234.375,2.546,2.546,0,0,0-.828.984V0H55.32V-8.453ZM63.766-4.3a4.993,4.993,0,0,1,.488-2.234A3.643,3.643,0,0,1,65.613-8.07,3.7,3.7,0,0,1,67.6-8.609a3.565,3.565,0,0,1,2.793,1.2,4.6,4.6,0,0,1,1.066,3.18v.1a5.036,5.036,0,0,1-.473,2.215A3.589,3.589,0,0,1,69.637-.391a3.743,3.743,0,0,1-2.02.547,3.556,3.556,0,0,1-2.785-1.2A4.575,4.575,0,0,1,63.766-4.2Zm1.453.172a3.616,3.616,0,0,0,.652,2.258,2.088,2.088,0,0,0,1.746.852,2.075,2.075,0,0,0,1.75-.863A3.955,3.955,0,0,0,70.016-4.3a3.61,3.61,0,0,0-.66-2.254A2.1,2.1,0,0,0,67.6-7.422a2.075,2.075,0,0,0-1.727.852A3.925,3.925,0,0,0,65.219-4.133Z" transform="translate(-4600 -6791)" fill="#12263f"/>
    <path id="Trazado_878697" data-name="Trazado 878697" d="M5.492-4.6H2.82V0H1.313V-11.375H5.078a4.457,4.457,0,0,1,2.957.875A3.148,3.148,0,0,1,9.07-7.953,3.062,3.062,0,0,1,8.5-6.1a3.428,3.428,0,0,1-1.6,1.18L9.57-.094V0H7.961ZM2.82-5.828h2.3A2.6,2.6,0,0,0,6.9-6.407a1.959,1.959,0,0,0,.66-1.55,2.062,2.062,0,0,0-.629-1.62,2.663,2.663,0,0,0-1.816-.571H2.82ZM14.453.156a3.693,3.693,0,0,1-2.8-1.129,4.19,4.19,0,0,1-1.078-3.02v-.266a5.073,5.073,0,0,1,.48-2.246A3.748,3.748,0,0,1,12.4-8.051a3.378,3.378,0,0,1,1.871-.559,3.166,3.166,0,0,1,2.563,1.086,4.7,4.7,0,0,1,.914,3.109v.6H12.023a3,3,0,0,0,.73,2.02,2.3,2.3,0,0,0,1.777.77,2.517,2.517,0,0,0,1.3-.312,3.259,3.259,0,0,0,.93-.828l.883.688A3.55,3.55,0,0,1,14.453.156Zm-.18-7.578a1.928,1.928,0,0,0-1.469.637A3.1,3.1,0,0,0,12.07-5H16.3v-.109a2.753,2.753,0,0,0-.594-1.707A1.815,1.815,0,0,0,14.273-7.422Zm4.8,3.125a4.968,4.968,0,0,1,.914-3.145,2.923,2.923,0,0,1,2.422-1.168,2.908,2.908,0,0,1,2.414,1.094l.07-.937h1.32V-.2a3.439,3.439,0,0,1-.973,2.586,3.589,3.589,0,0,1-2.613.945,4.348,4.348,0,0,1-1.789-.391,3.08,3.08,0,0,1-1.336-1.07L20.258,1a2.826,2.826,0,0,0,2.273,1.148,2.214,2.214,0,0,0,1.645-.594,2.269,2.269,0,0,0,.59-1.672V-.844a2.971,2.971,0,0,1-2.367,1,2.887,2.887,0,0,1-2.4-1.2A5.224,5.224,0,0,1,19.078-4.3Zm1.453.164a3.79,3.79,0,0,0,.586,2.246,1.9,1.9,0,0,0,1.641.816,2.117,2.117,0,0,0,2.008-1.242V-6.172a2.142,2.142,0,0,0-1.992-1.211,1.921,1.921,0,0,0-1.648.82A4.128,4.128,0,0,0,20.531-4.133ZM29.969,0H28.523V-12h1.445ZM37.5,0a3.036,3.036,0,0,1-.2-.891A3.225,3.225,0,0,1,34.891.156,2.984,2.984,0,0,1,32.84-.551a2.287,2.287,0,0,1-.8-1.793,2.39,2.39,0,0,1,1-2.051,4.733,4.733,0,0,1,2.824-.73h1.406v-.664A1.623,1.623,0,0,0,36.82-7a1.821,1.821,0,0,0-1.336-.449,2.107,2.107,0,0,0-1.3.391,1.151,1.151,0,0,0-.523.945H32.211a2,2,0,0,1,.449-1.223,3.066,3.066,0,0,1,1.219-.934,4.1,4.1,0,0,1,1.691-.344,3.342,3.342,0,0,1,2.289.73,2.635,2.635,0,0,1,.859,2.012v3.891a4.757,4.757,0,0,0,.3,1.852V0ZM35.1-1.1a2.54,2.54,0,0,0,1.289-.352,2.127,2.127,0,0,0,.883-.914V-4.1H36.141q-2.656,0-2.656,1.555a1.316,1.316,0,0,0,.453,1.063A1.742,1.742,0,0,0,35.1-1.1ZM45.172,0V-11.375h3.211a5.169,5.169,0,0,1,2.625.656A4.438,4.438,0,0,1,52.77-8.852,6.078,6.078,0,0,1,53.4-6.07v.727a6.1,6.1,0,0,1-.621,2.82A4.369,4.369,0,0,1,51-.664,5.5,5.5,0,0,1,48.32,0Zm1.5-10.148v8.922H48.25a3.434,3.434,0,0,0,2.7-1.079,4.458,4.458,0,0,0,.965-3.073v-.665A4.529,4.529,0,0,0,51-9.058a3.239,3.239,0,0,0-2.582-1.091ZM55.055-4.3a4.993,4.993,0,0,1,.488-2.234A3.643,3.643,0,0,1,56.9-8.07a3.7,3.7,0,0,1,1.988-.539,3.565,3.565,0,0,1,2.793,1.2,4.6,4.6,0,0,1,1.066,3.18v.1a5.036,5.036,0,0,1-.473,2.215A3.589,3.589,0,0,1,60.926-.391a3.743,3.743,0,0,1-2.02.547,3.556,3.556,0,0,1-2.785-1.2A4.575,4.575,0,0,1,55.055-4.2Zm1.453.172a3.616,3.616,0,0,0,.652,2.258,2.088,2.088,0,0,0,1.746.852,2.075,2.075,0,0,0,1.75-.863A3.955,3.955,0,0,0,61.3-4.3a3.61,3.61,0,0,0-.66-2.254,2.1,2.1,0,0,0-1.754-.863,2.075,2.075,0,0,0-1.727.852A3.925,3.925,0,0,0,56.508-4.133ZM69.484-2.242a1.064,1.064,0,0,0-.441-.91A4.249,4.249,0,0,0,67.5-3.711a7.277,7.277,0,0,1-1.742-.562,2.479,2.479,0,0,1-.953-.781A1.869,1.869,0,0,1,64.5-6.133a2.193,2.193,0,0,1,.879-1.758,3.432,3.432,0,0,1,2.246-.719,3.532,3.532,0,0,1,2.332.742,2.357,2.357,0,0,1,.895,1.9H69.4a1.3,1.3,0,0,0-.5-1.023,1.888,1.888,0,0,0-1.27-.43,1.976,1.976,0,0,0-1.234.344,1.082,1.082,0,0,0-.445.9.877.877,0,0,0,.414.789,5.1,5.1,0,0,0,1.5.508,7.8,7.8,0,0,1,1.754.578,2.558,2.558,0,0,1,1,.809,1.988,1.988,0,0,1,.324,1.152,2.163,2.163,0,0,1-.906,1.816,3.8,3.8,0,0,1-2.352.684,4.257,4.257,0,0,1-1.8-.359,2.922,2.922,0,0,1-1.223-1A2.42,2.42,0,0,1,64.211-2.6h1.445a1.5,1.5,0,0,0,.582,1.152,2.258,2.258,0,0,0,1.434.426,2.331,2.331,0,0,0,1.316-.332A1.02,1.02,0,0,0,69.484-2.242Z" transform="translate(-4489.287 -6791)" fill="#12263f"/>
    <path id="Trazado_877357" data-name="Trazado 877357" d="M-5629-6646.086h75.426" transform="translate(1023.574 -124)" fill="none" stroke="#707070" stroke-width="1"/>
    <path id="Trazado_878698" data-name="Trazado 878698" d="M21.5,0h120a21.5,21.5,0,0,1,0,43H21.5a21.5,21.5,0,0,1,0-43Z" transform="translate(-4618 -6726)" fill="#00ffdf"/>
    <path id="Trazado_878699" data-name="Trazado 878699" d="M4.672-5.07A7.053,7.053,0,0,1,1.863-6.434a2.6,2.6,0,0,1-.879-2,2.751,2.751,0,0,1,1.074-2.223,4.269,4.269,0,0,1,2.793-.879,4.66,4.66,0,0,1,2.09.453,3.436,3.436,0,0,1,1.422,1.25,3.2,3.2,0,0,1,.5,1.742H7.359A2.08,2.08,0,0,0,6.7-9.713,2.669,2.669,0,0,0,4.852-10.3a2.732,2.732,0,0,0-1.73.489A1.632,1.632,0,0,0,2.5-8.458,1.468,1.468,0,0,0,3.09-7.28,5.785,5.785,0,0,0,5.1-6.4a9.316,9.316,0,0,1,2.219.88A3.367,3.367,0,0,1,8.5-4.4a2.861,2.861,0,0,1,.387,1.508A2.658,2.658,0,0,1,7.813-.676,4.6,4.6,0,0,1,4.93.156,5.347,5.347,0,0,1,2.742-.293a3.681,3.681,0,0,1-1.566-1.23A3,3,0,0,1,.625-3.3H2.133a1.959,1.959,0,0,0,.762,1.629,3.207,3.207,0,0,0,2.035.6,2.948,2.948,0,0,0,1.82-.484,1.573,1.573,0,0,0,.633-1.32A1.545,1.545,0,0,0,6.8-4.168,6.755,6.755,0,0,0,4.672-5.07Zm12.57-.187h-4.93v4.031h5.727V0H10.813V-11.375h7.148v1.227H12.313v3.664h4.93Zm4.172,4.031H26.8V0h-6.9V-11.375h1.508ZM34.945-5.258h-4.93v4.031h5.727V0H28.516V-11.375h7.148v1.227H30.016v3.664h4.93ZM45.977-3.609A4.185,4.185,0,0,1,44.645-.824a4.365,4.365,0,0,1-2.98.98,4.008,4.008,0,0,1-3.23-1.445,5.815,5.815,0,0,1-1.215-3.867V-6.25a6.481,6.481,0,0,1,.566-2.789,4.231,4.231,0,0,1,1.605-1.848,4.47,4.47,0,0,1,2.406-.645A4.11,4.11,0,0,1,44.7-10.52a4.235,4.235,0,0,1,1.273,2.8H44.469a3.268,3.268,0,0,0-.848-1.975A2.565,2.565,0,0,0,41.8-10.3a2.684,2.684,0,0,0-2.254,1.063,4.882,4.882,0,0,0-.816,3.026v1.1A5.018,5.018,0,0,0,39.5-2.165,2.5,2.5,0,0,0,41.664-1.07a2.887,2.887,0,0,0,1.918-.566,3.143,3.143,0,0,0,.887-1.973Zm9.68-6.539H52V0H50.508V-10.148H46.859v-1.227h8.8ZM65.875-5.32A7.037,7.037,0,0,1,65.313-2.4,4.261,4.261,0,0,1,63.719-.5a4.385,4.385,0,0,1-2.406.656A4.347,4.347,0,0,1,58.93-.5a4.363,4.363,0,0,1-1.613-1.883,6.752,6.752,0,0,1-.59-2.832v-.82a6.953,6.953,0,0,1,.57-2.9,4.347,4.347,0,0,1,1.613-1.926,4.329,4.329,0,0,1,2.387-.668,4.41,4.41,0,0,1,2.41.66,4.253,4.253,0,0,1,1.605,1.914,7.071,7.071,0,0,1,.563,2.918Zm-1.492-.734A5.1,5.1,0,0,0,63.57-9.16,2.68,2.68,0,0,0,61.3-10.242,2.651,2.651,0,0,0,59.059-9.16a5,5,0,0,0-.84,3v.836a5.107,5.107,0,0,0,.824,3.082,2.662,2.662,0,0,0,2.27,1.121,2.652,2.652,0,0,0,2.25-1.059,5.079,5.079,0,0,0,.82-3.035ZM72.3-4.6H69.625V0H68.117V-11.375h3.766a4.457,4.457,0,0,1,2.957.875,3.148,3.148,0,0,1,1.035,2.547A3.062,3.062,0,0,1,75.3-6.1a3.428,3.428,0,0,1-1.6,1.18L76.375-.094V0H74.766ZM69.625-5.828h2.3a2.6,2.6,0,0,0,1.777-.579,1.959,1.959,0,0,0,.66-1.55,2.062,2.062,0,0,0-.629-1.62,2.663,2.663,0,0,0-1.816-.571h-2.3Z" transform="translate(-4575 -6699)" fill="#12263f"/>
    <path id="Trazado_878700" data-name="Trazado 878700" d="M21.5,0h134a21.5,21.5,0,0,1,0,43H21.5a21.5,21.5,0,0,1,0-43Z" transform="translate(-4618 -6608)" fill="#a854f3"/>
    <path id="Trazado_878701" data-name="Trazado 878701" d="M2.82-4.453V0H1.32V-11.375h4.2a4.215,4.215,0,0,1,2.926.953A3.231,3.231,0,0,1,9.5-7.9,3.189,3.189,0,0,1,8.465-5.348,4.4,4.4,0,0,1,5.5-4.453Zm0-1.227h2.7a2.7,2.7,0,0,0,1.844-.567A2.075,2.075,0,0,0,8-7.887a2.143,2.143,0,0,0-.641-1.628A2.525,2.525,0,0,0,5.6-10.148H2.82ZM15.586-4.6H12.914V0H11.406V-11.375h3.766a4.457,4.457,0,0,1,2.957.875,3.148,3.148,0,0,1,1.035,2.547A3.062,3.062,0,0,1,18.59-6.1a3.428,3.428,0,0,1-1.6,1.18L19.664-.094V0H18.055ZM12.914-5.828h2.3A2.6,2.6,0,0,0,17-6.407a1.959,1.959,0,0,0,.66-1.55,2.062,2.062,0,0,0-.629-1.62,2.663,2.663,0,0,0-1.816-.571h-2.3Zm17.1.508A7.037,7.037,0,0,1,29.453-2.4,4.261,4.261,0,0,1,27.859-.5a4.385,4.385,0,0,1-2.406.656A4.347,4.347,0,0,1,23.07-.5a4.363,4.363,0,0,1-1.613-1.883,6.752,6.752,0,0,1-.59-2.832v-.82a6.953,6.953,0,0,1,.57-2.9,4.347,4.347,0,0,1,1.613-1.926,4.329,4.329,0,0,1,2.387-.668,4.41,4.41,0,0,1,2.41.66,4.253,4.253,0,0,1,1.605,1.914,7.071,7.071,0,0,1,.563,2.918Zm-1.492-.734a5.1,5.1,0,0,0-.812-3.105,2.68,2.68,0,0,0-2.273-1.082A2.651,2.651,0,0,0,23.2-9.16a5,5,0,0,0-.84,3v.836a5.107,5.107,0,0,0,.824,3.082,2.662,2.662,0,0,0,2.27,1.121A2.652,2.652,0,0,0,27.7-2.176a5.079,5.079,0,0,0,.82-3.035Zm5.242,1.6V0h-1.5V-11.375h4.2a4.215,4.215,0,0,1,2.926.953A3.231,3.231,0,0,1,40.445-7.9,3.189,3.189,0,0,1,39.41-5.348a4.4,4.4,0,0,1-2.965.895Zm0-1.227h2.7A2.7,2.7,0,0,0,38.3-6.247a2.075,2.075,0,0,0,.641-1.64A2.143,2.143,0,0,0,38.3-9.515a2.525,2.525,0,0,0-1.758-.634H33.766ZM43.969,0h-1.5V-11.375h1.5Zm9.172-5.258h-4.93v4.031h5.727V0H46.711V-11.375h7.148v1.227H48.211v3.664h4.93ZM55.8,0V-11.375h3.211a5.169,5.169,0,0,1,2.625.656A4.438,4.438,0,0,1,63.4-8.852a6.078,6.078,0,0,1,.629,2.781v.727a6.1,6.1,0,0,1-.621,2.82A4.369,4.369,0,0,1,61.637-.664,5.5,5.5,0,0,1,58.953,0Zm1.5-10.148v8.922h1.578a3.434,3.434,0,0,0,2.7-1.079,4.458,4.458,0,0,0,.965-3.073v-.665a4.529,4.529,0,0,0-.91-3.014,3.239,3.239,0,0,0-2.582-1.091ZM72.578-2.977H67.813L66.742,0H65.2l4.344-11.375h1.313L75.2,0H73.664ZM68.266-4.2h3.867L70.2-9.523ZM76.734,0V-11.375h3.211a5.169,5.169,0,0,1,2.625.656,4.438,4.438,0,0,1,1.762,1.867,6.078,6.078,0,0,1,.629,2.781v.727a6.1,6.1,0,0,1-.621,2.82A4.369,4.369,0,0,1,82.566-.664,5.5,5.5,0,0,1,79.883,0Zm1.5-10.148v8.922h1.578a3.434,3.434,0,0,0,2.7-1.079,4.458,4.458,0,0,0,.965-3.073v-.665a4.529,4.529,0,0,0-.91-3.014,3.239,3.239,0,0,0-2.582-1.091Z" transform="translate(-4587 -6581)" fill="#fff"/>
    <path id="Trazado_878702" data-name="Trazado 878702" d="M21.5,0h77a21.5,21.5,0,0,1,0,43h-77a21.5,21.5,0,0,1,0-43Z" transform="translate(-4414 -6608)" fill="#0b47db"/>
    <path id="Trazado_878703" data-name="Trazado 878703" d="M5.086-1.992l3.25-9.383H9.977L5.758,0H4.43L.219-11.375H1.852ZM17.2-2.977H12.43L11.359,0H9.813l4.344-11.375h1.313L19.82,0H18.281ZM12.883-4.2H16.75l-1.937-5.32Zm9.977,2.977H28.25V0h-6.9V-11.375h1.508ZM38.2-5.32A7.037,7.037,0,0,1,37.641-2.4,4.261,4.261,0,0,1,36.047-.5a4.385,4.385,0,0,1-2.406.656A4.348,4.348,0,0,1,31.258-.5a4.363,4.363,0,0,1-1.613-1.883,6.752,6.752,0,0,1-.59-2.832v-.82a6.953,6.953,0,0,1,.57-2.9,4.347,4.347,0,0,1,1.613-1.926,4.329,4.329,0,0,1,2.387-.668,4.41,4.41,0,0,1,2.41.66,4.253,4.253,0,0,1,1.605,1.914A7.071,7.071,0,0,1,38.2-6.039Zm-1.492-.734A5.1,5.1,0,0,0,35.9-9.16a2.68,2.68,0,0,0-2.273-1.082A2.651,2.651,0,0,0,31.387-9.16a5,5,0,0,0-.84,3v.836a5.107,5.107,0,0,0,.824,3.082,2.662,2.662,0,0,0,2.27,1.121,2.652,2.652,0,0,0,2.25-1.059,5.079,5.079,0,0,0,.82-3.035ZM44.625-4.6H41.953V0H40.445V-11.375h3.766a4.457,4.457,0,0,1,2.957.875A3.148,3.148,0,0,1,48.2-7.953,3.062,3.062,0,0,1,47.629-6.1a3.428,3.428,0,0,1-1.6,1.18L48.7-.094V0H47.094ZM41.953-5.828h2.3a2.6,2.6,0,0,0,1.777-.579,1.959,1.959,0,0,0,.66-1.55,2.062,2.062,0,0,0-.629-1.62,2.663,2.663,0,0,0-1.816-.571h-2.3Z" transform="translate(-4377 -6581)" fill="#fff"/>
    <path id="Trazado_878704" data-name="Trazado 878704" d="M21.5,0h135a21.5,21.5,0,0,1,0,43H21.5a21.5,21.5,0,0,1,0-43Z" transform="translate(-4619 -6546)" fill="#a854f3"/>
    <path id="Trazado_878705" data-name="Trazado 878705" d="M2.82-4.453V0H1.32V-11.375h4.2a4.215,4.215,0,0,1,2.926.953A3.231,3.231,0,0,1,9.5-7.9,3.189,3.189,0,0,1,8.465-5.348,4.4,4.4,0,0,1,5.5-4.453Zm0-1.227h2.7a2.7,2.7,0,0,0,1.844-.567A2.075,2.075,0,0,0,8-7.887a2.143,2.143,0,0,0-.641-1.628A2.525,2.525,0,0,0,5.6-10.148H2.82ZM15.586-4.6H12.914V0H11.406V-11.375h3.766a4.457,4.457,0,0,1,2.957.875,3.148,3.148,0,0,1,1.035,2.547A3.062,3.062,0,0,1,18.59-6.1a3.428,3.428,0,0,1-1.6,1.18L19.664-.094V0H18.055ZM12.914-5.828h2.3A2.6,2.6,0,0,0,17-6.407a1.959,1.959,0,0,0,.66-1.55,2.062,2.062,0,0,0-.629-1.62,2.663,2.663,0,0,0-1.816-.571h-2.3Zm17.1.508A7.037,7.037,0,0,1,29.453-2.4,4.261,4.261,0,0,1,27.859-.5a4.385,4.385,0,0,1-2.406.656A4.347,4.347,0,0,1,23.07-.5a4.363,4.363,0,0,1-1.613-1.883,6.752,6.752,0,0,1-.59-2.832v-.82a6.953,6.953,0,0,1,.57-2.9,4.347,4.347,0,0,1,1.613-1.926,4.329,4.329,0,0,1,2.387-.668,4.41,4.41,0,0,1,2.41.66,4.253,4.253,0,0,1,1.605,1.914,7.071,7.071,0,0,1,.563,2.918Zm-1.492-.734a5.1,5.1,0,0,0-.812-3.105,2.68,2.68,0,0,0-2.273-1.082A2.651,2.651,0,0,0,23.2-9.16a5,5,0,0,0-.84,3v.836a5.107,5.107,0,0,0,.824,3.082,2.662,2.662,0,0,0,2.27,1.121A2.652,2.652,0,0,0,27.7-2.176a5.079,5.079,0,0,0,.82-3.035Zm5.242,1.6V0h-1.5V-11.375h4.2a4.215,4.215,0,0,1,2.926.953A3.231,3.231,0,0,1,40.445-7.9,3.189,3.189,0,0,1,39.41-5.348a4.4,4.4,0,0,1-2.965.895Zm0-1.227h2.7A2.7,2.7,0,0,0,38.3-6.247a2.075,2.075,0,0,0,.641-1.64A2.143,2.143,0,0,0,38.3-9.515a2.525,2.525,0,0,0-1.758-.634H33.766ZM43.969,0h-1.5V-11.375h1.5Zm9.172-5.258h-4.93v4.031h5.727V0H46.711V-11.375h7.148v1.227H48.211v3.664h4.93ZM55.8,0V-11.375h3.211a5.169,5.169,0,0,1,2.625.656A4.438,4.438,0,0,1,63.4-8.852a6.078,6.078,0,0,1,.629,2.781v.727a6.1,6.1,0,0,1-.621,2.82A4.369,4.369,0,0,1,61.637-.664,5.5,5.5,0,0,1,58.953,0Zm1.5-10.148v8.922h1.578a3.434,3.434,0,0,0,2.7-1.079,4.458,4.458,0,0,0,.965-3.073v-.665a4.529,4.529,0,0,0-.91-3.014,3.239,3.239,0,0,0-2.582-1.091ZM72.578-2.977H67.813L66.742,0H65.2l4.344-11.375h1.313L75.2,0H73.664ZM68.266-4.2h3.867L70.2-9.523ZM76.734,0V-11.375h3.211a5.169,5.169,0,0,1,2.625.656,4.438,4.438,0,0,1,1.762,1.867,6.078,6.078,0,0,1,.629,2.781v.727a6.1,6.1,0,0,1-.621,2.82A4.369,4.369,0,0,1,82.566-.664,5.5,5.5,0,0,1,79.883,0Zm1.5-10.148v8.922h1.578a3.434,3.434,0,0,0,2.7-1.079,4.458,4.458,0,0,0,.965-3.073v-.665a4.529,4.529,0,0,0-.91-3.014,3.239,3.239,0,0,0-2.582-1.091ZM91.188,0V-11.375H94.4a5.169,5.169,0,0,1,2.625.656,4.438,4.438,0,0,1,1.762,1.867,6.078,6.078,0,0,1,.629,2.781v.727a6.1,6.1,0,0,1-.621,2.82A4.369,4.369,0,0,1,97.02-.664,5.5,5.5,0,0,1,94.336,0Zm1.5-10.148v8.922h1.578a3.434,3.434,0,0,0,2.7-1.079,4.458,4.458,0,0,0,.965-3.073v-.665a4.529,4.529,0,0,0-.91-3.014,3.239,3.239,0,0,0-2.582-1.091ZM110.43-5.32a7.037,7.037,0,0,1-.562,2.918,4.261,4.261,0,0,1-1.594,1.9,4.385,4.385,0,0,1-2.406.656,4.347,4.347,0,0,1-2.383-.66,4.363,4.363,0,0,1-1.613-1.883,6.752,6.752,0,0,1-.59-2.832v-.82a6.953,6.953,0,0,1,.57-2.9,4.347,4.347,0,0,1,1.613-1.926,4.329,4.329,0,0,1,2.387-.668,4.41,4.41,0,0,1,2.41.66,4.253,4.253,0,0,1,1.605,1.914,7.071,7.071,0,0,1,.563,2.918Zm-1.492-.734a5.1,5.1,0,0,0-.812-3.105,2.68,2.68,0,0,0-2.273-1.082,2.651,2.651,0,0,0-2.238,1.082,5,5,0,0,0-.84,3v.836a5.107,5.107,0,0,0,.824,3.082,2.662,2.662,0,0,0,2.27,1.121,2.652,2.652,0,0,0,2.25-1.059,5.079,5.079,0,0,0,.82-3.035Zm7.094.984a7.053,7.053,0,0,1-2.809-1.363,2.6,2.6,0,0,1-.879-2,2.751,2.751,0,0,1,1.074-2.223,4.269,4.269,0,0,1,2.793-.879,4.66,4.66,0,0,1,2.09.453,3.436,3.436,0,0,1,1.422,1.25,3.2,3.2,0,0,1,.5,1.742h-1.508a2.08,2.08,0,0,0-.656-1.627,2.669,2.669,0,0,0-1.852-.592,2.732,2.732,0,0,0-1.73.489,1.632,1.632,0,0,0-.621,1.358,1.468,1.468,0,0,0,.59,1.178,5.785,5.785,0,0,0,2.008.88,9.316,9.316,0,0,1,2.219.88A3.367,3.367,0,0,1,119.863-4.4a2.861,2.861,0,0,1,.387,1.508,2.658,2.658,0,0,1-1.078,2.215,4.6,4.6,0,0,1-2.883.832A5.347,5.347,0,0,1,114.1-.293a3.681,3.681,0,0,1-1.566-1.23,3,3,0,0,1-.551-1.773h1.508a1.959,1.959,0,0,0,.762,1.629,3.207,3.207,0,0,0,2.035.6,2.948,2.948,0,0,0,1.82-.484,1.573,1.573,0,0,0,.633-1.32,1.545,1.545,0,0,0-.586-1.293A6.755,6.755,0,0,0,116.031-5.07Z" transform="translate(-4588 -6519)" fill="#fff"/>
    <path id="Trazado_878706" data-name="Trazado 878706" d="M21.5,0h77a21.5,21.5,0,0,1,0,43h-77a21.5,21.5,0,0,1,0-43Z" transform="translate(-4413 -6546)" fill="#0b47db"/>
    <path id="Trazado_878707" data-name="Trazado 878707" d="M5.086-1.992l3.25-9.383H9.977L5.758,0H4.43L.219-11.375H1.852ZM17.2-2.977H12.43L11.359,0H9.813l4.344-11.375h1.313L19.82,0H18.281ZM12.883-4.2H16.75l-1.937-5.32Zm9.977,2.977H28.25V0h-6.9V-11.375h1.508ZM38.2-5.32A7.037,7.037,0,0,1,37.641-2.4,4.261,4.261,0,0,1,36.047-.5a4.385,4.385,0,0,1-2.406.656A4.348,4.348,0,0,1,31.258-.5a4.363,4.363,0,0,1-1.613-1.883,6.752,6.752,0,0,1-.59-2.832v-.82a6.953,6.953,0,0,1,.57-2.9,4.347,4.347,0,0,1,1.613-1.926,4.329,4.329,0,0,1,2.387-.668,4.41,4.41,0,0,1,2.41.66,4.253,4.253,0,0,1,1.605,1.914A7.071,7.071,0,0,1,38.2-6.039Zm-1.492-.734A5.1,5.1,0,0,0,35.9-9.16a2.68,2.68,0,0,0-2.273-1.082A2.651,2.651,0,0,0,31.387-9.16a5,5,0,0,0-.84,3v.836a5.107,5.107,0,0,0,.824,3.082,2.662,2.662,0,0,0,2.27,1.121,2.652,2.652,0,0,0,2.25-1.059,5.079,5.079,0,0,0,.82-3.035ZM44.625-4.6H41.953V0H40.445V-11.375h3.766a4.457,4.457,0,0,1,2.957.875A3.148,3.148,0,0,1,48.2-7.953,3.062,3.062,0,0,1,47.629-6.1a3.428,3.428,0,0,1-1.6,1.18L48.7-.094V0H47.094ZM41.953-5.828h2.3a2.6,2.6,0,0,0,1.777-.579,1.959,1.959,0,0,0,.66-1.55,2.062,2.062,0,0,0-.629-1.62,2.663,2.663,0,0,0-1.816-.571h-2.3Z" transform="translate(-4377 -6520)" fill="#fff"/>
    <path id="Trazado_878708" data-name="Trazado 878708" d="M6.172,3.574a4.853,4.853,0,0,1-2.6-1.606A4.663,4.663,0,0,1,2.7-.986V-2.93Q2.7-5.3.625-5.3V-6.719q2.07,0,2.07-2.363v-2.031A4.656,4.656,0,0,1,3.569-14a4.858,4.858,0,0,1,2.6-1.6l.371,1.123Q4.5-13.818,4.5-11.064v1.973A3.19,3.19,0,0,1,2.871-6.006,3.229,3.229,0,0,1,4.5-2.891V-.879q.029,2.686,2.041,3.33Z" transform="translate(-4614 -6630)" fill="#12263f"/>
    <path id="Trazado_878709" data-name="Trazado 878709" d="M.186,2.451Q2.168,1.816,2.236-.781V-2.93A3.075,3.075,0,0,1,4-6.006,3.052,3.052,0,0,1,2.236-9.082v-1.982q0-2.754-2.041-3.408L.566-15.6a4.882,4.882,0,0,1,2.6,1.587A4.59,4.59,0,0,1,4.043-11.1v2.051q0,2.334,2.07,2.334V-5.3q-2.07,0-2.07,2.373V-.957a4.566,4.566,0,0,1-.884,2.939A4.942,4.942,0,0,1,.566,3.574Z" transform="translate(-4607 -6466)" fill="#12263f"/>
    <path id="Trazado_878710" data-name="Trazado 878710" d="M1.309-.947a1.131,1.131,0,0,1,.278-.781,1.061,1.061,0,0,1,.835-.312,1.092,1.092,0,0,1,.845.313,1.109,1.109,0,0,1,.288.781A1.048,1.048,0,0,1,3.267-.2a1.112,1.112,0,0,1-.845.3,1.079,1.079,0,0,1-.835-.3A1.069,1.069,0,0,1,1.309-.947Zm.01-8.623a1.131,1.131,0,0,1,.278-.781,1.061,1.061,0,0,1,.835-.312,1.092,1.092,0,0,1,.845.313,1.109,1.109,0,0,1,.288.781,1.048,1.048,0,0,1-.288.752,1.112,1.112,0,0,1-.845.3,1.079,1.079,0,0,1-.835-.3A1.069,1.069,0,0,1,1.318-9.57Z" transform="translate(-4430 -6579)" fill="#12263f"/>
    <path id="Trazado_878711" data-name="Trazado 878711" d="M1.084-9.57a1.131,1.131,0,0,1,.278-.781,1.061,1.061,0,0,1,.835-.312,1.092,1.092,0,0,1,.845.313,1.109,1.109,0,0,1,.288.781,1.048,1.048,0,0,1-.288.752,1.112,1.112,0,0,1-.845.3,1.079,1.079,0,0,1-.835-.3A1.069,1.069,0,0,1,1.084-9.57Zm.342,12.4L.4,2.129A4.712,4.712,0,0,0,1.357-.508V-2.139H3.125V-.723A4.448,4.448,0,0,1,2.642,1.25,4.618,4.618,0,0,1,1.426,2.832Z" transform="translate(-4284 -6583)" fill="#12263f"/>
    <path id="Trazado_878712" data-name="Trazado 878712" d="M1.309-.947a1.131,1.131,0,0,1,.278-.781,1.061,1.061,0,0,1,.835-.312,1.092,1.092,0,0,1,.845.313,1.109,1.109,0,0,1,.288.781A1.048,1.048,0,0,1,3.267-.2a1.112,1.112,0,0,1-.845.3,1.079,1.079,0,0,1-.835-.3A1.069,1.069,0,0,1,1.309-.947Zm.01-8.623a1.131,1.131,0,0,1,.278-.781,1.061,1.061,0,0,1,.835-.312,1.092,1.092,0,0,1,.845.313,1.109,1.109,0,0,1,.288.781,1.048,1.048,0,0,1-.288.752,1.112,1.112,0,0,1-.845.3,1.079,1.079,0,0,1-.835-.3A1.069,1.069,0,0,1,1.318-9.57Z" transform="translate(-4430 -6520)" fill="#12263f"/>
    <path id="Trazado_878713" data-name="Trazado 878713" d="M2.715-15.186l1.035.7a4.606,4.606,0,0,0-.937,2.676v1.328h-1.8v-1.133a4.48,4.48,0,0,1,.474-1.973A4.729,4.729,0,0,1,2.715-15.186Zm3.076,0,1.035.7a4.606,4.606,0,0,0-.937,2.676v1.328h-1.8v-1.133a4.48,4.48,0,0,1,.474-1.973A4.729,4.729,0,0,1,5.791-15.186Z" transform="translate(-4602 -6632)" fill="#12263f"/>
    <path id="Trazado_878714" data-name="Trazado 878714" d="M1.611-10.215l-1.025-.7a4.7,4.7,0,0,0,.938-2.676V-15H3.311v1.27a4.517,4.517,0,0,1-.483,1.948A4.5,4.5,0,0,1,1.611-10.215Zm3,0-1.025-.7a4.7,4.7,0,0,0,.938-2.676V-15H6.309v1.27a4.517,4.517,0,0,1-.483,1.948A4.5,4.5,0,0,1,4.609-10.215Z" transform="translate(-4590 -6476)" fill="#12263f"/>
    <path id="Trazado_878715" data-name="Trazado 878715" d="M7.594-5.023H2.82V0H1.32V-11.375H8.367v1.227H2.82v3.9H7.594ZM11.508,0H10.063V-8.453h1.445ZM9.945-10.7a.863.863,0,0,1,.215-.594.807.807,0,0,1,.637-.242.819.819,0,0,1,.641.242.854.854,0,0,1,.219.594.826.826,0,0,1-.219.586.834.834,0,0,1-.641.234.821.821,0,0,1-.637-.234A.834.834,0,0,1,9.945-10.7Zm5.242,2.242.047,1.063a3.08,3.08,0,0,1,2.531-1.219q2.68,0,2.7,3.023V0H19.023V-5.594a1.946,1.946,0,0,0-.418-1.352,1.675,1.675,0,0,0-1.277-.437,2.086,2.086,0,0,0-1.234.375,2.546,2.546,0,0,0-.828.984V0H13.82V-8.453ZM26.258-4.3a4.952,4.952,0,0,1,.922-3.129,2.915,2.915,0,0,1,2.414-1.184,2.932,2.932,0,0,1,2.352,1.016V-12h1.445V0H32.063l-.07-.906A2.943,2.943,0,0,1,29.578.156a2.887,2.887,0,0,1-2.395-1.2,5.008,5.008,0,0,1-.926-3.141Zm1.445.164a3.749,3.749,0,0,0,.594,2.25,1.92,1.92,0,0,0,1.641.813A2.108,2.108,0,0,0,31.945-2.3V-6.187a2.125,2.125,0,0,0-1.992-1.2,1.929,1.929,0,0,0-1.656.82A4.128,4.128,0,0,0,27.7-4.133ZM39.141.156a3.693,3.693,0,0,1-2.8-1.129,4.19,4.19,0,0,1-1.078-3.02v-.266a5.073,5.073,0,0,1,.48-2.246A3.748,3.748,0,0,1,37.09-8.051a3.378,3.378,0,0,1,1.871-.559,3.166,3.166,0,0,1,2.563,1.086,4.7,4.7,0,0,1,.914,3.109v.6H36.711a3,3,0,0,0,.73,2.02,2.3,2.3,0,0,0,1.777.77,2.517,2.517,0,0,0,1.3-.312,3.259,3.259,0,0,0,.93-.828l.883.688A3.55,3.55,0,0,1,39.141.156Zm-.18-7.578a1.928,1.928,0,0,0-1.469.637A3.1,3.1,0,0,0,36.758-5h4.234v-.109A2.753,2.753,0,0,0,40.4-6.816,1.815,1.815,0,0,0,38.961-7.422ZM49.641,0H48.2V-12h1.445Zm7.531,0a3.036,3.036,0,0,1-.2-.891A3.225,3.225,0,0,1,54.563.156a2.984,2.984,0,0,1-2.051-.707,2.287,2.287,0,0,1-.8-1.793,2.39,2.39,0,0,1,1-2.051,4.733,4.733,0,0,1,2.824-.73h1.406v-.664A1.623,1.623,0,0,0,56.492-7a1.821,1.821,0,0,0-1.336-.449,2.107,2.107,0,0,0-1.3.391,1.151,1.151,0,0,0-.523.945H51.883a2,2,0,0,1,.449-1.223,3.066,3.066,0,0,1,1.219-.934,4.1,4.1,0,0,1,1.691-.344,3.342,3.342,0,0,1,2.289.73,2.635,2.635,0,0,1,.859,2.012v3.891a4.757,4.757,0,0,0,.3,1.852V0Zm-2.4-1.1a2.54,2.54,0,0,0,1.289-.352,2.127,2.127,0,0,0,.883-.914V-4.1H55.813q-2.656,0-2.656,1.555a1.316,1.316,0,0,0,.453,1.063A1.742,1.742,0,0,0,54.773-1.1ZM68.7-7.156a4.331,4.331,0,0,0-.711-.055A1.9,1.9,0,0,0,66.063-6V0H64.617V-8.453h1.406l.023.977a2.251,2.251,0,0,1,2.016-1.133A1.477,1.477,0,0,1,68.7-8.5ZM73.539.156a3.693,3.693,0,0,1-2.8-1.129,4.19,4.19,0,0,1-1.078-3.02v-.266a5.073,5.073,0,0,1,.48-2.246,3.748,3.748,0,0,1,1.344-1.547,3.378,3.378,0,0,1,1.871-.559,3.166,3.166,0,0,1,2.563,1.086,4.7,4.7,0,0,1,.914,3.109v.6H71.109a3,3,0,0,0,.73,2.02,2.3,2.3,0,0,0,1.777.77,2.517,2.517,0,0,0,1.3-.312,3.259,3.259,0,0,0,.93-.828l.883.688A3.55,3.55,0,0,1,73.539.156Zm-.18-7.578a1.928,1.928,0,0,0-1.469.637A3.1,3.1,0,0,0,71.156-5h4.234v-.109A2.753,2.753,0,0,0,74.8-6.816,1.815,1.815,0,0,0,73.359-7.422Zm4.8,3.125a4.968,4.968,0,0,1,.914-3.145A2.923,2.923,0,0,1,81.5-8.609a2.908,2.908,0,0,1,2.414,1.094l.07-.937H85.3V-.2a3.439,3.439,0,0,1-.973,2.586,3.589,3.589,0,0,1-2.613.945,4.348,4.348,0,0,1-1.789-.391,3.08,3.08,0,0,1-1.336-1.07L79.344,1a2.826,2.826,0,0,0,2.273,1.148,2.214,2.214,0,0,0,1.645-.594,2.269,2.269,0,0,0,.59-1.672V-.844a2.971,2.971,0,0,1-2.367,1,2.887,2.887,0,0,1-2.4-1.2A5.224,5.224,0,0,1,78.164-4.3Zm1.453.164A3.79,3.79,0,0,0,80.2-1.887a1.9,1.9,0,0,0,1.641.816,2.117,2.117,0,0,0,2.008-1.242V-6.172a2.142,2.142,0,0,0-1.992-1.211,1.921,1.921,0,0,0-1.648.82A4.128,4.128,0,0,0,79.617-4.133ZM89.055,0H87.609V-12h1.445Zm7.531,0a3.036,3.036,0,0,1-.2-.891A3.225,3.225,0,0,1,93.977.156a2.984,2.984,0,0,1-2.051-.707,2.288,2.288,0,0,1-.8-1.793,2.39,2.39,0,0,1,1-2.051,4.733,4.733,0,0,1,2.824-.73h1.406v-.664A1.623,1.623,0,0,0,95.906-7a1.821,1.821,0,0,0-1.336-.449,2.108,2.108,0,0,0-1.3.391,1.151,1.151,0,0,0-.523.945H91.3a2,2,0,0,1,.449-1.223,3.066,3.066,0,0,1,1.219-.934,4.1,4.1,0,0,1,1.691-.344,3.342,3.342,0,0,1,2.289.73A2.635,2.635,0,0,1,97.8-5.867v3.891a4.757,4.757,0,0,0,.3,1.852V0Zm-2.4-1.1a2.54,2.54,0,0,0,1.289-.352,2.127,2.127,0,0,0,.883-.914V-4.1H95.227q-2.656,0-2.656,1.555a1.316,1.316,0,0,0,.453,1.063A1.742,1.742,0,0,0,94.188-1.1Z" transform="translate(-4593.037 -6406)" fill="#12263f"/>
    <path id="Trazado_877359" data-name="Trazado 877359" d="M-5629-6646.086h140.926" transform="translate(1018.037 216.086)" fill="none" stroke="#707070" stroke-width="1"/>
    <path id="Trazado_878716" data-name="Trazado 878716" d="M1.084-9.57a1.131,1.131,0,0,1,.278-.781,1.061,1.061,0,0,1,.835-.312,1.092,1.092,0,0,1,.845.313,1.109,1.109,0,0,1,.288.781,1.048,1.048,0,0,1-.288.752,1.112,1.112,0,0,1-.845.3,1.079,1.079,0,0,1-.835-.3A1.069,1.069,0,0,1,1.084-9.57Zm.342,12.4L.4,2.129A4.712,4.712,0,0,0,1.357-.508V-2.139H3.125V-.723A4.448,4.448,0,0,1,2.642,1.25,4.618,4.618,0,0,1,1.426,2.832Z" transform="translate(-4285 -6521)" fill="#12263f"/>
    <path id="Trazado_877405" data-name="Trazado 877405" d="M-5629-6646.086h75.426" transform="translate(1136.287 -124)" fill="none" stroke="#707070" stroke-width="1"/>
  </g>
</svg>
