<svg xmlns="http://www.w3.org/2000/svg" xmlns:xlink="http://www.w3.org/1999/xlink" width="504.146" height="322.406" viewBox="0 0 504.146 322.406">
  <defs>
    <clipPath id="clip-path">
      <rect id="Rectángulo_402416" data-name="Rectángulo 402416" width="299.061" height="161.493" fill="none"/>
    </clipPath>
    <clipPath id="clip-path-2">
      <rect id="Rectángulo_402477" data-name="Rectángulo 402477" width="212.506" height="263.721" fill="none"/>
    </clipPath>
  </defs>
  <g id="_31" data-name="31" transform="translate(-915 -6049)">
    <g id="Grupo_1100627" data-name="Grupo 1100627" transform="translate(915 6049.228)">
      <path id="Trazado_877303" data-name="Trazado 877303" d="M214.175,981.44a26.862,26.862,0,1,1-26.862-26.861,26.862,26.862,0,0,1,26.862,26.861" transform="translate(-117.775 -700.68)" fill="#fff"/>
      <rect id="Rectángulo_402399" data-name="Rectángulo 402399" width="18.558" height="2.987" transform="translate(402.473 85.778)" fill="#fff"/>
      <rect id="Rectángulo_402400" data-name="Rectángulo 402400" width="25.523" height="0.849" transform="translate(398.99 91.817)" fill="#fff"/>
      <rect id="Rectángulo_402401" data-name="Rectángulo 402401" width="15.56" height="0.849" transform="translate(403.972 93.722)" fill="#fff"/>
      <path id="Trazado_877310" data-name="Trazado 877310" d="M1300.087,80.87a1.574,1.574,0,1,1-1.574-1.574,1.574,1.574,0,0,1,1.574,1.574" transform="translate(-951.978 -58.206)" fill="#6a21db"/>
      <path id="Trazado_877311" data-name="Trazado 877311" d="M1319.824,80.87a1.574,1.574,0,1,1-1.574-1.574,1.574,1.574,0,0,1,1.574,1.574" transform="translate(-966.464 -58.206)" fill="#6a21db"/>
      <path id="Trazado_877312" data-name="Trazado 877312" d="M1339.561,80.87a1.574,1.574,0,1,1-1.574-1.574,1.574,1.574,0,0,1,1.574,1.574" transform="translate(-980.951 -58.206)" fill="#6a21db"/>
      <path id="Trazado_877313" data-name="Trazado 877313" d="M1477.922,263.832l-.813-.43c1.772-3.344,6.2-4.177,9.742-3.844,1.081.1,2.173.278,3.229.448a20.2,20.2,0,0,0,7.141.317c3.742-.737,6.715-3.537,9.59-6.245,3.057-2.88,6.218-5.857,10.38-6.5a20.477,20.477,0,0,1,5.567.151c1.02.122,2.074.247,3.1.277a8.276,8.276,0,0,0,6.042-1.933l.653.649a9.109,9.109,0,0,1-6.722,2.2c-1.068-.032-2.143-.16-3.183-.284a19.479,19.479,0,0,0-5.317-.156c-3.88.6-6.8,3.353-9.89,6.265-2.97,2.8-6.041,5.69-10.042,6.478a21.161,21.161,0,0,1-7.465-.311c-1.041-.168-2.118-.342-3.169-.441-3.252-.3-7.284.415-8.844,3.358" transform="translate(-1084.227 -180.621)" fill="#ffacb0"/>
      <path id="Trazado_877314" data-name="Trazado 877314" d="M1420.437,162.593l-.719-.264a20.424,20.424,0,0,1,13.26-12.537,39.473,39.473,0,0,1,4.306-.882c.884-.147,1.8-.3,2.685-.486a12.921,12.921,0,0,0,6.222-2.788,6.469,6.469,0,0,0,2.216-4.916l.764-.039a7.249,7.249,0,0,1-2.466,5.522,13.639,13.639,0,0,1-6.577,2.969c-.9.191-1.826.344-2.718.493a38.894,38.894,0,0,0-4.223.863,19.646,19.646,0,0,0-12.75,12.064" transform="translate(-1042.1 -103.265)" fill="#ffacb0"/>
      <path id="Trazado_877315" data-name="Trazado 877315" d="M1410.839,219.3l-.893-.355a13.034,13.034,0,0,1,5.525-6.394,15.246,15.246,0,0,1,12.948-.957c.833.324,1.64.725,2.42,1.112a15.638,15.638,0,0,0,4.187,1.609c3.208.57,6.853-.921,9.746-3.987a39.265,39.265,0,0,0,3.527-4.56,45.219,45.219,0,0,1,3.144-4.154c3.031-3.427,6.8-5.214,10.324-4.9a17.6,17.6,0,0,1,3.793.911c.662.213,1.347.432,2.024.6a14.78,14.78,0,0,0,12-2.274,12.351,12.351,0,0,0,2.982-3.127l.8.533a13.349,13.349,0,0,1-3.214,3.369,15.766,15.766,0,0,1-12.8,2.433c-.709-.174-1.41-.4-2.088-.616a16.635,16.635,0,0,0-3.584-.869c-4.572-.405-8.18,3.064-9.518,4.576a44.466,44.466,0,0,0-3.075,4.067,40,40,0,0,1-3.616,4.67c-3.117,3.3-7.083,4.9-10.614,4.274a16.624,16.624,0,0,1-4.446-1.7c-.761-.378-1.547-.769-2.34-1.077a14.268,14.268,0,0,0-12.114.891,12.071,12.071,0,0,0-5.118,5.918" transform="translate(-1034.927 -141.537)" fill="#ffacb0"/>
      <path id="Trazado_877316" data-name="Trazado 877316" d="M1402.51,171.469l-.97-.132c.642-4.711,5.353-7.7,9.458-8.483a35.094,35.094,0,0,1,9.979.021c1.023.1,2.045.2,3.065.271,5.477.382,9.307-.431,12.055-2.563a21,21,0,0,0,3.167-3.317,20.969,20.969,0,0,1,3.461-3.572c2.911-2.182,6.565-2.661,10.1-3.124a34.613,34.613,0,0,0,6.436-1.259,16.305,16.305,0,0,0,10.259-10.541l.937.286a17.3,17.3,0,0,1-10.885,11.184,35.332,35.332,0,0,1-6.62,1.3c-3.565.467-6.932.908-9.638,2.937a19.913,19.913,0,0,0-3.293,3.412,21.774,21.774,0,0,1-3.323,3.468c-2.95,2.288-6.991,3.169-12.723,2.765-1.029-.072-2.06-.173-3.092-.273a34.379,34.379,0,0,0-9.7-.034c-3.771.719-8.093,3.422-8.671,7.653" transform="translate(-1028.757 -101.86)" fill="#ffacb0"/>
      <path id="Trazado_877317" data-name="Trazado 877317" d="M1490.585,154.262a8.6,8.6,0,0,1-4.2-1.048l.445-.805c3.591,1.982,8.122.411,10.91-1.538a38.73,38.73,0,0,0,5.6-5.138c1.009-1.056,2.052-2.147,3.147-3.154,2.625-2.414,6.7-5.192,11.179-4.727l-.095.915c-4.143-.43-7.976,2.2-10.462,4.49-1.073.986-2.106,2.067-3.1,3.112a39.4,39.4,0,0,1-5.735,5.256,13.944,13.944,0,0,1-7.678,2.637" transform="translate(-1091.031 -101.15)" fill="#ffacb0"/>
      <rect id="Rectángulo_402404" data-name="Rectángulo 402404" width="58.598" height="44.782" transform="translate(206.986 267.413)" fill="#572daa"/>
      <path id="Trazado_877321" data-name="Trazado 877321" d="M835.893,1049.266H776.268v-45.81h59.625Zm-58.6-1.028h57.569v-43.754H777.3Z" transform="translate(-569.795 -736.557)" fill="#231f20"/>
      <rect id="Rectángulo_402405" data-name="Rectángulo 402405" width="58.598" height="44.782" transform="translate(201.523 267.413)" fill="#8223ff"/>
      <path id="Trazado_877322" data-name="Trazado 877322" d="M816.257,1038.077l-58.6,31.643v-31.643Z" transform="translate(-556.136 -761.969)" fill="#6a21db"/>
      <path id="Trazado_877323" data-name="Trazado 877323" d="M805.57,1182.447H711.48v-2.5a6.193,6.193,0,0,1,6.193-6.193h81.7a6.193,6.193,0,0,1,6.193,6.193Z" transform="translate(-522.24 -861.558)" fill="#572daa"/>
      <path id="Trazado_877324" data-name="Trazado 877324" d="M804.665,1181.544H709.547v-3.015a6.715,6.715,0,0,1,6.707-6.707h81.7a6.714,6.714,0,0,1,6.707,6.707Zm-94.09-1.028h93.062v-1.987a5.685,5.685,0,0,0-5.679-5.679h-81.7a5.686,5.686,0,0,0-5.68,5.679Z" transform="translate(-520.821 -860.141)" fill="#231f20"/>
      <path id="Trazado_877325" data-name="Trazado 877325" d="M609.722,503.834H314.747a9.189,9.189,0,0,1-9.189-9.189V319.433a9.188,9.188,0,0,1,9.189-9.188H609.722a9.188,9.188,0,0,1,9.189,9.188V494.646a9.189,9.189,0,0,1-9.189,9.189" transform="translate(-224.285 -227.727)" fill="#572daa"/>
      <path id="Trazado_877326" data-name="Trazado 877326" d="M608.3,502.93H313.328a9.714,9.714,0,0,1-9.7-9.7V318.016a9.714,9.714,0,0,1,9.7-9.7H608.3a9.714,9.714,0,0,1,9.7,9.7V493.228a9.713,9.713,0,0,1-9.7,9.7M313.328,309.341a8.685,8.685,0,0,0-8.675,8.675V493.228a8.685,8.685,0,0,0,8.675,8.675H608.3a8.685,8.685,0,0,0,8.674-8.675V318.016a8.684,8.684,0,0,0-8.674-8.675Z" transform="translate(-222.866 -226.309)" fill="#231f20"/>
      <rect id="Rectángulo_402406" data-name="Rectángulo 402406" width="34.939" height="34.939" transform="translate(357.298 287.239)" fill="#c0c1ed"/>
      <rect id="Rectángulo_402407" data-name="Rectángulo 402407" width="34.939" height="34.939" transform="translate(318.906 287.239)" fill="#c0c1ed"/>
      <path id="Trazado_877327" data-name="Trazado 877327" d="M785.03,1182.447H690.941v-2.5a6.193,6.193,0,0,1,6.193-6.193h81.7a6.193,6.193,0,0,1,6.193,6.193Z" transform="translate(-507.164 -861.558)" fill="#8223ff"/>
      <path id="Trazado_877328" data-name="Trazado 877328" d="M815.353,1049.266H755.727v-45.81h59.626Zm-58.6-1.028h57.57v-43.754h-57.57Z" transform="translate(-554.718 -736.557)" fill="#231f20"/>
      <path id="Trazado_877329" data-name="Trazado 877329" d="M784.127,1181.544H689.009v-3.015a6.714,6.714,0,0,1,6.707-6.707h81.7a6.715,6.715,0,0,1,6.708,6.707Zm-94.089-1.028H783.1v-1.987a5.686,5.686,0,0,0-5.68-5.679h-81.7a5.685,5.685,0,0,0-5.679,5.679Z" transform="translate(-505.746 -860.141)" fill="#231f20"/>
      <path id="Trazado_877330" data-name="Trazado 877330" d="M582.928,503.835H287.953a9.188,9.188,0,0,1-9.189-9.189V319.434a9.189,9.189,0,0,1,9.189-9.189H582.928a9.189,9.189,0,0,1,9.189,9.189V494.646a9.189,9.189,0,0,1-9.189,9.189" transform="translate(-204.618 -227.727)" fill="#debefb"/>
      <rect id="Rectángulo_402415" data-name="Rectángulo 402415" width="299.06" height="161.493" transform="translate(81.292 89.823)" fill="#231f20"/>
      <g id="Grupo_1100625" data-name="Grupo 1100625" transform="translate(81.292 89.823)" opacity="0.2">
        <g id="Grupo_1100624" data-name="Grupo 1100624">
          <g id="Grupo_1100623" data-name="Grupo 1100623" clip-path="url(#clip-path)">
            <path id="Trazado_877331" data-name="Trazado 877331" d="M305.63,499.2l299.06-161.493V499.2Z" transform="translate(-305.63 -337.709)" fill="#b786fb"/>
          </g>
        </g>
      </g>
      <path id="Trazado_877332" data-name="Trazado 877332" d="M581.509,502.93H286.534a9.714,9.714,0,0,1-9.7-9.7V318.016a9.714,9.714,0,0,1,9.7-9.7H581.509a9.714,9.714,0,0,1,9.7,9.7V493.228a9.714,9.714,0,0,1-9.7,9.7M286.534,309.341a8.684,8.684,0,0,0-8.675,8.675V493.228a8.685,8.685,0,0,0,8.675,8.675H581.509a8.684,8.684,0,0,0,8.674-8.675V318.016a8.684,8.684,0,0,0-8.674-8.675Z" transform="translate(-203.199 -226.309)" fill="#231f20"/>
      <path id="Trazado_877333" data-name="Trazado 877333" d="M603.787,498.3H303.7V335.776H603.787Zm-299.06-1.028H602.759V336.8H304.727Z" transform="translate(-222.921 -246.467)" fill="#231f20"/>
      <path id="Trazado_877334" data-name="Trazado 877334" d="M857.067,982.653a2.858,2.858,0,1,1,2.858,2.858,2.858,2.858,0,0,1-2.858-2.858" transform="translate(-629.104 -719.188)" fill="#231f20"/>
      <path id="Trazado_877356" data-name="Trazado 877356" d="M276.333,933.11h-3.29a.685.685,0,1,1,0-1.371h3.29a.685.685,0,0,1,0,1.371m-7.4,0H265.64a.685.685,0,1,1,0-1.371h3.291a.685.685,0,1,1,0,1.371m-7.4,0h-3.29a.685.685,0,0,1,0-1.371h3.29a.685.685,0,1,1,0,1.371m-7.4,0h-3.29a.685.685,0,1,1,0-1.371h3.29a.685.685,0,1,1,0,1.371m-7.4,0h-3.29a.685.685,0,0,1,0-1.371h3.29a.685.685,0,1,1,0,1.371m-7.4,0H236.03a.685.685,0,1,1,0-1.371h3.291a.685.685,0,0,1,0,1.371m-7.4,0h-3.29a.685.685,0,0,1,0-1.371h3.29a.685.685,0,1,1,0,1.371m-7.4,0h-3.29a.685.685,0,1,1,0-1.371h3.29a.685.685,0,0,1,0,1.371m-7.4,0h-3.291a.685.685,0,1,1,0-1.371h3.291a.685.685,0,1,1,0,1.371m-7.4,0h-3.29a.685.685,0,0,1,0-1.371h3.29a.685.685,0,1,1,0,1.371m-7.4,0h-3.29a.685.685,0,1,1,0-1.371h3.29a.685.685,0,1,1,0,1.371m-7.4,0h-3.29a.685.685,0,0,1,0-1.371h3.29a.685.685,0,1,1,0,1.371m-7.4,0h-3.291a.685.685,0,1,1,0-1.371H187.5a.685.685,0,1,1,0,1.371m-7.4,0h-3.29a.685.685,0,0,1,0-1.371h3.29a.685.685,0,1,1,0,1.371m-7.4,0h-3.29a.685.685,0,1,1,0-1.371h3.29a.685.685,0,0,1,0,1.371m-7.4,0h-3.291a.685.685,0,1,1,0-1.371H165.3a.685.685,0,1,1,0,1.371m-7.4,0H154.6a.685.685,0,0,1,0-1.371h3.29a.685.685,0,1,1,0,1.371m-7.4,0H147.2a.685.685,0,1,1,0-1.371h3.29a.685.685,0,0,1,0,1.371m-7.4,0H139.8a.685.685,0,0,1,0-1.371h3.29a.685.685,0,1,1,0,1.371m-7.4,0H132.4a.685.685,0,1,1,0-1.371h3.291a.685.685,0,0,1,0,1.371m-7.4,0h-3.29a.685.685,0,0,1,0-1.371h3.29a.685.685,0,1,1,0,1.371m-3.357-4.046a.685.685,0,0,1-.685-.685v-3.29a.685.685,0,0,1,1.371,0v3.29a.685.685,0,0,1-.685.685m0-7.4a.685.685,0,0,1-.685-.685v-3.291a.685.685,0,0,1,1.371,0v3.291a.685.685,0,0,1-.685.685m0-7.4a.686.686,0,0,1-.685-.685v-3.291a.685.685,0,0,1,1.371,0v3.291a.686.686,0,0,1-.685.685m0-7.4a.685.685,0,0,1-.685-.685v-3.291a.685.685,0,0,1,1.371,0v3.291a.685.685,0,0,1-.685.685m0-7.4a.686.686,0,0,1-.685-.686v-3.29a.685.685,0,0,1,1.371,0v3.29a.686.686,0,0,1-.685.686m0-7.4a.685.685,0,0,1-.685-.685v-3.291a.685.685,0,0,1,1.371,0v3.291a.685.685,0,0,1-.685.685m0-7.4a.685.685,0,0,1-.685-.685v-3.29a.685.685,0,0,1,1.371,0v3.29a.685.685,0,0,1-.685.685m0-7.4a.686.686,0,0,1-.685-.685v-3.291a.685.685,0,0,1,1.371,0v3.291a.686.686,0,0,1-.685.685" transform="translate(-91.195 -640.496)" fill="#231f20"/>
      <rect id="Rectángulo_402443" data-name="Rectángulo 402443" width="5.717" height="5.717" transform="translate(33.731 87.105)" fill="#ffacb0"/>
      <rect id="Rectángulo_402444" data-name="Rectángulo 402444" width="5.717" height="5.717" transform="translate(12.793 216.551)" fill="#ffacb0"/>
      <rect id="Rectángulo_402445" data-name="Rectángulo 402445" width="5.717" height="5.717" transform="translate(317.087 16.736)" fill="#8223ff"/>
      <g id="Grupo_1100638" data-name="Grupo 1100638">
        <rect id="Rectángulo_402446" data-name="Rectángulo 402446" width="5.717" height="5.717" transform="translate(130.138 304.892)" fill="#ffacb0"/>
      </g>
      <rect id="Rectángulo_402447" data-name="Rectángulo 402447" width="5.717" height="5.717" transform="translate(12.793 229.187)" fill="#ffacb0"/>
      <rect id="Rectángulo_402448" data-name="Rectángulo 402448" width="5.717" height="5.717" transform="translate(0 216.551)" fill="#8223ff"/>
      <rect id="Rectángulo_402449" data-name="Rectángulo 402449" width="5.717" height="5.717" transform="translate(0 229.187)" fill="#ffacb0"/>
    </g>
    <g id="Grupo_1100637" data-name="Grupo 1100637" transform="translate(1039.329 6049.001)">
      <rect id="Rectángulo_402461" data-name="Rectángulo 402461" width="212.506" height="250.303" transform="translate(0 -0.001)" fill="#00ffdf"/>
      <g id="Grupo_1100636" data-name="Grupo 1100636" transform="translate(0 -0.001)">
        <g id="Grupo_1100635" data-name="Grupo 1100635" clip-path="url(#clip-path-2)">
          <path id="Trazado_877360" data-name="Trazado 877360" d="M219.829,41.912a2.544,2.544,0,1,1-2.544-2.544,2.544,2.544,0,0,1,2.544,2.544" transform="translate(-182.288 -30.129)" fill="#3a1d71"/>
          <path id="Trazado_877361" data-name="Trazado 877361" d="M148.249,41.912a2.544,2.544,0,1,1-2.544-2.544,2.544,2.544,0,0,1,2.544,2.544" transform="translate(-118.535 -30.129)" fill="#3a1d71"/>
          <path id="Trazado_877362" data-name="Trazado 877362" d="M76.669,41.912a2.544,2.544,0,1,1-2.544-2.544,2.544,2.544,0,0,1,2.544,2.544" transform="translate(-54.782 -30.129)" fill="#3a1d71"/>
          <rect id="Rectángulo_402462" data-name="Rectángulo 402462" width="76.435" height="15.119" transform="translate(26.878 68.455)" fill="#3a1d71"/>
          <rect id="Rectángulo_402463" data-name="Rectángulo 402463" width="161.689" height="15.119" transform="translate(26.878 99.533)" fill="#3a1d71"/>
          <rect id="Rectángulo_402464" data-name="Rectángulo 402464" width="161.689" height="15.119" transform="translate(26.878 128.511)" fill="#3a1d71"/>
          <rect id="Rectángulo_402465" data-name="Rectángulo 402465" width="161.689" height="44.517" transform="translate(26.878 155.39)" fill="#3a1d71"/>
          <rect id="Rectángulo_402466" data-name="Rectángulo 402466" width="76.435" height="15.119" transform="translate(112.132 68.455)" fill="#3a1d71"/>
          <rect id="Rectángulo_402467" data-name="Rectángulo 402467" width="47.037" height="17.219" transform="translate(140.271 212.926)" fill="#f0c518"/>
          <rect id="Rectángulo_402468" data-name="Rectángulo 402468" width="20.998" height="17.219" transform="translate(27.298 212.926)" fill="#a854f3"/>
          <rect id="Rectángulo_402469" data-name="Rectángulo 402469" width="73.075" height="1.68" transform="translate(55.436 215.866)" fill="#8722e2"/>
          <rect id="Rectángulo_402470" data-name="Rectángulo 402470" width="73.075" height="1.68" transform="translate(55.436 220.905)" fill="#8722e2"/>
          <rect id="Rectángulo_402471" data-name="Rectángulo 402471" width="73.075" height="1.68" transform="translate(55.436 225.945)" fill="#8722e2"/>
          <path id="Trazado_877363" data-name="Trazado 877363" d="M131.7,932.133l-3.853-5.454.767-.542,3.268,4.626,10.754-8.916.6.723Z" transform="translate(-97.84 -705.503)" fill="#fff"/>
          <path id="Trazado_877365" data-name="Trazado 877365" d="M143.614,311.985v2h2.5v.5h-2.5v2.677h-.578v-5.676h3.229v.5Z" transform="translate(-109.468 -238.383)" fill="#8c8caf"/>
          <path id="Trazado_877366" data-name="Trazado 877366" d="M160.6,310.614h.535v.765H160.6Zm.536,5.88H160.6v-4.266h.535Z" transform="translate(-122.908 -237.717)" fill="#8c8caf"/>
          <path id="Trazado_877367" data-name="Trazado 877367" d="M169.739,317.829a2.009,2.009,0,0,0-.382-.034,1.892,1.892,0,0,0-1.054.306v3.492h-.535v-4.266h.476l.043.391a1.925,1.925,0,0,1,1.232-.442,1.7,1.7,0,0,1,.3.025Z" transform="translate(-128.395 -242.816)" fill="#8c8caf"/>
          <path id="Trazado_877368" data-name="Trazado 877368" d="M178.559,320.875a3.792,3.792,0,0,0,1.1.187c.705,0,.994-.272.994-.714,0-1.113-2.167-.654-2.167-2.065,0-.79.544-1.224,1.5-1.224a3.338,3.338,0,0,1,1.037.145l-.093.442a4.463,4.463,0,0,0-.926-.111c-.629,0-.943.213-.943.688,0,1.02,2.175.68,2.175,2.022,0,.765-.51,1.3-1.606,1.3a3.073,3.073,0,0,1-1.224-.246Z" transform="translate(-136.544 -242.65)" fill="#8c8caf"/>
          <path id="Trazado_877369" data-name="Trazado 877369" d="M195.439,317.939a2.759,2.759,0,0,1-.9.136c-.892,0-1.079-.323-1.079-1.138v-2.77h-.595v-.442h.595v-1.079l.544-.077v1.156h1.428l-.085.442h-1.351v2.855c0,.34.008.612.578.612a3.3,3.3,0,0,0,.782-.111Z" transform="translate(-147.602 -239.213)" fill="#8c8caf"/>
          <path id="Trazado_877370" data-name="Trazado 877370" d="M220.189,311.484v5.676h-.7l-3.2-4.835v4.835h-.578v-5.676h.7l3.2,4.826v-4.826Z" transform="translate(-165.087 -238.383)" fill="#8c8caf"/>
          <path id="Trazado_877371" data-name="Trazado 877371" d="M242.448,321.34a5.835,5.835,0,0,1-1.734.272c-.8,0-1.538-.3-1.538-1.173,0-1.011.824-1.275,1.623-1.275a4.729,4.729,0,0,1,1.079.136v-.612c0-.663-.178-1.045-1.028-1.045a5.088,5.088,0,0,0-1.241.2l-.1-.416a5.746,5.746,0,0,1,1.453-.255c1.088,0,1.487.467,1.487,1.487Zm-.569-1.674a4.965,4.965,0,0,0-.96-.093c-.7,0-1.181.229-1.181.841,0,.595.578.756,1.156.756a3.722,3.722,0,0,0,.985-.136Z" transform="translate(-183.045 -242.733)" fill="#8c8caf"/>
          <path id="Trazado_877372" data-name="Trazado 877372" d="M259.875,317.023a1.441,1.441,0,0,1,1.113.366,3.438,3.438,0,0,1,1.581-.366c.824,0,1.436.272,1.436,1.4V321.4h-.527v-2.838c0-.892-.416-1.053-1.071-1.053a3.093,3.093,0,0,0-1.2.255,1.87,1.87,0,0,1,.1.663V321.4h-.527v-2.838c0-.892-.416-1.053-1.071-1.053a2.407,2.407,0,0,0-1.173.289v3.6h-.535v-3.951a5.348,5.348,0,0,1,1.869-.425" transform="translate(-197.456 -242.622)" fill="#8c8caf"/>
          <path id="Trazado_877373" data-name="Trazado 877373" d="M287.915,319.314c0-1.13.484-2.218,1.869-2.218,1.419,0,1.861.952,1.64,2.218h-2.931c0,1.207.442,1.776,1.419,1.776a2.823,2.823,0,0,0,1.275-.28l.093.459a3.23,3.23,0,0,1-1.394.306c-1.317,0-1.972-.8-1.972-2.26m1.895-1.793a1.311,1.311,0,0,0-1.3,1.334h2.4a1.054,1.054,0,0,0-1.1-1.334" transform="translate(-220.346 -242.678)" fill="#8c8caf"/>
          <path id="Trazado_877374" data-name="Trazado 877374" d="M509.339,317.16h-3.034v-5.676h.569v5.175h2.464Z" transform="translate(-387.483 -238.383)" fill="#8c8caf"/>
          <path id="Trazado_877375" data-name="Trazado 877375" d="M524.643,321.34a5.838,5.838,0,0,1-1.734.272c-.8,0-1.538-.3-1.538-1.173,0-1.011.824-1.275,1.623-1.275a4.731,4.731,0,0,1,1.08.136v-.612c0-.663-.179-1.045-1.029-1.045a5.088,5.088,0,0,0-1.24.2l-.1-.416a5.742,5.742,0,0,1,1.453-.255c1.088,0,1.487.467,1.487,1.487Zm-.569-1.674a4.972,4.972,0,0,0-.961-.093c-.7,0-1.181.229-1.181.841,0,.595.578.756,1.156.756a3.727,3.727,0,0,0,.986-.136Z" transform="translate(-399.013 -242.733)" fill="#8c8caf"/>
          <path id="Trazado_877376" data-name="Trazado 877376" d="M539.185,320.875a3.8,3.8,0,0,0,1.1.187c.705,0,.994-.272.994-.714,0-1.113-2.167-.654-2.167-2.065,0-.79.544-1.224,1.5-1.224a3.339,3.339,0,0,1,1.037.145l-.094.442a4.46,4.46,0,0,0-.926-.111c-.629,0-.943.213-.943.688,0,1.02,2.175.68,2.175,2.022,0,.765-.51,1.3-1.606,1.3a3.075,3.075,0,0,1-1.224-.246Z" transform="translate(-412.536 -242.65)" fill="#8c8caf"/>
          <path id="Trazado_877377" data-name="Trazado 877377" d="M556.065,317.939a2.758,2.758,0,0,1-.9.136c-.892,0-1.079-.323-1.079-1.138v-2.77h-.595v-.442h.595v-1.079l.544-.077v1.156h1.428l-.085.442H554.62v2.855c0,.34.008.612.578.612a3.3,3.3,0,0,0,.782-.111Z" transform="translate(-423.594 -239.213)" fill="#8c8caf"/>
          <path id="Trazado_877378" data-name="Trazado 877378" d="M580.817,311.484v5.676h-.7l-3.2-4.835v4.835h-.578v-5.676h.7l3.2,4.826v-4.826Z" transform="translate(-441.08 -238.383)" fill="#8c8caf"/>
          <path id="Trazado_877379" data-name="Trazado 877379" d="M603.076,321.34a5.835,5.835,0,0,1-1.734.272c-.8,0-1.538-.3-1.538-1.173,0-1.011.824-1.275,1.623-1.275a4.72,4.72,0,0,1,1.079.136v-.612c0-.663-.178-1.045-1.028-1.045a5.088,5.088,0,0,0-1.241.2l-.1-.416a5.743,5.743,0,0,1,1.453-.255c1.088,0,1.487.467,1.487,1.487Zm-.57-1.674a4.956,4.956,0,0,0-.96-.093c-.7,0-1.181.229-1.181.841,0,.595.578.756,1.156.756a3.717,3.717,0,0,0,.985-.136Z" transform="translate(-459.039 -242.733)" fill="#8c8caf"/>
          <path id="Trazado_877380" data-name="Trazado 877380" d="M620.5,317.023a1.441,1.441,0,0,1,1.113.366,3.437,3.437,0,0,1,1.581-.366c.824,0,1.436.272,1.436,1.4V321.4h-.527v-2.838c0-.892-.416-1.053-1.071-1.053a3.092,3.092,0,0,0-1.2.255,1.869,1.869,0,0,1,.1.663V321.4h-.527v-2.838c0-.892-.416-1.053-1.071-1.053a2.407,2.407,0,0,0-1.173.289v3.6h-.535v-3.951a5.35,5.35,0,0,1,1.869-.425" transform="translate(-473.449 -242.622)" fill="#8c8caf"/>
          <path id="Trazado_877381" data-name="Trazado 877381" d="M648.544,319.314c0-1.13.484-2.218,1.87-2.218,1.419,0,1.861.952,1.64,2.218h-2.931c0,1.207.442,1.776,1.419,1.776a2.822,2.822,0,0,0,1.275-.28l.094.459a3.231,3.231,0,0,1-1.394.306c-1.317,0-1.972-.8-1.972-2.26m1.895-1.793a1.311,1.311,0,0,0-1.3,1.334h2.4a1.054,1.054,0,0,0-1.1-1.334" transform="translate(-496.34 -242.678)" fill="#8c8caf"/>
          <path id="Trazado_877382" data-name="Trazado 877382" d="M150.159,450.13h-3.322v-5.676h3.229v.5h-2.651v2h2.507v.5h-2.507v2.176h2.745Z" transform="translate(-112.376 -340.147)" fill="#8c8caf"/>
          <path id="Trazado_877383" data-name="Trazado 877383" d="M167.428,449.993a1.443,1.443,0,0,1,1.113.365,3.441,3.441,0,0,1,1.581-.365c.824,0,1.436.272,1.436,1.4v2.974h-.527v-2.838c0-.892-.416-1.054-1.071-1.054a3.1,3.1,0,0,0-1.2.255,1.876,1.876,0,0,1,.1.663v2.974h-.527v-2.838c0-.892-.416-1.054-1.071-1.054a2.408,2.408,0,0,0-1.173.289v3.6h-.535v-3.951a5.339,5.339,0,0,1,1.869-.425" transform="translate(-126.705 -344.386)" fill="#8c8caf"/>
          <path id="Trazado_877384" data-name="Trazado 877384" d="M198.342,454.31a5.833,5.833,0,0,1-1.733.272c-.8,0-1.538-.3-1.538-1.173,0-1.011.824-1.275,1.623-1.275a4.728,4.728,0,0,1,1.079.136v-.612c0-.663-.178-1.045-1.028-1.045a5.076,5.076,0,0,0-1.241.2l-.1-.416a5.742,5.742,0,0,1,1.453-.255c1.088,0,1.487.467,1.487,1.487Zm-.569-1.674a4.963,4.963,0,0,0-.96-.093c-.7,0-1.181.229-1.181.841,0,.595.578.756,1.156.756a3.711,3.711,0,0,0,.986-.136Z" transform="translate(-149.29 -344.497)" fill="#8c8caf"/>
          <path id="Trazado_877385" data-name="Trazado 877385" d="M213.356,443.584h.536v.765h-.536Zm.536,5.88h-.536V445.2h.536Z" transform="translate(-163.284 -339.481)" fill="#8c8caf"/>
          <path id="Trazado_877386" data-name="Trazado 877386" d="M221.114,443.3v5.141c0,.382.187.467.433.467a2.158,2.158,0,0,0,.552-.076l.043.408a2.639,2.639,0,0,1-.731.119.775.775,0,0,1-.85-.909V443.3Z" transform="translate(-168.799 -339.26)" fill="#8c8caf"/>
          <path id="Trazado_877387" data-name="Trazado 877387" d="M144.785,576.394a4.236,4.236,0,0,0,1.487.289c.714,0,1.36-.246,1.36-1.045,0-.731-.612-.96-1.343-1.215-.96-.34-1.606-.7-1.606-1.572,0-1.19.918-1.53,1.886-1.53a5.563,5.563,0,0,1,1.342.179l-.119.467a5.059,5.059,0,0,0-1.224-.178c-.646,0-1.266.2-1.266.952,0,.688.612.943,1.309,1.181,1.011.34,1.631.748,1.631,1.632,0,1.2-.985,1.648-2.031,1.648a3.93,3.93,0,0,1-1.563-.331Z" transform="translate(-110.702 -437.24)" fill="#8c8caf"/>
          <path id="Trazado_877388" data-name="Trazado 877388" d="M167.45,581.817a5.287,5.287,0,0,1-1.767.3c-.824,0-1.589-.289-1.589-1.5V577.73h.535v2.83c0,.858.51,1.1,1.283,1.1a3.156,3.156,0,0,0,1-.178V577.73h.535Z" transform="translate(-125.584 -442.145)" fill="#8c8caf"/>
          <path id="Trazado_877389" data-name="Trazado 877389" d="M183.757,576.364v-5.8h.527v1.852a3.38,3.38,0,0,1,1.258-.28c.994,0,1.751.628,1.751,2.141,0,1.241-.459,2.354-2,2.354a4.256,4.256,0,0,1-1.538-.263m.527-.4a2.783,2.783,0,0,0,1.037.178c1.062,0,1.4-.858,1.4-1.861,0-1.189-.527-1.657-1.275-1.657a3.052,3.052,0,0,0-1.164.28Z" transform="translate(-140.632 -436.658)" fill="#8c8caf"/>
          <path id="Trazado_877390" data-name="Trazado 877390" d="M199.511,577.325a1.026,1.026,0,0,1-1.138,1.147,1.7,1.7,0,0,1-.637-.128l.059-.459a2.789,2.789,0,0,0,.561.076c.314,0,.612-.093.612-.6v-4.895h.536Zm-.544-6.475h.535v.765h-.535Z" transform="translate(-151.329 -436.88)" fill="#8c8caf"/>
          <path id="Trazado_877391" data-name="Trazado 877391" d="M209.248,579.549c0-1.13.484-2.218,1.87-2.218,1.419,0,1.861.952,1.64,2.218h-2.931c0,1.207.442,1.776,1.419,1.776a2.822,2.822,0,0,0,1.275-.28l.093.459a3.229,3.229,0,0,1-1.394.306c-1.317,0-1.972-.8-1.972-2.26m1.9-1.793a1.311,1.311,0,0,0-1.3,1.334h2.4a1.053,1.053,0,0,0-1.1-1.334" transform="translate(-160.141 -441.84)" fill="#8c8caf"/>
          <path id="Trazado_877392" data-name="Trazado 877392" d="M230.989,577.915a4.263,4.263,0,0,0-.977-.144c-.705,0-1.41.442-1.41,1.767s.705,1.776,1.479,1.776a2.846,2.846,0,0,0,1.02-.17l.085.425a3.324,3.324,0,0,1-1.13.212,1.971,1.971,0,0,1-2.048-2.243,1.993,1.993,0,0,1,1.988-2.243,3.277,3.277,0,0,1,1.1.187Z" transform="translate(-174.496 -441.812)" fill="#8c8caf"/>
          <path id="Trazado_877393" data-name="Trazado 877393" d="M246.37,578.175a2.758,2.758,0,0,1-.9.136c-.892,0-1.079-.323-1.079-1.138V574.4h-.6v-.442h.6v-1.079l.544-.076v1.156h1.427l-.085.442h-1.351v2.855c0,.34.009.612.578.612a3.294,3.294,0,0,0,.782-.111Z" transform="translate(-186.58 -438.376)" fill="#8c8caf"/>
          <path id="Trazado_877394" data-name="Trazado 877394" d="M150.868,696.77l1.886-4.206h.739l.255,5.676h-.569l-.187-4.852-1.886,4.121h-.527l-1.878-4.121-.187,4.852h-.57l.255-5.676h.74Z" transform="translate(-113.224 -530.029)" fill="#8c8caf"/>
          <path id="Trazado_877395" data-name="Trazado 877395" d="M176.951,700.394c0-1.13.484-2.218,1.87-2.218,1.419,0,1.861.952,1.64,2.218h-2.931c0,1.207.442,1.776,1.419,1.776a2.823,2.823,0,0,0,1.275-.28l.093.459a3.229,3.229,0,0,1-1.394.306c-1.317,0-1.972-.8-1.972-2.26m1.9-1.793a1.311,1.311,0,0,0-1.3,1.334h2.4a1.054,1.054,0,0,0-1.1-1.334" transform="translate(-135.423 -534.324)" fill="#8c8caf"/>
          <path id="Trazado_877396" data-name="Trazado 877396" d="M195.635,701.955a3.8,3.8,0,0,0,1.1.187c.705,0,.994-.272.994-.714,0-1.113-2.167-.654-2.167-2.065,0-.79.544-1.224,1.5-1.224a3.338,3.338,0,0,1,1.037.145l-.093.442a4.465,4.465,0,0,0-.926-.111c-.629,0-.943.213-.943.688,0,1.02,2.175.68,2.175,2.022,0,.765-.51,1.3-1.606,1.3a3.074,3.074,0,0,1-1.224-.246Z" transform="translate(-149.612 -534.296)" fill="#8c8caf"/>
          <path id="Trazado_877397" data-name="Trazado 877397" d="M210.772,701.955a3.8,3.8,0,0,0,1.1.187c.705,0,.994-.272.994-.714,0-1.113-2.167-.654-2.167-2.065,0-.79.544-1.224,1.5-1.224a3.338,3.338,0,0,1,1.037.145l-.093.442a4.465,4.465,0,0,0-.926-.111c-.629,0-.943.213-.943.688,0,1.02,2.175.68,2.175,2.022,0,.765-.51,1.3-1.606,1.3a3.074,3.074,0,0,1-1.224-.246Z" transform="translate(-161.197 -534.296)" fill="#8c8caf"/>
          <path id="Trazado_877398" data-name="Trazado 877398" d="M228.855,702.42a5.837,5.837,0,0,1-1.733.272c-.8,0-1.538-.3-1.538-1.172,0-1.011.824-1.275,1.623-1.275a4.726,4.726,0,0,1,1.079.136v-.612c0-.663-.178-1.045-1.028-1.045a5.086,5.086,0,0,0-1.241.2l-.1-.416a5.744,5.744,0,0,1,1.453-.255c1.088,0,1.487.467,1.487,1.487Zm-.569-1.674a4.964,4.964,0,0,0-.96-.093c-.7,0-1.181.229-1.181.841,0,.595.578.756,1.156.756a3.721,3.721,0,0,0,.986-.136Z" transform="translate(-172.642 -534.379)" fill="#8c8caf"/>
          <path id="Trazado_877399" data-name="Trazado 877399" d="M245.685,698.377a7.451,7.451,0,0,0,1.138-.093l.043.365a5.314,5.314,0,0,1-1.1.093,1.214,1.214,0,0,1,.433,1.028,1.366,1.366,0,0,1-1.563,1.445,2.376,2.376,0,0,1-.518-.051.861.861,0,0,0-.051.875h1.283c.85.034,1.3.3,1.3.969,0,1.028-.782,1.5-2.1,1.5-1.045,0-1.7-.357-1.7-1.045a1.317,1.317,0,0,1,.824-1.138.982.982,0,0,1,.111-1.266,1.29,1.29,0,0,1-.7-1.3c0-.918.518-1.436,1.623-1.428.23,0,.722.051.969.051m-1.632,4.13c-.391.187-.654.391-.654.841s.552.688,1.257.688c.867,0,1.428-.221,1.428-.96,0-.348-.178-.569-.909-.569Zm.586-1.708a.944.944,0,0,0,1.088-1.028c0-.663-.3-1.011-1.088-1.011-.756,0-1.045.365-1.045,1a.926.926,0,0,0,1.045,1.037" transform="translate(-185.86 -534.407)" fill="#8c8caf"/>
          <path id="Trazado_877400" data-name="Trazado 877400" d="M262.192,700.394c0-1.13.484-2.218,1.87-2.218,1.419,0,1.861.952,1.64,2.218H262.77c0,1.207.442,1.776,1.419,1.776a2.823,2.823,0,0,0,1.275-.28l.093.459a3.229,3.229,0,0,1-1.394.306c-1.317,0-1.972-.8-1.972-2.26m1.9-1.793a1.311,1.311,0,0,0-1.3,1.334h2.4a1.054,1.054,0,0,0-1.1-1.334" transform="translate(-200.659 -534.324)" fill="#8c8caf"/>
          <path id="Trazado_877401" data-name="Trazado 877401" d="M652.9,934.822a4.24,4.24,0,0,0,1.487.289c.714,0,1.36-.246,1.36-1.045,0-.731-.612-.96-1.343-1.215-.961-.34-1.606-.7-1.606-1.572,0-1.189.918-1.529,1.886-1.529a5.574,5.574,0,0,1,1.342.179l-.119.467a5.048,5.048,0,0,0-1.223-.179c-.646,0-1.266.2-1.266.952,0,.688.612.943,1.309,1.181,1.011.34,1.632.748,1.632,1.631,0,1.2-.985,1.648-2.031,1.648a3.926,3.926,0,0,1-1.564-.331Z" transform="translate(-499.571 -711.55)" fill="#fff"/>
          <path id="Trazado_877402" data-name="Trazado 877402" d="M676.112,935.824H672.79v-5.676h3.229v.5h-2.651v2h2.507v.5h-2.507v2.175h2.745Z" transform="translate(-514.896 -711.856)" fill="#fff"/>
          <path id="Trazado_877403" data-name="Trazado 877403" d="M696.641,930.147v5.676h-.7l-3.2-4.835v4.835h-.578v-5.676h.7l3.2,4.826v-4.826Z" transform="translate(-529.722 -711.855)" fill="#fff"/>
          <path id="Trazado_877404" data-name="Trazado 877404" d="M717.545,930.14a14.029,14.029,0,0,1,1.513-.1c1.725,0,2.779.6,2.779,2.872,0,2.32-1.292,2.906-2.83,2.906a9.67,9.67,0,0,1-1.462-.136Zm.578,5.072a4.893,4.893,0,0,0,.909.093c1.241,0,2.175-.62,2.175-2.4,0-1.657-.688-2.4-2.133-2.4a6.542,6.542,0,0,0-.951.068Z" transform="translate(-549.148 -711.771)" fill="#fff"/>
        </g>
      </g>
    </g>
    <rect id="Rectángulo_402478" data-name="Rectángulo 402478" width="39.291" height="1.633" transform="translate(1329.989 6186.758)" fill="#c0c1ed"/>
    <rect id="Rectángulo_402479" data-name="Rectángulo 402479" width="39.291" height="1.633" transform="translate(1329.989 6190.604)" fill="#c0c1ed"/>
    <rect id="Rectángulo_402480" data-name="Rectángulo 402480" width="39.291" height="1.633" transform="translate(1329.989 6194.45)" fill="#c0c1ed"/>
    <rect id="Rectángulo_402481" data-name="Rectángulo 402481" width="11.817" height="1.633" transform="translate(1329.989 6198.296)" fill="#c0c1ed"/>
    <rect id="Rectángulo_402482" data-name="Rectángulo 402482" width="39.291" height="1.633" transform="translate(1379.855 6186.758)" fill="#c0c1ed"/>
    <rect id="Rectángulo_402483" data-name="Rectángulo 402483" width="39.291" height="1.633" transform="translate(1379.855 6190.604)" fill="#c0c1ed"/>
    <rect id="Rectángulo_402484" data-name="Rectángulo 402484" width="23.634" height="1.633" transform="translate(1379.855 6194.45)" fill="#c0c1ed"/>
  </g>
</svg>
