<svg id="_34" data-name="34" xmlns="http://www.w3.org/2000/svg" xmlns:xlink="http://www.w3.org/1999/xlink" width="92.859" height="92.859" viewBox="0 0 92.859 92.859">
  <defs>
    <clipPath id="clip-path">
      <path id="Trazado_877408" data-name="Trazado 877408" d="M0,46.43A46.43,46.43,0,1,0,46.43,0,46.426,46.426,0,0,0,0,46.43"/>
    </clipPath>
  </defs>
  <g id="Grupo_1100651" data-name="Grupo 1100651">
    <g id="Grupo_1100650" data-name="Grupo 1100650">
      <g id="Grupo_1100649" data-name="Grupo 1100649">
        <g id="Grupo_1100648" data-name="Grupo 1100648">
          <path id="Trazado_877407" data-name="Trazado 877407" d="M0,46.43A46.43,46.43,0,1,0,46.43,0,46.426,46.426,0,0,0,0,46.43" fill="#9b66fc"/>
          <g id="Grupo_1100647" data-name="Grupo 1100647" clip-path="url(#clip-path)">
            <rect id="Rectángulo_402504" data-name="Rectángulo 402504" width="92.662" height="92.662" transform="translate(0 0.197)" fill="#9b66fc"/>
          </g>
        </g>
      </g>
    </g>
  </g>
  <g id="_273921944" transform="translate(62.209 18.191)">
    <path id="Trazado_877409" data-name="Trazado 877409" d="M351.488,108.788H343V100.3Z" transform="translate(-343 -100.3)" fill="#fff"/>
  </g>
  <g id="_273921464" transform="translate(27.024 44.072)">
    <path id="Trazado_877410" data-name="Trazado 877410" d="M194.051,243.562h0c-.018,0-.036-.018-.054-.018a5.484,5.484,0,0,0-.907-.345c-.036-.018-.091-.018-.127-.036l-.145-.036c-.054-.018-.109-.018-.145-.036l-.127-.018h-.018l-.145-.018-.163-.018-.091-.018h-.091l-.145-.018H154.749A5.751,5.751,0,0,0,149,248.749v15.688a5.751,5.751,0,0,0,5.749,5.749h37.434l.109-.018.345-.054a.342.342,0,0,0,.145-.036l.145-.036a1.156,1.156,0,0,0,.127-.036,5.487,5.487,0,0,0,.907-.345c.018,0,.036-.018.054-.018h0a5.784,5.784,0,0,0,3.265-5.169V248.749A5.663,5.663,0,0,0,194.051,243.562Zm-22.344,5.913H169.15v10.084a5.605,5.605,0,0,1-11.208.018.669.669,0,0,1,.671-.671.658.658,0,0,1,.671.671,4.282,4.282,0,0,0,8.56,0V249.493h-2.521a.67.67,0,0,1-.671-.671.658.658,0,0,1,.671-.671h6.384a.67.67,0,0,1,.671.671A.654.654,0,0,1,171.707,249.475Zm11.081,6.438c2.63.925,5.586,2,5.586,4.788,0,2.412-2.594,4.371-5.767,4.371s-5.767-1.959-5.767-4.371a.669.669,0,0,1,.671-.671.658.658,0,0,1,.671.671c0,1.687,2,3.047,4.443,3.047s4.425-1.36,4.425-3.047c0-1.723-1.868-2.521-4.716-3.537-2.575-.907-5.477-1.941-5.477-4.643,0-2.412,2.594-4.371,5.767-4.371s5.767,1.959,5.767,4.371a.67.67,0,0,1-.671.671.658.658,0,0,1-.671-.671c0-1.687-2-3.047-4.425-3.047s-4.443,1.36-4.443,3.047c.018,1.632,1.832,2.412,4.607,3.392Z" transform="translate(-149 -243)" fill="#fff"/>
  </g>
  <g id="_273920744" transform="translate(17.52 17.248)">
    <path id="Trazado_877411" data-name="Trazado 877411" d="M111.853,120.6h37.271c.236.018.49.036.725.073.036,0,.091.018.127.018l.272.054a4.858,4.858,0,0,1,.49.127V105.8H140.654a.67.67,0,0,1-.671-.671V95.1H96.6v58.364h54.12v-3.319a4.858,4.858,0,0,1-.49.127l-.272.054c-.036,0-.073.018-.109.018-.236.036-.49.073-.725.091H111.853a7.082,7.082,0,0,1-7.073-7.073V127.655A7.067,7.067,0,0,1,111.853,120.6Zm13.566-7.091c-.163-2.594-.218-4.19.544-4.734a14.5,14.5,0,0,1,1.632-.925,14.5,14.5,0,0,1-1.632-.925c-.744-.544-.707-2.14-.544-4.734.036-.544.073-1.07.073-1.415,0-.181-.054-.218-.073-.236a1.62,1.62,0,0,0-1-.091.66.66,0,0,1-.762-.544.653.653,0,0,1,.49-.744,2.727,2.727,0,0,1,2.1.345,1.5,1.5,0,0,1,.562,1.27c0,.381-.036.889-.073,1.487a13.586,13.586,0,0,0,.036,3.591c.562.381,2.013,1.106,2.575,1.378l.018.018a.063.063,0,0,1,.036.018l.036.018.036.018.054.036.018.018.018.018.036.036.018.018.018.036c.018.018.018.036.036.073.018.018.018.054.036.073,0,.018.018.036.018.054,0,.036.018.054.018.091v.127a.163.163,0,0,1-.018.091.067.067,0,0,1-.018.054.365.365,0,0,1-.073.145l-.018.036a.837.837,0,0,1-.127.127c-.018.018-.018.018-.036.018l-.036.018a.056.056,0,0,1-.036.018l-.018.018c-.562.272-2.013,1-2.575,1.378a13.585,13.585,0,0,0-.036,3.591c.036.6.073,1.106.073,1.487a1.548,1.548,0,0,1-.562,1.27,2.22,2.22,0,0,1-1.415.417,2.969,2.969,0,0,1-.689-.073.659.659,0,1,1,.181-1.306c.018,0,.054.018.073.018a1.651,1.651,0,0,0,1-.091c.018-.018.073-.073.073-.254,0-.254-.036-.78-.073-1.342ZM104.78,107.8h0c0-.036,0-.054.018-.073V107.7c0-.018.018-.036.018-.054.018-.018.018-.054.036-.073h0a.063.063,0,0,1,.018-.036c0-.018.018-.018.018-.036l.018-.036a.838.838,0,0,1,.127-.127l.036-.018.036-.018c.018-.018.018-.018.036-.018l.018-.018c.562-.272,2.031-1,2.594-1.378a13.585,13.585,0,0,0,.036-3.591c-.036-.6-.073-1.106-.073-1.487a1.6,1.6,0,0,1,.562-1.27,2.721,2.721,0,0,1,2.1-.345.65.65,0,0,1,.508.78.659.659,0,0,1-.78.508,1.651,1.651,0,0,0-1,.091c-.018.018-.073.054-.073.236,0,.345.036.852.073,1.415.163,2.594.218,4.19-.544,4.734a14.5,14.5,0,0,1-1.632.925,14.5,14.5,0,0,1,1.632.925c.762.544.707,2.14.544,4.734-.036.544-.073,1.07-.073,1.415a.361.361,0,0,0,.073.254,1.621,1.621,0,0,0,1,.091.66.66,0,0,1,.762.544.653.653,0,0,1-.49.744,2.968,2.968,0,0,1-.689.073,2.22,2.22,0,0,1-1.415-.417,1.5,1.5,0,0,1-.562-1.27c0-.381.036-.889.073-1.487a13.585,13.585,0,0,0-.036-3.591c-.562-.381-2.031-1.106-2.594-1.378h-.018a.632.632,0,0,1-.236-.2l-.018-.036-.018-.036c-.018-.018-.018-.018-.018-.036-.018-.018-.018-.054-.036-.073,0-.018-.018-.036-.018-.054v-.018a.067.067,0,0,0-.018-.054h0a.4.4,0,0,1,0-.218Z" transform="translate(-96.6 -95.1)" fill="#fff"/>
  </g>
</svg>
