<svg xmlns="http://www.w3.org/2000/svg" xmlns:xlink="http://www.w3.org/1999/xlink" width="596" height="411.448" viewBox="0 0 596 411.448">
  <defs>
    <clipPath id="clip-path">
      <rect id="Rectángulo_401143" data-name="Rectángulo 401143" width="596" height="411.448" fill="#9b8282"/>
    </clipPath>
  </defs>
  <g id="_36" data-name="36" transform="translate(1490 9746.187)">
    <g id="Grupo_1100550" data-name="Grupo 1100550" transform="translate(-1490 -9746.189)">
      <g id="Grupo_1100482" data-name="Grupo 1100482" transform="translate(0 0.003)" clip-path="url(#clip-path)">
        <path id="Trazado_873858" data-name="Trazado 873858" d="M805.5,411.451H14.5c-8.006,0-14.5-5.131-14.5-11.46V11.463C0,5.134,6.49,0,14.5,0H805.5C813.51,0,820,5.134,820,11.463V399.992c0,6.329-6.49,11.46-14.5,11.46" transform="translate(0 -0.003)" fill="#f2f2f2"/>
        <path id="Trazado_873859" data-name="Trazado 873859" d="M820,41.183H0V14.465A14.461,14.461,0,0,1,14.461,0H805.539A14.461,14.461,0,0,1,820,14.465Z" transform="translate(0 -0.004)" fill="#3a1d71"/>
        <path id="Trazado_873860" data-name="Trazado 873860" d="M1123.409,34.27H728.391a4.773,4.773,0,0,0-4.773,4.773v11.03a4.773,4.773,0,0,0,4.773,4.773h395.018a4.773,4.773,0,0,0,4.773-4.773V39.043a4.773,4.773,0,0,0-4.773-4.773" transform="translate(-461.322 -21.849)" fill="#fff"/>
        <path id="Trazado_873861" data-name="Trazado 873861" d="M1123.409,34.27H728.391a4.773,4.773,0,0,0-4.773,4.773v11.03a4.773,4.773,0,0,0,4.773,4.773h395.018a4.773,4.773,0,0,0,4.773-4.773V39.043A4.773,4.773,0,0,0,1123.409,34.27Z" transform="translate(-461.322 -21.849)" fill="none" stroke="#d9d9d9" stroke-miterlimit="10" stroke-width="1"/>
        <path id="Trazado_873862" data-name="Trazado 873862" d="M259.012,54.869H243.534a3.472,3.472,0,0,1-3.472-3.472V37.875a3.472,3.472,0,0,1,3.472-3.472h15.478a3.472,3.472,0,0,1,3.472,3.472V51.4a3.472,3.472,0,0,1-3.472,3.472" transform="translate(-108.062 -21.934)" fill="#fff"/>
        <rect id="Rectángulo_401133" data-name="Rectángulo 401133" width="22.422" height="20.466" rx="4" transform="translate(132 12.469)" fill="none" stroke="#d9d9d9" stroke-miterlimit="10" stroke-width="1"/>
        <path id="Trazado_873863" data-name="Trazado 873863" d="M326.394,54.869H310.916a3.472,3.472,0,0,1-3.472-3.472V37.875a3.472,3.472,0,0,1,3.472-3.472h15.478a3.472,3.472,0,0,1,3.472,3.472V51.4a3.472,3.472,0,0,1-3.472,3.472" transform="translate(-151.019 -21.934)" fill="#fff"/>
        <rect id="Rectángulo_401134" data-name="Rectángulo 401134" width="22.422" height="20.466" rx="3" transform="translate(156.425 12.469)" fill="none" stroke="#d9d9d9" stroke-miterlimit="10" stroke-width="1"/>
        <path id="Trazado_873864" data-name="Trazado 873864" d="M434.5,54.869H407.709a3.472,3.472,0,0,1-3.472-3.472V37.875a3.472,3.472,0,0,1,3.472-3.472H434.5a3.472,3.472,0,0,1,3.472,3.472V51.4a3.472,3.472,0,0,1-3.472,3.472" transform="translate(-212.727 -21.934)" fill="#fff"/>
        <rect id="Rectángulo_401135" data-name="Rectángulo 401135" width="33.733" height="20.466" rx="5" transform="translate(191.51 12.469)" fill="none" stroke="#d9d9d9" stroke-miterlimit="10" stroke-width="1"/>
        <path id="Trazado_873865" data-name="Trazado 873865" d="M2049.908,54.847h-26.933a3.491,3.491,0,0,1-3.491-3.491V37.762a3.491,3.491,0,0,1,3.491-3.491h26.933a3.491,3.491,0,0,1,3.491,3.491V51.356a3.491,3.491,0,0,1-3.491,3.491" transform="translate(-1287.466 -21.85)" fill="#fff"/>
        <rect id="Rectángulo_401136" data-name="Rectángulo 401136" width="33.914" height="20.576" rx="4" transform="translate(732.019 12.421)" fill="none" stroke="#d9d9d9" stroke-miterlimit="10" stroke-width="1"/>
        <path id="Trazado_873866" data-name="Trazado 873866" d="M2160.978,54.847h-26.933a3.491,3.491,0,0,1-3.491-3.491V37.762a3.491,3.491,0,0,1,3.491-3.491h26.933a3.491,3.491,0,0,1,3.491,3.491V51.356a3.491,3.491,0,0,1-3.491,3.491" transform="translate(-1358.275 -21.85)" fill="#fff"/>
        <rect id="Rectángulo_401137" data-name="Rectángulo 401137" width="33.915" height="20.576" rx="4" transform="translate(772.279 12.421)" fill="none" stroke="#d9d9d9" stroke-miterlimit="10" stroke-width="1"/>
        <path id="Trazado_873867" data-name="Trazado 873867" d="M268.3,50.391l-4.74,4.486,4.74,4.486" transform="translate(-123.045 -32.127)" fill="none" stroke="#575757" stroke-linecap="round" stroke-linejoin="round" stroke-width="2"/>
        <path id="Trazado_873868" data-name="Trazado 873868" d="M332.731,50.391l4.74,4.486-4.74,4.486" transform="translate(-167.14 -32.127)" fill="none" stroke="#c2c2c2" stroke-linecap="round" stroke-linejoin="round" stroke-width="2"/>
        <rect id="Rectángulo_401138" data-name="Rectángulo 401138" width="12.572" height="9.935" transform="translate(201.997 17.969)" fill="none" stroke="#575757" stroke-miterlimit="10" stroke-width="1"/>
        <line id="Línea_553" data-name="Línea 553" y2="9.624" transform="translate(206.453 17.969)" fill="none" stroke="#575757" stroke-miterlimit="10" stroke-width="1"/>
        <path id="Trazado_873869" data-name="Trazado 873869" d="M1803.144,50.657a4.7,4.7,0,1,0,4.7,4.7" transform="translate(-1146.545 -32.296)" fill="none" stroke="#7c7c7c" stroke-miterlimit="10" stroke-width="1"/>
        <path id="Trazado_873870" data-name="Trazado 873870" d="M1809.361,48.954v-4.7l3.512,2.351Z" transform="translate(-1153.507 -28.213)" fill="#7c7c7c"/>
        <path id="Trazado_873871" data-name="Trazado 873871" d="M2059.657,56.252h3.136v8.01h-9.154v-8.01h3.312" transform="translate(-1309.24 -35.863)" fill="none" stroke="#575757" stroke-miterlimit="10" stroke-width="1"/>
        <rect id="Rectángulo_401142" data-name="Rectángulo 401142" width="7.178" height="7.196" transform="translate(784.825 20.389)" fill="none" stroke="#575757" stroke-miterlimit="10" stroke-width="1"/>
        <line id="Línea_554" data-name="Línea 554" y2="7.768" transform="translate(749.043 16.615)" fill="none" stroke="#575757" stroke-miterlimit="10" stroke-width="1"/>
        <path id="Trazado_873872" data-name="Trazado 873872" d="M2064.493,47.412l-2.58-2.58-2.581,2.58" transform="translate(-1312.87 -28.583)" fill="none" stroke="#575757" stroke-miterlimit="10" stroke-width="1"/>
        <path id="Trazado_873873" data-name="Trazado 873873" d="M2172.905,50.041V48.718h7.119v7.2h-1.342" transform="translate(-1385.275 -31.06)" fill="none" stroke="#575757" stroke-miterlimit="10" stroke-width="1"/>
        <circle id="Elipse_11469" data-name="Elipse 11469" cx="8" cy="8" r="8" transform="translate(44 14)" fill="#fb130d"/>
        <circle id="Elipse_11470" data-name="Elipse 11470" cx="8" cy="8" r="8" transform="translate(65 14)" fill="#fecd02"/>
        <circle id="Elipse_11471" data-name="Elipse 11471" cx="8" cy="8" r="8" transform="translate(86 14)" fill="#43dfaa"/>
      </g>
    </g>
    <path id="Trazado_878738" data-name="Trazado 878738" d="M9.633,3.164l.242,3.6H9.633A4.533,4.533,0,0,0,8.25,4.438a3.368,3.368,0,0,0-2.156-.711,3.509,3.509,0,0,0-1.906.535,3.54,3.54,0,0,0-1.34,1.707,7.6,7.6,0,0,0-.488,2.914,6.188,6.188,0,0,0,.461,2.492,3.454,3.454,0,0,0,1.387,1.617,3.988,3.988,0,0,0,2.113.563,3.666,3.666,0,0,0,1.82-.441,6,6,0,0,0,1.734-1.754l.242.156a5.562,5.562,0,0,1-1.859,2.07,4.706,4.706,0,0,1-2.523.656,4.776,4.776,0,0,1-4.078-1.953A5.584,5.584,0,0,1,.578,8.867a6.077,6.077,0,0,1,.711-2.914A5.144,5.144,0,0,1,3.246,3.895a5.288,5.288,0,0,1,2.723-.73,4.99,4.99,0,0,1,2.266.563A1.229,1.229,0,0,0,8.7,3.9.516.516,0,0,0,9.07,3.75a1.217,1.217,0,0,0,.289-.586Zm5.039,3.469a3.171,3.171,0,0,1,2.609,1.234,3.79,3.79,0,0,1,.836,2.422,4.561,4.561,0,0,1-.461,1.945,3.274,3.274,0,0,1-3.07,1.984,3.032,3.032,0,0,1-2.57-1.289,3.994,3.994,0,0,1-.8-2.437A4.325,4.325,0,0,1,11.7,8.535,3.335,3.335,0,0,1,12.984,7.1,3.3,3.3,0,0,1,14.672,6.633Zm-.242.508a1.629,1.629,0,0,0-.832.246,1.725,1.725,0,0,0-.676.863,4.154,4.154,0,0,0-.258,1.586,5.525,5.525,0,0,0,.621,2.7,1.849,1.849,0,0,0,1.637,1.133,1.525,1.525,0,0,0,1.25-.625,3.553,3.553,0,0,0,.492-2.148,4.9,4.9,0,0,0-.82-3A1.69,1.69,0,0,0,14.43,7.141Zm6.828,1.008a3.378,3.378,0,0,1,2.4-1.516,1.722,1.722,0,0,1,1.008.293,1.963,1.963,0,0,1,.672.965,4.463,4.463,0,0,1,.172,1.438v3.055a2.574,2.574,0,0,0,.109.922.642.642,0,0,0,.277.3,1.572,1.572,0,0,0,.707.109V14H23.063v-.281h.148a1.191,1.191,0,0,0,.7-.152.8.8,0,0,0,.277-.449,4.565,4.565,0,0,0,.031-.734V9.453a2.975,2.975,0,0,0-.254-1.418.907.907,0,0,0-.855-.441,2.576,2.576,0,0,0-1.852,1.016v3.773a2.7,2.7,0,0,0,.086.9.723.723,0,0,0,.3.332,1.862,1.862,0,0,0,.777.105V14H18.883v-.281h.156a.841.841,0,0,0,.738-.277,2.023,2.023,0,0,0,.191-1.059V9.727a11.545,11.545,0,0,0-.059-1.57.673.673,0,0,0-.18-.383.488.488,0,0,0-.324-.1,1.5,1.5,0,0,0-.523.117l-.117-.281,2.156-.875h.336ZM29.25,4.492V6.844h1.672v.547H29.25v4.641a1.559,1.559,0,0,0,.2.938.633.633,0,0,0,.512.242.9.9,0,0,0,.5-.16,1.03,1.03,0,0,0,.375-.473h.3a2.451,2.451,0,0,1-.773,1.152,1.669,1.669,0,0,1-1.031.387,1.386,1.386,0,0,1-.7-.2,1.2,1.2,0,0,1-.508-.57,2.994,2.994,0,0,1-.164-1.145V7.391H26.828V7.133a2.966,2.966,0,0,0,.879-.582,4.628,4.628,0,0,0,.8-.973,8.75,8.75,0,0,0,.5-1.086Zm3.57,5.047a3.676,3.676,0,0,0,.773,2.5,2.359,2.359,0,0,0,1.836.906,1.991,1.991,0,0,0,1.223-.387,2.854,2.854,0,0,0,.871-1.324l.242.156a3.725,3.725,0,0,1-.953,1.949,2.545,2.545,0,0,1-1.977.879,2.886,2.886,0,0,1-2.207-1,3.846,3.846,0,0,1-.918-2.7,4.081,4.081,0,0,1,.941-2.863,3.07,3.07,0,0,1,2.363-1.027,2.642,2.642,0,0,1,1.977.793,2.907,2.907,0,0,1,.773,2.121Zm0-.453h3.313a3.062,3.062,0,0,0-.164-.969,1.551,1.551,0,0,0-.582-.687,1.467,1.467,0,0,0-.809-.25,1.612,1.612,0,0,0-1.16.5A2.187,2.187,0,0,0,32.82,9.086ZM40.8,8.148a3.378,3.378,0,0,1,2.4-1.516,1.722,1.722,0,0,1,1.008.293,1.963,1.963,0,0,1,.672.965,4.463,4.463,0,0,1,.172,1.438v3.055a2.574,2.574,0,0,0,.109.922.642.642,0,0,0,.277.3,1.572,1.572,0,0,0,.707.109V14H42.609v-.281h.148a1.191,1.191,0,0,0,.7-.152.8.8,0,0,0,.277-.449,4.565,4.565,0,0,0,.031-.734V9.453a2.975,2.975,0,0,0-.254-1.418.907.907,0,0,0-.855-.441A2.576,2.576,0,0,0,40.8,8.609v3.773a2.7,2.7,0,0,0,.086.9.723.723,0,0,0,.3.332,1.862,1.862,0,0,0,.777.105V14H38.43v-.281h.156a.841.841,0,0,0,.738-.277,2.023,2.023,0,0,0,.191-1.059V9.727a11.545,11.545,0,0,0-.059-1.57.673.673,0,0,0-.18-.383.488.488,0,0,0-.324-.1,1.5,1.5,0,0,0-.523.117l-.117-.281,2.156-.875H40.8Zm7.734-5.258a.787.787,0,0,1,.789.789.774.774,0,0,1-.23.563.754.754,0,0,1-.559.234.8.8,0,0,1-.8-.8.761.761,0,0,1,.23-.559A.77.77,0,0,1,48.539,2.891Zm.648,3.742v5.75a2.634,2.634,0,0,0,.1.895.686.686,0,0,0,.289.332,1.547,1.547,0,0,0,.7.109V14H46.8v-.281a1.618,1.618,0,0,0,.7-.1.7.7,0,0,0,.285-.336,2.525,2.525,0,0,0,.105-.9V9.625a9.753,9.753,0,0,0-.07-1.508.613.613,0,0,0-.172-.348.485.485,0,0,0-.32-.1,1.564,1.564,0,0,0-.531.117l-.109-.281,2.156-.875ZM56.219,13.2a3.614,3.614,0,0,1-1.023.785,2.474,2.474,0,0,1-1.078.238,2.668,2.668,0,0,1-2.047-.98,3.642,3.642,0,0,1-.875-2.52A4.555,4.555,0,0,1,52.164,7.9a3,3,0,0,1,2.492-1.277,2.147,2.147,0,0,1,1.563.6V5.906A10.8,10.8,0,0,0,56.16,4.4a.657.657,0,0,0-.184-.383.479.479,0,0,0-.312-.1,1.647,1.647,0,0,0-.539.125l-.1-.273,2.133-.875h.352v8.273a11.069,11.069,0,0,0,.059,1.535.681.681,0,0,0,.188.387.451.451,0,0,0,.3.109,1.7,1.7,0,0,0,.563-.133l.086.273-2.125.883h-.359Zm0-.547V8.961a2.492,2.492,0,0,0-.281-.969,1.622,1.622,0,0,0-.621-.66,1.508,1.508,0,0,0-.754-.223,1.6,1.6,0,0,0-1.227.617,3.507,3.507,0,0,0-.711,2.375,3.731,3.731,0,0,0,.688,2.418,1.971,1.971,0,0,0,1.531.84A1.9,1.9,0,0,0,56.219,12.648Zm6.445-6.016a3.171,3.171,0,0,1,2.609,1.234,3.79,3.79,0,0,1,.836,2.422,4.561,4.561,0,0,1-.461,1.945,3.274,3.274,0,0,1-3.07,1.984,3.032,3.032,0,0,1-2.57-1.289,3.994,3.994,0,0,1-.8-2.437,4.325,4.325,0,0,1,.488-1.957A3.335,3.335,0,0,1,60.977,7.1,3.3,3.3,0,0,1,62.664,6.633Zm-.242.508a1.629,1.629,0,0,0-.832.246,1.725,1.725,0,0,0-.676.863,4.154,4.154,0,0,0-.258,1.586,5.525,5.525,0,0,0,.621,2.7,1.849,1.849,0,0,0,1.637,1.133,1.525,1.525,0,0,0,1.25-.625,3.553,3.553,0,0,0,.492-2.148,4.9,4.9,0,0,0-.82-3A1.69,1.69,0,0,0,62.422,7.141Zm13.8,6.055a3.614,3.614,0,0,1-1.023.785,2.474,2.474,0,0,1-1.078.238,2.668,2.668,0,0,1-2.047-.98,3.642,3.642,0,0,1-.875-2.52A4.555,4.555,0,0,1,72.164,7.9a3,3,0,0,1,2.492-1.277,2.147,2.147,0,0,1,1.563.6V5.906A10.8,10.8,0,0,0,76.16,4.4a.657.657,0,0,0-.184-.383.479.479,0,0,0-.312-.1,1.647,1.647,0,0,0-.539.125l-.1-.273,2.133-.875h.352v8.273a11.069,11.069,0,0,0,.059,1.535.681.681,0,0,0,.188.387.451.451,0,0,0,.3.109,1.7,1.7,0,0,0,.563-.133l.086.273-2.125.883h-.359Zm0-.547V8.961a2.492,2.492,0,0,0-.281-.969,1.622,1.622,0,0,0-.621-.66,1.508,1.508,0,0,0-.754-.223,1.6,1.6,0,0,0-1.227.617,3.507,3.507,0,0,0-.711,2.375,3.731,3.731,0,0,0,.688,2.418,1.971,1.971,0,0,0,1.531.84A1.9,1.9,0,0,0,76.219,12.648Zm4.148-3.109a3.676,3.676,0,0,0,.773,2.5,2.359,2.359,0,0,0,1.836.906,1.991,1.991,0,0,0,1.223-.387,2.854,2.854,0,0,0,.871-1.324l.242.156a3.725,3.725,0,0,1-.953,1.949,2.545,2.545,0,0,1-1.977.879,2.886,2.886,0,0,1-2.207-1,3.846,3.846,0,0,1-.918-2.7A4.081,4.081,0,0,1,80.2,7.652a3.07,3.07,0,0,1,2.363-1.027,2.642,2.642,0,0,1,1.977.793,2.907,2.907,0,0,1,.773,2.121Zm0-.453H83.68a3.062,3.062,0,0,0-.164-.969,1.551,1.551,0,0,0-.582-.687,1.467,1.467,0,0,0-.809-.25,1.612,1.612,0,0,0-1.16.5A2.187,2.187,0,0,0,80.367,9.086Zm12.359-6.2v9.492a2.6,2.6,0,0,0,.1.891.692.692,0,0,0,.3.332,1.729,1.729,0,0,0,.758.113V14H90.375v-.281a1.516,1.516,0,0,0,.672-.1.677.677,0,0,0,.281-.336,2.616,2.616,0,0,0,.1-.9v-6.5a11.265,11.265,0,0,0-.055-1.488.651.651,0,0,0-.176-.379.464.464,0,0,0-.309-.1,1.459,1.459,0,0,0-.516.125l-.133-.273,2.133-.875Zm6.039,10.078a11.8,11.8,0,0,1-1.383.984,2.113,2.113,0,0,1-.9.2,1.61,1.61,0,0,1-1.223-.508,1.864,1.864,0,0,1-.48-1.336,1.7,1.7,0,0,1,.234-.906,3.1,3.1,0,0,1,1.113-1,17.322,17.322,0,0,1,2.637-1.141V8.977a2.333,2.333,0,0,0-.34-1.469,1.227,1.227,0,0,0-.988-.4,1.11,1.11,0,0,0-.781.266.8.8,0,0,0-.3.609l.016.453a.779.779,0,0,1-.184.555.629.629,0,0,1-.48.2.608.608,0,0,1-.473-.2.8.8,0,0,1-.184-.555A1.6,1.6,0,0,1,95.742,7.2a2.969,2.969,0,0,1,1.93-.562,3.347,3.347,0,0,1,1.563.32,1.473,1.473,0,0,1,.68.758,4.27,4.27,0,0,1,.141,1.375v2.43a11.129,11.129,0,0,0,.039,1.254.526.526,0,0,0,.129.309.306.306,0,0,0,.207.078.426.426,0,0,0,.219-.055,4.88,4.88,0,0,0,.633-.57v.438q-.875,1.172-1.672,1.172A.76.76,0,0,1,99,13.875,1.435,1.435,0,0,1,98.766,12.969Zm0-.508V9.734a15.426,15.426,0,0,0-1.523.664,2.631,2.631,0,0,0-.883.719,1.389,1.389,0,0,0-.266.82,1.339,1.339,0,0,0,.336.934,1.018,1.018,0,0,0,.773.371A2.834,2.834,0,0,0,98.766,12.461ZM105.3,7.555l2.2-.891h.3V8.336a4.056,4.056,0,0,1,1.113-1.324,2.061,2.061,0,0,1,1.176-.379,2.264,2.264,0,0,1,1.8.844,3.988,3.988,0,0,1,.883,2.688,4.474,4.474,0,0,1-1.062,3.063,2.813,2.813,0,0,1-2.2.992,2.756,2.756,0,0,1-1-.164,2.342,2.342,0,0,1-.7-.469v2.18a2.9,2.9,0,0,0,.09.934.668.668,0,0,0,.313.316,1.921,1.921,0,0,0,.809.117v.289h-3.75v-.289h.2a1.418,1.418,0,0,0,.734-.164.562.562,0,0,0,.23-.277,3.326,3.326,0,0,0,.082-.973V8.953a3.682,3.682,0,0,0-.062-.883.531.531,0,0,0-.2-.281.647.647,0,0,0-.371-.094,1.413,1.413,0,0,0-.477.109ZM107.8,8.8v2.672a5.729,5.729,0,0,0,.07,1.141,1.461,1.461,0,0,0,.535.8,1.655,1.655,0,0,0,1.074.344,1.54,1.54,0,0,0,1.266-.609,3.524,3.524,0,0,0,.633-2.242,3.9,3.9,0,0,0-.719-2.523,1.5,1.5,0,0,0-1.187-.609,1.617,1.617,0,0,0-.742.188A4.356,4.356,0,0,0,107.8,8.8Zm10.07,4.172a11.8,11.8,0,0,1-1.383.984,2.113,2.113,0,0,1-.9.2,1.61,1.61,0,0,1-1.223-.508,1.864,1.864,0,0,1-.48-1.336,1.7,1.7,0,0,1,.234-.906,3.1,3.1,0,0,1,1.113-1,17.322,17.322,0,0,1,2.637-1.141V8.977a2.333,2.333,0,0,0-.34-1.469,1.227,1.227,0,0,0-.988-.4,1.11,1.11,0,0,0-.781.266.8.8,0,0,0-.3.609l.016.453a.779.779,0,0,1-.184.555.629.629,0,0,1-.48.2.608.608,0,0,1-.473-.2.8.8,0,0,1-.184-.555,1.6,1.6,0,0,1,.688-1.234,2.969,2.969,0,0,1,1.93-.562,3.347,3.347,0,0,1,1.563.32,1.473,1.473,0,0,1,.68.758,4.27,4.27,0,0,1,.141,1.375v2.43a11.129,11.129,0,0,0,.039,1.254.526.526,0,0,0,.129.309.306.306,0,0,0,.207.078.426.426,0,0,0,.219-.055,4.88,4.88,0,0,0,.633-.57v.438q-.875,1.172-1.672,1.172a.76.76,0,0,1-.609-.266A1.435,1.435,0,0,1,117.867,12.969Zm0-.508V9.734a15.426,15.426,0,0,0-1.523.664,2.631,2.631,0,0,0-.883.719,1.389,1.389,0,0,0-.266.82,1.339,1.339,0,0,0,.336.934,1.018,1.018,0,0,0,.773.371A2.834,2.834,0,0,0,117.867,12.461Zm.773-9.32-2.3,2.7h-.266l.82-2.7Zm4.188,8.25a2.351,2.351,0,0,1-1.359-2.164,2.442,2.442,0,0,1,.8-1.828,2.846,2.846,0,0,1,2.051-.766,3.122,3.122,0,0,1,1.773.5h1.516a1.993,1.993,0,0,1,.391.02.133.133,0,0,1,.078.066.479.479,0,0,1,.047.25.7.7,0,0,1-.039.281.161.161,0,0,1-.082.063,1.728,1.728,0,0,1-.395.023h-.93a2.272,2.272,0,0,1,.438,1.438,2.252,2.252,0,0,1-.766,1.711,2.9,2.9,0,0,1-2.055.711,3.994,3.994,0,0,1-1.086-.156,2.057,2.057,0,0,0-.465.52.831.831,0,0,0-.121.379.362.362,0,0,0,.129.258.945.945,0,0,0,.5.18q.219.031,1.094.055,1.609.039,2.086.109a1.961,1.961,0,0,1,1.16.539,1.472,1.472,0,0,1,.434,1.078,2.259,2.259,0,0,1-.828,1.656,4.466,4.466,0,0,1-3.18,1.141,4.553,4.553,0,0,1-2.547-.68q-.586-.391-.586-.812a.893.893,0,0,1,.086-.375,4.368,4.368,0,0,1,.547-.8q.055-.07.8-.844a2.466,2.466,0,0,1-.574-.434.64.64,0,0,1-.168-.434,1.286,1.286,0,0,1,.223-.641A5.129,5.129,0,0,1,122.828,11.391Zm1.359-4.383a1.22,1.22,0,0,0-.969.461,2.152,2.152,0,0,0-.391,1.414,3.043,3.043,0,0,0,.531,1.914,1.259,1.259,0,0,0,1.031.516,1.231,1.231,0,0,0,.977-.445,2.116,2.116,0,0,0,.383-1.4,3.129,3.129,0,0,0-.539-1.945A1.238,1.238,0,0,0,124.188,7.008ZM122.75,14a3.849,3.849,0,0,0-.555.742,1.338,1.338,0,0,0-.187.633.791.791,0,0,0,.453.656,4.316,4.316,0,0,0,2.258.484,3.492,3.492,0,0,0,2.074-.5,1.363,1.363,0,0,0,.668-1.059.592.592,0,0,0-.4-.578,5.219,5.219,0,0,0-1.609-.2A25.717,25.717,0,0,1,122.75,14Zm7.984-11.109a.787.787,0,0,1,.789.789.774.774,0,0,1-.23.563.754.754,0,0,1-.559.234.8.8,0,0,1-.8-.8.761.761,0,0,1,.23-.559A.77.77,0,0,1,130.734,2.891Zm.648,3.742v5.75a2.634,2.634,0,0,0,.1.895.686.686,0,0,0,.289.332,1.547,1.547,0,0,0,.7.109V14h-3.477v-.281a1.618,1.618,0,0,0,.7-.1.7.7,0,0,0,.285-.336,2.525,2.525,0,0,0,.105-.9V9.625a9.753,9.753,0,0,0-.07-1.508.613.613,0,0,0-.172-.348.485.485,0,0,0-.32-.1,1.564,1.564,0,0,0-.531.117l-.109-.281,2.156-.875Zm4.063,1.516a3.378,3.378,0,0,1,2.4-1.516,1.722,1.722,0,0,1,1.008.293,1.963,1.963,0,0,1,.672.965,4.463,4.463,0,0,1,.172,1.438v3.055a2.574,2.574,0,0,0,.109.922.642.642,0,0,0,.277.3,1.572,1.572,0,0,0,.707.109V14H137.25v-.281h.148a1.191,1.191,0,0,0,.7-.152.8.8,0,0,0,.277-.449,4.565,4.565,0,0,0,.031-.734V9.453a2.975,2.975,0,0,0-.254-1.418.907.907,0,0,0-.855-.441,2.576,2.576,0,0,0-1.852,1.016v3.773a2.7,2.7,0,0,0,.086.9.723.723,0,0,0,.3.332,1.862,1.862,0,0,0,.777.105V14H133.07v-.281h.156a.841.841,0,0,0,.738-.277,2.023,2.023,0,0,0,.191-1.059V9.727a11.545,11.545,0,0,0-.059-1.57.673.673,0,0,0-.18-.383.488.488,0,0,0-.324-.1,1.5,1.5,0,0,0-.523.117l-.117-.281,2.156-.875h.336Zm9.969,4.82a11.8,11.8,0,0,1-1.383.984,2.113,2.113,0,0,1-.9.2,1.61,1.61,0,0,1-1.223-.508,1.864,1.864,0,0,1-.48-1.336,1.7,1.7,0,0,1,.234-.906,3.1,3.1,0,0,1,1.113-1,17.321,17.321,0,0,1,2.637-1.141V8.977a2.333,2.333,0,0,0-.34-1.469,1.227,1.227,0,0,0-.988-.4,1.11,1.11,0,0,0-.781.266.8.8,0,0,0-.3.609l.016.453a.779.779,0,0,1-.184.555.629.629,0,0,1-.48.2.608.608,0,0,1-.473-.2.8.8,0,0,1-.184-.555,1.6,1.6,0,0,1,.688-1.234,2.969,2.969,0,0,1,1.93-.562,3.347,3.347,0,0,1,1.563.32,1.473,1.473,0,0,1,.68.758,4.27,4.27,0,0,1,.141,1.375v2.43a11.127,11.127,0,0,0,.039,1.254.526.526,0,0,0,.129.309.306.306,0,0,0,.207.078.426.426,0,0,0,.219-.055,4.88,4.88,0,0,0,.633-.57v.438q-.875,1.172-1.672,1.172a.76.76,0,0,1-.609-.266A1.435,1.435,0,0,1,145.414,12.969Zm0-.508V9.734a15.428,15.428,0,0,0-1.523.664,2.631,2.631,0,0,0-.883.719,1.389,1.389,0,0,0-.266.82,1.339,1.339,0,0,0,.336.934,1.018,1.018,0,0,0,.773.371A2.834,2.834,0,0,0,145.414,12.461Zm6.648-5.617h3v.289a.974.974,0,0,0-.543.148.431.431,0,0,0-.129.336,1.68,1.68,0,0,0,.133.586l1.531,4.117,1.539-3.352-.406-1.055a1.258,1.258,0,0,0-.492-.648,1.437,1.437,0,0,0-.641-.133V6.844h3.406v.289a1.443,1.443,0,0,0-.8.2.48.48,0,0,0-.156.4.9.9,0,0,0,.063.32l1.625,4.109L161.7,8.2a2.07,2.07,0,0,0,.156-.672.334.334,0,0,0-.152-.266,1.121,1.121,0,0,0-.6-.133V6.844h2.258v.289a1.288,1.288,0,0,0-1,.922l-2.391,6.164h-.32l-1.789-4.57-2.086,4.57h-.289L153.2,8.2a2.157,2.157,0,0,0-.445-.77,1.485,1.485,0,0,0-.687-.3Zm13.156,2.7a3.676,3.676,0,0,0,.773,2.5,2.359,2.359,0,0,0,1.836.906,1.991,1.991,0,0,0,1.223-.387,2.854,2.854,0,0,0,.871-1.324l.242.156a3.725,3.725,0,0,1-.953,1.949,2.545,2.545,0,0,1-1.977.879,2.886,2.886,0,0,1-2.207-1,3.846,3.846,0,0,1-.918-2.7,4.081,4.081,0,0,1,.941-2.863,3.07,3.07,0,0,1,2.363-1.027,2.642,2.642,0,0,1,1.977.793,2.907,2.907,0,0,1,.773,2.121Zm0-.453h3.313a3.063,3.063,0,0,0-.164-.969,1.551,1.551,0,0,0-.582-.687,1.467,1.467,0,0,0-.809-.25,1.612,1.612,0,0,0-1.16.5A2.187,2.187,0,0,0,165.219,9.086Zm7.859-1.008a2.857,2.857,0,0,1,2.242-1.445,2.481,2.481,0,0,1,1.922.941,3.785,3.785,0,0,1,.82,2.574,3.974,3.974,0,0,1-1.266,3.07,3.491,3.491,0,0,1-2.422,1,3.812,3.812,0,0,1-1.27-.227,5.827,5.827,0,0,1-1.316-.68V5.9a10.71,10.71,0,0,0-.059-1.5.657.657,0,0,0-.184-.383.479.479,0,0,0-.312-.1,1.6,1.6,0,0,0-.547.125l-.109-.273,2.148-.875h.352Zm0,.5v4.281a3.009,3.009,0,0,0,.824.59,2.035,2.035,0,0,0,.871.2,1.711,1.711,0,0,0,1.324-.781,3.622,3.622,0,0,0,.613-2.273A3.225,3.225,0,0,0,176.1,8.48a1.788,1.788,0,0,0-1.395-.738,1.81,1.81,0,0,0-.828.211A3.59,3.59,0,0,0,173.078,8.578Z" transform="translate(-1447 -9653)" fill="#12263f"/>
    <path id="Trazado_878739" data-name="Trazado 878739" d="M3.344,3.984V8.172H5.672A1.9,1.9,0,0,0,6.883,7.9a1.76,1.76,0,0,0,.453-1.266h.289V10.32H7.336a4.032,4.032,0,0,0-.219-.992.978.978,0,0,0-.461-.43,2.353,2.353,0,0,0-.984-.156H3.344v3.492a3.244,3.244,0,0,0,.063.855.491.491,0,0,0,.219.242,1.328,1.328,0,0,0,.594.09h1.8a4.868,4.868,0,0,0,1.3-.125A1.946,1.946,0,0,0,8.1,12.8a6.012,6.012,0,0,0,.992-1.461h.313L8.492,14H.328v-.289H.7a1.486,1.486,0,0,0,.711-.18.657.657,0,0,0,.34-.375,3.677,3.677,0,0,0,.09-1.023V5.25a2.278,2.278,0,0,0-.2-1.242A1.21,1.21,0,0,0,.7,3.7H.328V3.406H8.492l.117,2.32H8.3a3.661,3.661,0,0,0-.363-1.148,1.247,1.247,0,0,0-.59-.477,3.539,3.539,0,0,0-1.1-.117Zm8.742-1.1a.8.8,0,0,1,.8.8.767.767,0,0,1-.234.563.776.776,0,0,1-.57.234.8.8,0,0,1-.8-.8.776.776,0,0,1,.234-.57A.767.767,0,0,1,12.086,2.883Zm.672,3.75v7.2a4.048,4.048,0,0,1-.781,2.727,2.575,2.575,0,0,1-2.031.891A1.757,1.757,0,0,1,8.891,17.2a.7.7,0,0,1-.344-.531.646.646,0,0,1,.191-.469.609.609,0,0,1,.449-.2.95.95,0,0,1,.414.1,2.548,2.548,0,0,1,.512.395,1.069,1.069,0,0,0,.637.34.582.582,0,0,0,.367-.145.878.878,0,0,0,.266-.484,7.677,7.677,0,0,0,.086-1.473V9.641a9.737,9.737,0,0,0-.07-1.516.622.622,0,0,0-.172-.355.485.485,0,0,0-.32-.1,1.564,1.564,0,0,0-.531.117l-.109-.281,2.156-.875Zm3.164,2.906a3.676,3.676,0,0,0,.773,2.5,2.359,2.359,0,0,0,1.836.906,1.991,1.991,0,0,0,1.223-.387,2.854,2.854,0,0,0,.871-1.324l.242.156a3.725,3.725,0,0,1-.953,1.949,2.545,2.545,0,0,1-1.977.879,2.886,2.886,0,0,1-2.207-1,3.846,3.846,0,0,1-.918-2.7,4.081,4.081,0,0,1,.941-2.863,3.07,3.07,0,0,1,2.363-1.027,2.642,2.642,0,0,1,1.977.793,2.907,2.907,0,0,1,.773,2.121Zm0-.453h3.313a3.062,3.062,0,0,0-.164-.969,1.551,1.551,0,0,0-.582-.687,1.467,1.467,0,0,0-.809-.25,1.612,1.612,0,0,0-1.16.5A2.187,2.187,0,0,0,15.922,9.086Zm8.023-.93q.781-.781.922-.9a2.79,2.79,0,0,1,.758-.461,2.137,2.137,0,0,1,.8-.164,1.785,1.785,0,0,1,1.156.391,1.933,1.933,0,0,1,.648,1.133,5.308,5.308,0,0,1,1.359-1.23,2.414,2.414,0,0,1,1.141-.293,1.787,1.787,0,0,1,1.012.293,1.947,1.947,0,0,1,.7.957A4.312,4.312,0,0,1,32.617,9.3v3.078a2.8,2.8,0,0,0,.1.922.664.664,0,0,0,.289.293,1.452,1.452,0,0,0,.688.121V14H30.164v-.281h.148a1.243,1.243,0,0,0,.719-.18.7.7,0,0,0,.258-.4,5.009,5.009,0,0,0,.031-.758V9.3a2.6,2.6,0,0,0-.211-1.234,1.058,1.058,0,0,0-.977-.5,1.861,1.861,0,0,0-.832.207,4.511,4.511,0,0,0-1.012.77l-.016.086.016.336v3.414a2.944,2.944,0,0,0,.082.914.665.665,0,0,0,.309.3,1.768,1.768,0,0,0,.773.121V14H25.836v-.281a1.657,1.657,0,0,0,.816-.141.73.73,0,0,0,.309-.422A4.156,4.156,0,0,0,27,12.383V9.3a2.326,2.326,0,0,0-.258-1.258,1.1,1.1,0,0,0-.961-.5,1.725,1.725,0,0,0-.836.227,3.216,3.216,0,0,0-1,.773v3.836a2.658,2.658,0,0,0,.1.914.672.672,0,0,0,.289.316,1.862,1.862,0,0,0,.777.105V14H21.57v-.281a1.576,1.576,0,0,0,.688-.105.675.675,0,0,0,.3-.336,2.579,2.579,0,0,0,.1-.895V9.648a9.911,9.911,0,0,0-.07-1.523.622.622,0,0,0-.172-.355.485.485,0,0,0-.32-.1,1.5,1.5,0,0,0-.523.117l-.117-.281,2.156-.875h.336Zm9.8-.6,2.2-.891h.3V8.336a4.056,4.056,0,0,1,1.113-1.324,2.061,2.061,0,0,1,1.176-.379,2.264,2.264,0,0,1,1.8.844,3.988,3.988,0,0,1,.883,2.688,4.474,4.474,0,0,1-1.062,3.063,2.813,2.813,0,0,1-2.2.992,2.756,2.756,0,0,1-1-.164,2.342,2.342,0,0,1-.7-.469v2.18a2.9,2.9,0,0,0,.09.934.668.668,0,0,0,.313.316,1.921,1.921,0,0,0,.809.117v.289h-3.75v-.289h.2a1.419,1.419,0,0,0,.734-.164.562.562,0,0,0,.23-.277,3.326,3.326,0,0,0,.082-.973V8.953a3.681,3.681,0,0,0-.062-.883.531.531,0,0,0-.2-.281A.647.647,0,0,0,34.32,7.7a1.413,1.413,0,0,0-.477.109ZM36.25,8.8v2.672a5.729,5.729,0,0,0,.07,1.141,1.461,1.461,0,0,0,.535.8,1.655,1.655,0,0,0,1.074.344,1.54,1.54,0,0,0,1.266-.609,3.524,3.524,0,0,0,.633-2.242,3.9,3.9,0,0,0-.719-2.523,1.5,1.5,0,0,0-1.187-.609,1.617,1.617,0,0,0-.742.188A4.356,4.356,0,0,0,36.25,8.8Zm8.477-5.906v9.492a2.6,2.6,0,0,0,.1.891.692.692,0,0,0,.3.332,1.729,1.729,0,0,0,.758.113V14H42.375v-.281a1.516,1.516,0,0,0,.672-.1.677.677,0,0,0,.281-.336,2.616,2.616,0,0,0,.1-.9v-6.5a11.266,11.266,0,0,0-.055-1.488.651.651,0,0,0-.176-.379.464.464,0,0,0-.309-.1,1.459,1.459,0,0,0-.516.125l-.133-.273,2.133-.875Zm5.484,3.742A3.171,3.171,0,0,1,52.82,7.867a3.79,3.79,0,0,1,.836,2.422,4.561,4.561,0,0,1-.461,1.945,3.274,3.274,0,0,1-3.07,1.984,3.032,3.032,0,0,1-2.57-1.289,3.994,3.994,0,0,1-.8-2.437,4.325,4.325,0,0,1,.488-1.957A3.335,3.335,0,0,1,48.523,7.1,3.3,3.3,0,0,1,50.211,6.633Zm-.242.508a1.629,1.629,0,0,0-.832.246,1.725,1.725,0,0,0-.676.863A4.154,4.154,0,0,0,48.2,9.836a5.525,5.525,0,0,0,.621,2.7,1.849,1.849,0,0,0,1.637,1.133,1.525,1.525,0,0,0,1.25-.625,3.553,3.553,0,0,0,.492-2.148,4.9,4.9,0,0,0-.82-3A1.69,1.69,0,0,0,49.969,7.141Zm13.8,6.055a3.614,3.614,0,0,1-1.023.785,2.474,2.474,0,0,1-1.078.238,2.668,2.668,0,0,1-2.047-.98,3.642,3.642,0,0,1-.875-2.52A4.555,4.555,0,0,1,59.711,7.9,3,3,0,0,1,62.2,6.625a2.147,2.147,0,0,1,1.563.6V5.906A10.8,10.8,0,0,0,63.707,4.4a.657.657,0,0,0-.184-.383.479.479,0,0,0-.312-.1,1.647,1.647,0,0,0-.539.125l-.1-.273L64.7,2.891h.352v8.273a11.069,11.069,0,0,0,.059,1.535.681.681,0,0,0,.188.387.451.451,0,0,0,.3.109,1.7,1.7,0,0,0,.563-.133l.086.273-2.125.883h-.359Zm0-.547V8.961a2.492,2.492,0,0,0-.281-.969,1.622,1.622,0,0,0-.621-.66,1.508,1.508,0,0,0-.754-.223,1.6,1.6,0,0,0-1.227.617,3.507,3.507,0,0,0-.711,2.375,3.731,3.731,0,0,0,.688,2.418,1.971,1.971,0,0,0,1.531.84A1.9,1.9,0,0,0,63.766,12.648Zm4.148-3.109a3.676,3.676,0,0,0,.773,2.5,2.359,2.359,0,0,0,1.836.906,1.991,1.991,0,0,0,1.223-.387,2.854,2.854,0,0,0,.871-1.324l.242.156a3.725,3.725,0,0,1-.953,1.949,2.545,2.545,0,0,1-1.977.879,2.886,2.886,0,0,1-2.207-1,3.846,3.846,0,0,1-.918-2.7,4.081,4.081,0,0,1,.941-2.863,3.07,3.07,0,0,1,2.363-1.027,2.642,2.642,0,0,1,1.977.793,2.907,2.907,0,0,1,.773,2.121Zm0-.453h3.313a3.062,3.062,0,0,0-.164-.969,1.551,1.551,0,0,0-.582-.687,1.467,1.467,0,0,0-.809-.25,1.612,1.612,0,0,0-1.16.5A2.187,2.187,0,0,0,67.914,9.086Zm11.719-6.2a.787.787,0,0,1,.789.789.774.774,0,0,1-.23.563.754.754,0,0,1-.559.234.8.8,0,0,1-.8-.8.761.761,0,0,1,.23-.559A.77.77,0,0,1,79.633,2.891Zm.648,3.742v5.75a2.634,2.634,0,0,0,.1.895.686.686,0,0,0,.289.332,1.547,1.547,0,0,0,.7.109V14H77.891v-.281a1.618,1.618,0,0,0,.7-.1.7.7,0,0,0,.285-.336,2.525,2.525,0,0,0,.105-.9V9.625a9.753,9.753,0,0,0-.07-1.508.613.613,0,0,0-.172-.348.485.485,0,0,0-.32-.1,1.564,1.564,0,0,0-.531.117l-.109-.281,2.156-.875Zm4.063,1.516a3.378,3.378,0,0,1,2.4-1.516,1.722,1.722,0,0,1,1.008.293,1.963,1.963,0,0,1,.672.965,4.463,4.463,0,0,1,.172,1.438v3.055a2.574,2.574,0,0,0,.109.922.642.642,0,0,0,.277.3,1.572,1.572,0,0,0,.707.109V14H86.148v-.281H86.3a1.191,1.191,0,0,0,.7-.152.8.8,0,0,0,.277-.449,4.564,4.564,0,0,0,.031-.734V9.453a2.975,2.975,0,0,0-.254-1.418.907.907,0,0,0-.855-.441,2.576,2.576,0,0,0-1.852,1.016v3.773a2.7,2.7,0,0,0,.086.9.723.723,0,0,0,.3.332,1.862,1.862,0,0,0,.777.105V14H81.969v-.281h.156a.841.841,0,0,0,.738-.277,2.024,2.024,0,0,0,.191-1.059V9.727A11.545,11.545,0,0,0,83,8.156a.673.673,0,0,0-.18-.383.488.488,0,0,0-.324-.1,1.5,1.5,0,0,0-.523.117l-.117-.281,2.156-.875h.336Zm11.992,3.133A3.876,3.876,0,0,1,95.2,13.457a2.724,2.724,0,0,1-1.867.762A2.759,2.759,0,0,1,91.211,13.2,4.022,4.022,0,0,1,90.3,10.43a3.814,3.814,0,0,1,1-2.742,3.21,3.21,0,0,1,2.41-1.055,2.642,2.642,0,0,1,1.734.559,1.545,1.545,0,0,1,.68,1.16.636.636,0,0,1-.191.48.742.742,0,0,1-.535.184.832.832,0,0,1-.7-.3,1.234,1.234,0,0,1-.176-.625,1.024,1.024,0,0,0-.316-.7,1.128,1.128,0,0,0-.758-.234,1.55,1.55,0,0,0-1.258.578,3.075,3.075,0,0,0-.633,2.023A4.1,4.1,0,0,0,92.2,12.02a1.931,1.931,0,0,0,1.7.98,2.054,2.054,0,0,0,1.375-.523,3.533,3.533,0,0,0,.836-1.3ZM99.82,2.891v9.492a2.6,2.6,0,0,0,.1.891.692.692,0,0,0,.3.332,1.729,1.729,0,0,0,.758.113V14H97.469v-.281a1.516,1.516,0,0,0,.672-.1.677.677,0,0,0,.281-.336,2.616,2.616,0,0,0,.1-.9v-6.5a11.265,11.265,0,0,0-.055-1.488.651.651,0,0,0-.176-.379.464.464,0,0,0-.309-.1,1.459,1.459,0,0,0-.516.125l-.133-.273,2.133-.875Zm8.258,3.953V11.18a10.885,10.885,0,0,0,.059,1.52.681.681,0,0,0,.188.387.451.451,0,0,0,.3.109,1.39,1.39,0,0,0,.547-.133l.109.273-2.141.883h-.352V12.7a6.52,6.52,0,0,1-1.406,1.258,2.148,2.148,0,0,1-1.023.258,1.635,1.635,0,0,1-1.043-.348,1.8,1.8,0,0,1-.613-.895,5.407,5.407,0,0,1-.172-1.547v-3.2a1.575,1.575,0,0,0-.109-.7.728.728,0,0,0-.324-.3,1.9,1.9,0,0,0-.777-.1V6.844h2.508v4.789a1.789,1.789,0,0,0,.348,1.313,1.212,1.212,0,0,0,.84.313,1.751,1.751,0,0,0,.762-.211,4.123,4.123,0,0,0,1.012-.8V8.188a1.148,1.148,0,0,0-.223-.824,1.443,1.443,0,0,0-.926-.23V6.844Zm6.352-.211V9.07h-.258a3.167,3.167,0,0,0-.762-1.562,1.713,1.713,0,0,0-1.184-.414,1.306,1.306,0,0,0-.883.289.839.839,0,0,0-.336.641,1.163,1.163,0,0,0,.25.75,2.78,2.78,0,0,0,.984.68l1.141.555a2.318,2.318,0,0,1,1.586,2.039,1.926,1.926,0,0,1-.738,1.574,2.56,2.56,0,0,1-1.652.6,5.683,5.683,0,0,1-1.5-.234,1.525,1.525,0,0,0-.422-.078.311.311,0,0,0-.281.2h-.258V11.555h.258a2.908,2.908,0,0,0,.836,1.648,2.017,2.017,0,0,0,1.383.555,1.238,1.238,0,0,0,.879-.316,1,1,0,0,0,.34-.762,1.212,1.212,0,0,0-.379-.906,6.618,6.618,0,0,0-1.512-.93,4.479,4.479,0,0,1-1.484-1.016,1.76,1.76,0,0,1-.352-1.125,1.984,1.984,0,0,1,.605-1.477,2.142,2.142,0,0,1,1.566-.594,3.681,3.681,0,0,1,1.023.18,2.417,2.417,0,0,0,.531.117.311.311,0,0,0,.2-.055.75.75,0,0,0,.164-.242Zm3.422-3.742a.787.787,0,0,1,.789.789.774.774,0,0,1-.23.563.754.754,0,0,1-.559.234.8.8,0,0,1-.8-.8.761.761,0,0,1,.23-.559A.77.77,0,0,1,117.852,2.891Zm.648,3.742v5.75a2.634,2.634,0,0,0,.1.895.686.686,0,0,0,.289.332,1.547,1.547,0,0,0,.7.109V14h-3.477v-.281a1.618,1.618,0,0,0,.7-.1.7.7,0,0,0,.285-.336,2.525,2.525,0,0,0,.105-.9V9.625a9.753,9.753,0,0,0-.07-1.508.613.613,0,0,0-.172-.348.485.485,0,0,0-.32-.1,1.564,1.564,0,0,0-.531.117L116,7.508l2.156-.875Zm5.477,0a3.171,3.171,0,0,1,2.609,1.234,3.79,3.79,0,0,1,.836,2.422,4.561,4.561,0,0,1-.461,1.945,3.274,3.274,0,0,1-3.07,1.984,3.032,3.032,0,0,1-2.57-1.289,3.994,3.994,0,0,1-.8-2.437A4.325,4.325,0,0,1,121,8.535,3.335,3.335,0,0,1,122.289,7.1,3.3,3.3,0,0,1,123.977,6.633Zm-.242.508a1.629,1.629,0,0,0-.832.246,1.725,1.725,0,0,0-.676.863,4.154,4.154,0,0,0-.258,1.586,5.525,5.525,0,0,0,.621,2.7,1.849,1.849,0,0,0,1.637,1.133,1.525,1.525,0,0,0,1.25-.625,3.553,3.553,0,0,0,.492-2.148,4.9,4.9,0,0,0-.82-3A1.69,1.69,0,0,0,123.734,7.141Zm1.891-4-2.3,2.7h-.266l.82-2.7Zm4.938,5.008a3.378,3.378,0,0,1,2.4-1.516,1.722,1.722,0,0,1,1.008.293,1.963,1.963,0,0,1,.672.965,4.463,4.463,0,0,1,.172,1.438v3.055a2.574,2.574,0,0,0,.109.922.642.642,0,0,0,.277.3,1.572,1.572,0,0,0,.707.109V14h-3.539v-.281h.148a1.191,1.191,0,0,0,.7-.152.8.8,0,0,0,.277-.449,4.565,4.565,0,0,0,.031-.734V9.453a2.975,2.975,0,0,0-.254-1.418.907.907,0,0,0-.855-.441,2.576,2.576,0,0,0-1.852,1.016v3.773a2.7,2.7,0,0,0,.086.9.723.723,0,0,0,.3.332,1.862,1.862,0,0,0,.777.105V14h-3.539v-.281h.156a.841.841,0,0,0,.738-.277,2.023,2.023,0,0,0,.191-1.059V9.727a11.545,11.545,0,0,0-.059-1.57.673.673,0,0,0-.18-.383.488.488,0,0,0-.324-.1,1.5,1.5,0,0,0-.523.117l-.117-.281,2.156-.875h.336ZM145.531,13.2a3.614,3.614,0,0,1-1.023.785,2.474,2.474,0,0,1-1.078.238,2.668,2.668,0,0,1-2.047-.98,3.642,3.642,0,0,1-.875-2.52,4.555,4.555,0,0,1,.969-2.816,3,3,0,0,1,2.492-1.277,2.147,2.147,0,0,1,1.563.6V5.906a10.8,10.8,0,0,0-.059-1.508.657.657,0,0,0-.184-.383.479.479,0,0,0-.312-.1,1.646,1.646,0,0,0-.539.125l-.1-.273,2.133-.875h.352v8.273a11.069,11.069,0,0,0,.059,1.535.681.681,0,0,0,.188.387.451.451,0,0,0,.3.109,1.7,1.7,0,0,0,.563-.133l.086.273-2.125.883h-.359Zm0-.547V8.961a2.492,2.492,0,0,0-.281-.969,1.622,1.622,0,0,0-.621-.66,1.508,1.508,0,0,0-.754-.223,1.6,1.6,0,0,0-1.227.617,3.507,3.507,0,0,0-.711,2.375,3.731,3.731,0,0,0,.688,2.418,1.971,1.971,0,0,0,1.531.84A1.9,1.9,0,0,0,145.531,12.648Zm4.148-3.109a3.676,3.676,0,0,0,.773,2.5,2.359,2.359,0,0,0,1.836.906,1.991,1.991,0,0,0,1.223-.387,2.854,2.854,0,0,0,.871-1.324l.242.156a3.725,3.725,0,0,1-.953,1.949,2.545,2.545,0,0,1-1.977.879,2.886,2.886,0,0,1-2.207-1,3.846,3.846,0,0,1-.918-2.7,4.081,4.081,0,0,1,.941-2.863,3.07,3.07,0,0,1,2.363-1.027,2.642,2.642,0,0,1,1.977.793,2.907,2.907,0,0,1,.773,2.121Zm0-.453h3.313a3.063,3.063,0,0,0-.164-.969,1.551,1.551,0,0,0-.582-.687,1.467,1.467,0,0,0-.809-.25,1.612,1.612,0,0,0-1.16.5A2.187,2.187,0,0,0,149.68,9.086Zm15.977,2.2a3.876,3.876,0,0,1-1.133,2.176,2.724,2.724,0,0,1-1.867.762,2.759,2.759,0,0,1-2.125-1.023,4.022,4.022,0,0,1-.906-2.766,3.814,3.814,0,0,1,1-2.742,3.21,3.21,0,0,1,2.41-1.055,2.642,2.642,0,0,1,1.734.559,1.545,1.545,0,0,1,.68,1.16.635.635,0,0,1-.191.48.742.742,0,0,1-.535.184.832.832,0,0,1-.7-.3,1.234,1.234,0,0,1-.176-.625,1.024,1.024,0,0,0-.316-.7,1.128,1.128,0,0,0-.758-.234,1.55,1.55,0,0,0-1.258.578,3.075,3.075,0,0,0-.633,2.023,4.1,4.1,0,0,0,.629,2.262,1.931,1.931,0,0,0,1.7.98,2.054,2.054,0,0,0,1.375-.523,3.533,3.533,0,0,0,.836-1.3Zm4.523-4.648a3.171,3.171,0,0,1,2.609,1.234,3.79,3.79,0,0,1,.836,2.422,4.561,4.561,0,0,1-.461,1.945,3.274,3.274,0,0,1-3.07,1.984,3.032,3.032,0,0,1-2.57-1.289,3.994,3.994,0,0,1-.8-2.437,4.325,4.325,0,0,1,.488-1.957A3.335,3.335,0,0,1,168.492,7.1,3.3,3.3,0,0,1,170.18,6.633Zm-.242.508a1.629,1.629,0,0,0-.832.246,1.725,1.725,0,0,0-.676.863,4.154,4.154,0,0,0-.258,1.586,5.525,5.525,0,0,0,.621,2.7,1.849,1.849,0,0,0,1.637,1.133,1.525,1.525,0,0,0,1.25-.625,3.553,3.553,0,0,0,.492-2.148,4.9,4.9,0,0,0-.82-3A1.69,1.69,0,0,0,169.938,7.141Zm1.891-4-2.3,2.7h-.266l.82-2.7ZM179.734,13.2a3.614,3.614,0,0,1-1.023.785,2.474,2.474,0,0,1-1.078.238,2.668,2.668,0,0,1-2.047-.98,3.642,3.642,0,0,1-.875-2.52A4.555,4.555,0,0,1,175.68,7.9a3,3,0,0,1,2.492-1.277,2.147,2.147,0,0,1,1.563.6V5.906a10.8,10.8,0,0,0-.059-1.508.657.657,0,0,0-.184-.383.479.479,0,0,0-.312-.1,1.646,1.646,0,0,0-.539.125l-.1-.273,2.133-.875h.352v8.273a11.069,11.069,0,0,0,.059,1.535.681.681,0,0,0,.188.387.451.451,0,0,0,.3.109,1.7,1.7,0,0,0,.563-.133l.086.273-2.125.883h-.359Zm0-.547V8.961a2.492,2.492,0,0,0-.281-.969,1.622,1.622,0,0,0-.621-.66,1.508,1.508,0,0,0-.754-.223,1.6,1.6,0,0,0-1.227.617,3.507,3.507,0,0,0-.711,2.375,3.731,3.731,0,0,0,.688,2.418,1.971,1.971,0,0,0,1.531.84A1.9,1.9,0,0,0,179.734,12.648ZM184.5,2.891a.787.787,0,0,1,.789.789.774.774,0,0,1-.23.563.754.754,0,0,1-.559.234.8.8,0,0,1-.8-.8.761.761,0,0,1,.23-.559A.77.77,0,0,1,184.5,2.891Zm.648,3.742v5.75a2.634,2.634,0,0,0,.1.895.686.686,0,0,0,.289.332,1.547,1.547,0,0,0,.7.109V14h-3.477v-.281a1.618,1.618,0,0,0,.7-.1.7.7,0,0,0,.285-.336,2.525,2.525,0,0,0,.105-.9V9.625a9.753,9.753,0,0,0-.07-1.508.613.613,0,0,0-.172-.348.485.485,0,0,0-.32-.1,1.564,1.564,0,0,0-.531.117l-.109-.281,2.156-.875Zm3.891,4.758a2.351,2.351,0,0,1-1.359-2.164,2.442,2.442,0,0,1,.8-1.828,2.846,2.846,0,0,1,2.051-.766,3.122,3.122,0,0,1,1.773.5h1.516a1.993,1.993,0,0,1,.391.02.133.133,0,0,1,.078.066.479.479,0,0,1,.047.25.7.7,0,0,1-.039.281.161.161,0,0,1-.082.063,1.729,1.729,0,0,1-.395.023h-.93a2.272,2.272,0,0,1,.438,1.438,2.252,2.252,0,0,1-.766,1.711,2.9,2.9,0,0,1-2.055.711,3.994,3.994,0,0,1-1.086-.156,2.057,2.057,0,0,0-.465.52.831.831,0,0,0-.121.379.362.362,0,0,0,.129.258.945.945,0,0,0,.5.18q.219.031,1.094.055,1.609.039,2.086.109a1.961,1.961,0,0,1,1.16.539,1.472,1.472,0,0,1,.434,1.078,2.259,2.259,0,0,1-.828,1.656,4.466,4.466,0,0,1-3.18,1.141,4.553,4.553,0,0,1-2.547-.68q-.586-.391-.586-.812a.893.893,0,0,1,.086-.375,4.368,4.368,0,0,1,.547-.8q.055-.07.8-.844a2.466,2.466,0,0,1-.574-.434.64.64,0,0,1-.168-.434,1.286,1.286,0,0,1,.223-.641A5.129,5.129,0,0,1,189.039,11.391ZM190.4,7.008a1.22,1.22,0,0,0-.969.461,2.152,2.152,0,0,0-.391,1.414,3.043,3.043,0,0,0,.531,1.914,1.259,1.259,0,0,0,1.031.516,1.231,1.231,0,0,0,.977-.445,2.116,2.116,0,0,0,.383-1.4,3.129,3.129,0,0,0-.539-1.945A1.238,1.238,0,0,0,190.4,7.008ZM188.961,14a3.849,3.849,0,0,0-.555.742,1.338,1.338,0,0,0-.187.633.791.791,0,0,0,.453.656,4.316,4.316,0,0,0,2.258.484,3.492,3.492,0,0,0,2.074-.5,1.363,1.363,0,0,0,.668-1.059.592.592,0,0,0-.4-.578,5.219,5.219,0,0,0-1.609-.2A25.717,25.717,0,0,1,188.961,14Zm9.664-7.367a3.171,3.171,0,0,1,2.609,1.234,3.79,3.79,0,0,1,.836,2.422,4.561,4.561,0,0,1-.461,1.945,3.274,3.274,0,0,1-3.07,1.984,3.032,3.032,0,0,1-2.57-1.289,3.994,3.994,0,0,1-.8-2.437,4.325,4.325,0,0,1,.488-1.957A3.335,3.335,0,0,1,196.938,7.1,3.3,3.3,0,0,1,198.625,6.633Zm-.242.508a1.629,1.629,0,0,0-.832.246,1.725,1.725,0,0,0-.676.863,4.154,4.154,0,0,0-.258,1.586,5.525,5.525,0,0,0,.621,2.7,1.849,1.849,0,0,0,1.637,1.133,1.525,1.525,0,0,0,1.25-.625,3.553,3.553,0,0,0,.492-2.148,4.9,4.9,0,0,0-.82-3A1.69,1.69,0,0,0,198.383,7.141Zm13.8,6.055a3.614,3.614,0,0,1-1.023.785,2.474,2.474,0,0,1-1.078.238,2.668,2.668,0,0,1-2.047-.98,3.642,3.642,0,0,1-.875-2.52,4.555,4.555,0,0,1,.969-2.816,3,3,0,0,1,2.492-1.277,2.147,2.147,0,0,1,1.563.6V5.906a10.8,10.8,0,0,0-.059-1.508.657.657,0,0,0-.184-.383.479.479,0,0,0-.312-.1,1.646,1.646,0,0,0-.539.125l-.1-.273,2.133-.875h.352v8.273a11.069,11.069,0,0,0,.059,1.535.681.681,0,0,0,.188.387.451.451,0,0,0,.3.109,1.7,1.7,0,0,0,.563-.133l.086.273-2.125.883h-.359Zm0-.547V8.961a2.492,2.492,0,0,0-.281-.969,1.622,1.622,0,0,0-.621-.66,1.508,1.508,0,0,0-.754-.223,1.6,1.6,0,0,0-1.227.617,3.507,3.507,0,0,0-.711,2.375,3.731,3.731,0,0,0,.688,2.418,1.971,1.971,0,0,0,1.531.84A1.9,1.9,0,0,0,212.18,12.648Zm4.148-3.109a3.676,3.676,0,0,0,.773,2.5,2.359,2.359,0,0,0,1.836.906,1.991,1.991,0,0,0,1.223-.387,2.854,2.854,0,0,0,.871-1.324l.242.156a3.725,3.725,0,0,1-.953,1.949,2.545,2.545,0,0,1-1.977.879,2.886,2.886,0,0,1-2.207-1,3.846,3.846,0,0,1-.918-2.7,4.081,4.081,0,0,1,.941-2.863,3.07,3.07,0,0,1,2.363-1.027,2.642,2.642,0,0,1,1.977.793,2.907,2.907,0,0,1,.773,2.121Zm0-.453h3.313a3.063,3.063,0,0,0-.164-.969,1.551,1.551,0,0,0-.582-.687,1.467,1.467,0,0,0-.809-.25,1.612,1.612,0,0,0-1.16.5A2.187,2.187,0,0,0,216.328,9.086Zm10.523-2.453V9.07h-.258a3.167,3.167,0,0,0-.762-1.562,1.713,1.713,0,0,0-1.184-.414,1.306,1.306,0,0,0-.883.289.839.839,0,0,0-.336.641,1.163,1.163,0,0,0,.25.75,2.78,2.78,0,0,0,.984.68l1.141.555a2.318,2.318,0,0,1,1.586,2.039,1.926,1.926,0,0,1-.738,1.574,2.56,2.56,0,0,1-1.652.6,5.683,5.683,0,0,1-1.5-.234,1.525,1.525,0,0,0-.422-.078.311.311,0,0,0-.281.2h-.258V11.555h.258a2.908,2.908,0,0,0,.836,1.648,2.017,2.017,0,0,0,1.383.555,1.238,1.238,0,0,0,.879-.316,1,1,0,0,0,.34-.762,1.212,1.212,0,0,0-.379-.906,6.618,6.618,0,0,0-1.512-.93,4.479,4.479,0,0,1-1.484-1.016,1.76,1.76,0,0,1-.352-1.125,1.984,1.984,0,0,1,.605-1.477,2.142,2.142,0,0,1,1.566-.594,3.682,3.682,0,0,1,1.023.18,2.417,2.417,0,0,0,.531.117.311.311,0,0,0,.2-.055.75.75,0,0,0,.164-.242Zm6.656,6.563a3.614,3.614,0,0,1-1.023.785,2.474,2.474,0,0,1-1.078.238,2.668,2.668,0,0,1-2.047-.98,3.642,3.642,0,0,1-.875-2.52,4.555,4.555,0,0,1,.969-2.816,3,3,0,0,1,2.492-1.277,2.147,2.147,0,0,1,1.563.6V5.906a10.8,10.8,0,0,0-.059-1.508.657.657,0,0,0-.184-.383.479.479,0,0,0-.312-.1,1.646,1.646,0,0,0-.539.125l-.1-.273,2.133-.875h.352v8.273a11.069,11.069,0,0,0,.059,1.535.681.681,0,0,0,.188.387.451.451,0,0,0,.3.109,1.7,1.7,0,0,0,.563-.133l.086.273-2.125.883h-.359Zm0-.547V8.961a2.492,2.492,0,0,0-.281-.969,1.622,1.622,0,0,0-.621-.66,1.508,1.508,0,0,0-.754-.223,1.6,1.6,0,0,0-1.227.617,3.507,3.507,0,0,0-.711,2.375,3.731,3.731,0,0,0,.688,2.418,1.971,1.971,0,0,0,1.531.84A1.9,1.9,0,0,0,233.508,12.648Zm4.148-3.109a3.676,3.676,0,0,0,.773,2.5,2.359,2.359,0,0,0,1.836.906,1.991,1.991,0,0,0,1.223-.387,2.854,2.854,0,0,0,.871-1.324l.242.156a3.725,3.725,0,0,1-.953,1.949,2.545,2.545,0,0,1-1.977.879,2.886,2.886,0,0,1-2.207-1,3.846,3.846,0,0,1-.918-2.7,4.081,4.081,0,0,1,.941-2.863,3.07,3.07,0,0,1,2.363-1.027,2.642,2.642,0,0,1,1.977.793,2.907,2.907,0,0,1,.773,2.121Zm0-.453h3.313a3.063,3.063,0,0,0-.164-.969,1.551,1.551,0,0,0-.582-.687,1.467,1.467,0,0,0-.809-.25,1.612,1.612,0,0,0-1.16.5A2.187,2.187,0,0,0,237.656,9.086Zm13.953,3.883a11.8,11.8,0,0,1-1.383.984,2.113,2.113,0,0,1-.9.2,1.61,1.61,0,0,1-1.223-.508,1.864,1.864,0,0,1-.48-1.336,1.7,1.7,0,0,1,.234-.906,3.1,3.1,0,0,1,1.113-1,17.321,17.321,0,0,1,2.637-1.141V8.977a2.333,2.333,0,0,0-.34-1.469,1.227,1.227,0,0,0-.988-.4,1.11,1.11,0,0,0-.781.266.8.8,0,0,0-.3.609l.016.453a.779.779,0,0,1-.184.555.629.629,0,0,1-.48.2.608.608,0,0,1-.473-.2.8.8,0,0,1-.184-.555,1.6,1.6,0,0,1,.688-1.234,2.969,2.969,0,0,1,1.93-.562,3.347,3.347,0,0,1,1.563.32,1.473,1.473,0,0,1,.68.758,4.27,4.27,0,0,1,.141,1.375v2.43a11.127,11.127,0,0,0,.039,1.254.526.526,0,0,0,.129.309.306.306,0,0,0,.207.078.426.426,0,0,0,.219-.055,4.88,4.88,0,0,0,.633-.57v.438q-.875,1.172-1.672,1.172a.76.76,0,0,1-.609-.266A1.435,1.435,0,0,1,251.609,12.969Zm0-.508V9.734a15.428,15.428,0,0,0-1.523.664,2.631,2.631,0,0,0-.883.719,1.389,1.389,0,0,0-.266.82,1.339,1.339,0,0,0,.336.934,1.018,1.018,0,0,0,.773.371A2.834,2.834,0,0,0,251.609,12.461Zm5.141-5.828V8.242q.9-1.609,1.844-1.609a1,1,0,0,1,.711.262.8.8,0,0,1,.281.605.715.715,0,0,1-.2.516.649.649,0,0,1-.484.211,1.032,1.032,0,0,1-.613-.27,1.013,1.013,0,0,0-.5-.27.465.465,0,0,0-.3.156A3.759,3.759,0,0,0,256.75,8.9v3.43a2.123,2.123,0,0,0,.148.9.809.809,0,0,0,.359.352,1.579,1.579,0,0,0,.742.141V14h-3.664v-.281a1.521,1.521,0,0,0,.813-.172.667.667,0,0,0,.273-.4,4.018,4.018,0,0,0,.039-.758V9.617a11.524,11.524,0,0,0-.051-1.488.583.583,0,0,0-.187-.348.527.527,0,0,0-.34-.109,1.545,1.545,0,0,0-.547.117l-.078-.281,2.164-.875Zm9.313,4.648a3.876,3.876,0,0,1-1.133,2.176,2.724,2.724,0,0,1-1.867.762,2.759,2.759,0,0,1-2.125-1.023,4.022,4.022,0,0,1-.906-2.766,3.814,3.814,0,0,1,1-2.742,3.21,3.21,0,0,1,2.41-1.055,2.642,2.642,0,0,1,1.734.559,1.545,1.545,0,0,1,.68,1.16.636.636,0,0,1-.191.48.742.742,0,0,1-.535.184.832.832,0,0,1-.7-.3,1.235,1.235,0,0,1-.176-.625,1.024,1.024,0,0,0-.316-.7,1.128,1.128,0,0,0-.758-.234,1.55,1.55,0,0,0-1.258.578,3.075,3.075,0,0,0-.633,2.023,4.1,4.1,0,0,0,.629,2.262,1.931,1.931,0,0,0,1.7.98A2.054,2.054,0,0,0,265,12.477a3.533,3.533,0,0,0,.836-1.3Zm3.125-8.391V8.125A6.019,6.019,0,0,1,270.563,6.9a2.15,2.15,0,0,1,1.016-.27,1.668,1.668,0,0,1,1.047.336,1.984,1.984,0,0,1,.648,1.055,7.469,7.469,0,0,1,.148,1.828v2.531a2.646,2.646,0,0,0,.109.93.61.61,0,0,0,.266.3,1.5,1.5,0,0,0,.688.109V14h-3.516v-.281h.164a1.171,1.171,0,0,0,.7-.152.808.808,0,0,0,.273-.449,6.2,6.2,0,0,0,.023-.734V9.852A6.082,6.082,0,0,0,272,8.313a1.037,1.037,0,0,0-.387-.551,1.1,1.1,0,0,0-.641-.184,1.807,1.807,0,0,0-.8.2,3.8,3.8,0,0,0-.992.82v3.781a2.944,2.944,0,0,0,.082.914.667.667,0,0,0,.3.3,1.741,1.741,0,0,0,.77.121V14H266.8v-.281a1.583,1.583,0,0,0,.75-.148.558.558,0,0,0,.25-.3,2.7,2.7,0,0,0,.094-.891V5.906a10.8,10.8,0,0,0-.059-1.508.673.673,0,0,0-.18-.383.488.488,0,0,0-.324-.1,1.907,1.907,0,0,0-.531.125l-.109-.273,2.141-.875Zm7.719,0a.787.787,0,0,1,.789.789.774.774,0,0,1-.23.563.754.754,0,0,1-.559.234.8.8,0,0,1-.8-.8.761.761,0,0,1,.23-.559A.77.77,0,0,1,276.906,2.891Zm.648,3.742v5.75a2.634,2.634,0,0,0,.1.895.686.686,0,0,0,.289.332,1.547,1.547,0,0,0,.7.109V14h-3.477v-.281a1.618,1.618,0,0,0,.7-.1.7.7,0,0,0,.285-.336,2.525,2.525,0,0,0,.105-.9V9.625a9.753,9.753,0,0,0-.07-1.508.613.613,0,0,0-.172-.348.485.485,0,0,0-.32-.1,1.564,1.564,0,0,0-.531.117l-.109-.281,2.156-.875Zm1.609.211h3.367v.289h-.219a.66.66,0,0,0-.465.148.517.517,0,0,0-.16.4,1.667,1.667,0,0,0,.164.648l1.664,3.953,1.672-4.1a1.949,1.949,0,0,0,.18-.664.26.26,0,0,0-.062-.18.431.431,0,0,0-.219-.16,2.134,2.134,0,0,0-.539-.043V6.844h2.336v.289a1.014,1.014,0,0,0-.562.164,2,2,0,0,0-.492.781l-2.539,6.141h-.32L280.414,8.18a2.331,2.331,0,0,0-.328-.605,1.294,1.294,0,0,0-.4-.309,1.956,1.956,0,0,0-.523-.133Zm11.867-.211a3.171,3.171,0,0,1,2.609,1.234,3.79,3.79,0,0,1,.836,2.422,4.561,4.561,0,0,1-.461,1.945,3.274,3.274,0,0,1-3.07,1.984,3.032,3.032,0,0,1-2.57-1.289,3.994,3.994,0,0,1-.8-2.437,4.325,4.325,0,0,1,.488-1.957A3.335,3.335,0,0,1,289.344,7.1,3.3,3.3,0,0,1,291.031,6.633Zm-.242.508a1.629,1.629,0,0,0-.832.246,1.725,1.725,0,0,0-.676.863,4.154,4.154,0,0,0-.258,1.586,5.525,5.525,0,0,0,.621,2.7,1.849,1.849,0,0,0,1.637,1.133,1.525,1.525,0,0,0,1.25-.625,3.553,3.553,0,0,0,.492-2.148,4.9,4.9,0,0,0-.82-3A1.69,1.69,0,0,0,290.789,7.141Zm9.367-.508V9.07H299.9a3.167,3.167,0,0,0-.762-1.562,1.713,1.713,0,0,0-1.184-.414,1.306,1.306,0,0,0-.883.289.838.838,0,0,0-.336.641,1.163,1.163,0,0,0,.25.75,2.78,2.78,0,0,0,.984.68l1.141.555a2.318,2.318,0,0,1,1.586,2.039,1.926,1.926,0,0,1-.738,1.574,2.56,2.56,0,0,1-1.652.6,5.683,5.683,0,0,1-1.5-.234,1.525,1.525,0,0,0-.422-.078.311.311,0,0,0-.281.2h-.258V11.555h.258a2.908,2.908,0,0,0,.836,1.648,2.017,2.017,0,0,0,1.383.555,1.238,1.238,0,0,0,.879-.316,1,1,0,0,0,.34-.762,1.212,1.212,0,0,0-.379-.906,6.618,6.618,0,0,0-1.512-.93,4.479,4.479,0,0,1-1.484-1.016,1.76,1.76,0,0,1-.352-1.125,1.984,1.984,0,0,1,.605-1.477,2.142,2.142,0,0,1,1.566-.594,3.681,3.681,0,0,1,1.023.18,2.418,2.418,0,0,0,.531.117.311.311,0,0,0,.2-.055.75.75,0,0,0,.164-.242Zm11.68,4.648a3.876,3.876,0,0,1-1.133,2.176,2.724,2.724,0,0,1-1.867.762,2.759,2.759,0,0,1-2.125-1.023,4.022,4.022,0,0,1-.906-2.766,3.814,3.814,0,0,1,1-2.742,3.21,3.21,0,0,1,2.41-1.055,2.642,2.642,0,0,1,1.734.559,1.545,1.545,0,0,1,.68,1.16.636.636,0,0,1-.191.48.742.742,0,0,1-.535.184.832.832,0,0,1-.7-.3,1.235,1.235,0,0,1-.176-.625,1.024,1.024,0,0,0-.316-.7,1.128,1.128,0,0,0-.758-.234,1.55,1.55,0,0,0-1.258.578,3.075,3.075,0,0,0-.633,2.023,4.1,4.1,0,0,0,.629,2.262,1.931,1.931,0,0,0,1.7.98,2.054,2.054,0,0,0,1.375-.523,3.533,3.533,0,0,0,.836-1.3Zm4.523-4.648a3.171,3.171,0,0,1,2.609,1.234,3.79,3.79,0,0,1,.836,2.422,4.561,4.561,0,0,1-.461,1.945,3.274,3.274,0,0,1-3.07,1.984,3.032,3.032,0,0,1-2.57-1.289,3.994,3.994,0,0,1-.8-2.437,4.325,4.325,0,0,1,.488-1.957A3.335,3.335,0,0,1,314.672,7.1,3.3,3.3,0,0,1,316.359,6.633Zm-.242.508a1.629,1.629,0,0,0-.832.246,1.725,1.725,0,0,0-.676.863,4.154,4.154,0,0,0-.258,1.586,5.525,5.525,0,0,0,.621,2.7,1.849,1.849,0,0,0,1.637,1.133,1.525,1.525,0,0,0,1.25-.625,3.553,3.553,0,0,0,.492-2.148,4.9,4.9,0,0,0-.82-3A1.69,1.69,0,0,0,316.117,7.141Zm6.828,1.008a3.378,3.378,0,0,1,2.4-1.516,1.722,1.722,0,0,1,1.008.293,1.962,1.962,0,0,1,.672.965,4.463,4.463,0,0,1,.172,1.438v3.055a2.574,2.574,0,0,0,.109.922.642.642,0,0,0,.277.3,1.572,1.572,0,0,0,.707.109V14H324.75v-.281h.148a1.191,1.191,0,0,0,.7-.152.8.8,0,0,0,.277-.449,4.563,4.563,0,0,0,.031-.734V9.453a2.975,2.975,0,0,0-.254-1.418.907.907,0,0,0-.855-.441,2.576,2.576,0,0,0-1.852,1.016v3.773a2.7,2.7,0,0,0,.086.9.723.723,0,0,0,.3.332,1.862,1.862,0,0,0,.777.105V14H320.57v-.281h.156a.841.841,0,0,0,.738-.277,2.024,2.024,0,0,0,.191-1.059V9.727a11.545,11.545,0,0,0-.059-1.57.673.673,0,0,0-.18-.383.488.488,0,0,0-.324-.1,1.5,1.5,0,0,0-.523.117l-.117-.281,2.156-.875h.336Zm11.117,1.391a3.676,3.676,0,0,0,.773,2.5,2.359,2.359,0,0,0,1.836.906,1.991,1.991,0,0,0,1.223-.387,2.854,2.854,0,0,0,.871-1.324l.242.156a3.725,3.725,0,0,1-.953,1.949,2.545,2.545,0,0,1-1.977.879,2.886,2.886,0,0,1-2.207-1,3.846,3.846,0,0,1-.918-2.7,4.081,4.081,0,0,1,.941-2.863,3.07,3.07,0,0,1,2.363-1.027,2.642,2.642,0,0,1,1.977.793,2.907,2.907,0,0,1,.773,2.121Zm0-.453h3.313a3.062,3.062,0,0,0-.164-.969,1.551,1.551,0,0,0-.582-.687,1.467,1.467,0,0,0-.809-.25,1.612,1.612,0,0,0-1.16.5A2.186,2.186,0,0,0,334.063,9.086Zm5.609-2.242h3.367v.289a.7.7,0,0,0-.449.109.36.36,0,0,0-.129.289,1.227,1.227,0,0,0,.273.578q.086.125.258.391l.508.813.586-.812a2.794,2.794,0,0,0,.563-.977.351.351,0,0,0-.133-.277.658.658,0,0,0-.43-.113V6.844h2.422v.289a1.319,1.319,0,0,0-.664.211A5.542,5.542,0,0,0,344.8,8.5l-.977,1.3,1.781,2.563a5.288,5.288,0,0,0,.938,1.137,1.4,1.4,0,0,0,.727.215V14h-3.375v-.281a.854.854,0,0,0,.547-.156.342.342,0,0,0,.148-.289,2.739,2.739,0,0,0-.5-.906l-1.047-1.531-1.148,1.531a3.01,3.01,0,0,0-.531.844.445.445,0,0,0,.176.34.847.847,0,0,0,.527.168V14h-2.336v-.281a1.056,1.056,0,0,0,.492-.2,7.155,7.155,0,0,0,1-1.156l1.5-1.992-1.359-1.969a4.435,4.435,0,0,0-.895-1.059,1.38,1.38,0,0,0-.793-.215Zm10.367-2.352V6.844h1.672v.547h-1.672v4.641a1.559,1.559,0,0,0,.2.938.633.633,0,0,0,.512.242.9.9,0,0,0,.5-.16,1.03,1.03,0,0,0,.375-.473h.3a2.451,2.451,0,0,1-.773,1.152,1.669,1.669,0,0,1-1.031.387,1.386,1.386,0,0,1-.7-.2,1.2,1.2,0,0,1-.508-.57,2.994,2.994,0,0,1-.164-1.145V7.391h-1.133V7.133a2.966,2.966,0,0,0,.879-.582,4.628,4.628,0,0,0,.8-.973,8.75,8.75,0,0,0,.5-1.086Zm3.57,5.047a3.676,3.676,0,0,0,.773,2.5,2.359,2.359,0,0,0,1.836.906,1.991,1.991,0,0,0,1.223-.387,2.854,2.854,0,0,0,.871-1.324l.242.156a3.725,3.725,0,0,1-.953,1.949,2.545,2.545,0,0,1-1.977.879,2.886,2.886,0,0,1-2.207-1,3.846,3.846,0,0,1-.918-2.7,4.081,4.081,0,0,1,.941-2.863A3.07,3.07,0,0,1,355.8,6.625a2.642,2.642,0,0,1,1.977.793,2.907,2.907,0,0,1,.773,2.121Zm0-.453h3.313a3.062,3.062,0,0,0-.164-.969,1.551,1.551,0,0,0-.582-.687,1.467,1.467,0,0,0-.809-.25,1.612,1.612,0,0,0-1.16.5A2.186,2.186,0,0,0,353.609,9.086Zm7.984-.937a3.378,3.378,0,0,1,2.4-1.516A1.722,1.722,0,0,1,365,6.926a1.962,1.962,0,0,1,.672.965,4.463,4.463,0,0,1,.172,1.438v3.055a2.574,2.574,0,0,0,.109.922.642.642,0,0,0,.277.3,1.572,1.572,0,0,0,.707.109V14H363.4v-.281h.148a1.191,1.191,0,0,0,.7-.152.8.8,0,0,0,.277-.449,4.563,4.563,0,0,0,.031-.734V9.453a2.975,2.975,0,0,0-.254-1.418.907.907,0,0,0-.855-.441,2.576,2.576,0,0,0-1.852,1.016v3.773a2.7,2.7,0,0,0,.086.9.723.723,0,0,0,.3.332,1.862,1.862,0,0,0,.777.105V14h-3.539v-.281h.156a.841.841,0,0,0,.738-.277,2.024,2.024,0,0,0,.191-1.059V9.727a11.545,11.545,0,0,0-.059-1.57.673.673,0,0,0-.18-.383.488.488,0,0,0-.324-.1,1.5,1.5,0,0,0-.523.117l-.117-.281,2.156-.875h.336Zm10.539-1.516V9.07h-.258a3.167,3.167,0,0,0-.762-1.562,1.713,1.713,0,0,0-1.184-.414,1.306,1.306,0,0,0-.883.289.838.838,0,0,0-.336.641,1.163,1.163,0,0,0,.25.75,2.78,2.78,0,0,0,.984.68l1.141.555a2.318,2.318,0,0,1,1.586,2.039,1.926,1.926,0,0,1-.738,1.574,2.56,2.56,0,0,1-1.652.6,5.683,5.683,0,0,1-1.5-.234,1.525,1.525,0,0,0-.422-.078.311.311,0,0,0-.281.2h-.258V11.555h.258a2.908,2.908,0,0,0,.836,1.648,2.017,2.017,0,0,0,1.383.555,1.238,1.238,0,0,0,.879-.316,1,1,0,0,0,.34-.762,1.212,1.212,0,0,0-.379-.906,6.618,6.618,0,0,0-1.512-.93,4.479,4.479,0,0,1-1.484-1.016,1.76,1.76,0,0,1-.352-1.125,1.984,1.984,0,0,1,.605-1.477,2.142,2.142,0,0,1,1.566-.594,3.681,3.681,0,0,1,1.023.18,2.418,2.418,0,0,0,.531.117.311.311,0,0,0,.2-.055.75.75,0,0,0,.164-.242Zm3.422-3.742a.787.787,0,0,1,.789.789.774.774,0,0,1-.23.563.754.754,0,0,1-.559.234.8.8,0,0,1-.8-.8.761.761,0,0,1,.23-.559A.77.77,0,0,1,375.555,2.891Zm.648,3.742v5.75a2.634,2.634,0,0,0,.1.895.686.686,0,0,0,.289.332,1.547,1.547,0,0,0,.7.109V14h-3.477v-.281a1.618,1.618,0,0,0,.7-.1.7.7,0,0,0,.285-.336,2.525,2.525,0,0,0,.105-.9V9.625a9.753,9.753,0,0,0-.07-1.508.613.613,0,0,0-.172-.348.485.485,0,0,0-.32-.1,1.564,1.564,0,0,0-.531.117l-.109-.281,2.156-.875Zm5.477,0a3.171,3.171,0,0,1,2.609,1.234,3.79,3.79,0,0,1,.836,2.422,4.561,4.561,0,0,1-.461,1.945,3.274,3.274,0,0,1-3.07,1.984,3.032,3.032,0,0,1-2.57-1.289,3.994,3.994,0,0,1-.8-2.437,4.325,4.325,0,0,1,.488-1.957A3.335,3.335,0,0,1,379.992,7.1,3.3,3.3,0,0,1,381.68,6.633Zm-.242.508a1.629,1.629,0,0,0-.832.246,1.725,1.725,0,0,0-.676.863,4.154,4.154,0,0,0-.258,1.586,5.525,5.525,0,0,0,.621,2.7,1.849,1.849,0,0,0,1.637,1.133,1.525,1.525,0,0,0,1.25-.625,3.553,3.553,0,0,0,.492-2.148,4.9,4.9,0,0,0-.82-3A1.69,1.69,0,0,0,381.438,7.141Zm1.891-4-2.3,2.7h-.266l.82-2.7Zm4.938,5.008a3.378,3.378,0,0,1,2.4-1.516,1.722,1.722,0,0,1,1.008.293,1.962,1.962,0,0,1,.672.965,4.463,4.463,0,0,1,.172,1.438v3.055a2.574,2.574,0,0,0,.109.922.642.642,0,0,0,.277.3,1.572,1.572,0,0,0,.707.109V14H390.07v-.281h.148a1.191,1.191,0,0,0,.7-.152.8.8,0,0,0,.277-.449,4.563,4.563,0,0,0,.031-.734V9.453a2.975,2.975,0,0,0-.254-1.418.907.907,0,0,0-.855-.441,2.576,2.576,0,0,0-1.852,1.016v3.773a2.7,2.7,0,0,0,.086.9.723.723,0,0,0,.3.332,1.862,1.862,0,0,0,.777.105V14h-3.539v-.281h.156a.841.841,0,0,0,.738-.277,2.024,2.024,0,0,0,.191-1.059V9.727a11.545,11.545,0,0,0-.059-1.57.673.673,0,0,0-.18-.383.488.488,0,0,0-.324-.1,1.5,1.5,0,0,0-.523.117l-.117-.281,2.156-.875h.336Zm11.414,4.336a.832.832,0,0,1,.617.254.869.869,0,1,1-1.484.613.832.832,0,0,1,.254-.617A.842.842,0,0,1,399.68,12.484Zm4.313-9.6a.8.8,0,0,1,.8.8.767.767,0,0,1-.234.563.776.776,0,0,1-.57.234.8.8,0,0,1-.8-.8.776.776,0,0,1,.234-.57A.767.767,0,0,1,403.992,2.883Zm.672,3.75v7.2a4.047,4.047,0,0,1-.781,2.727,2.575,2.575,0,0,1-2.031.891A1.757,1.757,0,0,1,400.8,17.2a.7.7,0,0,1-.344-.531.646.646,0,0,1,.191-.469.609.609,0,0,1,.449-.2.95.95,0,0,1,.414.1,2.548,2.548,0,0,1,.512.395,1.068,1.068,0,0,0,.637.34.582.582,0,0,0,.367-.145.878.878,0,0,0,.266-.484,7.678,7.678,0,0,0,.086-1.473V9.641a9.737,9.737,0,0,0-.07-1.516.622.622,0,0,0-.172-.355.485.485,0,0,0-.32-.1,1.564,1.564,0,0,0-.531.117l-.109-.281,2.156-.875Zm6.586,0V9.07h-.258a3.167,3.167,0,0,0-.762-1.562,1.713,1.713,0,0,0-1.184-.414,1.306,1.306,0,0,0-.883.289.838.838,0,0,0-.336.641,1.163,1.163,0,0,0,.25.75,2.78,2.78,0,0,0,.984.68l1.141.555a2.318,2.318,0,0,1,1.586,2.039,1.926,1.926,0,0,1-.738,1.574,2.56,2.56,0,0,1-1.652.6,5.683,5.683,0,0,1-1.5-.234,1.525,1.525,0,0,0-.422-.078.311.311,0,0,0-.281.2h-.258V11.555h.258a2.908,2.908,0,0,0,.836,1.648,2.017,2.017,0,0,0,1.383.555,1.238,1.238,0,0,0,.879-.316,1,1,0,0,0,.34-.762,1.212,1.212,0,0,0-.379-.906,6.618,6.618,0,0,0-1.512-.93,4.479,4.479,0,0,1-1.484-1.016,1.76,1.76,0,0,1-.352-1.125,1.984,1.984,0,0,1,.605-1.477,2.142,2.142,0,0,1,1.566-.594,3.681,3.681,0,0,1,1.023.18,2.418,2.418,0,0,0,.531.117.311.311,0,0,0,.2-.055.75.75,0,0,0,.164-.242Zm6.8,2.906a3.676,3.676,0,0,0,.773,2.5,2.359,2.359,0,0,0,1.836.906,1.991,1.991,0,0,0,1.223-.387,2.854,2.854,0,0,0,.871-1.324l.242.156a3.725,3.725,0,0,1-.953,1.949,2.545,2.545,0,0,1-1.977.879,2.886,2.886,0,0,1-2.207-1,3.846,3.846,0,0,1-.918-2.7,4.081,4.081,0,0,1,.941-2.863,3.07,3.07,0,0,1,2.363-1.027,2.642,2.642,0,0,1,1.977.793A2.907,2.907,0,0,1,423,9.539Zm0-.453h3.313a3.062,3.062,0,0,0-.164-.969,1.551,1.551,0,0,0-.582-.687,1.467,1.467,0,0,0-.809-.25,1.612,1.612,0,0,0-1.16.5A2.186,2.186,0,0,0,418.055,9.086Zm7.984-.937a3.378,3.378,0,0,1,2.4-1.516,1.722,1.722,0,0,1,1.008.293,1.962,1.962,0,0,1,.672.965,4.463,4.463,0,0,1,.172,1.438v3.055a2.574,2.574,0,0,0,.109.922.642.642,0,0,0,.277.3,1.572,1.572,0,0,0,.707.109V14h-3.539v-.281h.148a1.191,1.191,0,0,0,.7-.152.8.8,0,0,0,.277-.449,4.563,4.563,0,0,0,.031-.734V9.453a2.975,2.975,0,0,0-.254-1.418.907.907,0,0,0-.855-.441,2.576,2.576,0,0,0-1.852,1.016v3.773a2.7,2.7,0,0,0,.086.9.723.723,0,0,0,.3.332,1.862,1.862,0,0,0,.777.105V14h-3.539v-.281h.156a.841.841,0,0,0,.738-.277,2.024,2.024,0,0,0,.191-1.059V9.727a11.545,11.545,0,0,0-.059-1.57.673.673,0,0,0-.18-.383.488.488,0,0,0-.324-.1,1.5,1.5,0,0,0-.523.117l-.117-.281,2.156-.875h.336Zm12.008-1.516V8.242q.9-1.609,1.844-1.609a1,1,0,0,1,.711.262.8.8,0,0,1,.281.605.715.715,0,0,1-.2.516.649.649,0,0,1-.484.211,1.032,1.032,0,0,1-.613-.27,1.013,1.013,0,0,0-.5-.27.465.465,0,0,0-.3.156,3.759,3.759,0,0,0-.727,1.055v3.43a2.123,2.123,0,0,0,.148.9.809.809,0,0,0,.359.352,1.579,1.579,0,0,0,.742.141V14h-3.664v-.281a1.521,1.521,0,0,0,.813-.172.667.667,0,0,0,.273-.4,4.02,4.02,0,0,0,.039-.758V9.617a11.527,11.527,0,0,0-.051-1.488.583.583,0,0,0-.187-.348.527.527,0,0,0-.34-.109,1.545,1.545,0,0,0-.547.117l-.078-.281,2.164-.875Zm9.508.211V11.18a10.885,10.885,0,0,0,.059,1.52.681.681,0,0,0,.188.387.451.451,0,0,0,.3.109,1.39,1.39,0,0,0,.547-.133l.109.273-2.141.883h-.352V12.7a6.52,6.52,0,0,1-1.406,1.258,2.148,2.148,0,0,1-1.023.258,1.635,1.635,0,0,1-1.043-.348,1.8,1.8,0,0,1-.613-.895,5.407,5.407,0,0,1-.172-1.547v-3.2a1.575,1.575,0,0,0-.109-.7.728.728,0,0,0-.324-.3,1.9,1.9,0,0,0-.777-.1V6.844H443.3v4.789a1.789,1.789,0,0,0,.348,1.313,1.212,1.212,0,0,0,.84.313,1.75,1.75,0,0,0,.762-.211,4.123,4.123,0,0,0,1.012-.8V8.188a1.148,1.148,0,0,0-.223-.824,1.443,1.443,0,0,0-.926-.23V6.844Zm3.8-2.352V6.844h1.672v.547h-1.672v4.641a1.559,1.559,0,0,0,.2.938.633.633,0,0,0,.512.242.9.9,0,0,0,.5-.16,1.03,1.03,0,0,0,.375-.473h.3a2.451,2.451,0,0,1-.773,1.152,1.669,1.669,0,0,1-1.031.387,1.386,1.386,0,0,1-.7-.2,1.2,1.2,0,0,1-.508-.57,2.994,2.994,0,0,1-.164-1.145V7.391h-1.133V7.133a2.966,2.966,0,0,0,.879-.582,4.628,4.628,0,0,0,.8-.973,8.75,8.75,0,0,0,.5-1.086Zm6.422,8.477a11.8,11.8,0,0,1-1.383.984,2.113,2.113,0,0,1-.9.2,1.61,1.61,0,0,1-1.223-.508,1.864,1.864,0,0,1-.48-1.336,1.7,1.7,0,0,1,.234-.906,3.1,3.1,0,0,1,1.113-1,17.322,17.322,0,0,1,2.637-1.141V8.977a2.333,2.333,0,0,0-.34-1.469,1.227,1.227,0,0,0-.988-.4,1.11,1.11,0,0,0-.781.266.8.8,0,0,0-.3.609l.016.453a.779.779,0,0,1-.184.555.629.629,0,0,1-.48.2.608.608,0,0,1-.473-.2.8.8,0,0,1-.184-.555,1.6,1.6,0,0,1,.688-1.234,2.969,2.969,0,0,1,1.93-.562,3.347,3.347,0,0,1,1.563.32,1.473,1.473,0,0,1,.68.758,4.27,4.27,0,0,1,.141,1.375v2.43a11.131,11.131,0,0,0,.039,1.254.526.526,0,0,0,.129.309.306.306,0,0,0,.207.078.426.426,0,0,0,.219-.055,4.88,4.88,0,0,0,.633-.57v.438q-.875,1.172-1.672,1.172a.76.76,0,0,1-.609-.266A1.435,1.435,0,0,1,457.781,12.969Zm0-.508V9.734a15.424,15.424,0,0,0-1.523.664,2.631,2.631,0,0,0-.883.719,1.389,1.389,0,0,0-.266.82,1.338,1.338,0,0,0,.336.934,1.018,1.018,0,0,0,.773.371A2.834,2.834,0,0,0,457.781,12.461Zm7.672-5.828V9.07H465.2a3.167,3.167,0,0,0-.762-1.562,1.713,1.713,0,0,0-1.184-.414,1.306,1.306,0,0,0-.883.289.838.838,0,0,0-.336.641,1.163,1.163,0,0,0,.25.75,2.78,2.78,0,0,0,.984.68l1.141.555a2.318,2.318,0,0,1,1.586,2.039,1.926,1.926,0,0,1-.738,1.574,2.56,2.56,0,0,1-1.652.6,5.683,5.683,0,0,1-1.5-.234,1.525,1.525,0,0,0-.422-.078.311.311,0,0,0-.281.2h-.258V11.555h.258a2.908,2.908,0,0,0,.836,1.648,2.017,2.017,0,0,0,1.383.555,1.238,1.238,0,0,0,.879-.316,1,1,0,0,0,.34-.762,1.212,1.212,0,0,0-.379-.906,6.618,6.618,0,0,0-1.512-.93,4.479,4.479,0,0,1-1.484-1.016,1.76,1.76,0,0,1-.352-1.125,1.984,1.984,0,0,1,.605-1.477,2.142,2.142,0,0,1,1.566-.594,3.681,3.681,0,0,1,1.023.18,2.418,2.418,0,0,0,.531.117.311.311,0,0,0,.2-.055.75.75,0,0,0,.164-.242ZM5.555,37.2a3.614,3.614,0,0,1-1.023.785,2.474,2.474,0,0,1-1.078.238,2.668,2.668,0,0,1-2.047-.98,3.642,3.642,0,0,1-.875-2.52A4.555,4.555,0,0,1,1.5,31.9a3,3,0,0,1,2.492-1.277,2.147,2.147,0,0,1,1.563.6v-1.32A10.8,10.8,0,0,0,5.5,28.4a.657.657,0,0,0-.184-.383.479.479,0,0,0-.312-.1,1.646,1.646,0,0,0-.539.125l-.1-.273,2.133-.875h.352v8.273A11.069,11.069,0,0,0,6.9,36.7a.681.681,0,0,0,.188.387.451.451,0,0,0,.3.109,1.7,1.7,0,0,0,.563-.133l.086.273-2.125.883H5.555Zm0-.547V32.961a2.492,2.492,0,0,0-.281-.969,1.622,1.622,0,0,0-.621-.66,1.508,1.508,0,0,0-.754-.223,1.6,1.6,0,0,0-1.227.617A3.507,3.507,0,0,0,1.961,34.1a3.731,3.731,0,0,0,.688,2.418,1.971,1.971,0,0,0,1.531.84A1.9,1.9,0,0,0,5.555,36.648Zm4.766-9.758a.787.787,0,0,1,.789.789.774.774,0,0,1-.23.563.754.754,0,0,1-.559.234.793.793,0,1,1,0-1.586Zm.648,3.742v5.75a2.634,2.634,0,0,0,.1.895.686.686,0,0,0,.289.332,1.547,1.547,0,0,0,.7.109V38H8.578v-.281a1.618,1.618,0,0,0,.7-.1.7.7,0,0,0,.285-.336,2.525,2.525,0,0,0,.105-.9V33.625a9.753,9.753,0,0,0-.07-1.508.613.613,0,0,0-.172-.348.485.485,0,0,0-.32-.1,1.564,1.564,0,0,0-.531.117l-.109-.281,2.156-.875Zm4.773.773v4.7a2.3,2.3,0,0,0,.219,1.266.959.959,0,0,0,.773.344h.648V38H13.109v-.281h.32a1.079,1.079,0,0,0,.57-.156.813.813,0,0,0,.355-.422,3.53,3.53,0,0,0,.1-1.031v-4.7H13.063v-.562h1.391v-.469a4.3,4.3,0,0,1,.344-1.812,2.814,2.814,0,0,1,1.051-1.2,2.865,2.865,0,0,1,1.59-.457,2.411,2.411,0,0,1,1.508.531,1,1,0,0,1,.453.789.625.625,0,0,1-.2.441.607.607,0,0,1-.437.207.7.7,0,0,1-.379-.129,2.061,2.061,0,0,1-.488-.555,1.963,1.963,0,0,0-.531-.574,1.011,1.011,0,0,0-.539-.148.973.973,0,0,0-.609.191,1.072,1.072,0,0,0-.359.594,11.147,11.147,0,0,0-.109,2.074v.516h1.844v.563Zm3.734,2.133a3.676,3.676,0,0,0,.773,2.5,2.359,2.359,0,0,0,1.836.906,1.991,1.991,0,0,0,1.223-.387,2.854,2.854,0,0,0,.871-1.324l.242.156a3.725,3.725,0,0,1-.953,1.949,2.545,2.545,0,0,1-1.977.879,2.886,2.886,0,0,1-2.207-1,3.846,3.846,0,0,1-.918-2.7,4.081,4.081,0,0,1,.941-2.863,3.07,3.07,0,0,1,2.363-1.027,2.642,2.642,0,0,1,1.977.793,2.907,2.907,0,0,1,.773,2.121Zm0-.453h3.313a3.062,3.062,0,0,0-.164-.969,1.551,1.551,0,0,0-.582-.687,1.467,1.467,0,0,0-.809-.25,1.612,1.612,0,0,0-1.16.5A2.187,2.187,0,0,0,19.477,33.086Zm7.992-2.453v1.609q.9-1.609,1.844-1.609a1,1,0,0,1,.711.262.8.8,0,0,1,.281.605.715.715,0,0,1-.2.516.649.649,0,0,1-.484.211,1.032,1.032,0,0,1-.613-.27,1.013,1.013,0,0,0-.5-.27.465.465,0,0,0-.3.156,3.759,3.759,0,0,0-.727,1.055v3.43a2.123,2.123,0,0,0,.148.9.809.809,0,0,0,.359.352,1.579,1.579,0,0,0,.742.141V38H25.055v-.281a1.521,1.521,0,0,0,.813-.172.667.667,0,0,0,.273-.4,4.019,4.019,0,0,0,.039-.758V33.617a11.526,11.526,0,0,0-.051-1.488.583.583,0,0,0-.187-.348.527.527,0,0,0-.34-.109,1.545,1.545,0,0,0-.547.117l-.078-.281,2.164-.875Zm4.438,2.906a3.676,3.676,0,0,0,.773,2.5,2.359,2.359,0,0,0,1.836.906,1.991,1.991,0,0,0,1.223-.387,2.854,2.854,0,0,0,.871-1.324l.242.156A3.725,3.725,0,0,1,35.9,37.34a2.545,2.545,0,0,1-1.977.879,2.886,2.886,0,0,1-2.207-1,3.846,3.846,0,0,1-.918-2.7,4.081,4.081,0,0,1,.941-2.863A3.07,3.07,0,0,1,34.1,30.625a2.642,2.642,0,0,1,1.977.793,2.907,2.907,0,0,1,.773,2.121Zm0-.453h3.313a3.062,3.062,0,0,0-.164-.969,1.551,1.551,0,0,0-.582-.687,1.467,1.467,0,0,0-.809-.25,1.612,1.612,0,0,0-1.16.5A2.187,2.187,0,0,0,31.906,33.086Zm7.984-.937a3.378,3.378,0,0,1,2.4-1.516,1.722,1.722,0,0,1,1.008.293,1.963,1.963,0,0,1,.672.965,4.463,4.463,0,0,1,.172,1.438v3.055a2.574,2.574,0,0,0,.109.922.642.642,0,0,0,.277.3,1.572,1.572,0,0,0,.707.109V38H41.7v-.281h.148a1.191,1.191,0,0,0,.7-.152.8.8,0,0,0,.277-.449,4.565,4.565,0,0,0,.031-.734v-2.93a2.975,2.975,0,0,0-.254-1.418.907.907,0,0,0-.855-.441,2.576,2.576,0,0,0-1.852,1.016v3.773a2.7,2.7,0,0,0,.086.9.723.723,0,0,0,.3.332,1.862,1.862,0,0,0,.777.105V38H37.516v-.281h.156a.841.841,0,0,0,.738-.277,2.023,2.023,0,0,0,.191-1.059V33.727a11.545,11.545,0,0,0-.059-1.57.673.673,0,0,0-.18-.383.488.488,0,0,0-.324-.1,1.5,1.5,0,0,0-.523.117l-.117-.281,2.156-.875h.336Zm7.992-3.656v2.352h1.672v.547H47.883v4.641a1.559,1.559,0,0,0,.2.938.633.633,0,0,0,.512.242.9.9,0,0,0,.5-.16,1.03,1.03,0,0,0,.375-.473h.3A2.451,2.451,0,0,1,49,37.73a1.669,1.669,0,0,1-1.031.387,1.386,1.386,0,0,1-.7-.2,1.2,1.2,0,0,1-.508-.57,2.994,2.994,0,0,1-.164-1.145V31.391H45.461v-.258a2.966,2.966,0,0,0,.879-.582,4.628,4.628,0,0,0,.8-.973,8.75,8.75,0,0,0,.5-1.086Zm3.57,5.047a3.676,3.676,0,0,0,.773,2.5,2.359,2.359,0,0,0,1.836.906,1.991,1.991,0,0,0,1.223-.387,2.854,2.854,0,0,0,.871-1.324l.242.156a3.725,3.725,0,0,1-.953,1.949,2.545,2.545,0,0,1-1.977.879,2.886,2.886,0,0,1-2.207-1,3.846,3.846,0,0,1-.918-2.7,4.081,4.081,0,0,1,.941-2.863,3.07,3.07,0,0,1,2.363-1.027,2.642,2.642,0,0,1,1.977.793,2.907,2.907,0,0,1,.773,2.121Zm0-.453h3.313a3.062,3.062,0,0,0-.164-.969,1.551,1.551,0,0,0-.582-.687,1.467,1.467,0,0,0-.809-.25,1.612,1.612,0,0,0-1.16.5A2.187,2.187,0,0,0,51.453,33.086Zm10.523-2.453V33.07h-.258a3.167,3.167,0,0,0-.762-1.562,1.713,1.713,0,0,0-1.184-.414,1.306,1.306,0,0,0-.883.289.839.839,0,0,0-.336.641,1.163,1.163,0,0,0,.25.75,2.78,2.78,0,0,0,.984.68l1.141.555a2.318,2.318,0,0,1,1.586,2.039,1.926,1.926,0,0,1-.738,1.574,2.56,2.56,0,0,1-1.652.6,5.683,5.683,0,0,1-1.5-.234,1.525,1.525,0,0,0-.422-.078.311.311,0,0,0-.281.2h-.258V35.555h.258a2.908,2.908,0,0,0,.836,1.648,2.017,2.017,0,0,0,1.383.555,1.238,1.238,0,0,0,.879-.316,1,1,0,0,0,.34-.762,1.212,1.212,0,0,0-.379-.906,6.618,6.618,0,0,0-1.512-.93,4.479,4.479,0,0,1-1.484-1.016,1.76,1.76,0,0,1-.352-1.125,1.984,1.984,0,0,1,.605-1.477,2.142,2.142,0,0,1,1.566-.594,3.682,3.682,0,0,1,1.023.18,2.417,2.417,0,0,0,.531.117.311.311,0,0,0,.2-.055.75.75,0,0,0,.164-.242Zm9.656,6.336a11.8,11.8,0,0,1-1.383.984,2.113,2.113,0,0,1-.9.2,1.61,1.61,0,0,1-1.223-.508,1.864,1.864,0,0,1-.48-1.336,1.7,1.7,0,0,1,.234-.906A3.1,3.1,0,0,1,69,34.4a17.322,17.322,0,0,1,2.637-1.141v-.281a2.333,2.333,0,0,0-.34-1.469,1.227,1.227,0,0,0-.988-.4,1.11,1.11,0,0,0-.781.266.8.8,0,0,0-.3.609l.016.453a.779.779,0,0,1-.184.555.629.629,0,0,1-.48.2.608.608,0,0,1-.473-.2.8.8,0,0,1-.184-.555,1.6,1.6,0,0,1,.688-1.234,2.969,2.969,0,0,1,1.93-.562,3.347,3.347,0,0,1,1.563.32,1.473,1.473,0,0,1,.68.758,4.27,4.27,0,0,1,.141,1.375v2.43a11.129,11.129,0,0,0,.039,1.254.526.526,0,0,0,.129.309.306.306,0,0,0,.207.078.426.426,0,0,0,.219-.055,4.88,4.88,0,0,0,.633-.57v.438q-.875,1.172-1.672,1.172a.76.76,0,0,1-.609-.266A1.435,1.435,0,0,1,71.633,36.969Zm0-.508V33.734a15.426,15.426,0,0,0-1.523.664,2.631,2.631,0,0,0-.883.719,1.389,1.389,0,0,0-.266.82,1.339,1.339,0,0,0,.336.934,1.018,1.018,0,0,0,.773.371A2.834,2.834,0,0,0,71.633,36.461Zm9.508-9.57v9.492a2.6,2.6,0,0,0,.1.891.692.692,0,0,0,.3.332,1.729,1.729,0,0,0,.758.113V38H78.789v-.281a1.516,1.516,0,0,0,.672-.1.677.677,0,0,0,.281-.336,2.616,2.616,0,0,0,.1-.9v-6.5a11.265,11.265,0,0,0-.055-1.488.651.651,0,0,0-.176-.379.464.464,0,0,0-.309-.1,1.459,1.459,0,0,0-.516.125l-.133-.273,2.133-.875ZM87.18,36.969a11.8,11.8,0,0,1-1.383.984,2.113,2.113,0,0,1-.9.2,1.61,1.61,0,0,1-1.223-.508A1.864,1.864,0,0,1,83.2,36.3a1.7,1.7,0,0,1,.234-.906,3.1,3.1,0,0,1,1.113-1,17.322,17.322,0,0,1,2.637-1.141v-.281a2.333,2.333,0,0,0-.34-1.469,1.227,1.227,0,0,0-.988-.4,1.11,1.11,0,0,0-.781.266.8.8,0,0,0-.3.609l.016.453a.779.779,0,0,1-.184.555.629.629,0,0,1-.48.2.608.608,0,0,1-.473-.2.8.8,0,0,1-.184-.555,1.6,1.6,0,0,1,.688-1.234,2.969,2.969,0,0,1,1.93-.562,3.347,3.347,0,0,1,1.563.32,1.473,1.473,0,0,1,.68.758,4.27,4.27,0,0,1,.141,1.375v2.43a11.129,11.129,0,0,0,.039,1.254.526.526,0,0,0,.129.309.306.306,0,0,0,.207.078.426.426,0,0,0,.219-.055,4.88,4.88,0,0,0,.633-.57v.438q-.875,1.172-1.672,1.172a.76.76,0,0,1-.609-.266A1.435,1.435,0,0,1,87.18,36.969Zm0-.508V33.734a15.426,15.426,0,0,0-1.523.664,2.631,2.631,0,0,0-.883.719,1.389,1.389,0,0,0-.266.82,1.339,1.339,0,0,0,.336.934,1.018,1.018,0,0,0,.773.371A2.834,2.834,0,0,0,87.18,36.461Zm12.1.734a3.614,3.614,0,0,1-1.023.785,2.474,2.474,0,0,1-1.078.238,2.668,2.668,0,0,1-2.047-.98,3.642,3.642,0,0,1-.875-2.52,4.555,4.555,0,0,1,.969-2.816,3,3,0,0,1,2.492-1.277,2.147,2.147,0,0,1,1.563.6v-1.32a10.8,10.8,0,0,0-.059-1.508.657.657,0,0,0-.184-.383.479.479,0,0,0-.312-.1,1.647,1.647,0,0,0-.539.125l-.1-.273,2.133-.875h.352v8.273a11.069,11.069,0,0,0,.059,1.535.681.681,0,0,0,.188.387.451.451,0,0,0,.3.109,1.7,1.7,0,0,0,.563-.133l.086.273-2.125.883h-.359Zm0-.547V32.961A2.492,2.492,0,0,0,99,31.992a1.622,1.622,0,0,0-.621-.66,1.508,1.508,0,0,0-.754-.223,1.6,1.6,0,0,0-1.227.617,3.507,3.507,0,0,0-.711,2.375,3.731,3.731,0,0,0,.688,2.418,1.971,1.971,0,0,0,1.531.84A1.9,1.9,0,0,0,99.281,36.648Zm4.148-3.109a3.676,3.676,0,0,0,.773,2.5,2.359,2.359,0,0,0,1.836.906,1.991,1.991,0,0,0,1.223-.387,2.854,2.854,0,0,0,.871-1.324l.242.156a3.725,3.725,0,0,1-.953,1.949,2.545,2.545,0,0,1-1.977.879,2.886,2.886,0,0,1-2.207-1,3.846,3.846,0,0,1-.918-2.7,4.081,4.081,0,0,1,.941-2.863,3.07,3.07,0,0,1,2.363-1.027,2.642,2.642,0,0,1,1.977.793,2.907,2.907,0,0,1,.773,2.121Zm0-.453h3.313a3.062,3.062,0,0,0-.164-.969A1.551,1.551,0,0,0,106,31.43a1.467,1.467,0,0,0-.809-.25,1.612,1.612,0,0,0-1.16.5A2.187,2.187,0,0,0,103.43,33.086Zm12.359-6.2v9.492a2.6,2.6,0,0,0,.1.891.692.692,0,0,0,.3.332,1.729,1.729,0,0,0,.758.113V38h-3.508v-.281a1.516,1.516,0,0,0,.672-.1.677.677,0,0,0,.281-.336,2.616,2.616,0,0,0,.1-.9v-6.5a11.265,11.265,0,0,0-.055-1.488.651.651,0,0,0-.176-.379.464.464,0,0,0-.309-.1,1.459,1.459,0,0,0-.516.125l-.133-.273,2.133-.875Zm6.039,10.078a11.8,11.8,0,0,1-1.383.984,2.113,2.113,0,0,1-.9.2,1.61,1.61,0,0,1-1.223-.508,1.864,1.864,0,0,1-.48-1.336,1.7,1.7,0,0,1,.234-.906,3.1,3.1,0,0,1,1.113-1,17.322,17.322,0,0,1,2.637-1.141v-.281a2.333,2.333,0,0,0-.34-1.469,1.227,1.227,0,0,0-.988-.4,1.11,1.11,0,0,0-.781.266.8.8,0,0,0-.3.609l.016.453a.779.779,0,0,1-.184.555.629.629,0,0,1-.48.2.608.608,0,0,1-.473-.2.8.8,0,0,1-.184-.555A1.6,1.6,0,0,1,118.8,31.2a2.969,2.969,0,0,1,1.93-.562,3.347,3.347,0,0,1,1.563.32,1.473,1.473,0,0,1,.68.758,4.27,4.27,0,0,1,.141,1.375v2.43a11.129,11.129,0,0,0,.039,1.254.526.526,0,0,0,.129.309.306.306,0,0,0,.207.078.426.426,0,0,0,.219-.055,4.88,4.88,0,0,0,.633-.57v.438q-.875,1.172-1.672,1.172a.76.76,0,0,1-.609-.266A1.435,1.435,0,0,1,121.828,36.969Zm0-.508V33.734a15.426,15.426,0,0,0-1.523.664,2.631,2.631,0,0,0-.883.719,1.389,1.389,0,0,0-.266.82,1.339,1.339,0,0,0,.336.934,1.018,1.018,0,0,0,.773.371A2.834,2.834,0,0,0,121.828,36.461Zm6.531-4.906,2.2-.891h.3v1.672a4.057,4.057,0,0,1,1.113-1.324,2.061,2.061,0,0,1,1.176-.379,2.264,2.264,0,0,1,1.8.844,3.988,3.988,0,0,1,.883,2.688,4.474,4.474,0,0,1-1.062,3.063,2.813,2.813,0,0,1-2.2.992,2.756,2.756,0,0,1-1-.164,2.342,2.342,0,0,1-.7-.469v2.18a2.9,2.9,0,0,0,.09.934.668.668,0,0,0,.313.316,1.921,1.921,0,0,0,.809.117v.289h-3.75v-.289h.2a1.419,1.419,0,0,0,.734-.164.562.562,0,0,0,.23-.277,3.326,3.326,0,0,0,.082-.973V32.953a3.681,3.681,0,0,0-.062-.883.531.531,0,0,0-.2-.281.647.647,0,0,0-.371-.094,1.413,1.413,0,0,0-.477.109Zm2.5,1.242v2.672a5.729,5.729,0,0,0,.07,1.141,1.461,1.461,0,0,0,.535.8,1.655,1.655,0,0,0,1.074.344,1.54,1.54,0,0,0,1.266-.609,3.524,3.524,0,0,0,.633-2.242,3.9,3.9,0,0,0-.719-2.523,1.5,1.5,0,0,0-1.187-.609,1.617,1.617,0,0,0-.742.188A4.356,4.356,0,0,0,130.859,32.8Zm10.07,4.172a11.8,11.8,0,0,1-1.383.984,2.113,2.113,0,0,1-.9.2,1.61,1.61,0,0,1-1.223-.508,1.864,1.864,0,0,1-.48-1.336,1.7,1.7,0,0,1,.234-.906,3.1,3.1,0,0,1,1.113-1,17.321,17.321,0,0,1,2.637-1.141v-.281a2.333,2.333,0,0,0-.34-1.469,1.227,1.227,0,0,0-.988-.4,1.11,1.11,0,0,0-.781.266.8.8,0,0,0-.3.609l.016.453a.779.779,0,0,1-.184.555.629.629,0,0,1-.48.2.608.608,0,0,1-.473-.2.8.8,0,0,1-.184-.555,1.6,1.6,0,0,1,.688-1.234,2.969,2.969,0,0,1,1.93-.562,3.347,3.347,0,0,1,1.563.32,1.473,1.473,0,0,1,.68.758,4.27,4.27,0,0,1,.141,1.375v2.43a11.127,11.127,0,0,0,.039,1.254.526.526,0,0,0,.129.309.306.306,0,0,0,.207.078.426.426,0,0,0,.219-.055,4.88,4.88,0,0,0,.633-.57v.438q-.875,1.172-1.672,1.172a.76.76,0,0,1-.609-.266A1.435,1.435,0,0,1,140.93,36.969Zm0-.508V33.734a15.428,15.428,0,0,0-1.523.664,2.631,2.631,0,0,0-.883.719,1.389,1.389,0,0,0-.266.82,1.339,1.339,0,0,0,.336.934,1.018,1.018,0,0,0,.773.371A2.834,2.834,0,0,0,140.93,36.461Zm.773-9.32-2.3,2.7h-.266l.82-2.7Zm4.188,8.25a2.351,2.351,0,0,1-1.359-2.164,2.442,2.442,0,0,1,.8-1.828,2.846,2.846,0,0,1,2.051-.766,3.122,3.122,0,0,1,1.773.5h1.516a1.993,1.993,0,0,1,.391.02.133.133,0,0,1,.078.066.479.479,0,0,1,.047.25.7.7,0,0,1-.039.281.161.161,0,0,1-.082.063,1.729,1.729,0,0,1-.395.023h-.93a2.411,2.411,0,0,1-.328,3.148,2.9,2.9,0,0,1-2.055.711,3.994,3.994,0,0,1-1.086-.156,2.057,2.057,0,0,0-.465.52.831.831,0,0,0-.121.379.362.362,0,0,0,.129.258.945.945,0,0,0,.5.18q.219.031,1.094.055,1.609.039,2.086.109a1.961,1.961,0,0,1,1.16.539,1.472,1.472,0,0,1,.434,1.078,2.259,2.259,0,0,1-.828,1.656,4.466,4.466,0,0,1-3.18,1.141,4.553,4.553,0,0,1-2.547-.68q-.586-.391-.586-.812a.893.893,0,0,1,.086-.375,4.369,4.369,0,0,1,.547-.8q.055-.07.8-.844a2.466,2.466,0,0,1-.574-.434.64.64,0,0,1-.168-.434,1.286,1.286,0,0,1,.223-.641A5.129,5.129,0,0,1,145.891,35.391Zm1.359-4.383a1.22,1.22,0,0,0-.969.461,2.152,2.152,0,0,0-.391,1.414,3.043,3.043,0,0,0,.531,1.914,1.259,1.259,0,0,0,1.031.516,1.231,1.231,0,0,0,.977-.445,2.116,2.116,0,0,0,.383-1.4,3.129,3.129,0,0,0-.539-1.945A1.238,1.238,0,0,0,147.25,31.008ZM145.813,38a3.849,3.849,0,0,0-.555.742,1.338,1.338,0,0,0-.187.633.791.791,0,0,0,.453.656,4.316,4.316,0,0,0,2.258.484,3.492,3.492,0,0,0,2.074-.5,1.363,1.363,0,0,0,.668-1.059.592.592,0,0,0-.4-.578,5.219,5.219,0,0,0-1.609-.2A25.717,25.717,0,0,1,145.813,38ZM153.8,26.891a.787.787,0,0,1,.789.789.774.774,0,0,1-.23.563.754.754,0,0,1-.559.234.793.793,0,1,1,0-1.586Zm.648,3.742v5.75a2.634,2.634,0,0,0,.1.895.686.686,0,0,0,.289.332,1.547,1.547,0,0,0,.7.109V38h-3.477v-.281a1.618,1.618,0,0,0,.7-.1.7.7,0,0,0,.285-.336,2.525,2.525,0,0,0,.105-.9V33.625a9.753,9.753,0,0,0-.07-1.508.613.613,0,0,0-.172-.348.485.485,0,0,0-.32-.1,1.564,1.564,0,0,0-.531.117l-.109-.281,2.156-.875Zm4.063,1.516a3.378,3.378,0,0,1,2.4-1.516,1.722,1.722,0,0,1,1.008.293,1.963,1.963,0,0,1,.672.965,4.463,4.463,0,0,1,.172,1.438v3.055a2.574,2.574,0,0,0,.109.922.642.642,0,0,0,.277.3,1.572,1.572,0,0,0,.707.109V38h-3.539v-.281h.148a1.191,1.191,0,0,0,.7-.152.8.8,0,0,0,.277-.449,4.565,4.565,0,0,0,.031-.734v-2.93a2.975,2.975,0,0,0-.254-1.418.907.907,0,0,0-.855-.441,2.576,2.576,0,0,0-1.852,1.016v3.773a2.7,2.7,0,0,0,.086.9.723.723,0,0,0,.3.332,1.862,1.862,0,0,0,.777.105V38h-3.539v-.281h.156a.841.841,0,0,0,.738-.277,2.023,2.023,0,0,0,.191-1.059V33.727a11.545,11.545,0,0,0-.059-1.57.673.673,0,0,0-.18-.383.488.488,0,0,0-.324-.1,1.5,1.5,0,0,0-.523.117l-.117-.281,2.156-.875h.336Zm9.969,4.82a11.8,11.8,0,0,1-1.383.984,2.113,2.113,0,0,1-.9.2,1.61,1.61,0,0,1-1.223-.508,1.864,1.864,0,0,1-.48-1.336,1.7,1.7,0,0,1,.234-.906,3.1,3.1,0,0,1,1.113-1,17.321,17.321,0,0,1,2.637-1.141v-.281a2.333,2.333,0,0,0-.34-1.469,1.227,1.227,0,0,0-.988-.4,1.11,1.11,0,0,0-.781.266.8.8,0,0,0-.3.609l.016.453a.779.779,0,0,1-.184.555.629.629,0,0,1-.48.2.608.608,0,0,1-.473-.2.8.8,0,0,1-.184-.555,1.6,1.6,0,0,1,.688-1.234,2.969,2.969,0,0,1,1.93-.562,3.347,3.347,0,0,1,1.563.32,1.473,1.473,0,0,1,.68.758,4.27,4.27,0,0,1,.141,1.375v2.43a11.127,11.127,0,0,0,.039,1.254.526.526,0,0,0,.129.309.306.306,0,0,0,.207.078.426.426,0,0,0,.219-.055,4.88,4.88,0,0,0,.633-.57v.438q-.875,1.172-1.672,1.172a.76.76,0,0,1-.609-.266A1.435,1.435,0,0,1,168.477,36.969Zm0-.508V33.734a15.428,15.428,0,0,0-1.523.664,2.631,2.631,0,0,0-.883.719,1.389,1.389,0,0,0-.266.82,1.339,1.339,0,0,0,.336.934,1.018,1.018,0,0,0,.773.371A2.834,2.834,0,0,0,168.477,36.461Zm4.8-5.836a.867.867,0,1,1-.613.254A.836.836,0,0,1,173.281,30.625Zm-.016,5.852a.838.838,0,0,1,.621.258.849.849,0,0,1,.254.617.829.829,0,0,1-.258.613.849.849,0,0,1-.617.254.867.867,0,0,1-.867-.867.849.849,0,0,1,.254-.617A.829.829,0,0,1,173.266,36.477Z" transform="translate(-1447 -9614)" fill="#12263f"/>
    <path id="Trazado_878740" data-name="Trazado 878740" d="M9.633,3.164l.242,3.6H9.633A4.533,4.533,0,0,0,8.25,4.438a3.368,3.368,0,0,0-2.156-.711,3.509,3.509,0,0,0-1.906.535,3.54,3.54,0,0,0-1.34,1.707,7.6,7.6,0,0,0-.488,2.914,6.188,6.188,0,0,0,.461,2.492,3.454,3.454,0,0,0,1.387,1.617,3.988,3.988,0,0,0,2.113.563,3.666,3.666,0,0,0,1.82-.441,6,6,0,0,0,1.734-1.754l.242.156a5.562,5.562,0,0,1-1.859,2.07,4.706,4.706,0,0,1-2.523.656,4.776,4.776,0,0,1-4.078-1.953A5.584,5.584,0,0,1,.578,8.867a6.077,6.077,0,0,1,.711-2.914A5.144,5.144,0,0,1,3.246,3.895a5.288,5.288,0,0,1,2.723-.73,4.99,4.99,0,0,1,2.266.563A1.229,1.229,0,0,0,8.7,3.9.516.516,0,0,0,9.07,3.75a1.217,1.217,0,0,0,.289-.586Zm5.039,3.469a3.171,3.171,0,0,1,2.609,1.234,3.79,3.79,0,0,1,.836,2.422,4.561,4.561,0,0,1-.461,1.945,3.274,3.274,0,0,1-3.07,1.984,3.032,3.032,0,0,1-2.57-1.289,3.994,3.994,0,0,1-.8-2.437A4.325,4.325,0,0,1,11.7,8.535,3.335,3.335,0,0,1,12.984,7.1,3.3,3.3,0,0,1,14.672,6.633Zm-.242.508a1.629,1.629,0,0,0-.832.246,1.725,1.725,0,0,0-.676.863,4.154,4.154,0,0,0-.258,1.586,5.525,5.525,0,0,0,.621,2.7,1.849,1.849,0,0,0,1.637,1.133,1.525,1.525,0,0,0,1.25-.625,3.553,3.553,0,0,0,.492-2.148,4.9,4.9,0,0,0-.82-3A1.69,1.69,0,0,0,14.43,7.141Zm6.828,1.008a3.378,3.378,0,0,1,2.4-1.516,1.722,1.722,0,0,1,1.008.293,1.963,1.963,0,0,1,.672.965,4.463,4.463,0,0,1,.172,1.438v3.055a2.574,2.574,0,0,0,.109.922.642.642,0,0,0,.277.3,1.572,1.572,0,0,0,.707.109V14H23.063v-.281h.148a1.191,1.191,0,0,0,.7-.152.8.8,0,0,0,.277-.449,4.565,4.565,0,0,0,.031-.734V9.453a2.975,2.975,0,0,0-.254-1.418.907.907,0,0,0-.855-.441,2.576,2.576,0,0,0-1.852,1.016v3.773a2.7,2.7,0,0,0,.086.9.723.723,0,0,0,.3.332,1.862,1.862,0,0,0,.777.105V14H18.883v-.281h.156a.841.841,0,0,0,.738-.277,2.023,2.023,0,0,0,.191-1.059V9.727a11.545,11.545,0,0,0-.059-1.57.673.673,0,0,0-.18-.383.488.488,0,0,0-.324-.1,1.5,1.5,0,0,0-.523.117l-.117-.281,2.156-.875h.336ZM29.25,4.492V6.844h1.672v.547H29.25v4.641a1.559,1.559,0,0,0,.2.938.633.633,0,0,0,.512.242.9.9,0,0,0,.5-.16,1.03,1.03,0,0,0,.375-.473h.3a2.451,2.451,0,0,1-.773,1.152,1.669,1.669,0,0,1-1.031.387,1.386,1.386,0,0,1-.7-.2,1.2,1.2,0,0,1-.508-.57,2.994,2.994,0,0,1-.164-1.145V7.391H26.828V7.133a2.966,2.966,0,0,0,.879-.582,4.628,4.628,0,0,0,.8-.973,8.75,8.75,0,0,0,.5-1.086Zm3.57,5.047a3.676,3.676,0,0,0,.773,2.5,2.359,2.359,0,0,0,1.836.906,1.991,1.991,0,0,0,1.223-.387,2.854,2.854,0,0,0,.871-1.324l.242.156a3.725,3.725,0,0,1-.953,1.949,2.545,2.545,0,0,1-1.977.879,2.886,2.886,0,0,1-2.207-1,3.846,3.846,0,0,1-.918-2.7,4.081,4.081,0,0,1,.941-2.863,3.07,3.07,0,0,1,2.363-1.027,2.642,2.642,0,0,1,1.977.793,2.907,2.907,0,0,1,.773,2.121Zm0-.453h3.313a3.062,3.062,0,0,0-.164-.969,1.551,1.551,0,0,0-.582-.687,1.467,1.467,0,0,0-.809-.25,1.612,1.612,0,0,0-1.16.5A2.187,2.187,0,0,0,32.82,9.086ZM40.8,8.148a3.378,3.378,0,0,1,2.4-1.516,1.722,1.722,0,0,1,1.008.293,1.963,1.963,0,0,1,.672.965,4.463,4.463,0,0,1,.172,1.438v3.055a2.574,2.574,0,0,0,.109.922.642.642,0,0,0,.277.3,1.572,1.572,0,0,0,.707.109V14H42.609v-.281h.148a1.191,1.191,0,0,0,.7-.152.8.8,0,0,0,.277-.449,4.565,4.565,0,0,0,.031-.734V9.453a2.975,2.975,0,0,0-.254-1.418.907.907,0,0,0-.855-.441A2.576,2.576,0,0,0,40.8,8.609v3.773a2.7,2.7,0,0,0,.086.9.723.723,0,0,0,.3.332,1.862,1.862,0,0,0,.777.105V14H38.43v-.281h.156a.841.841,0,0,0,.738-.277,2.023,2.023,0,0,0,.191-1.059V9.727a11.545,11.545,0,0,0-.059-1.57.673.673,0,0,0-.18-.383.488.488,0,0,0-.324-.1,1.5,1.5,0,0,0-.523.117l-.117-.281,2.156-.875H40.8Zm7.734-5.258a.787.787,0,0,1,.789.789.774.774,0,0,1-.23.563.754.754,0,0,1-.559.234.8.8,0,0,1-.8-.8.761.761,0,0,1,.23-.559A.77.77,0,0,1,48.539,2.891Zm.648,3.742v5.75a2.634,2.634,0,0,0,.1.895.686.686,0,0,0,.289.332,1.547,1.547,0,0,0,.7.109V14H46.8v-.281a1.618,1.618,0,0,0,.7-.1.7.7,0,0,0,.285-.336,2.525,2.525,0,0,0,.105-.9V9.625a9.753,9.753,0,0,0-.07-1.508.613.613,0,0,0-.172-.348.485.485,0,0,0-.32-.1,1.564,1.564,0,0,0-.531.117l-.109-.281,2.156-.875ZM56.219,13.2a3.614,3.614,0,0,1-1.023.785,2.474,2.474,0,0,1-1.078.238,2.668,2.668,0,0,1-2.047-.98,3.642,3.642,0,0,1-.875-2.52A4.555,4.555,0,0,1,52.164,7.9a3,3,0,0,1,2.492-1.277,2.147,2.147,0,0,1,1.563.6V5.906A10.8,10.8,0,0,0,56.16,4.4a.657.657,0,0,0-.184-.383.479.479,0,0,0-.312-.1,1.647,1.647,0,0,0-.539.125l-.1-.273,2.133-.875h.352v8.273a11.069,11.069,0,0,0,.059,1.535.681.681,0,0,0,.188.387.451.451,0,0,0,.3.109,1.7,1.7,0,0,0,.563-.133l.086.273-2.125.883h-.359Zm0-.547V8.961a2.492,2.492,0,0,0-.281-.969,1.622,1.622,0,0,0-.621-.66,1.508,1.508,0,0,0-.754-.223,1.6,1.6,0,0,0-1.227.617,3.507,3.507,0,0,0-.711,2.375,3.731,3.731,0,0,0,.688,2.418,1.971,1.971,0,0,0,1.531.84A1.9,1.9,0,0,0,56.219,12.648Zm6.445-6.016a3.171,3.171,0,0,1,2.609,1.234,3.79,3.79,0,0,1,.836,2.422,4.561,4.561,0,0,1-.461,1.945,3.274,3.274,0,0,1-3.07,1.984,3.032,3.032,0,0,1-2.57-1.289,3.994,3.994,0,0,1-.8-2.437,4.325,4.325,0,0,1,.488-1.957A3.335,3.335,0,0,1,60.977,7.1,3.3,3.3,0,0,1,62.664,6.633Zm-.242.508a1.629,1.629,0,0,0-.832.246,1.725,1.725,0,0,0-.676.863,4.154,4.154,0,0,0-.258,1.586,5.525,5.525,0,0,0,.621,2.7,1.849,1.849,0,0,0,1.637,1.133,1.525,1.525,0,0,0,1.25-.625,3.553,3.553,0,0,0,.492-2.148,4.9,4.9,0,0,0-.82-3A1.69,1.69,0,0,0,62.422,7.141Zm13.8,6.055a3.614,3.614,0,0,1-1.023.785,2.474,2.474,0,0,1-1.078.238,2.668,2.668,0,0,1-2.047-.98,3.642,3.642,0,0,1-.875-2.52A4.555,4.555,0,0,1,72.164,7.9a3,3,0,0,1,2.492-1.277,2.147,2.147,0,0,1,1.563.6V5.906A10.8,10.8,0,0,0,76.16,4.4a.657.657,0,0,0-.184-.383.479.479,0,0,0-.312-.1,1.647,1.647,0,0,0-.539.125l-.1-.273,2.133-.875h.352v8.273a11.069,11.069,0,0,0,.059,1.535.681.681,0,0,0,.188.387.451.451,0,0,0,.3.109,1.7,1.7,0,0,0,.563-.133l.086.273-2.125.883h-.359Zm0-.547V8.961a2.492,2.492,0,0,0-.281-.969,1.622,1.622,0,0,0-.621-.66,1.508,1.508,0,0,0-.754-.223,1.6,1.6,0,0,0-1.227.617,3.507,3.507,0,0,0-.711,2.375,3.731,3.731,0,0,0,.688,2.418,1.971,1.971,0,0,0,1.531.84A1.9,1.9,0,0,0,76.219,12.648Zm4.148-3.109a3.676,3.676,0,0,0,.773,2.5,2.359,2.359,0,0,0,1.836.906,1.991,1.991,0,0,0,1.223-.387,2.854,2.854,0,0,0,.871-1.324l.242.156a3.725,3.725,0,0,1-.953,1.949,2.545,2.545,0,0,1-1.977.879,2.886,2.886,0,0,1-2.207-1,3.846,3.846,0,0,1-.918-2.7A4.081,4.081,0,0,1,80.2,7.652a3.07,3.07,0,0,1,2.363-1.027,2.642,2.642,0,0,1,1.977.793,2.907,2.907,0,0,1,.773,2.121Zm0-.453H83.68a3.062,3.062,0,0,0-.164-.969,1.551,1.551,0,0,0-.582-.687,1.467,1.467,0,0,0-.809-.25,1.612,1.612,0,0,0-1.16.5A2.187,2.187,0,0,0,80.367,9.086Zm12.359-6.2v9.492a2.6,2.6,0,0,0,.1.891.692.692,0,0,0,.3.332,1.729,1.729,0,0,0,.758.113V14H90.375v-.281a1.516,1.516,0,0,0,.672-.1.677.677,0,0,0,.281-.336,2.616,2.616,0,0,0,.1-.9v-6.5a11.265,11.265,0,0,0-.055-1.488.651.651,0,0,0-.176-.379.464.464,0,0,0-.309-.1,1.459,1.459,0,0,0-.516.125l-.133-.273,2.133-.875Zm6.039,10.078a11.8,11.8,0,0,1-1.383.984,2.113,2.113,0,0,1-.9.2,1.61,1.61,0,0,1-1.223-.508,1.864,1.864,0,0,1-.48-1.336,1.7,1.7,0,0,1,.234-.906,3.1,3.1,0,0,1,1.113-1,17.322,17.322,0,0,1,2.637-1.141V8.977a2.333,2.333,0,0,0-.34-1.469,1.227,1.227,0,0,0-.988-.4,1.11,1.11,0,0,0-.781.266.8.8,0,0,0-.3.609l.016.453a.779.779,0,0,1-.184.555.629.629,0,0,1-.48.2.608.608,0,0,1-.473-.2.8.8,0,0,1-.184-.555A1.6,1.6,0,0,1,95.742,7.2a2.969,2.969,0,0,1,1.93-.562,3.347,3.347,0,0,1,1.563.32,1.473,1.473,0,0,1,.68.758,4.27,4.27,0,0,1,.141,1.375v2.43a11.129,11.129,0,0,0,.039,1.254.526.526,0,0,0,.129.309.306.306,0,0,0,.207.078.426.426,0,0,0,.219-.055,4.88,4.88,0,0,0,.633-.57v.438q-.875,1.172-1.672,1.172A.76.76,0,0,1,99,13.875,1.435,1.435,0,0,1,98.766,12.969Zm0-.508V9.734a15.426,15.426,0,0,0-1.523.664,2.631,2.631,0,0,0-.883.719,1.389,1.389,0,0,0-.266.82,1.339,1.339,0,0,0,.336.934,1.018,1.018,0,0,0,.773.371A2.834,2.834,0,0,0,98.766,12.461ZM105.3,7.555l2.2-.891h.3V8.336a4.056,4.056,0,0,1,1.113-1.324,2.061,2.061,0,0,1,1.176-.379,2.264,2.264,0,0,1,1.8.844,3.988,3.988,0,0,1,.883,2.688,4.474,4.474,0,0,1-1.062,3.063,2.813,2.813,0,0,1-2.2.992,2.756,2.756,0,0,1-1-.164,2.342,2.342,0,0,1-.7-.469v2.18a2.9,2.9,0,0,0,.09.934.668.668,0,0,0,.313.316,1.921,1.921,0,0,0,.809.117v.289h-3.75v-.289h.2a1.418,1.418,0,0,0,.734-.164.562.562,0,0,0,.23-.277,3.326,3.326,0,0,0,.082-.973V8.953a3.682,3.682,0,0,0-.062-.883.531.531,0,0,0-.2-.281.647.647,0,0,0-.371-.094,1.413,1.413,0,0,0-.477.109ZM107.8,8.8v2.672a5.729,5.729,0,0,0,.07,1.141,1.461,1.461,0,0,0,.535.8,1.655,1.655,0,0,0,1.074.344,1.54,1.54,0,0,0,1.266-.609,3.524,3.524,0,0,0,.633-2.242,3.9,3.9,0,0,0-.719-2.523,1.5,1.5,0,0,0-1.187-.609,1.617,1.617,0,0,0-.742.188A4.356,4.356,0,0,0,107.8,8.8Zm10.07,4.172a11.8,11.8,0,0,1-1.383.984,2.113,2.113,0,0,1-.9.2,1.61,1.61,0,0,1-1.223-.508,1.864,1.864,0,0,1-.48-1.336,1.7,1.7,0,0,1,.234-.906,3.1,3.1,0,0,1,1.113-1,17.322,17.322,0,0,1,2.637-1.141V8.977a2.333,2.333,0,0,0-.34-1.469,1.227,1.227,0,0,0-.988-.4,1.11,1.11,0,0,0-.781.266.8.8,0,0,0-.3.609l.016.453a.779.779,0,0,1-.184.555.629.629,0,0,1-.48.2.608.608,0,0,1-.473-.2.8.8,0,0,1-.184-.555,1.6,1.6,0,0,1,.688-1.234,2.969,2.969,0,0,1,1.93-.562,3.347,3.347,0,0,1,1.563.32,1.473,1.473,0,0,1,.68.758,4.27,4.27,0,0,1,.141,1.375v2.43a11.129,11.129,0,0,0,.039,1.254.526.526,0,0,0,.129.309.306.306,0,0,0,.207.078.426.426,0,0,0,.219-.055,4.88,4.88,0,0,0,.633-.57v.438q-.875,1.172-1.672,1.172a.76.76,0,0,1-.609-.266A1.435,1.435,0,0,1,117.867,12.969Zm0-.508V9.734a15.426,15.426,0,0,0-1.523.664,2.631,2.631,0,0,0-.883.719,1.389,1.389,0,0,0-.266.82,1.339,1.339,0,0,0,.336.934,1.018,1.018,0,0,0,.773.371A2.834,2.834,0,0,0,117.867,12.461Zm.773-9.32-2.3,2.7h-.266l.82-2.7Zm4.188,8.25a2.351,2.351,0,0,1-1.359-2.164,2.442,2.442,0,0,1,.8-1.828,2.846,2.846,0,0,1,2.051-.766,3.122,3.122,0,0,1,1.773.5h1.516a1.993,1.993,0,0,1,.391.02.133.133,0,0,1,.078.066.479.479,0,0,1,.047.25.7.7,0,0,1-.039.281.161.161,0,0,1-.082.063,1.728,1.728,0,0,1-.395.023h-.93a2.272,2.272,0,0,1,.438,1.438,2.252,2.252,0,0,1-.766,1.711,2.9,2.9,0,0,1-2.055.711,3.994,3.994,0,0,1-1.086-.156,2.057,2.057,0,0,0-.465.52.831.831,0,0,0-.121.379.362.362,0,0,0,.129.258.945.945,0,0,0,.5.18q.219.031,1.094.055,1.609.039,2.086.109a1.961,1.961,0,0,1,1.16.539,1.472,1.472,0,0,1,.434,1.078,2.259,2.259,0,0,1-.828,1.656,4.466,4.466,0,0,1-3.18,1.141,4.553,4.553,0,0,1-2.547-.68q-.586-.391-.586-.812a.893.893,0,0,1,.086-.375,4.368,4.368,0,0,1,.547-.8q.055-.07.8-.844a2.466,2.466,0,0,1-.574-.434.64.64,0,0,1-.168-.434,1.286,1.286,0,0,1,.223-.641A5.129,5.129,0,0,1,122.828,11.391Zm1.359-4.383a1.22,1.22,0,0,0-.969.461,2.152,2.152,0,0,0-.391,1.414,3.043,3.043,0,0,0,.531,1.914,1.259,1.259,0,0,0,1.031.516,1.231,1.231,0,0,0,.977-.445,2.116,2.116,0,0,0,.383-1.4,3.129,3.129,0,0,0-.539-1.945A1.238,1.238,0,0,0,124.188,7.008ZM122.75,14a3.849,3.849,0,0,0-.555.742,1.338,1.338,0,0,0-.187.633.791.791,0,0,0,.453.656,4.316,4.316,0,0,0,2.258.484,3.492,3.492,0,0,0,2.074-.5,1.363,1.363,0,0,0,.668-1.059.592.592,0,0,0-.4-.578,5.219,5.219,0,0,0-1.609-.2A25.717,25.717,0,0,1,122.75,14Zm7.984-11.109a.787.787,0,0,1,.789.789.774.774,0,0,1-.23.563.754.754,0,0,1-.559.234.8.8,0,0,1-.8-.8.761.761,0,0,1,.23-.559A.77.77,0,0,1,130.734,2.891Zm.648,3.742v5.75a2.634,2.634,0,0,0,.1.895.686.686,0,0,0,.289.332,1.547,1.547,0,0,0,.7.109V14h-3.477v-.281a1.618,1.618,0,0,0,.7-.1.7.7,0,0,0,.285-.336,2.525,2.525,0,0,0,.105-.9V9.625a9.753,9.753,0,0,0-.07-1.508.613.613,0,0,0-.172-.348.485.485,0,0,0-.32-.1,1.564,1.564,0,0,0-.531.117l-.109-.281,2.156-.875Zm4.063,1.516a3.378,3.378,0,0,1,2.4-1.516,1.722,1.722,0,0,1,1.008.293,1.963,1.963,0,0,1,.672.965,4.463,4.463,0,0,1,.172,1.438v3.055a2.574,2.574,0,0,0,.109.922.642.642,0,0,0,.277.3,1.572,1.572,0,0,0,.707.109V14H137.25v-.281h.148a1.191,1.191,0,0,0,.7-.152.8.8,0,0,0,.277-.449,4.565,4.565,0,0,0,.031-.734V9.453a2.975,2.975,0,0,0-.254-1.418.907.907,0,0,0-.855-.441,2.576,2.576,0,0,0-1.852,1.016v3.773a2.7,2.7,0,0,0,.086.9.723.723,0,0,0,.3.332,1.862,1.862,0,0,0,.777.105V14H133.07v-.281h.156a.841.841,0,0,0,.738-.277,2.023,2.023,0,0,0,.191-1.059V9.727a11.545,11.545,0,0,0-.059-1.57.673.673,0,0,0-.18-.383.488.488,0,0,0-.324-.1,1.5,1.5,0,0,0-.523.117l-.117-.281,2.156-.875h.336Zm9.969,4.82a11.8,11.8,0,0,1-1.383.984,2.113,2.113,0,0,1-.9.2,1.61,1.61,0,0,1-1.223-.508,1.864,1.864,0,0,1-.48-1.336,1.7,1.7,0,0,1,.234-.906,3.1,3.1,0,0,1,1.113-1,17.321,17.321,0,0,1,2.637-1.141V8.977a2.333,2.333,0,0,0-.34-1.469,1.227,1.227,0,0,0-.988-.4,1.11,1.11,0,0,0-.781.266.8.8,0,0,0-.3.609l.016.453a.779.779,0,0,1-.184.555.629.629,0,0,1-.48.2.608.608,0,0,1-.473-.2.8.8,0,0,1-.184-.555,1.6,1.6,0,0,1,.688-1.234,2.969,2.969,0,0,1,1.93-.562,3.347,3.347,0,0,1,1.563.32,1.473,1.473,0,0,1,.68.758,4.27,4.27,0,0,1,.141,1.375v2.43a11.127,11.127,0,0,0,.039,1.254.526.526,0,0,0,.129.309.306.306,0,0,0,.207.078.426.426,0,0,0,.219-.055,4.88,4.88,0,0,0,.633-.57v.438q-.875,1.172-1.672,1.172a.76.76,0,0,1-.609-.266A1.435,1.435,0,0,1,145.414,12.969Zm0-.508V9.734a15.428,15.428,0,0,0-1.523.664,2.631,2.631,0,0,0-.883.719,1.389,1.389,0,0,0-.266.82,1.339,1.339,0,0,0,.336.934,1.018,1.018,0,0,0,.773.371A2.834,2.834,0,0,0,145.414,12.461Zm6.648-5.617h3v.289a.974.974,0,0,0-.543.148.431.431,0,0,0-.129.336,1.68,1.68,0,0,0,.133.586l1.531,4.117,1.539-3.352-.406-1.055a1.258,1.258,0,0,0-.492-.648,1.437,1.437,0,0,0-.641-.133V6.844h3.406v.289a1.443,1.443,0,0,0-.8.2.48.48,0,0,0-.156.4.9.9,0,0,0,.063.32l1.625,4.109L161.7,8.2a2.07,2.07,0,0,0,.156-.672.334.334,0,0,0-.152-.266,1.121,1.121,0,0,0-.6-.133V6.844h2.258v.289a1.288,1.288,0,0,0-1,.922l-2.391,6.164h-.32l-1.789-4.57-2.086,4.57h-.289L153.2,8.2a2.157,2.157,0,0,0-.445-.77,1.485,1.485,0,0,0-.687-.3Zm13.156,2.7a3.676,3.676,0,0,0,.773,2.5,2.359,2.359,0,0,0,1.836.906,1.991,1.991,0,0,0,1.223-.387,2.854,2.854,0,0,0,.871-1.324l.242.156a3.725,3.725,0,0,1-.953,1.949,2.545,2.545,0,0,1-1.977.879,2.886,2.886,0,0,1-2.207-1,3.846,3.846,0,0,1-.918-2.7,4.081,4.081,0,0,1,.941-2.863,3.07,3.07,0,0,1,2.363-1.027,2.642,2.642,0,0,1,1.977.793,2.907,2.907,0,0,1,.773,2.121Zm0-.453h3.313a3.063,3.063,0,0,0-.164-.969,1.551,1.551,0,0,0-.582-.687,1.467,1.467,0,0,0-.809-.25,1.612,1.612,0,0,0-1.16.5A2.187,2.187,0,0,0,165.219,9.086Zm7.859-1.008a2.857,2.857,0,0,1,2.242-1.445,2.481,2.481,0,0,1,1.922.941,3.785,3.785,0,0,1,.82,2.574,3.974,3.974,0,0,1-1.266,3.07,3.491,3.491,0,0,1-2.422,1,3.812,3.812,0,0,1-1.27-.227,5.827,5.827,0,0,1-1.316-.68V5.9a10.71,10.71,0,0,0-.059-1.5.657.657,0,0,0-.184-.383.479.479,0,0,0-.312-.1,1.6,1.6,0,0,0-.547.125l-.109-.273,2.148-.875h.352Zm0,.5v4.281a3.009,3.009,0,0,0,.824.59,2.035,2.035,0,0,0,.871.2,1.711,1.711,0,0,0,1.324-.781,3.622,3.622,0,0,0,.613-2.273A3.225,3.225,0,0,0,176.1,8.48a1.788,1.788,0,0,0-1.395-.738,1.81,1.81,0,0,0-.828.211A3.59,3.59,0,0,0,173.078,8.578Z" transform="translate(-1447 -9540)" fill="#12263f"/>
  </g>
</svg>
