<svg xmlns="http://www.w3.org/2000/svg" xmlns:xlink="http://www.w3.org/1999/xlink" width="400" height="249" viewBox="0 0 400 249">
  <defs>
    <clipPath id="clip-path">
      <rect id="Rectángulo_402538" data-name="Rectángulo 402538" width="237.943" height="237.764" fill="none"/>
    </clipPath>
    <clipPath id="clip-path-2">
      <rect id="Rectángulo_402540" data-name="Rectángulo 402540" width="51" height="111" transform="translate(614 2605)" fill="#fff" stroke="#707070" stroke-width="1"/>
    </clipPath>
    <filter id="Trazado_877866" x="-68.697" y="121.855" width="128.488" height="128.488" filterUnits="userSpaceOnUse">
      <feOffset dy="1" input="SourceAlpha"/>
      <feGaussianBlur stdDeviation="5.5" result="blur"/>
      <feFlood flood-color="#fff" flood-opacity="0.902"/>
      <feComposite operator="in" in2="blur"/>
      <feComposite in="SourceGraphic"/>
    </filter>
    <filter id="Elipse_11611" x="315" y="14.919" width="76" height="76" filterUnits="userSpaceOnUse">
      <feOffset dy="1" input="SourceAlpha"/>
      <feGaussianBlur stdDeviation="5.5" result="blur-2"/>
      <feFlood flood-color="#fff" flood-opacity="0.902"/>
      <feComposite operator="in" in2="blur-2"/>
      <feComposite in="SourceGraphic"/>
    </filter>
    <linearGradient id="linear-gradient" x1="0.35" y1="0.433" x2="0.935" y2="0.848" gradientUnits="objectBoundingBox">
      <stop offset="0" stop-color="#f0c518"/>
      <stop offset="0.371" stop-color="#d1ae1f"/>
      <stop offset="1" stop-color="#78630c"/>
    </linearGradient>
  </defs>
  <g id="_37" data-name="37" transform="translate(-600 -2048)">
    <rect id="Rectángulo_402539" data-name="Rectángulo 402539" width="400" height="249" rx="13" transform="translate(600 2048)" fill="#3a1d71"/>
    <g id="Grupo_1100732" data-name="Grupo 1100732" transform="translate(677.057 2059.236)">
      <g id="Grupo_1100731" data-name="Grupo 1100731" clip-path="url(#clip-path)">
        <path id="Trazado_877694" data-name="Trazado 877694" d="M1074.013,983.555a.286.286,0,0,1-.286-.286V972.6a7,7,0,0,1,6.986-6.99h21.074a6.417,6.417,0,0,0,0-12.835h-50.52a7,7,0,0,1-6.986-6.989v-1.283a7,7,0,0,1,6.986-6.99h50.52a6.423,6.423,0,0,0,6.414-6.417v-1.7a6.415,6.415,0,0,0-6.412-6.417h-.051l-93.714.714a6.433,6.433,0,0,0-6.365,6.417.286.286,0,1,1-.572,0,7.007,7.007,0,0,1,6.933-6.989l93.715-.714h.055a6.988,6.988,0,0,1,6.984,6.99v1.7a7,7,0,0,1-6.986,6.989h-50.52a6.423,6.423,0,0,0-6.414,6.417v1.283a6.423,6.423,0,0,0,6.414,6.417h50.52a6.99,6.99,0,0,1,0,13.979h-21.074a6.423,6.423,0,0,0-6.414,6.417v10.667a.286.286,0,0,1-.286.286" transform="translate(-871.019 -802.567)"/>
        <path id="Trazado_877695" data-name="Trazado 877695" d="M1451.648,1410.1c0,20.693-8.6,37.468-19.217,37.468s-19.217-16.775-19.217-37.468,8.6-19.29,19.217-19.29,19.217-1.4,19.217,19.29" transform="translate(-1229.601 -1210.091)" fill="#8c7bff"/>
        <path id="Trazado_877696" data-name="Trazado 877696" d="M1573.557,1390.813c.691,0,1.372-.006,2.044-.011-1.121-.017-2.282,0-3.474,0q.708.005,1.43.007" transform="translate(-1367.867 -1210.093)" fill="#6155ff"/>
        <path id="Trazado_877697" data-name="Trazado 877697" d="M1416.075,1410.1c0-17.388,6.076-19.175,14.313-19.3-9.652-.078-17.173-.045-17.173,19.3,0,20.693,8.6,37.468,19.217,37.468a10.073,10.073,0,0,0,1.43-.1c-9.945-1.426-17.787-17.61-17.787-37.365" transform="translate(-1229.602 -1210.092)" fill="#6155ff"/>
        <path id="Trazado_877698" data-name="Trazado 877698" d="M1525.422,1390.813q.721,0,1.43-.007c-1.191-.009-2.352-.022-3.474,0,.672.005,1.353.011,2.044.011" transform="translate(-1325.452 -1210.093)" fill="#6155ff"/>
        <path id="Trazado_877699" data-name="Trazado 877699" d="M1567.9,1410.1c0,19.755-7.842,35.939-17.787,37.365a10.073,10.073,0,0,0,1.43.1c10.613,0,19.217-16.775,19.217-37.468,0-19.347-7.521-19.379-17.173-19.3,8.238.127,14.313,1.913,14.313,19.3" transform="translate(-1348.716 -1210.092)" fill="#6155ff"/>
        <path id="Trazado_877700" data-name="Trazado 877700" d="M1430.515,1445.939c-10.754,0-19.5-16.937-19.5-37.754,0-8.331,1.361-13.562,4.283-16.46,3.234-3.208,7.91-3.169,13.318-3.126,1.251.01,2.552.01,3.8,0,5.41-.044,10.084-.082,13.318,3.126,2.923,2.9,4.283,8.129,4.283,16.46,0,20.818-8.749,37.754-19.5,37.754m-3.717-56.778c-4.513,0-8.391.283-11.1,2.97-2.807,2.784-4.114,7.886-4.114,16.054,0,20.5,8.492,37.182,18.931,37.182s18.931-16.68,18.931-37.182c0-8.168-1.307-13.27-4.114-16.054-3.065-3.04-7.628-3-12.911-2.96-1.254.011-2.558.011-3.812,0-.613,0-1.217-.01-1.81-.01" transform="translate(-1227.685 -1208.175)"/>
        <path id="Trazado_877701" data-name="Trazado 877701" d="M1545.693,1460.247a2.307,2.307,0,0,1-2.3-2.3v-8.828a2.3,2.3,0,1,1,4.608,0v8.828a2.307,2.307,0,0,1-2.3,2.3m0-12.865a1.734,1.734,0,0,0-1.732,1.732v8.828a1.732,1.732,0,1,0,3.464,0v-8.828a1.734,1.734,0,0,0-1.732-1.732" transform="translate(-1342.863 -1258.832)"/>
        <path id="Trazado_877702" data-name="Trazado 877702" d="M1481.4,44.059l7.684.005,0-4.773a16.564,16.564,0,0,0,4.9-2.022l3.39,3.379,5.43-5.412-3.39-3.379a16.451,16.451,0,0,0,2.028-4.883l4.789,0-.005-7.658-4.789,0a16.5,16.5,0,0,0-2.035-4.886l3.386-3.374-5.437-5.419-3.386,3.374a16.609,16.609,0,0,0-4.9-2.028l0-4.773-7.684-.005,0,4.773a16.565,16.565,0,0,0-4.9,2.022l-3.39-3.379-5.43,5.412,3.39,3.379a16.45,16.45,0,0,0-2.029,4.883l-4.789,0,.005,7.658,4.789,0a16.5,16.5,0,0,0,2.035,4.886l-3.386,3.374,5.437,5.419,3.386-3.374a16.611,16.611,0,0,0,4.9,2.028Zm-5.861-20.932a9.689,9.689,0,1,1,9.7,9.664,9.658,9.658,0,0,1-9.7-9.664" transform="translate(-1273.988 -1.917)" fill="#fff"/>
        <path id="Trazado_877703" data-name="Trazado 877703" d="M1487.169,42.433h0l-7.684-.005a.286.286,0,0,1-.286-.286l0-4.549a16.87,16.87,0,0,1-4.573-1.892l-3.226,3.216a.286.286,0,0,1-.4,0l-5.437-5.419a.286.286,0,0,1,0-.405l3.226-3.215a16.752,16.752,0,0,1-1.9-4.557l-4.565,0a.286.286,0,0,1-.286-.286l-.005-7.658a.286.286,0,0,1,.286-.286h0l4.564,0a16.7,16.7,0,0,1,1.891-4.554l-3.23-3.22a.286.286,0,0,1,0-.405l5.43-5.412a.287.287,0,0,1,.4,0l3.231,3.221a16.822,16.822,0,0,1,4.57-1.886l0-4.548a.286.286,0,0,1,.286-.286h0l7.684.005a.286.286,0,0,1,.286.286l0,4.549A16.862,16.862,0,0,1,1492,6.732l3.227-3.216a.286.286,0,0,1,.4,0l5.437,5.419a.286.286,0,0,1,0,.405l-3.226,3.215a16.755,16.755,0,0,1,1.9,4.557l4.565,0a.286.286,0,0,1,.286.286l.005,7.658a.286.286,0,0,1-.286.286h0l-4.565,0a16.692,16.692,0,0,1-1.891,4.554l3.23,3.22a.286.286,0,0,1,0,.405l-5.43,5.412a.287.287,0,0,1-.4,0l-3.231-3.221a16.824,16.824,0,0,1-4.57,1.886l0,4.548a.286.286,0,0,1-.286.286m-7.4-.577,7.112,0,0-4.487a.286.286,0,0,1,.221-.279,16.249,16.249,0,0,0,4.815-1.987.286.286,0,0,1,.352.041l3.188,3.178,5.024-5.008-3.187-3.176a.286.286,0,0,1-.041-.353,16.13,16.13,0,0,0,1.993-4.8.286.286,0,0,1,.278-.22h0l4.5,0,0-7.086-4.5,0a.286.286,0,0,1-.278-.22,16.2,16.2,0,0,0-2-4.8.286.286,0,0,1,.041-.354l3.182-3.172-5.031-5.015L1492.249,7.3a.287.287,0,0,1-.352.041,16.293,16.293,0,0,0-4.818-1.993.286.286,0,0,1-.22-.278l0-4.488-7.112,0,0,4.487a.286.286,0,0,1-.221.279,16.261,16.261,0,0,0-4.815,1.987.287.287,0,0,1-.352-.041l-3.188-3.177-5.025,5.008,3.187,3.176a.286.286,0,0,1,.041.353,16.127,16.127,0,0,0-1.993,4.8.287.287,0,0,1-.279.22h0l-4.5,0,0,7.086,4.5,0a.286.286,0,0,1,.278.22,16.185,16.185,0,0,0,2,4.8.287.287,0,0,1-.041.354l-3.182,3.172,5.032,5.015,3.183-3.173a.286.286,0,0,1,.352-.041,16.3,16.3,0,0,0,4.818,1.993.286.286,0,0,1,.22.278Zm3.556-10.7h-.007a9.987,9.987,0,0,1-9.982-9.949,9.944,9.944,0,0,1,9.963-9.937h.007a9.986,9.986,0,0,1,9.982,9.949,9.944,9.944,0,0,1-9.962,9.937m-9.417-9.95a9.414,9.414,0,0,0,9.41,9.378h.006a9.371,9.371,0,1,0-.02-18.742h-.006a9.371,9.371,0,0,0-9.39,9.364" transform="translate(-1272.072)"/>
        <path id="Trazado_877704" data-name="Trazado 877704" d="M768.225,305.585H638.453l24.933-86.842H793.158Z" transform="translate(-555.501 -190.323)" fill="#fff"/>
        <path id="Trazado_877705" data-name="Trazado 877705" d="M766.309,303.955H636.537a.286.286,0,0,1-.275-.365l24.933-86.842a.286.286,0,0,1,.275-.207H791.242a.286.286,0,0,1,.275.365l-24.933,86.842a.286.286,0,0,1-.275.207m-129.392-.572H766.094l24.768-86.27H661.685Z" transform="translate(-553.585 -188.406)"/>
        <path id="Trazado_877706" data-name="Trazado 877706" d="M790.534,396H668.867l20.98-73.075H811.514Z" transform="translate(-581.964 -280.966)" fill="#fed101"/>
        <path id="Trazado_877707" data-name="Trazado 877707" d="M178.058,887.141H363.531a13.653,13.653,0,0,1-13.58,12.277H191.638a13.652,13.652,0,0,1-13.58-12.277" transform="translate(-154.924 -771.879)" fill="#fff"/>
        <path id="Trazado_877708" data-name="Trazado 877708" d="M348.035,897.788H189.723a13.9,13.9,0,0,1-13.865-12.534.286.286,0,0,1,.285-.315H361.615a.286.286,0,0,1,.285.315,13.9,13.9,0,0,1-13.865,12.534M176.463,885.511a13.327,13.327,0,0,0,13.26,11.7H348.035a13.327,13.327,0,0,0,13.26-11.7Z" transform="translate(-153.008 -769.963)"/>
        <path id="Trazado_877709" data-name="Trazado 877709" d="M1251.823,255.522a2.654,2.654,0,1,1-2.654-2.655,2.655,2.655,0,0,1,2.654,2.655" transform="translate(-1084.561 -220.013)" fill="#fff"/>
        <path id="Trazado_877710" data-name="Trazado 877710" d="M1247.253,256.547a2.942,2.942,0,1,1,2.94-2.942,2.944,2.944,0,0,1-2.94,2.942m0-5.311a2.369,2.369,0,1,0,2.368,2.369,2.371,2.371,0,0,0-2.368-2.369" transform="translate(-1082.645 -218.096)"/>
        <path id="Trazado_877711" data-name="Trazado 877711" d="M1388.692,870.362h-10.779l.668-2.505h9.442Z" transform="translate(-1198.887 -755.1)" fill="#fff"/>
        <path id="Trazado_877712" data-name="Trazado 877712" d="M1386.776,868.732H1376a.286.286,0,0,1-.277-.36l.669-2.506a.286.286,0,0,1,.276-.212h9.442a.286.286,0,0,1,.276.212l.668,2.506a.286.286,0,0,1-.276.36m-10.406-.572H1386.4l-.516-1.933h-9Z" transform="translate(-1196.971 -753.183)"/>
        <path id="Trazado_877713" data-name="Trazado 877713" d="M1302.337,870.362h-10.779l.668-2.505h9.442Z" transform="translate(-1123.752 -755.1)" fill="#fff"/>
        <path id="Trazado_877714" data-name="Trazado 877714" d="M1300.422,868.732h-10.779a.286.286,0,0,1-.276-.36l.668-2.506a.286.286,0,0,1,.276-.212h9.442a.286.286,0,0,1,.276.212l.668,2.506a.286.286,0,0,1-.276.36m-10.406-.572h10.034l-.516-1.933h-9Z" transform="translate(-1121.837 -753.183)"/>
        <path id="Trazado_877715" data-name="Trazado 877715" d="M1215.983,870.362H1205.2l.668-2.505h9.442Z" transform="translate(-1048.617 -755.1)" fill="#fff"/>
        <path id="Trazado_877716" data-name="Trazado 877716" d="M1214.067,868.732h-10.779a.286.286,0,0,1-.276-.36l.669-2.506a.286.286,0,0,1,.276-.212h9.442a.286.286,0,0,1,.276.212l.668,2.506a.286.286,0,0,1-.276.36m-10.406-.572H1213.7l-.516-1.933h-9Z" transform="translate(-1046.702 -753.183)"/>
        <path id="Trazado_877717" data-name="Trazado 877717" d="M1129.629,870.362H1118.85l.668-2.505h9.442Z" transform="translate(-973.483 -755.1)" fill="#fff"/>
        <path id="Trazado_877718" data-name="Trazado 877718" d="M1127.712,868.732h-10.779a.286.286,0,0,1-.276-.36l.668-2.506a.286.286,0,0,1,.276-.212h9.442a.286.286,0,0,1,.276.212l.668,2.506a.286.286,0,0,1-.276.36m-10.406-.572h10.034l-.516-1.933h-9Z" transform="translate(-971.566 -753.183)"/>
        <path id="Trazado_877719" data-name="Trazado 877719" d="M1043.274,870.362H1032.5l.668-2.505h9.442Z" transform="translate(-898.348 -755.1)" fill="#fff"/>
        <path id="Trazado_877720" data-name="Trazado 877720" d="M1041.359,868.732h-10.778a.286.286,0,0,1-.276-.36l.668-2.506a.286.286,0,0,1,.276-.212h9.442a.286.286,0,0,1,.276.212l.668,2.506a.286.286,0,0,1-.276.36m-10.406-.572h10.034l-.516-1.933h-9Z" transform="translate(-896.433 -753.183)"/>
        <path id="Trazado_877721" data-name="Trazado 877721" d="M956.92,870.362H946.141l.668-2.505h9.442Z" transform="translate(-823.213 -755.1)" fill="#fff"/>
        <path id="Trazado_877722" data-name="Trazado 877722" d="M955,868.732H944.226a.286.286,0,0,1-.276-.36l.668-2.506a.286.286,0,0,1,.276-.212h9.442a.286.286,0,0,1,.276.212l.668,2.506a.286.286,0,0,1-.276.36M944.6,868.16h10.034l-.516-1.933h-9Z" transform="translate(-821.298 -753.183)"/>
        <path id="Trazado_877723" data-name="Trazado 877723" d="M870.565,870.362H859.787l.668-2.505H869.9Z" transform="translate(-748.078 -755.1)" fill="#fff"/>
        <path id="Trazado_877724" data-name="Trazado 877724" d="M868.649,868.732H857.87a.286.286,0,0,1-.276-.36l.668-2.506a.286.286,0,0,1,.277-.212h9.442a.286.286,0,0,1,.276.212l.668,2.506a.286.286,0,0,1-.276.36m-10.406-.572h10.034l-.516-1.933h-9Z" transform="translate(-746.162 -753.183)"/>
        <path id="Trazado_877725" data-name="Trazado 877725" d="M784.211,870.362H773.432l.668-2.505h9.442Z" transform="translate(-672.943 -755.1)" fill="#fff"/>
        <path id="Trazado_877726" data-name="Trazado 877726" d="M782.294,868.732H771.515a.286.286,0,0,1-.277-.36l.669-2.506a.286.286,0,0,1,.276-.212h9.442a.286.286,0,0,1,.276.212l.668,2.506a.286.286,0,0,1-.277.36m-10.406-.572h10.034l-.516-1.933h-9Z" transform="translate(-671.026 -753.183)"/>
        <path id="Trazado_877727" data-name="Trazado 877727" d="M697.857,870.362H687.078l.668-2.505h9.442Z" transform="translate(-597.809 -755.1)" fill="#fff"/>
        <path id="Trazado_877728" data-name="Trazado 877728" d="M695.94,868.732H685.161a.286.286,0,0,1-.276-.36l.668-2.506a.286.286,0,0,1,.276-.212h9.442a.286.286,0,0,1,.277.212l.668,2.506a.286.286,0,0,1-.276.36m-10.406-.572h10.034l-.516-1.933h-9Z" transform="translate(-595.892 -753.183)"/>
        <path id="Trazado_877729" data-name="Trazado 877729" d="M611.5,870.362H600.723l.668-2.505h9.442Z" transform="translate(-522.674 -755.1)" fill="#fff"/>
        <path id="Trazado_877730" data-name="Trazado 877730" d="M609.586,868.732H598.807a.286.286,0,0,1-.276-.36l.668-2.506a.286.286,0,0,1,.277-.212h9.442a.286.286,0,0,1,.276.212l.668,2.506a.286.286,0,0,1-.277.36m-10.406-.572h10.034l-.516-1.933h-9Z" transform="translate(-520.758 -753.183)"/>
        <path id="Trazado_877731" data-name="Trazado 877731" d="M525.148,870.362H514.369l.668-2.505h9.442Z" transform="translate(-447.539 -755.1)" fill="#fff"/>
        <path id="Trazado_877732" data-name="Trazado 877732" d="M523.232,868.732H512.453a.286.286,0,0,1-.277-.36l.669-2.506a.286.286,0,0,1,.276-.212h9.442a.286.286,0,0,1,.276.212l.668,2.506a.286.286,0,0,1-.276.36m-10.406-.572h10.034l-.516-1.933h-9Z" transform="translate(-445.623 -753.183)"/>
        <path id="Trazado_877733" data-name="Trazado 877733" d="M438.793,870.362H428.015l.668-2.505h9.442Z" transform="translate(-372.404 -755.1)" fill="#fff"/>
        <path id="Trazado_877734" data-name="Trazado 877734" d="M436.877,868.732H426.1a.286.286,0,0,1-.276-.36l.668-2.506a.286.286,0,0,1,.276-.212h9.442a.286.286,0,0,1,.277.212l.668,2.506a.286.286,0,0,1-.277.36m-10.406-.572H436.5l-.516-1.933h-9Z" transform="translate(-370.488 -753.183)"/>
        <path id="Trazado_877735" data-name="Trazado 877735" d="M1038.152,508.092H996.326l.864-2.825h41.826Z" transform="translate(-866.878 -439.62)" fill="#fff"/>
        <path id="Trazado_877736" data-name="Trazado 877736" d="M862.953,576.587H830.364l.864-2.825h32.589Z" transform="translate(-722.478 -499.216)" fill="#fff"/>
        <path id="Trazado_877737" data-name="Trazado 877737" d="M891.084,439.6H872.241l.863-2.825h18.843Z" transform="translate(-758.915 -380.025)" fill="#fff"/>
        <path id="Trazado_877738" data-name="Trazado 877738" d="M1171.149,576.587H1139.1l.863-2.825h32.05Z" transform="translate(-991.101 -499.216)" fill="#fff"/>
        <path id="Trazado_877739" data-name="Trazado 877739" d="M800.137,782.071H767.548l.863-2.825H801Z" transform="translate(-667.824 -678.002)" fill="#fff"/>
        <path id="Trazado_877740" data-name="Trazado 877740" d="M1107.168,782.071h-30.886l.864-2.825h30.885Z" transform="translate(-936.446 -678.002)" fill="#fff"/>
        <path id="Trazado_877741" data-name="Trazado 877741" d="M1014.181,645.082H963.793l.863-2.825h50.388Z" transform="translate(-838.572 -558.811)" fill="#fff"/>
        <path id="Trazado_877742" data-name="Trazado 877742" d="M1172.046,439.6h-66.509l.864-2.825h66.509Z" transform="translate(-961.899 -380.025)" fill="#fff"/>
        <path id="Trazado_877743" data-name="Trazado 877743" d="M979.455,713.577h-36.6l.864-2.825h36.6Z" transform="translate(-820.353 -618.407)" fill="#fff"/>
        <path id="Trazado_877744" data-name="Trazado 877744" d="M932.437,371.1H893.18l.863-2.825H933.3Z" transform="translate(-777.133 -320.429)" fill="#fff"/>
        <path id="Trazado_877745" data-name="Trazado 877745" d="M253.2,265.668h-6.045a.286.286,0,0,1-.286-.286V237.831a.286.286,0,0,1,.286-.286H253.2a.286.286,0,0,1,.286.286v27.551a.286.286,0,0,1-.286.286m-5.758-.572h5.472V238.117h-5.472Z" transform="translate(-214.797 -206.682)" fill="#8c7bff"/>
        <path id="Trazado_877746" data-name="Trazado 877746" d="M253.2,153.761h-6.045a.286.286,0,0,1-.286-.286V142.581a.286.286,0,0,1,.286-.286H253.2a.286.286,0,0,1,.286.286v10.894a.286.286,0,0,1-.286.286m-5.758-.572h5.472V142.867h-5.472Z" transform="translate(-214.797 -123.807)" fill="#8c7bff"/>
        <path id="Trazado_877747" data-name="Trazado 877747" d="M253.2,467.93h-6.045a.286.286,0,0,1-.286-.286v-7.563a.286.286,0,0,1,.286-.286H253.2a.286.286,0,0,1,.286.286v7.563a.286.286,0,0,1-.286.286m-5.758-.572h5.472v-6.991h-5.472Z" transform="translate(-214.797 -400.056)" fill="#8c7bff"/>
        <path id="Trazado_877748" data-name="Trazado 877748" d="M311.38,323.541h-6.045a.286.286,0,0,1-.286-.286v-6.048a.286.286,0,0,1,.286-.286h6.045a.286.286,0,0,1,.286.286v6.048a.286.286,0,0,1-.286.286m-5.759-.572h5.472v-5.475h-5.472Z" transform="translate(-265.415 -275.745)" fill="#8c7bff"/>
        <path id="Trazado_877749" data-name="Trazado 877749" d="M311.38,265.332h-6.045a.286.286,0,0,1-.286-.286V259a.286.286,0,0,1,.286-.286h6.045a.286.286,0,0,1,.286.286v6.048a.286.286,0,0,1-.286.286m-5.759-.572h5.472v-5.476h-5.472Z" transform="translate(-265.415 -225.099)" fill="#8c7bff"/>
        <path id="Trazado_877750" data-name="Trazado 877750" d="M311.38,207.125h-6.045a.286.286,0,0,1-.286-.286v-6.048a.286.286,0,0,1,.286-.286h6.045a.286.286,0,0,1,.286.286v6.048a.286.286,0,0,1-.286.286m-5.759-.572h5.472v-5.475h-5.472Z" transform="translate(-265.415 -174.454)" fill="#8c7bff"/>
        <path id="Trazado_877751" data-name="Trazado 877751" d="M311.38,148.915h-6.045a.286.286,0,0,1-.286-.286v-6.048a.286.286,0,0,1,.286-.286h6.045a.286.286,0,0,1,.286.286v6.048a.286.286,0,0,1-.286.286m-5.759-.572h5.472v-5.476h-5.472Z" transform="translate(-265.415 -123.807)" fill="#8c7bff"/>
        <path id="Trazado_877752" data-name="Trazado 877752" d="M311.38,40.062h-6.045a.286.286,0,0,1-.286-.286V26.165a.286.286,0,0,1,.286-.286h6.045a.286.286,0,0,1,.286.286V39.776a.286.286,0,0,1-.286.286m-5.759-.572h5.472V26.451h-5.472Z" transform="translate(-265.415 -22.517)" fill="#8c7bff"/>
        <path id="Trazado_877753" data-name="Trazado 877753" d="M253.2,90.708h-6.045a.286.286,0,0,1-.286-.286V84.374a.286.286,0,0,1,.286-.286H253.2a.286.286,0,0,1,.286.286v6.048a.286.286,0,0,1-.286.286m-5.758-.572h5.472V84.66h-5.472Z" transform="translate(-214.797 -73.163)" fill="#8c7bff"/>
        <path id="Trazado_877754" data-name="Trazado 877754" d="M253.2,32.5h-6.045a.286.286,0,0,1-.286-.286V26.165a.286.286,0,0,1,.286-.286H253.2a.286.286,0,0,1,.286.286v6.048a.286.286,0,0,1-.286.286m-5.758-.572h5.472V26.451h-5.472Z" transform="translate(-214.797 -22.517)" fill="#8c7bff"/>
        <path id="Trazado_877755" data-name="Trazado 877755" d="M311.38,553.727h-6.045a.286.286,0,0,1-.286-.286v-6.048a.286.286,0,0,1,.286-.286h6.045a.286.286,0,0,1,.286.286v6.048a.286.286,0,0,1-.286.286m-5.759-.572h5.472v-5.476h-5.472Z" transform="translate(-265.415 -476.024)" fill="#8c7bff"/>
        <path id="Trazado_877756" data-name="Trazado 877756" d="M311.38,617.093h-6.045a.286.286,0,0,1-.286-.286V605.6a.286.286,0,0,1,.286-.286h6.045a.286.286,0,0,1,.286.286v11.2a.286.286,0,0,1-.286.286m-5.759-.572h5.472V605.889h-5.472Z" transform="translate(-265.415 -526.671)" fill="#8c7bff"/>
        <path id="Trazado_877757" data-name="Trazado 877757" d="M253.2,535.208h-6.045a.286.286,0,0,1-.286-.286v-6.048a.286.286,0,0,1,.286-.286H253.2a.286.286,0,0,1,.286.286v6.048a.286.286,0,0,1-.286.286m-5.758-.572h5.472V529.16h-5.472Z" transform="translate(-214.797 -459.911)" fill="#8c7bff"/>
        <path id="Trazado_877758" data-name="Trazado 877758" d="M253.2,651.622h-6.045a.286.286,0,0,1-.286-.286v-6.048a.286.286,0,0,1,.286-.286H253.2a.286.286,0,0,1,.286.286v6.048a.286.286,0,0,1-.286.286m-5.758-.572h5.472v-5.476h-5.472Z" transform="translate(-214.797 -561.2)" fill="#8c7bff"/>
        <path id="Trazado_877759" data-name="Trazado 877759" d="M273.441,593.415h-3.022a.286.286,0,0,1-.286-.286v-6.048a.286.286,0,0,1,.286-.286h3.022a.286.286,0,0,1,.286.286v6.048a.286.286,0,0,1-.286.286m-2.736-.572h2.45v-5.475h-2.45Z" transform="translate(-235.036 -510.555)" fill="#8c7bff"/>
        <path id="Trazado_877760" data-name="Trazado 877760" d="M249.641,593.415h-3.022a.286.286,0,0,1-.286-.286v-6.048a.286.286,0,0,1,.286-.286h3.022a.286.286,0,0,1,.286.286v6.048a.286.286,0,0,1-.286.286m-2.736-.572h2.45v-5.475h-2.45Z" transform="translate(-214.328 -510.555)" fill="#8c7bff"/>
        <path id="Trazado_877761" data-name="Trazado 877761" d="M311.38,495.52h-6.045a.286.286,0,0,1-.286-.286v-6.048a.286.286,0,0,1,.286-.286h6.045a.286.286,0,0,1,.286.286v6.048a.286.286,0,0,1-.286.286m-5.759-.572h5.472v-5.475h-5.472Z" transform="translate(-265.415 -425.379)" fill="#8c7bff"/>
        <path id="Trazado_877762" data-name="Trazado 877762" d="M311.38,437.311h-6.045a.286.286,0,0,1-.286-.286v-6.048a.286.286,0,0,1,.286-.286h6.045a.286.286,0,0,1,.286.286v6.048a.286.286,0,0,1-.286.286m-5.759-.572h5.472v-5.476h-5.472Z" transform="translate(-265.415 -374.733)" fill="#8c7bff"/>
        <path id="Trazado_877763" data-name="Trazado 877763" d="M311.38,379.1h-6.045a.286.286,0,0,1-.286-.286v-6.047a.286.286,0,0,1,.286-.286h6.045a.286.286,0,0,1,.286.286v6.047a.286.286,0,0,1-.286.286m-5.759-.572h5.472v-5.475h-5.472Z" transform="translate(-265.415 -324.088)" fill="#8c7bff"/>
        <path id="Trazado_877764" data-name="Trazado 877764" d="M427.736,323.541h-6.045a.286.286,0,0,1-.286-.286v-6.048a.286.286,0,0,1,.286-.286h6.045a.286.286,0,0,1,.286.286v6.048a.286.286,0,0,1-.286.286m-5.758-.572h5.472v-5.475h-5.472Z" transform="translate(-366.654 -275.745)" fill="#8c7bff"/>
        <path id="Trazado_877765" data-name="Trazado 877765" d="M427.736,265.332h-6.045a.286.286,0,0,1-.286-.286V259a.286.286,0,0,1,.286-.286h6.045a.286.286,0,0,1,.286.286v6.048a.286.286,0,0,1-.286.286m-5.758-.572h5.472v-5.476h-5.472Z" transform="translate(-366.654 -225.099)" fill="#8c7bff"/>
        <path id="Trazado_877766" data-name="Trazado 877766" d="M427.736,207.125h-6.045a.286.286,0,0,1-.286-.286v-6.048a.286.286,0,0,1,.286-.286h6.045a.286.286,0,0,1,.286.286v6.048a.286.286,0,0,1-.286.286m-5.758-.572h5.472v-5.475h-5.472Z" transform="translate(-366.654 -174.454)" fill="#8c7bff"/>
        <path id="Trazado_877767" data-name="Trazado 877767" d="M427.736,148.915h-6.045a.286.286,0,0,1-.286-.286v-6.048a.286.286,0,0,1,.286-.286h6.045a.286.286,0,0,1,.286.286v6.048a.286.286,0,0,1-.286.286m-5.758-.572h5.472v-5.476h-5.472Z" transform="translate(-366.654 -123.807)" fill="#8c7bff"/>
        <path id="Trazado_877768" data-name="Trazado 877768" d="M427.736,90.708h-6.045a.286.286,0,0,1-.286-.286V84.374a.286.286,0,0,1,.286-.286h6.045a.286.286,0,0,1,.286.286v6.048a.286.286,0,0,1-.286.286m-5.758-.572h5.472V84.66h-5.472Z" transform="translate(-366.654 -73.163)" fill="#8c7bff"/>
        <path id="Trazado_877769" data-name="Trazado 877769" d="M427.736,32.5h-6.045a.286.286,0,0,1-.286-.286V26.165a.286.286,0,0,1,.286-.286h6.045a.286.286,0,0,1,.286.286v6.048a.286.286,0,0,1-.286.286m-5.758-.572h5.472V26.451h-5.472Z" transform="translate(-366.654 -22.517)" fill="#8c7bff"/>
        <path id="Trazado_877770" data-name="Trazado 877770" d="M427.736,553.727h-6.045a.286.286,0,0,1-.286-.286v-6.048a.286.286,0,0,1,.286-.286h6.045a.286.286,0,0,1,.286.286v6.048a.286.286,0,0,1-.286.286m-5.758-.572h5.472v-5.476h-5.472Z" transform="translate(-366.654 -476.024)" fill="#8c7bff"/>
        <path id="Trazado_877771" data-name="Trazado 877771" d="M427.736,617.093h-6.045a.286.286,0,0,1-.286-.286V605.6a.286.286,0,0,1,.286-.286h6.045a.286.286,0,0,1,.286.286v11.2a.286.286,0,0,1-.286.286m-5.758-.572h5.472V605.889h-5.472Z" transform="translate(-366.654 -526.671)" fill="#8c7bff"/>
        <path id="Trazado_877772" data-name="Trazado 877772" d="M427.736,495.52h-6.045a.286.286,0,0,1-.286-.286v-6.048a.286.286,0,0,1,.286-.286h6.045a.286.286,0,0,1,.286.286v6.048a.286.286,0,0,1-.286.286m-5.758-.572h5.472v-5.475h-5.472Z" transform="translate(-366.654 -425.379)" fill="#8c7bff"/>
        <path id="Trazado_877773" data-name="Trazado 877773" d="M427.736,437.311h-6.045a.286.286,0,0,1-.286-.286v-6.048a.286.286,0,0,1,.286-.286h6.045a.286.286,0,0,1,.286.286v6.048a.286.286,0,0,1-.286.286m-5.758-.572h5.472v-5.476h-5.472Z" transform="translate(-366.654 -374.733)" fill="#8c7bff"/>
        <path id="Trazado_877774" data-name="Trazado 877774" d="M427.736,379.1h-6.045a.286.286,0,0,1-.286-.286v-6.047a.286.286,0,0,1,.286-.286h6.045a.286.286,0,0,1,.286.286v6.047a.286.286,0,0,1-.286.286m-5.758-.572h5.472v-5.475h-5.472Z" transform="translate(-366.654 -324.088)" fill="#8c7bff"/>
        <path id="Trazado_877775" data-name="Trazado 877775" d="M369.558,294.437h-6.045a.286.286,0,0,1-.286-.286V288.1a.286.286,0,0,1,.286-.286h6.045a.286.286,0,0,1,.286.286v6.047a.286.286,0,0,1-.286.286m-5.758-.572h5.472v-5.475H363.8Z" transform="translate(-316.034 -250.422)" fill="#8c7bff"/>
        <path id="Trazado_877776" data-name="Trazado 877776" d="M369.558,236.229h-6.045a.286.286,0,0,1-.286-.286V229.9a.286.286,0,0,1,.286-.286h6.045a.286.286,0,0,1,.286.286v6.048a.286.286,0,0,1-.286.286m-5.758-.572h5.472v-5.475H363.8Z" transform="translate(-316.034 -199.777)" fill="#8c7bff"/>
        <path id="Trazado_877777" data-name="Trazado 877777" d="M369.558,178.02h-6.045a.286.286,0,0,1-.286-.286v-6.048a.286.286,0,0,1,.286-.286h6.045a.286.286,0,0,1,.286.286v6.048a.286.286,0,0,1-.286.286m-5.758-.572h5.472v-5.475H363.8Z" transform="translate(-316.034 -149.131)" fill="#8c7bff"/>
        <path id="Trazado_877778" data-name="Trazado 877778" d="M369.558,119.813h-6.045a.286.286,0,0,1-.286-.286v-6.048a.286.286,0,0,1,.286-.286h6.045a.286.286,0,0,1,.286.286v6.048a.286.286,0,0,1-.286.286m-5.758-.572h5.472v-5.475H363.8Z" transform="translate(-316.034 -98.486)" fill="#8c7bff"/>
        <path id="Trazado_877779" data-name="Trazado 877779" d="M369.558,36.281h-6.045a.286.286,0,0,1-.286-.286V26.165a.286.286,0,0,1,.286-.286h6.045a.286.286,0,0,1,.286.286v9.829a.286.286,0,0,1-.286.286m-5.758-.572h5.472V26.451H363.8Z" transform="translate(-316.034 -22.517)" fill="#8c7bff"/>
        <path id="Trazado_877780" data-name="Trazado 877780" d="M369.558,524.625h-6.045a.286.286,0,0,1-.286-.286v-6.048a.286.286,0,0,1,.286-.286h6.045a.286.286,0,0,1,.286.286v6.048a.286.286,0,0,1-.286.286m-5.758-.572h5.472v-5.475H363.8Z" transform="translate(-316.034 -450.703)" fill="#8c7bff"/>
        <path id="Trazado_877781" data-name="Trazado 877781" d="M369.558,582.832h-6.045a.286.286,0,0,1-.286-.286V576.5a.286.286,0,0,1,.286-.286h6.045a.286.286,0,0,1,.286.286v6.048a.286.286,0,0,1-.286.286m-5.758-.572h5.472v-5.475H363.8Z" transform="translate(-316.034 -501.347)" fill="#8c7bff"/>
        <path id="Trazado_877782" data-name="Trazado 877782" d="M369.558,642.414h-6.045a.286.286,0,0,1-.286-.286v-7.423a.286.286,0,0,1,.286-.286h6.045a.286.286,0,0,1,.286.286v7.423a.286.286,0,0,1-.286.286m-5.758-.572h5.472v-6.851H363.8Z" transform="translate(-316.034 -551.992)" fill="#8c7bff"/>
        <path id="Trazado_877783" data-name="Trazado 877783" d="M369.558,466.415h-6.045a.286.286,0,0,1-.286-.286v-6.048a.286.286,0,0,1,.286-.286h6.045a.286.286,0,0,1,.286.286v6.048a.286.286,0,0,1-.286.286m-5.758-.572h5.472v-5.475H363.8Z" transform="translate(-316.034 -400.056)" fill="#8c7bff"/>
        <path id="Trazado_877784" data-name="Trazado 877784" d="M369.558,408.208h-6.045a.286.286,0,0,1-.286-.286v-6.048a.286.286,0,0,1,.286-.286h6.045a.286.286,0,0,1,.286.286v6.048a.286.286,0,0,1-.286.286m-5.758-.572h5.472V402.16H363.8Z" transform="translate(-316.034 -349.411)" fill="#8c7bff"/>
        <path id="Trazado_877785" data-name="Trazado 877785" d="M369.558,350h-6.045a.286.286,0,0,1-.286-.286v-6.048a.286.286,0,0,1,.286-.286h6.045a.286.286,0,0,1,.286.286v6.048a.286.286,0,0,1-.286.286m-5.758-.572h5.472v-5.476H363.8Z" transform="translate(-316.034 -298.765)" fill="#8c7bff"/>
        <path id="Trazado_877786" data-name="Trazado 877786" d="M256.045,93.654H220.163a.286.286,0,0,1-.286-.286V.4a.286.286,0,0,1,.286-.286h35.882a.286.286,0,0,1,.286.286V93.368a.286.286,0,0,1-.286.286m-35.6-.572h35.309V.686H220.449Z" transform="translate(-191.309 -0.099)" fill="#8c7bff"/>
        <path id="Trazado_877807" data-name="Trazado 877807" d="M490.076,1067.766,470.7,1042.995h21.351l8.938,10.466a18.1,18.1,0,0,0,13.772,6.349l15.349-.006v14.906l-25.769.007a18.1,18.1,0,0,1-14.263-6.952" transform="translate(-409.542 -907.483)" fill="#fda4ff"/>
        <path id="Trazado_877808" data-name="Trazado 877808" d="M825.989,1160.341l-.556,1.136-5.586-.351-4.427-4.945H779.153v-2.86h12.753c1.835,0,6.917-2.966,11.06-2.966h7.544a15.768,15.768,0,0,1,6.976,1.627l6.8,3.355a3.743,3.743,0,0,1,1.7,5" transform="translate(-677.921 -1000.895)" fill="#fda4ff"/>
        <path id="Trazado_877809" data-name="Trazado 877809" d="M819.313,1200.434l6.244,3.054a2.677,2.677,0,0,0,3.591-1.229l.011-.022a3.253,3.253,0,0,0-1.483-4.342l-7.244-3.574a15.766,15.766,0,0,0-6.976-1.627h-34.3v10.481H804.7l2.616-2.5a7.623,7.623,0,0,1,6.533-2.021,20.174,20.174,0,0,1,5.463,1.776" transform="translate(-677.921 -1037.731)" fill="#fda4ff"/>
        <path id="Trazado_877810" data-name="Trazado 877810" d="M887.848,1222.808a11.175,11.175,0,0,0,1.859.149c.249.026,1.3.018,4.97.009a3.323,3.323,0,0,1,3.33,3.323v.047a3.319,3.319,0,0,1-3.318,3.321H880.76c-9.749,0-9.314-7.414-9.314-7.414v-3.75h3.117c7.01,0,8.662,3.539,13.285,4.315" transform="translate(-758.221 -1060.179)" fill="#fda4ff"/>
        <path id="Trazado_877811" data-name="Trazado 877811" d="M1015.793,1202.136a2.943,2.943,0,0,1-1.308-.307l-6.243-3.053a19.893,19.893,0,0,0-5.385-1.751,6.912,6.912,0,0,0-5.942,1.637.286.286,0,0,1-.38-.429,7.562,7.562,0,0,1,6.418-1.772,20.471,20.471,0,0,1,5.54,1.8l6.244,3.054a2.39,2.39,0,0,0,3.208-1.1,2.978,2.978,0,0,0-1.342-3.982l-7.244-3.574a15.564,15.564,0,0,0-6.849-1.6h-2.667a.286.286,0,0,1,0-.572h2.667a16.139,16.139,0,0,1,7.1,1.657l7.244,3.574a3.546,3.546,0,0,1,1.614,4.724,2.971,2.971,0,0,1-2.678,1.69" transform="translate(-866.975 -1035.816)"/>
        <path id="Trazado_877812" data-name="Trazado 877812" d="M544,1075.331H531.145c-3.863,0-6.514-.7-8.331-2.213H502.419a18.539,18.539,0,0,1-14.484-7.093l-19.378-24.771a.286.286,0,0,1,.225-.462h21.351a.286.286,0,0,1,.218.1l8.938,10.466a17.853,17.853,0,0,0,13.549,6.359h.006l8.768-.011a13.349,13.349,0,0,0,3.388-1.024c2.287-.865,5.133-1.941,7.672-1.941h7.544a16.134,16.134,0,0,1,7.1,1.657l6.8,3.355a4.007,4.007,0,0,1,1.88,5.287.286.286,0,1,1-.52-.238,3.438,3.438,0,0,0-1.613-4.536l-6.8-3.355a15.564,15.564,0,0,0-6.85-1.6h-7.544c-2.435,0-5.226,1.056-7.47,1.9a13.079,13.079,0,0,1-3.59,1.061l-8.768.01h-.007a18.42,18.42,0,0,1-13.984-6.559L490,1041.364H469.37l19.017,24.308a17.964,17.964,0,0,0,14.033,6.873h20.5a.286.286,0,0,1,.186.069c1.709,1.463,4.264,2.144,8.04,2.144H544a3.037,3.037,0,0,0,3.031-3.035v-.047A3.036,3.036,0,0,0,544,1068.64h-.008l-1.857,0c-2.106.006-2.645.007-2.869-.014a11.887,11.887,0,0,1-3.256-.429.286.286,0,0,1,.178-.544,11.31,11.31,0,0,0,3.093.4l.03,0c.184.02.8.018,2.824.012l1.858,0H544a3.608,3.608,0,0,1,3.606,3.609v.047a3.61,3.61,0,0,1-3.6,3.608" transform="translate(-407.627 -905.566)"/>
        <path id="Trazado_877813" data-name="Trazado 877813" d="M154.158,1068.076H85.734l4.654-44.088H143.06Z" transform="translate(-74.595 -890.946)" fill="#fed101"/>
        <path id="Trazado_877814" data-name="Trazado 877814" d="M152.242,1066.445H83.818a.286.286,0,0,1-.285-.316l4.654-44.088a.286.286,0,0,1,.285-.256h52.672a.286.286,0,0,1,.277.216l11.1,44.088a.286.286,0,0,1-.277.356m-68.106-.572h67.738l-10.954-43.516H88.73Z" transform="translate(-72.679 -889.029)"/>
        <path id="Trazado_877815" data-name="Trazado 877815" d="M556.505,1074.177H538.082a.286.286,0,1,1,0-.572h18.423a.286.286,0,0,1,0,.572" transform="translate(-467.922 -934.116)"/>
        <path id="Trazado_877816" data-name="Trazado 877816" d="M3.745,884.3v-7.069a22.061,22.061,0,0,1,22.049-22.073H56.038a29.877,29.877,0,0,1,24,12.085l12.3,16.583H72.983Z" transform="translate(-3.258 -744.052)" fill="#fed101"/>
        <path id="Trazado_877817" data-name="Trazado 877817" d="M30.367,882.671H1.829a.286.286,0,0,1-.286-.286v-7.069a22.372,22.372,0,0,1,22.335-22.359H54.122a30.29,30.29,0,0,1,24.227,12.2l12.3,16.583a.286.286,0,0,1-.23.457l-18.936.01a.286.286,0,1,1,0-.572l18.367-.01L77.889,865.5a29.715,29.715,0,0,0-23.767-11.969H23.878A21.8,21.8,0,0,0,2.115,875.316V882.1H30.367a.286.286,0,1,1,0,.572" transform="translate(-1.343 -742.136)"/>
        <path id="Trazado_877818" data-name="Trazado 877818" d="M221.479,990.98a.286.286,0,0,1-.286-.286V977.725a.286.286,0,1,1,.572,0v12.968a.286.286,0,0,1-.286.286" transform="translate(-192.454 -850.444)"/>
        <path id="Trazado_877819" data-name="Trazado 877819" d="M553.1,1324.511H538.786v5.01h99.877v-5.01H553.1Z" transform="translate(-468.784 -1152.423)"/>
        <path id="Trazado_877820" data-name="Trazado 877820" d="M822.31,1097.628l32.267-33.88,62.726,0-31.867,33.878Z" transform="translate(-715.471 -925.54)"/>
        <path id="Trazado_877821" data-name="Trazado 877821" d="M636.747,1327.89H536.87a.286.286,0,0,1-.286-.286v-5.01a.286.286,0,0,1,.286-.286h99.877a.286.286,0,0,1,.286.286v5.01a.286.286,0,0,1-.286.286m-99.591-.572h99.3v-4.437h-99.3Z" transform="translate(-466.868 -1150.506)" fill="#fff"/>
        <path id="Trazado_877822" data-name="Trazado 877822" d="M1223.672,1158.975a2.791,2.791,0,1,1-2.791-2.794,2.793,2.793,0,0,1,2.791,2.794" transform="translate(-1059.829 -1005.963)" fill="#fff"/>
        <path id="Trazado_877823" data-name="Trazado 877823" d="M1350.915,1073.808h-10.387a7,7,0,0,1-6.986-6.989v-1.283a6.959,6.959,0,0,1,1.184-3.894.286.286,0,0,1,.475.319,6.387,6.387,0,0,0-1.086,3.574v1.283a6.423,6.423,0,0,0,6.414,6.417h10.387a.286.286,0,1,1,0,.572" transform="translate(-1160.281 -923.598)" fill="#4ada85"/>
        <path id="Trazado_877824" data-name="Trazado 877824" d="M18.168,1096.548l-.159-17.964,23.72-.067-.224,6.414a4.488,4.488,0,0,0,4.487,4.491l38.382-.011v21.052l-52.294.01a13.917,13.917,0,0,1-13.912-13.924" transform="translate(-15.669 -938.39)" fill="#fda4ff"/>
        <path id="Trazado_877825" data-name="Trazado 877825" d="M443.747,1191.861l2.282,2.468a3.573,3.573,0,0,1,.277,4.512l-2.241,3.115-5.431-6.067h-34.12v-7.148h32.1a9.713,9.713,0,0,1,7.131,3.12" transform="translate(-351.956 -1034.293)" fill="#fda4ff"/>
        <path id="Trazado_877826" data-name="Trazado 877826" d="M442.7,1150.368l1.291,1.4a3.574,3.574,0,0,1,.277,4.512l-2.241,3.114-5.431-6.067H404.513v-4.973h5.444c2.252,0,6.27-2.175,11.352-2.175h11.8a13.048,13.048,0,0,1,9.581,4.192" transform="translate(-351.956 -997.258)" fill="#fda4ff"/>
        <path id="Trazado_877827" data-name="Trazado 877827" d="M539.87,1232.138l2.737,2.961a3.573,3.573,0,0,1,.276,4.512l-2.241,3.115-5.432-6.067H514.072v-7.149h19.79a8.182,8.182,0,0,1,6.007,2.628" transform="translate(-447.281 -1069.765)" fill="#fda4ff"/>
        <path id="Trazado_877828" data-name="Trazado 877828" d="M459.99,1271.851l2.856,3.089a3.277,3.277,0,1,1-4.844,4.416l-1.55-1.731a3.9,3.9,0,0,0-2.908-1.3H435.794c-4.641,0-7.907-.266-12.379-7.154l30.461.005a8.326,8.326,0,0,1,6.114,2.675" transform="translate(-368.402 -1104.273)" fill="#fda4ff"/>
        <path id="Trazado_877829" data-name="Trazado 877829" d="M18.168,1089.127l-.159-10.092,23.493.286,0,4.622a22.89,22.89,0,0,1-5.356-.766c-2.481-.765-4.916-1.12-7.306,2.151a9.338,9.338,0,0,1-10.674,3.8" transform="translate(-15.669 -938.841)"/>
        <path id="Trazado_877830" data-name="Trazado 877830" d="M617.46,1197.1a.286.286,0,0,1-.232-.453,3.145,3.145,0,0,0-.4-4.038l-2.282-2.468a9.455,9.455,0,0,0-6.921-3.028h-6.281a.286.286,0,0,1,0-.572h6.281a10.027,10.027,0,0,1,7.341,3.212l2.282,2.468a3.7,3.7,0,0,1,.445,4.761.285.285,0,0,1-.232.119" transform="translate(-522.964 -1032.378)"/>
        <path id="Trazado_877831" data-name="Trazado 877831" d="M617.306,1239.193a.286.286,0,0,1-.232-.453l.873-1.213a3.3,3.3,0,0,0-.254-4.151l-2.738-2.961a7.918,7.918,0,0,0-5.8-2.537H600.9a.286.286,0,1,1,0-.572h8.26a8.493,8.493,0,0,1,6.217,2.72l2.738,2.961a3.872,3.872,0,0,1,.3,4.874l-.873,1.213a.286.286,0,0,1-.232.119" transform="translate(-522.576 -1067.848)"/>
        <path id="Trazado_877832" data-name="Trazado 877832" d="M471.745,1278.853a3.543,3.543,0,0,1-2.649-1.186l-1.55-1.731a3.621,3.621,0,0,0-2.694-1.2H445.219a10.572,10.572,0,0,1-8.76-4.653.286.286,0,1,1,.474-.321,10,10,0,0,0,8.286,4.4h19.632a4.194,4.194,0,0,1,3.121,1.4l1.55,1.731a2.988,2.988,0,0,0,4.652-.248,3.006,3.006,0,0,0-.232-3.783l-2.856-3.089a8.065,8.065,0,0,0-5.9-2.583h-6.874a.286.286,0,0,1,0-.572h6.874a8.639,8.639,0,0,1,6.324,2.767l2.856,3.089a3.579,3.579,0,0,1,.276,4.506,3.543,3.543,0,0,1-2.7,1.476c-.064,0-.129.005-.193.005" transform="translate(-379.709 -1102.393)"/>
        <path id="Trazado_877833" data-name="Trazado 877833" d="M30.161,1109.294a14.2,14.2,0,0,1-14.2-14.211l-.159-17.961a.286.286,0,0,1,.286-.289h0l23.493.135a.286.286,0,0,1,.284.286l0,6.212a4.2,4.2,0,0,0,4.2,4.2H70.735a18.886,18.886,0,0,0,5.313-.91,26.764,26.764,0,0,1,7.846-1.2H94.911a13.375,13.375,0,0,1,9.791,4.283l1.291,1.4a3.842,3.842,0,0,1,.661,4.258.286.286,0,1,1-.518-.243,3.272,3.272,0,0,0-.563-3.626l-1.291-1.4a12.8,12.8,0,0,0-9.371-4.1H83.894a26.285,26.285,0,0,0-7.694,1.183,19.333,19.333,0,0,1-5.466.931H44.074a4.774,4.774,0,0,1-4.771-4.777l0-5.927-22.918-.131.157,17.674a13.631,13.631,0,0,0,13.623,13.641H86.039a.286.286,0,1,1,0,.572H30.161Z" transform="translate(-13.753 -936.925)"/>
        <path id="Trazado_877834" data-name="Trazado 877834" d="M322.089,689.464a5.171,5.171,0,0,0,.013,7.346,5.25,5.25,0,0,0,7.391-.013,5.171,5.171,0,0,0-.013-7.346,5.25,5.25,0,0,0-7.391.013" transform="translate(-278.916 -598.555)"/>
        <path id="Trazado_877835" data-name="Trazado 877835" d="M205.207,708.344a5.171,5.171,0,0,0,.013,7.346,5.25,5.25,0,0,0,7.391-.013,5.171,5.171,0,0,0-.013-7.346,5.25,5.25,0,0,0-7.391.013" transform="translate(-177.22 -614.982)"/>
        <path id="Trazado_877836" data-name="Trazado 877836" d="M209.3,656.909a5.171,5.171,0,0,0,.013,7.346,5.25,5.25,0,0,0,7.391-.013,5.171,5.171,0,0,0-.013-7.346,5.25,5.25,0,0,0-7.391.013" transform="translate(-180.776 -570.23)"/>
        <path id="Trazado_877837" data-name="Trazado 877837" d="M255.312,630.943a5.171,5.171,0,0,0,.013,7.346,5.25,5.25,0,0,0,7.391-.013,5.172,5.172,0,0,0-.013-7.346,5.25,5.25,0,0,0-7.391.013" transform="translate(-220.815 -547.637)"/>
        <path id="Trazado_877838" data-name="Trazado 877838" d="M295,647.4a5.171,5.171,0,0,0,.013,7.346,5.25,5.25,0,0,0,7.391-.013,5.172,5.172,0,0,0-.013-7.346A5.25,5.25,0,0,0,295,647.4" transform="translate(-255.35 -561.958)"/>
        <path id="Trazado_877839" data-name="Trazado 877839" d="M260.72,788.064l8.652,8.949V777.586H260.72Z" transform="translate(-226.846 -676.558)" fill="#fda4ff"/>
        <path id="Trazado_877840" data-name="Trazado 877840" d="M260.72,780.846v-3.26h8.652v7.2a8.189,8.189,0,0,1-4.124-.236,8.378,8.378,0,0,1-4.528-3.7" transform="translate(-226.846 -676.558)"/>
        <path id="Trazado_877841" data-name="Trazado 877841" d="M250.513,708.9c0,4.165,3.074,7.542,6.866,7.542s6.866-3.377,6.866-7.542-3.074-7.542-6.866-7.542-6.866,3.377-6.866,7.542" transform="translate(-217.965 -610.234)" fill="#fda4ff"/>
        <path id="Trazado_877842" data-name="Trazado 877842" d="M261.989,714.812a6.344,6.344,0,0,1-5.471-2.322.286.286,0,0,1,.421-.387,5.791,5.791,0,0,0,5.049,2.137c3.628,0,6.58-3.255,6.58-7.256s-2.952-7.256-6.58-7.256a6.437,6.437,0,0,0-5.641,3.518.286.286,0,1,1-.5-.275,7.091,7.091,0,0,1,6.143-3.815c3.944,0,7.152,3.511,7.152,7.828s-3.208,7.828-7.152,7.828" transform="translate(-222.575 -608.318)"/>
        <path id="Trazado_877843" data-name="Trazado 877843" d="M279.7,775.007a3.638,3.638,0,0,0,1.08,2.039,3.7,3.7,0,0,0,4.782.272Z" transform="translate(-243.358 -674.314)" fill="#fff"/>
        <path id="Trazado_877844" data-name="Trazado 877844" d="M257.379,701.359c-3.792,0-6.866,3.377-6.866,7.542a8.346,8.346,0,0,0,.074,1.1l1.479-3.4,11.893.143a6.987,6.987,0,0,0-6.58-5.385" transform="translate(-217.965 -610.234)"/>
        <path id="Trazado_877845" data-name="Trazado 877845" d="M272.081,1523.458h34.134l18.307-45.24H290.388Z" transform="translate(-236.731 -1286.159)" fill="#8c7bff"/>
        <path id="Trazado_877846" data-name="Trazado 877846" d="M367.377,1492.859l5.925-14.643h34.134L398.9,1499.3c-6.543-.255-5.706-4.375-13.735-3.7-8.936.748-12.416.936-17.792-2.738" transform="translate(-319.645 -1286.158)"/>
        <path id="Trazado_877847" data-name="Trazado 877847" d="M95.1,1367.386l.815-4.942H175.95a17.534,17.534,0,0,1,16,10.361l22.621,49.921h-36.14l-13.817-30.8H115.892a21.092,21.092,0,0,1-20.8-24.537" transform="translate(-82.492 -1185.427)" fill="#8c7bff"/>
        <path id="Trazado_877848" data-name="Trazado 877848" d="M688.779,1376.62a21.24,21.24,0,0,1-24.911-14.176h7.2a17.534,17.534,0,0,1,16,10.361Z" transform="translate(-577.614 -1185.427)" fill="#6155ff"/>
        <path id="Trazado_877849" data-name="Trazado 877849" d="M176.534,1421.095a.286.286,0,0,1-.261-.169l-13.741-30.634H114a21.379,21.379,0,0,1-21.078-24.87l.855-5.182h80.281a17.845,17.845,0,0,1,16.256,10.531l22.621,49.92a.286.286,0,0,1-.521.236l-22.621-49.921a17.273,17.273,0,0,0-15.735-10.194h-79.8l-.775,4.7A20.807,20.807,0,0,0,114,1389.72h48.9l13.893,30.972a.286.286,0,0,1-.261.4" transform="translate(-80.6 -1183.51)"/>
        <path id="Trazado_877850" data-name="Trazado 877850" d="M99.176,1364.221c39.671,4.11,26.641-1.932,67.049-2.882l-.151-.578-66.28.213s-.311,2-.617,3.247" transform="translate(-86.29 -1183.963)"/>
        <path id="Trazado_877851" data-name="Trazado 877851" d="M167.781,1367.76H1.132v-6.893H167.781ZM1.7,1367.188h165.5v-5.749H1.7Z" transform="translate(-0.985 -1184.055)"/>
        <path id="Trazado_877852" data-name="Trazado 877852" d="M1167.079,1463.969a.286.286,0,0,1-.286-.286v-53.594h-5.741v53.594a.286.286,0,1,1-.572,0v-54.166h6.886v54.166a.286.286,0,0,1-.286.286" transform="translate(-1009.703 -1226.384)"/>
        <path id="Trazado_877853" data-name="Trazado 877853" d="M78.035,1463.969a.286.286,0,0,1-.286-.286v-53.594H72.007v53.594a.286.286,0,1,1-.572,0v-54.166h6.886v54.166a.286.286,0,0,1-.286.286" transform="translate(-62.154 -1226.384)"/>
        <rect id="Rectángulo_402536" data-name="Rectángulo 402536" width="79.946" height="48.816" transform="translate(76.523 14.235)" fill="#fff"/>
        <rect id="Rectángulo_402537" data-name="Rectángulo 402537" width="80.037" height="7.815" transform="translate(76.432 7.051)" fill="#00ffdf"/>
        <path id="Trazado_877854" data-name="Trazado 877854" d="M606.954,72.581a1.736,1.736,0,1,0,1.735-1.725,1.73,1.73,0,0,0-1.735,1.725" transform="translate(-528.095 -61.65)" fill="#fff"/>
        <path id="Trazado_877855" data-name="Trazado 877855" d="M650.882,72.581a1.736,1.736,0,1,0,1.735-1.725,1.73,1.73,0,0,0-1.735,1.725" transform="translate(-566.316 -61.65)" fill="#fff"/>
        <path id="Trazado_877856" data-name="Trazado 877856" d="M694.81,72.581a1.736,1.736,0,1,0,1.735-1.725,1.73,1.73,0,0,0-1.735,1.725" transform="translate(-604.536 -61.65)" fill="#fff"/>
        <path id="Trazado_877857" data-name="Trazado 877857" d="M666.4,108.636H586.36a.286.286,0,0,1-.286-.286v-56a.286.286,0,0,1,.286-.286H666.4a.286.286,0,0,1,.286.286v56a.286.286,0,0,1-.286.286m-79.751-.572h79.465V52.635H586.646Z" transform="translate(-509.928 -45.299)"/>
        <path id="Trazado_877858" data-name="Trazado 877858" d="M767.132,235.443a6.223,6.223,0,0,1-2.381-1.918l1.9-2.292a4.341,4.341,0,0,0,3.578,2.06q2.8,0,2.805-3.322v-9.322H766.63v-2.807h9.755v11.949a6.555,6.555,0,0,1-1.544,4.751,6.049,6.049,0,0,1-4.53,1.584,7.39,7.39,0,0,1-3.179-.683" transform="translate(-665.39 -189.539)"/>
        <path id="Trazado_877859" data-name="Trazado 877859" d="M881.735,233.807a8.4,8.4,0,0,1-3.076-1.571l1.158-2.6a9.117,9.117,0,0,0,2.715,1.429,9.857,9.857,0,0,0,3.23.554,5.578,5.578,0,0,0,3-.644,1.95,1.95,0,0,0,.991-1.7A1.647,1.647,0,0,0,889.2,228a3.892,3.892,0,0,0-1.4-.785q-.849-.283-2.316-.644a26.893,26.893,0,0,1-3.333-.979,5.481,5.481,0,0,1-2.188-1.532,4.127,4.127,0,0,1-.914-2.82,4.813,4.813,0,0,1,.811-2.717,5.49,5.49,0,0,1,2.445-1.944,9.906,9.906,0,0,1,4-.721,12.936,12.936,0,0,1,3.243.412,8.96,8.96,0,0,1,2.754,1.185l-1.055,2.6A10.432,10.432,0,0,0,888.774,219a9.239,9.239,0,0,0-2.5-.36,5.213,5.213,0,0,0-2.947.67,2.066,2.066,0,0,0-.965,1.777,1.606,1.606,0,0,0,.553,1.262,3.992,3.992,0,0,0,1.4.773q.849.283,2.316.644a24.316,24.316,0,0,1,3.294.966,5.648,5.648,0,0,1,2.2,1.532,4.041,4.041,0,0,1,.914,2.781,4.752,4.752,0,0,1-.811,2.7,5.512,5.512,0,0,1-2.458,1.931,10,10,0,0,1-4.015.721,13.738,13.738,0,0,1-4.028-.592" transform="translate(-764.499 -187.812)"/>
        <path id="Trazado_877860" data-name="Trazado 877860" d="M1248.876,591.466l-2.193-2.169a35.4,35.4,0,0,1,49.664,0l-2.193,2.168a32.271,32.271,0,0,0-45.279,0" transform="translate(-1084.708 -503.882)" fill="#8c7bff"/>
        <path id="Trazado_877861" data-name="Trazado 877861" d="M1324.885,647.319a24.582,24.582,0,0,0-34.491,0l-2.192-2.168a27.707,27.707,0,0,1,38.876,0Z" transform="translate(-1120.831 -554.401)" fill="#8c7bff"/>
        <path id="Trazado_877862" data-name="Trazado 877862" d="M1329.561,700.014l-2.193-2.169a20.454,20.454,0,0,1,28.7,0l-2.193,2.168a17.329,17.329,0,0,0-24.313,0" transform="translate(-1154.909 -602.064)" fill="#8c7bff"/>
        <path id="Trazado_877863" data-name="Trazado 877863" d="M1383.4,753.724a9.951,9.951,0,0,0-13.947,0l-2.193-2.169a13.081,13.081,0,0,1,18.332,0Z" transform="translate(-1189.62 -650.648)" fill="#8c7bff"/>
        <path id="Trazado_877864" data-name="Trazado 877864" d="M1411.359,804.522a2.948,2.948,0,0,0-4.131,0l-2.193-2.169a6.077,6.077,0,0,1,8.517,0Z" transform="translate(-1222.485 -696.592)" fill="#8c7bff"/>
        <path id="Trazado_877865" data-name="Trazado 877865" d="M1510.233,230.839h0l-7.684-.005a.286.286,0,0,1-.286-.286l0-4.549a16.863,16.863,0,0,1-4.574-1.892l-3.227,3.216a.286.286,0,0,1-.4,0l-5.437-5.419a.286.286,0,0,1,0-.405l3.226-3.215c-.26-.432-.5-.879-.722-1.332a.286.286,0,1,1,.515-.25,16.429,16.429,0,0,0,.813,1.475.286.286,0,0,1-.041.353l-3.182,3.172,5.032,5.015,3.183-3.173a.286.286,0,0,1,.352-.041,16.3,16.3,0,0,0,4.818,1.993.286.286,0,0,1,.22.278l0,4.488,7.112,0,0-4.487a.286.286,0,0,1,.221-.279,16.249,16.249,0,0,0,4.815-1.987.286.286,0,0,1,.352.041l3.188,3.178,5.024-5.008-3.187-3.176a.286.286,0,0,1-.041-.353,16.406,16.406,0,0,0,.82-1.493.286.286,0,1,1,.515.249c-.221.459-.467.913-.731,1.351l3.23,3.22a.286.286,0,0,1,0,.405l-5.43,5.412a.286.286,0,0,1-.4,0l-3.232-3.221a16.82,16.82,0,0,1-4.57,1.886l0,4.548a.286.286,0,0,1-.286.286m-3.843-11.273h-.007a9.99,9.99,0,0,1-6.64-2.526.286.286,0,1,1,.38-.427,9.418,9.418,0,0,0,6.26,2.381h.006a9.394,9.394,0,0,0,6.259-2.38.286.286,0,0,1,.38.427,9.965,9.965,0,0,1-6.64,2.526" transform="translate(-1295.135 -188.405)" fill="#fda4ff"/>
      </g>
    </g>
    <g id="Enmascarar_grupo_1098709" data-name="Enmascarar grupo 1098709" transform="translate(-14 -427)" clip-path="url(#clip-path-2)">
      <g transform="matrix(1, 0, 0, 1, 614, 2475)" filter="url(#Trazado_877866)">
        <g id="Trazado_877866-2" data-name="Trazado 877866" transform="translate(-52.2 137.36)" fill="none">
          <path d="M47.744,0A47.744,47.744,0,1,1,0,47.744,47.744,47.744,0,0,1,47.744,0Z" stroke="none"/>
          <path d="M 47.74413681030273 16 C 30.2403564453125 16 16 30.2403564453125 16 47.74413681030273 C 16 65.24791717529297 30.2403564453125 79.48827362060547 47.74413681030273 79.48827362060547 C 65.24791717529297 79.48827362060547 79.48827362060547 65.24791717529297 79.48827362060547 47.74413681030273 C 79.48827362060547 30.2403564453125 65.24791717529297 16 47.74413681030273 16 M 47.74413681030273 0 C 74.11249542236328 0 95.48827362060547 21.37577819824219 95.48827362060547 47.74413681030273 C 95.48827362060547 74.11249542236328 74.11249542236328 95.48827362060547 47.74413681030273 95.48827362060547 C 21.37577819824219 95.48827362060547 0 74.11249542236328 0 47.74413681030273 C 0 21.37577819824219 21.37577819824219 0 47.74413681030273 0 Z" stroke="none" fill="#f0c518"/>
        </g>
      </g>
    </g>
    <g transform="matrix(1, 0, 0, 1, 600, 2048)" filter="url(#Elipse_11611)">
      <g id="Elipse_11611-2" data-name="Elipse 11611" transform="translate(331.5 30.42)" fill="none" stroke="#a854f3" stroke-width="6">
        <circle cx="21.5" cy="21.5" r="21.5" stroke="none"/>
        <circle cx="21.5" cy="21.5" r="18.5" fill="none"/>
      </g>
    </g>
    <circle id="Elipse_11612" data-name="Elipse 11612" cx="16" cy="16" r="16" transform="translate(953 2067.919)" fill="url(#linear-gradient)"/>
  </g>
</svg>
