<svg xmlns="http://www.w3.org/2000/svg" width="85" height="92" viewBox="0 0 85 92">
  <g id="_4" data-name="4" transform="translate(-180 -380)">
    <rect id="Rectángulo_401110" data-name="Rectángulo 401110" width="85" height="92" transform="translate(180 380)" fill="#fff3c1"/>
    <g id="Grupo_1099721" data-name="Grupo 1099721" transform="translate(196.723 388.301)">
      <path id="Trazado_873824" data-name="Trazado 873824" d="M38.416,0V2.966H35.669V0h-3V8.985h3V5.976h2.747V8.985h3V0Z" transform="translate(-25.212)"/>
      <path id="Trazado_873825" data-name="Trazado 873825" d="M76.751,0v2.98H79.4V8.985h3V2.979h2.646V0Z" transform="translate(-59.238)"/>
      <path id="Trazado_873826" data-name="Trazado 873826" d="M125.845,0l-1.924,3.157L121.994,0h-3.132V8.985H121.8V4.532l2.068,3.195h.052l2.066-3.195V8.985h2.991V0Z" transform="translate(-91.739)"/>
      <path id="Trazado_873827" data-name="Trazado 873827" d="M169.745,0V8.985h7.228V6.015h-4.223V0Z" transform="translate(-131.011)"/>
      <path id="Trazado_873828" data-name="Trazado 873828" d="M0,64.951l4.861,54.524,21.813,6.056,21.874-6.064,4.866-54.515Z" transform="translate(0 -50.131)" fill="#e44d26"/>
      <path id="Trazado_873829" data-name="Trazado 873829" d="M134.719,131.074l4.159-46.585H117.044v51.486Z" transform="translate(-90.336 -65.211)" fill="#f16529"/>
      <path id="Trazado_873830" data-name="Trazado 873830" d="M60.415,120.48H76.544l.6-6.687h-33.5l1.8,20.222H68.626l-.777,8.672L60.392,144.7h0l-.006,0-7.447-2.011-.476-5.333H45.75l.937,10.5,13.7,3.8.031-.009h0L74.1,147.858l1.835-20.529H51.566l-.611-6.848h9.46Z" transform="translate(-33.687 -87.828)" fill="#fff"/>
      <path id="Trazado_873831" data-name="Trazado 873831" d="M67.507,224.408h0l-.006,0L60.051,222.4l-.476-5.333H52.862l.937,10.5,13.7,3.8.011,0Z" transform="translate(-40.8 -167.536)" fill="#ebebeb"/>
      <path id="Trazado_873832" data-name="Trazado 873832" d="M60.394,134.016v-6.687H51.566l-.611-6.848h9.44v-6.687H43.646l1.8,20.222H60.394Z" transform="translate(-33.687 -87.828)" fill="#ebebeb"/>
    </g>
  </g>
</svg>
