<svg id="_42" data-name="42" xmlns="http://www.w3.org/2000/svg" xmlns:xlink="http://www.w3.org/1999/xlink" width="377.914" height="243.815" viewBox="0 0 377.914 243.815">
  <defs>
    <clipPath id="clip-path">
      <rect id="Rectángulo_402701" data-name="Rectángulo 402701" width="377.914" height="243.815" fill="none"/>
    </clipPath>
    <clipPath id="clip-path-2">
      <path id="Trazado_878064" data-name="Trazado 878064" d="M301.214,235.775a11.91,11.91,0,0,0-11.169,7.774l-24.287,65.579H206.894v6.79H381.467l31.034-73.93a3.458,3.458,0,0,0,.009-2.418,5.564,5.564,0,0,0-5.338-3.8Z" transform="translate(-206.894 -235.775)" fill="none"/>
    </clipPath>
  </defs>
  <g id="Grupo_1100803" data-name="Grupo 1100803">
    <g id="Grupo_1100802" data-name="Grupo 1100802" clip-path="url(#clip-path)">
      <path id="Trazado_878037" data-name="Trazado 878037" d="M464.758,183.1H300.565a12.17,12.17,0,0,1-12.17-12.17V50.6H472.038V175.825a7.28,7.28,0,0,1-7.28,7.28" transform="translate(-95.777 -16.804)" fill="#fff"/>
      <path id="Trazado_878038" data-name="Trazado 878038" d="M464.657,183.208H300.463a12.388,12.388,0,0,1-12.373-12.374V50.294H472.14v125.43a7.492,7.492,0,0,1-7.483,7.484M288.5,50.7V170.834A11.98,11.98,0,0,0,300.463,182.8H464.657a7.084,7.084,0,0,0,7.076-7.076V50.7Z" transform="translate(-95.676 -16.703)" fill="#0d0f44"/>
      <path id="Trazado_878039" data-name="Trazado 878039" d="M489.883,218.149H369.848V192.876H489.883Zm-119.627-.407h119.22V193.283H370.255Z" transform="translate(-122.828 -64.055)" fill="#dbdfeb"/>
      <path id="Trazado_878040" data-name="Trazado 878040" d="M389.015,78.745H374.168a4.014,4.014,0,0,1-4.014-4.015v-.053a4.015,4.015,0,0,1,4.014-4.015h14.847a4.015,4.015,0,0,1,4.015,4.015v.053a4.015,4.015,0,0,1-4.015,4.015" transform="translate(-122.93 -23.467)" fill="#ecd10c"/>
      <path id="Trazado_878041" data-name="Trazado 878041" d="M389.015,103.141H374.168a4.014,4.014,0,0,1-4.014-4.015v-.053a4.015,4.015,0,0,1,4.014-4.015h14.847a4.015,4.015,0,0,1,4.015,4.015v.053a4.015,4.015,0,0,1-4.015,4.015" transform="translate(-122.93 -31.569)" fill="#ecd10c"/>
      <path id="Trazado_878042" data-name="Trazado 878042" d="M389.015,127.537H374.168a4.014,4.014,0,0,1-4.014-4.015v-.053a4.014,4.014,0,0,1,4.014-4.015h14.847a4.015,4.015,0,0,1,4.015,4.015v.053a4.015,4.015,0,0,1-4.015,4.015" transform="translate(-122.93 -39.671)" fill="#ecd10c"/>
      <path id="Trazado_878043" data-name="Trazado 878043" d="M389.015,151.932H374.168a4.014,4.014,0,0,1-4.014-4.015v-.053a4.015,4.015,0,0,1,4.014-4.015h14.847a4.015,4.015,0,0,1,4.015,4.015v.053a4.015,4.015,0,0,1-4.015,4.015" transform="translate(-122.93 -47.773)" fill="#ecd10c"/>
      <path id="Trazado_878044" data-name="Trazado 878044" d="M389.015,176.328H374.168a4.014,4.014,0,0,1-4.014-4.015v-.053a4.015,4.015,0,0,1,4.014-4.015h14.847a4.015,4.015,0,0,1,4.015,4.015v.053a4.015,4.015,0,0,1-4.015,4.015" transform="translate(-122.93 -55.875)" fill="#ecd10c"/>
      <path id="Trazado_878045" data-name="Trazado 878045" d="M439.47,78.745H417.122a4.014,4.014,0,0,1-4.014-4.015v-.053a4.015,4.015,0,0,1,4.014-4.015H439.47a4.015,4.015,0,0,1,4.015,4.015v.053a4.015,4.015,0,0,1-4.015,4.015" transform="translate(-137.195 -23.467)" fill="#c0cfff"/>
      <path id="Trazado_878046" data-name="Trazado 878046" d="M428.031,103.141H417.122a4.015,4.015,0,0,1-4.015-4.015v-.053a4.015,4.015,0,0,1,4.015-4.015h10.909a4.015,4.015,0,0,1,4.015,4.015v.053a4.015,4.015,0,0,1-4.015,4.015" transform="translate(-137.195 -31.569)" fill="#c0cfff"/>
      <path id="Trazado_878047" data-name="Trazado 878047" d="M428.031,151.932H417.122a4.015,4.015,0,0,1-4.015-4.015v-.053a4.015,4.015,0,0,1,4.015-4.015h10.909a4.015,4.015,0,0,1,4.015,4.015v.053a4.015,4.015,0,0,1-4.015,4.015" transform="translate(-137.195 -47.773)" fill="#c0cfff"/>
      <path id="Trazado_878048" data-name="Trazado 878048" d="M471.346,127.537H417.122a4.014,4.014,0,0,1-4.014-4.015v-.053a4.014,4.014,0,0,1,4.014-4.015h54.224a4.015,4.015,0,0,1,4.015,4.015v.053a4.015,4.015,0,0,1-4.015,4.015" transform="translate(-137.195 -39.671)" fill="#dbdfeb"/>
      <path id="Trazado_878049" data-name="Trazado 878049" d="M471.346,176.328H417.122a4.014,4.014,0,0,1-4.014-4.015v-.053a4.015,4.015,0,0,1,4.014-4.015h54.224a4.015,4.015,0,0,1,4.015,4.015v.053a4.015,4.015,0,0,1-4.015,4.015" transform="translate(-137.195 -55.875)" fill="#dbdfeb"/>
      <path id="Trazado_878050" data-name="Trazado 878050" d="M507.655,103.141H454.181a4.014,4.014,0,0,1-4.014-4.015v-.053a4.015,4.015,0,0,1,4.014-4.015h53.474a4.015,4.015,0,0,1,4.015,4.015v.053a4.015,4.015,0,0,1-4.015,4.015" transform="translate(-149.502 -31.569)" fill="#dbdfeb"/>
      <path id="Trazado_878051" data-name="Trazado 878051" d="M512.131,78.745H467.657a4.014,4.014,0,0,1-4.014-4.015v-.053a4.015,4.015,0,0,1,4.014-4.015h44.474a4.015,4.015,0,0,1,4.015,4.015v.053a4.015,4.015,0,0,1-4.015,4.015" transform="translate(-153.978 -23.467)" fill="#dbdfeb"/>
      <path id="Trazado_878052" data-name="Trazado 878052" d="M498.655,151.932H454.181a4.015,4.015,0,0,1-4.015-4.015v-.053a4.015,4.015,0,0,1,4.015-4.015h44.474a4.015,4.015,0,0,1,4.015,4.015v.053a4.015,4.015,0,0,1-4.015,4.015" transform="translate(-149.502 -47.773)" fill="#dbdfeb"/>
      <path id="Trazado_878053" data-name="Trazado 878053" d="M338.482,205.785H300.158V155.647h38.324Zm-37.917-.407h37.509V156.054H300.565Z" transform="translate(-99.684 -51.691)" fill="#dbdfeb"/>
      <rect id="Rectángulo_402699" data-name="Rectángulo 402699" width="185.296" height="18.121" transform="translate(192.618 16.408)" fill="#00ffdf"/>
      <path id="Trazado_878054" data-name="Trazado 878054" d="M49.464,325.937l-10.7,22h62.48l19.676-25.807Z" transform="translate(-12.873 -106.979)" fill="#00ffdf"/>
      <path id="Trazado_878055" data-name="Trazado 878055" d="M190.825,324.552l-1.381,21.32H129.726l9.665-29.95Z" transform="translate(-43.083 -104.919)" fill="#00ffdf"/>
      <path id="Trazado_878056" data-name="Trazado 878056" d="M148.688,120.545s-32.448-2.558-57.3,42.388-42.8,96.725-42.8,96.725H167.329s24.164-71.251,23.473-96.725-22.783-42.544-42.114-42.388" transform="translate(-16.134 -40.025)" fill="#a854f3"/>
      <path id="Trazado_878057" data-name="Trazado 878057" d="M302.4,180.9l16.914,11.219L354.872,155.7l15.056,12.305s-27.483,57.6-43.535,63.982c-6.19,2.463-45.711-20.5-45.711-20.5Z" transform="translate(-93.216 -51.71)" fill="#f4b4a4"/>
      <path id="Trazado_878058" data-name="Trazado 878058" d="M240.781,142.372l45.646,34.1s-3.106,26.926-21.4,40.733l-32.448-19.862Z" transform="translate(-77.24 -47.282)" fill="#a854f3"/>
      <path id="Trazado_878059" data-name="Trazado 878059" d="M266.3,54.932c-2.382-21.642-16.926-28.519-32.215-27.129C205.7,31.7,211.661,78.93,211.669,80.894c-5.062,6.062-10.819,6.273-14.5,8.729a25.917,25.917,0,0,0,2.408,7.429,17.92,17.92,0,0,0,7.634,7.289,42.977,42.977,0,0,0,13.051,4.178,52.751,52.751,0,0,0,9.442.714,2.476,2.476,0,0,0,2.362-1.883c.877-3.532,1.765-6.992,2.507-9.475,1.918.685,8.965,3.475,11.273,3.732,17.87,1.986,22.841-25.031,20.458-46.674" transform="translate(-65.48 -9.176)" fill="#f4b4a4"/>
      <path id="Trazado_878060" data-name="Trazado 878060" d="M240.551,61.787s-3.267-17.95,3.892-19.457,2.889,3.126,11.052.614,11.738.812,11.738.812,8.985.443,9.487-7.092-5.4-9.043-5.4-9.043,6.907-6.782-2.638-14.191-16.578,0-16.578,0,.377-6.656-5.4-6.531-6.154,3.265-6.154,3.265,1.256-4.647-7.41-5.652S217.692,9.16,218.069,18.831c0,0-6.028-2.009-7.284,2.01s0,4.144,0,4.144-2.889-2.135-6.028,1-6.543,20.5,3,22.76a34.107,34.107,0,0,0,4.906,17.363s23.141-3.548,27.888-4.325" transform="translate(-66.919 -1.461)" fill="#0d0f44"/>
      <rect id="Rectángulo_402700" data-name="Rectángulo 402700" width="329.314" height="5.725" transform="translate(0 238.09)" fill="#dbdfeb"/>
      <path id="Trazado_878061" data-name="Trazado 878061" d="M412.51,239.572a5.565,5.565,0,0,0-5.338-3.8H301.214a11.909,11.909,0,0,0-11.169,7.774l-24.287,65.58H206.894v6.79H381.467l31.034-73.93a3.462,3.462,0,0,0,.01-2.418" transform="translate(-68.71 -78.302)" fill="#0d0f44"/>
      <path id="Trazado_878062" data-name="Trazado 878062" d="M418.934,286.553c1.729,4.314-2.358,10.009-9.128,12.721s-13.657,1.413-15.386-2.9,2.36-10.009,9.128-12.721,13.658-1.413,15.386,2.9" transform="translate(-130.857 -93.732)" fill="#dbdfeb"/>
    </g>
  </g>
  <g id="Grupo_1100805" data-name="Grupo 1100805" transform="translate(138.184 157.473)">
    <g id="Grupo_1100804" data-name="Grupo 1100804" clip-path="url(#clip-path-2)">
      <path id="Trazado_878063" data-name="Trazado 878063" d="M294.968,318.082l-.343-.132,26.681-69.3a10.3,10.3,0,0,1,9.558-6.562H433.483a11.585,11.585,0,0,1,10.133,5.974l1.666,3.01-.321.178-1.666-3.009a11.218,11.218,0,0,0-9.812-5.785H330.864a9.933,9.933,0,0,0-9.216,6.326Z" transform="translate(-236.03 -237.872)" fill="#f3eed9"/>
      <rect id="Rectángulo_402702" data-name="Rectángulo 402702" width="10.394" height="0.367" transform="translate(54.621 83.043) rotate(-69.785)" fill="#f3eed9"/>
    </g>
  </g>
  <g id="Grupo_1100807" data-name="Grupo 1100807">
    <g id="Grupo_1100806" data-name="Grupo 1100806" clip-path="url(#clip-path)">
      <path id="Trazado_878065" data-name="Trazado 878065" d="M238.587,76.452a8.579,8.579,0,0,0-5.067-5.227c-2.223-.809-5.011-.739-7.272,2.778-4.521,7.033.226,16.3,6,17.051,5.243.684,9.452-5.873,6.336-14.6" transform="translate(-74.541 -23.514)" fill="#f4b4a4"/>
      <path id="Trazado_878066" data-name="Trazado 878066" d="M130.43,283.7l2.745,18.033s-90.81-13.347-90.8-34.664C42.384,259.3,55,238.058,60.321,228.931c1.534-2.637,2.511-4.252,2.511-4.252l33.4,14.76,5.7,2.515-.112.165L94.489,252.8,89.5,260.075Z" transform="translate(-14.074 -74.617)" fill="#f4b4a4"/>
      <path id="Trazado_878067" data-name="Trazado 878067" d="M110.735,241.464l-7.325,10.681-34.168-23.87c.007-.013,2.426-5.574,2.426-5.574l33.483,16.082Z" transform="translate(-22.996 -73.96)" fill="#0d0f44"/>
      <path id="Trazado_878068" data-name="Trazado 878068" d="M113.964,219.42l-47.292-25.8s30.6-61.949,63.283-62.467-15.991,88.268-15.991,88.268" transform="translate(-22.142 -43.555)" fill="#a854f3"/>
      <path id="Trazado_878069" data-name="Trazado 878069" d="M437.163,141.742c-2.547-.4-10.765,2.006-10.765,2.006l-6.656.108,7.859-7.325s5.813-3.605,8.218-5.409,1.8-5.411,1.344-5.612c-.333-.145-8.281,3.193-12.614,5.035-3.052-4.185-7.973-1.026-7.973-1.026l-.553.431a6.214,6.214,0,0,0-1.551-.987,7.1,7.1,0,0,0-7.621,1.319l-8.915,8.057-9.019,9.22c-3.276,3.349,16.836,10.423,16.836,10.423l5.1-5.181,6.723-.832L427.8,149.16s8.9-3.207,9.362-3.808,2.547-3.211,0-3.61" transform="translate(-129.041 -41.68)" fill="#f4b4a4"/>
      <path id="Trazado_878070" data-name="Trazado 878070" d="M286.736,82.5c0,1.723-.747,3.12-1.668,3.12s-1.668-1.4-1.668-3.12.747-3.119,1.668-3.119,1.668,1.4,1.668,3.119" transform="translate(-94.118 -26.363)" fill="#0d0f44"/>
      <path id="Trazado_878071" data-name="Trazado 878071" d="M297.817,84.053s2.186,6.431,4.257,12.3c1.219,3.453-6.789,2.186-6.789,2.186s.115-12.633,2.531-14.486" transform="translate(-98.066 -27.914)" fill="#f4b4a4"/>
      <path id="Trazado_878072" data-name="Trazado 878072" d="M275.111,111.366l2.186-3.8a6.212,6.212,0,0,1,4.027-3.072,2.064,2.064,0,0,0,1.571-1.957,7.551,7.551,0,0,0-.184-2.223l-1.621-.038a12.3,12.3,0,0,0-6.439,4.874l-1.668,3.337a9.4,9.4,0,0,1-5.465-1.381c-2.187-1.611-12.369-18.386-12.369-18.386l-8.138,2.428s.441,15.152,1.556,20.79,2.865,9.435,5.672,11.507,12.412,4.948,15.261,4.373c2.73-.551,9.753-8.4,8.963-16.159a2.489,2.489,0,0,1-3.352-.3" transform="translate(-82.033 -29.465)" fill="#0d0f44"/>
      <path id="Trazado_878073" data-name="Trazado 878073" d="M138.591,235.777l-.291-.224c15.34-19.945,24.555-51.293,24.647-51.607l.352.1c-.091.315-9.326,31.729-24.707,51.729" transform="translate(-45.93 -61.089)" fill="#0d0f44"/>
      <path id="Trazado_878074" data-name="Trazado 878074" d="M253.2,224c2.1-8.41,5.073-26.767,5.073-26.767a69.057,69.057,0,0,1,0,29.872Z" transform="translate(-84.09 -65.501)" fill="#0d0f44"/>
      <path id="Trazado_878075" data-name="Trazado 878075" d="M104.751,276.174c-4.915-3.546-16-3.076-16.11-3.072l-.017-.367c.46-.021,11.322-.481,16.341,3.14Z" transform="translate(-29.433 -90.567)" fill="#0d0f44"/>
      <path id="Trazado_878076" data-name="Trazado 878076" d="M344.362,223.637l-.366-.031c.689-8-5.58-13.253-5.643-13.305l.234-.283c.065.053,6.48,5.435,5.775,13.62" transform="translate(-112.368 -69.748)" fill="#0d0f44"/>
      <path id="Trazado_878077" data-name="Trazado 878077" d="M217.954,324.243c.179-.743-5.772-9.568-5.772-9.568s-11.447-13.621-14.439-14.072-6.8,1.62-12.74,4.775a30.279,30.279,0,0,1-10.879,3.511l-.179.474,1.165,17.28,5.7.9c8.88,1.251,12.353-6.829,12.353-6.829l7.221-7.2,3.328,6.26-1.719,8.3s2,3.736,4.388-1.465a40.776,40.776,0,0,0,2.847-7.508,66.464,66.464,0,0,0,5.058,4.983c1.861,1.348,3.486.9,3.665.161" transform="translate(-57.768 -99.811)" fill="#f4b4a4"/>
      <path id="Trazado_878078" data-name="Trazado 878078" d="M205.678,319.335l3.156,5.17-2.364,3.84a1.672,1.672,0,0,0,2.578,2.115c.071-.079-.132-.268-.059-.358,2.387-2.931,5.509-7.431,5.509-7.431l-.881-7.433Z" transform="translate(-68.307 -104.692)" fill="#f4b4a4"/>
      <rect id="Rectángulo_402703" data-name="Rectángulo 402703" width="37.772" height="49.334" transform="translate(200.822 45.756)" fill="#dbdfeb"/>
      <path id="Trazado_878079" data-name="Trazado 878079" d="M499.405,40.869H488.5a4.014,4.014,0,0,1-4.015-4.014V36.8a4.015,4.015,0,0,1,4.015-4.015h10.909A4.015,4.015,0,0,1,503.42,36.8v.054a4.014,4.014,0,0,1-4.015,4.014" transform="translate(-160.898 -10.888)" fill="#fff"/>
      <path id="Trazado_878080" data-name="Trazado 878080" d="M543,40.869H532.089a4.014,4.014,0,0,1-4.015-4.014V36.8a4.015,4.015,0,0,1,4.015-4.015H543a4.015,4.015,0,0,1,4.015,4.015v.054A4.014,4.014,0,0,1,543,40.869" transform="translate(-175.376 -10.888)" fill="#fff"/>
      <rect id="Rectángulo_402704" data-name="Rectángulo 402704" width="59.573" height="59.573" transform="translate(41.333 3.916)" fill="#ecd10c"/>
      <rect id="Rectángulo_402705" data-name="Rectángulo 402705" width="84.249" height="0.407" transform="translate(41.189 63.345) rotate(-45)" fill="#0d0f44"/>
      <rect id="Rectángulo_402706" data-name="Rectángulo 402706" width="0.407" height="84.249" transform="translate(41.189 4.06) rotate(-45)" fill="#0d0f44"/>
      <path id="Trazado_878081" data-name="Trazado 878081" d="M55.25,13.7h-.407V0h12.2V.407H55.25Z" transform="translate(-18.214 0)" fill="#0d0f44"/>
      <path id="Trazado_878082" data-name="Trazado 878082" d="M68.524,95.53H54.82v-12.2h.407v11.8h13.3Z" transform="translate(-18.206 -27.673)" fill="#0d0f44"/>
      <path id="Trazado_878083" data-name="Trazado 878083" d="M151.628,13.7h-.407V.407h-11.8V0h12.2Z" transform="translate(-46.303 0)" fill="#0d0f44"/>
      <path id="Trazado_878084" data-name="Trazado 878084" d="M150.905,95.53H137.2v-.407h13.3v-11.8h.407Z" transform="translate(-45.565 -27.673)" fill="#0d0f44"/>
    </g>
  </g>
</svg>
