<svg xmlns="http://www.w3.org/2000/svg" xmlns:xlink="http://www.w3.org/1999/xlink" width="295" height="234" viewBox="0 0 295 234">
  <defs>
    <clipPath id="clip-path">
      <rect id="Rectángulo_402696" data-name="Rectángulo 402696" width="245.618" height="156.305" fill="none"/>
    </clipPath>
    <clipPath id="clip-path-2">
      <rect id="Rectángulo_402697" data-name="Rectángulo 402697" width="65.341" height="44.153" fill="none"/>
    </clipPath>
  </defs>
  <g id="_43" data-name="43" transform="translate(-1125 -8312.128)">
    <g id="Grupo_1100789" data-name="Grupo 1100789" transform="translate(105 7516.128)">
      <rect id="Rectángulo_402507" data-name="Rectángulo 402507" width="295" height="234" rx="8" transform="translate(1020 796)" fill="#ecf2ff"/>
    </g>
    <g id="Grupo_1100796" data-name="Grupo 1100796" transform="translate(1146.711 8353.356)">
      <rect id="Rectángulo_402666" data-name="Rectángulo 402666" width="122.199" height="90.085" transform="translate(24.345 17.161)" fill="#fff"/>
      <path id="Trazado_877978" data-name="Trazado 877978" d="M185.251,134.509H62.817V44.189H185.251Zm-122.2-.235H185.016V44.425H63.052Z" transform="translate(-38.589 -27.146)" fill="#0d0f44"/>
      <rect id="Rectángulo_402667" data-name="Rectángulo 402667" width="60.961" height="42.672" transform="translate(33.089 57.158)" fill="#c0cfff"/>
      <rect id="Rectángulo_402668" data-name="Rectángulo 402668" width="78.374" height="5.759" transform="translate(54.361 22.329)" fill="#c0cfff"/>
      <g id="Grupo_1100791" data-name="Grupo 1100791">
        <g id="Grupo_1100790" data-name="Grupo 1100790" clip-path="url(#clip-path)">
          <path id="Trazado_877979" data-name="Trazado 877979" d="M91.646,239.22s41.573-39.808,85.55-44.316l-35.029,37.789Z" transform="translate(-56.299 -119.732)" fill="#8722e2"/>
          <path id="Trazado_877980" data-name="Trazado 877980" d="M460.275,239.22S418.7,199.412,374.726,194.9l35.029,37.789Z" transform="translate(-230.199 -119.732)" fill="#8722e2"/>
          <path id="Trazado_877981" data-name="Trazado 877981" d="M240.627,194.9s-22.456,7.138-45.725,62.268h117s-11.848-44.75-47.642-62.268Z" transform="translate(-119.731 -119.732)" fill="#8722e2"/>
          <path id="Trazado_877982" data-name="Trazado 877982" d="M215.307,267.321a87.96,87.96,0,0,1,22.017-32.576l-13.5,27.512Z" transform="translate(-132.266 -144.207)" fill="#0d0f44"/>
          <path id="Trazado_877983" data-name="Trazado 877983" d="M459.992,269.5c-7.852-16.371-22.2-28.908-22.2-28.908s12.509,13.566,15.48,28.908Z" transform="translate(-268.939 -147.797)" fill="#0d0f44"/>
          <path id="Trazado_877984" data-name="Trazado 877984" d="M307.981,363.942,164.052,363.2l13-17.751,112.8-1.2Z" transform="translate(-100.779 -211.477)" fill="#fff"/>
          <path id="Trazado_877985" data-name="Trazado 877985" d="M307.883,363.873l-144.43-.744,13.169-17.984h.059l112.852-1.2.035.039ZM163.915,362.9l143.429.739L289.431,344.18l-112.689,1.2Z" transform="translate(-100.411 -211.289)" fill="#0d0f44"/>
          <path id="Trazado_877986" data-name="Trazado 877986" d="M307.9,363.623l-128.883-.349,9.381-13.706h.061l106.782-.985.036.042ZM179.46,363.04l127.932.347-12.26-14.569-106.61.984Z" transform="translate(-109.971 -214.138)" fill="#0d0f44"/>
          <rect id="Rectángulo_402669" data-name="Rectángulo 402669" width="110.386" height="0.235" transform="matrix(1, -0.008, 0.008, 1, 76.919, 137.775)" fill="#0d0f44"/>
          <rect id="Rectángulo_402670" data-name="Rectángulo 402670" width="114.474" height="0.235" transform="translate(75.171 140.273) rotate(-0.282)" fill="#0d0f44"/>
          <rect id="Rectángulo_402671" data-name="Rectángulo 402671" width="118.878" height="0.235" transform="translate(73.296 142.962) rotate(-0.095)" fill="#0d0f44"/>
          <rect id="Rectángulo_402672" data-name="Rectángulo 402672" width="123.637" height="0.235" transform="translate(71.279 145.966)" fill="#0d0f44"/>
          <rect id="Rectángulo_402673" data-name="Rectángulo 402673" width="15.919" height="0.235" transform="translate(74.544 148.967) rotate(-58.134)" fill="#0d0f44"/>
          <rect id="Rectángulo_402674" data-name="Rectángulo 402674" width="15.531" height="0.235" transform="translate(80.125 148.989) rotate(-61)" fill="#0d0f44"/>
          <rect id="Rectángulo_402675" data-name="Rectángulo 402675" width="15.175" height="0.235" transform="translate(85.757 149.01) rotate(-64.024)" fill="#0d0f44"/>
          <rect id="Rectángulo_402676" data-name="Rectángulo 402676" width="14.859" height="0.235" transform="translate(91.454 149.035) rotate(-67.308)" fill="#0d0f44"/>
          <rect id="Rectángulo_402677" data-name="Rectángulo 402677" width="14.586" height="0.235" transform="translate(97.201 149.057) rotate(-70.732)" fill="#0d0f44"/>
          <rect id="Rectángulo_402678" data-name="Rectángulo 402678" width="14.362" height="0.235" transform="translate(103.002 149.078) rotate(-74.3)" fill="#0d0f44"/>
          <rect id="Rectángulo_402679" data-name="Rectángulo 402679" width="14.194" height="0.235" transform="translate(108.868 149.102) rotate(-78.082)" fill="#0d0f44"/>
          <rect id="Rectángulo_402680" data-name="Rectángulo 402680" width="14.087" height="0.235" transform="translate(114.792 149.126) rotate(-81.99)" fill="#0d0f44"/>
          <rect id="Rectángulo_402681" data-name="Rectángulo 402681" width="14.046" height="0.235" transform="translate(120.781 149.151) rotate(-86.055)" fill="#0d0f44"/>
          <rect id="Rectángulo_402682" data-name="Rectángulo 402682" width="0.235" height="14.075" transform="matrix(1, -0.003, 0.003, 1, 126.791, 135.1)" fill="#0d0f44"/>
          <rect id="Rectángulo_402683" data-name="Rectángulo 402683" width="0.236" height="14.179" transform="translate(131.876 135.062) rotate(-4.303)" fill="#0d0f44"/>
          <rect id="Rectángulo_402684" data-name="Rectángulo 402684" width="0.235" height="14.359" transform="matrix(0.989, -0.147, 0.147, 0.989, 137.005, 135.023)" fill="#0d0f44"/>
          <rect id="Rectángulo_402685" data-name="Rectángulo 402685" width="0.235" height="14.617" transform="translate(142.18 134.983) rotate(-12.555)" fill="#0d0f44"/>
          <rect id="Rectángulo_402686" data-name="Rectángulo 402686" width="0.235" height="14.954" transform="translate(147.4 134.943) rotate(-16.573)" fill="#0d0f44"/>
          <rect id="Rectángulo_402687" data-name="Rectángulo 402687" width="0.235" height="15.369" transform="translate(152.667 134.902) rotate(-20.467)" fill="#0d0f44"/>
          <rect id="Rectángulo_402688" data-name="Rectángulo 402688" width="0.235" height="15.86" transform="matrix(0.912, -0.41, 0.41, 0.912, 157.98, 134.86)" fill="#0d0f44"/>
          <rect id="Rectángulo_402689" data-name="Rectángulo 402689" width="0.235" height="16.425" transform="matrix(0.885, -0.466, 0.466, 0.885, 163.341, 134.818)" fill="#0d0f44"/>
          <rect id="Rectángulo_402690" data-name="Rectángulo 402690" width="0.235" height="17.062" transform="matrix(0.856, -0.517, 0.517, 0.856, 168.75, 134.774)" fill="#0d0f44"/>
          <rect id="Rectángulo_402691" data-name="Rectángulo 402691" width="0.235" height="17.768" transform="matrix(0.826, -0.564, 0.564, 0.826, 174.206, 134.729)" fill="#0d0f44"/>
          <rect id="Rectángulo_402692" data-name="Rectángulo 402692" width="0.235" height="18.539" transform="translate(179.712 134.683) rotate(-37.35)" fill="#0d0f44"/>
          <path id="Trazado_877987" data-name="Trazado 877987" d="M100.3,287.042s-16.6,3.841-14.291,17.056,12.754,12.447,23.356,10.142,33.5-15.059,33.5-15.059,6.761,4.253,13.215,2.126L157.414,304v4.046s-1.434,2.817-.666,3.432,1.485.256,2.407-.615a6.963,6.963,0,0,0,1.332-3.022l.922-5.532,1.793,4.3.563,2.817s-1.024,3.073,0,3.995,2.1-.2,2.51-1.485a12.638,12.638,0,0,0,.512-2.458V304.3l-.922-4.712.614-.051,2,4.764,1.076,6.659s-.205,4.354.666,4.917,2.715,1.229,3.176-2.407l-.051-3.278-.41-6.454-1.28-4.968.768-.256,2.049,4.354.922,4.541s-.137,4.1,1.912,3.347,1.5-4.029,1.5-4.029l-.751-7.035s-.888-7.171-1.912-8.4-7.512-4.439-9.22-4.644-54.789-3.6-66.621.393" transform="translate(-52.704 -175.145)" fill="#f3abaa"/>
          <path id="Trazado_877988" data-name="Trazado 877988" d="M314.12,298.756s6.659,2.254,9.937,1.947,2.356,1.229,0,2.766-9.117.717-9.117.717Z" transform="translate(-192.968 -183.529)" fill="#f3abaa"/>
          <path id="Trazado_877989" data-name="Trazado 877989" d="M434.322,300.265s-4.1,3.173-11.269,0l-.922,4.919,1.332,3.483s1.946.512,1.741,1.639-.82,2.151-3.073,1.434-3.278-3.175-4.61-4.3,0-8.3,0-8.3-9.322-4.917-9.117-10.449,15.673-4.815,24.483-2.971,30.22,2.151,36.264,2.151,18.235,4.915,17.108,15.161-8.3,10.346-12.907,10.756-36.162-7.175-39.03-13.525" transform="translate(-250.886 -174.694)" fill="#f3abaa"/>
          <path id="Trazado_877990" data-name="Trazado 877990" d="M418.068,313.4s-3.107,9.821-3.107,10.777,1.434,3.824,2.664,4.508,4.644.888,4.644-.478a32.222,32.222,0,0,0-.683-4.507l2.391-8.742Z" transform="translate(-254.916 -192.525)" fill="#f3abaa"/>
          <path id="Trazado_877991" data-name="Trazado 877991" d="M406.632,306.078s-5.737,6.43-6.078,8.206,0,8.127,0,8.127a3.3,3.3,0,0,0,2.933,2.308c2.394.218,4.9-.517,4.314-1.325s-.094-8.018.086-8.769,2.638-5.723,2.638-5.723Z" transform="translate(-245.972 -188.027)" fill="#f3abaa"/>
          <path id="Trazado_877992" data-name="Trazado 877992" d="M382.647,292.882l-7.28,7.913-5.054,8.25s-4.439,5.122-4.234,6.215,1.844,1.434,4.234.341,5.4-5.463,5.4-5.463l5.6-5.464,6.117-5.338Z" transform="translate(-224.883 -179.921)" fill="#f3abaa"/>
          <path id="Trazado_877993" data-name="Trazado 877993" d="M381.963,290.9a75.621,75.621,0,0,1-11.481,3.474c-6.147,1.3-6.147.047-6.352,2.38s4.029,2.2,6.966,2.127,7.444.847,7.922.7,5.274-5.732,2.944-8.678" transform="translate(-223.685 -178.703)" fill="#f3abaa"/>
          <rect id="Rectángulo_402693" data-name="Rectángulo 402693" width="142.803" height="4.581" transform="translate(63.273 151.724)" fill="#0d0f44"/>
          <path id="Trazado_877994" data-name="Trazado 877994" d="M338.72,181.385c-.565,9.058-13.164,9.512-13.164,9.512s-12.783-.454-13.358-9.512c0,0,1.636-1.745,2.705-7.466a52.369,52.369,0,0,0,.743-6.233h19.677a53.915,53.915,0,0,0,.674,5.9c1.049,5.982,2.723,7.794,2.723,7.794" transform="translate(-191.787 -103.012)" fill="#f3abaa"/>
          <path id="Trazado_877995" data-name="Trazado 877995" d="M340.306,173.591c-9.091,11.02-17.595,4.169-21.094.328a52.362,52.362,0,0,0,.743-6.233h19.677a53.923,53.923,0,0,0,.674,5.9" transform="translate(-196.096 -103.012)" fill="#0d0f44"/>
          <path id="Trazado_877996" data-name="Trazado 877996" d="M331.315,63.049c-6.688-6.193-13.019-5.078-13.019-5.078s-6.331-1.115-13.019,5.078c0,0-5.2,4.6-4.707,16.48.418,10.034,1.475,22.017,11.331,27.591a12.966,12.966,0,0,0,12.789,0c9.856-5.574,10.913-17.556,11.331-27.591.5-11.883-4.707-16.48-4.707-16.48" transform="translate(-184.623 -35.565)" fill="#f3abaa"/>
          <path id="Trazado_877997" data-name="Trazado 877997" d="M296.385,113.422a2.734,2.734,0,0,0-2.984-1.489c-.951.2-1.915.946-2.3,2.971-.874,4.555.68,11.741,4.661,10.915,3.671-.761,2.966-7.672.627-12.4" transform="translate(-178.68 -68.727)" fill="#f3abaa"/>
          <path id="Trazado_877998" data-name="Trazado 877998" d="M384.891,113.422a2.734,2.734,0,0,1,2.984-1.489c.951.2,1.915.946,2.3,2.971.874,4.555-.68,11.741-4.661,10.915-3.671-.761-2.966-7.672-.627-12.4" transform="translate(-235.251 -68.727)" fill="#f3abaa"/>
          <path id="Trazado_877999" data-name="Trazado 877999" d="M343.434,140.011a2.859,2.859,0,0,1-.563-.055,1.928,1.928,0,0,1-1.613-1.658l.219-.033a1.708,1.708,0,0,0,1.438,1.473,2.619,2.619,0,0,0,2.611-.924,1.367,1.367,0,0,0-.245-1.64c-2.041-2.57-1.8-6.454-1.8-6.492l.221.015c0,.038-.233,3.838,1.754,6.34a1.59,1.59,0,0,1,.261,1.894,2.742,2.742,0,0,1-2.281,1.081" transform="translate(-209.639 -80.28)" fill="#0d0f44"/>
          <path id="Trazado_878000" data-name="Trazado 878000" d="M323.3,129.546c0,1.108-.558,2.007-1.245,2.007s-1.245-.9-1.245-2.007.557-2.007,1.245-2.007,1.245.9,1.245,2.007" transform="translate(-197.079 -78.349)" fill="#0d0f44"/>
          <path id="Trazado_878001" data-name="Trazado 878001" d="M367.142,129.546c0,1.108-.558,2.007-1.245,2.007s-1.246-.9-1.246-2.007.558-2.007,1.246-2.007,1.245.9,1.245,2.007" transform="translate(-224.01 -78.349)" fill="#0d0f44"/>
          <path id="Trazado_878002" data-name="Trazado 878002" d="M356.066,116.429a29.623,29.623,0,0,1,6.406,1.933.655.655,0,0,0,.626-1.147,18.816,18.816,0,0,0-6.805-2.515.655.655,0,0,0-.765.647v.437a.655.655,0,0,0,.538.645" transform="translate(-218.405 -70.456)" fill="#0d0f44"/>
          <path id="Trazado_878003" data-name="Trazado 878003" d="M320.909,116.429a29.624,29.624,0,0,0-6.406,1.933.655.655,0,0,1-.626-1.147,18.817,18.817,0,0,1,6.805-2.515.655.655,0,0,1,.765.647v.437a.655.655,0,0,1-.538.645" transform="translate(-192.635 -70.456)" fill="#0d0f44"/>
          <path id="Trazado_878004" data-name="Trazado 878004" d="M346.831,206.478s3.59,6.136,7.421,6.955,11.694-9.408,7.762-19.1l-3.833-1.288s.241,8.729-11.351,13.43" transform="translate(-213.063 -118.592)" fill="#0d0f44"/>
          <path id="Trazado_878005" data-name="Trazado 878005" d="M320.436,206.478s-3.59,6.136-7.421,6.955-11.694-9.408-7.763-19.1l3.833-1.288s-.241,8.729,11.351,13.43" transform="translate(-186.862 -118.592)" fill="#0d0f44"/>
          <path id="Trazado_878006" data-name="Trazado 878006" d="M431.416,330.843l-1.061-1.9v-.029l-.205-7.581.236-.007.2,7.552,1.033,1.852Z" transform="translate(-264.246 -197.393)" fill="#0d0f44"/>
          <path id="Trazado_878007" data-name="Trazado 878007" d="M416.828,330.336a16.665,16.665,0,0,1-1.513-2.623c-.266-.806.431-6.4.461-6.637l1.012-3.806.228.061-1.009,3.79c-.2,1.589-.675,5.89-.468,6.518a16.94,16.94,0,0,0,1.483,2.564Z" transform="translate(-255.096 -194.903)" fill="#0d0f44"/>
          <rect id="Rectángulo_402694" data-name="Rectángulo 402694" width="6.259" height="0.235" transform="matrix(0.561, -0.828, 0.828, 0.561, 154.483, 126.189)" fill="#0d0f44"/>
          <path id="Trazado_878008" data-name="Trazado 878008" d="M391.267,299.022l-.2-.129c2.236-3.409,7.315-8.168,7.366-8.216l.16.172c-.051.048-5.109,4.787-7.33,8.173" transform="translate(-240.239 -178.566)" fill="#0d0f44"/>
          <path id="Trazado_878009" data-name="Trazado 878009" d="M296.9,70.3a4.055,4.055,0,0,0,2.711-3.012c.146-.73.155-1.618.787-2.013a2,2,0,0,1,1.025-.214,2.245,2.245,0,0,0,1.033-.184.74.74,0,0,0,.39-.882,3.143,3.143,0,0,0,2.636,2.439,8.573,8.573,0,0,0,3.671-.358c1.61,1.293,3.983.743,6.044.615a23.707,23.707,0,0,1,6.537.818,4.156,4.156,0,0,1,2.418,1.13c.616.744.651,1.839,1.243,2.6.334.43.825.725,1.122,1.181,1.113,1.709-1.095,4.32.2,5.9.508-.214,1.089-.226,1.6-.441a4.492,4.492,0,0,1,2.026-5.064,1.752,1.752,0,0,0,.7-1.832c-.13-.671-.486-1.288-.576-1.967-.246-1.843,1.495-3.556,1.142-5.382-.177-.914-.855-1.657-1.114-2.551a12.558,12.558,0,0,1-.2-2.3,2.285,2.285,0,0,0-1.083-1.93,5.958,5.958,0,0,0-4.349-5.425,12.478,12.478,0,0,0-9.863-3.669,3.449,3.449,0,0,0-3.042-1.518,10.148,10.148,0,0,0-5.535,1.376A3.968,3.968,0,0,0,302.426,49a10.308,10.308,0,0,0-5.393,1.213A5.186,5.186,0,0,0,295.2,51.44a2.055,2.055,0,0,0-.441,2.069,4.3,4.3,0,0,0-1.3,5,5.909,5.909,0,0,0-2.581,4.12,5.737,5.737,0,0,0,1.664,4.49,2.338,2.338,0,0,0,.4,3.191c1.888,1.652,1.427,4.9.852,7.337l2.4,1.816c-.105-3.007.551-6.157.709-9.162" transform="translate(-178.678 -28.397)" fill="#0d0f44"/>
          <path id="Trazado_878010" data-name="Trazado 878010" d="M332.989,127.918l-1.6.441c-1.589,11.524-6.146,12.742-6.146,12.742a9.829,9.829,0,0,0-2.622-2.447c-1.546-.922-6.956.41-9.62,0s-6.539,2.708-6.539,2.708c-3.465-2.312-5.6-11.86-5.6-11.86l-2.4-1.816c.369,6.816,3.068,17.32,4.531,21.371s10.522,10.188,16.64,8.549,12.629-10.654,13.354-16.964a64.278,64.278,0,0,0,0-12.724m-9.74,16.883c-1.127,2.766-6.146,3.278-9.732,2.254a6.216,6.216,0,0,1-2.865-1.508,1.516,1.516,0,0,1-.084-1.984,10.326,10.326,0,0,1,2.643-2.462c1.741-1.012,5.679-.827,6.425-.459s4.629,1.668,3.614,4.158" transform="translate(-183.35 -78.439)" fill="#0d0f44"/>
          <path id="Trazado_878011" data-name="Trazado 878011" d="M338.772,169a4.831,4.831,0,0,1-.831-.071,4.772,4.772,0,0,1-3.1-2.015l.2-.123a4.621,4.621,0,0,0,2.942,1.907c1.729.3,3.679-.409,5.8-2.106l.147.184A8.525,8.525,0,0,1,338.772,169" transform="translate(-205.698 -102.337)" fill="#0d0f44"/>
          <rect id="Rectángulo_402695" data-name="Rectángulo 402695" width="65.341" height="44.153" transform="translate(7.955 7.223)" fill="#ffd550"/>
          <path id="Trazado_878012" data-name="Trazado 878012" d="M281.854,5.651A5.651,5.651,0,1,1,276.2,0a5.651,5.651,0,0,1,5.651,5.651" transform="translate(-166.203)" fill="#a854f3"/>
        </g>
      </g>
      <g id="Grupo_1100793" data-name="Grupo 1100793" transform="translate(7.955 7.223)">
        <g id="Grupo_1100792" data-name="Grupo 1100792" clip-path="url(#clip-path-2)">
          <path id="Trazado_878013" data-name="Trazado 878013" d="M84.51,74.082l-.229-.052c1.97-8.712-3.8-18.64-12.34-21.245-6.432-1.961-13.87.4-18.532,5.238a17.228,17.228,0,0,1,3.341,4.909,8.966,8.966,0,0,1,.79,6.11c-.547,1.923-2.431,3.8-4.637,3.607a4.71,4.71,0,0,1-3.9-3.68,9.044,9.044,0,0,1,.623-5.522,17.045,17.045,0,0,1,3.447-5.43A17.238,17.238,0,0,0,29.2,57.136q.733.459,1.43.978c1.981,1.475,4.453,3.921,4.983,7.2.462,2.847-1.085,6.394-4.122,7.138a5.136,5.136,0,0,1-4.015-.778A6.809,6.809,0,0,1,24.5,67.294c-.526-2.831.572-6.043,3.015-8.812a16.418,16.418,0,0,1,1.295-1.311A21.589,21.589,0,0,0,.19,62.837L0,62.7a21.824,21.824,0,0,1,28.992-5.691,17.472,17.472,0,0,1,24.244.84,19.437,19.437,0,0,1,5.545-4.034A18.387,18.387,0,0,1,72.01,52.56a18.947,18.947,0,0,1,12.5,21.522M53.247,58.194a16.562,16.562,0,0,0-3.4,5.338,8.826,8.826,0,0,0-.614,5.379,4.558,4.558,0,0,0,3.691,3.5c2.086.181,3.87-1.605,4.39-3.437a8.741,8.741,0,0,0-.779-5.95,17,17,0,0,0-3.288-4.834M29.018,57.3a16.285,16.285,0,0,0-1.328,1.339c-2.394,2.715-3.472,5.855-2.96,8.614a6.573,6.573,0,0,0,2.875,4.221,4.9,4.9,0,0,0,3.831.746c2.911-.713,4.39-4.128,3.946-6.871-.518-3.2-2.946-5.6-4.892-7.045q-.716-.533-1.473-1" transform="translate(-7.955 -39.077)" fill="#fff"/>
        </g>
      </g>
      <g id="Grupo_1100795" data-name="Grupo 1100795">
        <g id="Grupo_1100794" data-name="Grupo 1100794" clip-path="url(#clip-path)">
          <path id="Trazado_878014" data-name="Trazado 878014" d="M232.37,99.993h-7.058v-.235h7.058Zm-14.116,0H215V95.951h.235v3.806h3.016Zm14.234-5.6h-.235V87.339h.235Zm-17.25-5.5H215V82.507h.908v.235h-.672Zm14.788-6.151h-7.058v-.235h7.058Z" transform="translate(-132.078 -50.685)" fill="#0d0f44"/>
          <path id="Trazado_878015" data-name="Trazado 878015" d="M225.443,87.607h9.432l-.08,1.933-9.336-.014Zm3.748,1.185,1.864,0-.266,12.365-1.741-.019Z" transform="translate(-138.492 -53.818)" fill="#ff2633"/>
          <path id="Trazado_878016" data-name="Trazado 878016" d="M503.133,54.884H419.527V107.31h21.044l-1.443,11.08,11.291-11.08h52.715Z" transform="translate(-257.72 -33.716)" fill="#fff"/>
          <path id="Trazado_878017" data-name="Trazado 878017" d="M438.779,118.525l1.47-11.285H419.221V54.579h83.842V107.24H450.279ZM419.456,107h21.061L439.1,117.88,450.183,107h52.645V54.814H419.456Z" transform="translate(-257.533 -33.529)" fill="#0d0f44"/>
          <path id="Trazado_878018" data-name="Trazado 878018" d="M432.212,105.405H417.667l-.528-53.979h14.93Z" transform="translate(-256.254 -31.592)" fill="#dbdfeb"/>
          <path id="Trazado_878019" data-name="Trazado 878019" d="M501.872,44.871H417.14v8.113h84.527Z" transform="translate(-256.254 -27.565)" fill="#0d0f44"/>
          <path id="Trazado_878020" data-name="Trazado 878020" d="M580.43,54.294H575.3a1.85,1.85,0,1,1,0-3.7h5.132a1.85,1.85,0,0,1,0,3.7" transform="translate(-352.276 -31.081)" fill="#fff"/>
          <path id="Trazado_878021" data-name="Trazado 878021" d="M610.709,54.294h-5.132a1.85,1.85,0,1,1,0-3.7h5.132a1.85,1.85,0,0,1,0,3.7" transform="translate(-370.877 -31.081)" fill="#fff"/>
          <path id="Trazado_878022" data-name="Trazado 878022" d="M433.206,81.87h-7.364a1.85,1.85,0,1,1,0-3.7h7.364a1.85,1.85,0,0,1,0,3.7" transform="translate(-260.463 -48.021)" fill="#fff"/>
          <path id="Trazado_878023" data-name="Trazado 878023" d="M474.327,81.87h-5.132a1.85,1.85,0,0,1,0-3.7h5.132a1.85,1.85,0,0,1,0,3.7" transform="translate(-287.096 -48.021)" fill="#3a1d71"/>
          <path id="Trazado_878024" data-name="Trazado 878024" d="M542.905,81.87H499.075a1.85,1.85,0,1,1,0-3.7h43.831a1.85,1.85,0,1,1,0,3.7" transform="translate(-305.451 -48.021)" fill="#a854f3"/>
          <path id="Trazado_878025" data-name="Trazado 878025" d="M475.993,102.945h-6.8a1.85,1.85,0,1,1,0-3.7h6.8a1.85,1.85,0,1,1,0,3.7" transform="translate(-287.096 -60.967)" fill="#3a1d71"/>
          <path id="Trazado_878026" data-name="Trazado 878026" d="M522.9,102.945h-20.62a1.85,1.85,0,1,1,0-3.7H522.9a1.85,1.85,0,0,1,0,3.7" transform="translate(-307.422 -60.967)" fill="#a854f3"/>
          <path id="Trazado_878027" data-name="Trazado 878027" d="M532.863,145.094h-20.62a1.85,1.85,0,1,1,0-3.7h20.62a1.85,1.85,0,1,1,0,3.7" transform="translate(-313.541 -86.861)" fill="#a854f3"/>
          <path id="Trazado_878028" data-name="Trazado 878028" d="M512.712,124.02h-20.62a1.85,1.85,0,1,1,0-3.7h20.62a1.85,1.85,0,0,1,0,3.7" transform="translate(-301.162 -73.914)" fill="#a854f3"/>
          <path id="Trazado_878029" data-name="Trazado 878029" d="M581.312,124.02h-20.62a1.85,1.85,0,1,1,0-3.7h20.62a1.85,1.85,0,0,1,0,3.7" transform="translate(-343.304 -73.914)" fill="#a854f3"/>
          <path id="Trazado_878030" data-name="Trazado 878030" d="M480.449,145.094H469.195a1.85,1.85,0,1,1,0-3.7h11.254a1.85,1.85,0,1,1,0,3.7" transform="translate(-287.096 -86.861)" fill="#3a1d71"/>
          <path id="Trazado_878031" data-name="Trazado 878031" d="M472.765,124.02h-3.571a1.85,1.85,0,1,1,0-3.7h3.571a1.85,1.85,0,0,1,0,3.7" transform="translate(-287.095 -73.914)" fill="#3a1d71"/>
          <path id="Trazado_878032" data-name="Trazado 878032" d="M472.765,166.169h-3.571a1.85,1.85,0,1,1,0-3.7h3.571a1.85,1.85,0,0,1,0,3.7" transform="translate(-287.095 -99.807)" fill="#3a1d71"/>
          <path id="Trazado_878033" data-name="Trazado 878033" d="M433.206,102.945h-7.364a1.85,1.85,0,1,1,0-3.7h7.364a1.85,1.85,0,0,1,0,3.7" transform="translate(-260.463 -60.967)" fill="#fff"/>
          <path id="Trazado_878034" data-name="Trazado 878034" d="M433.206,124.02h-7.364a1.85,1.85,0,1,1,0-3.7h7.364a1.85,1.85,0,0,1,0,3.7" transform="translate(-260.463 -73.914)" fill="#fff"/>
          <path id="Trazado_878035" data-name="Trazado 878035" d="M433.206,145.094h-7.364a1.85,1.85,0,1,1,0-3.7h7.364a1.85,1.85,0,0,1,0,3.7" transform="translate(-260.463 -86.861)" fill="#fff"/>
          <path id="Trazado_878036" data-name="Trazado 878036" d="M433.206,166.169h-7.364a1.85,1.85,0,0,1,0-3.7h7.364a1.85,1.85,0,0,1,0,3.7" transform="translate(-260.463 -99.807)" fill="#fff"/>
        </g>
      </g>
    </g>
  </g>
</svg>
