<svg xmlns="http://www.w3.org/2000/svg" width="67" height="67" viewBox="0 0 67 67">
  <g id="_47" data-name="47" transform="translate(-370 -1213)">
    <circle id="Elipse_11640" data-name="Elipse 11640" cx="33.5" cy="33.5" r="33.5" transform="translate(370 1213)" fill="#debefb"/>
    <g id="_85-Code_File" data-name="85-Code File" transform="translate(382 1230.361)">
      <path id="Trazado_878432" data-name="Trazado 878432" d="M14.036,1V7.585H8Z" transform="translate(-0.451 -0.449)" fill="#00ffdf"/>
      <path id="Trazado_878433" data-name="Trazado 878433" d="M35.437,2.143V35.3a1.147,1.147,0,0,1-1.143,1.143H9.143A1.147,1.147,0,0,1,8,35.3V7.859h6.288V1H34.294A1.147,1.147,0,0,1,35.437,2.143Z" transform="translate(-1 -1.158)" fill="#dfe1ea"/>
      <path id="Trazado_878434" data-name="Trazado 878434" d="M26.438,11.1c-4.17,0-4.17-1.1-8.341-1.1a13.963,13.963,0,0,0-4.061.519v1.127H8v3.21a17.368,17.368,0,0,0,1.756.082c4.17,0,4.17-1.1,8.341-1.1s4.17,1.1,8.341,1.1c4.016,0,4.177-1.015,7.9-1.09V10C30.612,10.081,30.451,11.1,26.438,11.1Z" transform="translate(-0.451 -4.508)" fill="#adb2c7"/>
      <path id="Trazado_878435" data-name="Trazado 878435" d="M23.057,5.939c4.17,0,4.17,1.1,8.341,1.1,4.016,0,4.177-1.015,7.9-1.09V2.1a1.1,1.1,0,0,0-1.1-1.1H19V6.458a13.963,13.963,0,0,1,4.057-.519Z" transform="translate(-5.415 -0.449)" fill="#f6fafd"/>
      <path id="Trazado_878436" data-name="Trazado 878436" d="M8,11.307h6.036v-1.2c-1.713-.2-2.524-.636-4.149-.858Z" transform="translate(-0.451 -4.171)" fill="#707789"/>
      <path id="Trazado_878437" data-name="Trazado 878437" d="M32.791,0H13.585a.549.549,0,0,0-.4.178L7.144,6.763A.549.549,0,0,0,7,7.134v26.34A1.646,1.646,0,0,0,8.646,35.12H32.791a1.646,1.646,0,0,0,1.646-1.646V1.646A1.646,1.646,0,0,0,32.791,0ZM13.036,1.959V6.585H8.8Zm20.3,31.515a.549.549,0,0,1-.549.549H8.646a.549.549,0,0,1-.549-.549V7.682h5.487a.549.549,0,0,0,.549-.549V1.1H32.791a.549.549,0,0,1,.549.549Z" transform="translate(0 0.002)"/>
      <path id="Trazado_878438" data-name="Trazado 878438" d="M49.195,6.744a.445.445,0,0,1-.39-.159,3.015,3.015,0,0,1-.17-1.929A.549.549,0,0,0,48.1,4H47V5.1h.475a3.219,3.219,0,0,0,.481,2.182,1.491,1.491,0,0,0,.69.477v.169a1.491,1.491,0,0,0-.69.477,3.219,3.219,0,0,0-.481,2.182H47v1.1h1.1a.549.549,0,0,0,.538-.655,3.015,3.015,0,0,1,.17-1.929.445.445,0,0,1,.39-.159.549.549,0,0,0,.549-.549v-1.1A.549.549,0,0,0,49.195,6.744Z" transform="translate(-18.05 -1.803)"/>
      <path id="Trazado_878439" data-name="Trazado 878439" d="M13.223,44.2a.549.549,0,0,0-.114.455,3.015,3.015,0,0,1-.17,1.929.445.445,0,0,1-.39.159.549.549,0,0,0-.549.549v1.1a.549.549,0,0,0,.549.549.445.445,0,0,1,.39.159,3.015,3.015,0,0,1,.17,1.929.549.549,0,0,0,.538.655h1.1v-1.1h-.475a3.219,3.219,0,0,0-.481-2.182,1.491,1.491,0,0,0-.69-.477v-.169a1.491,1.491,0,0,0,.69-.477,3.219,3.219,0,0,0,.481-2.182h.475V44h-1.1A.549.549,0,0,0,13.223,44.2Z" transform="translate(-2.256 -19.853)"/>
      <rect id="Rectángulo_402970" data-name="Rectángulo 402970" width="7.646" height="1.274" transform="translate(18.469 7.649)"/>
      <rect id="Rectángulo_402971" data-name="Rectángulo 402971" width="7.646" height="1.274" transform="translate(18.469 5.1)"/>
      <rect id="Rectángulo_402972" data-name="Rectángulo 402972" width="3.823" transform="translate(22.292 3.825)"/>
      <rect id="Rectángulo_402973" data-name="Rectángulo 402973" width="7.646" height="1.274" transform="translate(14.646 25.49)"/>
      <rect id="Rectángulo_402974" data-name="Rectángulo 402974" width="7.646" transform="translate(14.646 28.039)"/>
      <rect id="Rectángulo_402975" data-name="Rectángulo 402975" width="2.549" height="1.274" transform="translate(14.646 29.313)"/>
      <path id="Trazado_878440" data-name="Trazado 878440" d="M15.195,24.1h.549a1.1,1.1,0,0,1,1.1,1.1h1.1A2.2,2.2,0,0,0,15.744,23h-.549A2.2,2.2,0,0,0,13,25.195v4.39a2.195,2.195,0,0,0,2.195,2.195h.549a2.195,2.195,0,0,0,2.195-2.195h-1.1a1.1,1.1,0,0,1-1.1,1.1h-.549a1.1,1.1,0,0,1-1.1-1.1v-4.39A1.1,1.1,0,0,1,15.195,24.1Z" transform="translate(-2.708 -10.377)" fill="#8722e2"/>
      <path id="Trazado_878441" data-name="Trazado 878441" d="M26.744,23h-.549A2.195,2.195,0,0,0,24,25.195v4.39a2.195,2.195,0,0,0,2.195,2.195h.549a2.195,2.195,0,0,0,2.195-2.195v-4.39A2.195,2.195,0,0,0,26.744,23Zm1.1,6.585a1.1,1.1,0,0,1-1.1,1.1h-.549a1.1,1.1,0,0,1-1.1-1.1v-4.39a1.1,1.1,0,0,1,1.1-1.1h.549a1.1,1.1,0,0,1,1.1,1.1Z" transform="translate(-7.671 -10.377)" fill="#8722e2"/>
      <path id="Trazado_878442" data-name="Trazado 878442" d="M37.195,23H35.549a.549.549,0,0,0-.549.549v7.682a.549.549,0,0,0,.549.549h1.646a2.195,2.195,0,0,0,2.195-2.195v-4.39A2.195,2.195,0,0,0,37.195,23Zm1.1,6.585a1.1,1.1,0,0,1-1.1,1.1H36.1V24.1h1.1a1.1,1.1,0,0,1,1.1,1.1Z" transform="translate(-12.635 -10.377)" fill="#8722e2"/>
      <path id="Trazado_878443" data-name="Trazado 878443" d="M48.841,24.1V23H45.549a.549.549,0,0,0-.549.549v7.682a.549.549,0,0,0,.549.549h3.292v-1.1H46.1V27.939h2.744v-1.1H46.1V24.1Z" transform="translate(-17.148 -10.377)" fill="#8722e2"/>
    </g>
  </g>
</svg>
