<svg xmlns="http://www.w3.org/2000/svg" width="67" height="67" viewBox="0 0 67 67">
  <g id="_48" data-name="48" transform="translate(-685 -1213)">
    <circle id="Elipse_11638" data-name="Elipse 11638" cx="33.5" cy="33.5" r="33.5" transform="translate(685 1213)" fill="#debefb"/>
    <g id="reshot-icon-edit-code-UWQSF3AX5E" transform="translate(693.151 1212.368)">
      <g id="Grupo_1101353" data-name="Grupo 1101353" transform="translate(3.53 18.172)">
        <path id="Trazado_878414" data-name="Trazado 878414" d="M35.768,47.149H6.056a.848.848,0,0,1-.848-.848V20.673a.848.848,0,0,1,.848-.848H35.768a.848.848,0,0,1,.848.848V46.3A.848.848,0,0,1,35.768,47.149Z" transform="translate(-5.208 -19.825)" fill="#00ffdf"/>
        <path id="Trazado_878415" data-name="Trazado 878415" d="M36.616,24.3v22a.848.848,0,0,1-.848.848H6.056a.848.848,0,0,1-.848-.848V20.673a.848.848,0,0,1,.848-.848h7.411l3.244,4.031a1.186,1.186,0,0,0,.924.443Z" transform="translate(-5.208 -19.825)" fill="#d8d6d7"/>
        <path id="Trazado_878416" data-name="Trazado 878416" d="M46.1,24.3v22a.848.848,0,0,1-.848.848H17.266a.636.636,0,0,1-.636-.636V20.461a.636.636,0,0,1,.636-.636h5.687L26.2,23.856a1.186,1.186,0,0,0,.924.443Z" transform="translate(-14.693 -19.825)" fill="#fff"/>
        <path id="Trazado_878417" data-name="Trazado 878417" d="M125.773,86.674a1.029,1.029,0,0,1,.057-1.455l3.313-3.063-3.313-3.063a1.029,1.029,0,1,1,1.4-1.512l4.131,3.819a1.03,1.03,0,0,1,0,1.512l-4.131,3.819A1.029,1.029,0,0,1,125.773,86.674Z" transform="translate(-105.104 -67.562)" fill="#8722e2"/>
        <path id="Trazado_878418" data-name="Trazado 878418" d="M38.121,86.732l-4.131-3.819a1.03,1.03,0,0,1,0-1.512l4.131-3.819a1.029,1.029,0,1,1,1.4,1.512l-3.313,3.063,3.313,3.063a1.029,1.029,0,1,1-1.4,1.511Z" transform="translate(-28.836 -67.563)" fill="#8722e2"/>
        <path id="Trazado_878419" data-name="Trazado 878419" d="M79.27,86.866a1.03,1.03,0,0,1-.377-1.406l4.41-7.638a1.029,1.029,0,0,1,1.783,1.029l-4.41,7.638A1.029,1.029,0,0,1,79.27,86.866Z" transform="translate(-66.285 -67.561)" fill="#8722e2"/>
      </g>
      <path id="Trazado_878420" data-name="Trazado 878420" d="M158.5,134.42a9.422,9.422,0,0,1-8.377,9.364,8.871,8.871,0,0,1-1.046.059,9.424,9.424,0,0,1,0-18.848,8.867,8.867,0,0,1,1.046.059A9.422,9.422,0,0,1,158.5,134.42Z" transform="translate(-113.325 -88.992)" fill="#fff6d3"/>
      <path id="Trazado_878421" data-name="Trazado 878421" d="M168.735,134.711a9.422,9.422,0,0,1-8.377,9.364,9.423,9.423,0,0,1,0-18.73A9.422,9.422,0,0,1,168.735,134.711Z" transform="translate(-123.564 -89.282)" fill="#f0c518"/>
      <path id="Trazado_878422" data-name="Trazado 878422" d="M171.13,143.562a2.062,2.062,0,0,1-.609,1.468l-.8.8-7.555,7.555-.036.036-3.011.948a.671.671,0,0,1-.844-.832l.917-3.054,8.389-8.389a2.078,2.078,0,0,1,3.547,1.47Z" transform="translate(-128.77 -102.684)" fill="#debefb"/>
      <path id="Trazado_878423" data-name="Trazado 878423" d="M174.7,152.068s-.02.064-.056.181l-7.555,7.555-.068-.054-2.828-2.828-.02-.078,7.63-7.63.117.073Z" transform="translate(-133.688 -109.105)" fill="#fff"/>
      <circle id="Elipse_11636" data-name="Elipse 11636" cx="0.877" cy="0.877" r="0.877" transform="translate(28.189 19.573)" fill="#fff"/>
      <circle id="Elipse_11637" data-name="Elipse 11637" cx="0.877" cy="0.877" r="0.877" transform="translate(31.399 19.573)" fill="#fff"/>
      <g id="Grupo_1101354" data-name="Grupo 1101354" transform="translate(3.188 17.835)">
        <path id="Trazado_878424" data-name="Trazado 878424" d="M35.274,35.677V19.022a1.188,1.188,0,0,0-1.187-1.187H4.375a1.188,1.188,0,0,0-1.187,1.187V44.65a1.188,1.188,0,0,0,1.187,1.187h21.62a9.762,9.762,0,1,0,9.28-10.16ZM34.088,18.513a.509.509,0,0,1,.509.509v3.286H15.955a.846.846,0,0,1-.662-.316l-2.8-3.478Zm-8.1,26.646H4.375a.509.509,0,0,1-.509-.509V19.022a.509.509,0,0,1,.509-.509h7.248l3.142,3.9a1.521,1.521,0,0,0,1.19.569H34.6V35.735A9.775,9.775,0,0,0,25.991,45.159Zm9.756,9.354a9.085,9.085,0,1,1,9.085-9.085A9.1,9.1,0,0,1,35.748,54.513Z" transform="translate(-3.188 -17.835)" fill="#491352"/>
        <path id="Trazado_878425" data-name="Trazado 878425" d="M23.046,32.467a.339.339,0,0,0-.339-.339H18.314a.339.339,0,1,0,0,.678h4.392A.339.339,0,0,0,23.046,32.467Z" transform="translate(-15.468 -29.705)" fill="#491352"/>
        <path id="Trazado_878426" data-name="Trazado 878426" d="M149.862,28.518a1.216,1.216,0,1,0-1.216-1.216A1.217,1.217,0,0,0,149.862,28.518Zm0-1.754a.538.538,0,1,1-.538.538A.538.538,0,0,1,149.862,26.764Z" transform="translate(-123.984 -24.687)" fill="#491352"/>
        <path id="Trazado_878427" data-name="Trazado 878427" d="M168.794,28.518a1.216,1.216,0,1,0-1.216-1.216A1.217,1.217,0,0,0,168.794,28.518Zm0-1.754a.538.538,0,1,1-.538.538A.538.538,0,0,1,168.794,26.764Z" transform="translate(-139.707 -24.687)" fill="#491352"/>
        <path id="Trazado_878428" data-name="Trazado 878428" d="M129.906,79.5l-4.131-3.819a1.368,1.368,0,1,0-1.858,2.009l3.044,2.814c-3.245,3-3.453,3.017-3.482,3.765a1.37,1.37,0,0,0,2.3,1.058l4.131-3.819A1.37,1.37,0,0,0,129.906,79.5Zm-.46,1.512-4.131,3.819a.69.69,0,0,1-.975-.038h0a.69.69,0,0,1,.038-.976l3.313-3.063a.339.339,0,0,0,0-.5l-3.313-3.063a.69.69,0,0,1,.937-1.014L129.445,80A.69.69,0,0,1,129.445,81.013Z" transform="translate(-103.083 -65.572)" fill="#491352"/>
        <path id="Trazado_878429" data-name="Trazado 878429" d="M38.508,76.739a1.37,1.37,0,0,0-2.3-1.058L32.081,79.5a1.37,1.37,0,0,0,0,2.01l4.13,3.819a1.371,1.371,0,0,0,2.3-1.058c-.029-.744-.22-.749-3.482-3.765C38.271,77.5,38.479,77.487,38.508,76.739ZM34.3,80.255a.339.339,0,0,0,0,.5c3.619,3.346,3.519,3.16,3.534,3.543a.691.691,0,0,1-1.159.534c-4.485-4.147-4.352-3.91-4.352-4.326s-.142-.171,4.352-4.326a.691.691,0,0,1,1.159.534C37.815,77.1,37.914,76.91,34.3,80.255Z" transform="translate(-26.818 -65.57)" fill="#491352"/>
        <path id="Trazado_878430" data-name="Trazado 878430" d="M83.2,75.5a1.37,1.37,0,0,0-1.869.5l-4.41,7.638a1.368,1.368,0,0,0,.5,1.869h0a1.37,1.37,0,0,0,1.869-.5l4.41-7.638A1.37,1.37,0,0,0,83.2,75.5Zm-.086,1.53L78.7,84.672a.691.691,0,0,1-1.265-.166c-.1-.39-.306.126,4.479-8.162a.69.69,0,1,1,1.2.69Z" transform="translate(-64.263 -65.575)" fill="#491352"/>
        <path id="Trazado_878431" data-name="Trazado 878431" d="M165.684,140.184c-.094.094-8.436,8.4-8.474,8.532l-.916,3.054a1.01,1.01,0,0,0,.966,1.3c.214,0,.051.033,3.315-.994.123-.039,8.436-8.382,8.527-8.473a2.417,2.417,0,1,0-3.418-3.418ZM157.028,152.3c-.193-.19-.143-.138.682-2.886l2.173,2.173C157.164,152.437,157.218,152.483,157.028,152.3Zm3.474-1.052-2.459-2.459,7.2-7.2,2.459,2.459Zm8.121-8.12-.44.44-2.459-2.459.44-.44a1.739,1.739,0,1,1,2.459,2.459Z" transform="translate(-130.299 -118.851)" fill="#491352"/>
      </g>
    </g>
  </g>
</svg>
