<svg xmlns="http://www.w3.org/2000/svg" width="67" height="67" viewBox="0 0 67 67">
  <g id="_49" data-name="49" transform="translate(-1000 -1213)">
    <circle id="Elipse_11639" data-name="Elipse 11639" cx="33.5" cy="33.5" r="33.5" transform="translate(1000 1213)" fill="#debefb"/>
    <g id="_27-App" data-name="27-App" transform="translate(1014.317 1227.401)">
      <rect id="Rectángulo_402976" data-name="Rectángulo 402976" width="14.608" height="1.043" transform="translate(11.478 35.278)" fill="#979faf"/>
      <path id="Trazado_878444" data-name="Trazado 878444" d="M31.317,50l2.933,5.279H19L21.933,50Z" transform="translate(-7.856 -20.26)" fill="#adb2c7"/>
      <path id="Trazado_878445" data-name="Trazado 878445" d="M37.365,3.173V25.461H1V3.173A1.177,1.177,0,0,1,2.173,2H36.192A1.177,1.177,0,0,1,37.365,3.173Z" transform="translate(-0.413 -0.413)" fill="#8dd5f6"/>
      <path id="Trazado_878446" data-name="Trazado 878446" d="M37.365,42v3.519a1.177,1.177,0,0,1-1.173,1.173H2.173A1.177,1.177,0,0,1,1,45.519V42Z" transform="translate(-0.413 -16.952)" fill="#dfe1ea"/>
      <path id="Trazado_878447" data-name="Trazado 878447" d="M36.192,2H2.173A1.177,1.177,0,0,0,1,3.173V11.88a15.686,15.686,0,0,0,4.81.678c4.458,0,4.458-1.173,8.915-1.173s4.458,1.173,8.915,1.173,4.458-1.173,8.915-1.173a15.711,15.711,0,0,1,4.81.679V3.173A1.177,1.177,0,0,0,36.192,2Z" transform="translate(-0.413 -0.413)" fill="#aedff7"/>
      <path id="Trazado_878448" data-name="Trazado 878448" d="M36.192,2H2.173A1.177,1.177,0,0,0,1,3.173v4.6a15.686,15.686,0,0,0,4.81.678c4.458,0,4.458-1.173,8.915-1.173s4.458,1.173,8.915,1.173S28.1,7.279,32.555,7.279a15.711,15.711,0,0,1,4.81.679V3.173A1.177,1.177,0,0,0,36.192,2Z" transform="translate(-0.413 -0.413)" fill="#f6fafd"/>
      <path id="Trazado_878449" data-name="Trazado 878449" d="M23.243,50l-1.075,1.936a14.833,14.833,0,0,0,3.773.411c3.871,0,4.384-.884,7.373-1.114L32.627,50Z" transform="translate(-9.166 -20.26)" fill="#7e8596"/>
      <path id="Trazado_878450" data-name="Trazado 878450" d="M35.778,1H1.76A1.76,1.76,0,0,0,0,2.76V28.567a1.76,1.76,0,0,0,1.76,1.76H13.08l-2.449,4.407a.587.587,0,0,0-.073.285v1.173H9.385v1.173H28.154V36.192H26.98V35.019a.587.587,0,0,0-.074-.285l-2.448-4.407h11.32a1.76,1.76,0,0,0,1.76-1.76V2.76A1.76,1.76,0,0,0,35.778,1ZM1.76,2.173H35.778a.587.587,0,0,1,.587.587v21.7H1.173V2.76a.587.587,0,0,1,.587-.587Zm9.971,34.019v-.587H25.807v.587ZM25.4,34.432H12.141l2.28-4.106h8.695Zm10.382-5.279H1.76a.587.587,0,0,1-.587-.587V25.634H36.365v2.933A.587.587,0,0,1,35.778,29.154Z" transform="translate(0 0)"/>
      <rect id="Rectángulo_402977" data-name="Rectángulo 402977" width="9.391" height="1.043" transform="translate(25.043 21.713)"/>
      <rect id="Rectángulo_402978" data-name="Rectángulo 402978" width="8.348" height="1.043" transform="translate(26.087 19.626)"/>
      <rect id="Rectángulo_402979" data-name="Rectángulo 402979" width="9.391" height="1.043" transform="translate(25.043 6.061)"/>
      <rect id="Rectángulo_402980" data-name="Rectángulo 402980" width="11.478" height="1.043" transform="translate(22.956 3.974)"/>
      <rect id="Rectángulo_402981" data-name="Rectángulo 402981" width="3.13" height="1.043" transform="translate(31.304 16.496)"/>
      <rect id="Rectángulo_402982" data-name="Rectángulo 402982" width="3.13" height="1.043" transform="translate(27.13 16.496)"/>
      <rect id="Rectángulo_402983" data-name="Rectángulo 402983" width="3.13" height="2.087" transform="translate(31.304 8.148)"/>
      <rect id="Rectángulo_402984" data-name="Rectángulo 402984" width="3.13" height="2.087" transform="translate(27.13 8.148)"/>
      <path id="Trazado_878451" data-name="Trazado 878451" d="M9.172,21.623h4.692v2.933h1.173V16.931A2.828,2.828,0,0,0,12.1,14H10.931A2.828,2.828,0,0,0,8,16.931v7.625H9.172Zm1.76-6.452H12.1a1.673,1.673,0,0,1,1.76,1.76V20.45H9.172V16.931a1.673,1.673,0,0,1,1.76-1.76Z" transform="translate(-3.306 -5.374)"/>
      <path id="Trazado_878452" data-name="Trazado 878452" d="M23.173,20.935c1.651-.4,4.106-1.714,4.106-4.589,0-1.856-1.151-2.346-1.76-2.346H22.587a.587.587,0,0,0-.587.587v9.971h1.173Zm0-5.762H25.5c.1.006.6.094.6,1.173a3.633,3.633,0,0,1-2.933,3.368Z" transform="translate(-9.096 -5.375)"/>
      <path id="Trazado_878453" data-name="Trazado 878453" d="M37.692,23.385h-1.76V15.173h1.76V14H33v1.173h1.76v8.211H33v1.173h4.692Z" transform="translate(-13.644 -5.375)"/>
    </g>
  </g>
</svg>
