<svg xmlns="http://www.w3.org/2000/svg" width="67" height="67" viewBox="0 0 67 67">
  <g id="_51" data-name="51" transform="translate(-2523 10557)">
    <circle id="Elipse_11642" data-name="Elipse 11642" cx="33.5" cy="33.5" r="33.5" transform="translate(2523 -10557)" fill="#debefb"/>
    <g id="reshot-icon-links-X4YQG7HNMD" transform="translate(2488.878 -10543.904)">
      <path id="Trazado_878466" data-name="Trazado 878466" d="M169.372,39.37V15a2.045,2.045,0,0,0-.6-1.446l-4.936-4.936a2.045,2.045,0,0,0-1.446-.6H146.2a1.363,1.363,0,0,0-1.363,1.363V39.37a1.363,1.363,0,0,0,1.363,1.363h21.811A1.363,1.363,0,0,0,169.372,39.37Z" transform="translate(-86.073 -7.378)" fill="#00ffdf"/>
      <path id="Trazado_878467" data-name="Trazado 878467" d="M144.835,67.875H155.41a4.089,4.089,0,0,1,2.892,1.2l5.1,5.1a4.089,4.089,0,0,1,1.2,2.892V95.82H146.2a1.363,1.363,0,0,1-1.363-1.363V67.875Z" transform="translate(-86.073 -62.465)" fill="#00ffdf"/>
      <path id="Trazado_878468" data-name="Trazado 878468" d="M83.861,124.881V100.509a2.045,2.045,0,0,0-.6-1.446l-4.936-4.936a2.045,2.045,0,0,0-1.446-.6H60.687a1.363,1.363,0,0,0-1.363,1.363v29.99a1.363,1.363,0,0,0,1.363,1.363H82.5A1.363,1.363,0,0,0,83.861,124.881Z" transform="translate(-7.378 -86.073)" fill="#e4eaf8"/>
      <rect id="Rect치ngulo_402985" data-name="Rect치ngulo 402985" width="1.278" height="2.556" transform="translate(69.028 7.881)" fill="#d5dced"/>
      <rect id="Rect치ngulo_402986" data-name="Rect치ngulo 402986" width="1.278" height="2.726" transform="translate(75.844 0.895)" fill="#ffc850"/>
      <path id="Trazado_878469" data-name="Trazado 878469" d="M71.4,86.3a2.666,2.666,0,0,0-1.9-.786H53.309a2,2,0,0,0-2,2V117.5a2,2,0,0,0,2,2H75.12a2,2,0,0,0,2-2V93.131a2.666,2.666,0,0,0-.786-1.9Zm3.72,31.93H53.309a.725.725,0,0,1-.724-.724V87.513a.725.725,0,0,1,.724-.724H69.5a1.4,1.4,0,0,1,.994.412l4.936,4.936a1.4,1.4,0,0,1,.406.871H71.03a.725.725,0,0,1-.724-.724V88.876a.639.639,0,0,0-1.278,0v3.408a2,2,0,0,0,2,2h4.814V117.5A.725.725,0,0,1,75.12,118.227Z" transform="translate(0 -78.695)"/>
      <path id="Trazado_878470" data-name="Trazado 878470" d="M161.847,5.722,156.91.786a2.666,2.666,0,0,0-1.9-.786H138.82a2,2,0,0,0-2,2V4.728a.639.639,0,0,0,1.278,0V2a.725.725,0,0,1,.724-.724h16.192a1.4,1.4,0,0,1,.994.412l4.936,4.936a1.4,1.4,0,0,1,.406.871h-4.808a.725.725,0,0,1-.724-.724V3.365a.639.639,0,1,0-1.278,0V6.773a2,2,0,0,0,2,2h4.814V31.992a.725.725,0,0,1-.724.724H157.9a.639.639,0,1,0,0,1.278h2.727a2,2,0,0,0,2-2V7.62A2.665,2.665,0,0,0,161.847,5.722Z" transform="translate(-78.695)"/>
      <path id="Trazado_878471" data-name="Trazado 878471" d="M126.7,207.459a1.988,1.988,0,0,0-1.346-.585,1.993,1.993,0,0,0-.582-1.343l-3.856-3.856a2,2,0,0,0-2.831,0l-1.928,1.928a2,2,0,0,0,0,2.831l3.856,3.856a1.988,1.988,0,0,0,1.346.585,1.992,1.992,0,0,0,.582,1.343l3.856,3.856a2,2,0,0,0,2.831,0l1.928-1.928a2,2,0,0,0,0-2.831Zm-5.783,1.928-3.856-3.856a.724.724,0,0,1,0-1.024l1.928-1.928a.725.725,0,0,1,1.024,0l3.856,3.856a.725.725,0,0,1,0,1.024l-.512.512-1.476-1.476a.639.639,0,0,0-.9.9l1.476,1.476-.512.512a.725.725,0,0,1-1.024,0Zm8.735,3.856-1.928,1.928a.725.725,0,0,1-1.024,0l-3.856-3.856a.725.725,0,0,1,0-1.024l.512-.512,1.476,1.476a.639.639,0,1,0,.9-.9l-1.476-1.476.512-.512a.724.724,0,0,1,1.024,0l3.856,3.856A.725.725,0,0,1,129.647,213.242Z" transform="translate(-59.137 -185.062)"/>
    </g>
  </g>
</svg>
