<svg xmlns="http://www.w3.org/2000/svg" width="67" height="67" viewBox="0 0 67 67">
  <g id="_52" data-name="52" transform="translate(-2831 10557)">
    <circle id="Elipse_11643" data-name="Elipse 11643" cx="33.5" cy="33.5" r="33.5" transform="translate(2831 -10557)" fill="#debefb"/>
    <g id="_38-Flowchart" data-name="38-Flowchart" transform="translate(2845.756 -10543.904)">
      <path id="Trazado_878472" data-name="Trazado 878472" d="M37.316,11V40.287a1.175,1.175,0,0,1-1.171,1.171H2.171A1.175,1.175,0,0,1,1,40.287V11Z" transform="translate(-0.414 -4.557)" fill="#dfe1ea"/>
      <path id="Trazado_878473" data-name="Trazado 878473" d="M36.144,1a1.175,1.175,0,0,1,1.171,1.171V6.857H1V2.171A1.175,1.175,0,0,1,2.171,1Z" transform="translate(-0.414 -0.414)" fill="#adb2c7"/>
      <path id="Trazado_878474" data-name="Trazado 878474" d="M23.609,20.17c-4.452,0-4.452-1.171-8.9-1.171S10.255,20.17,5.8,20.17A15.664,15.664,0,0,1,1,19.493v4.686a15.664,15.664,0,0,0,4.8.677c4.452,0,4.452-1.171,8.9-1.171s4.452,1.171,8.9,1.171,4.452-1.171,8.9-1.171a15.69,15.69,0,0,1,4.8.678V19.676a15.69,15.69,0,0,0-4.8-.678C28.061,19,28.061,20.17,23.609,20.17Z" transform="translate(-0.414 -7.87)" fill="#cdd2e1"/>
      <path id="Trazado_878475" data-name="Trazado 878475" d="M1,11v5.18a15.664,15.664,0,0,0,4.8.677c4.452,0,4.452-1.171,8.9-1.171s4.452,1.171,8.9,1.171,4.452-1.171,8.9-1.171a15.69,15.69,0,0,1,4.8.678V11Z" transform="translate(-0.414 -4.557)" fill="#e9edf5"/>
      <rect id="Rectángulo_402987" data-name="Rectángulo 402987" width="6" height="6" rx="0.561" transform="translate(8 15.487)" fill="#adb2c7"/>
      <rect id="Rectángulo_402988" data-name="Rectángulo 402988" width="7" height="6" rx="0.561" transform="translate(25 15.487)" fill="#adb2c7"/>
      <path id="Trazado_878476" data-name="Trazado 878476" d="M38.1,41.746a.586.586,0,0,1-.51.879H32.742c-.451,0-1.98-1.951-1.757-2.343L33.4,35.32a.586.586,0,0,1,1.019,0Z" transform="translate(-12.827 -14.509)" fill="#adb2c7"/>
      <rect id="Rectángulo_402989" data-name="Rectángulo 402989" width="2" height="19" transform="translate(19 13.487)" fill="#adb2c7"/>
      <circle id="Elipse_11650" data-name="Elipse 11650" cx="3" cy="3" r="3" transform="translate(17 9.487)" fill="#adb2c7"/>
      <rect id="Rectángulo_402990" data-name="Rectángulo 402990" width="10" height="4" rx="0.513" transform="translate(15 32.487)" fill="#adb2c7"/>
      <path id="Trazado_878477" data-name="Trazado 878477" d="M17.686,26v4.686H13Z" transform="translate(-5.385 -10.771)" fill="#adb2c7"/>
      <path id="Trazado_878478" data-name="Trazado 878478" d="M17.686,26,13,30.686V26Z" transform="translate(-5.385 -10.771)" fill="#fff"/>
      <path id="Trazado_878479" data-name="Trazado 878479" d="M47.686,26v4.686H43Z" transform="translate(-17.813 -10.771)" fill="#adb2c7"/>
      <path id="Trazado_878480" data-name="Trazado 878480" d="M47.686,26,43,30.686V26Z" transform="translate(-17.813 -10.771)" fill="#fff"/>
      <rect id="Rectángulo_402991" data-name="Rectángulo 402991" width="9" height="3" transform="translate(14 31.487)" fill="#ff636e"/>
      <path id="Trazado_878481" data-name="Trazado 878481" d="M33.169,39.746a.586.586,0,0,1-.51.879H25.314a.586.586,0,0,1-.51-.879l3.673-6.426a.586.586,0,0,1,1.019,0Z" transform="translate(-10.243 -13.68)" fill="#8dd5f6"/>
      <circle id="Elipse_11651" data-name="Elipse 11651" cx="3" cy="3" r="3" transform="translate(16 8.487)" fill="#ffc247"/>
      <path id="Trazado_878482" data-name="Trazado 878482" d="M30.04,33.32,28.5,36.014a14.8,14.8,0,0,0,4.159.51c.083,0,.153,0,.234,0l-1.833-3.2a.586.586,0,0,0-1.019,0Z" transform="translate(-11.807 -13.68)" fill="#aedff7"/>
      <path id="Trazado_878483" data-name="Trazado 878483" d="M32.332,42h-6.69L24.8,43.464a.586.586,0,0,0,.51.879h7.345a.586.586,0,0,0,.51-.879Z" transform="translate(-10.243 -17.399)" fill="#fff"/>
      <rect id="Rectángulo_402992" data-name="Rectángulo 402992" width="3" height="3" transform="translate(15 31.487)" fill="#f6fafd"/>
      <circle id="Elipse_11652" data-name="Elipse 11652" cx="1" cy="1" r="1" transform="translate(18 10.487)" fill="#f6fafd"/>
      <rect id="Rectángulo_402993" data-name="Rectángulo 402993" width="1" height="2" transform="translate(3 2.487)" fill="#fff"/>
      <rect id="Rectángulo_402994" data-name="Rectángulo 402994" width="27" height="2" transform="translate(8 2.487)" fill="#fff"/>
      <path id="Trazado_878484" data-name="Trazado 878484" d="M35.73,0H1.757A1.757,1.757,0,0,0,0,1.757V35.73a1.757,1.757,0,0,0,1.757,1.757H35.73a1.757,1.757,0,0,0,1.757-1.757V1.757A1.757,1.757,0,0,0,35.73,0ZM1.757,1.171H35.73a.586.586,0,0,1,.586.586v4.1H1.171v-4.1a.586.586,0,0,1,.586-.586ZM35.73,36.316H1.757a.586.586,0,0,1-.586-.586V7.029H36.316v28.7A.586.586,0,0,1,35.73,36.316Z"/>
      <rect id="Rectángulo_402995" data-name="Rectángulo 402995" width="1" height="2" transform="translate(5 2.487)"/>
      <path id="Trazado_878485" data-name="Trazado 878485" d="M29.593,25.145a1.171,1.171,0,0,0-.434-.437V20.974a3.514,3.514,0,1,0-1.171,0v3.734a1.171,1.171,0,0,0-.434.437L23.882,31.57A1.175,1.175,0,0,0,24.9,33.327h3.086v2.929H24.473a.586.586,0,0,0-.586.586v3.514a.586.586,0,0,0,.586.586h8.2a.586.586,0,0,0,.586-.586V36.841a.586.586,0,0,0-.586-.586H29.159V33.327h3.086a1.175,1.175,0,0,0,1.019-1.757ZM32.087,39.77H25.059V37.427h7.029ZM26.23,17.512a2.343,2.343,0,1,1,2.343,2.343A2.343,2.343,0,0,1,26.23,17.512Zm2.343,8.214,2.337,4.087H26.237Zm3.672,6.43-7.346,0,.668-1.167h6.013l.669,1.171Z" transform="translate(-9.829 -5.797)"/>
      <path id="Trazado_878486" data-name="Trazado 878486" d="M44.786,25H40.1a.586.586,0,0,0-.586.586v1.757H36v1.171h3.514v1.757a.586.586,0,0,0,.586.586h4.686a.586.586,0,0,0,.586-.586V25.586A.586.586,0,0,0,44.786,25Zm-1.414,1.171-2.686,2.686V26.171Zm-1.858,3.514L44.2,27v2.686Z" transform="translate(-14.914 -10.357)"/>
      <path id="Trazado_878487" data-name="Trazado 878487" d="M21.372,28.514V27.343H17.857V25.586A.586.586,0,0,0,17.272,25H12.586a.586.586,0,0,0-.586.586v4.686a.586.586,0,0,0,.586.586h4.686a.586.586,0,0,0,.586-.586V28.514Zm-5.514-2.343-2.686,2.686V26.171ZM14,29.686,16.686,27v2.686Z" transform="translate(-4.971 -10.357)"/>
    </g>
  </g>
</svg>
