<svg xmlns="http://www.w3.org/2000/svg" width="67" height="67" viewBox="0 0 67 67">
  <g id="_53" data-name="53" transform="translate(-2208 10154)">
    <circle id="Elipse_11653" data-name="Elipse 11653" cx="33.5" cy="33.5" r="33.5" transform="translate(2208 -10154)" fill="#debefb"/>
    <g id="reshot-icon-comment-JRCNTFY6DK" transform="translate(2210.549 -10159.481)">
      <path id="Trazado_878488" data-name="Trazado 878488" d="M127.94,106.94H149a2.6,2.6,0,0,1,2.6,2.6v16.178a2.6,2.6,0,0,1-2.6,2.6h-3.69l1.079,4.238a.478.478,0,0,1-.707.528l-7.553-4.5a1.909,1.909,0,0,0-.978-.269H127.94a2.6,2.6,0,0,1-2.6-2.6V109.537A2.6,2.6,0,0,1,127.94,106.94Z" transform="translate(-102.734 -73.909)" fill="#a854f3"/>
      <path id="Trazado_878489" data-name="Trazado 878489" d="M125.345,109.537v9.991h14.388a3.486,3.486,0,0,0,3.486-3.486v-9.1H127.942a2.6,2.6,0,0,0-2.6,2.6Z" transform="translate(-102.735 -73.909)" fill="#648ecc"/>
      <path id="Trazado_878490" data-name="Trazado 878490" d="M39.89,26.072H13.972a2.6,2.6,0,0,0-2.6,2.6V44.847a2.6,2.6,0,0,0,2.6,2.6h3.69l-1.079,4.238a.478.478,0,0,0,.707.528l7.553-4.5a1.911,1.911,0,0,1,.978-.269H39.89a2.6,2.6,0,0,0,2.6-2.6V28.669A2.6,2.6,0,0,0,39.89,26.072Z" transform="translate(-3.483 -3.483)" fill="#00ffdf"/>
      <path id="Trazado_878491" data-name="Trazado 878491" d="M132,106.12a.517.517,0,0,1-1.033,0A.517.517,0,0,1,132,106.12Z" transform="translate(-107.63 -72.751)" fill="#fff"/>
      <path id="Trazado_878492" data-name="Trazado 878492" d="M96.543,106.12a.517.517,0,0,1-1.033,0A.517.517,0,0,1,96.543,106.12Z" transform="translate(-76.753 -72.751)" fill="#fff"/>
      <path id="Trazado_878493" data-name="Trazado 878493" d="M167.453,106.12a.517.517,0,0,1-1.033,0A.517.517,0,0,1,167.453,106.12Z" transform="translate(-138.506 -72.751)" fill="#fff"/>
      <path id="Trazado_878494" data-name="Trazado 878494" d="M143.193,130.7a.515.515,0,0,1-.264-.073l-8.874-5.284h-9.591a3.117,3.117,0,0,1-3.114-3.114v-4.817a.517.517,0,0,1,1.033,0v4.817a2.083,2.083,0,0,0,2.081,2.08H134.2a.516.516,0,0,1,.264.073l7.924,4.718-1.055-4.147a.52.52,0,0,1,.5-.644h3.69a2.083,2.083,0,0,0,2.081-2.08V106.054a2.083,2.083,0,0,0-2.081-2.081H138.26a.517.517,0,0,1,0-1.033h7.258a3.117,3.117,0,0,1,3.114,3.114v16.178a3.117,3.117,0,0,1-3.114,3.114h-3.025l1.2,4.713a.52.52,0,0,1-.5.644Z" transform="translate(-99.256 -70.425)" fill="#383a49"/>
      <path id="Trazado_878495" data-name="Trazado 878495" d="M12.816,49.834a.52.52,0,0,1-.5-.644l1.2-4.713H10.49a3.117,3.117,0,0,1-3.114-3.113V25.186a3.117,3.117,0,0,1,3.114-3.114H36.407a3.117,3.117,0,0,1,3.114,3.114V41.364a3.117,3.117,0,0,1-3.114,3.114H21.955l-8.874,5.284A.517.517,0,0,1,12.816,49.834ZM10.49,23.105a2.083,2.083,0,0,0-2.08,2.081V41.364a2.083,2.083,0,0,0,2.08,2.081h3.69a.52.52,0,0,1,.5.644l-1.055,4.147,7.923-4.718a.515.515,0,0,1,.264-.073H36.407a2.083,2.083,0,0,0,2.08-2.081V25.186a2.083,2.083,0,0,0-2.08-2.081Z" fill="#383a49"/>
    </g>
  </g>
</svg>
