<svg xmlns="http://www.w3.org/2000/svg" width="67" height="67" viewBox="0 0 67 67">
  <g id="_54" data-name="54" transform="translate(-2510 10154)">
    <circle id="Elipse_11654" data-name="Elipse 11654" cx="33.5" cy="33.5" r="33.5" transform="translate(2510 -10154)" fill="#debefb"/>
    <g id="Update" transform="translate(2520 -10143)">
      <path id="Trazado_878496" data-name="Trazado 878496" d="M42.673,13V39.311a1.381,1.381,0,0,1-1.381,1.312H5.381A1.381,1.381,0,0,1,4,39.311V13Z" transform="translate(-0.309 -3.094)" fill="#ccd3eb"/>
      <path id="Trazado_878497" data-name="Trazado 878497" d="M39.22,11.9V34.268a4.019,4.019,0,0,1-4.061,3.943H4V11.969H5.381V11.9Z" transform="translate(-0.309 -2.754)" fill="#f5f7ff"/>
      <path id="Trazado_878498" data-name="Trazado 878498" d="M42.673,5.381v5.525H4V5.381A1.381,1.381,0,0,1,5.381,4h35.91A1.381,1.381,0,0,1,42.673,5.381Z" transform="translate(-0.309 -0.309)" fill="#00ffdf"/>
      <circle id="Elipse_11655" data-name="Elipse 11655" cx="1.433" cy="1.433" r="1.433" transform="translate(28.792 5.866)" fill="#f5f7ff"/>
      <circle id="Elipse_11656" data-name="Elipse 11656" cx="1.433" cy="1.433" r="1.433" transform="translate(32.613 5.866)" fill="#f5f7ff"/>
      <circle id="Elipse_11657" data-name="Elipse 11657" cx="1.433" cy="1.433" r="1.433" transform="translate(36.435 5.866)" fill="#f5f7ff"/>
      <path id="Trazado_878499" data-name="Trazado 878499" d="M8,8.691a.691.691,0,0,0,.691.691H21.812a.691.691,0,0,0,0-1.381H8.691A.691.691,0,0,0,8,8.691Z" transform="translate(-1.547 -1.547)" fill="#f5f7ff"/>
      <path id="Trazado_878500" data-name="Trazado 878500" d="M37.717,40.609a10.359,10.359,0,1,1-4.144-8.287,10.359,10.359,0,0,1,4.144,8.287Z" transform="translate(-4.332 -8.432)" fill="#a854f3"/>
      <path id="Trazado_878501" data-name="Trazado 878501" d="M24.942,43.106a.691.691,0,0,0-.981,0l-.2.207v-1.1a4.834,4.834,0,0,1,4.793-4.834h2.8a.691.691,0,1,0,0-1.381h-2.8a6.215,6.215,0,0,0-6.174,6.215v1.077l-.2-.207a.693.693,0,0,0-.981.981l1.381,1.381h0a.587.587,0,0,0,.207.131h0a.691.691,0,0,0,.283.09.842.842,0,0,0,.262-.048.822.822,0,0,0,.228-.152l1.381-1.381a.691.691,0,0,0,0-.981Z" transform="translate(-5.568 -10.211)" fill="#f5f7ff"/>
      <path id="Trazado_878502" data-name="Trazado 878502" d="M37.849,41.581,36.468,40.2h0a.587.587,0,0,0-.207-.131h0A.587.587,0,0,0,35.978,40h-.069a.691.691,0,0,0-.173.035h-.069a.691.691,0,0,0-.207.131l-1.381,1.381a.693.693,0,1,0,.981.981l.2-.207v1.133a4.834,4.834,0,0,1-4.793,4.834H27.691a.691.691,0,1,0,0,1.381H30.5a6.215,6.215,0,0,0,6.167-6.215v-1.1l.2.207a.693.693,0,1,0,.981-.981Z" transform="translate(-7.426 -11.448)" fill="#f5f7ff"/>
      <path id="Trazado_878503" data-name="Trazado 878503" d="M40.982,3H39.6a.691.691,0,0,0,0,1.381h1.381a.691.691,0,0,1,.691.691V9.906H4.381V5.072a.691.691,0,0,1,.691-.691H33.386a.691.691,0,0,0,0-1.381H5.072A2.072,2.072,0,0,0,3,5.072V36.148A2.072,2.072,0,0,0,5.072,38.22H13.9a11.049,11.049,0,0,0,18.259,0h8.826a2.072,2.072,0,0,0,2.072-2.072V5.072A2.072,2.072,0,0,0,40.982,3ZM23.027,41.673A9.668,9.668,0,1,1,32.7,32,9.668,9.668,0,0,1,23.027,41.673Zm17.955-4.834H32.951a11.049,11.049,0,1,0-19.847,0H5.072a.691.691,0,0,1-.691-.691V11.287H41.673V36.148A.691.691,0,0,1,40.982,36.839Z" transform="translate(0)" fill="#033c59"/>
      <path id="Trazado_878504" data-name="Trazado 878504" d="M50.691,4.381h.691a.691.691,0,1,0,0-1.381h-.691a.691.691,0,1,0,0,1.381Z" transform="translate(-14.543)" fill="#033c59"/>
      <circle id="Elipse_11658" data-name="Elipse 11658" cx="1.433" cy="1.433" r="1.433" transform="translate(28.792 5.866)" fill="#f5f7ff"/>
      <circle id="Elipse_11659" data-name="Elipse 11659" cx="1.433" cy="1.433" r="1.433" transform="translate(32.613 5.866)" fill="#f5f7ff"/>
      <circle id="Elipse_11660" data-name="Elipse 11660" cx="1.433" cy="1.433" r="1.433" transform="translate(36.435 5.866)" fill="#f5f7ff"/>
      <path id="Trazado_878505" data-name="Trazado 878505" d="M8.691,8a.691.691,0,1,0,0,1.381H21.812a.691.691,0,0,0,0-1.381Z" transform="translate(-1.547 -1.547)" fill="#f5f7ff"/>
    </g>
  </g>
</svg>
