<svg xmlns="http://www.w3.org/2000/svg" width="67" height="67" viewBox="0 0 67 67">
  <g id="_55" data-name="55" transform="translate(-2837 10154)">
    <circle id="Elipse_11661" data-name="Elipse 11661" cx="33.5" cy="33.5" r="33.5" transform="translate(2837 -10154)" fill="#debefb"/>
    <g id="reshot-icon-translation-BFMDT732XG" transform="translate(2850.176 -10140.824)">
      <path id="Trazado_878506" data-name="Trazado 878506" d="M26.107,8.064A19.687,19.687,0,0,0,11.04,38.178a1.372,1.372,0,0,1,.106,1.292L8.075,46.387A.7.7,0,0,0,9,47.315l6.917-3.071a1.372,1.372,0,0,1,1.292.106,19.689,19.689,0,1,0,8.9-36.285Z" transform="translate(-7.375 -7.367)" fill="#e4eaf6"/>
      <circle id="Elipse_11662" data-name="Elipse 11662" cx="16.972" cy="16.972" r="16.972" transform="translate(3.353 3.351)" fill="#00ffdf"/>
      <path id="Trazado_878507" data-name="Trazado 878507" d="M59.2,42.207A16.972,16.972,0,1,0,76.172,59.179,16.972,16.972,0,0,0,59.2,42.207Zm0,31.906A14.934,14.934,0,1,1,74.134,59.179,14.934,14.934,0,0,1,59.2,74.113Z" transform="translate(-38.875 -38.857)" fill="#00ffdf"/>
      <path id="Trazado_878508" data-name="Trazado 878508" d="M34.7,5.952a20.324,20.324,0,0,0-31.57,25.2.739.739,0,0,1,.062.694L.118,38.762A1.339,1.339,0,0,0,1.886,40.53L8.8,37.459a.739.739,0,0,1,.694.063,20.152,20.152,0,0,0,10.819,3.126q.868,0,1.745-.073A20.324,20.324,0,0,0,34.7,5.952Zm4.619,15.915a19.05,19.05,0,0,1-29.14,14.578,2.009,2.009,0,0,0-1.89-.149L1.369,39.366a.066.066,0,0,1-.088-.088l3.071-6.917a2.009,2.009,0,0,0-.149-1.89A19.076,19.076,0,0,1,18.782,1.332q.761-.06,1.516-.06A19.052,19.052,0,0,1,39.316,21.867Z" transform="translate(0 0)"/>
      <path id="Trazado_878509" data-name="Trazado 878509" d="M69.418,51.8a17.516,17.516,0,0,0-3.491-10.513.646.646,0,0,0-.081-.107,17.589,17.589,0,0,0-28.053-.025.634.634,0,0,0-.127.168A17.515,17.515,0,0,0,34.2,51.777c0,.008,0,.015,0,.023s0,.016,0,.023a17.515,17.515,0,0,0,3.463,10.451.638.638,0,0,0,.129.171,17.59,17.59,0,0,0,13.991,6.962h.046a17.591,17.591,0,0,0,14.012-6.986.638.638,0,0,0,.085-.112A17.516,17.516,0,0,0,69.418,51.8Zm-33.93.637H41a25.954,25.954,0,0,0,1.7,8.91h-4.14A16.241,16.241,0,0,1,35.487,52.436Zm3.074-10.184H42.7A25.956,25.956,0,0,0,41,51.163H35.487A16.241,16.241,0,0,1,38.562,42.252Zm29.569,8.911H62.62a25.951,25.951,0,0,0-1.7-8.911h4.14A16.241,16.241,0,0,1,68.131,51.163Zm-6.784,0h-8.9V42.252h7.1A24.334,24.334,0,0,1,61.347,51.163Zm-8.9-10.184V35.5c2.252.257,4.369,1.876,6.019,4.625q.249.415.477.854ZM51.172,35.5v5.479H44.678q.229-.439.477-.854C46.8,37.377,48.921,35.758,51.172,35.5Zm0,6.752v8.911h-8.9a24.334,24.334,0,0,1,1.806-8.911Zm-8.9,10.184h8.9v8.91H44.077A24.329,24.329,0,0,1,42.271,52.436Zm8.9,10.183V68.1c-2.251-.258-4.368-1.876-6.017-4.625q-.249-.415-.477-.854ZM52.445,68.1V62.618h6.5q-.229.438-.477.854C56.814,66.221,54.7,67.84,52.445,68.1Zm0-6.751v-8.91h8.9a24.332,24.332,0,0,1-1.806,8.91h-7.1Zm10.176-8.91h5.511a16.242,16.242,0,0,1-3.075,8.91h-4.14A25.952,25.952,0,0,0,62.62,52.436Zm1.417-11.457H60.363c-.25-.524-.519-1.028-.808-1.509A13.368,13.368,0,0,0,56.986,36.3,16.384,16.384,0,0,1,64.037,40.979ZM46.633,36.3a13.368,13.368,0,0,0-2.569,3.166q-.433.721-.808,1.509H39.582A16.383,16.383,0,0,1,46.633,36.3Zm-7.05,26.314h3.674c.25.524.519,1.028.807,1.509a13.368,13.368,0,0,0,2.569,3.166A16.382,16.382,0,0,1,39.582,62.618Zm17.4,4.674a13.368,13.368,0,0,0,2.569-3.166q.433-.721.807-1.509h3.674A16.383,16.383,0,0,1,56.986,67.293Z" transform="translate(-31.484 -31.476)"/>
    </g>
  </g>
</svg>
