<svg xmlns="http://www.w3.org/2000/svg" width="67" height="67" viewBox="0 0 67 67">
  <g id="_56" data-name="56" transform="translate(-2208 9789)">
    <circle id="Elipse_11663" data-name="Elipse 11663" cx="33.5" cy="33.5" r="33.5" transform="translate(2208 -9789)" fill="#debefb"/>
    <g id="_23-Website" data-name="23-Website" transform="translate(2223.935 -9773.065)">
      <path id="Trazado_878510" data-name="Trazado 878510" d="M35.033,11V38.446a1.1,1.1,0,0,1-1.1,1.1H2.1a1.1,1.1,0,0,1-1.1-1.1V11Z" transform="translate(-0.451 -4.962)" fill="#dfe1ea"/>
      <path id="Trazado_878511" data-name="Trazado 878511" d="M33.935,1a1.1,1.1,0,0,1,1.1,1.1V6.489H1V2.1A1.1,1.1,0,0,1,2.1,1Z" transform="translate(-0.451 -0.451)" fill="#debefb"/>
      <path id="Trazado_878512" data-name="Trazado 878512" d="M22.188,20.1c-4.172,0-4.172-1.1-8.344-1.1S9.673,20.1,5.5,20.1A14.68,14.68,0,0,1,1,19.462v4.391a14.68,14.68,0,0,0,4.5.635c4.172,0,4.172-1.1,8.344-1.1s4.172,1.1,8.344,1.1,4.172-1.1,8.344-1.1a14.7,14.7,0,0,1,4.5.635V19.634a14.7,14.7,0,0,0-4.5-.635C26.36,19,26.36,20.1,22.188,20.1Z" transform="translate(-0.451 -8.569)" fill="#cdd2e1"/>
      <path id="Trazado_878513" data-name="Trazado 878513" d="M1,11v4.855a14.68,14.68,0,0,0,4.5.635c4.172,0,4.172-1.1,8.344-1.1s4.172,1.1,8.344,1.1,4.172-1.1,8.344-1.1a14.7,14.7,0,0,1,4.5.635V11Z" transform="translate(-0.451 -4.962)" fill="#f6fafd"/>
      <rect id="Rectángulo_402996" data-name="Rectángulo 402996" width="30.497" height="10.764" rx="1.083" transform="translate(3.588 9.119)" fill="#bec3d2"/>
      <rect id="Rectángulo_402997" data-name="Rectángulo 402997" width="8.073" height="6.279" rx="0.803" transform="translate(8.073 20.779)" fill="#bec3d2"/>
      <rect id="Rectángulo_402998" data-name="Rectángulo 402998" width="9.867" height="8.97" rx="0.763" transform="translate(12.558 22.573)" fill="#bec3d2"/>
      <g id="_Group_" data-name="&lt;Group&gt;">
        <rect id="Rectángulo_402999" data-name="Rectángulo 402999" width="8.97" height="3.588" transform="translate(23.321 20.779)" fill="#debefb"/>
        <path id="Trazado_878514" data-name="Trazado 878514" d="M30.783,39v8.783H22Z" transform="translate(-9.924 -17.592)" fill="#fff"/>
        <path id="Trazado_878515" data-name="Trazado 878515" d="M25.294,42.294V39h5.489L22,47.783V42.294Z" transform="translate(-9.924 -17.592)" fill="#dfe1ea"/>
        <path id="Trazado_878516" data-name="Trazado 878516" d="M20.783,34.489v3.294H12L20.783,29v5.489Z" transform="translate(-5.413 -13.081)" fill="#fff"/>
        <path id="Trazado_878517" data-name="Trazado 878517" d="M20.783,29,12,37.783V29Z" transform="translate(-5.413 -13.081)" fill="#dfe1ea"/>
        <path id="Trazado_878518" data-name="Trazado 878518" d="M34.642,15v9.881H17.625v-2.2H8.842v2.2H5V15Z" transform="translate(-2.255 -6.766)" fill="#00ffdf"/>
        <path id="Trazado_878519" data-name="Trazado 878519" d="M5,15v3.145a15.914,15.914,0,0,0,2.305.148c4.172,0,4.172-1.1,8.344-1.1s4.172,1.1,8.344,1.1,4.172-1.1,8.344-1.1a15.874,15.874,0,0,1,2.305.149V15Z" transform="translate(-2.255 -6.766)" fill="#00ffdf"/>
        <rect id="Rectángulo_403000" data-name="Rectángulo 403000" width="3.588" height="3.588" transform="translate(23.321 20.779)" fill="#fff"/>
        <rect id="Rectángulo_403001" data-name="Rectángulo 403001" width="0.897" height="0.897" transform="translate(2.691 2.84)" fill="#fff"/>
        <rect id="Rectángulo_403002" data-name="Rectángulo 403002" width="24.218" height="0.897" transform="translate(8.073 2.84)" fill="#fff"/>
        <path id="Trazado_878520" data-name="Trazado 878520" d="M33.484,0H1.647A1.647,1.647,0,0,0,0,1.647V33.484a1.647,1.647,0,0,0,1.647,1.647H33.484a1.647,1.647,0,0,0,1.647-1.647V1.647A1.647,1.647,0,0,0,33.484,0ZM1.647,1.1H33.484a.549.549,0,0,1,.549.549V5.489H1.1V1.647A.549.549,0,0,1,1.647,1.1ZM33.484,34.033H1.647a.549.549,0,0,1-.549-.549V6.587H34.033v26.9A.549.549,0,0,1,33.484,34.033Z"/>
        <rect id="Rectángulo_403003" data-name="Rectángulo 403003" width="0.897" height="0.897" transform="translate(5.382 2.84)"/>
        <path id="Trazado_878521" data-name="Trazado 878521" d="M34.191,14H4.549A.549.549,0,0,0,4,14.549v9.881a.549.549,0,0,0,.549.549H7.842v6.038a.549.549,0,0,0,.549.549h4.94v4.94a.549.549,0,0,0,.549.549h8.783a.549.549,0,0,0,.549-.549V27.723a.549.549,0,0,0-.549-.549h-4.94v-2.2H34.191a.549.549,0,0,0,.549-.549V14.549A.549.549,0,0,0,34.191,14ZM8.94,29.691V22.783h6.909Zm7.685-6.133v6.909H9.716Zm-1.42,12.4,6.909-6.909v6.909Zm6.133-7.685-6.909,6.909V31.565h2.745a.549.549,0,0,0,.549-.549V28.272Zm12.3-4.391H17.723V22.234a.549.549,0,0,0-.549-.549H8.391a.549.549,0,0,0-.549.549v1.647H5.1V15.1H33.642Z" transform="translate(-1.804 -6.315)"/>
        <path id="Trazado_878522" data-name="Trazado 878522" d="M51.332,37H42.549a.549.549,0,0,0-.549.549v3.294a.549.549,0,0,0,.549.549h8.783a.549.549,0,0,0,.549-.549V37.549A.549.549,0,0,0,51.332,37Zm-.549,3.294H43.1V38.1h7.685Z" transform="translate(-18.945 -16.69)"/>
        <rect id="Rectángulo_403004" data-name="Rectángulo 403004" width="8.97" height="0.897" transform="translate(23.321 30.646)"/>
        <rect id="Rectángulo_403005" data-name="Rectángulo 403005" width="8.97" height="0.897" transform="translate(23.321 28.852)"/>
        <rect id="Rectángulo_403006" data-name="Rectángulo 403006" width="2.691" height="0.897" transform="translate(29.6 26.161)"/>
        <rect id="Rectángulo_403007" data-name="Rectángulo 403007" width="2.691" height="0.897" transform="translate(26.012 26.161)"/>
      </g>
    </g>
  </g>
</svg>
