<svg xmlns="http://www.w3.org/2000/svg" width="67" height="67" viewBox="0 0 67 67">
  <g id="_57" data-name="57" transform="translate(-2510 9789)">
    <circle id="Elipse_11664" data-name="Elipse 11664" cx="33.5" cy="33.5" r="33.5" transform="translate(2510 -9789)" fill="#debefb"/>
    <g id="Layer_1" transform="translate(2521.833 -9785.431)">
      <g id="Grupo_1101372" data-name="Grupo 1101372" transform="translate(2.167 11.431)">
        <g id="Grupo_1101371" data-name="Grupo 1101371" transform="translate(0.389 0.389)">
          <g id="Grupo_1101365" data-name="Grupo 1101365">
            <g id="Grupo_1101362" data-name="Grupo 1101362">
              <g id="Grupo_1101355" data-name="Grupo 1101355" transform="translate(0 4.987)">
                <path id="Trazado_878523" data-name="Trazado 878523" d="M43.08,45.953V75.715a.779.779,0,0,1-.779.779H5.446a.779.779,0,0,1-.779-.779V45.953Z" transform="translate(-4.667 -45.953)" fill="#beb4d0"/>
              </g>
              <g id="Grupo_1101356" data-name="Grupo 1101356" transform="translate(6.674 7.724)">
                <circle id="Elipse_11665" data-name="Elipse 11665" cx="12.533" cy="12.533" r="12.533" fill="#fff"/>
              </g>
              <g id="Grupo_1101357" data-name="Grupo 1101357">
                <path id="Trazado_878524" data-name="Trazado 878524" d="M43.08,14.71v4.208H4.667V14.71a.779.779,0,0,1,.779-.779H42.3A.779.779,0,0,1,43.08,14.71Z" transform="translate(-4.667 -13.931)" fill="#00ffdf"/>
              </g>
              <g id="Grupo_1101361" data-name="Grupo 1101361" transform="translate(2.018 1.538)">
                <g id="Grupo_1101358" data-name="Grupo 1101358" transform="translate(0)">
                  <circle id="Elipse_11666" data-name="Elipse 11666" cx="0.955" cy="0.955" r="0.955" fill="#fc5d3d"/>
                </g>
                <g id="Grupo_1101359" data-name="Grupo 1101359" transform="translate(3.682)">
                  <circle id="Elipse_11667" data-name="Elipse 11667" cx="0.955" cy="0.955" r="0.955" fill="#f0c020"/>
                </g>
                <g id="Grupo_1101360" data-name="Grupo 1101360" transform="translate(7.365)">
                  <circle id="Elipse_11668" data-name="Elipse 11668" cx="0.955" cy="0.955" r="0.955" fill="#13bf6d"/>
                </g>
              </g>
            </g>
            <g id="Grupo_1101363" data-name="Grupo 1101363" transform="translate(25.618 6.006)">
              <path id="Trazado_878525" data-name="Trazado 878525" d="M179.733,80.3h-7.709a.389.389,0,0,1,0-.779h7.319V52.889a.389.389,0,1,1,.779,0V79.908A.389.389,0,0,1,179.733,80.3Zm-9.266,0h-.908a.389.389,0,1,1,0-.779h.908a.389.389,0,1,1,0,.779Z" transform="translate(-169.17 -52.5)" fill="#c5e5ff"/>
            </g>
            <g id="Grupo_1101364" data-name="Grupo 1101364" transform="translate(1.628 33.025)">
              <path id="Trazado_878526" data-name="Trazado 878526" d="M26.343,226.779H15.513a.389.389,0,1,1,0-.779H26.343a.389.389,0,1,1,0,.779Z" transform="translate(-15.124 -226)" fill="#c5e5ff"/>
            </g>
          </g>
          <g id="Grupo_1101370" data-name="Grupo 1101370" transform="translate(12.127 10.388)">
            <g id="Grupo_1101366" data-name="Grupo 1101366" transform="translate(2.109)">
              <path id="Trazado_878527" data-name="Trazado 878527" d="M106.022,85.608v2.145h-1.793V85.608a3.177,3.177,0,1,0-6.355,0v2.145H96.081V85.608a4.971,4.971,0,1,1,9.941,0Z" transform="translate(-96.081 -80.637)" fill="#afafaf"/>
            </g>
            <g id="Grupo_1101367" data-name="Grupo 1101367" transform="translate(0 7.116)">
              <path id="Trazado_878528" data-name="Trazado 878528" d="M95.645,126.334H83.588a1.051,1.051,0,0,0-1.051,1.051v8.494a1.051,1.051,0,0,0,1.051,1.051H95.645A1.051,1.051,0,0,0,96.7,135.88v-8.494A1.052,1.052,0,0,0,95.645,126.334Z" transform="translate(-82.537 -126.334)" fill="#a854f3"/>
            </g>
            <g id="Grupo_1101368" data-name="Grupo 1101368" transform="translate(0.918 8.577)">
              <path id="Trazado_878529" data-name="Trazado 878529" d="M100.255,143.847H100a.389.389,0,1,1,0-.779h.258a.389.389,0,0,1,0,.779Zm-1.816,0H88.818a.389.389,0,0,1-.389-.389V136.1a.389.389,0,1,1,.779,0v6.964h9.231a.389.389,0,1,1,0,.779Z" transform="translate(-88.429 -135.715)" fill="#ffcbc2"/>
            </g>
            <g id="Grupo_1101369" data-name="Grupo 1101369" transform="translate(5.748 9.867)">
              <path id="Trazado_878530" data-name="Trazado 878530" d="M122.11,145.329a1.332,1.332,0,1,0-2.207,1v1.54a.874.874,0,0,0,1.749,0v-1.54A1.328,1.328,0,0,0,122.11,145.329Z" transform="translate(-119.445 -143.997)" fill="#4c4945"/>
            </g>
          </g>
        </g>
        <circle id="Elipse_11669" data-name="Elipse 11669" cx="0.389" cy="0.389" r="0.389" transform="translate(0 18.162)"/>
        <path id="Trazado_878531" data-name="Trazado 878531" d="M40.191,11.431H3.335A1.169,1.169,0,0,0,2.167,12.6c0,.328,0,5.193,0,15.826a.389.389,0,0,0,.779,0V17.2H40.58V46.569a.391.391,0,0,1-.389.389H3.335a.391.391,0,0,1-.389-.389V31.54a.389.389,0,1,0-.779,0V46.569a1.17,1.17,0,0,0,1.168,1.168H40.19a1.17,1.17,0,0,0,1.168-1.168V16.812s0,0,0,0V12.6A1.169,1.169,0,0,0,40.191,11.431ZM2.946,16.417V12.6a.39.39,0,0,1,.389-.389H40.191a.39.39,0,0,1,.389.389v3.818Z" transform="translate(-2.167 -11.431)"/>
        <path id="Trazado_878532" data-name="Trazado 878532" d="M57.942,61.03a12.906,12.906,0,1,0,12.5,9.65.394.394,0,0,0-.475-.279.39.39,0,0,0-.279.475,12.147,12.147,0,1,1-1.118-2.8.4.4,0,0,0,.529.153.389.389,0,0,0,.152-.529A12.92,12.92,0,0,0,57.942,61.03Z" transform="translate(-38.347 -53.306)"/>
        <path id="Trazado_878533" data-name="Trazado 878533" d="M200.275,112.161a0,0,0,0,0,0,0,.389.389,0,1,0,.216-.506A.39.39,0,0,0,200.276,112.162Z" transform="translate(-169.401 -96.024)"/>
        <path id="Trazado_878534" data-name="Trazado 878534" d="M16.464,21.309a1.344,1.344,0,1,0,1.346,1.344A1.346,1.346,0,0,0,16.464,21.309Zm0,1.909a.565.565,0,1,1,.567-.565A.568.568,0,0,1,16.464,23.218Z" transform="translate(-13.103 -19.771)"/>
        <path id="Trazado_878535" data-name="Trazado 878535" d="M40.113,21.309a1.344,1.344,0,1,0,1.344,1.344A1.345,1.345,0,0,0,40.113,21.309Zm0,1.909a.565.565,0,1,1,.567-.565A.566.566,0,0,1,40.113,23.218Z" transform="translate(-33.069 -19.771)"/>
        <path id="Trazado_878536" data-name="Trazado 878536" d="M63.764,21.309a1.344,1.344,0,1,0,1.344,1.344A1.345,1.345,0,0,0,63.764,21.309Zm0,1.909a.565.565,0,1,1,.565-.565A.569.569,0,0,1,63.764,23.218Z" transform="translate(-53.037 -19.771)"/>
        <path id="Trazado_878537" data-name="Trazado 878537" d="M110.042,27.439H94.469a.389.389,0,1,0,0,.779h15.573a.389.389,0,0,0,0-.779Z" transform="translate(-79.766 -24.946)"/>
        <path id="Trazado_878538" data-name="Trazado 878538" d="M217.649,27.439h-3.18a.389.389,0,1,0,0,.779h3.18a.389.389,0,1,0,0-.779Z" transform="translate(-181.079 -24.946)"/>
        <circle id="Elipse_11670" data-name="Elipse 11670" cx="0.389" cy="0.389" r="0.389" transform="translate(31.444 2.493)"/>
        <path id="Trazado_878539" data-name="Trazado 878539" d="M117.4,145.764a1.263,1.263,0,1,0,2.526,0v-1.377a1.722,1.722,0,1,0-2.526,0v1.377Zm1.263-3.487a.947.947,0,0,1,.944.942.933.933,0,0,1-.325.71.4.4,0,0,0-.134.294v1.54a.485.485,0,0,1-.97,0v-1.54a.393.393,0,0,0-.132-.294.927.927,0,0,1-.326-.71A.947.947,0,0,1,118.661,142.278Z" transform="translate(-99.065 -121.244)"/>
        <path id="Trazado_878540" data-name="Trazado 878540" d="M87.506,78.137a5.366,5.366,0,0,0-5.36,5.36v1.756h-.668a1.442,1.442,0,0,0-1.441,1.441v8.494a1.442,1.442,0,0,0,1.441,1.441H93.535a1.442,1.442,0,0,0,1.441-1.441V86.694a1.442,1.442,0,0,0-1.441-1.441h-.668V83.5A5.366,5.366,0,0,0,87.506,78.137ZM82.925,83.5a4.581,4.581,0,0,1,9.163,0v1.756H91.073V83.5a3.567,3.567,0,1,0-7.133,0v1.756H82.925Zm1.794,0a2.788,2.788,0,1,1,5.576,0v1.756H84.718V83.5Zm9.478,3.2v8.494a.663.663,0,0,1-.662.662H81.478a.663.663,0,0,1-.662-.662V86.694a.663.663,0,0,1,.662-.662H93.535A.663.663,0,0,1,94.2,86.694Z" transform="translate(-67.91 -67.749)"/>
      </g>
    </g>
  </g>
</svg>
