<svg id="_63" data-name="63" xmlns="http://www.w3.org/2000/svg" xmlns:xlink="http://www.w3.org/1999/xlink" width="178" height="141.01" viewBox="0 0 178 141.01">
  <defs>
    <clipPath id="clip-path">
      <rect id="Rectángulo_402745" data-name="Rectángulo 402745" width="178" height="141.01" fill="none"/>
    </clipPath>
    <clipPath id="clip-path-2">
      <rect id="Rectángulo_402708" data-name="Rectángulo 402708" width="134.076" height="16.805" fill="#f2e5fd"/>
    </clipPath>
    <clipPath id="clip-path-3">
      <rect id="Rectángulo_402728" data-name="Rectángulo 402728" width="32.947" height="4.001" fill="none"/>
    </clipPath>
    <clipPath id="clip-path-5">
      <rect id="Rectángulo_402732" data-name="Rectángulo 402732" width="12.547" height="1.089" fill="#3a1d71"/>
    </clipPath>
  </defs>
  <g id="Enmascarar_grupo_1100847" data-name="Enmascarar grupo 1100847" clip-path="url(#clip-path)">
    <g id="Grupo_1100827" data-name="Grupo 1100827" transform="translate(18.977 45.58)">
      <g id="Grupo_1100849" data-name="Grupo 1100849" transform="translate(0 0)">
        <g id="Grupo_1100816" data-name="Grupo 1100816" transform="translate(0 78.625)" style="mix-blend-mode: multiply;isolation: isolate">
          <g id="Grupo_1100815" data-name="Grupo 1100815">
            <g id="Grupo_1100814" data-name="Grupo 1100814" clip-path="url(#clip-path-2)">
              <path id="Trazado_878085" data-name="Trazado 878085" d="M179.2,300.961c0-3.094-30.014-5.6-67.038-5.6s-67.038,2.508-67.038,5.6c0,2.016,12.747,3.783,31.871,4.77a1.116,1.116,0,0,0-.553.832c0,3.094,22.507,5.6,50.27,5.6s50.271-2.508,50.271-5.6c0-1.021-2.454-1.979-6.739-2.8,5.695-.823,8.955-1.779,8.955-2.8" transform="translate(-45.128 -295.359)" fill="#f2e5fd"/>
            </g>
          </g>
        </g>
        <path id="Trazado_878091" data-name="Trazado 878091" d="M178.773,175.452H74.07v-65.7a1.363,1.363,0,0,1,1.363-1.363H177.41a1.363,1.363,0,0,1,1.363,1.363Z" transform="translate(-61.899 -108.389)" fill="#8722e2"/>
        <path id="Trazado_878092" data-name="Trazado 878092" d="M179.241,175.954H86.949a1.363,1.363,0,0,1-1.363-1.363V119.583a1.363,1.363,0,0,1,1.363-1.363h92.292a1.363,1.363,0,0,1,1.363,1.363v55.008a1.363,1.363,0,0,1-1.363,1.363" transform="translate(-68.573 -114.086)" fill="#dae8f5"/>
        <path id="Trazado_878093" data-name="Trazado 878093" d="M106.7,175.954H86.913a1.327,1.327,0,0,1-1.327-1.327v-55.08a1.327,1.327,0,0,1,1.327-1.327h90.215" transform="translate(-68.573 -114.086)" fill="#eef7ff"/>
        <path id="Trazado_878094" data-name="Trazado 878094" d="M198.308,112.258a.67.67,0,1,1-.67-.67.67.67,0,0,1,.67.67" transform="translate(-133.116 -110.243)" fill="#9ea8ff"/>
        <rect id="Rectángulo_402711" data-name="Rectángulo 402711" width="34.634" height="1.761" transform="translate(25.904 11.622)" fill="#073799"/>
        <rect id="Rectángulo_402712" data-name="Rectángulo 402712" width="34.634" height="1.761" transform="translate(25.904 21.01)" fill="#073799"/>
        <rect id="Rectángulo_402713" data-name="Rectángulo 402713" width="20.198" height="1.761" transform="translate(25.904 14.751)" fill="#073799"/>
        <rect id="Rectángulo_402714" data-name="Rectángulo 402714" width="38.775" height="1.761" transform="translate(25.904 17.881)" fill="#073799"/>
        <rect id="Rectángulo_402715" data-name="Rectángulo 402715" width="6.265" height="1.761" transform="translate(65.319 17.881)" fill="#073799"/>
        <rect id="Rectángulo_402716" data-name="Rectángulo 402716" width="3.393" height="1.761" transform="translate(72.578 17.881)" fill="#073799"/>
        <rect id="Rectángulo_402717" data-name="Rectángulo 402717" width="22.092" height="1.761" transform="translate(25.904 24.139)" fill="#073799"/>
        <rect id="Rectángulo_402718" data-name="Rectángulo 402718" width="3.569" height="1.761" transform="translate(48.362 24.139)" fill="#073799"/>
        <rect id="Rectángulo_402719" data-name="Rectángulo 402719" width="1.933" height="1.761" transform="translate(52.497 24.139)" fill="#073799"/>
        <rect id="Rectángulo_402720" data-name="Rectángulo 402720" width="12.724" height="1.761" transform="translate(25.817 48.357)" fill="#073799"/>
        <rect id="Rectángulo_402721" data-name="Rectángulo 402721" width="7.42" height="1.761" transform="translate(25.817 51.486)" fill="#073799"/>
        <rect id="Rectángulo_402722" data-name="Rectángulo 402722" width="23.769" height="1.761" transform="translate(82.295 48.513)" fill="#073799"/>
        <rect id="Rectángulo_402723" data-name="Rectángulo 402723" width="13.861" height="1.761" transform="translate(92.202 51.643)" fill="#073799"/>
        <rect id="Rectángulo_402724" data-name="Rectángulo 402724" width="26.61" height="1.761" transform="translate(79.453 54.772)" fill="#073799"/>
        <rect id="Rectángulo_402725" data-name="Rectángulo 402725" width="4.299" height="1.761" transform="translate(74.713 54.772)" fill="#073799"/>
        <rect id="Rectángulo_402726" data-name="Rectángulo 402726" width="2.328" height="1.761" transform="translate(71.703 54.772)" fill="#073799"/>
        <rect id="Rectángulo_402727" data-name="Rectángulo 402727" width="0.471" height="18.826" transform="translate(25.904 27.83)" fill="#073799"/>
        <path id="Trazado_878095" data-name="Trazado 878095" d="M78.249,275.427h96.344a4.179,4.179,0,0,0,4.179-4.18v-3.381H74.069v3.381a4.18,4.18,0,0,0,4.18,4.18" transform="translate(-61.899 -200.803)" fill="#00ffdf"/>
        <path id="Trazado_878096" data-name="Trazado 878096" d="M191.476,293.847H153.988l4.542-8h28.405Z" transform="translate(-108.21 -211.221)" fill="#3669b2"/>
        <path id="Trazado_878097" data-name="Trazado 878097" d="M189.083,306.077H138.93V305.4a2.222,2.222,0,0,1,2.222-2.222H186.86a2.222,2.222,0,0,1,2.222,2.222Z" transform="translate(-99.484 -221.266)" fill="#4f7ac8"/>
        <g id="Grupo_1100825" data-name="Grupo 1100825" transform="translate(48.049 74.624)" style="mix-blend-mode: multiply;isolation: isolate">
          <g id="Grupo_1100824" data-name="Grupo 1100824">
            <g id="Grupo_1100823" data-name="Grupo 1100823" clip-path="url(#clip-path-3)">
              <path id="Trazado_878098" data-name="Trazado 878098" d="M161.659,285.845l-2.271,4h32.947l-2.271-4Z" transform="translate(-159.388 -285.845)" fill="#4f7ac8"/>
            </g>
          </g>
        </g>
        <path id="Trazado_878099" data-name="Trazado 878099" d="M315.616,175.062H284.323a1.106,1.106,0,0,1-1.106-1.106V145.1a1.106,1.106,0,0,1,1.106-1.106h31.293a1.106,1.106,0,0,1,1.106,1.106v28.861a1.106,1.106,0,0,1-1.106,1.106" transform="translate(-183.096 -129.019)" fill="#f0c518"/>
        <path id="Trazado_878100" data-name="Trazado 878100" d="M316.478,179.142h-28.96a.8.8,0,0,1-.8-.8V155.519a.8.8,0,0,1,.8-.8h28.96a.8.8,0,0,1,.8.8v22.822a.8.8,0,0,1-.8.8" transform="translate(-185.125 -135.236)" fill="#fff"/>
      </g>
    </g>
    <text id="_" data-name="&lt;/&gt;" transform="translate(125.219 79.182)" fill="#f0c518" font-size="10" font-family="SegoeUI, Segoe UI"><tspan x="0" y="0">&lt;/&gt;</tspan></text>
    <g id="Grupo_1100829" data-name="Grupo 1100829">
      <g id="Grupo_1100828" data-name="Grupo 1100828" clip-path="url(#clip-path)">
        <path id="Trazado_878101" data-name="Trazado 878101" d="M289.734,148.142a.869.869,0,1,1-.868-.868.868.868,0,0,1,.868.868" transform="translate(-166.888 -85.342)" fill="#8722e2"/>
        <path id="Trazado_878102" data-name="Trazado 878102" d="M296.765,148.142a.869.869,0,1,1-.868-.868.868.868,0,0,1,.868.868" transform="translate(-170.963 -85.342)" fill="#8722e2"/>
        <path id="Trazado_878103" data-name="Trazado 878103" d="M303.8,148.142a.869.869,0,1,1-.868-.868.868.868,0,0,1,.868.868" transform="translate(-175.037 -85.342)" fill="#8722e2"/>
        <path id="Trazado_878104" data-name="Trazado 878104" d="M210.5,54.85H175a1.106,1.106,0,0,1-1.106-1.106V24.884A1.106,1.106,0,0,1,175,23.778h35.5a1.106,1.106,0,0,1,1.106,1.106V53.745A1.106,1.106,0,0,1,210.5,54.85" transform="translate(-100.768 -13.779)" fill="#00ffdf"/>
        <path id="Trazado_878105" data-name="Trazado 878105" d="M211.361,58.93H178.2a.8.8,0,0,1-.8-.8V35.307a.8.8,0,0,1,.8-.8h33.165a.8.8,0,0,1,.8.8V58.129a.8.8,0,0,1-.8.8" transform="translate(-102.797 -19.996)" fill="#fff"/>
      </g>
    </g>
    <text id="CMS" transform="translate(77.565 28.63)" fill="#8722e2" font-size="10" font-family="SegoeUI, Segoe UI"><tspan x="0" y="0">CMS</tspan></text>
    <g id="Grupo_1100846" data-name="Grupo 1100846" transform="translate(16.941 11.38)">
      <g id="Grupo_1101352" data-name="Grupo 1101352">
        <path id="Trazado_878106" data-name="Trazado 878106" d="M180.411,27.93a.869.869,0,1,1-.868-.868.868.868,0,0,1,.868.868" transform="translate(-120.479 -27.062)" fill="#3a1d71"/>
        <path id="Trazado_878107" data-name="Trazado 878107" d="M187.443,27.93a.869.869,0,1,1-.868-.868.868.868,0,0,1,.868.868" transform="translate(-124.554 -27.062)" fill="#3a1d71"/>
        <path id="Trazado_878108" data-name="Trazado 878108" d="M194.474,27.93a.869.869,0,1,1-.868-.868.868.868,0,0,1,.868.868" transform="translate(-128.628 -27.062)" fill="#3a1d71"/>
        <path id="Trazado_878109" data-name="Trazado 878109" d="M347.68,249.248H330.121a1.8,1.8,0,0,1-1.7-1.885V224.552a1.8,1.8,0,0,1,1.7-1.885h15.045l4.21,5.356v19.34a1.8,1.8,0,0,1-1.7,1.885" transform="translate(-328.425 -220.93)" fill="#debefb"/>
        <path id="Trazado_878110" data-name="Trazado 878110" d="M368.234,222.667v4a1.315,1.315,0,0,0,1.252,1.381l2.958-.028Z" transform="translate(-351.494 -220.93)" fill="#00ffdf"/>
        <g id="Grupo_1100832" data-name="Grupo 1100832" transform="translate(4.202 9.313)" style="mix-blend-mode: multiply;isolation: isolate">
          <g id="Grupo_1100831" data-name="Grupo 1100831">
            <g id="Grupo_1100830" data-name="Grupo 1100830" clip-path="url(#clip-path-5)">
              <rect id="Rectángulo_402731" data-name="Rectángulo 402731" width="12.546" height="1.089" transform="translate(0 0)" fill="#3a1d71"/>
            </g>
          </g>
        </g>
        <g id="Grupo_1100835" data-name="Grupo 1100835" transform="translate(4.202 11.898)" style="mix-blend-mode: multiply;isolation: isolate">
          <g id="Grupo_1100834" data-name="Grupo 1100834">
            <g id="Grupo_1100833" data-name="Grupo 1100833" clip-path="url(#clip-path-5)">
              <rect id="Rectángulo_402733" data-name="Rectángulo 402733" width="12.546" height="1.089" transform="translate(0 0)" fill="#3a1d71"/>
            </g>
          </g>
        </g>
        <g id="Grupo_1100838" data-name="Grupo 1100838" transform="translate(4.202 14.483)" style="mix-blend-mode: multiply;isolation: isolate">
          <g id="Grupo_1100837" data-name="Grupo 1100837">
            <g id="Grupo_1100836" data-name="Grupo 1100836" clip-path="url(#clip-path-5)">
              <rect id="Rectángulo_402735" data-name="Rectángulo 402735" width="12.546" height="1.089" transform="translate(0)" fill="#3a1d71"/>
            </g>
          </g>
        </g>
        <g id="Grupo_1100841" data-name="Grupo 1100841" transform="translate(4.202 17.068)" style="mix-blend-mode: multiply;isolation: isolate">
          <g id="Grupo_1100840" data-name="Grupo 1100840">
            <g id="Grupo_1100839" data-name="Grupo 1100839" clip-path="url(#clip-path-5)">
              <rect id="Rectángulo_402737" data-name="Rectángulo 402737" width="12.546" height="1.089" transform="translate(0 0)" fill="#3a1d71"/>
            </g>
          </g>
        </g>
        <g id="Grupo_1100844" data-name="Grupo 1100844" transform="translate(4.202 19.653)" style="mix-blend-mode: multiply;isolation: isolate">
          <g id="Grupo_1100843" data-name="Grupo 1100843">
            <g id="Grupo_1100842" data-name="Grupo 1100842" clip-path="url(#clip-path-5)">
              <rect id="Rectángulo_402739" data-name="Rectángulo 402739" width="12.546" height="1.089" transform="translate(0 0)" fill="#3a1d71"/>
            </g>
          </g>
        </g>
      </g>
    </g>
  </g>
</svg>
