<svg xmlns="http://www.w3.org/2000/svg" width="62" height="62" viewBox="0 0 62 62">
  <g id="_65" data-name="65" transform="translate(-630 -3415)">
    <rect id="Rectángulo_402876" data-name="Rectángulo 402876" width="62" height="62" rx="31" transform="translate(630 3415)" fill="#fff"/>
    <g id="Education_Insurance" data-name="Education Insurance" transform="translate(634.14 3420.117)">
      <path id="Trazado_878209" data-name="Trazado 878209" d="M44.62,32.311a1.1,1.1,0,0,1-.768,1.037L36.17,36.006l-8.612,2.989a4.079,4.079,0,0,1-2.7,0L16.84,36.221A11.524,11.524,0,0,0,32.251,26.71l1.852.722c.061.131.131.254.2.376a8.943,8.943,0,0,0,.707,1.076A9.258,9.258,0,0,0,36.677,30.6a9.55,9.55,0,0,0,3.334,1.713,9.38,9.38,0,0,0,2.95-1.421l.96.376A1.106,1.106,0,0,1,44.62,32.311Z" transform="translate(-2.975 -3.881)" fill="#6be5d6"/>
      <path id="Trazado_878210" data-name="Trazado 878210" d="M29.513,26.081A11.524,11.524,0,0,1,14.1,35.592l-.645-.223L5.774,32.7a1.1,1.1,0,0,1-.046-2.067l2.021-.768,14.159-5.578a4.149,4.149,0,0,1,3.073,0Z" transform="translate(-0.236 -3.252)" fill="#00ffdf"/>
      <path id="Trazado_878211" data-name="Trazado 878211" d="M35.975,38.808v7.829l-9.987,3.073L16,46.636V38.8l8.658,3a4.079,4.079,0,0,0,2.7,0Z" transform="translate(-2.78 -6.683)" fill="#00ffdf"/>
      <path id="Trazado_878212" data-name="Trazado 878212" d="M51.829,12.967v6.592a9.065,9.065,0,0,1-.092,1.3,9.5,9.5,0,0,1-6.822,7.813,9.55,9.55,0,0,1-3.334-1.713,9.257,9.257,0,0,1-1.667-1.713,8.943,8.943,0,0,1-.707-1.076c-.069-.123-.138-.246-.2-.376a8.3,8.3,0,0,1-.522-1.268,6.808,6.808,0,0,1-.238-.86A9.073,9.073,0,0,1,38,19.558V12.967l2.689-.768,1.921-.545,2.3-.653.868.246,4.932,1.406.584.169.154.038Z" transform="translate(-7.878 -0.24)" fill="#f79341"/>
      <path id="Trazado_878213" data-name="Trazado 878213" d="M49.524,12.314v4.94a9.48,9.48,0,0,1-6.914,9.112,9.519,9.519,0,0,1-2.9-1.383A9.457,9.457,0,0,1,38,19.558V12.967L44.914,11Z" transform="translate(-7.878 -0.24)" fill="#f0c518"/>
      <path id="Trazado_878214" data-name="Trazado 878214" d="M55.972,22.14V22.8a2.166,2.166,0,0,1-.092.638A9.065,9.065,0,0,0,55.972,22.14Z" transform="translate(-12.022 -2.822)" fill="none" stroke="#000" stroke-linecap="round" stroke-linejoin="round" stroke-width="2"/>
      <path id="Trazado_878215" data-name="Trazado 878215" d="M23.208,39.135a4.771,4.771,0,0,1-1.606-.277L5.261,33.2a1.875,1.875,0,0,1-.077-3.511l7.844-3.073a.768.768,0,0,1,.561,1.429L5.753,31.122a.338.338,0,0,0-.215.33.33.33,0,0,0,.23.307l16.364,5.662a3.342,3.342,0,0,0,2.19,0l16.333-5.67a.323.323,0,0,0,.223-.3.338.338,0,0,0-.215-.315l-.553-.238a10.156,10.156,0,0,1-2.866,1.321.768.768,0,0,1-.415,0,10.118,10.118,0,0,1-3.634-1.882,10.456,10.456,0,0,1-2.574-3.019,1.245,1.245,0,0,0-.077-.138l-6.146-2.4a3.457,3.457,0,0,0-2.5,0l-5.5,2.159a.768.768,0,1,1-.561-1.429l5.5-2.159a4.986,4.986,0,0,1,3.619,0l6.407,2.512a.768.768,0,0,1,.415.384c.054.115.115.215.169.323a9.3,9.3,0,0,0,.661,1,8.7,8.7,0,0,0,4.425,3.119,8.451,8.451,0,0,0,2.5-1.245.768.768,0,0,1,.768-.092l.96.376a1.867,1.867,0,0,1-.061,3.5L24.836,38.859A4.671,4.671,0,0,1,23.208,39.135Z" transform="translate(0 -3.023)" fill="#2b2b4c"/>
      <path id="Trazado_878216" data-name="Trazado 878216" d="M25.755,50.245a.707.707,0,0,1-.223,0l-9.987-3.073A.768.768,0,0,1,15,46.4V38.568a.778.778,0,0,1,1.022-.73l8.658,3a3.342,3.342,0,0,0,2.19,0l8.62-2.989a.769.769,0,0,1,1.022.722V46.4a.768.768,0,0,1-.545.768l-3.181.976a.77.77,0,0,1-.446-1.475l2.635-.837V39.689l-7.59,2.635a4.848,4.848,0,0,1-3.211,0l-7.637-2.681v6.192l9.219,2.873,3.657-1.122a.77.77,0,1,1,.446,1.475l-3.88,1.183A.707.707,0,0,1,25.755,50.245Z" transform="translate(-2.548 -6.45)" fill="#2b2b4c"/>
      <path id="Trazado_878217" data-name="Trazado 878217" d="M41.82,44.052a.768.768,0,0,1-.768-.768V36.177L28.544,32.528a.8.8,0,1,1,.43-1.537l13.06,3.841a.768.768,0,0,1,.553.768v7.683A.768.768,0,0,1,41.82,44.052Z" transform="translate(-5.552 -4.866)" fill="#8d8d8d"/>
      <path id="Trazado_878218" data-name="Trazado 878218" d="M45.188,24.377a.768.768,0,0,1-.545-.223l-1.921-1.921a.771.771,0,0,1,1.091-1.091l1.375,1.383,3.3-3.3a.771.771,0,0,1,1.091,1.091l-3.841,3.841a.768.768,0,0,1-.545.223Z" transform="translate(-8.92 -2.093)" fill="#2b2b4c"/>
      <path id="Trazado_878219" data-name="Trazado 878219" d="M44.682,29.2a.645.645,0,0,1-.207,0,10.118,10.118,0,0,1-3.634-1.882A10.456,10.456,0,0,1,38.267,24.3c-.077-.138-.154-.277-.215-.415a8.389,8.389,0,0,1-.561-1.368,8,8,0,0,1-.261-.93A9.987,9.987,0,0,1,37,19.318V12.726a.768.768,0,0,1,.561-.768l6.914-1.967a.768.768,0,0,1,.415,0L51.8,11.958a.768.768,0,0,1,.561.768v1.106a.768.768,0,0,1-1.537,0V13.31l-6.146-1.782-6.146,1.744v6.016a8.535,8.535,0,0,0,.223,1.928,6.031,6.031,0,0,0,.215.768,8.6,8.6,0,0,0,.484,1.175c.061.131.123.23.177.338a9.3,9.3,0,0,0,.661,1,8.7,8.7,0,0,0,4.387,3.165,8.451,8.451,0,0,0,2.5-1.245,8.727,8.727,0,0,0,3.565-5.877,8.6,8.6,0,0,0,.085-1.222V16.906a.768.768,0,0,1,1.537,0v2.412a9.389,9.389,0,0,1-.1,1.429,10.256,10.256,0,0,1-4.187,6.914A9.987,9.987,0,0,1,44.89,29.2.645.645,0,0,1,44.682,29.2Z" transform="translate(-7.646)" fill="#2b2b4c"/>
    </g>
  </g>
</svg>
