<svg xmlns="http://www.w3.org/2000/svg" width="62" height="62" viewBox="0 0 62 62">
  <g id="_67" data-name="67" transform="translate(-213 -3706)">
    <rect id="Rectángulo_402879" data-name="Rectángulo 402879" width="62" height="62" rx="31" transform="translate(213 3706)" fill="#fff"/>
    <g id="_10-File-Photo" data-name="10-File-Photo" transform="translate(226 3719)">
      <path id="Trazado_878248" data-name="Trazado 878248" d="M43.963,9.963H37.988A2.988,2.988,0,0,1,35,6.975V1Z" transform="translate(-8.858 -0.253)" fill="#a854f3"/>
      <path id="Trazado_878249" data-name="Trazado 878249" d="M36.37,9.963V32.37a2.988,2.988,0,0,1-2.988,2.988H7.988A2.926,2.926,0,0,1,5,32.37V3.988A2.988,2.988,0,0,1,7.988,1h19.42V6.975a2.988,2.988,0,0,0,2.988,2.988Z" transform="translate(-1.265 -0.253)" fill="#f1f2f2"/>
      <g id="_Group_" data-name="&lt;Group&gt;" transform="translate(0 0)">
        <path id="Trazado_878250" data-name="Trazado 878250" d="M21.913,41v2.241a2.241,2.241,0,0,1-2.241,2.241H3.241A2.241,2.241,0,0,1,1,43.241V41Z" transform="translate(-0.253 -10.377)" fill="#00ffdf"/>
        <path id="Trazado_878251" data-name="Trazado 878251" d="M21.913,21.241v12.7L13.7,25.722,9.963,29.457,6.975,26.469,1,32.444v-11.2A2.241,2.241,0,0,1,3.241,19H19.673A2.241,2.241,0,0,1,21.913,21.241Z" transform="translate(-0.253 -4.809)" fill="#f1f2f2"/>
        <path id="Trazado_878252" data-name="Trazado 878252" d="M24.951,36.216V37.71H18.975l-2.988-2.988L13,31.735,16.735,28Z" transform="translate(-3.29 -7.087)" fill="#f6b445"/>
        <path id="Trazado_878253" data-name="Trazado 878253" d="M15.938,37.963H1V34.975L6.975,29l2.988,2.988,2.988,2.988Z" transform="translate(-0.253 -7.34)" fill="#f0c518"/>
        <path id="Trazado_878254" data-name="Trazado 878254" d="M36.645,9.182,27.682.219a.747.747,0,0,0-.241-.161A.738.738,0,0,0,27.154,0H7.735A3.739,3.739,0,0,0,4,3.735v6.722a.747.747,0,1,0,1.494,0V3.735A2.241,2.241,0,0,1,7.735,1.494H26.407V6.722a3.739,3.739,0,0,0,3.735,3.735h1.494a.747.747,0,1,0,0-1.494H30.142A2.241,2.241,0,0,1,27.9,6.722V2.55l7.469,7.469v22.1a2.241,2.241,0,0,1-2.241,2.241H25.66a.747.747,0,1,0,0,1.494h7.469a3.739,3.739,0,0,0,3.735-3.735V9.71a.747.747,0,0,0-.219-.528Z" transform="translate(-1.012 0)"/>
        <path id="Trazado_878255" data-name="Trazado 878255" d="M19.42,18H2.988A2.988,2.988,0,0,0,0,20.988V37.42a2.988,2.988,0,0,0,2.988,2.988H19.42a2.988,2.988,0,0,0,2.988-2.988V20.988A2.988,2.988,0,0,0,19.42,18ZM2.988,19.494H19.42a1.494,1.494,0,0,1,1.494,1.494V31.882l-6.941-6.941a.747.747,0,0,0-1.056,0L9.71,28.147l-2.46-2.46a.747.747,0,0,0-1.056,0l-4.7,4.7v-9.4a1.494,1.494,0,0,1,1.494-1.494ZM19.42,38.913H2.988A1.494,1.494,0,0,1,1.494,37.42V32.5l5.228-5.228,5.447,5.447a.747.747,0,1,0,1.056-1.056L10.766,29.2l2.678-2.678,7.469,7.469V37.42A1.494,1.494,0,0,1,19.42,38.913Z" transform="translate(0 -4.556)" fill="#12263f"/>
        <path id="Trazado_878256" data-name="Trazado 878256" d="M19.685,40H4.747a.747.747,0,0,0,0,1.494H19.685a.747.747,0,1,0,0-1.494Z" transform="translate(-1.012 -10.124)" fill="#474c54"/>
      </g>
    </g>
  </g>
</svg>
