<svg xmlns="http://www.w3.org/2000/svg" width="62" height="62" viewBox="0 0 62 62">
  <g id="_68" data-name="68" transform="translate(-630 -3706)">
    <rect id="Rectángulo_402928" data-name="Rectángulo 402928" width="62" height="62" rx="31" transform="translate(630 3706)" fill="#fff"/>
    <g id="wiki" transform="translate(633.864 3710.462)">
      <path id="Trazado_878257" data-name="Trazado 878257" d="M16.353,55.962s-3.865.186-3.865,4.687v23.4l3.865-2.641Z" transform="translate(-3.499 -43.705)" fill="#a854f3"/>
      <path id="Trazado_878258" data-name="Trazado 878258" d="M15.128,259.153a2.641,2.641,0,0,0-2.64,2.738,2.683,2.683,0,0,0,2.7,2.545H35.08a.28.28,0,0,0,.17-.5,2.6,2.6,0,0,1-.981-2.139,2.669,2.669,0,0,1,1.949-2.641Z" transform="translate(-3.497 -221.451)" fill="#eaf5ff"/>
      <rect id="Rectángulo_402881" data-name="Rectángulo 402881" width="19.866" height="25.445" transform="translate(12.854 12.257)" fill="#debefb"/>
      <path id="Trazado_878259" data-name="Trazado 878259" d="M33.75,277.248H52.477a3.309,3.309,0,0,1,0-1H33.75A.5.5,0,0,0,33.75,277.248Z" transform="translate(-21.667 -236.404)" fill="#c9d4ff"/>
      <rect id="Rectángulo_402882" data-name="Rectángulo 402882" width="3.889" height="3.142" transform="translate(13.835 39.842)" fill="#c9d4ff"/>
      <path id="Trazado_878260" data-name="Trazado 878260" d="M60.694,276.246v6.732l2.7-1.355,2.7,1.355v-6.732Z" transform="translate(-45.668 -236.404)" fill="#8722e2"/>
      <path id="Trazado_878261" data-name="Trazado 878261" d="M115.976,58.793a.25.25,0,0,1-.166.4l-2.472.287a1.75,1.75,0,0,0-1.548,1.738v3.589a1.75,1.75,0,0,0,1.548,1.738l2.472.287a.249.249,0,0,1,.166.4l-1.545,1.951a1.75,1.75,0,0,0,.134,2.324l2.538,2.538a1.76,1.76,0,0,0,2.351.113l1.924-1.523a.25.25,0,0,1,.4.166l.287,2.472a1.745,1.745,0,0,0,.62,1.142h.4V55.962h-9.021a1.743,1.743,0,0,0,.366.879Z" transform="translate(-90.366 -43.705)" fill="#648ecc"/>
      <path id="Trazado_878262" data-name="Trazado 878262" d="M147.939,20.269l-3.228-.376V19.9a9.32,9.32,0,0,0-.559-1.346l.007.007,2.018-2.548a.748.748,0,0,0-.057-.993l-2.538-2.538a.748.748,0,0,0-.993-.057l-2.548,2.018.007.007a9.3,9.3,0,0,0-1.346-.559h.006l-.375-3.228A.748.748,0,0,0,137.59,10H134a.748.748,0,0,0-.743.662l-.375,3.228h.006a9.31,9.31,0,0,0-1.345.559l.007-.007L129,12.424a.748.748,0,0,0-.993.057l-2.538,2.538a.748.748,0,0,0-.057.993l1.785,2.254a.617.617,0,0,1,.082.631c-.189.352-.264,1-.78,1.045l-2.85.326a.748.748,0,0,0-.662.743V24.6a.748.748,0,0,0,.662.743l2.85.326a.618.618,0,0,1,.505.39c.138.434.524.869.193,1.286L125.413,29.6a.748.748,0,0,0,.057.993l2.538,2.538a.748.748,0,0,0,.993.057l2.238-1.783c.415-.341.878.075,1.3.195a.614.614,0,0,1,.395.506l.325,2.844a.748.748,0,0,0,.743.662h3.589a.748.748,0,0,0,.743-.662l.375-3.228H138.7a9.312,9.312,0,0,0,1.345-.559l-.007.007,2.548,2.018a.748.748,0,0,0,.993-.057l2.538-2.538a.748.748,0,0,0,.057-.993l-2.017-2.548-.007.007a9.318,9.318,0,0,0,.559-1.346v.006l3.228-.375a.748.748,0,0,0,.662-.743V21.011A.748.748,0,0,0,147.939,20.269Z" transform="translate(-100.162 -3.499)" fill="#f0c518"/>
      <path id="Trazado_878263" data-name="Trazado 878263" d="M207.965,91.916A2.913,2.913,0,1,1,205.052,89,2.913,2.913,0,0,1,207.965,91.916Z" transform="translate(-169.42 -72.609)" fill="#fff"/>
      <path id="Trazado_878264" data-name="Trazado 878264" d="M8.989,81.052a.5.5,0,0,1-.5-.5v-23.4c0-4.921,4.3-5.185,4.342-5.187a.5.5,0,0,1,.525.5V75.631a.5.5,0,0,1-1,0V53.05c-.954.231-2.863,1.072-2.863,4.1v23.4A.5.5,0,0,1,8.989,81.052Z" transform="translate(0 -40.208)"/>
      <path id="Trazado_878265" data-name="Trazado 878265" d="M32.886,261.438H22.953a.5.5,0,0,1,0-1H31.2a3.409,3.409,0,0,1,0-4.281H11.8a2.141,2.141,0,1,0,0,4.281h3.4a.5.5,0,0,1,0,1H11.8a3.142,3.142,0,0,1,0-6.285h21.09a.5.5,0,0,1,.118.988,2.166,2.166,0,0,0-1.566,2.154A2.139,2.139,0,0,0,33,260.449.5.5,0,0,1,32.886,261.438Z" transform="translate(-0.166 -217.952)"/>
      <path id="Trazado_878266" data-name="Trazado 878266" d="M198.493,233.091a.5.5,0,0,1-.5-.5v-3.3a.5.5,0,1,1,1,0v3.3A.5.5,0,0,1,198.493,233.091Z" transform="translate(-165.773 -194.889)" fill="#383a49"/>
      <path id="Trazado_878267" data-name="Trazado 878267" d="M52.172,52.964H39.907a.5.5,0,0,1,0-1H52.172A.5.5,0,0,1,52.172,52.964Z" transform="translate(-27.053 -40.206)"/>
      <path id="Trazado_878268" data-name="Trazado 878268" d="M57.194,283.478a.5.5,0,0,1-.5-.5v-6.231a.5.5,0,0,1,.5-.5h5.4a.5.5,0,0,1,.5.5v6.231a.5.5,0,0,1-.8.4l-2.4-1.8-2.4,1.8A.5.5,0,0,1,57.194,283.478Zm2.7-3.033a.5.5,0,0,1,.3.1l1.9,1.428v-4.726h-4.4v4.726l1.9-1.428A.5.5,0,0,1,59.893,280.446Z" transform="translate(-42.168 -236.404)"/>
      <path id="Trazado_878269" data-name="Trazado 878269" d="M134.087,32.614H130.5a1.249,1.249,0,0,1-1.241-1.105l-.339-2.918c-.272-.1-.541-.211-.8-.334l-2.3,1.824a1.249,1.249,0,0,1-1.659-.1l-2.538-2.538a1.249,1.249,0,0,1-.1-1.659l1.824-2.3c-.123-.264-.235-.533-.334-.8l-2.918-.339a1.249,1.249,0,0,1-1.105-1.241V17.512a1.249,1.249,0,0,1,1.105-1.241l2.918-.339c.1-.272.211-.541.334-.8l-1.824-2.3a1.249,1.249,0,0,1,.1-1.659l2.538-2.538a1.249,1.249,0,0,1,1.659-.1l2.3,1.824c.263-.123.533-.235.8-.334l.339-2.918A1.249,1.249,0,0,1,130.5,6h3.589a1.249,1.249,0,0,1,1.241,1.105l.339,2.918c.272.1.541.211.8.334l2.3-1.824a1.249,1.249,0,0,1,1.659.1l2.538,2.538a1.249,1.249,0,0,1,.1,1.659l-1.824,2.3c.123.264.235.533.334.8l2.918.339h0a1.249,1.249,0,0,1,1.105,1.241V21.1a1.249,1.249,0,0,1-1.105,1.241l-2.918.339c-.1.272-.211.541-.334.8l1.824,2.3a1.249,1.249,0,0,1-.1,1.659l-2.538,2.538a1.249,1.249,0,0,1-1.659.1l-2.3-1.824c-.263.123-.532.235-.8.334l-.339,2.918a1.249,1.249,0,0,1-1.241,1.1Zm-4.2-4.37.366,3.15a.247.247,0,0,0,.245.219h3.589a.247.247,0,0,0,.245-.219l.368-3.172a.5.5,0,0,1,.343-.475,8.864,8.864,0,0,0,1.273-.529.5.5,0,0,1,.609.122L139.4,29.3a.247.247,0,0,0,.328-.019l2.538-2.538a.247.247,0,0,0,.019-.328l-1.974-2.492a.5.5,0,0,1-.1-.587,8.84,8.84,0,0,0,.529-1.273.506.506,0,0,1,.5-.345l3.15-.366a.247.247,0,0,0,.219-.245v-3.59a.247.247,0,0,0-.219-.245l-3.171-.368a.5.5,0,0,1-.476-.343,8.839,8.839,0,0,0-.529-1.273.5.5,0,0,1,.121-.609l1.957-2.471a.247.247,0,0,0-.019-.328l-2.538-2.538a.247.247,0,0,0-.328-.019L136.9,11.292a.5.5,0,0,1-.587.1,8.863,8.863,0,0,0-1.273-.529.5.5,0,0,1-.345-.5l-.366-3.15A.247.247,0,0,0,134.087,7H130.5a.247.247,0,0,0-.245.219l-.368,3.172a.5.5,0,0,1-.343.475,8.864,8.864,0,0,0-1.273.529.5.5,0,0,1-.609-.121l-2.471-1.957a.247.247,0,0,0-.328.019l-2.538,2.538a.247.247,0,0,0-.019.328l1.974,2.492a.5.5,0,0,1,.1.587,8.838,8.838,0,0,0-.529,1.273.5.5,0,0,1-.5.346l-3.149.366a.247.247,0,0,0-.219.245V21.1a.247.247,0,0,0,.219.245l3.172.368a.5.5,0,0,1,.476.343,8.84,8.84,0,0,0,.529,1.273.5.5,0,0,1-.122.609L122.3,26.41a.247.247,0,0,0,.019.328l2.537,2.539a.247.247,0,0,0,.328.019l2.492-1.974a.5.5,0,0,1,.587-.1,8.862,8.862,0,0,0,1.273.529.5.5,0,0,1,.346.5Zm2.406-5.523a3.413,3.413,0,1,1,3.413-3.413,3.417,3.417,0,0,1-3.413,3.413Zm0-5.825a2.412,2.412,0,1,0,2.412,2.412,2.414,2.414,0,0,0-2.412-2.412Z" transform="translate(-96.66)"/>
    </g>
  </g>
</svg>
