<svg xmlns="http://www.w3.org/2000/svg" width="62" height="62" viewBox="0 0 62 62">
  <g id="_69" data-name="69" transform="translate(-1050 -3706)">
    <rect id="Rectángulo_402883" data-name="Rectángulo 402883" width="62" height="62" rx="31" transform="translate(1050 3706)" fill="#fff"/>
    <g id="Grupo_1100932" data-name="Grupo 1100932" transform="translate(1036.811 3680.582)">
      <g id="Grupo_1100962" data-name="Grupo 1100962" transform="translate(26.241 39.597)">
        <g id="Grupo_1100932-2" data-name="Grupo 1100932" transform="translate(9.773 28.866)">
          <rect id="Rectángulo_402895" data-name="Rectángulo 402895" width="13.055" height="1.921" fill="#9ae8ce"/>
        </g>
        <g id="Grupo_1100933" data-name="Grupo 1100933" transform="translate(0 23.211)">
          <path id="Trazado_878305" data-name="Trazado 878305" d="M57.4,190.486H30.061v1.79c0,.772.406,1.367,1.174,1.367H57.4v-3.156Z" transform="translate(-30.061 -190.486)" fill="#9ae8ce"/>
        </g>
        <g id="Grupo_1100934" data-name="Grupo 1100934" transform="translate(14.952 26.368)">
          <rect id="Rectángulo_402896" data-name="Rectángulo 402896" width="2.698" height="2.498" fill="#f4f4f4"/>
        </g>
        <g id="Grupo_1100935" data-name="Grupo 1100935" transform="translate(15.859 24.396)">
          <path id="Trazado_878306" data-name="Trazado 878306" d="M131.426,198.431a.442.442,0,1,1-.442-.442A.442.442,0,0,1,131.426,198.431Z" transform="translate(-130.542 -197.989)" fill="#f4f4f4"/>
        </g>
        <g id="Grupo_1100936" data-name="Grupo 1100936" transform="translate(0 0)">
          <path id="Trazado_878307" data-name="Trazado 878307" d="M61.068,43.417H31.655a1.594,1.594,0,0,0-1.594,1.594v1.857h32.6V45.011A1.594,1.594,0,0,0,61.068,43.417Z" transform="translate(-30.061 -43.417)" fill="#00ffdf"/>
        </g>
        <g id="Grupo_1100937" data-name="Grupo 1100937" transform="translate(0.02 23.211)">
          <path id="Trazado_878308" data-name="Trazado 878308" d="M32.274,192.276v-1.79H30.186v1.79c0,.772.406,1.367,1.174,1.367h2.088C32.68,193.642,32.274,193.048,32.274,192.276Z" transform="translate(-30.186 -190.486)" fill="#aef4db"/>
        </g>
        <g id="Grupo_1100938" data-name="Grupo 1100938" transform="translate(0.02 0)">
          <path id="Trazado_878309" data-name="Trazado 878309" d="M33.869,43.417H31.781a1.594,1.594,0,0,0-1.594,1.594v1.857h2.088V45.011A1.594,1.594,0,0,1,33.869,43.417Z" transform="translate(-30.187 -43.417)" fill="#8722e2"/>
        </g>
        <g id="Grupo_1100939" data-name="Grupo 1100939" transform="translate(28.961 1.241)">
          <path id="Trazado_878310" data-name="Trazado 878310" d="M214.531,51.767a.484.484,0,1,1-.484-.484A.484.484,0,0,1,214.531,51.767Z" transform="translate(-213.562 -51.283)" fill="#f4f4f4"/>
        </g>
        <g id="Grupo_1100940" data-name="Grupo 1100940" transform="translate(26.938 1.241)">
          <path id="Trazado_878311" data-name="Trazado 878311" d="M201.712,51.767a.484.484,0,1,1-.485-.484A.484.484,0,0,1,201.712,51.767Z" transform="translate(-200.743 -51.283)" fill="#f4f4f4"/>
        </g>
        <g id="Grupo_1100941" data-name="Grupo 1100941" transform="translate(24.848 1.241)">
          <path id="Trazado_878312" data-name="Trazado 878312" d="M188.465,51.767a.485.485,0,1,1-.484-.484A.484.484,0,0,1,188.465,51.767Z" transform="translate(-187.496 -51.283)" fill="#f4f4f4"/>
        </g>
        <g id="Grupo_1100942" data-name="Grupo 1100942" transform="translate(27.343 17.783)">
          <rect id="Rectángulo_402897" data-name="Rectángulo 402897" width="10.517" height="13.369" fill="#f4f4f4"/>
        </g>
        <g id="Grupo_1100943" data-name="Grupo 1100943" transform="translate(27.343 31.153)">
          <path id="Trazado_878313" data-name="Trazado 878313" d="M203.306,241.852a1.44,1.44,0,0,0,1.44,1.44h7.636a1.44,1.44,0,0,0,1.44-1.44V240.8H203.306Z" transform="translate(-203.306 -240.801)" fill="#9ae8ce"/>
        </g>
        <g id="Grupo_1100944" data-name="Grupo 1100944" transform="translate(27.343 15.681)">
          <path id="Trazado_878314" data-name="Trazado 878314" d="M213.822,144.21a1.44,1.44,0,0,0-1.44-1.44h-7.636a1.44,1.44,0,0,0-1.44,1.44v.663h10.516Z" transform="translate(-203.306 -142.77)" fill="#9ae8ce"/>
        </g>
        <g id="Grupo_1100945" data-name="Grupo 1100945" transform="translate(27.343 31.153)">
          <path id="Trazado_878315" data-name="Trazado 878315" d="M204.925,241.852V240.8h-1.619v1.051a1.44,1.44,0,0,0,1.44,1.44h1.618A1.44,1.44,0,0,1,204.925,241.852Z" transform="translate(-203.306 -240.801)" fill="#aef4db"/>
        </g>
        <g id="Grupo_1100946" data-name="Grupo 1100946" transform="translate(27.343 15.681)">
          <path id="Trazado_878316" data-name="Trazado 878316" d="M206.364,142.77h-1.619a1.44,1.44,0,0,0-1.44,1.44v.663h1.619v-.663A1.44,1.44,0,0,1,206.364,142.77Z" transform="translate(-203.305 -142.77)" fill="#aef4db"/>
        </g>
        <g id="Grupo_1100947" data-name="Grupo 1100947" transform="translate(32.236 32.033)">
          <path id="Trazado_878317" data-name="Trazado 878317" d="M235.041,246.746a.365.365,0,1,1-.365-.364A.365.365,0,0,1,235.041,246.746Z" transform="translate(-234.311 -246.382)" fill="#f4f4f4"/>
        </g>
        <g id="Grupo_1100948" data-name="Grupo 1100948" transform="translate(0 3.451)">
          <path id="Trazado_878318" data-name="Trazado 878318" d="M58.844,77.514h3.818V65.285h-32.6v19.76H57.4V78.954A1.44,1.44,0,0,1,58.844,77.514Z" transform="translate(-30.061 -65.285)" fill="#f4f4f4"/>
        </g>
        <g id="Grupo_1100949" data-name="Grupo 1100949" transform="translate(10.002 5.622)">
          <path id="Trazado_878319" data-name="Trazado 878319" d="M106.03,85.335a6.3,6.3,0,1,1-6.3-6.3A6.3,6.3,0,0,1,106.03,85.335Z" transform="translate(-93.432 -79.036)" fill="#f0c518"/>
        </g>
        <g id="Grupo_1100950" data-name="Grupo 1100950" transform="translate(10.002 5.622)">
          <path id="Trazado_878320" data-name="Trazado 878320" d="M95.681,85.335a6.3,6.3,0,0,1,5.175-6.193,6.3,6.3,0,1,0,0,12.386A6.3,6.3,0,0,1,95.681,85.335Z" transform="translate(-93.433 -79.036)" fill="#ffe2a9"/>
        </g>
        <g id="Grupo_1100955" data-name="Grupo 1100955" transform="translate(12.837 8.443)">
          <g id="Grupo_1100951" data-name="Grupo 1100951" transform="translate(0.006 0.012)">
            <path id="Trazado_878321" data-name="Trazado 878321" d="M116.916,102.47c-1.568,1.569-3.738,1.94-4.847.832s-.736-3.279.833-4.847,3.738-1.941,4.847-.832S118.485,100.9,116.916,102.47Z" transform="translate(-111.432 -96.985)" fill="#aa6148"/>
          </g>
          <g id="Grupo_1100952" data-name="Grupo 1100952">
            <path id="Trazado_878322" data-name="Trazado 878322" d="M113.672,99.127c1.352-1.352,3.15-1.813,4.331-1.2a2.058,2.058,0,0,0-.29-.374c-1.109-1.109-3.279-.736-4.847.832s-1.94,3.738-.833,4.847a2.036,2.036,0,0,0,.515.372C111.824,102.425,112.264,100.534,113.672,99.127Z" transform="translate(-111.396 -96.91)" fill="#bc715c"/>
          </g>
          <g id="Grupo_1100954" data-name="Grupo 1100954" transform="translate(0.421 0.462)">
            <g id="Grupo_1100953" data-name="Grupo 1100953">
              <path id="Trazado_878323" data-name="Trazado 878323" d="M114.733,105.892a.675.675,0,0,1-.02-1.349l.086,0c1.1-.033,1.6-.048,1.8-1.867a2.8,2.8,0,0,1,2.986-2.825.674.674,0,0,1-.13,1.342c-.224-.017-1.341-.017-1.524,1.633-.331,2.983-1.927,3.031-3.092,3.066l-.085,0Z" transform="translate(-114.063 -99.837)" fill="#bc715c"/>
            </g>
          </g>
        </g>
        <g id="Grupo_1100956" data-name="Grupo 1100956" transform="translate(13.514 19.948)">
          <rect id="Rectángulo_402898" data-name="Rectángulo 402898" width="5.607" height="1.491" fill="#aa6148"/>
        </g>
        <g id="Grupo_1100957" data-name="Grupo 1100957" transform="translate(29.798 27.617)">
          <rect id="Rectángulo_402899" data-name="Rectángulo 402899" width="5.607" height="1.491" fill="#aa6148"/>
        </g>
        <g id="Grupo_1100958" data-name="Grupo 1100958" transform="translate(27.343 17.783)">
          <rect id="Rectángulo_402900" data-name="Rectángulo 402900" width="1.619" height="13.369" fill="#f9f9f9"/>
        </g>
        <g id="Grupo_1100959" data-name="Grupo 1100959" transform="translate(0 3.451)">
          <rect id="Rectángulo_402901" data-name="Rectángulo 402901" width="2.098" height="19.76" fill="#f9f9f9"/>
        </g>
        <g id="Grupo_1100960" data-name="Grupo 1100960" transform="translate(14.952 26.368)">
          <rect id="Rectángulo_402902" data-name="Rectángulo 402902" width="1.365" height="2.498" fill="#f9f9f9"/>
        </g>
        <g id="Grupo_1100961" data-name="Grupo 1100961" transform="translate(9.773 28.866)">
          <rect id="Rectángulo_402903" data-name="Rectángulo 402903" width="1.365" height="1.921" fill="#aef4db"/>
        </g>
      </g>
      <g id="Grupo_1100982" data-name="Grupo 1100982" transform="translate(25.525 38.881)">
        <g id="Grupo_1100963" data-name="Grupo 1100963" transform="translate(9.773 28.866)">
          <path id="Trazado_878324" data-name="Trazado 878324" d="M101.219,225.132H88.165a.716.716,0,0,1-.716-.716V222.5a.716.716,0,0,1,.716-.716h13.055a.716.716,0,0,1,.716.716v1.921A.716.716,0,0,1,101.219,225.132ZM88.881,223.7H100.5v-.489H88.881Z" transform="translate(-87.449 -221.78)" fill="#161616"/>
        </g>
        <g id="Grupo_1100964" data-name="Grupo 1100964" transform="translate(14.952 26.368)">
          <path id="Trazado_878325" data-name="Trazado 878325" d="M123.676,209.88h-2.7a.716.716,0,0,1-.716-.716v-2.5a.716.716,0,0,1,.716-.716h2.7a.716.716,0,0,1,.716.716v2.5A.716.716,0,0,1,123.676,209.88Zm-1.982-1.432h1.266v-1.067h-1.266Z" transform="translate(-120.263 -205.95)" fill="#161616"/>
        </g>
        <g id="Grupo_1100965" data-name="Grupo 1100965" transform="translate(16.575 25.112)">
          <path id="Trazado_878326" data-name="Trazado 878326" d="M131.426,198.431a.442.442,0,1,1-.442-.442A.442.442,0,0,1,131.426,198.431Z" transform="translate(-130.542 -197.989)" fill="#161616"/>
        </g>
        <g id="Grupo_1100966" data-name="Grupo 1100966" transform="translate(0 0)">
          <path id="Trazado_878327" data-name="Trazado 878327" d="M58.843,43.764h-32.6a.716.716,0,0,1-.716-.716V41.191a2.313,2.313,0,0,1,2.31-2.31H57.248a2.313,2.313,0,0,1,2.31,2.31v1.857A.716.716,0,0,1,58.843,43.764ZM26.957,42.332H58.127V41.191a.88.88,0,0,0-.878-.878H27.836a.88.88,0,0,0-.878.878Z" transform="translate(-25.526 -38.881)" fill="#161616"/>
        </g>
        <g id="Grupo_1100967" data-name="Grupo 1100967" transform="translate(29.677 1.957)">
          <path id="Trazado_878328" data-name="Trazado 878328" d="M214.531,51.767a.484.484,0,1,1-.484-.484A.484.484,0,0,1,214.531,51.767Z" transform="translate(-213.562 -51.283)" fill="#161616"/>
        </g>
        <g id="Grupo_1100968" data-name="Grupo 1100968" transform="translate(27.654 1.957)">
          <path id="Trazado_878329" data-name="Trazado 878329" d="M201.712,51.767a.484.484,0,1,1-.485-.484A.484.484,0,0,1,201.712,51.767Z" transform="translate(-200.743 -51.283)" fill="#161616"/>
        </g>
        <g id="Grupo_1100969" data-name="Grupo 1100969" transform="translate(25.563 1.957)">
          <path id="Trazado_878330" data-name="Trazado 878330" d="M188.465,51.767a.485.485,0,1,1-.484-.484A.484.484,0,0,1,188.465,51.767Z" transform="translate(-187.496 -51.283)" fill="#161616"/>
        </g>
        <g id="Grupo_1100970" data-name="Grupo 1100970" transform="translate(27.343 17.783)">
          <path id="Trazado_878331" data-name="Trazado 878331" d="M210,166.359H199.486a.716.716,0,0,1-.716-.716V152.274a.716.716,0,0,1,.716-.716H210a.716.716,0,0,1,.716.716v6.934a.716.716,0,0,1-1.431,0V152.99H200.2v11.938h9.085v-2.418a.716.716,0,1,1,1.431,0v3.133A.716.716,0,0,1,210,166.359Z" transform="translate(-198.77 -151.558)" fill="#161616"/>
        </g>
        <g id="Grupo_1100971" data-name="Grupo 1100971" transform="translate(27.343 31.153)">
          <path id="Trazado_878332" data-name="Trazado 878332" d="M208.563,240.188h-7.636a2.158,2.158,0,0,1-2.156-2.156v-1.051a.716.716,0,0,1,.716-.716H210a.716.716,0,0,1,.716.716v1.051A2.158,2.158,0,0,1,208.563,240.188ZM200.2,237.7v.335a.725.725,0,0,0,.724.724h7.636a.725.725,0,0,0,.724-.724V237.7Z" transform="translate(-198.771 -236.266)" fill="#161616"/>
        </g>
        <g id="Grupo_1100972" data-name="Grupo 1100972" transform="translate(27.343 15.681)">
          <path id="Trazado_878333" data-name="Trazado 878333" d="M210,141.769H199.487a.716.716,0,0,1-.716-.716v-.663a2.158,2.158,0,0,1,2.156-2.156h7.636a2.158,2.158,0,0,1,2.156,2.156v.663A.716.716,0,0,1,210,141.769Zm-9.8-1.431h9.081a.725.725,0,0,0-.723-.671h-7.636A.725.725,0,0,0,200.2,140.338Z" transform="translate(-198.771 -138.235)" fill="#161616"/>
        </g>
        <g id="Grupo_1100973" data-name="Grupo 1100973" transform="translate(32.952 32.749)">
          <path id="Trazado_878334" data-name="Trazado 878334" d="M235.041,246.746a.365.365,0,1,1-.365-.364A.365.365,0,0,1,235.041,246.746Z" transform="translate(-234.311 -246.382)" fill="#161616"/>
        </g>
        <g id="Grupo_1100974" data-name="Grupo 1100974" transform="translate(0 3.452)">
          <path id="Trazado_878335" data-name="Trazado 878335" d="M53.584,81.942H26.242a.716.716,0,0,1-.716-.716V67.58a.716.716,0,0,1,1.431,0V80.51H52.868V75.135a2.158,2.158,0,0,1,2.156-2.156h3.1v-10.8H26.957v2.1a.716.716,0,0,1-1.431,0V61.466a.716.716,0,0,1,.716-.716h32.6a.716.716,0,0,1,.716.716V73.695a.716.716,0,0,1-.716.716H55.025a.725.725,0,0,0-.724.724v6.091A.716.716,0,0,1,53.584,81.942Z" transform="translate(-25.526 -60.75)" fill="#161616"/>
        </g>
        <g id="Grupo_1100975" data-name="Grupo 1100975" transform="translate(0 23.211)">
          <path id="Trazado_878336" data-name="Trazado 878336" d="M53.584,190.538H27.415a1.907,1.907,0,0,1-1.89-2.083v-1.79a.716.716,0,0,1,.716-.716H53.583a.716.716,0,0,1,.716.716v3.156A.715.715,0,0,1,53.584,190.538Zm-26.627-3.156v1.074c0,.432.154.651.458.651H52.868v-1.725Z" transform="translate(-25.525 -185.95)" fill="#161616"/>
        </g>
        <g id="Grupo_1100976" data-name="Grupo 1100976" transform="translate(10.002 5.622)">
          <path id="Trazado_878337" data-name="Trazado 878337" d="M95.912,88.53a7.015,7.015,0,1,1,7.015-7.015A7.023,7.023,0,0,1,95.912,88.53Zm0-12.6a5.583,5.583,0,1,0,5.583,5.583A5.59,5.59,0,0,0,95.912,75.932Z" transform="translate(-88.897 -74.5)" fill="#161616"/>
        </g>
        <g id="Grupo_1100979" data-name="Grupo 1100979" transform="translate(12.814 8.434)">
          <g id="Grupo_1100977" data-name="Grupo 1100977">
            <path id="Trazado_878338" data-name="Trazado 878338" d="M109.762,100.723a3.029,3.029,0,0,1-2.19-.857c-1.409-1.41-1.043-3.984.833-5.86s4.449-2.242,5.859-.832a3.182,3.182,0,0,1,.787,2.879,5.664,5.664,0,0,1-1.619,2.981A5.355,5.355,0,0,1,109.762,100.723Zm2.322-6.965a4.007,4.007,0,0,0-2.667,1.261c-1.265,1.265-1.646,3.021-.832,3.835s2.57.432,3.834-.832h0a4.23,4.23,0,0,0,1.221-2.211,1.8,1.8,0,0,0-.388-1.624A1.608,1.608,0,0,0,112.085,93.758Z" transform="translate(-106.716 -92.318)" fill="#161616"/>
          </g>
          <g id="Grupo_1100978" data-name="Grupo 1100978" transform="translate(0.952 1.132)">
            <path id="Trazado_878339" data-name="Trazado 878339" d="M113.462,105.693a.716.716,0,0,1-.022-1.431l.21-.006c1.128-.027,1.6-.039,1.8-1.888a3.229,3.229,0,0,1,1.174-2.337,2.847,2.847,0,0,1,2.059-.517.716.716,0,0,1-.23,1.413,1.436,1.436,0,0,0-.977.254,1.894,1.894,0,0,0-.6,1.345c-.345,3.092-1.989,3.132-3.189,3.161l-.2.005Z" transform="translate(-112.747 -99.488)" fill="#161616"/>
          </g>
        </g>
        <g id="Grupo_1100980" data-name="Grupo 1100980" transform="translate(14.23 20.664)">
          <rect id="Rectángulo_402904" data-name="Rectángulo 402904" width="5.607" height="1.491" fill="#161616"/>
        </g>
        <g id="Grupo_1100981" data-name="Grupo 1100981" transform="translate(30.513 28.333)">
          <rect id="Rectángulo_402905" data-name="Rectángulo 402905" width="5.607" height="1.491" fill="#161616"/>
        </g>
      </g>
    </g>
  </g>
</svg>
