<svg xmlns="http://www.w3.org/2000/svg" width="62" height="62" viewBox="0 0 62 62">
  <g id="_70" data-name="70" transform="translate(-630 -4010)">
    <rect id="Rectángulo_402929" data-name="Rectángulo 402929" width="62" height="62" rx="31" transform="translate(630 4010)" fill="#fff"/>
    <g id="Layer_35" transform="translate(634.491 4020.421)">
      <g id="Grupo_1101343" data-name="Grupo 1101343" transform="translate(9.048 0)">
        <g id="Grupo_1101233" data-name="Grupo 1101233" transform="translate(6.737 7.991)">
          <g id="Grupo_1101232" data-name="Grupo 1101232">
            <path id="Trazado_878350" data-name="Trazado 878350" d="M66.544,56.338a.311.311,0,0,0-.3-.3,6.039,6.039,0,0,1-4.167-1.5.312.312,0,0,0-.464.029,6.287,6.287,0,0,1-6.294,2.068.309.309,0,0,0-.374.3V61.6a5.8,5.8,0,0,0,11.6,0V56.429Q66.545,56.383,66.544,56.338Z" transform="translate(-54.945 -54.44)" fill="#f9d0b4"/>
          </g>
        </g>
        <g id="Grupo_1101235" data-name="Grupo 1101235" transform="translate(4.854 2.588)">
          <g id="Grupo_1101234" data-name="Grupo 1101234">
            <path id="Trazado_878351" data-name="Trazado 878351" d="M54.338,18.781a3.282,3.282,0,0,0-1.692.472A3.317,3.317,0,0,0,49.8,17.632H48.1a6,6,0,0,0-5.987,5.987V26.3A2.406,2.406,0,0,1,44,25.8v-.279a.309.309,0,0,1,.374-.3,6.287,6.287,0,0,0,6.294-2.068.312.312,0,0,1,.464-.029,6.038,6.038,0,0,0,4.167,1.5.311.311,0,0,1,.3.3c0,.03,0,.06,0,.091V25.8a2.407,2.407,0,0,1,2.052.65V22.094A3.323,3.323,0,0,0,54.338,18.781Z" transform="translate(-42.116 -17.632)" fill="#5b5d60"/>
          </g>
        </g>
        <g id="Grupo_1101237" data-name="Grupo 1101237" transform="translate(18.323 10.727)">
          <g id="Grupo_1101236" data-name="Grupo 1101236">
            <path id="Trazado_878352" data-name="Trazado 878352" d="M134.255,73.074a2.432,2.432,0,0,0-.372.03v4.391c0,.131-.006.26-.015.389a2.42,2.42,0,1,0,.387-4.809Z" transform="translate(-133.868 -73.074)" fill="#f9d0b4"/>
          </g>
        </g>
        <g id="Grupo_1101239" data-name="Grupo 1101239" transform="translate(3.944 10.727)">
          <g id="Grupo_1101238" data-name="Grupo 1101238">
            <path id="Trazado_878353" data-name="Trazado 878353" d="M38.707,77.494V73.1a2.422,2.422,0,1,0,.015,4.78h0C38.713,77.754,38.707,77.625,38.707,77.494Z" transform="translate(-35.913 -73.074)" fill="#f9d0b4"/>
          </g>
        </g>
        <g id="Grupo_1101241" data-name="Grupo 1101241" transform="translate(7.122 22.512)">
          <g id="Grupo_1101240" data-name="Grupo 1101240" transform="translate(0)">
            <path id="Trazado_878354" data-name="Trazado 878354" d="M62.183,155.793l-2.249-2.435a2,2,0,0,1-.656.518l-1.592.785-.118.03,2.674,2.895a.562.562,0,0,0,.794.031l1.115-1.03A.562.562,0,0,0,62.183,155.793Z" transform="translate(-57.568 -153.358)" fill="#edf4fc"/>
          </g>
        </g>
        <g id="Grupo_1101243" data-name="Grupo 1101243" transform="translate(13.357 22.511)">
          <g id="Grupo_1101242" data-name="Grupo 1101242">
            <path id="Trazado_878355" data-name="Trazado 878355" d="M103.093,153.875a2,2,0,0,1-.656-.518l-2.249,2.435a.562.562,0,0,0,.031.794l1.115,1.03a.562.562,0,0,0,.794-.031l.907-.982v-.975a1.319,1.319,0,0,1,1.017-1.28Z" transform="translate(-100.038 -153.357)" fill="#edf4fc"/>
          </g>
        </g>
        <g id="Grupo_1101245" data-name="Grupo 1101245" transform="translate(0.367 23.844)">
          <g id="Grupo_1101244" data-name="Grupo 1101244">
            <path id="Trazado_878356" data-name="Trazado 878356" d="M27.534,174.489V164.35l-.907.982a.562.562,0,0,1-.794.031l-1.115-1.03a.559.559,0,0,1-.179-.419H23.066a.559.559,0,0,1-.179.419l-1.115,1.03a.562.562,0,0,1-.794-.031L18.3,162.437l-4.387,1.1a2.289,2.289,0,0,0-1.727,2.092l-.641,9.5a.636.636,0,0,0,.635.672H28.85A1.319,1.319,0,0,1,27.534,174.489Z" transform="translate(-11.548 -162.437)" fill="#00ffdf"/>
          </g>
        </g>
        <g id="Grupo_1101247" data-name="Grupo 1101247" transform="translate(9.488 20.245)">
          <g id="Grupo_1101246" data-name="Grupo 1101246" transform="translate(0)">
            <path id="Trazado_878357" data-name="Trazado 878357" d="M79.491,138.906v-.987a5.76,5.76,0,0,1-5.344.087v.9a2,2,0,0,1-.461,1.279l2.249,2.435a.558.558,0,0,1,.147.375h1.474a.558.558,0,0,1,.147-.375l2.249-2.435A2,2,0,0,1,79.491,138.906Z" transform="translate(-73.686 -137.919)" fill="#f9d0b4"/>
          </g>
        </g>
        <g id="Grupo_1101249" data-name="Grupo 1101249" transform="translate(6.823 28.991)">
          <g id="Grupo_1101248" data-name="Grupo 1101248">
            <path id="Trazado_878358" data-name="Trazado 878358" d="M59.146,197.5H55.88a.349.349,0,0,0-.349.349v.917a.349.349,0,0,0,.349.349h3.266a.349.349,0,0,0,.349-.349v-.917A.349.349,0,0,0,59.146,197.5Z" transform="translate(-55.531 -197.5)" fill="#fcdd86"/>
          </g>
        </g>
        <g id="Grupo_1101251" data-name="Grupo 1101251" transform="translate(22.806 19.863)">
          <g id="Grupo_1101250" data-name="Grupo 1101250">
            <path id="Trazado_878359" data-name="Trazado 878359" d="M168.972,135.314h-3.829a.734.734,0,1,0,0,1.468h3.829a.734.734,0,1,0,0-1.468Z" transform="translate(-164.409 -135.314)" fill="#5290db"/>
          </g>
        </g>
        <g id="Grupo_1101253" data-name="Grupo 1101253" transform="translate(16.353 23.467)">
          <g id="Grupo_1101252" data-name="Grupo 1101252">
            <path id="Trazado_878360" data-name="Trazado 878360" d="M137.341,159.869H121.769a1.319,1.319,0,0,0-1.315,1.315V172.3a1.319,1.319,0,0,0,1.315,1.315h15.572a1.319,1.319,0,0,0,1.315-1.315V161.184A1.319,1.319,0,0,0,137.341,159.869Z" transform="translate(-120.454 -159.869)" fill="#debefb"/>
          </g>
        </g>
        <g id="Grupo_1101255" data-name="Grupo 1101255" transform="translate(16.353 23.467)">
          <g id="Grupo_1101254" data-name="Grupo 1101254">
            <path id="Trazado_878361" data-name="Trazado 878361" d="M137.341,159.869H121.769a1.319,1.319,0,0,0-1.315,1.315V165.4a1.319,1.319,0,0,0,1.315,1.315H126v-1.033a.159.159,0,0,1,.159-.159h.506a.159.159,0,0,0,.152-.116,2.839,2.839,0,0,1,.229-.552.159.159,0,0,0-.025-.19l-.358-.358a.159.159,0,0,1,0-.225l.76-.76a.159.159,0,0,1,.225,0l.358.358a.159.159,0,0,0,.19.025,2.839,2.839,0,0,1,.552-.229.159.159,0,0,0,.116-.152v-.506a.159.159,0,0,1,.159-.159h1.075a.159.159,0,0,1,.159.159v.506a.159.159,0,0,0,.116.152,2.847,2.847,0,0,1,.552.229.159.159,0,0,0,.19-.025l.358-.358a.159.159,0,0,1,.225,0l.76.76a.159.159,0,0,1,0,.225l-.358.358a.159.159,0,0,0-.025.19,2.838,2.838,0,0,1,.229.552.159.159,0,0,0,.152.116h.506a.159.159,0,0,1,.159.159v1.033h4.228a1.319,1.319,0,0,0,1.315-1.315v-4.215A1.319,1.319,0,0,0,137.341,159.869Z" transform="translate(-120.454 -159.869)" fill="#debefb"/>
          </g>
        </g>
        <g id="Grupo_1101257" data-name="Grupo 1101257" transform="translate(18.665 30.312)">
          <g id="Grupo_1101256" data-name="Grupo 1101256">
            <rect id="Rectángulo_402930" data-name="Rectángulo 402930" width="1.468" height="6.899" fill="#3a70bf"/>
          </g>
        </g>
        <g id="Grupo_1101259" data-name="Grupo 1101259" transform="translate(30.776 30.312)">
          <g id="Grupo_1101258" data-name="Grupo 1101258">
            <rect id="Rectángulo_402931" data-name="Rectángulo 402931" width="1.468" height="6.899" fill="#3a70bf"/>
          </g>
        </g>
        <g id="Grupo_1101261" data-name="Grupo 1101261" transform="translate(21.896 26.259)">
          <g id="Grupo_1101260" data-name="Grupo 1101260">
            <path id="Trazado_878362" data-name="Trazado 878362" d="M165.17,181.746h-.506a.159.159,0,0,1-.152-.116,2.849,2.849,0,0,0-.229-.552.159.159,0,0,1,.025-.19l.358-.358a.159.159,0,0,0,0-.225l-.76-.76a.159.159,0,0,0-.225,0l-.358.358a.159.159,0,0,1-.19.025,2.839,2.839,0,0,0-.552-.229.159.159,0,0,1-.116-.152v-.506a.159.159,0,0,0-.159-.159h-1.075a.159.159,0,0,0-.159.159v.506a.159.159,0,0,1-.116.152,2.844,2.844,0,0,0-.552.229.159.159,0,0,1-.19-.025l-.358-.358a.159.159,0,0,0-.225,0l-.76.76a.159.159,0,0,0,0,.225l.358.358a.159.159,0,0,1,.025.19,2.839,2.839,0,0,0-.229.552.159.159,0,0,1-.152.116h-.506a.159.159,0,0,0-.159.159v1.075a.159.159,0,0,0,.159.159h.506a.159.159,0,0,1,.152.116,2.835,2.835,0,0,0,.229.552.159.159,0,0,1-.025.19l-.358.358a.159.159,0,0,0,0,.225l.76.76a.159.159,0,0,0,.225,0l.358-.358a.159.159,0,0,1,.19-.025,2.838,2.838,0,0,0,.552.229.159.159,0,0,1,.116.152v.506a.159.159,0,0,0,.159.159h1.075a.159.159,0,0,0,.159-.159v-.506a.159.159,0,0,1,.116-.152,2.838,2.838,0,0,0,.552-.229.159.159,0,0,1,.19.025l.358.358a.159.159,0,0,0,.225,0l.76-.76a.159.159,0,0,0,0-.225l-.358-.358a.159.159,0,0,1-.025-.19,2.84,2.84,0,0,0,.229-.552.159.159,0,0,1,.152-.116h.506a.159.159,0,0,0,.159-.159v-1.075A.159.159,0,0,0,165.17,181.746Z" transform="translate(-158.212 -178.884)" fill="#fcdd86"/>
          </g>
        </g>
        <g id="Grupo_1101263" data-name="Grupo 1101263" transform="translate(24.178 28.541)">
          <g id="Grupo_1101262" data-name="Grupo 1101262">
            <path id="Trazado_878363" data-name="Trazado 878363" d="M175.034,194.43a1.276,1.276,0,1,0,1.276,1.276A1.276,1.276,0,0,0,175.034,194.43Z" transform="translate(-173.758 -194.43)" fill="#f5c84c"/>
          </g>
        </g>
        <g id="Grupo_1101265" data-name="Grupo 1101265" transform="translate(14.167 12.78)">
          <g id="Grupo_1101264" data-name="Grupo 1101264">
            <path id="Trazado_878364" data-name="Trazado 878364" d="M106.291,87.06a.73.73,0,1,0,.73.73A.73.73,0,0,0,106.291,87.06Z" transform="translate(-105.561 -87.06)"/>
          </g>
        </g>
        <g id="Grupo_1101267" data-name="Grupo 1101267" transform="translate(9.617 12.78)">
          <g id="Grupo_1101266" data-name="Grupo 1101266" transform="translate(0)">
            <path id="Trazado_878365" data-name="Trazado 878365" d="M75.291,87.06a.73.73,0,1,0,.73.73A.73.73,0,0,0,75.291,87.06Z" transform="translate(-74.561 -87.06)"/>
          </g>
        </g>
        <g id="Grupo_1101269" data-name="Grupo 1101269" transform="translate(10.476 16.345)">
          <g id="Grupo_1101268" data-name="Grupo 1101268">
            <path id="Trazado_878366" data-name="Trazado 878366" d="M84.667,111.554a.367.367,0,0,0-.492-.164,3.828,3.828,0,0,1-3.228,0,.367.367,0,1,0-.329.656,4.559,4.559,0,0,0,3.886,0A.367.367,0,0,0,84.667,111.554Z" transform="translate(-80.415 -111.351)"/>
          </g>
        </g>
        <g id="Grupo_1101272" data-name="Grupo 1101272" transform="translate(6.37 7.624)">
          <g id="Grupo_1101271" data-name="Grupo 1101271">
            <g id="Grupo_1101270" data-name="Grupo 1101270">
              <path id="Trazado_878367" data-name="Trazado 878367" d="M64.778,54.2a.676.676,0,0,0-.656-.664,5.707,5.707,0,0,1-3.921-1.4.679.679,0,0,0-1.008.063,5.876,5.876,0,0,1-5.932,1.937.676.676,0,0,0-.817.662v4.666a6.167,6.167,0,1,0,12.334,0V54.3C64.779,54.263,64.779,54.231,64.778,54.2Zm-.733,5.265a5.433,5.433,0,1,1-10.866,0v-4.6A6.687,6.687,0,0,0,59.731,52.7a6.393,6.393,0,0,0,4.314,1.565c0,.01,0,.02,0,.031v5.167Z" transform="translate(-52.445 -51.94)"/>
            </g>
          </g>
        </g>
        <g id="Grupo_1101276" data-name="Grupo 1101276" transform="translate(4.487 2.221)">
          <g id="Grupo_1101275" data-name="Grupo 1101275">
            <g id="Grupo_1101274" data-name="Grupo 1101274">
              <g id="Grupo_1101273" data-name="Grupo 1101273">
                <path id="Trazado_878368" data-name="Trazado 878368" d="M52.206,16.281a3.647,3.647,0,0,0-1.572.359,3.7,3.7,0,0,0-2.962-1.508h-1.7a6.361,6.361,0,0,0-6.354,6.354v2.682a.367.367,0,0,0,.6.287A2.031,2.031,0,0,1,41.495,24a2.084,2.084,0,0,1,.316.025.367.367,0,0,0,.423-.363v-.2A6.687,6.687,0,0,0,48.786,21.3,6.394,6.394,0,0,0,53.1,22.861c0,.01,0,.02,0,.031v.776a.367.367,0,0,0,.423.363A2.071,2.071,0,0,1,53.839,24a2.043,2.043,0,0,1,1.425.577.367.367,0,0,0,.622-.264V19.961A3.684,3.684,0,0,0,52.206,16.281ZM55.152,23.6a2.772,2.772,0,0,0-1.313-.329h-.005v-.379c0-.033,0-.065,0-.1a.676.676,0,0,0-.656-.664,5.707,5.707,0,0,1-3.921-1.4.679.679,0,0,0-1.008.063,5.876,5.876,0,0,1-5.932,1.937.677.677,0,0,0-.568.138.668.668,0,0,0-.238.4h-.016a2.759,2.759,0,0,0-1.144.245v-2.03a5.626,5.626,0,0,1,5.62-5.62h1.7A2.966,2.966,0,0,1,50.2,17.309a.367.367,0,0,0,.5.126,2.936,2.936,0,0,1,4.45,2.526V23.6Z" transform="translate(-39.617 -15.132)"/>
              </g>
            </g>
          </g>
        </g>
        <g id="Grupo_1101278" data-name="Grupo 1101278" transform="translate(12.255 26.661)">
          <g id="Grupo_1101277" data-name="Grupo 1101277">
            <path id="Trazado_878369" data-name="Trazado 878369" d="M92.9,181.629a.367.367,0,0,0-.367.367v8.76a.367.367,0,1,0,.734,0V182A.367.367,0,0,0,92.9,181.629Z" transform="translate(-92.531 -181.629)"/>
          </g>
        </g>
        <g id="Grupo_1101280" data-name="Grupo 1101280" transform="translate(4.221 29.425)">
          <g id="Grupo_1101279" data-name="Grupo 1101279">
            <path id="Trazado_878370" data-name="Trazado 878370" d="M38.172,200.458a.367.367,0,0,0-.367.367v7.27a.367.367,0,0,0,.734,0v-7.27A.367.367,0,0,0,38.172,200.458Z" transform="translate(-37.805 -200.458)"/>
          </g>
        </g>
        <g id="Grupo_1101283" data-name="Grupo 1101283" transform="translate(17.956 10.36)">
          <g id="Grupo_1101282" data-name="Grupo 1101282">
            <g id="Grupo_1101281" data-name="Grupo 1101281">
              <path id="Trazado_878371" data-name="Trazado 878371" d="M132.122,70.574a2.822,2.822,0,0,0-.428.034.367.367,0,0,0-.311.363v4.391c0,.108,0,.224-.014.364a.367.367,0,0,0,.308.387,2.787,2.787,0,1,0,.445-5.539Zm0,4.843h-.005c0-.019,0-.037,0-.056V71.308h.005a2.054,2.054,0,1,1,0,4.109Z" transform="translate(-131.368 -70.574)"/>
            </g>
          </g>
        </g>
        <g id="Grupo_1101286" data-name="Grupo 1101286" transform="translate(3.577 10.359)">
          <g id="Grupo_1101285" data-name="Grupo 1101285">
            <g id="Grupo_1101284" data-name="Grupo 1101284">
              <path id="Trazado_878372" data-name="Trazado 878372" d="M36.941,75.36V70.969a.367.367,0,0,0-.311-.363,2.822,2.822,0,0,0-.428-.034,2.789,2.789,0,1,0,.445,5.538.367.367,0,0,0,.308-.387C36.945,75.584,36.941,75.468,36.941,75.36Zm-.739.056a2.055,2.055,0,0,1,0-4.109h.005V75.36c0,.018,0,.037,0,.056Z" transform="translate(-33.413 -70.573)"/>
            </g>
          </g>
        </g>
        <g id="Grupo_1101289" data-name="Grupo 1101289" transform="translate(6.756 22.145)">
          <g id="Grupo_1101288" data-name="Grupo 1101288">
            <g id="Grupo_1101287" data-name="Grupo 1101287">
              <path id="Trazado_878373" data-name="Trazado 878373" d="M60.321,153.411l-2.249-2.435a.375.375,0,0,0-.279-.118.367.367,0,0,0-.273.133,1.626,1.626,0,0,1-.536.423l-1.557.768-.08.02a.367.367,0,0,0-.18.6l2.674,2.9a.923.923,0,0,0,.646.3h.038a.922.922,0,0,0,.629-.247l1.115-1.03A.93.93,0,0,0,60.321,153.411Zm-.55.774-1.115,1.03a.2.2,0,0,1-.14.052.2.2,0,0,1-.136-.063l-2.323-2.515,1.251-.617a2.362,2.362,0,0,0,.484-.317l1.989,2.153A.2.2,0,0,1,59.771,154.185Z" transform="translate(-55.069 -150.859)"/>
            </g>
          </g>
        </g>
        <g id="Grupo_1101291" data-name="Grupo 1101291" transform="translate(12.99 22.145)">
          <g id="Grupo_1101290" data-name="Grupo 1101290">
            <path id="Trazado_878374" data-name="Trazado 878374" d="M102.042,151.868l-.919-.453a1.624,1.624,0,0,1-.536-.423.367.367,0,0,0-.273-.133.375.375,0,0,0-.279.118l-2.249,2.435a.929.929,0,0,0,.052,1.313l1.115,1.03a.93.93,0,0,0,1.313-.052l.876-.949a.367.367,0,0,0-.539-.5l-.876.949a.2.2,0,0,1-.276.011l-1.115-1.03a.2.2,0,0,1-.011-.276l1.99-2.154a2.358,2.358,0,0,0,.484.317l.92.453a.367.367,0,1,0,.324-.658Z" transform="translate(-97.539 -150.858)"/>
          </g>
        </g>
        <g id="Grupo_1101293" data-name="Grupo 1101293" transform="translate(11.564 24.954)">
          <g id="Grupo_1101292" data-name="Grupo 1101292">
            <path id="Trazado_878375" data-name="Trazado 878375" d="M89.523,170H88.195a.367.367,0,1,0,0,.734h1.328a.367.367,0,1,0,0-.734Z" transform="translate(-87.828 -170)"/>
          </g>
        </g>
        <g id="Grupo_1101295" data-name="Grupo 1101295" transform="translate(0 23.477)">
          <g id="Grupo_1101294" data-name="Grupo 1101294">
            <path id="Trazado_878376" data-name="Trazado 878376" d="M26.716,173.3H10.051a.269.269,0,0,1-.269-.28l.641-9.5a1.913,1.913,0,0,1,1.45-1.757l4.387-1.1a.367.367,0,0,0-.179-.712l-4.387,1.1a2.642,2.642,0,0,0-2,2.423l-.641,9.5a1,1,0,0,0,1,1.059H26.716a.367.367,0,0,0,0-.734Z" transform="translate(-9.048 -159.936)"/>
          </g>
        </g>
        <g id="Grupo_1101297" data-name="Grupo 1101297" transform="translate(14.927 19.973)">
          <g id="Grupo_1101296" data-name="Grupo 1101296">
            <path id="Trazado_878377" data-name="Trazado 878377" d="M111.845,138.367a1.64,1.64,0,0,1-.377-1.045v-.893a.367.367,0,0,0-.734,0v.893a2.375,2.375,0,0,0,.546,1.513.367.367,0,0,0,.565-.468Z" transform="translate(-110.734 -136.062)"/>
          </g>
        </g>
        <g id="Grupo_1101299" data-name="Grupo 1101299" transform="translate(9.121 20.028)">
          <g id="Grupo_1101298" data-name="Grupo 1101298">
            <path id="Trazado_878378" data-name="Trazado 878378" d="M72.014,136.438a.367.367,0,0,0-.367.367v.838a1.641,1.641,0,0,1-.377,1.045.367.367,0,1,0,.565.468,2.377,2.377,0,0,0,.546-1.513V136.8A.367.367,0,0,0,72.014,136.438Z" transform="translate(-71.186 -136.438)"/>
          </g>
        </g>
        <g id="Grupo_1101302" data-name="Grupo 1101302" transform="translate(6.456 28.624)">
          <g id="Grupo_1101301" data-name="Grupo 1101301">
            <g id="Grupo_1101300" data-name="Grupo 1101300">
              <path id="Trazado_878379" data-name="Trazado 878379" d="M57.013,195H53.746a.716.716,0,0,0-.715.716v.917a.716.716,0,0,0,.715.716h3.266a.716.716,0,0,0,.716-.716v-.917A.716.716,0,0,0,57.013,195Zm-.018,1.615H53.765v-.881h3.229Z" transform="translate(-53.031 -195)"/>
            </g>
          </g>
        </g>
        <g id="Grupo_1101304" data-name="Grupo 1101304" transform="translate(27.883 20.23)">
          <g id="Grupo_1101303" data-name="Grupo 1101303">
            <path id="Trazado_878380" data-name="Trazado 878380" d="M200.949,137.815h-1.585a.367.367,0,0,0,0,.734h1.585a1.288,1.288,0,0,1,1.287,1.286v1.114a.367.367,0,0,0,.734,0v-1.114A2.023,2.023,0,0,0,200.949,137.815Z" transform="translate(-198.997 -137.815)"/>
          </g>
        </g>
        <g id="Grupo_1101306" data-name="Grupo 1101306" transform="translate(19.053 20.23)">
          <g id="Grupo_1101305" data-name="Grupo 1101305">
            <path id="Trazado_878381" data-name="Trazado 878381" d="M142.457,137.815h-1.592a2.023,2.023,0,0,0-2.02,2.02v1.1a.367.367,0,0,0,.734,0v-1.1a1.288,1.288,0,0,1,1.286-1.286h1.592a.367.367,0,0,0,0-.734Z" transform="translate(-138.845 -137.815)"/>
          </g>
        </g>
        <g id="Grupo_1101308" data-name="Grupo 1101308" transform="translate(18.874 0)">
          <g id="Grupo_1101307" data-name="Grupo 1101307">
            <path id="Trazado_878382" data-name="Trazado 878382" d="M140.318,1.3A1.629,1.629,0,0,1,139.012.025a.029.029,0,0,0-.058,0A1.629,1.629,0,0,1,137.647,1.3a.029.029,0,0,0,0,.057,1.629,1.629,0,0,1,1.306,1.28.029.029,0,0,0,.058,0,1.629,1.629,0,0,1,1.306-1.28A.029.029,0,0,0,140.318,1.3Z" transform="translate(-137.622 0)" fill="#f5c84c"/>
          </g>
        </g>
        <g id="Grupo_1101310" data-name="Grupo 1101310" transform="translate(0.761 20.844)">
          <g id="Grupo_1101309" data-name="Grupo 1101309">
            <path id="Trazado_878383" data-name="Trazado 878383" d="M16.459,143.077a1.346,1.346,0,0,1-1.079-1.057.024.024,0,0,0-.048,0,1.346,1.346,0,0,1-1.079,1.057.024.024,0,0,0,0,.047,1.346,1.346,0,0,1,1.079,1.057.024.024,0,0,0,.048,0,1.346,1.346,0,0,1,1.079-1.057A.024.024,0,0,0,16.459,143.077Z" transform="translate(-14.232 -142)" fill="#fc657e"/>
          </g>
        </g>
        <g id="Grupo_1101312" data-name="Grupo 1101312" transform="translate(23.709 14.652)">
          <g id="Grupo_1101311" data-name="Grupo 1101311">
            <path id="Trazado_878384" data-name="Trazado 878384" d="M172.638,100.62H172.3v-.342a.463.463,0,1,0-.927,0v.342h-.342a.463.463,0,1,0,0,.927h.342v.342a.463.463,0,1,0,.927,0v-.342h.342a.463.463,0,1,0,0-.927Z" transform="translate(-170.564 -99.815)" fill="#70d6f9"/>
          </g>
        </g>
        <g id="Grupo_1101314" data-name="Grupo 1101314" transform="translate(22.103 3.825)">
          <g id="Grupo_1101313" data-name="Grupo 1101313">
            <path id="Trazado_878385" data-name="Trazado 878385" d="M160.118,26.06a.5.5,0,1,0,.5.5A.5.5,0,0,0,160.118,26.06Z" transform="translate(-159.622 -26.06)" fill="#87d147"/>
          </g>
        </g>
        <g id="Grupo_1101316" data-name="Grupo 1101316" transform="translate(21.075 17.477)">
          <g id="Grupo_1101315" data-name="Grupo 1101315">
            <path id="Trazado_878386" data-name="Trazado 878386" d="M153.118,119.06a.5.5,0,1,0,.5.5A.5.5,0,0,0,153.118,119.06Z" transform="translate(-152.622 -119.06)" fill="#f5c84c"/>
          </g>
        </g>
        <g id="Grupo_1101321" data-name="Grupo 1101321" transform="translate(22.439 19.496)">
          <g id="Grupo_1101320" data-name="Grupo 1101320">
            <g id="Grupo_1101319" data-name="Grupo 1101319">
              <g id="Grupo_1101318" data-name="Grupo 1101318">
                <g id="Grupo_1101317" data-name="Grupo 1101317">
                  <path id="Trazado_878387" data-name="Trazado 878387" d="M166.839,132.814H163.01a1.1,1.1,0,0,0,0,2.2h3.829a1.1,1.1,0,1,0,0-2.2Zm0,1.468H163.01a.367.367,0,0,1,0-.734h3.829a.367.367,0,0,1,0,.734Z" transform="translate(-161.909 -132.814)"/>
                </g>
              </g>
            </g>
          </g>
        </g>
        <g id="Grupo_1101324" data-name="Grupo 1101324" transform="translate(15.986 23.1)">
          <g id="Grupo_1101323" data-name="Grupo 1101323">
            <g id="Grupo_1101322" data-name="Grupo 1101322">
              <path id="Trazado_878388" data-name="Trazado 878388" d="M135.207,157.369H119.635a1.684,1.684,0,0,0-1.682,1.682v11.114a1.684,1.684,0,0,0,1.682,1.682h15.572a1.684,1.684,0,0,0,1.682-1.682V159.051A1.684,1.684,0,0,0,135.207,157.369Zm.948,12.8a.949.949,0,0,1-.948.948H119.635a.949.949,0,0,1-.948-.948V159.051a.949.949,0,0,1,.948-.948h15.572a.949.949,0,0,1,.948.948Z" transform="translate(-117.953 -157.369)"/>
            </g>
          </g>
        </g>
        <g id="Grupo_1101326" data-name="Grupo 1101326" transform="translate(28.727 28.63)">
          <g id="Grupo_1101325" data-name="Grupo 1101325">
            <path id="Trazado_878389" data-name="Trazado 878389" d="M210.578,195.042a.367.367,0,0,0-.367.367.949.949,0,0,1-.948.948h-4.146a.367.367,0,0,0,0,.734h4.146a1.684,1.684,0,0,0,1.682-1.682A.367.367,0,0,0,210.578,195.042Z" transform="translate(-204.75 -195.042)"/>
          </g>
        </g>
        <g id="Grupo_1101328" data-name="Grupo 1101328" transform="translate(15.986 28.63)">
          <g id="Grupo_1101327" data-name="Grupo 1101327">
            <path id="Trazado_878390" data-name="Trazado 878390" d="M123.8,196.357h-4.164a.949.949,0,0,1-.948-.948.367.367,0,0,0-.734,0,1.684,1.684,0,0,0,1.682,1.682H123.8a.367.367,0,0,0,0-.734Z" transform="translate(-117.953 -195.042)"/>
          </g>
        </g>
        <g id="Grupo_1101330" data-name="Grupo 1101330" transform="translate(19.765 30)">
          <g id="Grupo_1101329" data-name="Grupo 1101329">
            <path id="Trazado_878391" data-name="Trazado 878391" d="M144.064,204.375a.367.367,0,0,0-.367.367v6.734a.367.367,0,1,0,.734,0v-6.734A.367.367,0,0,0,144.064,204.375Z" transform="translate(-143.697 -204.375)"/>
          </g>
        </g>
        <g id="Grupo_1101332" data-name="Grupo 1101332" transform="translate(18.297 30.016)">
          <g id="Grupo_1101331" data-name="Grupo 1101331">
            <path id="Trazado_878392" data-name="Trazado 878392" d="M134.064,204.479a.367.367,0,0,0-.367.367v6.719a.367.367,0,1,0,.734,0v-6.719A.367.367,0,0,0,134.064,204.479Z" transform="translate(-133.697 -204.479)"/>
          </g>
        </g>
        <g id="Grupo_1101334" data-name="Grupo 1101334" transform="translate(31.877 30.037)">
          <g id="Grupo_1101333" data-name="Grupo 1101333">
            <path id="Trazado_878393" data-name="Trazado 878393" d="M226.576,204.625a.367.367,0,0,0-.367.367v6.725a.367.367,0,1,0,.734,0v-6.725A.367.367,0,0,0,226.576,204.625Z" transform="translate(-226.209 -204.625)"/>
          </g>
        </g>
        <g id="Grupo_1101336" data-name="Grupo 1101336" transform="translate(30.409 30.031)">
          <g id="Grupo_1101335" data-name="Grupo 1101335">
            <path id="Trazado_878394" data-name="Trazado 878394" d="M216.576,204.583a.367.367,0,0,0-.367.367v6.731a.367.367,0,0,0,.734,0V204.95A.367.367,0,0,0,216.576,204.583Z" transform="translate(-216.209 -204.583)"/>
          </g>
        </g>
        <g id="Grupo_1101339" data-name="Grupo 1101339" transform="translate(21.529 25.892)">
          <g id="Grupo_1101338" data-name="Grupo 1101338">
            <g id="Grupo_1101337" data-name="Grupo 1101337">
              <path id="Trazado_878395" data-name="Trazado 878395" d="M163.038,179.246h-.353a3.188,3.188,0,0,0-.14-.339l.25-.25a.526.526,0,0,0,0-.744l-.76-.76a.538.538,0,0,0-.744,0l-.25.25a3.256,3.256,0,0,0-.339-.14v-.353a.526.526,0,0,0-.526-.526H159.1a.526.526,0,0,0-.526.526v.353a3.2,3.2,0,0,0-.339.14l-.25-.25a.522.522,0,0,0-.372-.154h0a.522.522,0,0,0-.371.154l-.76.76a.527.527,0,0,0,0,.744l.25.25a3.227,3.227,0,0,0-.14.339h-.353a.526.526,0,0,0-.526.526v1.075a.526.526,0,0,0,.526.526h.353a3.216,3.216,0,0,0,.14.339l-.25.25a.527.527,0,0,0,0,.743l.76.76a.521.521,0,0,0,.372.154.5.5,0,0,0,.372-.154l.25-.25a3.193,3.193,0,0,0,.339.14v.353a.526.526,0,0,0,.526.526h1.075a.526.526,0,0,0,.526-.526v-.353a3.23,3.23,0,0,0,.339-.14l.25.25a.538.538,0,0,0,.744,0l.76-.76a.526.526,0,0,0,0-.744l-.25-.25a3.192,3.192,0,0,0,.14-.339h.353a.526.526,0,0,0,.526-.526v-1.074A.526.526,0,0,0,163.038,179.246Zm-.208,1.392h-.3a.524.524,0,0,0-.5.379,2.485,2.485,0,0,1-.2.481.523.523,0,0,0,.088.624l.211.211-.465.465-.211-.21a.523.523,0,0,0-.624-.089,2.477,2.477,0,0,1-.481.2.523.523,0,0,0-.379.5v.3h-.658v-.3a.524.524,0,0,0-.379-.5,2.478,2.478,0,0,1-.48-.2.523.523,0,0,0-.624.088l-.211.21-.465-.465.21-.21a.523.523,0,0,0,.089-.625,2.471,2.471,0,0,1-.2-.481.524.524,0,0,0-.5-.379h-.3v-.658h.3a.524.524,0,0,0,.5-.379,2.485,2.485,0,0,1,.2-.481.522.522,0,0,0-.089-.624l-.21-.211.465-.465.211.21a.523.523,0,0,0,.624.088,2.476,2.476,0,0,1,.481-.2.523.523,0,0,0,.379-.5v-.3h.658v.3a.523.523,0,0,0,.379.5,2.476,2.476,0,0,1,.48.2.523.523,0,0,0,.625-.088l.211-.21.465.465-.21.211a.523.523,0,0,0-.088.624,2.47,2.47,0,0,1,.2.481.524.524,0,0,0,.5.379h.3v.658Z" transform="translate(-155.713 -176.384)"/>
            </g>
          </g>
        </g>
        <g id="Grupo_1101342" data-name="Grupo 1101342" transform="translate(23.811 28.174)">
          <g id="Grupo_1101341" data-name="Grupo 1101341">
            <g id="Grupo_1101340" data-name="Grupo 1101340">
              <path id="Trazado_878396" data-name="Trazado 878396" d="M172.9,191.93a1.643,1.643,0,1,0,1.643,1.643A1.645,1.645,0,0,0,172.9,191.93Zm0,2.553a.909.909,0,1,1,.909-.909A.91.91,0,0,1,172.9,194.483Z" transform="translate(-171.259 -191.93)"/>
            </g>
          </g>
        </g>
      </g>
    </g>
  </g>
</svg>
