<svg xmlns="http://www.w3.org/2000/svg" width="51" height="51" viewBox="0 0 51 51">
  <g id="_73" data-name="73" transform="translate(-402 -5049)">
    <g id="reshot-icon-viral-marketing-NQDBYX4K2G" transform="translate(406.564 4973.79)">
      <g id="Grupo_1101508" data-name="Grupo 1101508" transform="translate(0.389 88.16)">
        <g id="Grupo_1101507" data-name="Grupo 1101507">
          <path id="Trazado_878603" data-name="Trazado 878603" d="M29.913,92.9,15.781,98.818a6.81,6.81,0,0,1-2.619.53H8.583a3.576,3.576,0,0,0-3.591,3.6A3.527,3.527,0,0,0,8.519,106.4H11.17V116.4a1.67,1.67,0,0,0,1.671,1.671h0a1.67,1.67,0,0,0,1.671-1.671v-8.3a1.123,1.123,0,0,1,1.559-1.036l13.826,5.8a1.093,1.093,0,0,0,1.518-1.012V93.9A1.077,1.077,0,0,0,29.913,92.9Z" transform="translate(-4.991 -92.809)" fill="#ecf4f7"/>
        </g>
      </g>
      <g id="Grupo_1101510" data-name="Grupo 1101510" transform="translate(22.548 88.826)">
        <g id="Grupo_1101509" data-name="Grupo 1101509" transform="translate(0 0)">
          <path id="Trazado_878604" data-name="Trazado 878604" d="M281.2,105.728a.4.4,0,0,1-.4-.4V101.5a.4.4,0,1,1,.8,0v3.824A.4.4,0,0,1,281.2,105.728Z" transform="translate(-280.8 -101.1)" fill="#1c1d21"/>
        </g>
      </g>
      <g id="Grupo_1101512" data-name="Grupo 1101512" transform="translate(22.548 94.948)">
        <g id="Grupo_1101511" data-name="Grupo 1101511" transform="translate(0 0)">
          <path id="Trazado_878605" data-name="Trazado 878605" d="M281.2,179.268a.4.4,0,0,1-.4-.4V177.7a.4.4,0,1,1,.8,0v1.165A.4.4,0,0,1,281.2,179.268Z" transform="translate(-280.8 -177.3)" fill="#1c1d21"/>
        </g>
      </g>
      <g id="Grupo_1101514" data-name="Grupo 1101514" transform="translate(22.548 98.266)">
        <g id="Grupo_1101513" data-name="Grupo 1101513">
          <path id="Trazado_878606" data-name="Trazado 878606" d="M281.2,219.926a.4.4,0,0,1-.4-.4V219a.4.4,0,1,1,.8,0v.522A.4.4,0,0,1,281.2,219.926Z" transform="translate(-280.8 -218.6)" fill="#1c1d21"/>
        </g>
      </g>
      <g id="Grupo_1101516" data-name="Grupo 1101516" transform="translate(-0.013 87.754)">
        <g id="Grupo_1101515" data-name="Grupo 1101515" transform="translate(0 0)">
          <path id="Trazado_878607" data-name="Trazado 878607" d="M8.247,113.819a2.078,2.078,0,0,1-2.073-2.073v-9.593H3.925A3.952,3.952,0,0,1-.012,98.306a3.861,3.861,0,0,1,1.125-2.8,4.04,4.04,0,0,1,2.868-1.213H8.552a6.351,6.351,0,0,0,2.466-.5L25.151,87.87a1.485,1.485,0,0,1,1.406.137,1.5,1.5,0,0,1,.667,1.245V107.2a1.5,1.5,0,0,1-2.073,1.382l-13.826-5.8a.715.715,0,0,0-.683.064.7.7,0,0,0-.321.6v8.3A2.078,2.078,0,0,1,8.247,113.819ZM3.981,95.1a3.223,3.223,0,0,0-2.3.972A3.049,3.049,0,0,0,.792,98.29a3.142,3.142,0,0,0,3.125,3.061H6.568a.4.4,0,0,1,.4.4v9.994a1.269,1.269,0,1,0,2.539,0v-8.3a1.529,1.529,0,0,1,2.121-1.406l13.826,5.8a.672.672,0,0,0,.651-.064.681.681,0,0,0,.305-.578V89.252a.69.69,0,0,0-.956-.643h0L11.324,94.53a7.161,7.161,0,0,1-2.78.562H3.981Zm21.33-6.853Z" transform="translate(0.013 -87.754)" fill="#1c1d21"/>
        </g>
      </g>
      <g id="Grupo_1101532" data-name="Grupo 1101532" transform="translate(29.971 89.469)">
        <g id="Grupo_1101521" data-name="Grupo 1101521" transform="translate(0 0)">
          <g id="Grupo_1101518" data-name="Grupo 1101518" transform="translate(0.402 0.402)">
            <g id="Grupo_1101517" data-name="Grupo 1101517">
              <path id="Trazado_878608" data-name="Trazado 878608" d="M386.17,117.145h-6.556a1.416,1.416,0,0,1-1.414-1.414v-.217a1.416,1.416,0,0,1,1.414-1.414h6.556a1.416,1.416,0,0,1,1.414,1.414v.217A1.416,1.416,0,0,1,386.17,117.145Z" transform="translate(-378.2 -114.1)" fill="#fddf7f"/>
            </g>
          </g>
          <g id="Grupo_1101520" data-name="Grupo 1101520">
            <g id="Grupo_1101519" data-name="Grupo 1101519">
              <path id="Trazado_878609" data-name="Trazado 878609" d="M381.571,112.948h-6.556a1.814,1.814,0,0,1-1.816-1.816v-.217a1.814,1.814,0,0,1,1.816-1.816h6.556a1.814,1.814,0,0,1,1.816,1.816v.217A1.814,1.814,0,0,1,381.571,112.948Zm-6.556-3.045A1.013,1.013,0,0,0,374,110.916v.217a1.013,1.013,0,0,0,1.012,1.012h6.556a1.013,1.013,0,0,0,1.012-1.012v-.217a1.013,1.013,0,0,0-1.012-1.012Z" transform="translate(-373.2 -109.1)" fill="#1c1d21"/>
            </g>
          </g>
        </g>
        <g id="Grupo_1101526" data-name="Grupo 1101526" transform="translate(3.278 6.829)">
          <g id="Grupo_1101523" data-name="Grupo 1101523" transform="translate(0.402 0.402)">
            <g id="Grupo_1101522" data-name="Grupo 1101522">
              <path id="Trazado_878610" data-name="Trazado 878610" d="M423.692,202.145h-3.278A1.416,1.416,0,0,1,419,200.731v-.217a1.416,1.416,0,0,1,1.414-1.414h3.278a1.416,1.416,0,0,1,1.414,1.414v.217A1.411,1.411,0,0,1,423.692,202.145Z" transform="translate(-419 -199.1)" fill="#fddf7f"/>
            </g>
          </g>
          <g id="Grupo_1101525" data-name="Grupo 1101525">
            <g id="Grupo_1101524" data-name="Grupo 1101524">
              <path id="Trazado_878611" data-name="Trazado 878611" d="M419.094,197.948h-3.278A1.814,1.814,0,0,1,414,196.133v-.217a1.814,1.814,0,0,1,1.816-1.816h3.278a1.814,1.814,0,0,1,1.816,1.816v.217A1.814,1.814,0,0,1,419.094,197.948Zm-3.278-3.037a1.013,1.013,0,0,0-1.012,1.012v.217a1.013,1.013,0,0,0,1.012,1.012h3.278a1.013,1.013,0,0,0,1.012-1.012v-.217a1.013,1.013,0,0,0-1.012-1.012Z" transform="translate(-414 -194.1)" fill="#1c1d21"/>
            </g>
          </g>
        </g>
        <g id="Grupo_1101531" data-name="Grupo 1101531" transform="translate(0 13.666)">
          <g id="Grupo_1101528" data-name="Grupo 1101528" transform="translate(0.402 0.402)">
            <g id="Grupo_1101527" data-name="Grupo 1101527">
              <path id="Trazado_878612" data-name="Trazado 878612" d="M386.17,287.245h-6.556a1.416,1.416,0,0,1-1.414-1.414v-.217a1.416,1.416,0,0,1,1.414-1.414h6.556a1.416,1.416,0,0,1,1.414,1.414v.217A1.416,1.416,0,0,1,386.17,287.245Z" transform="translate(-378.2 -284.2)" fill="#fddf7f"/>
            </g>
          </g>
          <g id="Grupo_1101530" data-name="Grupo 1101530">
            <g id="Grupo_1101529" data-name="Grupo 1101529">
              <path id="Trazado_878613" data-name="Trazado 878613" d="M381.571,283.048h-6.556a1.814,1.814,0,0,1-1.816-1.816v-.217a1.814,1.814,0,0,1,1.816-1.816h6.556a1.814,1.814,0,0,1,1.816,1.816v.217A1.819,1.819,0,0,1,381.571,283.048ZM375.016,280A1.013,1.013,0,0,0,374,281.016v.217a1.013,1.013,0,0,0,1.012,1.012h6.556a1.013,1.013,0,0,0,1.012-1.012v-.217A1.013,1.013,0,0,0,381.571,280Z" transform="translate(-373.2 -279.2)" fill="#1c1d21"/>
            </g>
          </g>
        </g>
      </g>
      <g id="Grupo_1101534" data-name="Grupo 1101534" transform="translate(26.83 94.209)">
        <g id="Grupo_1101533" data-name="Grupo 1101533">
          <path id="Trazado_878614" data-name="Trazado 878614" d="M334.1,168.1a4.017,4.017,0,1,1,0,8.034Z" transform="translate(-334.1 -168.1)" fill="#83e1e5"/>
        </g>
      </g>
      <g id="Grupo_1101536" data-name="Grupo 1101536" transform="translate(26.428 93.807)">
        <g id="Grupo_1101535" data-name="Grupo 1101535" transform="translate(0 0)">
          <path id="Trazado_878615" data-name="Trazado 878615" d="M329.5,171.937a.4.4,0,0,1-.4-.4V163.5a.4.4,0,0,1,.4-.4,4.419,4.419,0,1,1,0,8.837Zm.4-8.01v7.182a3.613,3.613,0,0,0,0-7.182Z" transform="translate(-329.1 -163.1)" fill="#1c1d21"/>
        </g>
      </g>
    </g>
    <rect id="Rectángulo_403045" data-name="Rectángulo 403045" width="51" height="51" transform="translate(402 5049)" fill="none"/>
  </g>
</svg>
