<svg xmlns="http://www.w3.org/2000/svg" width="51" height="51" viewBox="0 0 51 51">
  <g id="_74" data-name="74" transform="translate(-613 -5049)">
    <g id="reshot-icon-landing-page-ELCQ4UYRF5" transform="translate(621.238 5057.721)">
      <g id="Grupo_1101407" data-name="Grupo 1101407" transform="translate(2.731 8.74)">
        <g id="Grupo_1101406" data-name="Grupo 1101406">
          <path id="Trazado_878560" data-name="Trazado 878560" d="M68,130.684H40.683A.685.685,0,0,1,40,130v-1.318a.685.685,0,0,1,.683-.683H68a.685.685,0,0,1,.683.683V130A.68.68,0,0,1,68,130.684Z" transform="translate(-40 -128)" fill="#fddf7f"/>
        </g>
      </g>
      <g id="Grupo_1101419" data-name="Grupo 1101419" transform="translate(2.731 23.284)">
        <g id="Grupo_1101409" data-name="Grupo 1101409">
          <g id="Grupo_1101408" data-name="Grupo 1101408">
            <path id="Trazado_878561" data-name="Trazado 878561" d="M40,341v7.1a1.37,1.37,0,0,0,1.366,1.366H67.313a1.37,1.37,0,0,0,1.366-1.366V341Z" transform="translate(-40 -341)" fill="#83e1e5"/>
          </g>
        </g>
        <g id="Grupo_1101418" data-name="Grupo 1101418" transform="translate(2.028 2.206)">
          <g id="Grupo_1101411" data-name="Grupo 1101411">
            <g id="Grupo_1101410" data-name="Grupo 1101410">
              <path id="Trazado_878562" data-name="Trazado 878562" d="M73.7,373.3H70.383a.685.685,0,0,0-.683.683v2.274a.685.685,0,0,0,.683.683h3.325a.685.685,0,0,0,.683-.683v-2.274A.691.691,0,0,0,73.7,373.3Z" transform="translate(-69.7 -373.3)" fill="#fff"/>
            </g>
          </g>
          <g id="Grupo_1101413" data-name="Grupo 1101413" transform="translate(6.644)">
            <g id="Grupo_1101412" data-name="Grupo 1101412">
              <path id="Trazado_878563" data-name="Trazado 878563" d="M171.008,373.3h-3.325a.685.685,0,0,0-.683.683v2.274a.685.685,0,0,0,.683.683h3.325a.685.685,0,0,0,.683-.683v-2.274A.685.685,0,0,0,171.008,373.3Z" transform="translate(-167 -373.3)" fill="#fff"/>
            </g>
          </g>
          <g id="Grupo_1101415" data-name="Grupo 1101415" transform="translate(13.288)">
            <g id="Grupo_1101414" data-name="Grupo 1101414">
              <path id="Trazado_878564" data-name="Trazado 878564" d="M268.308,373.3h-3.325a.685.685,0,0,0-.683.683v2.274a.685.685,0,0,0,.683.683h3.325a.685.685,0,0,0,.683-.683v-2.274A.685.685,0,0,0,268.308,373.3Z" transform="translate(-264.3 -373.3)" fill="#fff"/>
            </g>
          </g>
          <g id="Grupo_1101417" data-name="Grupo 1101417" transform="translate(19.932)">
            <g id="Grupo_1101416" data-name="Grupo 1101416">
              <path id="Trazado_878565" data-name="Trazado 878565" d="M365.608,373.3h-3.325a.685.685,0,0,0-.683.683v2.274a.685.685,0,0,0,.683.683h3.325a.685.685,0,0,0,.683-.683v-2.274A.68.68,0,0,0,365.608,373.3Z" transform="translate(-361.6 -373.3)" fill="#fff"/>
            </g>
          </g>
        </g>
      </g>
      <g id="Grupo_1101421" data-name="Grupo 1101421" transform="translate(2.731 2.895)">
        <g id="Grupo_1101420" data-name="Grupo 1101420">
          <path id="Trazado_878566" data-name="Trazado 878566" d="M68.679,48.245V43.766A1.37,1.37,0,0,0,67.313,42.4H41.366A1.37,1.37,0,0,0,40,43.766v4.479Z" transform="translate(-40 -42.4)" fill="#83e1e5"/>
        </g>
      </g>
      <g id="Grupo_1101423" data-name="Grupo 1101423">
        <g id="Grupo_1101422" data-name="Grupo 1101422">
          <path id="Trazado_878567" data-name="Trazado 878567" d="M31.751,34.141H2.39A2.393,2.393,0,0,1,0,31.751V2.39A2.393,2.393,0,0,1,2.39,0H31.751a2.393,2.393,0,0,1,2.39,2.39V31.751A2.393,2.393,0,0,1,31.751,34.141ZM2.39.683A1.708,1.708,0,0,0,.683,2.39V31.751A1.708,1.708,0,0,0,2.39,33.459H31.751a1.708,1.708,0,0,0,1.707-1.707V2.39A1.708,1.708,0,0,0,31.751.683Z" fill="#1c1d21"/>
        </g>
      </g>
      <g id="Grupo_1101428" data-name="Grupo 1101428" transform="translate(2.39 2.554)">
        <g id="Grupo_1101425" data-name="Grupo 1101425">
          <g id="Grupo_1101424" data-name="Grupo 1101424">
            <path id="Trazado_878568" data-name="Trazado 878568" d="M35.341,41.517A.338.338,0,0,1,35,41.176V39.107A1.708,1.708,0,0,1,36.707,37.4H37a.341.341,0,1,1,0,.683h-.294a1.023,1.023,0,0,0-1.024,1.024v2.069A.342.342,0,0,1,35.341,41.517Z" transform="translate(-35 -37.4)" fill="#1c1d21"/>
          </g>
        </g>
        <g id="Grupo_1101427" data-name="Grupo 1101427" transform="translate(3.346)">
          <g id="Grupo_1101426" data-name="Grupo 1101426">
            <path id="Trazado_878569" data-name="Trazado 878569" d="M85.366,38.083H84.341a.341.341,0,1,1,0-.683h1.024a.341.341,0,1,1,0,.683Z" transform="translate(-84 -37.4)" fill="#1c1d21"/>
          </g>
        </g>
      </g>
      <g id="Grupo_1101433" data-name="Grupo 1101433" transform="translate(26.699 27.634)">
        <g id="Grupo_1101430" data-name="Grupo 1101430" transform="translate(2.711)">
          <g id="Grupo_1101429" data-name="Grupo 1101429">
            <path id="Trazado_878570" data-name="Trazado 878570" d="M431.335,408.817h-.294a.341.341,0,1,1,0-.683h.294a1.023,1.023,0,0,0,1.024-1.024v-2.069a.341.341,0,0,1,.683,0v2.069A1.708,1.708,0,0,1,431.335,408.817Z" transform="translate(-430.7 -404.7)" fill="#1c1d21"/>
          </g>
        </g>
        <g id="Grupo_1101432" data-name="Grupo 1101432" transform="translate(0 3.435)">
          <g id="Grupo_1101431" data-name="Grupo 1101431">
            <path id="Trazado_878571" data-name="Trazado 878571" d="M392.366,455.683h-1.024a.341.341,0,1,1,0-.683h1.024a.341.341,0,1,1,0,.683Z" transform="translate(-391 -455)" fill="#1c1d21"/>
          </g>
        </g>
      </g>
      <g id="Grupo_1101438" data-name="Grupo 1101438" transform="translate(2.39 12.974)">
        <g id="Grupo_1101435" data-name="Grupo 1101435" transform="translate(0.341 0.341)">
          <g id="Grupo_1101434" data-name="Grupo 1101434">
            <path id="Trazado_878572" data-name="Trazado 878572" d="M45.736,213.095H40.683a.685.685,0,0,1-.683-.683V195.683a.685.685,0,0,1,.683-.683h5.053a.685.685,0,0,1,.683.683v16.729A.685.685,0,0,1,45.736,213.095Z" transform="translate(-40 -195)" fill="#fddf7f"/>
          </g>
        </g>
        <g id="Grupo_1101437" data-name="Grupo 1101437">
          <g id="Grupo_1101436" data-name="Grupo 1101436">
            <path id="Trazado_878573" data-name="Trazado 878573" d="M41.077,208.778H36.024A1.023,1.023,0,0,1,35,207.753V191.024A1.023,1.023,0,0,1,36.024,190h5.053a1.023,1.023,0,0,1,1.024,1.024v16.729A1.023,1.023,0,0,1,41.077,208.778Zm-5.053-18.095a.338.338,0,0,0-.341.341v16.729a.338.338,0,0,0,.341.341h5.053a.338.338,0,0,0,.341-.341V191.024a.338.338,0,0,0-.341-.341Z" transform="translate(-35 -190)" fill="#1c1d21"/>
          </g>
        </g>
      </g>
      <g id="Grupo_1101440" data-name="Grupo 1101440" transform="translate(11.471 12.974)">
        <g id="Grupo_1101439" data-name="Grupo 1101439">
          <path id="Trazado_878574" data-name="Trazado 878574" d="M184.593,190.683H168.341a.341.341,0,0,1,0-.683h16.251a.341.341,0,0,1,0,.683Z" transform="translate(-168 -190)" fill="#1c1d21"/>
        </g>
      </g>
      <g id="Grupo_1101442" data-name="Grupo 1101442" transform="translate(29.566 12.974)">
        <g id="Grupo_1101441" data-name="Grupo 1101441">
          <path id="Trazado_878575" data-name="Trazado 878575" d="M434.844,190.683h-1.5a.341.341,0,0,1,0-.683h1.5a.341.341,0,0,1,0,.683Z" transform="translate(-433 -190)" fill="#1c1d21"/>
        </g>
      </g>
      <g id="Grupo_1101444" data-name="Grupo 1101444" transform="translate(11.471 15.09)">
        <g id="Grupo_1101443" data-name="Grupo 1101443">
          <path id="Trazado_878576" data-name="Trazado 878576" d="M184.593,221.683H168.341a.341.341,0,0,1,0-.683h16.251a.341.341,0,0,1,0,.683Z" transform="translate(-168 -221)" fill="#1c1d21"/>
        </g>
      </g>
      <g id="Grupo_1101446" data-name="Grupo 1101446" transform="translate(29.566 15.09)">
        <g id="Grupo_1101445" data-name="Grupo 1101445">
          <path id="Trazado_878577" data-name="Trazado 878577" d="M434.844,221.683h-1.5a.341.341,0,0,1,0-.683h1.5a.341.341,0,0,1,0,.683Z" transform="translate(-433 -221)" fill="#1c1d21"/>
        </g>
      </g>
      <g id="Grupo_1101448" data-name="Grupo 1101448" transform="translate(11.471 17.207)">
        <g id="Grupo_1101447" data-name="Grupo 1101447">
          <path id="Trazado_878578" data-name="Trazado 878578" d="M184.593,252.683H168.341a.341.341,0,0,1,0-.683h16.251a.341.341,0,0,1,0,.683Z" transform="translate(-168 -252)" fill="#1c1d21"/>
        </g>
      </g>
      <g id="Grupo_1101450" data-name="Grupo 1101450" transform="translate(29.566 17.207)">
        <g id="Grupo_1101449" data-name="Grupo 1101449">
          <path id="Trazado_878579" data-name="Trazado 878579" d="M434.844,252.683h-1.5a.341.341,0,0,1,0-.683h1.5a.341.341,0,0,1,0,.683Z" transform="translate(-433 -252)" fill="#1c1d21"/>
        </g>
      </g>
      <g id="Grupo_1101452" data-name="Grupo 1101452" transform="translate(11.471 19.324)">
        <g id="Grupo_1101451" data-name="Grupo 1101451">
          <path id="Trazado_878580" data-name="Trazado 878580" d="M184.593,283.683H168.341a.341.341,0,1,1,0-.683h16.251a.341.341,0,1,1,0,.683Z" transform="translate(-168 -283)" fill="#1c1d21"/>
        </g>
      </g>
      <g id="Grupo_1101454" data-name="Grupo 1101454" transform="translate(29.566 19.324)">
        <g id="Grupo_1101453" data-name="Grupo 1101453">
          <path id="Trazado_878581" data-name="Trazado 878581" d="M434.844,283.683h-1.5a.341.341,0,0,1,0-.683h1.5a.341.341,0,0,1,0,.683Z" transform="translate(-433 -283)" fill="#1c1d21"/>
        </g>
      </g>
      <g id="Grupo_1101456" data-name="Grupo 1101456" transform="translate(11.471 21.441)">
        <g id="Grupo_1101455" data-name="Grupo 1101455">
          <path id="Trazado_878582" data-name="Trazado 878582" d="M184.593,314.683H168.341a.341.341,0,0,1,0-.683h16.251a.341.341,0,0,1,0,.683Z" transform="translate(-168 -314)" fill="#1c1d21"/>
        </g>
      </g>
      <g id="Grupo_1101458" data-name="Grupo 1101458" transform="translate(29.566 21.441)">
        <g id="Grupo_1101457" data-name="Grupo 1101457">
          <path id="Trazado_878583" data-name="Trazado 878583" d="M434.844,314.683h-1.5a.341.341,0,0,1,0-.683h1.5a.341.341,0,0,1,0,.683Z" transform="translate(-433 -314)" fill="#1c1d21"/>
        </g>
      </g>
      <g id="Grupo_1101460" data-name="Grupo 1101460" transform="translate(2.39 8.399)">
        <g id="Grupo_1101459" data-name="Grupo 1101459">
          <path id="Trazado_878584" data-name="Trazado 878584" d="M63.337,126.366H36.024A1.023,1.023,0,0,1,35,125.342v-1.318A1.023,1.023,0,0,1,36.024,123H63.337a1.023,1.023,0,0,1,1.024,1.024v1.318A1.023,1.023,0,0,1,63.337,126.366Zm-27.313-2.684a.338.338,0,0,0-.341.341v1.318a.338.338,0,0,0,.341.341H63.337a.338.338,0,0,0,.341-.341v-1.318a.338.338,0,0,0-.341-.341Z" transform="translate(-35 -123)" fill="#1c1d21"/>
        </g>
      </g>
    </g>
    <rect id="Rectángulo_403046" data-name="Rectángulo 403046" width="51" height="51" transform="translate(613 5049)" fill="none"/>
  </g>
</svg>
