<svg xmlns="http://www.w3.org/2000/svg" width="51" height="51" viewBox="0 0 51 51">
  <g id="_75" data-name="75" transform="translate(-820 -5049)">
    <g id="reshot-icon-mobile-marketing-VXAMZR9TJL" transform="translate(828.467 5057.467)">
      <g id="Grupo_1101476" data-name="Grupo 1101476">
        <g id="Grupo_1101467" data-name="Grupo 1101467">
          <g id="Grupo_1101462" data-name="Grupo 1101462" transform="translate(5.553)">
            <g id="Grupo_1101461" data-name="Grupo 1101461">
              <path id="Trazado_878585" data-name="Trazado 878585" d="M82.74.681h-.9A.337.337,0,0,1,81.5.341.337.337,0,0,1,81.841,0h.893a.337.337,0,0,1,.341.341A.336.336,0,0,1,82.74.681Z" transform="translate(-81.5)" fill="#1c1d21"/>
            </g>
          </g>
          <g id="Grupo_1101464" data-name="Grupo 1101464">
            <g id="Grupo_1101463" data-name="Grupo 1101463">
              <path id="Trazado_878586" data-name="Trazado 878586" d="M17.169,34.066H2.385A2.387,2.387,0,0,1,0,31.682V10.492a.337.337,0,0,1,.341-.341.337.337,0,0,1,.341.341V31.682a1.7,1.7,0,0,0,1.7,1.7H17.169a1.7,1.7,0,0,0,1.7-1.7V2.385a1.7,1.7,0,0,0-1.7-1.7h-8.7A.337.337,0,0,1,8.128.341.337.337,0,0,1,8.469,0h8.7a2.387,2.387,0,0,1,2.385,2.385v29.3A2.387,2.387,0,0,1,17.169,34.066Z" fill="#1c1d21"/>
            </g>
          </g>
          <g id="Grupo_1101466" data-name="Grupo 1101466">
            <g id="Grupo_1101465" data-name="Grupo 1101465">
              <path id="Trazado_878587" data-name="Trazado 878587" d="M.341,8.012A.337.337,0,0,1,0,7.672V2.385A2.387,2.387,0,0,1,2.385,0H3.563A.337.337,0,0,1,3.9.341a.337.337,0,0,1-.341.341H2.385a1.7,1.7,0,0,0-1.7,1.7V7.672A.337.337,0,0,1,.341,8.012Z" fill="#1c1d21"/>
            </g>
          </g>
        </g>
        <g id="Grupo_1101469" data-name="Grupo 1101469" transform="translate(2.725 2.725)">
          <g id="Grupo_1101468" data-name="Grupo 1101468">
            <path id="Trazado_878588" data-name="Trazado 878588" d="M40,65.379V41.363A1.367,1.367,0,0,1,41.363,40H52.741A1.367,1.367,0,0,1,54.1,41.363V65.379a1.367,1.367,0,0,1-1.363,1.363H41.363A1.367,1.367,0,0,1,40,65.379Z" transform="translate(-40 -40)" fill="#83e1e5"/>
          </g>
        </g>
        <g id="Grupo_1101471" data-name="Grupo 1101471" transform="translate(2.385 2.385)">
          <g id="Grupo_1101470" data-name="Grupo 1101470">
            <path id="Trazado_878589" data-name="Trazado 878589" d="M48.082,62.423H36.7a1.7,1.7,0,0,1-1.7-1.7V36.7A1.7,1.7,0,0,1,36.7,35H48.082a1.7,1.7,0,0,1,1.7,1.7V60.72A1.7,1.7,0,0,1,48.082,62.423ZM36.7,35.681A1.021,1.021,0,0,0,35.681,36.7V60.72A1.021,1.021,0,0,0,36.7,61.742H48.082A1.021,1.021,0,0,0,49.1,60.72V36.7a1.021,1.021,0,0,0-1.022-1.022Z" transform="translate(-35 -35)" fill="#1c1d21"/>
          </g>
        </g>
        <g id="Grupo_1101473" data-name="Grupo 1101473" transform="translate(7.651 29.467)">
          <g id="Grupo_1101472" data-name="Grupo 1101472">
            <circle id="Elipse_11671" data-name="Elipse 11671" cx="2.126" cy="2.126" r="2.126" fill="#aab1ba"/>
          </g>
        </g>
        <g id="Grupo_1101475" data-name="Grupo 1101475" transform="translate(7.311 29.134)">
          <g id="Grupo_1101474" data-name="Grupo 1101474">
            <path id="Trazado_878590" data-name="Trazado 878590" d="M109.766,432.533a2.466,2.466,0,1,1,2.466-2.466A2.47,2.47,0,0,1,109.766,432.533Zm0-4.258a1.785,1.785,0,1,0,1.785,1.785A1.787,1.787,0,0,0,109.766,428.275Z" transform="translate(-107.3 -427.6)" fill="#1c1d21"/>
          </g>
        </g>
      </g>
      <g id="Grupo_1101485" data-name="Grupo 1101485" transform="translate(5.546 8.442)">
        <g id="Grupo_1101478" data-name="Grupo 1101478" transform="translate(0.342 0.327)">
          <g id="Grupo_1101477" data-name="Grupo 1101477">
            <path id="Trazado_878591" data-name="Trazado 878591" d="M114.262,134.055v-3.25a2.1,2.1,0,0,0-2.105-2.105H94.892a7.653,7.653,0,0,0-4.694,1.615l-3.155,2.466a1.608,1.608,0,0,0,0,2.535l3.155,2.466a7.611,7.611,0,0,0,4.694,1.615h17.265a2.1,2.1,0,0,0,2.105-2.105Z" transform="translate(-86.425 -128.7)" fill="#fddf7f"/>
          </g>
        </g>
        <g id="Grupo_1101480" data-name="Grupo 1101480">
          <g id="Grupo_1101479" data-name="Grupo 1101479">
            <path id="Trazado_878592" data-name="Trazado 878592" d="M107.474,135.278H90.21a8,8,0,0,1-4.906-1.69l-3.155-2.466a1.94,1.94,0,0,1-.749-1.533,1.92,1.92,0,0,1,.749-1.533L85.3,125.59a7.986,7.986,0,0,1,4.906-1.69h17.265a2.448,2.448,0,0,1,2.446,2.446v6.486A2.448,2.448,0,0,1,107.474,135.278ZM90.21,124.568a7.327,7.327,0,0,0-4.483,1.547l-3.155,2.466a1.279,1.279,0,0,0,0,2l3.155,2.466A7.327,7.327,0,0,0,90.21,134.6h17.265a1.765,1.765,0,0,0,1.765-1.765v-6.493a1.765,1.765,0,0,0-1.765-1.765H90.21Z" transform="translate(-81.4 -123.9)" fill="#1c1d21"/>
          </g>
        </g>
        <g id="Grupo_1101482" data-name="Grupo 1101482" transform="translate(4.422 3.89)">
          <g id="Grupo_1101481" data-name="Grupo 1101481">
            <circle id="Elipse_11672" data-name="Elipse 11672" cx="1.792" cy="1.792" r="1.792" fill="#83e1e5"/>
          </g>
        </g>
        <g id="Grupo_1101484" data-name="Grupo 1101484" transform="translate(4.081 3.55)">
          <g id="Grupo_1101483" data-name="Grupo 1101483">
            <path id="Trazado_878593" data-name="Trazado 878593" d="M143.433,180.265a2.133,2.133,0,1,1,2.133-2.133A2.136,2.136,0,0,1,143.433,180.265Zm0-3.584a1.451,1.451,0,1,0,1.451,1.451A1.452,1.452,0,0,0,143.433,176.681Z" transform="translate(-141.3 -176)" fill="#1c1d21"/>
          </g>
        </g>
      </g>
      <g id="Grupo_1101492" data-name="Grupo 1101492" transform="translate(19.125 10.956)">
        <g id="Grupo_1101487" data-name="Grupo 1101487" transform="translate(0.347 0.007)">
          <g id="Grupo_1101486" data-name="Grupo 1101486">
            <path id="Trazado_878594" data-name="Trazado 878594" d="M287.265,163.83a1.465,1.465,0,1,1,1.465-1.465A1.463,1.463,0,0,1,287.265,163.83Zm0-2.248a.784.784,0,1,0,.784.784A.788.788,0,0,0,287.265,161.581Z" transform="translate(-285.8 -160.9)" fill="#1c1d21"/>
          </g>
        </g>
        <g id="Grupo_1101489" data-name="Grupo 1101489" transform="translate(3.584 3.938)">
          <g id="Grupo_1101488" data-name="Grupo 1101488">
            <path id="Trazado_878595" data-name="Trazado 878595" d="M334.765,221.53a1.465,1.465,0,1,1,1.465-1.465A1.463,1.463,0,0,1,334.765,221.53Zm0-2.248a.784.784,0,1,0,.784.784A.788.788,0,0,0,334.765,219.281Z" transform="translate(-333.3 -218.6)" fill="#1c1d21"/>
          </g>
        </g>
        <g id="Grupo_1101491" data-name="Grupo 1101491">
          <g id="Grupo_1101490" data-name="Grupo 1101490">
            <path id="Trazado_878596" data-name="Trazado 878596" d="M281.041,167.668a.32.32,0,0,1-.238-.1.337.337,0,0,1,0-.484l6.18-6.18a.342.342,0,1,1,.484.484l-6.18,6.18A.346.346,0,0,1,281.041,167.668Z" transform="translate(-280.7 -160.8)" fill="#1c1d21"/>
          </g>
        </g>
      </g>
    </g>
    <rect id="Rectángulo_403047" data-name="Rectángulo 403047" width="51" height="51" transform="translate(820 5049)" fill="none"/>
  </g>
</svg>
