<svg xmlns="http://www.w3.org/2000/svg" width="51" height="51" viewBox="0 0 51 51">
  <g id="_76" data-name="76" transform="translate(-1032 -5049)">
    <g id="reshot-icon-social-media-marketing-RLAEBYNJ7D" transform="translate(1036.574 5055.985)">
      <g id="Grupo_1101501" data-name="Grupo 1101501" transform="translate(7.603 10.864)">
        <g id="Grupo_1101496" data-name="Grupo 1101496" transform="translate(0.339 0.325)">
          <g id="Grupo_1101495" data-name="Grupo 1101495">
            <path id="Trazado_878598" data-name="Trazado 878598" d="M123.6,182.847v-2.587a4.131,4.131,0,0,0-2.749-3.893l-3.352-1.192a1.185,1.185,0,0,1-.318-2.065,5.857,5.857,0,0,0,2.4-4.733h0A5.881,5.881,0,0,0,113.7,162.5h0a5.881,5.881,0,0,0-5.877,5.877h0a5.857,5.857,0,0,0,2.4,4.733,1.187,1.187,0,0,1-.318,2.065l-3.352,1.192a4.134,4.134,0,0,0-2.749,3.893v2.587a2.162,2.162,0,0,0,2.16,2.16h15.486A2.164,2.164,0,0,0,123.6,182.847Z" transform="translate(-103.8 -162.5)" fill="#83e1e5"/>
          </g>
        </g>
        <g id="Grupo_1101498" data-name="Grupo 1101498">
          <g id="Grupo_1101497" data-name="Grupo 1101497">
            <path id="Trazado_878599" data-name="Trazado 878599" d="M116.777,180.864H101.3a2.5,2.5,0,0,1-2.5-2.5v-2.587a4.477,4.477,0,0,1,2.973-4.212l3.352-1.192a.849.849,0,0,0,.562-.684.814.814,0,0,0-.325-.792,6.242,6.242,0,0,1-2.492-4.266.346.346,0,0,1,.3-.379.342.342,0,0,1,.379.3,5.56,5.56,0,0,0,2.221,3.8,1.5,1.5,0,0,1,.6,1.435,1.524,1.524,0,0,1-1,1.219L102,172.21a3.79,3.79,0,0,0-2.519,3.568v2.593a1.826,1.826,0,0,0,1.821,1.821h15.486a1.826,1.826,0,0,0,1.821-1.821v-2.587a3.8,3.8,0,0,0-2.519-3.568l-3.352-1.192a1.524,1.524,0,0,1-1-1.219,1.5,1.5,0,0,1,.6-1.435,5.538,5.538,0,0,0-5.539-9.52.338.338,0,0,1-.278-.616,5.762,5.762,0,0,1,.887-.318,6.367,6.367,0,0,1,1.639-.217,6.214,6.214,0,0,1,3.683,11.22.814.814,0,0,0-.325.792.849.849,0,0,0,.562.684l3.352,1.192a4.47,4.47,0,0,1,2.973,4.212v2.573A2.505,2.505,0,0,1,116.777,180.864Z" transform="translate(-98.8 -157.7)" fill="#1c1d21"/>
          </g>
        </g>
        <g id="Grupo_1101500" data-name="Grupo 1101500" transform="translate(4.292 1.672)">
          <g id="Grupo_1101499" data-name="Grupo 1101499">
            <path id="Trazado_878600" data-name="Trazado 878600" d="M162.524,185.5a.524.524,0,0,1-.1-.014.343.343,0,0,1-.223-.427,6.289,6.289,0,0,1,1.571-2.573.34.34,0,0,1,.474.488,5.609,5.609,0,0,0-1.4,2.289A.325.325,0,0,1,162.524,185.5Z" transform="translate(-162.185 -182.387)" fill="#1c1d21"/>
          </g>
        </g>
      </g>
      <g id="Grupo_1101506" data-name="Grupo 1101506" transform="translate(23.089 0.2)">
        <g id="Grupo_1101503" data-name="Grupo 1101503" transform="translate(0.339 0.339)">
          <g id="Grupo_1101502" data-name="Grupo 1101502">
            <path id="Trazado_878601" data-name="Trazado 878601" d="M334.342,5.2A1.844,1.844,0,0,0,332.5,7.042v8.823a.464.464,0,0,0,.772.345l1.652-1.483a1.845,1.845,0,0,1,1.232-.474h5.5a1.844,1.844,0,0,0,1.842-1.842V7.042A1.844,1.844,0,0,0,341.661,5.2Z" transform="translate(-332.5 -5.2)" fill="#fddf7f"/>
          </g>
        </g>
        <g id="Grupo_1101505" data-name="Grupo 1101505" transform="translate(0 0)">
          <g id="Grupo_1101504" data-name="Grupo 1101504">
            <path id="Trazado_878602" data-name="Trazado 878602" d="M328.306,12.009a.739.739,0,0,1-.332-.074.794.794,0,0,1-.474-.731V2.38A2.183,2.183,0,0,1,329.68.2h7.313a2.183,2.183,0,0,1,2.18,2.18V7.757a2.183,2.183,0,0,1-2.18,2.18h-5.5a1.485,1.485,0,0,0-1,.386l-1.652,1.483A.771.771,0,0,1,328.306,12.009ZM329.68.877a1.5,1.5,0,0,0-1.5,1.5v8.83a.127.127,0,0,0,.074.115.118.118,0,0,0,.135-.02l1.652-1.483a2.182,2.182,0,0,1,1.456-.555H337a1.5,1.5,0,0,0,1.5-1.5V2.38a1.5,1.5,0,0,0-1.5-1.5h-7.32Z" transform="translate(-327.5 -0.2)" fill="#1c1d21"/>
          </g>
        </g>
      </g>
    </g>
    <rect id="Rectángulo_403050" data-name="Rectángulo 403050" width="51" height="51" transform="translate(1032 5049)" fill="none"/>
  </g>
</svg>
