<svg xmlns="http://www.w3.org/2000/svg" width="51" height="51" viewBox="0 0 51 51">
  <g id="_77" data-name="77" transform="translate(-613 -5146)">
    <g id="reshot-icon-social-engagement-K6YEBGNHZT" transform="translate(622.441 5155.728)">
      <g id="Grupo_1101540" data-name="Grupo 1101540" transform="translate(0.376 0.376)">
        <g id="Grupo_1101539" data-name="Grupo 1101539">
          <path id="Trazado_878617" data-name="Trazado 878617" d="M10.369,5A5.362,5.362,0,0,0,5,10.369V36.445a1.351,1.351,0,0,0,2.248,1.008l4.812-4.316a5.384,5.384,0,0,1,3.579-1.368H31.663A5.367,5.367,0,0,0,37.032,26.4V10.369A5.367,5.367,0,0,0,31.663,5Z" transform="translate(-5 -5)" fill="#ecf4f7"/>
        </g>
      </g>
      <g id="Grupo_1101542" data-name="Grupo 1101542" transform="translate(0 7.301)">
        <g id="Grupo_1101541" data-name="Grupo 1101541">
          <path id="Trazado_878618" data-name="Trazado 878618" d="M.376,102.807A.372.372,0,0,1,0,102.431V97.476A.372.372,0,0,1,.376,97.1a.372.372,0,0,1,.376.376v4.955A.377.377,0,0,1,.376,102.807Z" transform="translate(0 -97.1)" fill="#1c1d21"/>
        </g>
      </g>
      <g id="Grupo_1101544" data-name="Grupo 1101544">
        <g id="Grupo_1101543" data-name="Grupo 1101543">
          <path id="Trazado_878619" data-name="Trazado 878619" d="M1.729,33.543a1.781,1.781,0,0,1-.707-.15A1.712,1.712,0,0,1,0,31.814V17.287a.372.372,0,0,1,.376-.376.372.372,0,0,1,.376.376V31.814a.944.944,0,0,0,.579.887.955.955,0,0,0,1.045-.165L7.188,28.22a5.718,5.718,0,0,1,3.835-1.466H27.047a5,5,0,0,0,4.993-4.993V5.745A5,5,0,0,0,27.047.752H5.745A5,5,0,0,0,.752,5.745a.372.372,0,0,1-.376.376A.372.372,0,0,1,0,5.745,5.754,5.754,0,0,1,5.745,0h21.3a5.752,5.752,0,0,1,5.737,5.745V21.768a5.754,5.754,0,0,1-5.745,5.745H11.023a4.959,4.959,0,0,0-3.331,1.278L2.88,33.107A1.8,1.8,0,0,1,1.729,33.543Z" fill="#1c1d21"/>
        </g>
      </g>
      <g id="Grupo_1101551" data-name="Grupo 1101551" transform="translate(7.662 12.332)">
        <g id="Grupo_1101546" data-name="Grupo 1101546">
          <g id="Grupo_1101545" data-name="Grupo 1101545">
            <circle id="Elipse_11673" data-name="Elipse 11673" cx="1.624" cy="1.624" r="1.624" fill="#fddf7f"/>
          </g>
        </g>
        <g id="Grupo_1101548" data-name="Grupo 1101548" transform="translate(7.106)">
          <g id="Grupo_1101547" data-name="Grupo 1101547">
            <circle id="Elipse_11674" data-name="Elipse 11674" cx="1.624" cy="1.624" r="1.624" fill="#fddf7f"/>
          </g>
        </g>
        <g id="Grupo_1101550" data-name="Grupo 1101550" transform="translate(14.211)">
          <g id="Grupo_1101549" data-name="Grupo 1101549">
            <circle id="Elipse_11675" data-name="Elipse 11675" cx="1.624" cy="1.624" r="1.624" fill="#fddf7f"/>
          </g>
        </g>
      </g>
      <g id="Grupo_1101558" data-name="Grupo 1101558" transform="translate(7.286 11.963)">
        <g id="Grupo_1101553" data-name="Grupo 1101553">
          <g id="Grupo_1101552" data-name="Grupo 1101552">
            <path id="Trazado_878620" data-name="Trazado 878620" d="M98.9,163.1a2,2,0,1,1,2-2A2,2,0,0,1,98.9,163.1Zm0-3.256a1.248,1.248,0,1,0,1.248,1.248A1.25,1.25,0,0,0,98.9,159.844Z" transform="translate(-96.9 -159.1)" fill="#1c1d21"/>
          </g>
        </g>
        <g id="Grupo_1101555" data-name="Grupo 1101555" transform="translate(7.106)">
          <g id="Grupo_1101554" data-name="Grupo 1101554">
            <path id="Trazado_878621" data-name="Trazado 878621" d="M193.4,163.1a2,2,0,1,1,2-2A2,2,0,0,1,193.4,163.1Zm0-3.256a1.248,1.248,0,1,0,1.248,1.248A1.25,1.25,0,0,0,193.4,159.844Z" transform="translate(-191.4 -159.1)" fill="#1c1d21"/>
          </g>
        </g>
        <g id="Grupo_1101557" data-name="Grupo 1101557" transform="translate(14.211)">
          <g id="Grupo_1101556" data-name="Grupo 1101556">
            <path id="Trazado_878622" data-name="Trazado 878622" d="M287.9,163.1a2,2,0,1,1,2-2A2,2,0,0,1,287.9,163.1Zm0-3.256a1.248,1.248,0,1,0,1.248,1.248A1.25,1.25,0,0,0,287.9,159.844Z" transform="translate(-285.9 -159.1)" fill="#1c1d21"/>
          </g>
        </g>
      </g>
    </g>
    <rect id="Rectángulo_403048" data-name="Rectángulo 403048" width="51" height="51" transform="translate(613 5146)" fill="none"/>
  </g>
</svg>
