<svg xmlns="http://www.w3.org/2000/svg" width="51" height="51" viewBox="0 0 51 51">
  <g id="_78" data-name="78" transform="translate(-820 -5146)">
    <g id="reshot-icon-social-media-press-release-753EUPNM4C" transform="translate(759.46 5155.003)">
      <g id="Grupo_1101560" data-name="Grupo 1101560" transform="translate(76.923 3.442)">
        <g id="Grupo_1101559" data-name="Grupo 1101559" transform="translate(0)">
          <path id="Trazado_878623" data-name="Trazado 878623" d="M103,58.854l16.788-3.286a1.2,1.2,0,0,1,1.426,1.178v2.108Z" transform="translate(-103 -55.546)" fill="#aab1ba"/>
        </g>
      </g>
      <g id="Grupo_1101562" data-name="Grupo 1101562" transform="translate(76.923 0.311)">
        <g id="Grupo_1101561" data-name="Grupo 1101561" transform="translate(0)">
          <path id="Trazado_878624" data-name="Trazado 878624" d="M103,11.487l14.048-6.336A1.147,1.147,0,0,1,118.666,6.2V8.424Z" transform="translate(-103 -5.049)" fill="#aab1ba"/>
        </g>
      </g>
      <g id="Grupo_1101564" data-name="Grupo 1101564" transform="translate(75.51 6.75)">
        <g id="Grupo_1101563" data-name="Grupo 1101563" transform="translate(0)">
          <path id="Trazado_878625" data-name="Trazado 878625" d="M100.014,132.836H81.44a1.244,1.244,0,0,1-1.24-1.24V110.14a1.244,1.244,0,0,1,1.24-1.24h18.58a1.244,1.244,0,0,1,1.24,1.24V131.6A1.249,1.249,0,0,1,100.014,132.836Z" transform="translate(-80.2 -108.9)" fill="#ecf4f7"/>
        </g>
      </g>
      <g id="Grupo_1101566" data-name="Grupo 1101566" transform="translate(75.2 6.44)">
        <g id="Grupo_1101565" data-name="Grupo 1101565" transform="translate(0)">
          <path id="Trazado_878626" data-name="Trazado 878626" d="M95.324,128.456H76.75a1.55,1.55,0,0,1-1.55-1.55V105.45a1.55,1.55,0,0,1,1.55-1.55H95.33a1.55,1.55,0,0,1,1.55,1.55v21.457A1.56,1.56,0,0,1,95.324,128.456ZM76.75,104.52a.929.929,0,0,0-.93.93v21.457a.929.929,0,0,0,.93.93H95.33a.929.929,0,0,0,.93-.93V105.45a.929.929,0,0,0-.93-.93Z" transform="translate(-75.2 -103.9)" fill="#1c1d21"/>
        </g>
      </g>
      <g id="Grupo_1101568" data-name="Grupo 1101568" transform="translate(76.613 3.132)">
        <g id="Grupo_1101567" data-name="Grupo 1101567" transform="translate(0)">
          <path id="Trazado_878627" data-name="Trazado 878627" d="M116.509,54.476H98.3a.31.31,0,0,1-.062-.614l16.788-3.286a1.511,1.511,0,0,1,1.8,1.482v2.108A.315.315,0,0,1,116.509,54.476Zm-15.021-.62h14.705v-1.8a.887.887,0,0,0-1.06-.874Z" transform="translate(-97.984 -50.549)" fill="#1c1d21"/>
        </g>
      </g>
      <g id="Grupo_1101570" data-name="Grupo 1101570" transform="translate(76.611 -0.002)">
        <g id="Grupo_1101569" data-name="Grupo 1101569" transform="translate(0)">
          <path id="Trazado_878628" data-name="Trazado 878628" d="M98.265,7.06a.318.318,0,0,1-.3-.217.313.313,0,0,1,.167-.378L112.183.128a1.454,1.454,0,0,1,2.052,1.327V3.681a.312.312,0,0,1-.248.3L98.321,7.053C98.3,7.053,98.284,7.06,98.265,7.06ZM112.785.618a.853.853,0,0,0-.347.074L100.832,5.931l12.783-2.5V1.455a.805.805,0,0,0-.384-.7A.787.787,0,0,0,112.785.618Z" transform="translate(-97.952 0.002)" fill="#1c1d21"/>
        </g>
      </g>
      <g id="Grupo_1101575" data-name="Grupo 1101575" transform="translate(77.959 9.341)">
        <g id="Grupo_1101572" data-name="Grupo 1101572" transform="translate(0.31 0.31)">
          <g id="Grupo_1101571" data-name="Grupo 1101571">
            <path id="Trazado_878629" data-name="Trazado 878629" d="M130.05,162.141h-4.73a.622.622,0,0,1-.62-.62v-5.2a.622.622,0,0,1,.62-.62h4.73a.622.622,0,0,1,.62.62v5.2A.622.622,0,0,1,130.05,162.141Z" transform="translate(-124.7 -155.7)" fill="#fddf7f"/>
          </g>
        </g>
        <g id="Grupo_1101574" data-name="Grupo 1101574" transform="translate(0)">
          <g id="Grupo_1101573" data-name="Grupo 1101573">
            <path id="Trazado_878630" data-name="Trazado 878630" d="M125.36,157.761h-4.73a.929.929,0,0,1-.93-.93v-5.2a.929.929,0,0,1,.93-.93h4.73a.929.929,0,0,1,.93.93v5.2A.933.933,0,0,1,125.36,157.761Zm-4.73-6.441a.307.307,0,0,0-.31.31v5.2a.307.307,0,0,0,.31.31h4.73a.307.307,0,0,0,.31-.31v-5.2a.307.307,0,0,0-.31-.31Z" transform="translate(-119.7 -150.7)" fill="#1c1d21"/>
          </g>
        </g>
      </g>
      <g id="Grupo_1101577" data-name="Grupo 1101577" transform="translate(85.727 9.341)">
        <g id="Grupo_1101576" data-name="Grupo 1101576" transform="translate(0)">
          <path id="Trazado_878631" data-name="Trazado 878631" d="M253.264,151.32H245.31a.31.31,0,1,1,0-.62h7.954a.31.31,0,0,1,0,.62Z" transform="translate(-245 -150.7)" fill="#1c1d21"/>
        </g>
      </g>
      <g id="Grupo_1101579" data-name="Grupo 1101579" transform="translate(85.727 11.498)">
        <g id="Grupo_1101578" data-name="Grupo 1101578" transform="translate(0)">
          <path id="Trazado_878632" data-name="Trazado 878632" d="M253.264,186.12H245.31a.31.31,0,0,1,0-.62h7.954a.31.31,0,0,1,0,.62Z" transform="translate(-245 -185.5)" fill="#1c1d21"/>
        </g>
      </g>
      <g id="Grupo_1101581" data-name="Grupo 1101581" transform="translate(85.727 13.662)">
        <g id="Grupo_1101580" data-name="Grupo 1101580" transform="translate(0)">
          <path id="Trazado_878633" data-name="Trazado 878633" d="M253.264,221.02H245.31a.31.31,0,0,1,0-.62h7.954a.31.31,0,0,1,0,.62Z" transform="translate(-245 -220.4)" fill="#1c1d21"/>
        </g>
      </g>
      <g id="Grupo_1101583" data-name="Grupo 1101583" transform="translate(85.727 15.826)">
        <g id="Grupo_1101582" data-name="Grupo 1101582" transform="translate(0)">
          <path id="Trazado_878634" data-name="Trazado 878634" d="M253.264,255.92H245.31a.31.31,0,1,1,0-.62h7.954a.31.31,0,0,1,0,.62Z" transform="translate(-245 -255.3)" fill="#1c1d21"/>
        </g>
      </g>
      <g id="Grupo_1101585" data-name="Grupo 1101585" transform="translate(78.207 17.983)">
        <g id="Grupo_1101584" data-name="Grupo 1101584" transform="translate(0)">
          <path id="Trazado_878635" data-name="Trazado 878635" d="M139.484,290.72H124.01a.31.31,0,1,1,0-.62h15.48a.307.307,0,0,1,.31.31A.312.312,0,0,1,139.484,290.72Z" transform="translate(-123.7 -290.1)" fill="#1c1d21"/>
        </g>
      </g>
      <g id="Grupo_1101587" data-name="Grupo 1101587" transform="translate(78.207 20.147)">
        <g id="Grupo_1101586" data-name="Grupo 1101586" transform="translate(0)">
          <path id="Trazado_878636" data-name="Trazado 878636" d="M139.484,325.62H124.01a.31.31,0,0,1,0-.62h15.48a.307.307,0,0,1,.31.31A.312.312,0,0,1,139.484,325.62Z" transform="translate(-123.7 -325)" fill="#1c1d21"/>
        </g>
      </g>
      <g id="Grupo_1101589" data-name="Grupo 1101589" transform="translate(78.207 22.31)">
        <g id="Grupo_1101588" data-name="Grupo 1101588" transform="translate(0)">
          <path id="Trazado_878637" data-name="Trazado 878637" d="M139.484,360.52H124.01a.31.31,0,1,1,0-.62h15.48a.307.307,0,0,1,.31.31A.312.312,0,0,1,139.484,360.52Z" transform="translate(-123.7 -359.9)" fill="#1c1d21"/>
        </g>
      </g>
      <g id="Grupo_1101591" data-name="Grupo 1101591" transform="translate(78.207 24.468)">
        <g id="Grupo_1101590" data-name="Grupo 1101590" transform="translate(0)">
          <path id="Trazado_878638" data-name="Trazado 878638" d="M139.484,395.32H124.01a.31.31,0,0,1,0-.62h15.48a.307.307,0,0,1,.31.31A.312.312,0,0,1,139.484,395.32Z" transform="translate(-123.7 -394.7)" fill="#1c1d21"/>
        </g>
      </g>
    </g>
    <rect id="Rectángulo_403049" data-name="Rectángulo 403049" width="51" height="51" transform="translate(820 5146)" fill="none"/>
  </g>
</svg>
