<svg xmlns="http://www.w3.org/2000/svg" width="85" height="85" viewBox="0 0 85 85">
  <g id="_9" data-name="9" transform="translate(-180 -2410)">
    <g id="Grupo_1100555" data-name="Grupo 1100555" transform="translate(0 -1972)">
      <rect id="Rectángulo_402231" data-name="Rectángulo 402231" width="85" height="85" transform="translate(180 4382)" fill="#debefb"/>
    </g>
    <g id="_44-Html_File" data-name="44-Html File" transform="translate(191 2422.998)">
      <path id="Trazado_877072" data-name="Trazado 877072" d="M18.141,1V12.063H8Z" transform="translate(-0.078 -0.078)" fill="#00ffdf"/>
      <path id="Trazado_877073" data-name="Trazado 877073" d="M52.252,2.844V56.315a1.849,1.849,0,0,1-1.844,1.844H9.844A1.849,1.849,0,0,1,8,56.315V12.063H18.141V1H50.408a1.849,1.849,0,0,1,1.844,1.844Z" transform="translate(-0.078 -0.078)" fill="#debefb"/>
      <path id="Trazado_877074" data-name="Trazado 877074" d="M24.036,42.486c7.007,0,7.007,1.844,14.013,1.844s7.007-1.844,14.013-1.844h.184V2.844A1.849,1.849,0,0,0,50.4,1H18.141V12.063H8v32.2c.611.038,1.267.065,2.028.065C17.029,44.33,17.029,42.486,24.036,42.486Z" transform="translate(-0.078 -0.078)" fill="#f2e5fd"/>
      <path id="Trazado_877075" data-name="Trazado 877075" d="M25.817,9.3c7.007,0,7.007,1.844,14.013,1.844,6.747,0,7.017-1.7,13.28-1.832V2.844A1.849,1.849,0,0,0,51.266,1H19v9.169A23.458,23.458,0,0,1,25.817,9.3Z" transform="translate(-0.937 -0.078)" fill="#f6fafd"/>
      <path id="Trazado_877076" data-name="Trazado 877076" d="M8,12.707H18.141V10.691c-2.878-.335-4.241-1.068-6.971-1.442Z" transform="translate(-0.078 -0.722)" fill="#0096cf"/>
      <path id="Trazado_877077" data-name="Trazado 877077" d="M50.33,0H18.063a.922.922,0,0,0-.68.3L7.242,11.362A.922.922,0,0,0,7,11.985V56.237A2.766,2.766,0,0,0,9.766,59H50.33A2.766,2.766,0,0,0,53.1,56.237V2.766A2.766,2.766,0,0,0,50.33,0ZM17.141,3.291v7.772H10.017ZM51.252,56.237a.922.922,0,0,1-.922.922H9.766a.922.922,0,0,1-.922-.922V12.907h9.219a.922.922,0,0,0,.922-.922V1.844H50.33a.922.922,0,0,1,.922.922Z"/>
      <path id="Trazado_877078" data-name="Trazado 877078" d="M50.688,8.61a.749.749,0,0,1-.655-.268c-.562-.684-.435-2.478-.286-3.24a.922.922,0,0,0-.9-1.1H47V5.844h.8a5.407,5.407,0,0,0,.809,3.666,2.5,2.5,0,0,0,1.16.8V10.6a2.5,2.5,0,0,0-1.16.8,5.407,5.407,0,0,0-.809,3.666H47v1.844h1.844a.922.922,0,0,0,.9-1.106c-.149-.762-.277-2.556.286-3.24a.749.749,0,0,1,.655-.264.922.922,0,0,0,.922-.922V9.531A.922.922,0,0,0,50.688,8.61Z" transform="translate(-3.123 -0.312)"/>
      <path id="Trazado_877079" data-name="Trazado 877079" d="M14.054,44.337a.922.922,0,0,0-.192.764c.149.762.277,2.556-.286,3.24a.749.749,0,0,1-.655.268.922.922,0,0,0-.922.922v1.844a.922.922,0,0,0,.922.922.749.749,0,0,1,.655.268c.562.684.435,2.478.286,3.24a.922.922,0,0,0,.9,1.1H16.61V55.063h-.8A5.407,5.407,0,0,0,15,51.4a2.5,2.5,0,0,0-1.16-.8V50.31a2.5,2.5,0,0,0,1.16-.8,5.407,5.407,0,0,0,.809-3.666h.8V44H14.766A.922.922,0,0,0,14.054,44.337Z" transform="translate(-0.39 -3.436)"/>
      <rect id="Rectángulo_402235" data-name="Rectángulo 402235" width="14" height="2" transform="translate(25 13.003)"/>
      <rect id="Rectángulo_402236" data-name="Rectángulo 402236" width="14" height="2" transform="translate(25 9.003)"/>
      <rect id="Rectángulo_402238" data-name="Rectángulo 402238" width="14" height="2" transform="translate(19 42.003)"/>
      <rect id="Rectángulo_402239" data-name="Rectángulo 402239" width="14" height="2" transform="translate(19 46.003)"/>
      <rect id="Rectángulo_402240" data-name="Rectángulo 402240" width="6" height="2" transform="translate(19 50.003)"/>
      <rect id="Rectángulo_402241" data-name="Rectángulo 402241" width="6" height="1" transform="translate(14 28.003)"/>
      <path id="Trazado_877080" data-name="Trazado 877080" d="M19.531,29.531H15.844V24H14V36.907h1.844V31.375h3.688v5.531h1.844V24H19.531Z" transform="translate(-0.547 -1.874)" fill="#a854f3"/>
      <path id="Trazado_877081" data-name="Trazado 877081" d="M24,25.844h2.766V36.907H28.61V25.844h2.766V24H24Z" transform="translate(-1.327 -1.874)" fill="#a854f3"/>
      <path id="Trazado_877082" data-name="Trazado 877082" d="M40.618,24.015a.922.922,0,0,0-1.029.584l-1.9,5.073-1.9-5.071A.922.922,0,0,0,34,24.922V36.907h1.844v-6.9l.98,2.615a.922.922,0,0,0,1.728,0l.98-2.615v6.9h1.844V24.922a.922.922,0,0,0-.757-.907Z" transform="translate(-2.108 -1.874)" fill="#a854f3"/>
      <path id="Trazado_877083" data-name="Trazado 877083" d="M46.766,35.063a.844.844,0,0,1-.922-.922V24H44V34.141a2.688,2.688,0,0,0,2.766,2.766h3.688V35.063Z" transform="translate(-2.889 -1.874)" fill="#a854f3"/>
    </g>
  </g>
</svg>
