<svg xmlns="http://www.w3.org/2000/svg" width="205.372" height="205.378" viewBox="0 0 205.372 205.378">
  <g id="XMLID_3789_" transform="translate(-82.927 -82.929)">
    <g id="XMLID_10565_" transform="translate(141.141 141.125)">
      <path id="XMLID_1280_" d="M715.056,759.361a44.457,44.457,0,1,1,31.461-13.01A44.354,44.354,0,0,1,715.056,759.361Zm0-87.1A42.628,42.628,0,1,0,745.2,684.747,42.349,42.349,0,0,0,715.056,672.262Z" transform="translate(-670.584 -670.397)" fill="#262626"/>
    </g>
    <g id="XMLID_3791_" transform="translate(82.927 82.929)">
      <path id="XMLID_1528_" d="M182.626,288.3a.932.932,0,0,1-.907-.958h0a.93.93,0,0,1,.957-.9h0a.932.932,0,0,1,.908.958h0a.939.939,0,0,1-.933.908h0C182.644,288.308,182.632,288.3,182.626,288.3Zm10.93-1.188a.934.934,0,0,1,.845-1.013h0a.935.935,0,0,1,1.013.851h0a.932.932,0,0,1-.852,1.007h-.081A.926.926,0,0,1,193.556,287.113Zm-22.836.156a.928.928,0,0,1-.783-1.057h0a.934.934,0,0,1,1.057-.79h0a.933.933,0,0,1,.789,1.057h0a.936.936,0,0,1-.926.8h0A.9.9,0,0,1,170.72,287.268Zm34.567-1.759a.929.929,0,0,1,.728-1.1h0a.934.934,0,0,1,1.1.727h0a.939.939,0,0,1-.728,1.1h0a.96.96,0,0,1-.186.019h0A.932.932,0,0,1,205.287,285.509Zm-46.261-.647a.932.932,0,0,1-.665-1.138h0a.934.934,0,0,1,1.144-.659h0a.929.929,0,0,1,.659,1.138h0a.93.93,0,0,1-.9.69h0A.731.731,0,0,1,159.026,284.862Zm57.726-2.3a.93.93,0,0,1,.591-1.175h0a.926.926,0,0,1,1.181.59h0a.931.931,0,0,1-.6,1.175h0a.771.771,0,0,1-.286.05h0A.939.939,0,0,1,216.751,282.562Zm-69.072-1.448h.006a.927.927,0,0,1-.529-1.206h0a.933.933,0,0,1,1.213-.523h0a.923.923,0,0,1,.522,1.206h0a.932.932,0,0,1-.864.591h0A.881.881,0,0,1,147.679,281.114ZM227.8,278.3a.929.929,0,0,1,.447-1.237h0a.936.936,0,0,1,1.244.447h0a.939.939,0,0,1-.454,1.244h0a.993.993,0,0,1-.392.087h0A.922.922,0,0,1,227.8,278.3Zm-90.945-2.225a.924.924,0,0,1-.373-1.262h0a.932.932,0,0,1,1.262-.379h0a.925.925,0,0,1,.373,1.262h0a.931.931,0,0,1-.821.491h0A.956.956,0,0,1,136.855,276.071Zm101.414-3.3a.929.929,0,0,1,.3-1.281h0a.925.925,0,0,1,1.281.3h0a.93.93,0,0,1-.3,1.281h-.006a.913.913,0,0,1-.485.137h0A.921.921,0,0,1,238.27,272.77ZM126.7,269.792v.006h0a.935.935,0,0,1-.23-1.3h0a.931.931,0,0,1,1.3-.23h0a.929.929,0,0,1,.23,1.3h0a.943.943,0,0,1-.765.4h0A.892.892,0,0,1,126.7,269.792Zm121.328-3.737a.935.935,0,0,1,.15-1.306h0a.932.932,0,0,1,1.312.149h0a.943.943,0,0,1-.149,1.312h0V266.2h0a.945.945,0,0,1-.585.2h0A.914.914,0,0,1,248.024,266.055Zm-130.691-3.68h0a.934.934,0,0,1-.075-1.318h0a.939.939,0,0,1,1.318-.075h0a.94.94,0,0,1,.075,1.318h0a.94.94,0,0,1-.7.311h0A.915.915,0,0,1,117.333,262.375Zm139.606-4.116a.927.927,0,0,1,0-1.318h0a.078.078,0,0,1,.032-.031h0a.331.331,0,0,1,.043-.05h0a.938.938,0,0,1,1.318,0h0a.932.932,0,0,1,0,1.318h0a.122.122,0,0,1-.044.037h0a.106.106,0,0,1-.031.044h0a.951.951,0,0,1-.665.273h0A.924.924,0,0,1,256.939,258.259Zm-148.055-4.327a.939.939,0,0,1,.075-1.318h0a.935.935,0,0,1,1.318.081h0a.927.927,0,0,1-.075,1.312h0a.916.916,0,0,1-.622.236h0A.939.939,0,0,1,108.884,253.932Zm156.076-4.52a.931.931,0,0,1-.149-1.312h0a.929.929,0,0,1,1.306-.155h0a.938.938,0,0,1,.155,1.312h0a.95.95,0,0,1-.734.354h0A.954.954,0,0,1,264.96,249.412Zm-163.5-4.843a.93.93,0,0,1,.23-1.3h0a.923.923,0,0,1,1.293.23h0a.93.93,0,0,1-.223,1.3h0a.953.953,0,0,1-.535.168h0A.92.92,0,0,1,101.46,244.569Zm170.375-4.787a.943.943,0,0,1-.3-1.287h0a.942.942,0,0,1,1.286-.305h0a.943.943,0,0,1,.3,1.287h0a.941.941,0,0,1-.8.442h0A.949.949,0,0,1,271.836,239.782ZM95.175,234.4h0a.932.932,0,0,1,.379-1.262h0a.932.932,0,0,1,1.262.379h0a.934.934,0,0,1-.379,1.262h0a.938.938,0,0,1-.442.112h0A.936.936,0,0,1,95.175,234.4Zm182.369-4.993a.933.933,0,0,1-.454-1.237h0a.939.939,0,0,1,1.243-.454h0a.929.929,0,0,1,.447,1.237h0a.923.923,0,0,1-.845.541h0A.969.969,0,0,1,277.544,229.411ZM90.127,223.579v-.006h0a.924.924,0,0,1,.522-1.206h0a.924.924,0,0,1,1.206.522h0a.933.933,0,0,1-.522,1.213h0a.918.918,0,0,1-.342.063h0A.926.926,0,0,1,90.127,223.579ZM282,218.451a.936.936,0,0,1-.6-1.181h0a.927.927,0,0,1,1.181-.59h0a.928.928,0,0,1,.59,1.175h0a.931.931,0,0,1-.883.641h0A.93.93,0,0,1,282,218.451Zm-195.63-6.217a.938.938,0,0,1,.659-1.144h0a.939.939,0,0,1,1.145.659h0a.933.933,0,0,1-.659,1.144h0a.811.811,0,0,1-.242.031h0A.936.936,0,0,1,86.372,212.234Zm198.775-5.2a.935.935,0,0,1-.728-1.1h0a.939.939,0,0,1,1.1-.727h0a.929.929,0,0,1,.728,1.1h0a.932.932,0,0,1-.914.746h0A.959.959,0,0,1,285.147,207.036Zm-201.181-6.5a.924.924,0,0,1,.783-1.056h0a.934.934,0,0,1,1.063.783h0a.946.946,0,0,1-.789,1.063h0a1.071,1.071,0,0,1-.137.006h0A.929.929,0,0,1,83.966,200.533Zm202.99-5.191a.936.936,0,0,1-.852-1.014h0a.933.933,0,0,1,1.007-.846h0a.929.929,0,0,1,.852,1.007h0a.939.939,0,0,1-.933.852h-.075ZM82.927,188.627h0a.926.926,0,0,1,.9-.958h0a.941.941,0,0,1,.963.908h-.006a.926.926,0,0,1-.9.957h-.031A.929.929,0,0,1,82.927,188.627ZM286.434,182.6a.931.931,0,0,1,.9-.958h0a.932.932,0,0,1,.963.9h0a.941.941,0,0,1-.908.964h-.025A.933.933,0,0,1,286.434,182.6ZM84.115,177.7a.928.928,0,0,1-.846-1.007h0a.928.928,0,0,1,1.007-.846h0a.925.925,0,0,1,.846,1.007h0a.929.929,0,0,1-.927.852h0A.416.416,0,0,1,84.115,177.7Zm201.293-6.777v-.006a.933.933,0,0,1,.79-1.057h0a.934.934,0,0,1,1.057.79h0a.934.934,0,0,1-.79,1.057h0a1.03,1.03,0,0,1-.137.012h0A.934.934,0,0,1,285.408,170.92Zm-199.7-4.949a.939.939,0,0,1-.728-1.1h0v-.006h0a.93.93,0,0,1,1.1-.721h0a.93.93,0,0,1,.728,1.1h0a.936.936,0,0,1-.914.746h0A.936.936,0,0,1,85.713,165.972Zm197.326-6.54a.931.931,0,0,1,.659-1.144h0a.923.923,0,0,1,1.138.659h0a.934.934,0,0,1-.653,1.144h0a1.121,1.121,0,0,1-.242.031h0A.93.93,0,0,1,283.039,159.431ZM88.659,154.507a.938.938,0,0,1-.6-1.181h0a.938.938,0,0,1,1.181-.591h0a.928.928,0,0,1,.591,1.175h0a.931.931,0,0,1-.883.64h0A.928.928,0,0,1,88.659,154.507ZM279.347,148.3h0a.936.936,0,0,1,.522-1.213h0a.933.933,0,0,1,1.213.522h0a.932.932,0,0,1-.522,1.213h0a.939.939,0,0,1-.342.063h0A.934.934,0,0,1,279.347,148.3ZM92.918,143.459a.927.927,0,0,1-.454-1.238h0a.93.93,0,0,1,1.237-.447h0a.93.93,0,0,1,.454,1.237h0a.936.936,0,0,1-.845.541h0A.881.881,0,0,1,92.918,143.459Zm181.467-5.794a.924.924,0,0,1,.373-1.262h0a.935.935,0,0,1,1.268.379h0a.935.935,0,0,1-.379,1.262h0a.953.953,0,0,1-.442.112h0A.928.928,0,0,1,274.386,137.665ZM98.433,133a.935.935,0,0,1-.3-1.286h0a.929.929,0,0,1,1.281-.3h0a.934.934,0,0,1,.3,1.281h0a.939.939,0,0,1-.8.441h0A.942.942,0,0,1,98.433,133Zm169.772-5.3h0a.935.935,0,0,1,.23-1.3h0a.93.93,0,0,1,1.3.224h0a.935.935,0,0,1-.23,1.3h0a.892.892,0,0,1-.534.168h0A.947.947,0,0,1,268.205,127.693Zm-163.064-4.445a.938.938,0,0,1-.155-1.312h0a.938.938,0,0,1,1.312-.155h0a.938.938,0,0,1,.155,1.312h0a.93.93,0,0,1-.733.354h0A.944.944,0,0,1,105.141,123.247ZM260.913,118.5a.933.933,0,0,1,.075-1.318h0a.933.933,0,0,1,1.317.075h0a.932.932,0,0,1-.074,1.312h0a.935.935,0,0,1-.622.242h0A.937.937,0,0,1,260.913,118.5Zm-147.982-4.172a.938.938,0,0,1,0-1.318h0a.927.927,0,0,1,1.318,0h0a.927.927,0,0,1,0,1.318h0a.927.927,0,0,1-.659.273h0A.95.95,0,0,1,112.931,114.332Zm139.681-4.122a.927.927,0,0,1-.081-1.312h0a.934.934,0,0,1,1.318-.081h0a.934.934,0,0,1,.081,1.318h0a.94.94,0,0,1-.7.311h0A.907.907,0,0,1,252.612,110.21ZM121.7,106.367a.93.93,0,0,1,.149-1.311h0a.937.937,0,0,1,1.312.155h0a.928.928,0,0,1-.149,1.305h0a.943.943,0,0,1-.584.205h0A.936.936,0,0,1,121.7,106.367Zm121.713-3.432a.936.936,0,0,1-.23-1.3h0a.938.938,0,0,1,1.306-.23h-.006a.93.93,0,0,1,.23,1.3h0a.927.927,0,0,1-.764.4h0A.938.938,0,0,1,243.411,102.936ZM131.322,99.473a.937.937,0,0,1,.3-1.287h0a.935.935,0,0,1,1.281.3h0a.928.928,0,0,1-.3,1.281v.006a.946.946,0,0,1-.491.137h0A.939.939,0,0,1,131.322,99.473Zm102.111-2.692h.006a.935.935,0,0,1-.379-1.268h0a.924.924,0,0,1,1.262-.373h0a.932.932,0,0,1,.38,1.262h0a.941.941,0,0,1-.827.491h0A.949.949,0,0,1,233.432,96.781Zm-91.747-3.034a.932.932,0,0,1,.454-1.237h0a.93.93,0,0,1,1.237.448h0a.93.93,0,0,1-.448,1.237h0a.907.907,0,0,1-.4.093h0A.938.938,0,0,1,141.686,93.747Zm81.122-1.915h0a.941.941,0,0,1-.529-1.213h0a.933.933,0,0,1,1.213-.522h0a.926.926,0,0,1,.522,1.206h0a.925.925,0,0,1-.864.591h0A.909.909,0,0,1,222.808,91.832Zm-70.155-2.555a.931.931,0,0,1,.59-1.181h0a.935.935,0,0,1,1.182.591h0a.935.935,0,0,1-.6,1.181h0a.917.917,0,0,1-.292.044h0A.933.933,0,0,1,152.653,89.277Zm59.013-1.119a.936.936,0,0,1-.659-1.144h0a.935.935,0,0,1,1.144-.659h0a.932.932,0,0,1,.659,1.144h0a.93.93,0,0,1-.9.69h0A1.071,1.071,0,0,1,211.666,88.157Zm-47.605-2.046a.932.932,0,0,1,.728-1.106h0a.928.928,0,0,1,1.094.727h0a.929.929,0,0,1-.721,1.1h0a1,1,0,0,1-.193.019h0A.93.93,0,0,1,164.061,86.112Zm36.116-.311a.924.924,0,0,1-.783-1.056h0a.927.927,0,0,1,1.051-.79h0a.933.933,0,0,1,.79,1.057h0a.935.935,0,0,1-.92.8h0A1,1,0,0,1,200.177,85.8ZM175.755,84.29a.935.935,0,0,1,.852-1.013h0a.932.932,0,0,1,1.007.852h0a.932.932,0,0,1-.845,1.007h0c-.031,0-.056.006-.087.006h0A.938.938,0,0,1,175.755,84.29Zm12.739.5h0a.942.942,0,0,1-.908-.964h0a.927.927,0,0,1,.964-.9h-.006a.931.931,0,0,1,.908.957h0a.934.934,0,0,1-.932.908h-.025Z" transform="translate(-82.927 -82.929)" fill="#262626"/>
    </g>
    <g id="XMLID_10564_" transform="translate(179.847 179.853)">
      <rect id="XMLID_1279_" width="14.44" height="1.865" transform="translate(0 10.21) rotate(-45)" fill="#262626"/>
    </g>
    <g id="XMLID_10563_" transform="translate(179.847 179.853)">
      <rect id="XMLID_1278_" width="1.865" height="14.44" transform="translate(0 1.319) rotate(-45)" fill="#262626"/>
    </g>
    <g id="XMLID_10558_" transform="translate(130.408 130.417)">
      <g id="XMLID_10562_" transform="translate(70.172 70.168)">
        <rect id="XMLID_1277_" width="1.865" height="55.032" transform="translate(0 1.319) rotate(-45)" fill="#262626"/>
      </g>
      <g id="XMLID_10561_" transform="translate(70.172 0.001)">
        <rect id="XMLID_1275_" width="55.032" height="1.865" transform="translate(0 38.913) rotate(-45)" fill="#262626"/>
      </g>
      <g id="XMLID_10560_" transform="translate(0.004 0)">
        <rect id="XMLID_1274_" width="1.865" height="55.032" transform="translate(0 1.319) rotate(-45)" fill="#262626"/>
      </g>
      <g id="XMLID_10559_" transform="translate(0 70.174)">
        <rect id="XMLID_1272_" width="55.032" height="1.865" transform="matrix(0.707, -0.707, 0.707, 0.707, 0, 38.908)" fill="#262626"/>
      </g>
    </g>
    <g id="XMLID_10540_" transform="translate(88.844 148.576)">
      <g id="XMLID_10542_" transform="translate(0)">
        <g id="XMLID_10550_">
          <g id="XMLID_9_">
            <path id="XMLID_1271_" d="M150,819.7a97.1,97.1,0,0,1,0-74.082l1.723.714a95.235,95.235,0,0,0,0,72.654Z" transform="translate(-142.658 -745.615)" fill="#262626"/>
          </g>
          <g id="XMLID_239_" transform="translate(10.97 4.199)">
            <path id="XMLID_1264_" d="M259.905,853.691a86.09,86.09,0,0,1,0-65.683l1.723.714a84.224,84.224,0,0,0,0,64.255Z" transform="translate(-253.395 -788.007)" fill="#262626"/>
          </g>
          <g id="XMLID_8_" transform="translate(21.94 8.399)">
            <path id="XMLID_1263_" d="M369.817,887.687a75.085,75.085,0,0,1,0-57.285l1.723.714a73.219,73.219,0,0,0,0,55.857Z" transform="translate(-364.139 -830.402)" fill="#262626"/>
          </g>
        </g>
        <g id="XMLID_10543_" transform="translate(164.198 0)">
          <g id="XMLID_7_" transform="translate(20.276)">
            <path id="XMLID_1262_" d="M2006.58,819.7l-1.723-.714a95.235,95.235,0,0,0,0-72.654l1.723-.714a97.1,97.1,0,0,1,0,74.082Z" transform="translate(-2004.857 -745.615)" fill="#262626"/>
          </g>
          <g id="XMLID_238_" transform="translate(10.138 4.199)">
            <path id="XMLID_1261_" d="M1904.237,853.691l-1.723-.714a84.224,84.224,0,0,0,0-64.255l1.723-.714a86.091,86.091,0,0,1,0,65.683Z" transform="translate(-1902.514 -788.007)" fill="#262626"/>
          </g>
          <g id="XMLID_5_" transform="translate(0 8.399)">
            <path id="XMLID_1260_" d="M1801.9,887.688l-1.723-.714a73.218,73.218,0,0,0,0-55.857l1.723-.714a75.084,75.084,0,0,1,0,57.285Z" transform="translate(-1800.177 -830.402)" fill="#262626"/>
          </g>
        </g>
      </g>
    </g>
    <g id="XMLID_10555_" transform="translate(148.572 88.848)">
      <g id="XMLID_10568_" transform="translate(0 0)">
        <g id="XMLID_10575_">
          <g id="XMLID_4_">
            <path id="XMLID_1259_" d="M818.963,151.744a95.236,95.236,0,0,0-72.654,0l-.714-1.723a97.1,97.1,0,0,1,74.082,0Z" transform="translate(-745.595 -142.678)" fill="#262626"/>
          </g>
          <g id="XMLID_237_" transform="translate(4.199 10.971)">
            <path id="XMLID_1254_" d="M788.7,261.655l-.714-1.723a86.09,86.09,0,0,1,65.684,0l-.714,1.723a84.23,84.23,0,0,0-64.256,0Z" transform="translate(-787.985 -253.422)" fill="#262626"/>
          </g>
          <g id="XMLID_1_" transform="translate(8.398 21.94)">
            <path id="XMLID_1253_" d="M831.087,371.559l-.714-1.723a75.08,75.08,0,0,1,57.286,0l-.714,1.723a73.219,73.219,0,0,0-55.858,0Z" transform="translate(-830.373 -364.158)" fill="#262626"/>
          </g>
        </g>
        <g id="XMLID_10569_" transform="translate(0 164.198)">
          <g id="XMLID_54_" transform="translate(0 20.276)">
            <path id="XMLID_1252_" d="M782.637,2013.938a96.194,96.194,0,0,1-37.041-7.343l.714-1.723a95.237,95.237,0,0,0,72.654,0l.714,1.723A96.2,96.2,0,0,1,782.637,2013.938Z" transform="translate(-745.596 -2004.872)" fill="#262626"/>
          </g>
          <g id="XMLID_236_" transform="translate(4.199 10.138)">
            <path id="XMLID_1251_" d="M820.825,1910.767a85.306,85.306,0,0,1-32.842-6.51l.714-1.723a84.225,84.225,0,0,0,64.256,0l.714,1.723A85.293,85.293,0,0,1,820.825,1910.767Z" transform="translate(-787.983 -1902.533)" fill="#262626"/>
          </g>
          <g id="XMLID_50_" transform="translate(8.398)">
            <path id="XMLID_1250_" d="M859.014,1807.6a74.4,74.4,0,0,1-28.643-5.678l.714-1.723a73.219,73.219,0,0,0,55.858,0l.714,1.723A74.4,74.4,0,0,1,859.014,1807.6Z" transform="translate(-830.371 -1800.197)" fill="#262626"/>
          </g>
        </g>
      </g>
    </g>
    <g id="XMLID_3780_" transform="translate(246.177 173.25)">
      <path id="XMLID_1249_" d="M1751.735,1026.978l-11.435-11.434,11.435-11.435Z" transform="translate(-1739.367 -1003.177)" fill="#262626"/>
      <path id="XMLID_1244_" d="M1743.247,1019.427a.932.932,0,0,1-.659-.273l-11.434-11.434a.932.932,0,0,1,0-1.319l11.434-11.435a.933.933,0,0,1,1.592.659v22.869a.933.933,0,0,1-.576.862A.916.916,0,0,1,1743.247,1019.427Zm-10.115-12.367,9.183,9.183V997.876Z" transform="translate(-1730.88 -994.692)" fill="#262626"/>
    </g>
    <g id="XMLID_3785_" transform="translate(173.246 111.754)">
      <path id="XMLID_1243_" d="M1026.958,383.323l-11.434,11.435-11.435-11.435Z" transform="translate(-1003.157 -382.391)" fill="#262626"/>
      <path id="XMLID_1236_" d="M1007.039,387.21a.93.93,0,0,1-.659-.273L994.945,375.5a.933.933,0,0,1,.659-1.592h22.869a.933.933,0,0,1,.659,1.592L1007.7,386.937A.929.929,0,0,1,1007.039,387.21Zm-9.183-11.434,9.183,9.183,9.184-9.183Z" transform="translate(-994.672 -373.911)" fill="#262626"/>
    </g>
    <g id="XMLID_3787_" transform="translate(111.75 173.25)">
      <path id="XMLID_1232_" d="M383.3,1004.11l11.435,11.435L383.3,1026.978Z" transform="translate(-382.367 -1003.177)" fill="#262626"/>
      <path id="XMLID_1225_" d="M374.818,1019.431a.933.933,0,0,1-.933-.933V995.629a.933.933,0,0,1,1.592-.659l11.435,11.435a.933.933,0,0,1,0,1.319l-11.435,11.434A.933.933,0,0,1,374.818,1019.431Zm.932-21.551v18.367l9.184-9.183Z" transform="translate(-373.885 -994.697)" fill="#262626"/>
    </g>
    <g id="XMLID_3788_" transform="translate(173.246 246.192)">
      <path id="XMLID_1223_" d="M1004.09,1751.755l11.435-11.435,11.434,11.435Z" transform="translate(-1003.157 -1739.398)" fill="#262626"/>
      <path id="XMLID_1215_" d="M1018.471,1744.308H995.6a.933.933,0,0,1-.659-1.592l11.434-11.435a.961.961,0,0,1,1.319,0l11.435,11.435a.933.933,0,0,1-.66,1.592Zm-20.618-1.865h18.367l-9.184-9.184Z" transform="translate(-994.669 -1731.018)" fill="#262626"/>
    </g>
  </g>
</svg>
