<svg xmlns="http://www.w3.org/2000/svg" width="85" height="85" viewBox="0 0 85 85">
  <g id="_1" data-name="1" transform="translate(-200 -542)">
    <rect id="Rectángulo_406341" data-name="Rectángulo 406341" width="85" height="85" transform="translate(200 542)" fill="#fcf3cc"/>
    <g id="Grupo_1112949" data-name="Grupo 1112949" transform="translate(200.079 510.566)">
      <path id="Trazado_979060" data-name="Trazado 979060" d="M32.028,81.277a23.772,23.772,0,1,1,46.392.43" transform="translate(-12.189 0)" fill="none" stroke="#fc7777" stroke-linecap="round" stroke-linejoin="round" stroke-miterlimit="10" stroke-width="2.5"/>
      <circle id="Elipse_11568" data-name="Elipse 11568" cx="1.398" cy="1.398" r="1.398" transform="translate(41.685 74.873)" fill="none" stroke="#fc7777" stroke-linecap="round" stroke-linejoin="round" stroke-miterlimit="10" stroke-width="2.5"/>
      <path id="Trazado_979061" data-name="Trazado 979061" d="M98.4,112.084a13.342,13.342,0,0,1,21.015,7.238L124.1,118.1a18.184,18.184,0,0,0-35.195,0l4.686,1.218a13.3,13.3,0,0,1,2.762-5.3" transform="translate(-63.416 -46.407)" fill="none" stroke="#fc7777" stroke-linecap="round" stroke-linejoin="round" stroke-miterlimit="10" stroke-width="2.5"/>
      <path id="Trazado_979062" data-name="Trazado 979062" d="M171.288,169.978,161.5,157.5" transform="translate(-128.205 -93.706)" fill="none" stroke="#fc7777" stroke-linecap="round" stroke-linejoin="round" stroke-miterlimit="10" stroke-width="2.5"/>
      <g id="Grupo_1112948" data-name="Grupo 1112948" transform="translate(17.842 79.875)">
        <path id="Trazado_979063" data-name="Trazado 979063" d="M17.842,379h4.733" transform="translate(-17.842 -371.259)" fill="none" stroke="#fc7777" stroke-linecap="round" stroke-linejoin="round" stroke-miterlimit="10" stroke-width="2.5"/>
        <path id="Trazado_979064" data-name="Trazado 979064" d="M430.842,379h4.733" transform="translate(-386.418 -371.259)" fill="none" stroke="#fc7777" stroke-linecap="round" stroke-linejoin="round" stroke-miterlimit="10" stroke-width="2.5"/>
        <path id="Trazado_979065" data-name="Trazado 979065" d="M393.842,370.34v-2.375" transform="translate(-353.398 -361.407)" fill="none" stroke="#fc7777" stroke-linecap="round" stroke-linejoin="round" stroke-miterlimit="10" stroke-width="2.5"/>
        <path id="Trazado_979066" data-name="Trazado 979066" d="M356.842,357.147v-5.991" transform="translate(-320.378 -346.406)" fill="none" stroke="#fc7777" stroke-linecap="round" stroke-linejoin="round" stroke-miterlimit="10" stroke-width="2.5"/>
        <path id="Trazado_979067" data-name="Trazado 979067" d="M319.842,350.451v-7.827" transform="translate(-287.357 -338.792)" fill="none" stroke="#fc7777" stroke-linecap="round" stroke-linejoin="round" stroke-miterlimit="10" stroke-width="2.5"/>
        <path id="Trazado_979068" data-name="Trazado 979068" d="M282.842,361.872v-4.7" transform="translate(-254.337 -351.779)" fill="none" stroke="#fc7777" stroke-linecap="round" stroke-linejoin="round" stroke-miterlimit="10" stroke-width="2.5"/>
        <path id="Trazado_979069" data-name="Trazado 979069" d="M245.842,370.34v-2.375" transform="translate(-221.317 -361.407)" fill="none" stroke="#fc7777" stroke-linecap="round" stroke-linejoin="round" stroke-miterlimit="10" stroke-width="2.5"/>
        <path id="Trazado_979070" data-name="Trazado 979070" d="M208.842,342.576V332.59" transform="translate(-188.297 -329.837)" fill="none" stroke="#fc7777" stroke-linecap="round" stroke-linejoin="round" stroke-miterlimit="10" stroke-width="2.5"/>
        <path id="Trazado_979071" data-name="Trazado 979071" d="M171.842,322.491V307" transform="translate(-155.277 -307)" fill="none" stroke="#fc7777" stroke-linecap="round" stroke-linejoin="round" stroke-miterlimit="10" stroke-width="2.5"/>
        <path id="Trazado_979072" data-name="Trazado 979072" d="M134.842,342.576V332.59" transform="translate(-122.257 -329.837)" fill="none" stroke="#fc7777" stroke-linecap="round" stroke-linejoin="round" stroke-miterlimit="10" stroke-width="2.5"/>
        <path id="Trazado_979073" data-name="Trazado 979073" d="M97.842,370.34v-2.375" transform="translate(-89.237 -361.407)" fill="none" stroke="#fc7777" stroke-linecap="round" stroke-linejoin="round" stroke-miterlimit="10" stroke-width="2.5"/>
      </g>
    </g>
  </g>
</svg>
