<svg xmlns="http://www.w3.org/2000/svg" xmlns:xlink="http://www.w3.org/1999/xlink" width="118" height="118.001" viewBox="0 0 118 118.001">
  <defs>
    <filter id="Trazado_874925" x="0" y="0" width="118" height="118.001" filterUnits="userSpaceOnUse">
      <feOffset dy="3" input="SourceAlpha"/>
      <feGaussianBlur stdDeviation="3" result="blur"/>
      <feFlood flood-opacity="0.161"/>
      <feComposite operator="in" in2="blur"/>
      <feComposite in="SourceGraphic"/>
    </filter>
  </defs>
  <g id="Grupo_1115049" data-name="Grupo 1115049" transform="translate(-817.427 -2518.29)">
    <g transform="matrix(1, 0, 0, 1, 817.43, 2518.29)" filter="url(#Trazado_874925)">
      <g id="Trazado_874925-2" data-name="Trazado 874925" transform="translate(9 6)" fill="#68d5e9" opacity="0.859">
        <path d="M 50.00000381469727 98.50060272216797 C 43.45188903808594 98.50060272216797 37.10043334960938 97.21847534179688 31.1220760345459 94.68984222412109 C 25.34690475463867 92.24716186523438 20.15996170043945 88.74991607666016 15.70531845092773 84.2952880859375 C 11.25068950653076 79.84064483642578 7.753446578979492 74.65370178222656 5.310760974884033 68.87853240966797 C 2.782132387161255 62.90017318725586 1.500003814697266 56.5487174987793 1.500003814697266 50.00058746337891 C 1.500003814697266 43.45190048217773 2.782132387161255 37.10044479370117 5.310760974884033 31.1220874786377 C 7.753446578979492 25.34691619873047 11.25068950653076 20.15997314453125 15.70531845092773 15.70532989501953 C 20.15996170043945 11.25068664550781 25.34690475463867 7.753444194793701 31.1220760345459 5.310758590698242 C 37.10043334960938 2.782130002975464 43.45188903808594 1.500001311302185 50.00000381469727 1.500001311302185 C 56.54811859130859 1.500001311302185 62.89957427978516 2.782130002975464 68.8779296875 5.310758590698242 C 74.65310668945312 7.753444194793701 79.84004974365234 11.25068664550781 84.29469299316406 15.70532989501953 C 88.74932098388672 20.15997314453125 92.24655914306641 25.34691619873047 94.68924713134766 31.1220874786377 C 97.21787261962891 37.10044479370117 98.5 43.45190048217773 98.5 50.00001525878906 C 98.5 56.5487174987793 97.21787261962891 62.90017318725586 94.68924713134766 68.87853240966797 C 92.24655914306641 74.65370178222656 88.74932098388672 79.84064483642578 84.29469299316406 84.2952880859375 C 79.84004974365234 88.74991607666016 74.65310668945312 92.24716186523438 68.8779296875 94.68984222412109 C 62.89957427978516 97.21847534179688 56.54811859130859 98.50060272216797 50.00000381469727 98.50060272216797 Z" stroke="none"/>
        <path d="M 50.00000381469727 2.999992370605469 C 43.65372848510742 2.999992370605469 37.49886703491211 4.242256164550781 31.70640563964844 6.692253112792969 C 26.11003112792969 9.059318542480469 21.08334350585938 12.4486083984375 16.7659912109375 16.76597595214844 C 12.44861602783203 21.08335113525391 9.059326171875 26.11002349853516 6.692268371582031 31.70640563964844 C 4.242263793945312 37.49887084960938 3.000007629394531 43.65373229980469 3.000007629394531 50.00059509277344 C 3.000007629394531 56.34687042236328 4.242263793945312 62.50173187255859 6.692268371582031 68.294189453125 C 9.059326171875 73.89056396484375 12.44861602783203 78.91725158691406 16.7659912109375 83.23461151123047 C 21.08334350585938 87.55197906494141 26.11003112792969 90.94126892089844 31.70640563964844 93.30833435058594 C 37.49886703491211 95.75833129882812 43.65372848510742 97.00059509277344 50.00000381469727 97.00059509277344 C 56.34627914428711 97.00059509277344 62.50114059448242 95.75833129882812 68.29360198974609 93.30833435058594 C 73.88996887207031 90.94126892089844 78.91664886474609 87.55197906494141 83.23401641845703 83.23461151123047 C 87.5513916015625 78.91725158691406 90.94068145751953 73.89056396484375 93.3077392578125 68.294189453125 C 95.75774383544922 62.50173187255859 97 56.34687042236328 97 50.00000762939453 C 97 43.65373229980469 95.75774383544922 37.49887084960938 93.3077392578125 31.70640563964844 C 90.94068145751953 26.11002349853516 87.5513916015625 21.08335113525391 83.23401641845703 16.76597595214844 C 78.91664886474609 12.4486083984375 73.88996887207031 9.059318542480469 68.29360198974609 6.692253112792969 C 62.50114059448242 4.242256164550781 56.34627914428711 2.999992370605469 50.00000381469727 2.999992370605469 M 50.00000381469727 -7.62939453125e-06 C 77.61423492431641 -7.62939453125e-06 100 22.38576507568359 100 50.00000762939453 L 100 50.00059509277344 C 100 77.61483764648438 77.61423492431641 100.0005950927734 50.00000381469727 100.0005950927734 C 22.38575744628906 100.0005950927734 7.62939453125e-06 77.61483764648438 7.62939453125e-06 50.00059509277344 L 7.62939453125e-06 50.00000762939453 C 7.62939453125e-06 22.38576507568359 22.38575744628906 -7.62939453125e-06 50.00000381469727 -7.62939453125e-06 Z" stroke="none" fill="#fff"/>
      </g>
    </g>
    <g id="Grupo_1115082" data-name="Grupo 1115082" transform="translate(792.676 2531.363)">
      <g id="Grupo_1115080" data-name="Grupo 1115080" transform="translate(57.112 14.031)">
        <circle id="Elipse_11572" data-name="Elipse 11572" cx="3.33" cy="3.33" r="3.33" transform="translate(23.309 0)" fill="#91cc04"/>
        <path id="Trazado_980736" data-name="Trazado 980736" d="M224,152h8.879v41.067H224Z" transform="translate(-201.801 -137.571)" fill="#787680"/>
        <path id="Trazado_980737" data-name="Trazado 980737" d="M117.277,475.33H64L66.22,472h48.837Z" transform="translate(-64 -413.174)" fill="#787680"/>
        <path id="Trazado_980738" data-name="Trazado 980738" d="M176,448h22.2v3.33H176Z" transform="translate(-160.461 -392.503)" fill="#3e3d42"/>
      </g>
      <g id="Grupo_1115081" data-name="Grupo 1115081" transform="translate(56.003 8.559)">
        <path id="Trazado_980739" data-name="Trazado 980739" d="M111.313,102.655l-2.22-3.33a1.115,1.115,0,0,0-.924-.494H95.96v-2.22a1.11,1.11,0,0,0-1.11-1.11H89.3V55.544a1.11,1.11,0,0,0-1.11-1.11H84.86v-5.69a4.44,4.44,0,1,0-2.22,0v5.69h-3.33a1.11,1.11,0,0,0-1.11,1.11V95.5h-5.55a1.11,1.11,0,0,0-1.11,1.11v2.22H59.332a1.115,1.115,0,0,0-.924.494l-2.22,3.33a1.111,1.111,0,0,0,.924,1.726h53.277a1.111,1.111,0,0,0,.924-1.726ZM81.531,44.445a2.22,2.22,0,1,1,2.22,2.22A2.22,2.22,0,0,1,81.531,44.445Zm-1.11,12.209h6.66V95.5h-6.66Zm-6.66,41.067H93.74v1.11H73.761Zm-14.575,4.44.739-1.11h47.649l.739,1.11Z" transform="translate(-56.003 -35.643)"/>
        <path id="Trazado_980740" data-name="Trazado 980740" d="M192,53.172a3.34,3.34,0,0,0,1.665,2.884,1.11,1.11,0,1,0,1.11-1.922,1.111,1.111,0,0,1,0-1.923,1.11,1.11,0,1,0-1.11-1.922A3.339,3.339,0,0,0,192,53.172Z" transform="translate(-173.132 -44.37)"/>
        <path id="Trazado_980741" data-name="Trazado 980741" d="M168,35.266a6.684,6.684,0,0,0,3.329,5.768,1.11,1.11,0,1,0,1.112-1.921,4.442,4.442,0,0,1,0-7.693,1.11,1.11,0,1,0-1.112-1.921A6.684,6.684,0,0,0,168,35.266Z" transform="translate(-152.461 -26.464)"/>
        <path id="Trazado_980742" data-name="Trazado 980742" d="M149,26.013a1.11,1.11,0,1,0,1.11-1.922,7.773,7.773,0,0,1,0-13.462A1.11,1.11,0,1,0,149,8.708a9.993,9.993,0,0,0,0,17.306Z" transform="translate(-131.793 -8.559)"/>
        <path id="Trazado_980743" data-name="Trazado 980743" d="M295.554,54.134a1.11,1.11,0,1,0,1.11,1.922,3.331,3.331,0,0,0,0-5.768,1.11,1.11,0,1,0-1.11,1.922,1.111,1.111,0,0,1,0,1.923Z" transform="translate(-261.84 -44.37)"/>
        <path id="Trazado_980744" data-name="Trazado 980744" d="M307.553,31.42a4.442,4.442,0,0,1,0,7.693,1.11,1.11,0,1,0,1.112,1.921,6.662,6.662,0,0,0,0-11.536,1.11,1.11,0,1,0-1.112,1.921Z" transform="translate(-272.175 -26.464)"/>
        <path id="Trazado_980745" data-name="Trazado 980745" d="M319.554,10.63a7.773,7.773,0,0,1,0,13.462,1.11,1.11,0,1,0,1.11,1.922,9.993,9.993,0,0,0,0-17.306,1.11,1.11,0,1,0-1.11,1.922Z" transform="translate(-282.51 -8.559)"/>
      </g>
    </g>
  </g>
</svg>
