<svg xmlns="http://www.w3.org/2000/svg" xmlns:xlink="http://www.w3.org/1999/xlink" width="124.002" height="124.002" viewBox="0 0 124.002 124.002">
  <defs>
    <filter id="Trazado_896985" x="0" y="0" width="124.002" height="124.002" filterUnits="userSpaceOnUse">
      <feOffset dy="3" input="SourceAlpha"/>
      <feGaussianBlur stdDeviation="3" result="blur"/>
      <feFlood flood-opacity="0.161"/>
      <feComposite operator="in" in2="blur"/>
      <feComposite in="SourceGraphic"/>
    </filter>
  </defs>
  <g id="Grupo_1115567" data-name="Grupo 1115567" transform="translate(9 6)">
    <g id="Grupo_1098742" data-name="Grupo 1098742" transform="translate(0 0)">
      <g transform="matrix(1, 0, 0, 1, -9, -6)" filter="url(#Trazado_896985)">
        <g id="Trazado_896985-2" data-name="Trazado 896985" transform="translate(9 6)" fill="#68d5e9">
          <path d="M 53.00100708007812 104.5019454956055 C 46.04774856567383 104.5019454956055 39.30329132080078 103.1404800415039 32.95494842529297 100.4553604125977 C 26.82243537902832 97.86153411865234 21.31455039978027 94.14791870117188 16.58430671691895 89.41769409179688 C 11.85404968261719 84.68744659423828 8.140435218811035 79.17957305908203 5.546592712402344 73.04706573486328 C 2.861478567123413 66.69874572753906 1.500007033348083 59.95429229736328 1.500007033348083 53.00104904174805 C 1.500007033348083 46.04766082763672 2.861478567123413 39.30321884155273 5.546592712402344 32.95489120483398 C 8.140435218811035 26.8223762512207 11.85404968261719 21.31450462341309 16.58430671691895 16.58427619934082 C 21.31455039978027 11.85403347015381 26.82243537902832 8.140419006347656 32.95494842529297 5.546590805053711 C 39.30329132080078 2.86147665977478 46.04774856567383 1.500005125999451 53.00100708007812 1.500005125999451 C 59.95426559448242 1.500005125999451 66.69873809814453 2.86147665977478 73.04706573486328 5.546590805053711 C 79.17959594726562 8.140419006347656 84.68747711181641 11.85403347015381 89.417724609375 16.58427619934082 C 94.14797973632812 21.31450462341309 97.86159515380859 26.8223762512207 100.455436706543 32.95489120483398 C 103.1405487060547 39.30321884155273 104.5020217895508 46.04766082763672 104.5020217895508 53.00090408325195 C 104.5020217895508 59.95429229736328 103.1405487060547 66.69874572753906 100.455436706543 73.04706573486328 C 97.86159515380859 79.17957305908203 94.14797973632812 84.68744659423828 89.417724609375 89.41769409179688 C 84.68747711181641 94.14791870117188 79.17959594726562 97.86153411865234 73.04706573486328 100.4553604125977 C 66.69873809814453 103.1404800415039 59.95426559448242 104.5019454956055 53.00100708007812 104.5019454956055 Z" stroke="none"/>
          <path d="M 53.00100708007812 2.999992370605469 C 46.24959182739258 2.999992370605469 39.70172119140625 4.32159423828125 33.53927612304688 6.928077697753906 C 27.58554077148438 9.446296691894531 22.23792266845703 13.05195617675781 17.64494323730469 17.64492797851562 C 13.05197143554688 22.23789215087891 9.446304321289062 27.58551025390625 6.928092956542969 33.53923034667969 C 4.321586608886719 39.70164489746094 2.999992370605469 46.24951171875 2.999992370605469 53.00104141235352 C 2.999992370605469 59.75244140625 4.321586608886719 66.30030822753906 6.928092956542969 72.46272277832031 C 9.446304321289062 78.41644287109375 13.05197143554688 83.76406097412109 17.64494323730469 88.35702514648438 C 22.23792266845703 92.94997406005859 27.58554077148438 96.55564117431641 33.53927612304688 99.07386016845703 C 39.70172119140625 101.6803436279297 46.24959182739258 103.0019454956055 53.00100708007812 103.0019454956055 C 59.75242233276367 103.0019454956055 66.30029296875 101.6803436279297 72.46273803710938 99.07386016845703 C 78.41645812988281 96.55564117431641 83.76409149169922 92.94997406005859 88.3570556640625 88.35702514648438 C 92.95002746582031 83.76406097412109 96.55570983886719 78.41644287109375 99.07390594482422 72.46272277832031 C 101.6804046630859 66.30030822753906 103.0020065307617 59.75244140625 103.0020065307617 53.00091171264648 C 103.0020065307617 46.24951171875 101.6804046630859 39.70164489746094 99.07390594482422 33.53920745849609 C 96.55570983886719 27.58551025390625 92.95002746582031 22.23789215087891 88.3570556640625 17.64492797851562 C 83.76409149169922 13.05195617675781 78.41645812988281 9.446296691894531 72.46273803710938 6.928077697753906 C 66.30029296875 4.32159423828125 59.75242233276367 2.999992370605469 53.00100708007812 2.999992370605469 M 53.00100708007812 -7.62939453125e-06 C 82.27265930175781 -7.62939453125e-06 106.0020065307617 23.72930908203125 106.0020065307617 53.00091171264648 L 106.0020065307617 53.00104141235352 C 106.0020065307617 82.27264404296875 82.27265930175781 106.0019454956055 53.00100708007812 106.0019454956055 C 23.72935485839844 106.0019454956055 -7.62939453125e-06 82.27264404296875 -7.62939453125e-06 53.00104141235352 L -7.62939453125e-06 53.00091171264648 C -7.62939453125e-06 23.72930908203125 23.72935485839844 -7.62939453125e-06 53.00100708007812 -7.62939453125e-06 Z" stroke="none" fill="#fff"/>
        </g>
      </g>
      <g id="Rectángulo_400907" data-name="Rectángulo 400907" transform="translate(0)" fill="none" stroke="#fff" stroke-width="3">
        <rect width="106.002" height="106.002" rx="53.001" stroke="none"/>
        <rect x="1.5" y="1.5" width="103.002" height="103.002" rx="51.501" fill="none"/>
      </g>
    </g>
    <g id="Grupo_1115587" data-name="Grupo 1115587" transform="translate(34.926 21.631)">
      <path id="Trazado_983156" data-name="Trazado 983156" d="M343.352,41.176V83.7L336,87.374V37.5Z" transform="translate(-308.122 -32.905)" fill="#06f5dd"/>
      <path id="Trazado_983157" data-name="Trazado 983157" d="M146.635,37.5V87.374L116,83.7V41.176Z" transform="translate(-115.081 -32.905)" fill="#8cfff3"/>
      <g id="Grupo_1115579" data-name="Grupo 1115579" transform="translate(27.878 0.919)">
        <path id="Trazado_983158" data-name="Trazado 983158" d="M339.676,414.5,336,425.529h3.676a3.687,3.687,0,0,0,3.676-3.676V414.5Z" transform="translate(-336 -364.626)" fill="#bfbfbf"/>
        <path id="Trazado_983159" data-name="Trazado 983159" d="M339.676,7.5H336l3.676,7.352h3.676V11.176A3.687,3.687,0,0,0,339.676,7.5Z" transform="translate(-336 -7.5)" fill="#bfbfbf"/>
      </g>
      <g id="Grupo_1115580" data-name="Grupo 1115580" transform="translate(0.919 0.919)">
        <path id="Trazado_983160" data-name="Trazado 983160" d="M146.635,414.5v7.352a3.687,3.687,0,0,1-3.676,3.676H119.676A3.687,3.687,0,0,1,116,421.852V414.5Z" transform="translate(-116 -364.626)" fill="#dbdbdb"/>
        <path id="Trazado_983161" data-name="Trazado 983161" d="M146.635,11.176v3.676H116V11.176A3.687,3.687,0,0,1,119.676,7.5h23.283A3.687,3.687,0,0,1,146.635,11.176Z" transform="translate(-116 -7.5)" fill="#dbdbdb"/>
      </g>
      <ellipse id="Elipse_11617" data-name="Elipse 11617" cx="1.838" cy="1.838" rx="1.838" ry="1.838" transform="translate(16.237 54.469)" fill="#fff"/>
      <path id="Trazado_983162" data-name="Trazado 983162" d="M140.054,0H113.1a4.6,4.6,0,0,0-4.6,4.6v53.55a4.6,4.6,0,0,0,4.6,4.6h26.959a4.6,4.6,0,0,0,4.6-4.6V4.6A4.6,4.6,0,0,0,140.054,0ZM113.1,1.838h26.959A2.76,2.76,0,0,1,142.811,4.6V7.352H110.338V4.6A2.76,2.76,0,0,1,113.1,1.838ZM140.054,60.9H113.1a2.76,2.76,0,0,1-2.757-2.757V51.712H113.1a.919.919,0,1,0,0-1.838h-2.757V9.191h32.473V49.874h-26.04a.919.919,0,1,0,0,1.838h26.04v6.433A2.76,2.76,0,0,1,140.054,60.9Z" transform="translate(-108.5)"/>
      <path id="Trazado_983163" data-name="Trazado 983163" d="M249.419,31.838H253.1a.919.919,0,0,0,0-1.838h-3.676a.919.919,0,0,0,0,1.838Z" transform="translate(-231.344 -26.324)"/>
      <path id="Trazado_983164" data-name="Trazado 983164" d="M236.257,437a2.757,2.757,0,1,0,2.757,2.757A2.76,2.76,0,0,0,236.257,437Zm0,3.676a.919.919,0,1,1,.919-.919A.92.92,0,0,1,236.257,440.676Z" transform="translate(-218.182 -383.45)"/>
      <ellipse id="Elipse_11618" data-name="Elipse 11618" cx="1.282" cy="0.855" rx="1.282" ry="0.855" transform="translate(13.119 3.829)"/>
    </g>
  </g>
</svg>
