<svg xmlns="http://www.w3.org/2000/svg" xmlns:xlink="http://www.w3.org/1999/xlink" width="118" height="118.001" viewBox="0 0 118 118.001">
  <defs>
    <filter id="Trazado_874925" x="0" y="0" width="118" height="118.001" filterUnits="userSpaceOnUse">
      <feOffset dy="3" input="SourceAlpha"/>
      <feGaussianBlur stdDeviation="3" result="blur"/>
      <feFlood flood-opacity="0.161"/>
      <feComposite operator="in" in2="blur"/>
      <feComposite in="SourceGraphic"/>
    </filter>
  </defs>
  <g id="Grupo_1115050" data-name="Grupo 1115050" transform="translate(-817.427 -2518.29)">
    <g transform="matrix(1, 0, 0, 1, 817.43, 2518.29)" filter="url(#Trazado_874925)">
      <g id="Trazado_874925-2" data-name="Trazado 874925" transform="translate(9 6)" fill="#68d5e9" opacity="0.859">
        <path d="M 50.00000381469727 98.50060272216797 C 43.45188903808594 98.50060272216797 37.10043334960938 97.21847534179688 31.1220760345459 94.68984222412109 C 25.34690475463867 92.24716186523438 20.15996170043945 88.74991607666016 15.70531845092773 84.2952880859375 C 11.25068950653076 79.84064483642578 7.753446578979492 74.65370178222656 5.310760974884033 68.87853240966797 C 2.782132387161255 62.90017318725586 1.500003814697266 56.5487174987793 1.500003814697266 50.00058746337891 C 1.500003814697266 43.45190048217773 2.782132387161255 37.10044479370117 5.310760974884033 31.1220874786377 C 7.753446578979492 25.34691619873047 11.25068950653076 20.15997314453125 15.70531845092773 15.70532989501953 C 20.15996170043945 11.25068664550781 25.34690475463867 7.753444194793701 31.1220760345459 5.310758590698242 C 37.10043334960938 2.782130002975464 43.45188903808594 1.500001311302185 50.00000381469727 1.500001311302185 C 56.54811859130859 1.500001311302185 62.89957427978516 2.782130002975464 68.8779296875 5.310758590698242 C 74.65310668945312 7.753444194793701 79.84004974365234 11.25068664550781 84.29469299316406 15.70532989501953 C 88.74932098388672 20.15997314453125 92.24655914306641 25.34691619873047 94.68924713134766 31.1220874786377 C 97.21787261962891 37.10044479370117 98.5 43.45190048217773 98.5 50.00001525878906 C 98.5 56.5487174987793 97.21787261962891 62.90017318725586 94.68924713134766 68.87853240966797 C 92.24655914306641 74.65370178222656 88.74932098388672 79.84064483642578 84.29469299316406 84.2952880859375 C 79.84004974365234 88.74991607666016 74.65310668945312 92.24716186523438 68.8779296875 94.68984222412109 C 62.89957427978516 97.21847534179688 56.54811859130859 98.50060272216797 50.00000381469727 98.50060272216797 Z" stroke="none"/>
        <path d="M 50.00000381469727 2.999992370605469 C 43.65372848510742 2.999992370605469 37.49886703491211 4.242256164550781 31.70640563964844 6.692253112792969 C 26.11003112792969 9.059318542480469 21.08334350585938 12.4486083984375 16.7659912109375 16.76597595214844 C 12.44861602783203 21.08335113525391 9.059326171875 26.11002349853516 6.692268371582031 31.70640563964844 C 4.242263793945312 37.49887084960938 3.000007629394531 43.65373229980469 3.000007629394531 50.00059509277344 C 3.000007629394531 56.34687042236328 4.242263793945312 62.50173187255859 6.692268371582031 68.294189453125 C 9.059326171875 73.89056396484375 12.44861602783203 78.91725158691406 16.7659912109375 83.23461151123047 C 21.08334350585938 87.55197906494141 26.11003112792969 90.94126892089844 31.70640563964844 93.30833435058594 C 37.49886703491211 95.75833129882812 43.65372848510742 97.00059509277344 50.00000381469727 97.00059509277344 C 56.34627914428711 97.00059509277344 62.50114059448242 95.75833129882812 68.29360198974609 93.30833435058594 C 73.88996887207031 90.94126892089844 78.91664886474609 87.55197906494141 83.23401641845703 83.23461151123047 C 87.5513916015625 78.91725158691406 90.94068145751953 73.89056396484375 93.3077392578125 68.294189453125 C 95.75774383544922 62.50173187255859 97 56.34687042236328 97 50.00000762939453 C 97 43.65373229980469 95.75774383544922 37.49887084960938 93.3077392578125 31.70640563964844 C 90.94068145751953 26.11002349853516 87.5513916015625 21.08335113525391 83.23401641845703 16.76597595214844 C 78.91664886474609 12.4486083984375 73.88996887207031 9.059318542480469 68.29360198974609 6.692253112792969 C 62.50114059448242 4.242256164550781 56.34627914428711 2.999992370605469 50.00000381469727 2.999992370605469 M 50.00000381469727 -7.62939453125e-06 C 77.61423492431641 -7.62939453125e-06 100 22.38576507568359 100 50.00000762939453 L 100 50.00059509277344 C 100 77.61483764648438 77.61423492431641 100.0005950927734 50.00000381469727 100.0005950927734 C 22.38575744628906 100.0005950927734 7.62939453125e-06 77.61483764648438 7.62939453125e-06 50.00059509277344 L 7.62939453125e-06 50.00000762939453 C 7.62939453125e-06 22.38576507568359 22.38575744628906 -7.62939453125e-06 50.00000381469727 -7.62939453125e-06 Z" stroke="none" fill="#fff"/>
      </g>
    </g>
    <g id="Grupo_1115085" data-name="Grupo 1115085" transform="translate(794.741 2534.411)">
      <g id="Grupo_1115083" data-name="Grupo 1115083" transform="translate(57.023 12.182)">
        <path id="Trazado_980746" data-name="Trazado 980746" d="M129.763,40.406,161.737,72.38a22.609,22.609,0,1,1-31.974-31.974Z" transform="translate(-115.544 -40.406)" fill="#d8d7da"/>
        <path id="Trazado_980747" data-name="Trazado 980747" d="M291.484,112.281l-4.952,6.368-4.36-4.36,6.368-4.952" transform="translate(-254.145 -100.481)" fill="#3e3d42"/>
        <circle id="Elipse_11573" data-name="Elipse 11573" cx="3.083" cy="3.083" r="3.083" transform="translate(34.39 5.637)" fill="#ffda44"/>
        <path id="Trazado_980748" data-name="Trazado 980748" d="M160.221,299.016l2.055,18.565H152L154.055,296" transform="translate(-140.695 -263.166)" fill="#3e3d42"/>
        <path id="Trazado_980749" data-name="Trazado 980749" d="M96.886,468.111H64L66.055,464H94.831Z" transform="translate(-64 -409.585)" fill="#d8d7da"/>
        <path id="Trazado_980750" data-name="Trazado 980750" d="M100.851,266.837l-7.572,7.7-5.813-5.813,7.572-7.7Z" transform="translate(-84.452 -232.683)" fill="#acabb1"/>
      </g>
      <g id="Grupo_1115084" data-name="Grupo 1115084" transform="translate(55.994 8.022)">
        <path id="Trazado_980751" data-name="Trazado 980751" d="M103.943,66.139a1.03,1.03,0,0,0,0-1.454L90.777,51.518l4.1-5.268A4.111,4.111,0,1,0,90.4,41.779l-5.268,4.1L71.969,32.711a1.03,1.03,0,0,0-1.454,0A23.681,23.681,0,0,0,66.734,61.2L59.3,68.758a1.026,1.026,0,0,0,.006,1.446l5.813,5.814a1.029,1.029,0,0,0,.727.3h0a1.026,1.026,0,0,0,.728-.307l2.4-2.436L67.414,86.825H59.078a1.029,1.029,0,0,0-.92.568L56.1,91.5a1.028,1.028,0,0,0,.92,1.488H89.909a1.028,1.028,0,0,0,.92-1.488l-2.055-4.111a1.029,1.029,0,0,0-.92-.568H79.524L77.782,71.092a23.7,23.7,0,0,0,26.161-4.953ZM93.043,40.7a2.053,2.053,0,1,1-.6,1.453A2.053,2.053,0,0,1,93.043,40.7Zm-2.2,3.336a4.115,4.115,0,0,0,1.771,1.771l-3.3,4.242L86.6,47.341Zm-25,29.791-4.36-4.36,6.131-6.234,2.9,2.9s0,0,0,0,0,0,0,0L71.976,67.6ZM73.68,68.8q.933.653,1.914,1.2l1.863,16.825H69.491l1.84-15.64ZM87.219,88.88l1.028,2.055H58.685l1.028-2.055Zm-15.25-24.2a21.609,21.609,0,0,1-.71-29.777L88.683,52.332h0l13.062,13.063A21.609,21.609,0,0,1,71.969,64.684Z" transform="translate(-55.994 -29.277)"/>
        <path id="Trazado_980752" data-name="Trazado 980752" d="M375.13,60.611a1.028,1.028,0,0,0,1.259-.727,3.084,3.084,0,0,0-3.777-3.777,1.028,1.028,0,1,0,.532,1.985,1.028,1.028,0,0,1,1.259,1.259A1.028,1.028,0,0,0,375.13,60.611Z" transform="translate(-331.275 -49.839)"/>
        <path id="Trazado_980753" data-name="Trazado 980753" d="M366.4,32.2a1.028,1.028,0,0,0,.53,1.986,4.113,4.113,0,0,1,5.037,5.037,1.028,1.028,0,1,0,1.986.53A6.168,6.168,0,0,0,366.4,32.2Z" transform="translate(-325.857 -28.914)"/>
        <path id="Trazado_980754" data-name="Trazado 980754" d="M368.959,10.729a9.282,9.282,0,0,0-8.935-2.4,1.028,1.028,0,1,0,.531,1.985,7.2,7.2,0,0,1,8.814,8.814,1.028,1.028,0,1,0,1.986.531A9.282,9.282,0,0,0,368.959,10.729Z" transform="translate(-320.284 -8.022)"/>
      </g>
    </g>
  </g>
</svg>
