<svg xmlns="http://www.w3.org/2000/svg" xmlns:xlink="http://www.w3.org/1999/xlink" width="124.002" height="124.002" viewBox="0 0 124.002 124.002">
  <defs>
    <filter id="Trazado_896985" x="0" y="0" width="124.002" height="124.002" filterUnits="userSpaceOnUse">
      <feOffset dy="3" input="SourceAlpha"/>
      <feGaussianBlur stdDeviation="3" result="blur"/>
      <feFlood flood-opacity="0.161"/>
      <feComposite operator="in" in2="blur"/>
      <feComposite in="SourceGraphic"/>
    </filter>
  </defs>
  <g id="Grupo_1115568" data-name="Grupo 1115568" transform="translate(9 6)">
    <g id="Grupo_1098742" data-name="Grupo 1098742" transform="translate(0 0)">
      <g transform="matrix(1, 0, 0, 1, -9, -6)" filter="url(#Trazado_896985)">
        <g id="Trazado_896985-2" data-name="Trazado 896985" transform="translate(9 6)" fill="#68d5e9">
          <path d="M 53.00100708007812 104.5019454956055 C 46.04774856567383 104.5019454956055 39.30329132080078 103.1404800415039 32.95494842529297 100.4553604125977 C 26.82243537902832 97.86153411865234 21.31455039978027 94.14791870117188 16.58430671691895 89.41769409179688 C 11.85404968261719 84.68744659423828 8.140435218811035 79.17957305908203 5.546592712402344 73.04706573486328 C 2.861478567123413 66.69874572753906 1.500007033348083 59.95429229736328 1.500007033348083 53.00104904174805 C 1.500007033348083 46.04766082763672 2.861478567123413 39.30321884155273 5.546592712402344 32.95489120483398 C 8.140435218811035 26.8223762512207 11.85404968261719 21.31450462341309 16.58430671691895 16.58427619934082 C 21.31455039978027 11.85403347015381 26.82243537902832 8.140419006347656 32.95494842529297 5.546590805053711 C 39.30329132080078 2.86147665977478 46.04774856567383 1.500005125999451 53.00100708007812 1.500005125999451 C 59.95426559448242 1.500005125999451 66.69873809814453 2.86147665977478 73.04706573486328 5.546590805053711 C 79.17959594726562 8.140419006347656 84.68747711181641 11.85403347015381 89.417724609375 16.58427619934082 C 94.14797973632812 21.31450462341309 97.86159515380859 26.8223762512207 100.455436706543 32.95489120483398 C 103.1405487060547 39.30321884155273 104.5020217895508 46.04766082763672 104.5020217895508 53.00090408325195 C 104.5020217895508 59.95429229736328 103.1405487060547 66.69874572753906 100.455436706543 73.04706573486328 C 97.86159515380859 79.17957305908203 94.14797973632812 84.68744659423828 89.417724609375 89.41769409179688 C 84.68747711181641 94.14791870117188 79.17959594726562 97.86153411865234 73.04706573486328 100.4553604125977 C 66.69873809814453 103.1404800415039 59.95426559448242 104.5019454956055 53.00100708007812 104.5019454956055 Z" stroke="none"/>
          <path d="M 53.00100708007812 2.999992370605469 C 46.24959182739258 2.999992370605469 39.70172119140625 4.32159423828125 33.53927612304688 6.928077697753906 C 27.58554077148438 9.446296691894531 22.23792266845703 13.05195617675781 17.64494323730469 17.64492797851562 C 13.05197143554688 22.23789215087891 9.446304321289062 27.58551025390625 6.928092956542969 33.53923034667969 C 4.321586608886719 39.70164489746094 2.999992370605469 46.24951171875 2.999992370605469 53.00104141235352 C 2.999992370605469 59.75244140625 4.321586608886719 66.30030822753906 6.928092956542969 72.46272277832031 C 9.446304321289062 78.41644287109375 13.05197143554688 83.76406097412109 17.64494323730469 88.35702514648438 C 22.23792266845703 92.94997406005859 27.58554077148438 96.55564117431641 33.53927612304688 99.07386016845703 C 39.70172119140625 101.6803436279297 46.24959182739258 103.0019454956055 53.00100708007812 103.0019454956055 C 59.75242233276367 103.0019454956055 66.30029296875 101.6803436279297 72.46273803710938 99.07386016845703 C 78.41645812988281 96.55564117431641 83.76409149169922 92.94997406005859 88.3570556640625 88.35702514648438 C 92.95002746582031 83.76406097412109 96.55570983886719 78.41644287109375 99.07390594482422 72.46272277832031 C 101.6804046630859 66.30030822753906 103.0020065307617 59.75244140625 103.0020065307617 53.00091171264648 C 103.0020065307617 46.24951171875 101.6804046630859 39.70164489746094 99.07390594482422 33.53920745849609 C 96.55570983886719 27.58551025390625 92.95002746582031 22.23789215087891 88.3570556640625 17.64492797851562 C 83.76409149169922 13.05195617675781 78.41645812988281 9.446296691894531 72.46273803710938 6.928077697753906 C 66.30029296875 4.32159423828125 59.75242233276367 2.999992370605469 53.00100708007812 2.999992370605469 M 53.00100708007812 -7.62939453125e-06 C 82.27265930175781 -7.62939453125e-06 106.0020065307617 23.72930908203125 106.0020065307617 53.00091171264648 L 106.0020065307617 53.00104141235352 C 106.0020065307617 82.27264404296875 82.27265930175781 106.0019454956055 53.00100708007812 106.0019454956055 C 23.72935485839844 106.0019454956055 -7.62939453125e-06 82.27264404296875 -7.62939453125e-06 53.00104141235352 L -7.62939453125e-06 53.00091171264648 C -7.62939453125e-06 23.72930908203125 23.72935485839844 -7.62939453125e-06 53.00100708007812 -7.62939453125e-06 Z" stroke="none" fill="#fff"/>
        </g>
      </g>
      <g id="Rectángulo_400907" data-name="Rectángulo 400907" transform="translate(0)" fill="none" stroke="#fff" stroke-width="3">
        <rect width="106.002" height="106.002" rx="53.001" stroke="none"/>
        <rect x="1.5" y="1.5" width="103.002" height="103.002" rx="51.501" fill="none"/>
      </g>
    </g>
    <g id="Grupo_1115588" data-name="Grupo 1115588" transform="translate(23.287 23.287)">
      <g id="Grupo_1115582" data-name="Grupo 1115582" transform="translate(0.871 11.195)">
        <path id="Trazado_983165" data-name="Trazado 983165" d="M46.545,470.293H40.414l-.414.492v2.085a1.4,1.4,0,0,0,1.393,1.393h4.179a1.4,1.4,0,0,0,1.393-1.393v-2.085Z" transform="translate(-36.228 -426.901)" fill="#7b6c79"/>
        <path id="Trazado_983166" data-name="Trazado 983166" d="M418.647,470.918h-6.3l-.349.42v2.085a1.4,1.4,0,0,0,1.393,1.393h4.179a1.4,1.4,0,0,0,1.393-1.393v-2.085Z" transform="translate(-365.05 -427.453)" fill="#7b6c79"/>
        <path id="Trazado_983167" data-name="Trazado 983167" d="M43.482,472.871v-2.085l.414-.492H40.414l-.414.492v2.085a1.4,1.4,0,0,0,1.393,1.393h3.482A1.4,1.4,0,0,1,43.482,472.871Z" transform="translate(-36.228 -426.901)" fill="#665e68"/>
        <path id="Trazado_983168" data-name="Trazado 983168" d="M415.482,473.423v-2.085l.349-.42h-3.482l-.349.42v2.085a1.4,1.4,0,0,0,1.393,1.393h3.482A1.4,1.4,0,0,1,415.482,473.423Z" transform="translate(-365.05 -427.453)" fill="#665e68"/>
        <path id="Trazado_983169" data-name="Trazado 983169" d="M231.4,100.168a3.719,3.719,0,0,0-7.438,0s0,0,0,0l.4.315h6.877l.156-.315h0S231.4,100.17,231.4,100.168Z" transform="translate(-198.834 -96.449)" fill="#7b6c79"/>
        <path id="Trazado_983170" data-name="Trazado 983170" d="M227.324,100.168a3.718,3.718,0,0,1,2.036-3.316,3.719,3.719,0,0,0-5.4,3.316s0,0,0,0l.4.315h3.366l-.4-.315S227.324,100.17,227.324,100.168Z" transform="translate(-198.834 -96.449)" fill="#665e68"/>
        <path id="Trazado_983171" data-name="Trazado 983171" d="M88.109,128.533H39.783l-1.5.944-.785,1.509V166.62l1.569,1.567,1.182.507H88.109a3.606,3.606,0,0,0,3.6-3.6V132.129A3.607,3.607,0,0,0,88.109,128.533Z" transform="translate(-34.018 -124.809)" fill="#938493"/>
        <path id="Trazado_983172" data-name="Trazado 983172" d="M11.219,165.1V132.13a3.606,3.606,0,0,1,3.6-3.6H11.1a3.607,3.607,0,0,0-3.6,3.6V165.1a3.607,3.607,0,0,0,3.6,3.6h3.719A3.607,3.607,0,0,1,11.219,165.1Z" transform="translate(-7.5 -124.81)" fill="#7b6c79"/>
        <path id="Trazado_983173" data-name="Trazado 983173" d="M235.285,158.533h8.677v33.2h-8.677Z" transform="translate(-208.846 -151.327)" fill="#60b9fe"/>
        <path id="Trazado_983174" data-name="Trazado 983174" d="M100.906,158.533h8.677v33.2h-8.677Z" transform="translate(-90.064 -151.327)" fill="#fbc700"/>
        <path id="Trazado_983175" data-name="Trazado 983175" d="M38.77,158.533a1.274,1.274,0,0,0-1.27,1.27v30.656a1.274,1.274,0,0,0,1.27,1.27H45.3v-33.2Z" transform="translate(-34.018 -151.327)" fill="#ff636e"/>
        <path id="Trazado_983176" data-name="Trazado 983176" d="M41.219,190.459V159.8a1.274,1.274,0,0,1,1.27-1.27H38.77a1.274,1.274,0,0,0-1.27,1.27v30.656a1.274,1.274,0,0,0,1.27,1.27h3.719A1.274,1.274,0,0,1,41.219,190.459Z" transform="translate(-34.018 -151.327)" fill="#ff4654"/>
        <path id="Trazado_983177" data-name="Trazado 983177" d="M312.786,158.533h-6.529v33.2h6.529a1.274,1.274,0,0,0,1.27-1.27V159.8A1.274,1.274,0,0,0,312.786,158.533Z" transform="translate(-271.58 -151.327)" fill="#92df93"/>
        <path id="Trazado_983178" data-name="Trazado 983178" d="M171.878,158.533h7.8v33.2h-7.8Z" transform="translate(-152.799 -151.327)" fill="#ffe559"/>
        <path id="Trazado_983179" data-name="Trazado 983179" d="M437.2,269.449h-.554l-1.262,1.476v2.757l.987,1.088.829.221a3.1,3.1,0,0,0,0-5.542Z" transform="translate(-385.724 -249.369)" fill="#dbedff"/>
        <path id="Trazado_983180" data-name="Trazado 983180" d="M415.022,269.679a3.1,3.1,0,0,1,1.705-2.771,3.1,3.1,0,1,0,0,5.542A3.1,3.1,0,0,1,415.022,269.679Z" transform="translate(-365.246 -246.828)" fill="#b5dcff"/>
        <path id="Trazado_983181" data-name="Trazado 983181" d="M437.2,350.112h-.554l-1.262,1.476v2.757l.987,1.088.829.221a3.1,3.1,0,0,0,0-5.542Z" transform="translate(-385.724 -320.669)" fill="#dbedff"/>
        <path id="Trazado_983182" data-name="Trazado 983182" d="M415.022,350.343a3.1,3.1,0,0,1,1.705-2.771,3.1,3.1,0,1,0,0,5.542A3.1,3.1,0,0,1,415.022,350.343Z" transform="translate(-365.246 -318.129)" fill="#b5dcff"/>
      </g>
      <g id="Grupo_1115583" data-name="Grupo 1115583" transform="translate(0 0)">
        <path id="Trazado_983183" data-name="Trazado 983183" d="M408.7,267.025a3.975,3.975,0,1,0-3.975-3.975A3.98,3.98,0,0,0,408.7,267.025Zm0-6.21a2.234,2.234,0,1,1-2.234,2.234A2.237,2.237,0,0,1,408.7,260.815Z" transform="translate(-357.747 -229.003)"/>
        <path id="Trazado_983184" data-name="Trazado 983184" d="M408.7,347.688a3.975,3.975,0,1,0-3.975-3.975A3.98,3.98,0,0,0,408.7,347.688Zm0-6.21a2.234,2.234,0,1,1-2.234,2.234A2.237,2.237,0,0,1,408.7,341.478Z" transform="translate(-357.747 -300.304)"/>
        <path id="Trazado_983185" data-name="Trazado 983185" d="M422.747,421.886a.871.871,0,0,0,0,1.741h2.228a.871.871,0,0,0,0-1.741Z" transform="translate(-372.909 -372.918)"/>
        <path id="Trazado_983186" data-name="Trazado 983186" d="M407.749,169.106h5.709a.871.871,0,1,0,0-1.741h-5.709a.871.871,0,1,0,0,1.741Z" transform="translate(-359.652 -147.939)"/>
        <path id="Trazado_983187" data-name="Trazado 983187" d="M407.749,198.48h5.709a.871.871,0,1,0,0-1.741h-5.709a.871.871,0,1,0,0,1.741Z" transform="translate(-359.652 -173.903)"/>
        <path id="Trazado_983188" data-name="Trazado 983188" d="M407.736,227.853h5.709a.871.871,0,0,0,0-1.741h-5.709a.871.871,0,0,0,0,1.741Z" transform="translate(-359.64 -199.866)"/>
        <path id="Trazado_983189" data-name="Trazado 983189" d="M54.961,14.048H34.22a4.6,4.6,0,0,0-2.488-3.255L39.5,1.426A.871.871,0,1,0,38.163.314L29.856,10.327c-.047,0-.094,0-.142,0s-.095,0-.142,0L21.265.314a.871.871,0,1,0-1.34,1.112L27.7,10.793a4.6,4.6,0,0,0-2.488,3.255H4.466A4.471,4.471,0,0,0,0,18.514V51.483a4.473,4.473,0,0,0,3.772,4.412v1.269a2.266,2.266,0,0,0,2.263,2.263h4.179a2.266,2.266,0,0,0,2.263-2.263V55.949H25.443a.871.871,0,1,0,0-1.741H4.466a2.728,2.728,0,0,1-2.725-2.725V18.514a2.728,2.728,0,0,1,2.725-2.725H54.961a2.728,2.728,0,0,1,2.725,2.725V51.483a2.728,2.728,0,0,1-2.725,2.725H29.506a.871.871,0,0,0,0,1.741H46.95v1.215a2.266,2.266,0,0,0,2.263,2.263h4.179a2.266,2.266,0,0,0,2.263-2.263V55.895a4.473,4.473,0,0,0,3.772-4.412V18.514a4.472,4.472,0,0,0-4.466-4.466ZM5.513,55.949h5.223v1.215a.529.529,0,0,1-.522.522H6.036a.529.529,0,0,1-.522-.522ZM27,14.048a2.849,2.849,0,0,1,5.428,0ZM53.914,57.164a.529.529,0,0,1-.522.522H49.214a.529.529,0,0,1-.522-.522V55.949h5.223Z" transform="translate(0 0.001)"/>
        <path id="Trazado_983190" data-name="Trazado 983190" d="M69.864,168.456a.87.87,0,0,0,.871-.871V153.174a2.143,2.143,0,0,0-2.14-2.14H32.14a2.143,2.143,0,0,0-2.14,2.14V183.83a2.143,2.143,0,0,0,2.14,2.14H68.594a2.143,2.143,0,0,0,2.14-2.14V171.648a.871.871,0,1,0-1.741,0V183.83a.4.4,0,0,1-.4.4H62.935V152.775h5.658a.4.4,0,0,1,.4.4v14.411A.871.871,0,0,0,69.864,168.456ZM37.8,184.23H32.14a.4.4,0,0,1-.4-.4V153.174a.4.4,0,0,1,.4-.4H37.8Zm7.8,0H39.54V152.775H45.6Zm7.8,0H47.338V152.775H53.4Zm7.8,0H55.137V152.775h6.058Z" transform="translate(-26.518 -133.503)"/>
      </g>
    </g>
  </g>
</svg>
