<svg xmlns="http://www.w3.org/2000/svg" width="295" height="67" viewBox="0 0 295 67">
  <g id="Grupo_1115185" data-name="Grupo 1115185" transform="translate(-1125.051 -2156)">
    <rect id="Rectángulo_407164" data-name="Rectángulo 407164" width="295" height="67" transform="translate(1125.051 2156)" fill="#fcf3cc"/>
    <g id="Grupo_1115178" data-name="Grupo 1115178" transform="translate(1147.522 2164.687)">
      <path id="Trazado_981956" data-name="Trazado 981956" d="M163.392,75.377a2,2,0,0,0,1.4,1.677,1.907,1.907,0,0,0,1.959-.582,10.139,10.139,0,1,0-15.217.012l.013.014a1.907,1.907,0,0,0,1.4.646,1.884,1.884,0,0,0,1.252-.5,2.018,2.018,0,0,0,.248-2.856,6.146,6.146,0,0,1-1.469-4.4,6.231,6.231,0,0,1,4.655-5.593.707.707,0,0,0-.346-1.371,7.668,7.668,0,0,0-3.957,2.487,7.568,7.568,0,0,0,.038,9.794.627.627,0,0,1-.106.882.431.431,0,0,1-.671-.045,8.726,8.726,0,1,1,13.1,0,.494.494,0,0,1-.517.154.644.644,0,0,1-.263-.988,7.584,7.584,0,0,0-3.972-12.294.707.707,0,0,0-.335,1.374,6.171,6.171,0,0,1,3.232,10,1.925,1.925,0,0,0-.44,1.592Z" transform="translate(-134.95 -53.737)" fill="#fc7777"/>
      <path id="Trazado_981957" data-name="Trazado 981957" d="M116.351,4.766A15.727,15.727,0,0,0,91.6,23.6a15.856,15.856,0,0,0,5.351,5.711,1.875,1.875,0,0,0,1.03.32,1.763,1.763,0,0,0,.808-.2,2.2,2.2,0,0,0,1.148-1.818,1.819,1.819,0,0,0-.871-1.655,11.768,11.768,0,1,1,12.665,0,1.825,1.825,0,0,0-.876,1.663,2.2,2.2,0,0,0,1.153,1.813,1.794,1.794,0,0,0,1.84-.126,15.715,15.715,0,0,0,2.5-24.543Zm-3.27,23.355-.009.006a.383.383,0,0,1-.424.049.776.776,0,0,1-.382-.618.421.421,0,0,1,.222-.405,13.182,13.182,0,1,0-14.181,0,.416.416,0,0,1,.216.4.779.779,0,0,1-.381.621.382.382,0,0,1-.425-.051,14.446,14.446,0,0,1-4.879-5.2,14.319,14.319,0,1,1,20.244,5.2Z" transform="translate(-81.211 0)" fill="#fc7777"/>
      <path id="Trazado_981958" data-name="Trazado 981958" d="M144.93,156.658h-.668l-5.293-14.566v0l0-.008a14.383,14.383,0,0,1-.641-2.382l-1.365-7.637a3.99,3.99,0,1,0-4.772,0l-1.365,7.638a14.383,14.383,0,0,1-.641,2.383l0,.008v0l-5.293,14.566h-.668a2.34,2.34,0,1,0,0,4.68H144.93a2.34,2.34,0,1,0,0-4.68Zm-15.782-7.588,4.091,2.555-6.493,4.055Zm6.491-16.359.873,4.886h-3.876l.873-4.886a3.971,3.971,0,0,0,2.13,0Zm1.126,6.3.168.939a15.816,15.816,0,0,0,.515,2.062l-2.873,1.715L131.7,142.01a15.824,15.824,0,0,0,.515-2.062l.168-.939h4.382Zm2.259,7.372-3.07-1.833,1.976-1.18Zm3.378,9.3-6.493-4.054L140,149.07Zm-1.1.979H127.849l6.726-4.2Zm-6.726-5.867-4.436-2.77,4.436-2.648,4.436,2.648Zm-3.355-7.421,1.976,1.18-3.07,1.833Zm3.355-17.081A2.576,2.576,0,1,1,132,128.865,2.579,2.579,0,0,1,134.575,126.289Zm10.356,33.635H124.219a.926.926,0,1,1,0-1.852H144.93a.926.926,0,1,1,0,1.852Z" transform="translate(-110.39 -112.82)" fill="#fc7777"/>
      <path id="Trazado_981959" data-name="Trazado 981959" d="M462.268,75.41a.707.707,0,0,0,.7.615.722.722,0,0,0,.093-.006.707.707,0,0,0,.609-.793,13.3,13.3,0,0,0-3.813-7.734.707.707,0,0,0-1,1A11.9,11.9,0,0,1,462.268,75.41Z" transform="translate(-415.416 -60.657)" fill="#fc7777"/>
      <path id="Trazado_981960" data-name="Trazado 981960" d="M463.062,180.174a.707.707,0,0,0-.792.611,11.892,11.892,0,0,1-3.414,6.944.707.707,0,0,0,1,1,13.294,13.294,0,0,0,3.816-7.763A.707.707,0,0,0,463.062,180.174Z" transform="translate(-415.415 -162.901)" fill="#fc7777"/>
      <path id="Trazado_981961" data-name="Trazado 981961" d="M437.008,90.339a.707.707,0,0,0-1,1,8.971,8.971,0,0,1,0,12.687.707.707,0,0,0,1,1,10.385,10.385,0,0,0,0-14.687Z" transform="translate(-394.721 -81.352)" fill="#fc7777"/>
      <path id="Trazado_981962" data-name="Trazado 981962" d="M1.414,76.988a11.935,11.935,0,0,1,3.514-8.5.707.707,0,1,0-1-1,13.445,13.445,0,0,0,0,18.994.707.707,0,1,0,1-1,11.936,11.936,0,0,1-3.514-8.5Z" transform="translate(0 -60.657)" fill="#fc7777"/>
      <path id="Trazado_981963" data-name="Trazado 981963" d="M36.29,90.339a.707.707,0,0,0-1,0,10.385,10.385,0,0,0,0,14.687.707.707,0,0,0,1-1,8.971,8.971,0,0,1,0-12.687A.707.707,0,0,0,36.29,90.339Z" transform="translate(-29.209 -81.352)" fill="#fc7777"/>
    </g>
    <g id="Grupo_1115184" data-name="Grupo 1115184" transform="translate(-47.906 1)">
      <g id="Grupo_1115179" data-name="Grupo 1115179" transform="translate(1253.865 2173)">
        <path id="Trazado_981965" data-name="Trazado 981965" d="M38.039,59.151H29.613C29.109,51.724,28.9,44,25.692,44c-1.86,0-2.546,2.821-2.935,5.278-.431,2.717-.649,6.325-.849,9.872H16.776c-.113-2-.233-4.039-.391-5.893a.645.645,0,0,0-1.285.11c.155,1.814.273,3.816.384,5.783H10.363c.224-3.315.445-7.515.964-10.323.589-3.193,1.36-3.538,1.665-3.538.259,0,1.153.361,1.781,5.008a.645.645,0,1,0,1.278-.173C15.641,47.1,14.957,44,12.991,44c-1.869,0-2.569,2.622-2.933,4.594a105.4,105.4,0,0,0-.988,10.557H.645a.645.645,0,0,0,0,1.289H8.98a59.419,59.419,0,0,1-.675,6.043c-.589,3.193-1.36,3.538-1.665,3.538-.594,0-1.029-1.094-1.236-1.747a27.1,27.1,0,0,1-.889-5.27.645.645,0,1,0-1.283.125,28.223,28.223,0,0,0,.943,5.534c.207.655.838,2.647,2.465,2.647,1.869,0,2.569-2.622,2.933-4.594a61.227,61.227,0,0,0,.7-6.277h5.284c.479,8.471.916,15.151,3.785,15.151,1.86,0,2.546-2.821,2.935-5.278.9-5.705.863-15.212,1.753-20.833.617-3.889,1.428-4.191,1.662-4.191.3,0,1.075.345,1.664,3.538.518,2.809.733,6.913.964,10.323H26.3a.645.645,0,1,0,0,1.289H28.41a61.207,61.207,0,0,0,.7,6.277c.364,1.972,1.064,4.594,2.933,4.594,1.719,0,2.4-2.165,2.77-3.794a52.4,52.4,0,0,0,.862-7.077h2.364a.645.645,0,1,0,0-1.289ZM19.342,74.3c-.234,0-1.045-.3-1.662-4.191-.418-2.637-.634-6.178-.831-9.671h4.986c-.2,3.492-.414,7.034-.831,9.671C20.387,74,19.576,74.3,19.342,74.3Zm14.213-7.067c-.886,3.949-2.354,3.7-3.176-.751A59.4,59.4,0,0,1,29.7,60.44h4.678A50.711,50.711,0,0,1,33.554,67.235Z" transform="translate(0 -44)" fill="#fc7777"/>
      </g>
      <g id="Grupo_1115183" data-name="Grupo 1115183" transform="translate(1317.106 2173)">
        <path id="Trazado_981965-2" data-name="Trazado 981965" d="M38.039,59.151H29.613C29.109,51.724,28.9,44,25.692,44c-1.86,0-2.546,2.821-2.935,5.278-.431,2.717-.649,6.325-.849,9.872H16.776c-.113-2-.233-4.039-.391-5.893a.645.645,0,0,0-1.285.11c.155,1.814.273,3.816.384,5.783H10.363c.224-3.315.445-7.515.964-10.323.589-3.193,1.36-3.538,1.665-3.538.259,0,1.153.361,1.781,5.008a.645.645,0,1,0,1.278-.173C15.641,47.1,14.957,44,12.991,44c-1.869,0-2.569,2.622-2.933,4.594a105.4,105.4,0,0,0-.988,10.557H.645a.645.645,0,0,0,0,1.289H8.98a59.419,59.419,0,0,1-.675,6.043c-.589,3.193-1.36,3.538-1.665,3.538-.594,0-1.029-1.094-1.236-1.747a27.1,27.1,0,0,1-.889-5.27.645.645,0,1,0-1.283.125,28.223,28.223,0,0,0,.943,5.534c.207.655.838,2.647,2.465,2.647,1.869,0,2.569-2.622,2.933-4.594a61.227,61.227,0,0,0,.7-6.277h5.284c.479,8.471.916,15.151,3.785,15.151,1.86,0,2.546-2.821,2.935-5.278.9-5.705.863-15.212,1.753-20.833.617-3.889,1.428-4.191,1.662-4.191.3,0,1.075.345,1.664,3.538.518,2.809.733,6.913.964,10.323H26.3a.645.645,0,1,0,0,1.289H28.41a61.207,61.207,0,0,0,.7,6.277c.364,1.972,1.064,4.594,2.933,4.594,1.719,0,2.4-2.165,2.77-3.794a52.4,52.4,0,0,0,.862-7.077h2.364a.645.645,0,1,0,0-1.289ZM19.342,74.3c-.234,0-1.045-.3-1.662-4.191-.418-2.637-.634-6.178-.831-9.671h4.986c-.2,3.492-.414,7.034-.831,9.671C20.387,74,19.576,74.3,19.342,74.3Zm14.213-7.067c-.886,3.949-2.354,3.7-3.176-.751A59.4,59.4,0,0,1,29.7,60.44h4.678A50.711,50.711,0,0,1,33.554,67.235Z" transform="translate(0 -44)" fill="#fc7777"/>
      </g>
      <g id="Grupo_1115181" data-name="Grupo 1115181" transform="translate(1323.942 2204.591) rotate(180)">
        <path id="Trazado_981965-3" data-name="Trazado 981965" d="M38.039,15.151H29.613C29.109,7.724,28.9,0,25.692,0c-1.86,0-2.546,2.821-2.935,5.278-.431,2.717-.649,6.325-.849,9.872H16.776c-.113-2-.233-4.039-.391-5.893a.645.645,0,0,0-1.285.11c.155,1.814.273,3.816.384,5.783H10.363c.224-3.315.445-7.515.964-10.323.589-3.193,1.36-3.538,1.665-3.538.259,0,1.153.361,1.781,5.008a.645.645,0,1,0,1.278-.173C15.641,3.1,14.957,0,12.991,0c-1.869,0-2.569,2.622-2.933,4.594a105.4,105.4,0,0,0-.988,10.557H.645a.645.645,0,0,0,0,1.289H8.98a59.419,59.419,0,0,1-.675,6.043c-.589,3.193-1.36,3.538-1.665,3.538-.594,0-1.029-1.094-1.236-1.747a27.1,27.1,0,0,1-.889-5.27.645.645,0,1,0-1.283.125,28.223,28.223,0,0,0,.943,5.534c.207.655.838,2.647,2.465,2.647,1.869,0,2.569-2.622,2.933-4.594a61.227,61.227,0,0,0,.7-6.277h5.284c.479,8.471.916,15.151,3.785,15.151,1.86,0,2.546-2.821,2.935-5.278.9-5.705.863-15.212,1.753-20.833.617-3.889,1.428-4.191,1.662-4.191.3,0,1.075.345,1.664,3.538.518,2.809.733,6.913.964,10.323H26.3a.645.645,0,1,0,0,1.289H28.41a61.207,61.207,0,0,0,.7,6.277c.364,1.972,1.064,4.594,2.933,4.594,1.719,0,2.4-2.165,2.77-3.794a52.4,52.4,0,0,0,.862-7.077h2.364a.645.645,0,1,0,0-1.289ZM19.342,30.3c-.234,0-1.045-.3-1.662-4.191-.418-2.637-.634-6.178-.831-9.671h4.986c-.2,3.492-.414,7.034-.831,9.671C20.387,30,19.576,30.3,19.342,30.3Zm14.213-7.067c-.886,3.949-2.354,3.7-3.176-.751A59.4,59.4,0,0,1,29.7,16.44h4.678A50.711,50.711,0,0,1,33.554,23.235Z" transform="translate(0)" fill="#fc7777"/>
      </g>
      <g id="Grupo_1115182" data-name="Grupo 1115182" transform="translate(1387.183 2204.591) rotate(180)">
        <path id="Trazado_981965-4" data-name="Trazado 981965" d="M38.039,15.151H29.613C29.109,7.724,28.9,0,25.692,0c-1.86,0-2.546,2.821-2.935,5.278-.431,2.717-.649,6.325-.849,9.872H16.776c-.113-2-.233-4.039-.391-5.893a.645.645,0,0,0-1.285.11c.155,1.814.273,3.816.384,5.783H10.363c.224-3.315.445-7.515.964-10.323.589-3.193,1.36-3.538,1.665-3.538.259,0,1.153.361,1.781,5.008a.645.645,0,1,0,1.278-.173C15.641,3.1,14.957,0,12.991,0c-1.869,0-2.569,2.622-2.933,4.594a105.4,105.4,0,0,0-.988,10.557H.645a.645.645,0,0,0,0,1.289H8.98a59.419,59.419,0,0,1-.675,6.043c-.589,3.193-1.36,3.538-1.665,3.538-.594,0-1.029-1.094-1.236-1.747a27.1,27.1,0,0,1-.889-5.27.645.645,0,1,0-1.283.125,28.223,28.223,0,0,0,.943,5.534c.207.655.838,2.647,2.465,2.647,1.869,0,2.569-2.622,2.933-4.594a61.227,61.227,0,0,0,.7-6.277h5.284c.479,8.471.916,15.151,3.785,15.151,1.86,0,2.546-2.821,2.935-5.278.9-5.705.863-15.212,1.753-20.833.617-3.889,1.428-4.191,1.662-4.191.3,0,1.075.345,1.664,3.538.518,2.809.733,6.913.964,10.323H26.3a.645.645,0,1,0,0,1.289H28.41a61.207,61.207,0,0,0,.7,6.277c.364,1.972,1.064,4.594,2.933,4.594,1.719,0,2.4-2.165,2.77-3.794a52.4,52.4,0,0,0,.862-7.077h2.364a.645.645,0,1,0,0-1.289ZM19.342,30.3c-.234,0-1.045-.3-1.662-4.191-.418-2.637-.634-6.178-.831-9.671h4.986c-.2,3.492-.414,7.034-.831,9.671C20.387,30,19.576,30.3,19.342,30.3Zm14.213-7.067c-.886,3.949-2.354,3.7-3.176-.751A59.4,59.4,0,0,1,29.7,16.44h4.678A50.711,50.711,0,0,1,33.554,23.235Z" transform="translate(0)" fill="#fc7777"/>
      </g>
    </g>
    <g id="Grupo_1115180" data-name="Grupo 1115180" transform="translate(1354.431 2160.718)">
      <path id="Trazado_981966" data-name="Trazado 981966" d="M42.86,215.367a9.739,9.739,0,0,0-9.728,9.728,9.64,9.64,0,0,0,1.985,5.889.633.633,0,1,0,1.008-.768,8.385,8.385,0,0,1-1.726-5.121,8.459,8.459,0,1,1,3.4,6.782.633.633,0,0,0-.758,1.015,9.728,9.728,0,1,0,5.819-17.524Z" transform="translate(-30.334 -189.596)" fill="#fc7777"/>
      <path id="Trazado_981967" data-name="Trazado 981967" d="M107.661,285.765a4.131,4.131,0,1,0-4.131,4.131A4.136,4.136,0,0,0,107.661,285.765Zm-7,0a2.864,2.864,0,1,1,2.864,2.864A2.868,2.868,0,0,1,100.666,285.765Z" transform="translate(-91.004 -250.267)" fill="#fc7777"/>
      <path id="Trazado_981968" data-name="Trazado 981968" d="M42.606,29.4a.633.633,0,0,0,.633-.633V24.306a3.435,3.435,0,0,0-3.432-3.432h-.766V19.385a1.31,1.31,0,0,0-1.309-1.309H33.488a1.31,1.31,0,0,0-1.309,1.309v1.489H30.648V19.385a1.31,1.31,0,0,0-1.309-1.309H25.094a1.31,1.31,0,0,0-1.309,1.309v1.489H11.06v-1.3L34,11.55a2.031,2.031,0,1,0-.42-1.236c0,.013,0,.027,0,.04L10.606,18.4a1.3,1.3,0,0,0-.854-.319H5.506A1.31,1.31,0,0,0,4.2,19.385v1.489H3.432A3.436,3.436,0,0,0,0,24.306V46.691a3.435,3.435,0,0,0,3.432,3.432H39.808a3.435,3.435,0,0,0,3.432-3.432V31.3a.633.633,0,0,0-1.267,0v15.39a2.167,2.167,0,0,1-2.165,2.165H25.051V22.141H39.808a2.167,2.167,0,0,1,2.165,2.165v4.462a.633.633,0,0,0,.633.633Zm-7-19.852a.766.766,0,1,1-.766.766A.767.767,0,0,1,35.611,9.549ZM5.464,19.385a.042.042,0,0,1,.042-.042H9.751a.042.042,0,0,1,.026.009v0c0,.012.011.023.016.035v1.483H5.464ZM3.432,48.856a2.167,2.167,0,0,1-2.165-2.165V24.306a2.167,2.167,0,0,1,2.165-2.165H23.785V48.856Zm21.62-27.982V19.385a.042.042,0,0,1,.042-.042h4.245a.042.042,0,0,1,.042.042v1.489Zm8.395,0V19.385a.042.042,0,0,1,.042-.042h4.245a.042.042,0,0,1,.042.042v1.489Z" transform="translate(0)" fill="#fc7777"/>
      <path id="Trazado_981969" data-name="Trazado 981969" d="M328.626,191.825a1.31,1.31,0,0,0-1.309-1.309H316.076a1.31,1.31,0,0,0-1.309,1.309v2.846a1.31,1.31,0,0,0,1.309,1.309h11.241a1.31,1.31,0,0,0,1.309-1.309Zm-1.267,2.846a.042.042,0,0,1-.042.042H316.076a.042.042,0,0,1-.042-.042v-2.846a.042.042,0,0,1,.042-.042h11.241a.042.042,0,0,1,.042.042Z" transform="translate(-288.184 -166.844)" fill="#fc7777"/>
      <path id="Trazado_981970" data-name="Trazado 981970" d="M317.5,278.813a2.732,2.732,0,1,0-2.732-2.732A2.735,2.735,0,0,0,317.5,278.813Zm0-4.2a1.465,1.465,0,1,1-1.465,1.465A1.467,1.467,0,0,1,317.5,274.616Z" transform="translate(-288.184 -242.681)" fill="#fc7777"/>
      <path id="Trazado_981971" data-name="Trazado 981971" d="M416.9,273.35a2.732,2.732,0,1,0,2.732,2.732A2.735,2.735,0,0,0,416.9,273.35Zm0,4.2a1.465,1.465,0,1,1,1.465-1.465A1.467,1.467,0,0,1,416.9,277.547Z" transform="translate(-379.19 -242.682)" fill="#fc7777"/>
      <path id="Trazado_981972" data-name="Trazado 981972" d="M327.992,356.184H315.4a.633.633,0,1,0,0,1.267h12.592a.633.633,0,1,0,0-1.267Z" transform="translate(-288.184 -318.521)" fill="#fc7777"/>
      <path id="Trazado_981973" data-name="Trazado 981973" d="M327.992,389.316H315.4a.633.633,0,1,0,0,1.267h12.592a.633.633,0,1,0,0-1.267Z" transform="translate(-288.184 -348.855)" fill="#fc7777"/>
      <path id="Trazado_981974" data-name="Trazado 981974" d="M327.992,422.45H315.4a.633.633,0,1,0,0,1.267h12.592a.633.633,0,1,0,0-1.267Z" transform="translate(-288.184 -379.19)" fill="#fc7777"/>
    </g>
  </g>
</svg>
