<svg xmlns="http://www.w3.org/2000/svg" xmlns:xlink="http://www.w3.org/1999/xlink" width="118" height="118.001" viewBox="0 0 118 118.001">
  <defs>
    <filter id="Trazado_874925" x="0" y="0" width="118" height="118.001" filterUnits="userSpaceOnUse">
      <feOffset dy="3" input="SourceAlpha"/>
      <feGaussianBlur stdDeviation="3" result="blur"/>
      <feFlood flood-opacity="0.161"/>
      <feComposite operator="in" in2="blur"/>
      <feComposite in="SourceGraphic"/>
    </filter>
  </defs>
  <g id="Grupo_1112803" data-name="Grupo 1112803" transform="translate(-817.427 -2518.29)">
    <g transform="matrix(1, 0, 0, 1, 817.43, 2518.29)" filter="url(#Trazado_874925)">
      <g id="Trazado_874925-2" data-name="Trazado 874925" transform="translate(9 6)" fill="#68d5e9" opacity="0.859">
        <path d="M 50.00000381469727 98.50060272216797 C 43.45188903808594 98.50060272216797 37.10043334960938 97.21847534179688 31.1220760345459 94.68984222412109 C 25.34690475463867 92.24716186523438 20.15996170043945 88.74991607666016 15.70531845092773 84.2952880859375 C 11.25068950653076 79.84064483642578 7.753446578979492 74.65370178222656 5.310760974884033 68.87853240966797 C 2.782132387161255 62.90017318725586 1.500003814697266 56.5487174987793 1.500003814697266 50.00058746337891 C 1.500003814697266 43.45190048217773 2.782132387161255 37.10044479370117 5.310760974884033 31.1220874786377 C 7.753446578979492 25.34691619873047 11.25068950653076 20.15997314453125 15.70531845092773 15.70532989501953 C 20.15996170043945 11.25068664550781 25.34690475463867 7.753444194793701 31.1220760345459 5.310758590698242 C 37.10043334960938 2.782130002975464 43.45188903808594 1.500001311302185 50.00000381469727 1.500001311302185 C 56.54811859130859 1.500001311302185 62.89957427978516 2.782130002975464 68.8779296875 5.310758590698242 C 74.65310668945312 7.753444194793701 79.84004974365234 11.25068664550781 84.29469299316406 15.70532989501953 C 88.74932098388672 20.15997314453125 92.24655914306641 25.34691619873047 94.68924713134766 31.1220874786377 C 97.21787261962891 37.10044479370117 98.5 43.45190048217773 98.5 50.00001525878906 C 98.5 56.5487174987793 97.21787261962891 62.90017318725586 94.68924713134766 68.87853240966797 C 92.24655914306641 74.65370178222656 88.74932098388672 79.84064483642578 84.29469299316406 84.2952880859375 C 79.84004974365234 88.74991607666016 74.65310668945312 92.24716186523438 68.8779296875 94.68984222412109 C 62.89957427978516 97.21847534179688 56.54811859130859 98.50060272216797 50.00000381469727 98.50060272216797 Z" stroke="none"/>
        <path d="M 50.00000381469727 2.999992370605469 C 43.65372848510742 2.999992370605469 37.49886703491211 4.242256164550781 31.70640563964844 6.692253112792969 C 26.11003112792969 9.059318542480469 21.08334350585938 12.4486083984375 16.7659912109375 16.76597595214844 C 12.44861602783203 21.08335113525391 9.059326171875 26.11002349853516 6.692268371582031 31.70640563964844 C 4.242263793945312 37.49887084960938 3.000007629394531 43.65373229980469 3.000007629394531 50.00059509277344 C 3.000007629394531 56.34687042236328 4.242263793945312 62.50173187255859 6.692268371582031 68.294189453125 C 9.059326171875 73.89056396484375 12.44861602783203 78.91725158691406 16.7659912109375 83.23461151123047 C 21.08334350585938 87.55197906494141 26.11003112792969 90.94126892089844 31.70640563964844 93.30833435058594 C 37.49886703491211 95.75833129882812 43.65372848510742 97.00059509277344 50.00000381469727 97.00059509277344 C 56.34627914428711 97.00059509277344 62.50114059448242 95.75833129882812 68.29360198974609 93.30833435058594 C 73.88996887207031 90.94126892089844 78.91664886474609 87.55197906494141 83.23401641845703 83.23461151123047 C 87.5513916015625 78.91725158691406 90.94068145751953 73.89056396484375 93.3077392578125 68.294189453125 C 95.75774383544922 62.50173187255859 97 56.34687042236328 97 50.00000762939453 C 97 43.65373229980469 95.75774383544922 37.49887084960938 93.3077392578125 31.70640563964844 C 90.94068145751953 26.11002349853516 87.5513916015625 21.08335113525391 83.23401641845703 16.76597595214844 C 78.91664886474609 12.4486083984375 73.88996887207031 9.059318542480469 68.29360198974609 6.692253112792969 C 62.50114059448242 4.242256164550781 56.34627914428711 2.999992370605469 50.00000381469727 2.999992370605469 M 50.00000381469727 -7.62939453125e-06 C 77.61423492431641 -7.62939453125e-06 100 22.38576507568359 100 50.00000762939453 L 100 50.00059509277344 C 100 77.61483764648438 77.61423492431641 100.0005950927734 50.00000381469727 100.0005950927734 C 22.38575744628906 100.0005950927734 7.62939453125e-06 77.61483764648438 7.62939453125e-06 50.00059509277344 L 7.62939453125e-06 50.00000762939453 C 7.62939453125e-06 22.38576507568359 22.38575744628906 -7.62939453125e-06 50.00000381469727 -7.62939453125e-06 Z" stroke="none" fill="#fff"/>
      </g>
    </g>
    <g id="Grupo_1115055" data-name="Grupo 1115055" transform="translate(851.894 2549.759)">
      <g id="Grupo_1115053" data-name="Grupo 1115053" transform="translate(0.767 0.767)">
        <path id="Trazado_980658" data-name="Trazado 980658" d="M0,0H3.843V5.453H0Z" transform="translate(35.095 34.371) rotate(-45)" fill="#e6e2e6"/>
        <path id="Trazado_980659" data-name="Trazado 980659" d="M0,0H3.843V5.453H0Z" transform="translate(35.095 34.371) rotate(-45)" fill="#ecdaec"/>
        <path id="Trazado_980660" data-name="Trazado 980660" d="M0,0H1.83V5.453H0Z" transform="translate(35.095 34.371) rotate(-45)" fill="#e2cbe2"/>
        <path id="Trazado_980661" data-name="Trazado 980661" d="M8,9.437A1.437,1.437,0,0,1,9.437,8H33.629l8.906,8.906V54.094A1.438,1.438,0,0,1,41.1,55.532H9.437A1.437,1.437,0,0,1,8,54.094Z" transform="translate(-8 -8)" fill="#f9f6f6"/>
        <path id="Trazado_980662" data-name="Trazado 980662" d="M41.1,472.437H9.437A1.437,1.437,0,0,1,8,471v1.725a1.437,1.437,0,0,0,1.437,1.437H41.1a1.438,1.438,0,0,0,1.437-1.437V471A1.438,1.438,0,0,1,41.1,472.437Z" transform="translate(-8 -426.631)" fill="#ecdaec"/>
        <g id="Grupo_1115051" data-name="Grupo 1115051" transform="translate(17.389)">
          <path id="Trazado_980663" data-name="Trazado 980663" d="M276.882,16.906h7.469L275.445,8v7.469A1.437,1.437,0,0,0,276.882,16.906Z" transform="translate(-267.204 -8)" fill="#e2cbe2"/>
          <path id="Trazado_980664" data-name="Trazado 980664" d="M276.882,16.906h7.469L275.445,8v7.469A1.437,1.437,0,0,0,276.882,16.906Z" transform="translate(-267.204 -8)" fill="#e2cbe2"/>
          <circle id="Elipse_11569" data-name="Elipse 11569" cx="11.929" cy="11.929" r="11.929" transform="translate(0 13.939)" fill="#e2cbe2"/>
        </g>
        <path id="Trazado_980665" data-name="Trazado 980665" d="M209.819,276.511a11.929,11.929,0,0,1-20.334-7.573,11.929,11.929,0,1,0,23.8,0A11.883,11.883,0,0,1,209.819,276.511Z" transform="translate(-172.065 -243.932)" fill="#dab9d8"/>
        <circle id="Elipse_11570" data-name="Elipse 11570" cx="8.637" cy="8.637" r="8.637" transform="translate(20.681 17.231)" fill="#ffe27a"/>
        <path id="Trazado_980666" data-name="Trazado 980666" d="M238.558,274.182a8.637,8.637,0,0,1-14.7-5.245,8.637,8.637,0,1,0,17.187,0A8.6,8.6,0,0,1,238.558,274.182Z" transform="translate(-203.132 -243.931)" fill="#f9cf58"/>
        <path id="Trazado_980667" data-name="Trazado 980667" d="M272.922,250.148a1.5,1.5,0,0,1-1.053-.427l-1.982-1.927a1.51,1.51,0,1,1,2.106-2.166l.9.876,2.706-2.775a1.51,1.51,0,0,1,2.163,2.109L274,249.692A1.505,1.505,0,0,1,272.922,250.148Z" transform="translate(-244.377 -220.727)" fill="#98db7c"/>
        <path id="Trazado_980668" data-name="Trazado 980668" d="M277.773,250.217l-3.759,3.855a1.51,1.51,0,0,1-2.134.028l-1.982-1.927a1.518,1.518,0,0,1-.186-.219,1.509,1.509,0,0,0,.186,1.944l1.982,1.927a1.51,1.51,0,0,0,2.134-.028l3.759-3.855a1.51,1.51,0,0,0,.157-1.918A1.52,1.52,0,0,1,277.773,250.217Z" transform="translate(-244.387 -226.831)" fill="#82d361"/>
        <path id="Trazado_980669" data-name="Trazado 980669" d="M412.736,372.946l-3.79,3.79,4.534,4.534a2.68,2.68,0,0,0,3.79-3.79Z" transform="translate(-370.523 -337.973)" fill="#ff4755"/>
        <path id="Trazado_980670" data-name="Trazado 980670" d="M414.773,403.526l-4.533-4.533-1.294,1.294,4.534,4.534a2.681,2.681,0,0,0,4.325-.763A2.681,2.681,0,0,1,414.773,403.526Z" transform="translate(-370.523 -361.524)" fill="#fc2b3a"/>
        <g id="Grupo_1115052" data-name="Grupo 1115052" transform="translate(4.915 13.228)">
          <path id="Trazado_980671" data-name="Trazado 980671" d="M63.319,150.961H60.175a.889.889,0,0,1-.889-.889v-3.144a.889.889,0,0,1,.889-.889h3.144a.889.889,0,0,1,.889.889v3.144A.889.889,0,0,1,63.319,150.961Z" transform="translate(-59.286 -146.039)" fill="#98db7c"/>
          <path id="Trazado_980672" data-name="Trazado 980672" d="M63.319,256.123H60.175a.889.889,0,0,1-.889-.889V252.09a.889.889,0,0,1,.889-.889h3.144a.889.889,0,0,1,.889.889v3.144A.889.889,0,0,1,63.319,256.123Z" transform="translate(-59.286 -241.123)" fill="#98db7c"/>
          <path id="Trazado_980673" data-name="Trazado 980673" d="M63.319,363.42H60.175a.889.889,0,0,1-.889-.889v-3.144a.889.889,0,0,1,.889-.889h3.144a.889.889,0,0,1,.889.889v3.144A.889.889,0,0,1,63.319,363.42Z" transform="translate(-59.286 -338.138)" fill="#98db7c"/>
        </g>
        <path id="Trazado_980674" data-name="Trazado 980674" d="M63.319,171.017H60.175a.889.889,0,0,1-.889-.889v1.725a.889.889,0,0,0,.889.889h3.144a.889.889,0,0,0,.889-.889v-1.725A.889.889,0,0,1,63.319,171.017Z" transform="translate(-54.371 -154.591)" fill="#82d361"/>
        <path id="Trazado_980675" data-name="Trazado 980675" d="M63.319,276.178H60.175a.889.889,0,0,1-.889-.889v1.725a.889.889,0,0,0,.889.889h3.144a.889.889,0,0,0,.889-.889v-1.725A.889.889,0,0,1,63.319,276.178Z" transform="translate(-54.371 -249.675)" fill="#82d361"/>
        <path id="Trazado_980676" data-name="Trazado 980676" d="M63.319,383.475H60.175a.889.889,0,0,1-.889-.889v1.725a.889.889,0,0,0,.889.889h3.144a.889.889,0,0,0,.889-.889v-1.725A.889.889,0,0,1,63.319,383.475Z" transform="translate(-54.371 -346.689)" fill="#82d361"/>
        <path id="Trazado_980677" data-name="Trazado 980677" d="M275.445,85.937v1.725a1.437,1.437,0,0,0,1.437,1.437h7.469V87.374h-7.469A1.437,1.437,0,0,1,275.445,85.937Z" transform="translate(-249.816 -78.468)" fill="#ecdaec"/>
      </g>
      <g id="Grupo_1115054" data-name="Grupo 1115054">
        <path id="Trazado_980678" data-name="Trazado 980678" d="M266.206,244.072a2.217,2.217,0,0,0,1.6-.674l3.767-3.862a2.234,2.234,0,0,0-3.2-3.119l-2.21,2.266-.387-.376a2.234,2.234,0,1,0-3.114,3.2l1.986,1.931A2.222,2.222,0,0,0,266.206,244.072Zm-2.555-4.717a.794.794,0,0,1,1.122-.016l.9.878a.72.72,0,0,0,1.018-.014l2.712-2.78a.793.793,0,1,1,1.136,1.107l-3.767,3.862a.8.8,0,0,1-1.121.015l-1.986-1.931A.794.794,0,0,1,263.652,239.355Z" transform="translate(-236.881 -213.153)"/>
        <path id="Trazado_980679" data-name="Trazado 980679" d="M219.249,194.345a.72.72,0,0,0-1.15.867,9.49,9.49,0,0,0,.862.991,9.368,9.368,0,1,0-2.3-3.771.72.72,0,0,0,1.372-.438,7.941,7.941,0,1,1,1.948,3.19,8.062,8.062,0,0,1-.731-.84Z" transform="translate(-195.491 -162.936)"/>
        <path id="Trazado_980680" data-name="Trazado 980680" d="M48.073,39.8,43.53,35.252a.72.72,0,0,0-1.019,0l-.028.028-1.749-1.748a12.652,12.652,0,0,0,2.014-6.091.72.72,0,0,0-1.438-.091,11.224,11.224,0,0,1-11.2,10.516h-.068A11.227,11.227,0,1,1,41.156,24.647a.72.72,0,0,0,1.418-.254,12.682,12.682,0,0,0-6.527-8.945v-5.8a.729.729,0,0,0-.211-.509L26.912.211A.73.73,0,0,0,26.4,0H2.16A2.163,2.163,0,0,0,0,2.16V8.213a.72.72,0,0,0,1.441,0V2.16a.721.721,0,0,1,.72-.72H25.682V8.2a2.163,2.163,0,0,0,2.161,2.16h6.764V14.8a12.726,12.726,0,0,0-4.371-.822l-.021,0H14.135a.72.72,0,1,0,0,1.44H24.218a12.624,12.624,0,0,0-2.873,2.063H14.135a.72.72,0,1,0,0,1.44h5.915a12.536,12.536,0,0,0-2.364,5.149H14.135a.72.72,0,1,0,0,1.44h3.341q-.05.563-.051,1.135,0,.469.034.933H14.135a.72.72,0,1,0,0,1.44h3.511a12.535,12.535,0,0,0,2.405,5.354H14.135a.72.72,0,1,0,0,1.44h7.214a12.622,12.622,0,0,0,2.868,2.059H14.134a.72.72,0,1,0,0,1.44H30.1a12.734,12.734,0,0,0,4.508-.824v8.423a.721.721,0,0,1-.72.72H2.16a.721.721,0,0,1-.72-.72V11.094a.72.72,0,0,0-1.441,0V46.905a2.163,2.163,0,0,0,2.161,2.16H33.887a2.163,2.163,0,0,0,2.161-2.16V37.83q.482-.256.946-.556l1.748,1.748a.726.726,0,0,0-.028,1.046l4.544,4.543A3.405,3.405,0,0,0,48.073,39.8ZM27.843,8.924a.721.721,0,0,1-.72-.72V2.459l6.466,6.465ZM38.168,36.412q.461-.381.893-.811t.811-.893L41.464,36.3,39.76,38Zm8.887,7.181a1.975,1.975,0,0,1-2.779,0l-4.035-4.034L43.02,36.78l4.035,4.034A1.974,1.974,0,0,1,47.055,43.593Z" transform="translate(0.001 0)"/>
        <path id="Trazado_980681" data-name="Trazado 980681" d="M53,144.682h3.151a1.613,1.613,0,0,0,1.611-1.611v-3.151a1.613,1.613,0,0,0-1.611-1.611H53a1.613,1.613,0,0,0-1.611,1.611v3.151A1.613,1.613,0,0,0,53,144.682Zm-.17-4.761a.171.171,0,0,1,.17-.17h3.151a.171.171,0,0,1,.171.17v3.151a.171.171,0,0,1-.171.17H53a.171.171,0,0,1-.17-.17Z" transform="translate(-46.468 -125.056)"/>
        <path id="Trazado_980682" data-name="Trazado 980682" d="M51.393,248.439A1.613,1.613,0,0,0,53,250.05h3.151a1.613,1.613,0,0,0,1.611-1.611v-3.151a1.613,1.613,0,0,0-1.611-1.611H53a1.613,1.613,0,0,0-1.611,1.611Zm1.441-3.151a.171.171,0,0,1,.17-.17h3.151a.171.171,0,0,1,.171.17v3.151a.171.171,0,0,1-.171.17H53a.171.171,0,0,1-.17-.17Z" transform="translate(-46.468 -220.326)"/>
        <path id="Trazado_980683" data-name="Trazado 980683" d="M51.393,355.946A1.613,1.613,0,0,0,53,357.557h3.151a1.613,1.613,0,0,0,1.611-1.611V352.8a1.613,1.613,0,0,0-1.611-1.611H53a1.613,1.613,0,0,0-1.611,1.611Zm1.441-3.151a.171.171,0,0,1,.17-.171h3.151a.171.171,0,0,1,.171.171v3.151a.171.171,0,0,1-.171.17H53a.171.171,0,0,1-.17-.17Z" transform="translate(-46.468 -317.531)"/>
      </g>
    </g>
  </g>
</svg>
