<svg xmlns="http://www.w3.org/2000/svg" xmlns:xlink="http://www.w3.org/1999/xlink" width="400" height="252" viewBox="0 0 400 252">
  <defs>
    <clipPath id="clip-path">
      <rect id="Rectángulo_407613" data-name="Rectángulo 407613" width="249" height="249" transform="translate(0 0)" fill="none"/>
    </clipPath>
    <clipPath id="clip-path-3">
      <rect id="Rectángulo_407577" data-name="Rectángulo 407577" width="36.91" height="31.088" fill="none"/>
    </clipPath>
    <clipPath id="clip-path-4">
      <rect id="Rectángulo_407578" data-name="Rectángulo 407578" width="27.363" height="31.088" fill="none"/>
    </clipPath>
    <clipPath id="clip-path-5">
      <rect id="Rectángulo_407583" data-name="Rectángulo 407583" width="11.148" height="14.216" fill="none"/>
    </clipPath>
    <clipPath id="clip-path-6">
      <rect id="Rectángulo_407584" data-name="Rectángulo 407584" width="12.864" height="14.216" fill="none"/>
    </clipPath>
    <clipPath id="clip-path-7">
      <rect id="Rectángulo_407590" data-name="Rectángulo 407590" width="33.39" height="27.875" fill="none"/>
    </clipPath>
    <clipPath id="clip-path-8">
      <rect id="Rectángulo_407591" data-name="Rectángulo 407591" width="25.076" height="27.875" fill="none"/>
    </clipPath>
    <clipPath id="clip-path-9">
      <rect id="Rectángulo_407592" data-name="Rectángulo 407592" width="12.879" height="18.139" fill="none"/>
    </clipPath>
    <clipPath id="clip-path-10">
      <rect id="Rectángulo_407593" data-name="Rectángulo 407593" width="47.138" height="45.493" fill="none"/>
    </clipPath>
    <clipPath id="clip-path-11">
      <rect id="Rectángulo_407594" data-name="Rectángulo 407594" width="1.74" height="1.462" fill="none"/>
    </clipPath>
    <clipPath id="clip-path-12">
      <rect id="Rectángulo_407595" data-name="Rectángulo 407595" width="27.224" height="38.347" fill="none"/>
    </clipPath>
    <clipPath id="clip-path-13">
      <rect id="Rectángulo_407596" data-name="Rectángulo 407596" width="37.586" height="45.493" fill="none"/>
    </clipPath>
    <clipPath id="clip-path-14">
      <rect id="Rectángulo_407597" data-name="Rectángulo 407597" width="15.638" height="22.033" fill="none"/>
    </clipPath>
    <clipPath id="clip-path-15">
      <rect id="Rectángulo_407599" data-name="Rectángulo 407599" width="31.535" height="24.544" fill="none"/>
    </clipPath>
    <clipPath id="clip-path-16">
      <rect id="Rectángulo_407600" data-name="Rectángulo 407600" width="22.455" height="24.544" fill="none"/>
    </clipPath>
    <clipPath id="clip-path-17">
      <rect id="Rectángulo_407610" data-name="Rectángulo 407610" width="23.863" height="39.824" fill="none"/>
    </clipPath>
    <clipPath id="clip-path-18">
      <rect id="Rectángulo_407611" data-name="Rectángulo 407611" width="23.281" height="32.793" fill="none"/>
    </clipPath>
  </defs>
  <g id="Grupo_1115533" data-name="Grupo 1115533" transform="translate(-1020.051 -956)">
    <rect id="Rectángulo_407556" data-name="Rectángulo 407556" width="400" height="252" transform="translate(1020.051 956)" fill="#f7e081"/>
    <g id="Grupo_1115532" data-name="Grupo 1115532" transform="translate(1096.194 958.194)">
      <g id="Grupo_1115531" data-name="Grupo 1115531" transform="translate(-0.143 -0.194)" clip-path="url(#clip-path)">
        <path id="Trazado_983083" data-name="Trazado 983083" d="M0,0H248.949V248.949H0Z" fill="#f7e081"/>
        <g id="Grupo_1115530" data-name="Grupo 1115530">
          <g id="Grupo_1115529" data-name="Grupo 1115529" clip-path="url(#clip-path)">
            <path id="Trazado_982979" data-name="Trazado 982979" d="M232.8,204.7a1.243,1.243,0,0,1-.912-2.087,16.388,16.388,0,0,1,24.053-.053,1.243,1.243,0,0,1-1.819,1.7,13.9,13.9,0,0,0-20.408.046,1.239,1.239,0,0,1-.913.4" transform="translate(-116.269 -99.031)" fill="#fff"/>
            <path id="Trazado_982980" data-name="Trazado 982980" d="M243.633,219.788a1.243,1.243,0,0,1-.926-2.072c.074-.083.149-.164.226-.244a1.243,1.243,0,1,1,1.789,1.726c-.055.057-.109.115-.162.175a1.239,1.239,0,0,1-.927.415" transform="translate(-121.715 -108.965)" fill="#fff"/>
            <path id="Trazado_982981" data-name="Trazado 982981" d="M255.266,217.321a1.24,1.24,0,0,1-.917-.4,6.482,6.482,0,0,0-4.768-2.1,6.412,6.412,0,0,0-4.661,1.985,1.243,1.243,0,0,1-1.793-1.722,8.876,8.876,0,0,1,6.454-2.749,8.976,8.976,0,0,1,6.6,2.9,1.243,1.243,0,0,1-.916,2.083" transform="translate(-121.912 -106.572)" fill="#fff"/>
            <path id="Trazado_982982" data-name="Trazado 982982" d="M257.053,250.948a9.324,9.324,0,0,1-9.323,9.323H193.391a9.323,9.323,0,1,1,0-18.647h54.338a9.323,9.323,0,0,1,9.323,9.323" transform="translate(-92.393 -121.299)" fill="#fff"/>
            <path id="Trazado_982983" data-name="Trazado 982983" d="M206.3,198.118a1.243,1.243,0,1,0-2.486,0v25.608a1.243,1.243,0,1,0,2.486,0Z" transform="translate(-102.322 -98.801)" fill="#fff"/>
            <path id="Trazado_982984" data-name="Trazado 982984" d="M306.8,198.118a1.243,1.243,0,0,0-2.486,0v25.608a1.243,1.243,0,1,0,2.486,0Z" transform="translate(-152.85 -98.801)" fill="#fff"/>
            <path id="Trazado_982985" data-name="Trazado 982985" d="M206.3,258.657a1.823,1.823,0,1,1-1.823-1.823,1.824,1.824,0,0,1,1.823,1.823" transform="translate(-101.736 -128.945)" fill="#3eb1ed"/>
            <path id="Trazado_982986" data-name="Trazado 982986" d="M243.98,258.657a1.823,1.823,0,1,1-1.823-1.823,1.824,1.824,0,0,1,1.823,1.823" transform="translate(-120.681 -128.945)" fill="#3eb1ed"/>
            <path id="Trazado_982987" data-name="Trazado 982987" d="M256.6,228.49a1.823,1.823,0,1,1-1.823-1.823,1.824,1.824,0,0,1,1.823,1.823" transform="translate(-127.028 -113.779)" fill="#fff"/>
            <path id="Trazado_982988" data-name="Trazado 982988" d="M254.48,258.657a1.823,1.823,0,1,1-1.823-1.823,1.824,1.824,0,0,1,1.823,1.823" transform="translate(-125.96 -128.945)" fill="#dedede"/>
            <path id="Trazado_982989" data-name="Trazado 982989" d="M264.98,258.657a1.823,1.823,0,1,1-1.823-1.823,1.824,1.824,0,0,1,1.823,1.823" transform="translate(-131.239 -128.945)" fill="#3eb1ed"/>
            <path id="Trazado_982990" data-name="Trazado 982990" d="M275.48,258.657a1.823,1.823,0,1,1-1.823-1.823,1.824,1.824,0,0,1,1.823,1.823" transform="translate(-136.518 -128.945)" fill="#dedede"/>
            <path id="Trazado_982991" data-name="Trazado 982991" d="M285.98,258.657a1.823,1.823,0,1,1-1.823-1.823,1.824,1.824,0,0,1,1.823,1.823" transform="translate(-141.797 -128.945)" fill="#dedede"/>
            <path id="Trazado_982992" data-name="Trazado 982992" d="M296.48,258.657a1.823,1.823,0,1,1-1.823-1.823,1.824,1.824,0,0,1,1.823,1.823" transform="translate(-147.076 -128.945)" fill="#3eb1ed"/>
            <path id="Trazado_982993" data-name="Trazado 982993" d="M306.98,258.657a1.823,1.823,0,1,1-1.823-1.823,1.824,1.824,0,0,1,1.823,1.823" transform="translate(-152.355 -128.945)" fill="#3eb1ed"/>
            <path id="Trazado_982994" data-name="Trazado 982994" d="M249.739,260.294H195.4a7.334,7.334,0,0,1,0-14.669h54.338a7.334,7.334,0,0,1,0,14.669M195.4,246.619a6.34,6.34,0,1,0,0,12.68h54.338a6.34,6.34,0,1,0,0-12.68Z" transform="translate(-94.404 -123.31)" fill="#c4c4c4"/>
            <path id="Trazado_982995" data-name="Trazado 982995" d="M221.5,454.451a1.388,1.388,0,0,1-1.388,1.388H183.55a1.388,1.388,0,1,1,0-2.776h36.564a1.388,1.388,0,0,1,1.388,1.388" transform="translate(-91.435 -227.601)" fill="#ebebeb"/>
            <path id="Trazado_982996" data-name="Trazado 982996" d="M202.066,400.916v25.709a1.328,1.328,0,0,1-1.325,1.324H187.39a1.327,1.327,0,0,1-1.321-1.324V400.916a1.326,1.326,0,0,1,1.321-1.321h13.352a1.327,1.327,0,0,1,1.325,1.321" transform="translate(-93.399 -200.72)" fill="#fff"/>
            <path id="Trazado_982997" data-name="Trazado 982997" d="M202.1,435.9a4.927,4.927,0,1,1-4.927-4.927A4.924,4.924,0,0,1,202.1,435.9" transform="translate(-96.505 -216.497)" fill="#ebebeb"/>
            <path id="Trazado_982998" data-name="Trazado 982998" d="M200.53,440.867a1.607,1.607,0,1,1,1.608-1.607,1.609,1.609,0,0,1-1.608,1.607" transform="translate(-99.861 -219.853)" fill="#fff"/>
            <path id="Trazado_982999" data-name="Trazado 982999" d="M202.1,411.209a4.927,4.927,0,1,1-4.927-4.927,4.924,4.924,0,0,1,4.927,4.927" transform="translate(-96.505 -204.082)" fill="#ebebeb"/>
            <path id="Trazado_983000" data-name="Trazado 983000" d="M200.53,416.173a1.607,1.607,0,1,1,1.608-1.607,1.609,1.609,0,0,1-1.608,1.607" transform="translate(-99.861 -207.438)" fill="#fff"/>
            <path id="Trazado_983001" data-name="Trazado 983001" d="M239.809,400.916v25.709a1.328,1.328,0,0,1-1.325,1.324H225.132a1.327,1.327,0,0,1-1.32-1.324V400.916a1.326,1.326,0,0,1,1.32-1.321h13.352a1.327,1.327,0,0,1,1.325,1.321" transform="translate(-112.375 -200.72)" fill="#fff"/>
            <path id="Trazado_983002" data-name="Trazado 983002" d="M239.844,435.9a4.927,4.927,0,1,1-4.927-4.927,4.924,4.924,0,0,1,4.927,4.927" transform="translate(-115.481 -216.497)" fill="#ebebeb"/>
            <path id="Trazado_983003" data-name="Trazado 983003" d="M238.273,440.867a1.607,1.607,0,1,1,1.607-1.607,1.609,1.609,0,0,1-1.607,1.607" transform="translate(-118.837 -219.853)" fill="#fff"/>
            <path id="Trazado_983004" data-name="Trazado 983004" d="M239.844,411.209a4.927,4.927,0,1,1-4.927-4.927,4.924,4.924,0,0,1,4.927,4.927" transform="translate(-115.481 -204.082)" fill="#ebebeb"/>
            <path id="Trazado_983005" data-name="Trazado 983005" d="M238.273,416.173a1.607,1.607,0,1,1,1.607-1.607,1.609,1.609,0,0,1-1.607,1.607" transform="translate(-118.837 -207.438)" fill="#fff"/>
            <path id="Trazado_983006" data-name="Trazado 983006" d="M199.68,249.378a56.109,56.109,0,1,1,56.108-56.11,56.173,56.173,0,0,1-56.108,56.11m0-109.732A53.623,53.623,0,1,0,253.3,193.268a53.683,53.683,0,0,0-53.622-53.622" transform="translate(-72.033 -68.778)" fill="#fff"/>
            <path id="Trazado_983007" data-name="Trazado 983007" d="M256.607,115.295a1.46,1.46,0,1,1-1.461-1.461,1.461,1.461,0,0,1,1.461,1.461" transform="translate(-127.394 -57.051)" fill="#fff"/>
            <path id="Trazado_983008" data-name="Trazado 983008" d="M240.38,391.167a1.46,1.46,0,1,1-1.461-1.461,1.46,1.46,0,0,1,1.461,1.461" transform="translate(-119.236 -195.748)" fill="#fff"/>
            <path id="Trazado_983009" data-name="Trazado 983009" d="M115.984,369.814a1.46,1.46,0,1,1-1.461-1.461,1.46,1.46,0,0,1,1.461,1.461" transform="translate(-56.695 -185.013)" fill="#fff"/>
            <path id="Trazado_983010" data-name="Trazado 983010" d="M360.342,134.291a1.46,1.46,0,1,1-1.461-1.461,1.461,1.461,0,0,1,1.461,1.461" transform="translate(-179.548 -66.601)" fill="#fff"/>
            <path id="Trazado_983011" data-name="Trazado 983011" d="M410.61,202.707a1.461,1.461,0,1,1-1.461-1.461,1.461,1.461,0,0,1,1.461,1.461" transform="translate(-204.821 -100.998)" fill="#fff"/>
            <path id="Trazado_983012" data-name="Trazado 983012" d="M373.35,351.523a1.46,1.46,0,1,1-1.461-1.461,1.461,1.461,0,0,1,1.461,1.461" transform="translate(-186.088 -175.817)" fill="#fff"/>
            <path id="Trazado_983013" data-name="Trazado 983013" d="M124.5,149.811a1.575,1.575,0,1,1-1.575-1.575,1.575,1.575,0,0,1,1.575,1.575" transform="translate(-60.863 -74.347)" fill="#fff"/>
            <path id="Trazado_983014" data-name="Trazado 983014" d="M116.17,255.241a1.575,1.575,0,1,1-1.575-1.575,1.575,1.575,0,0,1,1.575,1.575" transform="translate(-56.674 -127.353)" fill="#fff"/>
            <path id="Trazado_983015" data-name="Trazado 983015" d="M255.366,132.779a1.243,1.243,0,0,1-1.243-1.243v-6.792a1.243,1.243,0,1,1,2.486,0v6.792a1.243,1.243,0,0,1-1.243,1.243" transform="translate(-127.614 -61.911)" fill="#fff"/>
            <path id="Trazado_983016" data-name="Trazado 983016" d="M150.062,169a1.239,1.239,0,0,1-.672-.2l-18.654-12.014a1.243,1.243,0,1,1,1.346-2.09l18.654,12.013a1.244,1.244,0,0,1-.674,2.289" transform="translate(-65.294 -77.496)" fill="#fff"/>
            <path id="Trazado_983017" data-name="Trazado 983017" d="M328.306,155.116a1.243,1.243,0,0,1-.88-2.122l12.135-12.134a1.243,1.243,0,1,1,1.758,1.758l-12.134,12.134a1.24,1.24,0,0,1-.879.364" transform="translate(-164.285 -70.455)" fill="#fff"/>
            <path id="Trazado_983018" data-name="Trazado 983018" d="M351.423,334.7a1.237,1.237,0,0,1-.782-.278l-13.915-11.292a1.243,1.243,0,1,1,1.567-1.93l13.914,11.292a1.243,1.243,0,0,1-.784,2.208" transform="translate(-168.912 -161.167)" fill="#fff"/>
            <path id="Trazado_983019" data-name="Trazado 983019" d="M124.707,341.286a1.243,1.243,0,0,1-.858-2.143l21.987-20.967a1.243,1.243,0,0,1,1.715,1.8l-21.987,20.967a1.24,1.24,0,0,1-.858.343" transform="translate(-61.924 -159.613)" fill="#fff"/>
            <path id="Trazado_983020" data-name="Trazado 983020" d="M240.667,371.215a1.287,1.287,0,0,1-.169-.011,1.243,1.243,0,0,1-1.065-1.4l1.476-10.889a1.243,1.243,0,1,1,2.464.334L241.9,370.139a1.244,1.244,0,0,1-1.231,1.076" transform="translate(-120.223 -179.727)" fill="#fff"/>
            <path id="Trazado_983021" data-name="Trazado 983021" d="M135.4,256.82h-9.529a1.243,1.243,0,0,1,0-2.486H135.4a1.243,1.243,0,0,1,0,2.486" transform="translate(-62.508 -127.689)" fill="#fff"/>
            <path id="Trazado_983022" data-name="Trazado 983022" d="M362.037,212.192a1.243,1.243,0,0,1-.336-2.44l18.109-5.086a1.243,1.243,0,0,1,.672,2.394l-18.109,5.085a1.231,1.231,0,0,1-.337.047" transform="translate(-181.244 -102.694)" fill="#fff"/>
            <path id="Trazado_983023" data-name="Trazado 983023" d="M446.214,166.275v37.55a1.94,1.94,0,0,1-1.935,1.934h-19.5a1.938,1.938,0,0,1-1.929-1.934v-37.55a1.937,1.937,0,0,1,1.929-1.929h19.5a1.939,1.939,0,0,1,1.935,1.929" transform="translate(-212.443 -82.446)" fill="#fff"/>
            <rect id="Rectángulo_407558" data-name="Rectángulo 407558" width="17.288" height="14.204" transform="translate(213.445 85.619)" fill="#ebebeb"/>
            <path id="Trazado_983024" data-name="Trazado 983024" d="M446.151,216.894a7.2,7.2,0,1,1-7.2-7.2,7.192,7.192,0,0,1,7.2,7.2" transform="translate(-216.922 -105.247)" fill="#ebebeb"/>
            <path id="Trazado_983025" data-name="Trazado 983025" d="M443.856,224.144A2.347,2.347,0,1,1,446.2,221.8a2.351,2.351,0,0,1-2.348,2.347" transform="translate(-221.823 -110.15)" fill="#fff"/>
            <rect id="Rectángulo_407559" data-name="Rectángulo 407559" width="2.238" height="3.315" transform="translate(225.655 122.081)" fill="#fff"/>
            <path id="Trazado_983026" data-name="Trazado 983026" d="M423.8,289.607H404.523v-7.293a1.991,1.991,0,0,1,1.989-1.989H423.3v-9.537a1,1,0,0,0-.994-.995H394.171a1.991,1.991,0,0,1-1.989-1.989v-3.729a1.991,1.991,0,0,1,1.989-1.989h28.136a1,1,0,0,0,.994-.994v-11.27h.995v11.27a1.991,1.991,0,0,1-1.989,1.989H394.171a1,1,0,0,0-.994.994V267.8a1,1,0,0,0,.994.994h28.136a1.991,1.991,0,0,1,1.989,1.989v10.532H406.512a1,1,0,0,0-.995.994v6.3H423.8Z" transform="translate(-197.024 -125.42)" fill="#fff"/>
            <path id="Trazado_983027" data-name="Trazado 983027" d="M435.73,334.37H418.989A1.991,1.991,0,0,1,417,332.381v-6.547h.995v6.547a1,1,0,0,0,.995.994H435.73Z" transform="translate(-209.502 -163.636)" fill="#fff"/>
            <path id="Trazado_983028" data-name="Trazado 983028" d="M453.583,327.766a.974.974,0,0,0-.974-.974h-1.8a.974.974,0,0,0,0,1.948h1.8a.974.974,0,0,0,.974-.974" transform="translate(-226.009 -164.117)" fill="#fff"/>
            <path id="Trazado_983029" data-name="Trazado 983029" d="M453.583,341.016a.974.974,0,0,0-.974-.974h-1.8a.974.974,0,0,0,0,1.948h1.8a.974.974,0,0,0,.974-.974" transform="translate(-226.009 -170.779)" fill="#fff"/>
            <path id="Trazado_983030" data-name="Trazado 983030" d="M453.125,326.027a.9.9,0,0,1,.9-.9h.311a.9.9,0,1,1,0,1.8h-.311a.9.9,0,0,1-.9-.9" transform="translate(-227.664 -163.28)" fill="#fff"/>
            <rect id="Rectángulo_407560" data-name="Rectángulo 407560" width="1.212" height="0.901" transform="translate(226.362 162.747)" fill="#fff"/>
            <path id="Trazado_983031" data-name="Trazado 983031" d="M453.125,339.278a.9.9,0,0,1,.9-.9h.311a.9.9,0,1,1,0,1.8h-.311a.9.9,0,0,1-.9-.9" transform="translate(-227.664 -169.942)" fill="#fff"/>
            <rect id="Rectángulo_407561" data-name="Rectángulo 407561" width="1.212" height="0.901" transform="translate(226.362 169.336)" fill="#fff"/>
            <rect id="Rectángulo_407562" data-name="Rectángulo 407562" width="0.99" height="6.651" transform="translate(214.633 91.983)" fill="#ff835e"/>
            <rect id="Rectángulo_407563" data-name="Rectángulo 407563" width="0.99" height="2.113" transform="translate(216.622 96.521)" fill="#ff835e"/>
            <rect id="Rectángulo_407564" data-name="Rectángulo 407564" width="0.99" height="4.91" transform="translate(218.61 93.724)" fill="#ff835e"/>
            <rect id="Rectángulo_407565" data-name="Rectángulo 407565" width="0.99" height="6.651" transform="translate(220.599 91.983)" fill="#ff835e"/>
            <rect id="Rectángulo_407566" data-name="Rectángulo 407566" width="0.99" height="9.168" transform="translate(222.588 89.466)" fill="#ff835e"/>
            <rect id="Rectángulo_407567" data-name="Rectángulo 407567" width="0.99" height="11.996" transform="translate(224.577 86.638)" fill="#ff835e"/>
            <rect id="Rectángulo_407568" data-name="Rectángulo 407568" width="0.99" height="6.651" transform="translate(226.566 91.983)" fill="#ff835e"/>
            <rect id="Rectángulo_407569" data-name="Rectángulo 407569" width="0.99" height="2.362" transform="translate(228.555 96.272)" fill="#ff835e"/>
            <rect id="Rectángulo_407570" data-name="Rectángulo 407570" width="53.428" height="4.31" transform="translate(176.155 56.202)" fill="#ebebeb"/>
            <path id="Trazado_983032" data-name="Trazado 983032" d="M407.849,36.145v37.55a1.94,1.94,0,0,1-1.935,1.934H350.273a1.938,1.938,0,0,1-1.929-1.934V36.145a1.938,1.938,0,0,1,1.929-1.929h55.641a1.939,1.939,0,0,1,1.935,1.929" transform="translate(-174.984 -17.022)" fill="#fff"/>
            <rect id="Rectángulo_407571" data-name="Rectángulo 407571" width="53.424" height="31.088" transform="translate(176.157 20.91)" fill="#ebebeb"/>
            <rect id="Rectángulo_407572" data-name="Rectángulo 407572" width="47.071" height="2.752" transform="translate(179.333 27.636)" fill="#3eb1ed"/>
            <path id="Trazado_983033" data-name="Trazado 983033" d="M407.793,122.867a1.533,1.533,0,0,1-1.533,1.533H339.712a1.533,1.533,0,0,1,0-3.066H406.26a1.533,1.533,0,0,1,1.533,1.533" transform="translate(-169.874 -60.822)" fill="#fff"/>
            <rect id="Rectángulo_407573" data-name="Rectángulo 407573" width="47.071" height="14.71" transform="translate(179.333 30.387)" fill="#dedede"/>
            <rect id="Rectángulo_407574" data-name="Rectángulo 407574" width="47.071" height="3.429" transform="translate(179.333 46.424)" fill="#dedede"/>
            <rect id="Rectángulo_407575" data-name="Rectángulo 407575" width="6.651" height="6.651" transform="translate(180.896 31.817)" fill="#ff835e"/>
            <rect id="Rectángulo_407576" data-name="Rectángulo 407576" width="34.979" height="6.651" transform="translate(189.598 31.817)" fill="#fff"/>
            <g id="Grupo_1115483" data-name="Grupo 1115483" transform="translate(179.658 20.91)" opacity="0.8" style="mix-blend-mode: soft-light;isolation: isolate">
              <g id="Grupo_1115482" data-name="Grupo 1115482">
                <g id="Grupo_1115481" data-name="Grupo 1115481" clip-path="url(#clip-path-3)">
                  <path id="Trazado_983034" data-name="Trazado 983034" d="M397.92,41.69,375.853,72.777H361.01L383.077,41.69Z" transform="translate(-361.01 -41.69)" fill="#fff"/>
                </g>
              </g>
            </g>
            <g id="Grupo_1115486" data-name="Grupo 1115486" transform="translate(197.886 20.91)" opacity="0.8" style="mix-blend-mode: soft-light;isolation: isolate">
              <g id="Grupo_1115485" data-name="Grupo 1115485">
                <g id="Grupo_1115484" data-name="Grupo 1115484" clip-path="url(#clip-path-4)">
                  <path id="Trazado_983035" data-name="Trazado 983035" d="M425.033,41.69,402.966,72.777h-5.3L419.738,41.69Z" transform="translate(-397.67 -41.69)" fill="#fff"/>
                </g>
              </g>
            </g>
            <path id="Trazado_983036" data-name="Trazado 983036" d="M73.811,216.956V248.5a4.991,4.991,0,0,1-4.977,4.976H48.381A4.992,4.992,0,0,1,43.4,248.5V216.956a4.992,4.992,0,0,1,4.977-4.977H68.833a4.992,4.992,0,0,1,4.977,4.977" transform="translate(-21.673 -106.394)" fill="#fff"/>
            <path id="Trazado_983037" data-name="Trazado 983037" d="M91.309,216.956V248.5a4.991,4.991,0,0,1-4.977,4.976H83.186a4.991,4.991,0,0,1-4.977-4.976V216.956a4.992,4.992,0,0,1,4.977-4.977h3.146a4.992,4.992,0,0,1,4.977,4.977" transform="translate(-39.172 -106.394)" fill="#ebebeb"/>
            <path id="Rectángulo_407579" data-name="Rectángulo 407579" d="M5.556,0h0a5.556,5.556,0,0,1,5.556,5.556v28.4a5.556,5.556,0,0,1-5.556,5.556h0A5.555,5.555,0,0,1,0,33.957V5.556A5.556,5.556,0,0,1,5.556,0Z" transform="translate(40.032 106.579)" fill="#a8d5ed"/>
            <path id="Trazado_983038" data-name="Trazado 983038" d="M61.162,233.284v17.935a1.942,1.942,0,0,1-1.937,1.936H39.7a1.941,1.941,0,0,1-1.931-1.936V233.284a1.94,1.94,0,0,1,1.931-1.931H59.225a1.941,1.941,0,0,1,1.937,1.931" transform="translate(-18.843 -116.135)" fill="#fff"/>
            <rect id="Rectángulo_407580" data-name="Rectángulo 407580" width="17.304" height="14.216" transform="translate(21.729 118.941)" fill="#ff835e"/>
            <rect id="Rectángulo_407581" data-name="Rectángulo 407581" width="17.306" height="2.166" transform="translate(21.729 113.052)" fill="#b8b8b8"/>
            <rect id="Rectángulo_407582" data-name="Rectángulo 407582" width="17.306" height="2.166" transform="translate(21.729 137.02)" fill="#b8b8b8"/>
            <path id="Trazado_983039" data-name="Trazado 983039" d="M48.2,253.1h.734v-2.535l-.8.161v-.41l.795-.16h.45V253.1h.734v.378H48.2Z" transform="translate(-24.05 -125.586)" fill="#fff"/>
            <path id="Trazado_983040" data-name="Trazado 983040" d="M54.17,253.035h1.569v.378H53.629v-.378q.256-.265.7-.711t.555-.575a2.113,2.113,0,0,0,.3-.41.726.726,0,0,0,.086-.331.552.552,0,0,0-.186-.432.7.7,0,0,0-.484-.167,1.5,1.5,0,0,0-.446.073,2.683,2.683,0,0,0-.5.223v-.454a3.589,3.589,0,0,1,.507-.165,1.878,1.878,0,0,1,.432-.056,1.239,1.239,0,0,1,.823.258.855.855,0,0,1,.307.69,1,1,0,0,1-.077.389,1.869,1.869,0,0,1-.279.433q-.055.065-.354.373t-.841.862" transform="translate(-26.814 -125.525)" fill="#fff"/>
            <path id="Trazado_983041" data-name="Trazado 983041" d="M59.863,252.1h.469v.565h-.469Zm0,1.791h.469v.565h-.469Z" transform="translate(-29.948 -126.563)" fill="#fff"/>
            <path id="Trazado_983042" data-name="Trazado 983042" d="M64.077,251.622a.863.863,0,0,1,.5.287.813.813,0,0,1,.181.539.915.915,0,0,1-.338.761,1.507,1.507,0,0,1-.961.27,2.315,2.315,0,0,1-.431-.041,3.011,3.011,0,0,1-.457-.123v-.434a1.531,1.531,0,0,0,.409.165,1.883,1.883,0,0,0,.465.056,1.061,1.061,0,0,0,.644-.167.57.57,0,0,0,.221-.485.558.558,0,0,0-.206-.459.891.891,0,0,0-.573-.166h-.387v-.369h.4a.835.835,0,0,0,.508-.132.449.449,0,0,0,.176-.381.463.463,0,0,0-.181-.393.85.85,0,0,0-.52-.137,2.117,2.117,0,0,0-.4.04,3.6,3.6,0,0,0-.465.125v-.4a4.424,4.424,0,0,1,.48-.107,2.731,2.731,0,0,1,.422-.035,1.287,1.287,0,0,1,.81.232.756.756,0,0,1,.3.629.7.7,0,0,1-.158.466.825.825,0,0,1-.45.264" transform="translate(-31.312 -125.525)" fill="#fff"/>
            <path id="Trazado_983043" data-name="Trazado 983043" d="M69.462,250.031a.963.963,0,0,1,.853.442,2.929,2.929,0,0,1,0,2.564,1.045,1.045,0,0,1-1.707,0,2.929,2.929,0,0,1,0-2.564.963.963,0,0,1,.853-.442m0,.356a.558.558,0,0,0-.522.342,3.094,3.094,0,0,0,0,2.052.571.571,0,0,0,1.046,0,3.1,3.1,0,0,0,0-2.052.56.56,0,0,0-.524-.342" transform="translate(-34.196 -125.525)" fill="#fff"/>
            <g id="Grupo_1115489" data-name="Grupo 1115489" transform="translate(21.729 118.941)" opacity="0.8" style="mix-blend-mode: soft-light;isolation: isolate">
              <g id="Grupo_1115488" data-name="Grupo 1115488">
                <g id="Grupo_1115487" data-name="Grupo 1115487" clip-path="url(#clip-path-5)">
                  <path id="Trazado_983044" data-name="Trazado 983044" d="M54.548,238.84,44.454,253.056H43.4V238.84Z" transform="translate(-43.4 -238.84)" fill="#fff"/>
                </g>
              </g>
            </g>
            <g id="Grupo_1115492" data-name="Grupo 1115492" transform="translate(26.169 118.941)" opacity="0.8" style="mix-blend-mode: soft-light;isolation: isolate">
              <g id="Grupo_1115491" data-name="Grupo 1115491">
                <g id="Grupo_1115490" data-name="Grupo 1115490" clip-path="url(#clip-path-6)">
                  <path id="Trazado_983045" data-name="Trazado 983045" d="M65.194,238.84V242.4l-7.568,10.661h-5.3L62.424,238.84Z" transform="translate(-52.33 -238.84)" fill="#fff"/>
                </g>
              </g>
            </g>
            <path id="Trazado_983046" data-name="Trazado 983046" d="M94.706,384.73V418.4a1.739,1.739,0,0,1-1.735,1.734h-49.9a1.738,1.738,0,0,1-1.73-1.734V384.73A1.737,1.737,0,0,1,43.074,383h49.9a1.738,1.738,0,0,1,1.735,1.729" transform="translate(-20.638 -192.377)" fill="#fff"/>
            <rect id="Rectángulo_407585" data-name="Rectángulo 407585" width="47.909" height="27.875" transform="translate(23.216 193.96)" fill="#ff835e"/>
            <rect id="Rectángulo_407586" data-name="Rectángulo 407586" width="47.909" height="9.07" transform="translate(23.216 212.766)" fill="#a8d5ed"/>
            <path id="Trazado_983047" data-name="Trazado 983047" d="M94.546,449.912a1.589,1.589,0,1,1-1.59-1.589,1.588,1.588,0,0,1,1.59,1.589" transform="translate(-45.787 -225.218)" fill="#ebebeb"/>
            <rect id="Rectángulo_407587" data-name="Rectángulo 407587" width="21.671" height="14.4" transform="translate(35.726 202.714) rotate(-0.088)" fill="#fff"/>
            <path id="Trazado_983048" data-name="Trazado 983048" d="M71.595,426.17l10.82-9.994,10.851,9.961Z" transform="translate(-35.846 -209.056)" fill="#fafafa"/>
            <path id="Trazado_983049" data-name="Trazado 983049" d="M93.222,407.251l-4.4,3.5-6.42,5.1-6.385-5.04-4.465-3.527,4.486-.008,12.8-.019Z" transform="translate(-35.825 -204.569)" fill="#3eb1ed"/>
            <path id="Trazado_983050" data-name="Trazado 983050" d="M93.378,399.074l-.044,7.528-6.42,5.1-6.385-5.04L80.575,399Z" transform="translate(-40.338 -200.42)" fill="#e8e8e8"/>
            <rect id="Rectángulo_407588" data-name="Rectángulo 407588" width="4.811" height="1.782" transform="translate(41.751 200.237)" fill="#fff"/>
            <rect id="Rectángulo_407589" data-name="Rectángulo 407589" width="9.613" height="1.782" transform="translate(41.751 203.148)" fill="#fff"/>
            <g id="Grupo_1115495" data-name="Grupo 1115495" transform="translate(23.216 193.96)" opacity="0.8" style="mix-blend-mode: soft-light;isolation: isolate">
              <g id="Grupo_1115494" data-name="Grupo 1115494">
                <g id="Grupo_1115493" data-name="Grupo 1115493" clip-path="url(#clip-path-7)">
                  <path id="Trazado_983051" data-name="Trazado 983051" d="M79.78,389.71,59.995,417.585H46.39v-1.75L64.937,389.71Z" transform="translate(-46.39 -389.71)" fill="#fff"/>
                </g>
              </g>
            </g>
            <g id="Grupo_1115498" data-name="Grupo 1115498" transform="translate(40.206 193.96)" opacity="0.8" style="mix-blend-mode: soft-light;isolation: isolate">
              <g id="Grupo_1115497" data-name="Grupo 1115497">
                <g id="Grupo_1115496" data-name="Grupo 1115496" clip-path="url(#clip-path-8)">
                  <path id="Trazado_983052" data-name="Trazado 983052" d="M105.636,389.71,85.851,417.585H80.56l19.785-27.875Z" transform="translate(-80.56 -389.71)" fill="#fff"/>
                </g>
              </g>
            </g>
            <g id="Grupo_1115501" data-name="Grupo 1115501" transform="translate(58.246 203.696)" opacity="0.8" style="mix-blend-mode: soft-light;isolation: isolate">
              <g id="Grupo_1115500" data-name="Grupo 1115500">
                <g id="Grupo_1115499" data-name="Grupo 1115499" clip-path="url(#clip-path-9)">
                  <path id="Trazado_983053" data-name="Trazado 983053" d="M129.719,409.29v7.454l-7.583,10.686h-5.3Z" transform="translate(-116.84 -409.29)" fill="#fff"/>
                </g>
              </g>
            </g>
            <path id="Trazado_983054" data-name="Trazado 983054" d="M390.815,463.177h-21.4l.63-1.68a10.755,10.755,0,0,1,16.2-5.043,10.821,10.821,0,0,1,3.142,3.391,10.474,10.474,0,0,1,.791,1.649Zm-17.579-2.486h13.749a8.35,8.35,0,0,0-2.158-2.2,8.269,8.269,0,0,0-9.437,0,8.343,8.343,0,0,0-2.154,2.2" transform="translate(-185.576 -228.339)" fill="#fff"/>
            <path id="Trazado_983055" data-name="Trazado 983055" d="M390.5,369.444v42.793a2.21,2.21,0,0,1-2.2,2.2H315.89a2.209,2.209,0,0,1-2.2-2.2V369.444a2.208,2.208,0,0,1,2.2-2.2H388.3a2.209,2.209,0,0,1,2.2,2.2" transform="translate(-157.563 -184.456)" fill="#fff"/>
            <path id="Trazado_983056" data-name="Trazado 983056" d="M390.513,370.308V413.1a1.353,1.353,0,0,1-1.352,1.352H316.753a1.348,1.348,0,0,1-1.343-1.352V370.308a1.344,1.344,0,0,1,1.343-1.348h72.408a1.35,1.35,0,0,1,1.352,1.348" transform="translate(-158.427 -185.318)" fill="#a8d5ed"/>
            <path id="Trazado_983057" data-name="Trazado 983057" d="M389.5,469.406H357.613a1.243,1.243,0,0,1,0-2.486H389.5a1.243,1.243,0,0,1,0,2.486" transform="translate(-179.02 -234.568)" fill="#fff"/>
            <path id="Trazado_983058" data-name="Trazado 983058" d="M390.813,406.024a10.38,10.38,0,1,1-10.38-10.38,10.38,10.38,0,0,1,10.38,10.38" transform="translate(-185.899 -198.733)" fill="#fff"/>
            <path id="Trazado_983059" data-name="Trazado 983059" d="M384.967,412.049v-4.421l3.829,2.211,3.829,2.21-3.829,2.211-3.829,2.211Z" transform="translate(-193.397 -204.758)" fill="#ff835e"/>
            <g id="Grupo_1115504" data-name="Grupo 1115504" transform="translate(159.639 183.642)" opacity="0.8" style="mix-blend-mode: soft-light;isolation: isolate">
              <g id="Grupo_1115503" data-name="Grupo 1115503">
                <g id="Grupo_1115502" data-name="Grupo 1115502" clip-path="url(#clip-path-10)">
                  <path id="Trazado_983060" data-name="Trazado 983060" d="M367.888,368.96l-9.646,13.595-4.455,6.27-1.1,1.556-5.669,7.991L335.6,414.453H320.75l32.3-45.493Z" transform="translate(-320.75 -368.96)" fill="#fff"/>
                </g>
              </g>
            </g>
            <g id="Grupo_1115507" data-name="Grupo 1115507" transform="translate(201.7 232.133)" opacity="0.8" style="mix-blend-mode: soft-light;isolation: isolate">
              <g id="Grupo_1115506" data-name="Grupo 1115506">
                <g id="Grupo_1115505" data-name="Grupo 1115505" clip-path="url(#clip-path-11)">
                  <path id="Trazado_983061" data-name="Trazado 983061" d="M406.379,466.48a9.311,9.311,0,0,1,.7,1.462h-1.74Z" transform="translate(-405.34 -466.48)" fill="#fff"/>
                </g>
              </g>
            </g>
            <g id="Grupo_1115510" data-name="Grupo 1115510" transform="translate(204.863 190.788)" opacity="0.8" style="mix-blend-mode: soft-light;isolation: isolate">
              <g id="Grupo_1115509" data-name="Grupo 1115509">
                <g id="Grupo_1115508" data-name="Grupo 1115508" clip-path="url(#clip-path-12)">
                  <path id="Trazado_983062" data-name="Trazado 983062" d="M438.924,383.33v20.909l-12.377,17.438H411.7Z" transform="translate(-411.7 -383.33)" fill="#fff"/>
                </g>
              </g>
            </g>
            <g id="Grupo_1115513" data-name="Grupo 1115513" transform="translate(177.872 183.642)" opacity="0.8" style="mix-blend-mode: soft-light;isolation: isolate">
              <g id="Grupo_1115512" data-name="Grupo 1115512">
                <g id="Grupo_1115511" data-name="Grupo 1115511" clip-path="url(#clip-path-13)">
                  <path id="Trazado_983063" data-name="Trazado 983063" d="M395.006,368.96l-12.5,17.6-4.132,5.823-.542.771-.005,0-6.678,9.408-8.443,11.889H357.42l9.91-13.963,3.789-5.335,3.506-4.943,4.669-6.579,10.418-14.674Z" transform="translate(-357.42 -368.96)" fill="#fff"/>
                </g>
              </g>
            </g>
            <g id="Grupo_1115516" data-name="Grupo 1115516" transform="translate(156.983 183.642)" opacity="0.8" style="mix-blend-mode: soft-light;isolation: isolate">
              <g id="Grupo_1115515" data-name="Grupo 1115515">
                <g id="Grupo_1115514" data-name="Grupo 1115514" clip-path="url(#clip-path-14)">
                  <path id="Trazado_983064" data-name="Trazado 983064" d="M331.049,368.96,315.41,390.992v-7.459l10.347-14.574Z" transform="translate(-315.41 -368.96)" fill="#fff"/>
                </g>
              </g>
            </g>
            <path id="Trazado_983065" data-name="Trazado 983065" d="M226.391,46.263V63.129A1.919,1.919,0,0,1,224.8,64.9a7.283,7.283,0,0,0-5.507,5.506A1.919,1.919,0,0,1,217.52,72H161.378a1.919,1.919,0,0,1-1.775-1.589A7.282,7.282,0,0,0,154.1,64.9a1.92,1.92,0,0,1-1.589-1.776V46.263a1.919,1.919,0,0,1,1.588-1.775,7.282,7.282,0,0,0,5.507-5.507,1.92,1.92,0,0,1,1.775-1.589H217.52A1.919,1.919,0,0,1,219.3,38.98a7.282,7.282,0,0,0,5.507,5.507,1.92,1.92,0,0,1,1.589,1.776" transform="translate(-76.526 -18.619)" fill="#fff"/>
            <path id="Trazado_983066" data-name="Trazado 983066" d="M170.293,63.211a1.9,1.9,0,1,1-1.9-1.9,1.9,1.9,0,0,1,1.9,1.9" transform="translate(-83.556 -30.644)" fill="#ebebeb"/>
            <path id="Trazado_983067" data-name="Trazado 983067" d="M170.293,80.318a1.9,1.9,0,1,1-1.9-1.9,1.9,1.9,0,0,1,1.9,1.9" transform="translate(-83.556 -39.245)" fill="#ebebeb"/>
            <path id="Trazado_983068" data-name="Trazado 983068" d="M161.84,71.4a1.9,1.9,0,1,1-1.9-1.9,1.9,1.9,0,0,1,1.9,1.9" transform="translate(-79.306 -34.759)" fill="#ebebeb"/>
            <path id="Trazado_983069" data-name="Trazado 983069" d="M178.746,71.4a1.9,1.9,0,1,1-1.9-1.9,1.9,1.9,0,0,1,1.9,1.9" transform="translate(-87.806 -34.759)" fill="#ebebeb"/>
            <path id="Trazado_983070" data-name="Trazado 983070" d="M283.536,63.211a1.9,1.9,0,1,1-1.9-1.9,1.9,1.9,0,0,1,1.9,1.9" transform="translate(-140.49 -30.644)" fill="#ebebeb"/>
            <path id="Trazado_983071" data-name="Trazado 983071" d="M283.536,80.318a1.9,1.9,0,1,1-1.9-1.9,1.9,1.9,0,0,1,1.9,1.9" transform="translate(-140.49 -39.245)" fill="#ebebeb"/>
            <path id="Trazado_983072" data-name="Trazado 983072" d="M275.083,71.4a1.9,1.9,0,1,1-1.9-1.9,1.9,1.9,0,0,1,1.9,1.9" transform="translate(-136.24 -34.759)" fill="#ebebeb"/>
            <path id="Trazado_983073" data-name="Trazado 983073" d="M291.988,71.4a1.9,1.9,0,1,1-1.9-1.9,1.9,1.9,0,0,1,1.9,1.9" transform="translate(-144.739 -34.759)" fill="#ebebeb"/>
            <rect id="Rectángulo_407598" data-name="Rectángulo 407598" width="40.694" height="24.544" transform="translate(92.576 23.531)" fill="#a8d5ed"/>
            <path id="Trazado_983074" data-name="Trazado 983074" d="M185.878,72.035s5.033-6.949,10.917-4.546,8.54,8.58,17.32,7.625c6.133-.667,8.511-6.651,12.46-6.475v13.27h-40.7Z" transform="translate(-93.303 -33.497)" fill="#3eb1ed"/>
            <path id="Trazado_983075" data-name="Trazado 983075" d="M243.78,73.966a2.327,2.327,0,1,1-2.328-2.328,2.328,2.328,0,0,1,2.328,2.328" transform="translate(-120.074 -35.837)" fill="#ff835e"/>
            <g id="Grupo_1115519" data-name="Grupo 1115519" transform="translate(92.685 23.531)" opacity="0.8" style="mix-blend-mode: soft-light;isolation: isolate">
              <g id="Grupo_1115518" data-name="Grupo 1115518">
                <g id="Grupo_1115517" data-name="Grupo 1115517" clip-path="url(#clip-path-15)">
                  <path id="Trazado_983076" data-name="Trazado 983076" d="M217.635,46.96,200.212,71.5H186.1L203.523,46.96Z" transform="translate(-186.1 -46.96)" fill="#fff"/>
                </g>
              </g>
            </g>
            <g id="Grupo_1115522" data-name="Grupo 1115522" transform="translate(110.014 23.531)" opacity="0.8" style="mix-blend-mode: soft-light;isolation: isolate">
              <g id="Grupo_1115521" data-name="Grupo 1115521">
                <g id="Grupo_1115520" data-name="Grupo 1115520" clip-path="url(#clip-path-16)">
                  <path id="Trazado_983077" data-name="Trazado 983077" d="M243.406,46.96,225.982,71.5H220.95L238.374,46.96Z" transform="translate(-220.95 -46.96)" fill="#fff"/>
                </g>
              </g>
            </g>
            <path id="Trazado_983078" data-name="Trazado 983078" d="M78.025,36.878V88.7a2.677,2.677,0,0,1-2.67,2.669H48.442A2.675,2.675,0,0,1,45.78,88.7V36.878a2.674,2.674,0,0,1,2.662-2.663H75.355a2.676,2.676,0,0,1,2.67,2.663" transform="translate(-22.868 -17.022)" fill="#fff"/>
            <rect id="Rectángulo_407601" data-name="Rectángulo 407601" width="23.863" height="43.538" transform="translate(27.104 21.686)" fill="#a8d5ed"/>
            <rect id="Rectángulo_407602" data-name="Rectángulo 407602" width="19.805" height="8.529" transform="translate(29.133 23.77)" fill="#3eb1ed"/>
            <rect id="Rectángulo_407603" data-name="Rectángulo 407603" width="19.805" height="30.534" transform="translate(29.133 32.299)" fill="#ebebeb"/>
            <path id="Trazado_983079" data-name="Trazado 983079" d="M78.022,137.187a2.446,2.446,0,1,1-2.446-2.446,2.445,2.445,0,0,1,2.446,2.446" transform="translate(-36.618 -67.562)" fill="#ebebeb"/>
            <path id="Trazado_983080" data-name="Trazado 983080" d="M78.148,59.475a5.062,5.062,0,1,1-5.062-5.062,5.063,5.063,0,0,1,5.062,5.062" transform="translate(-34.051 -27.177)" fill="#ff835e"/>
            <rect id="Rectángulo_407604" data-name="Rectángulo 407604" width="14.793" height="1.43" transform="translate(31.561 39.897)" fill="#fff"/>
            <rect id="Rectángulo_407605" data-name="Rectángulo 407605" width="14.793" height="1.43" transform="translate(31.561 43.456)" fill="#fff"/>
            <rect id="Rectángulo_407606" data-name="Rectángulo 407606" width="14.793" height="1.43" transform="translate(31.561 47.015)" fill="#fff"/>
            <rect id="Rectángulo_407607" data-name="Rectángulo 407607" width="14.793" height="1.43" transform="translate(31.561 50.574)" fill="#fff"/>
            <rect id="Rectángulo_407608" data-name="Rectángulo 407608" width="14.793" height="1.43" transform="translate(31.561 54.133)" fill="#fff"/>
            <rect id="Rectángulo_407609" data-name="Rectángulo 407609" width="14.793" height="1.43" transform="translate(31.561 57.691)" fill="#fff"/>
            <g id="Grupo_1115525" data-name="Grupo 1115525" transform="translate(27.104 21.686)" opacity="0.8" style="mix-blend-mode: soft-light;isolation: isolate">
              <g id="Grupo_1115524" data-name="Grupo 1115524">
                <g id="Grupo_1115523" data-name="Grupo 1115523" clip-path="url(#clip-path-17)">
                  <path id="Trazado_983081" data-name="Trazado 983081" d="M78.073,43.25v6.211L54.21,83.074V63.194L68.367,43.25Z" transform="translate(-54.21 -43.25)" fill="#fff"/>
                </g>
              </g>
            </g>
            <g id="Grupo_1115528" data-name="Grupo 1115528" transform="translate(27.686 32.431)" opacity="0.8" style="mix-blend-mode: soft-light;isolation: isolate">
              <g id="Grupo_1115527" data-name="Grupo 1115527">
                <g id="Grupo_1115526" data-name="Grupo 1115526" clip-path="url(#clip-path-18)">
                  <path id="Trazado_983082" data-name="Trazado 983082" d="M78.661,64.86v7.086L60.407,97.653H55.38Z" transform="translate(-55.38 -64.86)" fill="#fff"/>
                </g>
              </g>
            </g>
          </g>
        </g>
      </g>
    </g>
  </g>
</svg>
