<svg xmlns="http://www.w3.org/2000/svg" xmlns:xlink="http://www.w3.org/1999/xlink" width="118" height="118.001" viewBox="0 0 118 118.001">
  <defs>
    <filter id="Trazado_874925" x="0" y="0" width="118" height="118.001" filterUnits="userSpaceOnUse">
      <feOffset dy="3" input="SourceAlpha"/>
      <feGaussianBlur stdDeviation="3" result="blur"/>
      <feFlood flood-opacity="0.161"/>
      <feComposite operator="in" in2="blur"/>
      <feComposite in="SourceGraphic"/>
    </filter>
  </defs>
  <g id="Grupo_1115042" data-name="Grupo 1115042" transform="translate(-817.427 -2518.29)">
    <g transform="matrix(1, 0, 0, 1, 817.43, 2518.29)" filter="url(#Trazado_874925)">
      <g id="Trazado_874925-2" data-name="Trazado 874925" transform="translate(9 6)" fill="#68d5e9" opacity="0.859">
        <path d="M 50.00000381469727 98.50060272216797 C 43.45188903808594 98.50060272216797 37.10043334960938 97.21847534179688 31.1220760345459 94.68984222412109 C 25.34690475463867 92.24716186523438 20.15996170043945 88.74991607666016 15.70531845092773 84.2952880859375 C 11.25068950653076 79.84064483642578 7.753446578979492 74.65370178222656 5.310760974884033 68.87853240966797 C 2.782132387161255 62.90017318725586 1.500003814697266 56.5487174987793 1.500003814697266 50.00058746337891 C 1.500003814697266 43.45190048217773 2.782132387161255 37.10044479370117 5.310760974884033 31.1220874786377 C 7.753446578979492 25.34691619873047 11.25068950653076 20.15997314453125 15.70531845092773 15.70532989501953 C 20.15996170043945 11.25068664550781 25.34690475463867 7.753444194793701 31.1220760345459 5.310758590698242 C 37.10043334960938 2.782130002975464 43.45188903808594 1.500001311302185 50.00000381469727 1.500001311302185 C 56.54811859130859 1.500001311302185 62.89957427978516 2.782130002975464 68.8779296875 5.310758590698242 C 74.65310668945312 7.753444194793701 79.84004974365234 11.25068664550781 84.29469299316406 15.70532989501953 C 88.74932098388672 20.15997314453125 92.24655914306641 25.34691619873047 94.68924713134766 31.1220874786377 C 97.21787261962891 37.10044479370117 98.5 43.45190048217773 98.5 50.00001525878906 C 98.5 56.5487174987793 97.21787261962891 62.90017318725586 94.68924713134766 68.87853240966797 C 92.24655914306641 74.65370178222656 88.74932098388672 79.84064483642578 84.29469299316406 84.2952880859375 C 79.84004974365234 88.74991607666016 74.65310668945312 92.24716186523438 68.8779296875 94.68984222412109 C 62.89957427978516 97.21847534179688 56.54811859130859 98.50060272216797 50.00000381469727 98.50060272216797 Z" stroke="none"/>
        <path d="M 50.00000381469727 2.999992370605469 C 43.65372848510742 2.999992370605469 37.49886703491211 4.242256164550781 31.70640563964844 6.692253112792969 C 26.11003112792969 9.059318542480469 21.08334350585938 12.4486083984375 16.7659912109375 16.76597595214844 C 12.44861602783203 21.08335113525391 9.059326171875 26.11002349853516 6.692268371582031 31.70640563964844 C 4.242263793945312 37.49887084960938 3.000007629394531 43.65373229980469 3.000007629394531 50.00059509277344 C 3.000007629394531 56.34687042236328 4.242263793945312 62.50173187255859 6.692268371582031 68.294189453125 C 9.059326171875 73.89056396484375 12.44861602783203 78.91725158691406 16.7659912109375 83.23461151123047 C 21.08334350585938 87.55197906494141 26.11003112792969 90.94126892089844 31.70640563964844 93.30833435058594 C 37.49886703491211 95.75833129882812 43.65372848510742 97.00059509277344 50.00000381469727 97.00059509277344 C 56.34627914428711 97.00059509277344 62.50114059448242 95.75833129882812 68.29360198974609 93.30833435058594 C 73.88996887207031 90.94126892089844 78.91664886474609 87.55197906494141 83.23401641845703 83.23461151123047 C 87.5513916015625 78.91725158691406 90.94068145751953 73.89056396484375 93.3077392578125 68.294189453125 C 95.75774383544922 62.50173187255859 97 56.34687042236328 97 50.00000762939453 C 97 43.65373229980469 95.75774383544922 37.49887084960938 93.3077392578125 31.70640563964844 C 90.94068145751953 26.11002349853516 87.5513916015625 21.08335113525391 83.23401641845703 16.76597595214844 C 78.91664886474609 12.4486083984375 73.88996887207031 9.059318542480469 68.29360198974609 6.692253112792969 C 62.50114059448242 4.242256164550781 56.34627914428711 2.999992370605469 50.00000381469727 2.999992370605469 M 50.00000381469727 -7.62939453125e-06 C 77.61423492431641 -7.62939453125e-06 100 22.38576507568359 100 50.00000762939453 L 100 50.00059509277344 C 100 77.61483764648438 77.61423492431641 100.0005950927734 50.00000381469727 100.0005950927734 C 22.38575744628906 100.0005950927734 7.62939453125e-06 77.61483764648438 7.62939453125e-06 50.00059509277344 L 7.62939453125e-06 50.00000762939453 C 7.62939453125e-06 22.38576507568359 22.38575744628906 -7.62939453125e-06 50.00000381469727 -7.62939453125e-06 Z" stroke="none" fill="#fff"/>
      </g>
    </g>
    <g id="Grupo_1115056" data-name="Grupo 1115056" transform="translate(847.791 2545.654)">
      <path id="Trazado_980684" data-name="Trazado 980684" d="M64.894,410.761l4.14,7.171a2.167,2.167,0,1,0,3.754-2.167l-4.166-7.215-3.729,2.211Z" transform="translate(-57.889 -362.646)" fill="#c3cad2" fill-rule="evenodd"/>
      <path id="Trazado_980685" data-name="Trazado 980685" d="M64.894,416.109l4.14,7.171a2.155,2.155,0,0,0,1.108.94,2.167,2.167,0,0,0,1.1-3.107l-3.771-6.532Z" transform="translate(-57.889 -367.994)" fill="#d1d6dc" fill-rule="evenodd"/>
      <path id="Trazado_980686" data-name="Trazado 980686" d="M175.016,52.688l8.7-.579-3.7-11.665,9.392,8.313,4.06-7.948,2.538,9.905,8.193-6.653-3.859,10.553,5.767.45-5.983,3.951,5.637,5-7.2-.95,5.646,8.589-10.037-5.395L190.8,75.324l-2.64-11.256-5.8,4.983,1.033-6.334-6.4.093,4.495-5.882Z" transform="translate(-155.546 -36.205)" fill="#ffe259" fill-rule="evenodd"/>
      <path id="Trazado_980687" data-name="Trazado 980687" d="M175.016,67.9l8.7-.579L180.67,57.7l8.229,7.284,3.771-7.382,2.342,9.141,7.472-6.067-3.314,9.063,5.125.4-5.984,3.951,5.507,4.886-6.763-.893,5.022,7.64-8.936-4.8-2.819,7.569-2.431-10.364-5.267,4.523.77-4.716-6.4.093,4.495-5.882Z" transform="translate(-155.546 -51.419)" fill="#ffeb87" fill-rule="evenodd"/>
      <path id="Trazado_980688" data-name="Trazado 980688" d="M171.592,305.023l3,5.194.444-.256a3,3,0,1,0-3-5.194Z" transform="translate(-152.51 -270.255)" fill="#c3cad2" fill-rule="evenodd"/>
      <path id="Trazado_980689" data-name="Trazado 980689" d="M171.592,305.023l2.37,4.1.444-.256a2.424,2.424,0,1,0-2.37-4.1Z" transform="translate(-152.51 -270.256)" fill="#d1d6dc" fill-rule="evenodd"/>
      <path id="Trazado_980690" data-name="Trazado 980690" d="M22.046,283.184l-3.759,2.17a4.839,4.839,0,0,1-4.839-8.382L17.2,274.8c3.847-2.221,5.089-6.153,6.623-9.05a1.657,1.657,0,0,1,2.9-.053l7.961,13.789a1.657,1.657,0,0,1-1.5,2.485c-3.276-.12-7.3-1.01-11.144,1.208Z" transform="translate(-10.123 -235.232)" fill="#ffe259" fill-rule="evenodd"/>
      <path id="Trazado_980691" data-name="Trazado 980691" d="M11.295,282.736a4.857,4.857,0,0,1,2.156-5.765L17.2,274.8c3.847-2.221,5.089-6.153,6.623-9.05a1.657,1.657,0,0,1,2.9-.057l7.039,12.192a1.657,1.657,0,0,1-1.5,2.485c-3.276-.12-7.3-1.01-11.144,1.208l-3.759,2.17a4.858,4.858,0,0,1-6.071-1.016Z" transform="translate(-10.126 -235.231)" fill="#ffeb87" fill-rule="evenodd"/>
      <path id="Trazado_980692" data-name="Trazado 980692" d="M22.041,361l-3.754,2.167a4.839,4.839,0,0,1-4.839-8.382l3.754-2.167L22.041,361Z" transform="translate(-10.123 -313.041)" fill="#ff6b84" fill-rule="evenodd"/>
      <path id="Trazado_980693" data-name="Trazado 980693" d="M11.295,360.547a4.857,4.857,0,0,1,2.156-5.765l3.754-2.167,3.915,6.781-3.754,2.167A4.858,4.858,0,0,1,11.295,360.547Z" transform="translate(-10.126 -313.041)" fill="#ff8298" fill-rule="evenodd"/>
      <path id="Trazado_980694" data-name="Trazado 980694" d="M124.055,265.754a1.657,1.657,0,0,1,2.9-.053l7.961,13.789a1.657,1.657,0,0,1-1.5,2.485Z" transform="translate(-110.353 -235.231)" fill="#ff6b84" fill-rule="evenodd"/>
      <path id="Trazado_980695" data-name="Trazado 980695" d="M124.055,265.754a1.657,1.657,0,0,1,2.9-.06l7.041,12.2a1.657,1.657,0,0,1-1.5,2.485Z" transform="translate(-110.353 -235.231)" fill="#ff8298" fill-rule="evenodd"/>
      <path id="Trazado_980696" data-name="Trazado 980696" d="M40.479,17.824a.9.9,0,0,1,.252.694l-.464,7.63a.8.8,0,0,1-.8.749h-.356a.8.8,0,0,1-.8-.749l-.464-7.63a.929.929,0,0,1,.929-.986H39.8a.9.9,0,0,1,.678.292Zm.162,11.531a1.349,1.349,0,1,1-1.35-1.349A1.349,1.349,0,0,1,40.641,29.355ZM60.178,37.73a.9.9,0,0,1-.808.5.873.873,0,0,1-.4-.1l-5.982-3a.905.905,0,1,1,.814-1.617l5.981,3a.908.908,0,0,1,.4,1.215ZM54.022,17.2a.91.91,0,0,1,.475-1.191l3.787-1.64A.906.906,0,0,1,59,16.036l-3.793,1.64a.87.87,0,0,1-.355.074.906.906,0,0,1-.835-.546ZM46.576,43.39a.9.9,0,0,1-.5,1.178.888.888,0,0,1-.337.066.907.907,0,0,1-.841-.568l-1.466-3.649a.905.905,0,1,1,1.68-.676l1.467,3.65ZM34.085,38.406l-1.761,6.015a.907.907,0,0,1-.869.652.921.921,0,0,1-.255-.037.905.905,0,0,1-.614-1.123l1.76-6.016a.906.906,0,0,1,1.739.509ZM19.215,10.431a.9.9,0,0,1,1.246-.291l6.282,3.905a.906.906,0,0,1-.479,1.675.9.9,0,0,1-.476-.137l-6.282-3.905a.9.9,0,0,1-.29-1.247ZM45.268,8.169l1.518-4.555a.906.906,0,0,1,1.718.573L46.986,8.742a.905.905,0,1,1-1.718-.573Zm12.269,16.86a.905.905,0,1,1,.06,1.81l-3.6.114h-.033a.905.905,0,0,1-.027-1.81l3.6-.113ZM33.279,4.152a.906.906,0,1,1,1.741-.5l1.434,4.993a.9.9,0,0,1-.619,1.12.933.933,0,0,1-.251.035.906.906,0,0,1-.869-.655L33.279,4.152ZM13.486,24.345a.906.906,0,0,1,.906-.905h7.753a.905.905,0,1,1,0,1.811H14.392A.905.905,0,0,1,13.486,24.345ZM26.771,48.47a.758.758,0,0,1-.244.255l-8.716-15.1a.763.763,0,0,1,.342-.084h.017a.714.714,0,0,1,.648.376l7.962,13.789a.713.713,0,0,1-.008.763Zm-2.547.243.215.016-7.677-13.3c-.031.064-.061.127-.092.192-1.195,2.495-2.537,5.3-5.372,7.242l3.97,6.877c3.1-1.482,6.2-1.243,8.956-1.03Zm-7.108,7.853a1.262,1.262,0,0,1-2.186,1.262L12.4,53.448l2.186-1.262Zm-6.4-4.233a3.934,3.934,0,0,1-3.935-6.814L9.747,43.8l3.934,6.814-2.97,1.715ZM24.566,38.085a2.081,2.081,0,0,0-1.228.042l2.056,3.56a2.089,2.089,0,0,0-.828-3.6Zm1.743,5.187a3.906,3.906,0,0,0-3.885-6.729l-2.038-3.53a2.53,2.53,0,0,0-2.217-1.281H18.12A2.529,2.529,0,0,0,15.9,33.094c-.3.558-.572,1.136-.865,1.749-1.184,2.472-2.526,5.274-5.41,6.941L5.872,43.951A5.738,5.738,0,0,0,7.259,54.469a5.8,5.8,0,0,0,1.5.2A5.666,5.666,0,0,0,10.8,54.29l2.566,4.444a3.073,3.073,0,0,0,5.324-3.073l-2.509-4.342c2.648-1.207,5.428-.992,7.909-.8.678.052,1.317.1,1.949.125A2.563,2.563,0,0,0,28.346,46.8l-2.037-3.53ZM42.06,32.254l6.889,3.7-3.682-5.6a.9.9,0,0,1,.875-1.394l4.267.564-3.426-3.04a.906.906,0,0,1,.1-1.433l3.784-2.5-3.138-.244a.906.906,0,0,1-.78-1.214l2.732-7.47-5.645,4.583a.905.905,0,0,1-1.449-.477l-1.943-7.586-2.97,5.815a.9.9,0,0,1-1.406.266L29.33,10.083l2.707,8.542a.907.907,0,0,1-.8,1.177l-6.006.4,4.214,2.758a.906.906,0,0,1,.223,1.308l-3.362,4.4,4.531-.066a.9.9,0,0,1,.906,1.051l-.632,3.883,3.918-3.365a.906.906,0,0,1,.591-.218A.928.928,0,0,1,35.9,30a.906.906,0,0,1,.6.654l1.956,8.339,2.329-6.254a.906.906,0,0,1,1.277-.482Zm5.807-1.239,5.235.691a.905.905,0,0,0,.719-1.575l-4.753-4.218,5-3.3a.907.907,0,0,0-.426-1.66l-4.58-.356,3.449-9.432a.905.905,0,0,0-1.421-1.014l-7.1,5.761L41.805,7.375a.9.9,0,0,0-1.683-.187l-3.528,6.907L28.078,6.556a.905.905,0,0,0-1.463.952l3.347,10.565-7.552.5a.905.905,0,0,0-.435,1.66l5.661,3.707-3.9,5.109a.905.905,0,0,0,.732,1.455l5.315-.078L28.92,35.7a.906.906,0,0,0,1.484.832l4.673-4.011,2.3,9.8a.909.909,0,0,0,.825.7h.058a.9.9,0,0,0,.848-.589l3.012-8.089,9.123,4.9a.905.905,0,0,0,1.185-1.295l-4.559-6.935Z" transform="translate(-3.002 -2.995)" fill-rule="evenodd"/>
    </g>
  </g>
</svg>
