<svg xmlns="http://www.w3.org/2000/svg" xmlns:xlink="http://www.w3.org/1999/xlink" width="118" height="118.001" viewBox="0 0 118 118.001">
  <defs>
    <filter id="Trazado_874925" x="0" y="0" width="118" height="118.001" filterUnits="userSpaceOnUse">
      <feOffset dy="3" input="SourceAlpha"/>
      <feGaussianBlur stdDeviation="3" result="blur"/>
      <feFlood flood-opacity="0.161"/>
      <feComposite operator="in" in2="blur"/>
      <feComposite in="SourceGraphic"/>
    </filter>
  </defs>
  <g id="Grupo_1115043" data-name="Grupo 1115043" transform="translate(-817.427 -2518.29)">
    <g transform="matrix(1, 0, 0, 1, 817.43, 2518.29)" filter="url(#Trazado_874925)">
      <g id="Trazado_874925-2" data-name="Trazado 874925" transform="translate(9 6)" fill="#68d5e9" opacity="0.859">
        <path d="M 50.00000381469727 98.50060272216797 C 43.45188903808594 98.50060272216797 37.10043334960938 97.21847534179688 31.1220760345459 94.68984222412109 C 25.34690475463867 92.24716186523438 20.15996170043945 88.74991607666016 15.70531845092773 84.2952880859375 C 11.25068950653076 79.84064483642578 7.753446578979492 74.65370178222656 5.310760974884033 68.87853240966797 C 2.782132387161255 62.90017318725586 1.500003814697266 56.5487174987793 1.500003814697266 50.00058746337891 C 1.500003814697266 43.45190048217773 2.782132387161255 37.10044479370117 5.310760974884033 31.1220874786377 C 7.753446578979492 25.34691619873047 11.25068950653076 20.15997314453125 15.70531845092773 15.70532989501953 C 20.15996170043945 11.25068664550781 25.34690475463867 7.753444194793701 31.1220760345459 5.310758590698242 C 37.10043334960938 2.782130002975464 43.45188903808594 1.500001311302185 50.00000381469727 1.500001311302185 C 56.54811859130859 1.500001311302185 62.89957427978516 2.782130002975464 68.8779296875 5.310758590698242 C 74.65310668945312 7.753444194793701 79.84004974365234 11.25068664550781 84.29469299316406 15.70532989501953 C 88.74932098388672 20.15997314453125 92.24655914306641 25.34691619873047 94.68924713134766 31.1220874786377 C 97.21787261962891 37.10044479370117 98.5 43.45190048217773 98.5 50.00001525878906 C 98.5 56.5487174987793 97.21787261962891 62.90017318725586 94.68924713134766 68.87853240966797 C 92.24655914306641 74.65370178222656 88.74932098388672 79.84064483642578 84.29469299316406 84.2952880859375 C 79.84004974365234 88.74991607666016 74.65310668945312 92.24716186523438 68.8779296875 94.68984222412109 C 62.89957427978516 97.21847534179688 56.54811859130859 98.50060272216797 50.00000381469727 98.50060272216797 Z" stroke="none"/>
        <path d="M 50.00000381469727 2.999992370605469 C 43.65372848510742 2.999992370605469 37.49886703491211 4.242256164550781 31.70640563964844 6.692253112792969 C 26.11003112792969 9.059318542480469 21.08334350585938 12.4486083984375 16.7659912109375 16.76597595214844 C 12.44861602783203 21.08335113525391 9.059326171875 26.11002349853516 6.692268371582031 31.70640563964844 C 4.242263793945312 37.49887084960938 3.000007629394531 43.65373229980469 3.000007629394531 50.00059509277344 C 3.000007629394531 56.34687042236328 4.242263793945312 62.50173187255859 6.692268371582031 68.294189453125 C 9.059326171875 73.89056396484375 12.44861602783203 78.91725158691406 16.7659912109375 83.23461151123047 C 21.08334350585938 87.55197906494141 26.11003112792969 90.94126892089844 31.70640563964844 93.30833435058594 C 37.49886703491211 95.75833129882812 43.65372848510742 97.00059509277344 50.00000381469727 97.00059509277344 C 56.34627914428711 97.00059509277344 62.50114059448242 95.75833129882812 68.29360198974609 93.30833435058594 C 73.88996887207031 90.94126892089844 78.91664886474609 87.55197906494141 83.23401641845703 83.23461151123047 C 87.5513916015625 78.91725158691406 90.94068145751953 73.89056396484375 93.3077392578125 68.294189453125 C 95.75774383544922 62.50173187255859 97 56.34687042236328 97 50.00000762939453 C 97 43.65373229980469 95.75774383544922 37.49887084960938 93.3077392578125 31.70640563964844 C 90.94068145751953 26.11002349853516 87.5513916015625 21.08335113525391 83.23401641845703 16.76597595214844 C 78.91664886474609 12.4486083984375 73.88996887207031 9.059318542480469 68.29360198974609 6.692253112792969 C 62.50114059448242 4.242256164550781 56.34627914428711 2.999992370605469 50.00000381469727 2.999992370605469 M 50.00000381469727 -7.62939453125e-06 C 77.61423492431641 -7.62939453125e-06 100 22.38576507568359 100 50.00000762939453 L 100 50.00059509277344 C 100 77.61483764648438 77.61423492431641 100.0005950927734 50.00000381469727 100.0005950927734 C 22.38575744628906 100.0005950927734 7.62939453125e-06 77.61483764648438 7.62939453125e-06 50.00059509277344 L 7.62939453125e-06 50.00000762939453 C 7.62939453125e-06 22.38576507568359 22.38575744628906 -7.62939453125e-06 50.00000381469727 -7.62939453125e-06 Z" stroke="none" fill="#fff"/>
      </g>
    </g>
    <g id="Grupo_1115057" data-name="Grupo 1115057" transform="translate(852.736 2550.597)">
      <path id="Trazado_980697" data-name="Trazado 980697" d="M77.238,134.685,52.814,148.757l-7.79-7.79L59.1,116.543Zm0,0" transform="translate(-40.857 -105.757)" fill="#72d8ff"/>
      <path id="Trazado_980698" data-name="Trazado 980698" d="M167.6,121.278l16.136,16.136,4.733-2.727-18.142-18.142Zm0,0" transform="translate(-152.093 -105.758)" fill="#fff"/>
      <path id="Trazado_980699" data-name="Trazado 980699" d="M11.615,382.07l1.628-1.628,7.79,7.79L19.4,389.859a5.508,5.508,0,0,1-7.79-7.79Zm0,0" transform="translate(-9.076 -345.231)" fill="#ff5d5d"/>
      <path id="Trazado_980700" data-name="Trazado 980700" d="M97.848,264.867a.926.926,0,1,0-.654-.271A.932.932,0,0,0,97.848,264.867Zm0,0" transform="translate(-87.952 -238.674)"/>
      <path id="Trazado_980701" data-name="Trazado 980701" d="M18.893,106.815a.925.925,0,0,0-1.456.192l-6.493,11.269a.925.925,0,1,0,1.6.924l3.163-5.489,14.428,14.428-18.03,10.388L5.323,131.74l3.5-6.067a.926.926,0,1,0-1.6-.924l-3.789,6.576-1.542,1.542a6.434,6.434,0,0,0,9.1,9.1l.974-.974,1.6,1.6a5.062,5.062,0,0,0,7.329-6.98l15.961-9.2a.926.926,0,0,0,.192-1.457Zm-15.7,33.842a4.583,4.583,0,0,1,0-6.481l.974-.974,6.481,6.481-.974.974A4.588,4.588,0,0,1,3.193,140.657Zm16.21-3.918a3.211,3.211,0,1,1-4.541,4.541l-1.4-1.4,5.762-3.32Zm12.4-9.556-.02-.022L16.668,112.05l1.77-3.073,16.435,16.435Zm0,0" transform="translate(0 -96.683)"/>
      <path id="Trazado_980702" data-name="Trazado 980702" d="M246.732,10.548a.924.924,0,0,0,1.138-.646l1.137-4.124.789.789a.926.926,0,0,0,1.536-.372l1.6-4.988a.926.926,0,1,0-1.762-.566l-1.138,3.545-.841-.841a.925.925,0,0,0-1.547.409l-1.56,5.656a.926.926,0,0,0,.646,1.138Zm0,0" transform="translate(-223.28 0.001)"/>
      <path id="Trazado_980703" data-name="Trazado 980703" d="M400.048,159.346a.926.926,0,0,0-1.257-.366l-6.583,3.616a.926.926,0,0,0-.209,1.466l1.811,1.811-4.348,1.087a.926.926,0,1,0,.449,1.8l5.933-1.483a.925.925,0,0,0,.43-1.552l-2.095-2.095,5.5-3.022a.926.926,0,0,0,.365-1.257Zm0,0" transform="translate(-352.781 -144.163)"/>
      <path id="Trazado_980704" data-name="Trazado 980704" d="M458.209,95.916a.924.924,0,1,0-.271-.654A.928.928,0,0,0,458.209,95.916Zm0,0" transform="translate(-415.555 -85.605)"/>
      <path id="Trazado_980705" data-name="Trazado 980705" d="M357.056,112.871a.925.925,0,0,0-1.24-.42l-3.455,1.705a.926.926,0,0,0-.245,1.484l1.307,1.307-4.353,2.144a.926.926,0,0,0,.818,1.661l5.512-2.715a.925.925,0,0,0,.245-1.485l-1.308-1.308,2.3-1.134a.926.926,0,0,0,.42-1.24Zm0,0" transform="translate(-316.295 -101.956)"/>
      <path id="Trazado_980706" data-name="Trazado 980706" d="M310.842,13.479a.925.925,0,0,0,1.27-.317l3.427-5.71,1.8,1.8a.925.925,0,0,0,1.425-.139l5.13-7.67A.925.925,0,1,0,322.353.416l-4.5,6.732L316.011,5.3a.926.926,0,0,0-1.449.178l-4.038,6.728a.925.925,0,0,0,.317,1.27Zm0,0" transform="translate(-281.665 -0.004)"/>
    </g>
  </g>
</svg>
