<svg xmlns="http://www.w3.org/2000/svg" xmlns:xlink="http://www.w3.org/1999/xlink" width="118" height="118.001" viewBox="0 0 118 118.001">
  <defs>
    <filter id="Trazado_874925" x="0" y="0" width="118" height="118.001" filterUnits="userSpaceOnUse">
      <feOffset dy="3" input="SourceAlpha"/>
      <feGaussianBlur stdDeviation="3" result="blur"/>
      <feFlood flood-opacity="0.161"/>
      <feComposite operator="in" in2="blur"/>
      <feComposite in="SourceGraphic"/>
    </filter>
  </defs>
  <g id="Grupo_1115044" data-name="Grupo 1115044" transform="translate(-817.427 -2518.29)">
    <g transform="matrix(1, 0, 0, 1, 817.43, 2518.29)" filter="url(#Trazado_874925)">
      <g id="Trazado_874925-2" data-name="Trazado 874925" transform="translate(9 6)" fill="#68d5e9" opacity="0.859">
        <path d="M 50.00000381469727 98.50060272216797 C 43.45188903808594 98.50060272216797 37.10043334960938 97.21847534179688 31.1220760345459 94.68984222412109 C 25.34690475463867 92.24716186523438 20.15996170043945 88.74991607666016 15.70531845092773 84.2952880859375 C 11.25068950653076 79.84064483642578 7.753446578979492 74.65370178222656 5.310760974884033 68.87853240966797 C 2.782132387161255 62.90017318725586 1.500003814697266 56.5487174987793 1.500003814697266 50.00058746337891 C 1.500003814697266 43.45190048217773 2.782132387161255 37.10044479370117 5.310760974884033 31.1220874786377 C 7.753446578979492 25.34691619873047 11.25068950653076 20.15997314453125 15.70531845092773 15.70532989501953 C 20.15996170043945 11.25068664550781 25.34690475463867 7.753444194793701 31.1220760345459 5.310758590698242 C 37.10043334960938 2.782130002975464 43.45188903808594 1.500001311302185 50.00000381469727 1.500001311302185 C 56.54811859130859 1.500001311302185 62.89957427978516 2.782130002975464 68.8779296875 5.310758590698242 C 74.65310668945312 7.753444194793701 79.84004974365234 11.25068664550781 84.29469299316406 15.70532989501953 C 88.74932098388672 20.15997314453125 92.24655914306641 25.34691619873047 94.68924713134766 31.1220874786377 C 97.21787261962891 37.10044479370117 98.5 43.45190048217773 98.5 50.00001525878906 C 98.5 56.5487174987793 97.21787261962891 62.90017318725586 94.68924713134766 68.87853240966797 C 92.24655914306641 74.65370178222656 88.74932098388672 79.84064483642578 84.29469299316406 84.2952880859375 C 79.84004974365234 88.74991607666016 74.65310668945312 92.24716186523438 68.8779296875 94.68984222412109 C 62.89957427978516 97.21847534179688 56.54811859130859 98.50060272216797 50.00000381469727 98.50060272216797 Z" stroke="none"/>
        <path d="M 50.00000381469727 2.999992370605469 C 43.65372848510742 2.999992370605469 37.49886703491211 4.242256164550781 31.70640563964844 6.692253112792969 C 26.11003112792969 9.059318542480469 21.08334350585938 12.4486083984375 16.7659912109375 16.76597595214844 C 12.44861602783203 21.08335113525391 9.059326171875 26.11002349853516 6.692268371582031 31.70640563964844 C 4.242263793945312 37.49887084960938 3.000007629394531 43.65373229980469 3.000007629394531 50.00059509277344 C 3.000007629394531 56.34687042236328 4.242263793945312 62.50173187255859 6.692268371582031 68.294189453125 C 9.059326171875 73.89056396484375 12.44861602783203 78.91725158691406 16.7659912109375 83.23461151123047 C 21.08334350585938 87.55197906494141 26.11003112792969 90.94126892089844 31.70640563964844 93.30833435058594 C 37.49886703491211 95.75833129882812 43.65372848510742 97.00059509277344 50.00000381469727 97.00059509277344 C 56.34627914428711 97.00059509277344 62.50114059448242 95.75833129882812 68.29360198974609 93.30833435058594 C 73.88996887207031 90.94126892089844 78.91664886474609 87.55197906494141 83.23401641845703 83.23461151123047 C 87.5513916015625 78.91725158691406 90.94068145751953 73.89056396484375 93.3077392578125 68.294189453125 C 95.75774383544922 62.50173187255859 97 56.34687042236328 97 50.00000762939453 C 97 43.65373229980469 95.75774383544922 37.49887084960938 93.3077392578125 31.70640563964844 C 90.94068145751953 26.11002349853516 87.5513916015625 21.08335113525391 83.23401641845703 16.76597595214844 C 78.91664886474609 12.4486083984375 73.88996887207031 9.059318542480469 68.29360198974609 6.692253112792969 C 62.50114059448242 4.242256164550781 56.34627914428711 2.999992370605469 50.00000381469727 2.999992370605469 M 50.00000381469727 -7.62939453125e-06 C 77.61423492431641 -7.62939453125e-06 100 22.38576507568359 100 50.00000762939453 L 100 50.00059509277344 C 100 77.61483764648438 77.61423492431641 100.0005950927734 50.00000381469727 100.0005950927734 C 22.38575744628906 100.0005950927734 7.62939453125e-06 77.61483764648438 7.62939453125e-06 50.00059509277344 L 7.62939453125e-06 50.00000762939453 C 7.62939453125e-06 22.38576507568359 22.38575744628906 -7.62939453125e-06 50.00000381469727 -7.62939453125e-06 Z" stroke="none" fill="#fff"/>
      </g>
    </g>
    <g id="Grupo_1115058" data-name="Grupo 1115058" transform="translate(839.686 2538.212)">
      <g id="Grupo_1115058-2" data-name="Grupo 1115058" transform="translate(40.747 31.25)">
        <path id="Trazado_980707" data-name="Trazado 980707" d="M35.619,28.489c-.058-.254-.1-.486-.139-.659Z" transform="translate(-35.48 -27.83)" fill="#a8a6c2"/>
      </g>
      <g id="Grupo_1115059" data-name="Grupo 1115059" transform="translate(41.071 32.811)">
        <path id="Trazado_980708" data-name="Trazado 980708" d="M36.061,30.6c-.092-.474-.2-.948-.3-1.422C35.853,29.619,35.957,30.1,36.061,30.6Z" transform="translate(-35.76 -29.18)" fill="#a8a6c2"/>
      </g>
      <g id="Grupo_1115060" data-name="Grupo 1115060" transform="translate(28.919 7.076)">
        <path id="Trazado_980709" data-name="Trazado 980709" d="M38.026,35.917h-10.3L25.25,32.668c.023-.162.046-.312.069-.474q.33-2.046.659-4.474c.428-3.122.867-6.741,1.318-10.9C28.152,9,29.169,6.342,30.314,7.024a.379.379,0,0,1,.092.069c.613.451,1.26,1.85,1.931,3.908.058.173.116.347.173.532.035.116.081.243.116.382.081.243.15.486.22.74s.15.509.22.775.15.532.22.809c.139.52.277,1.052.428,1.619.809,3.249,1.653,7.122,2.52,11.192.058.289.116.578.185.879s.116.59.185.879c.116.59.243,1.179.37,1.781a.416.416,0,0,1,.023.127l-.162.023.994,4.289Z" transform="translate(-25.25 -6.921)" fill="#a8a6c2"/>
      </g>
      <g id="Grupo_1115061" data-name="Grupo 1115061" transform="translate(41.568 23.897)">
        <path id="Trazado_980710" data-name="Trazado 980710" d="M36.19,32.754c.012.012.012.012.012.023v-.023Zm15.979-7.134-3.122-2.336L46.353,21.47c-.474,1.538-2.937,8.822-3.422,10.891-1.017,4.243-2.1,9.469-3.318,15.169,2.393,8.81,4.752,13.019,6.833,4.058,1.642-7.064,3.029-13.886,4.289-19.667.173-.763.335-1.515.5-2.243.243-1.075.474-2.1.717-3.087.069-.335.15-.659.231-.971Z" transform="translate(-36.19 -21.47)" fill="#a8a6c2"/>
      </g>
      <g id="Grupo_1115062" data-name="Grupo 1115062" transform="translate(56.598 18.22)">
        <path id="Trazado_980711" data-name="Trazado 980711" d="M49.19,31.856H61.272c-1.8-7.249-5.11-16.175-7.423-15.227-1.954.809-3.411,10.14-4.659,15.227Z" transform="translate(-49.19 -16.56)" fill="#f37a2f"/>
      </g>
      <path id="Trazado_980712" data-name="Trazado 980712" d="M10.392,33.266l-7.642.439S7.386,24.421,10.392,33.266Z" transform="translate(0.155 3.673)" fill="#f37a2f"/>
      <path id="Trazado_980713" data-name="Trazado 980713" d="M9.36,32.823l9.666-.543c-3.711,25.2-6.486,13.446-9.065,2.682-.2-.809-.393-1.526-.6-2.139Z" transform="translate(1.187 4.115)" fill="#ffeba8"/>
      <path id="Trazado_980714" data-name="Trazado 980714" d="M27.155,26.9c.555,2.5-.913.983-.347,3.7L23.27,44.126l-2,.335-3.55-9.041c.1-.694.208-1.422.312-2.174.439-3.18.89-6.891,1.353-11.169,1.919-17.6,4.694-9.041,7.77,4.821Z" transform="translate(2.493 0.976)" fill="#ffeba8"/>
      <path id="Trazado_980715" data-name="Trazado 980715" d="M41,46.006c-.705,3.26-1.445,6.671-2.255,10.14C35.342,70.737,31.226,50.4,27.4,32.12l-.069-.312L37.5,31.23h.081v.023c.058.289.127.578.185.867.012.081.035.162.046.243.035.173.081.347.116.52l.139.659c.023.116.058.243.081.37.012.035.012.058.023.092.023.116.046.243.069.358.035.139.069.277.092.428a3.475,3.475,0,0,1,.081.37c.1.451.208.913.3,1.364.127.567.254,1.145.382,1.7.231,1.017.462,2.012.682,2.983.092.37.185.728.266,1.087C40.36,43.6,40.684,44.838,41,46.006Z" transform="translate(3.994 3.951)" fill="#a8a6c2"/>
      <path id="Trazado_980716" data-name="Trazado 980716" d="M49.67,29.864l12.475-.694c-8.093,1.619-5.654,34.142-11.735,4.891C50.156,32.847,49.9,30.916,49.67,29.864Z" transform="translate(7.483 3.629)" fill="#f37a2f"/>
      <path id="Trazado_980717" data-name="Trazado 980717" d="M61.373,29.8l-.913.046A3.969,3.969,0,0,1,61.373,29.8Z" transform="translate(9.169 3.727)" fill="#ffeba8"/>
      <path id="Trazado_980718" data-name="Trazado 980718" d="M40.192,65.4h-.023c-3.318-.035-5.388-8.359-9.666-28.766l-.416-1.977c-.532-2.532-1.052-5.018-1.572-7.365-2-9.018-3.191-12.383-3.9-13.481-.358.786-.983,2.89-1.6,8.544-.462,4.232-.913,8-1.353,11.2q-.156,1.145-.312,2.185C19.2,50.407,17.531,51.69,15.877,51.76c-2.428.069-3.561-3.711-5.816-13.1l-.035-.139c-.2-.832-.393-1.5-.567-2.035-.624-1.85-1.4-2.983-2.07-3.029-1.075-.092-2.659,2.058-3.445,3.619a1.156,1.156,0,1,1-2.07-1.029c.428-.856,2.705-5.087,5.677-4.891,1.746.116,3.087,1.619,4.1,4.6.208.6.416,1.33.636,2.243l.035.139c.9,3.769,2.382,9.932,3.469,11.192.52-.659,1.734-3.318,3.3-13.909.1-.694.208-1.422.312-2.162.439-3.18.89-6.926,1.353-11.134.983-9.018,2.116-10.833,3.734-10.926,1.931-.092,3.318,2.116,6.313,15.62.52,2.347,1.041,4.844,1.572,7.388l.416,1.977C34.908,46.279,38.065,61.4,40.18,63.044c.231-.266.8-1.179,1.457-4.012.775-3.33,1.48-6.556,2.255-10.117l.578-2.705c.971-4.579,1.9-8.914,2.752-12.487.486-2.093.983-3.943,1.468-5.5,1.11-3.6,2.231-5.989,4.116-6.012h.023c1.885,0,2.995,2.532,3.827,5.018.393,1.145.763,2.428,1.11,3.8l.682,2.8c.2.89.4,1.838.613,2.844a86.106,86.106,0,0,0,2.59,10.452c.243-.832.509-1.942.74-2.914,1.179-4.948,2.8-11.712,7.041-12.556a5.761,5.761,0,0,1,1.226-.069,1.154,1.154,0,1,1-.173,2.3,3.245,3.245,0,0,0-.647.035c-2.74.555-4.22,6.729-5.2,10.822-.9,3.781-1.33,5.677-2.948,5.654-1.491-.023-2.416-1.283-4.9-13.25-.208-.994-.416-1.931-.613-2.81l-.659-2.729c-.335-1.318-.694-2.544-1.064-3.642-.832-2.474-1.422-3.191-1.642-3.388-.243.22-.925,1.075-1.931,4.324-.462,1.5-.948,3.307-1.422,5.353-.856,3.55-1.769,7.862-2.74,12.429L46.135,49.4c-.775,3.584-1.48,6.822-2.255,10.163-.694,2.879-1.665,5.839-3.688,5.839Z" transform="translate(0 0.822)"/>
      <path id="Trazado_980719" data-name="Trazado 980719" d="M46.894,60.155c-1.977,0-3.445-2.694-5.4-9.9-.312-1.179-.647-2.428-.96-3.746-.069-.3-.139-.578-.208-.867l-1.122-4.914c-.092-.462-.2-.913-.3-1.353a2.808,2.808,0,0,0-.058-.3c-.012-.046-.023-.1-.035-.15a3.021,3.021,0,0,0-.069-.312.492.492,0,0,1-.023-.127,1.449,1.449,0,0,1-.058-.277.087.087,0,0,0-.012-.046v-.023l-.347-1.6c-.035-.173-.046-.243-.058-.3l-.15-.694a.667.667,0,0,1-.035-.162c-.058-.3-.116-.59-.185-.879-.1-.509-.208-.971-.3-1.445-.058-.324-.116-.613-.185-.89l-.139-.682a2.261,2.261,0,0,0-.069-.324c-.012-.046-.023-.1-.035-.162a.042.042,0,0,0-.012-.035l-.37-1.781c-.058-.243-.116-.509-.162-.775l-.208-.994c-.821-3.827-1.688-7.839-2.509-11.134-.092-.393-.2-.775-.3-1.145l-.116-.451c-.069-.277-.127-.52-.208-.763-.058-.231-.116-.4-.162-.567l-.069-.22c-.046-.185-.1-.358-.15-.532l-.058-.2c-.035-.116-.046-.185-.069-.243l-.208-.636a15.256,15.256,0,0,0-1.2-2.937c-.358.809-.983,2.937-1.584,8.51-.439,4.093-.89,7.77-1.318,10.938-.22,1.63-.439,3.133-.659,4.5-.023.139-.046.289-.069.439-.012.069-.012.139-.023.208-.173,1.087-.347,2.058-.509,2.96a.521.521,0,0,1-.035.127,53.033,53.033,0,0,1-1.526,6.405c-.035.116-.081.254-.127.393l-.058.162c-.116.358-.254.659-.37.937-.058.139-.1.243-.15.335s-.1.2-.15.277a4.629,4.629,0,0,1-.393.636,2.72,2.72,0,0,1-.462.52,2.034,2.034,0,0,1-.6.4,1.229,1.229,0,0,1-.324.116,1.782,1.782,0,0,1-1.387-.2,2.127,2.127,0,0,1-.647-.509c-1.226-1.272-2.231-4.567-3.365-9.122-.173-.694-.347-1.411-.52-2.139a1.16,1.16,0,1,1,2.255-.543c.173.717.347,1.434.52,2.116.462,1.838,1.642,6.613,2.694,7.966a2.24,2.24,0,0,0,.231-.382c.023-.035.035-.069.058-.1l.116-.254c.127-.289.231-.532.335-.821l.069-.2c.035-.092.069-.185.1-.289A50.636,50.636,0,0,0,24.9,35.863c0-.023.035-.127.035-.15.162-.867.324-1.827.5-2.879a1.851,1.851,0,0,1,.035-.266,3.329,3.329,0,0,0,.058-.382c.22-1.376.439-2.856.659-4.463.428-3.145.879-6.8,1.318-10.868.983-9,2.093-10.267,3.064-10.741a1.749,1.749,0,0,1,1.7.081c.046.023.116.081.185.127.809.6,1.515,1.942,2.347,4.486.058.173.116.358.173.543.069.208.1.324.139.451l.046.139c.058.185.116.382.173.578l.058.2c.058.2.116.393.162.59.069.231.15.52.22.821l.116.428c.1.393.208.786.312,1.191.832,3.33,1.711,7.365,2.532,11.227l.127,1.006c.046.231.092.474.15.717l.37,1.769a1.345,1.345,0,0,1,.046.208c.023.127.058.243.069.37l.139.636c.069.289.127.6.185.913.1.474.208.948.3,1.434.058.254.116.532.173.809a.746.746,0,0,1,.046.22l.173.8c.035.173.046.243.058.312l.266,1.226a1.364,1.364,0,0,1,.046.231.172.172,0,0,1,.012.069.571.571,0,0,1,.035.173,2.556,2.556,0,0,1,.058.289,1.943,1.943,0,0,1,.081.347c.035.127.058.277.092.416.092.4.2.879.3,1.341L42.57,45.1c.081.3.15.6.22.9.312,1.283.624,2.509.937,3.665,1.688,6.22,2.752,7.735,3.145,8.093.231-.289.8-1.2,1.445-4,1.122-4.821,2.139-9.619,3.041-13.863.428-2.012.844-3.954,1.237-5.793l.543-2.474c.231-1.006.439-1.966.671-2.89.035-.173.081-.382.127-.578l.081-.358c.012-.058.035-.116.046-.173l.324-1.283c.069-.277.139-.555.22-.809.058-.289.162-.636.254-.983l.069-.231c.035-.127.069-.243.1-.37.069-.277.162-.578.266-.879.035-.127.092-.324.162-.509.069-.231.15-.509.243-.752l.058-.173c.069-.208.139-.416.22-.613l.127-.347v-.012c.012-.035.023-.058.035-.092s.012-.046.023-.069c.035-.081.069-.173.1-.254l.081-.2c.046-.1.081-.2.127-.289l.3-.624a3.365,3.365,0,0,1,.2-.347,5.029,5.029,0,0,1,.867-1.179c.046-.046.092-.081.139-.127a2.352,2.352,0,0,1,.208-.173l.173-.1a.04.04,0,0,0,.023-.012.088.088,0,0,1,.046-.023,1.263,1.263,0,0,1,.173-.092,1.975,1.975,0,0,1,.208-.081c.023-.012.058-.012.092-.023a1.5,1.5,0,0,1,1.11,0,2.134,2.134,0,0,1,.879.474,1.816,1.816,0,0,1,.312.289,3.526,3.526,0,0,1,.324.37,10.541,10.541,0,0,1,.856,1.457c.185.393.37.821.543,1.295a48.14,48.14,0,0,1,1.642,5.48,1.155,1.155,0,1,1-2.243.555,49.856,49.856,0,0,0-1.561-5.238,12.006,12.006,0,0,0-.462-1.11,6.8,6.8,0,0,0-.624-1.075c-.012-.012-.046-.058-.081-.092l-.092-.092a.16.16,0,0,0-.046-.035,2.549,2.549,0,0,0-.474.682.415.415,0,0,1-.081.116l-.5,1.052c-.012.035-.058.139-.1.254-.012.023-.023.058-.035.081l-.127.335c-.081.22-.139.382-.2.555l-.069.208c-.081.22-.15.428-.208.647s-.116.347-.162.5c-.1.324-.185.578-.254.856l-.173.59c-.081.3-.173.613-.254.948-.092.3-.15.532-.208.763l-.312,1.422a.867.867,0,0,1-.058.185l-.046.22c-.046.185-.092.37-.127.567-.231.948-.451,1.9-.671,2.89l-.543,2.463c-.393,1.815-.809,3.758-1.237,5.769-.9,4.255-1.931,9.065-3.052,13.909-.948,4.093-2.035,5.85-3.63,5.873a.087.087,0,0,1-.046.012ZM59.127,18.162l.046.116Z" transform="translate(2.386)"/>
    </g>
  </g>
</svg>
