<svg xmlns="http://www.w3.org/2000/svg" xmlns:xlink="http://www.w3.org/1999/xlink" width="118" height="118.001" viewBox="0 0 118 118.001">
  <defs>
    <filter id="Trazado_874925" x="0" y="0" width="118" height="118.001" filterUnits="userSpaceOnUse">
      <feOffset dy="3" input="SourceAlpha"/>
      <feGaussianBlur stdDeviation="3" result="blur"/>
      <feFlood flood-opacity="0.161"/>
      <feComposite operator="in" in2="blur"/>
      <feComposite in="SourceGraphic"/>
    </filter>
  </defs>
  <g id="Grupo_1115045" data-name="Grupo 1115045" transform="translate(-817.427 -2518.29)">
    <g transform="matrix(1, 0, 0, 1, 817.43, 2518.29)" filter="url(#Trazado_874925)">
      <g id="Trazado_874925-2" data-name="Trazado 874925" transform="translate(9 6)" fill="#68d5e9" opacity="0.859">
        <path d="M 50.00000381469727 98.50060272216797 C 43.45188903808594 98.50060272216797 37.10043334960938 97.21847534179688 31.1220760345459 94.68984222412109 C 25.34690475463867 92.24716186523438 20.15996170043945 88.74991607666016 15.70531845092773 84.2952880859375 C 11.25068950653076 79.84064483642578 7.753446578979492 74.65370178222656 5.310760974884033 68.87853240966797 C 2.782132387161255 62.90017318725586 1.500003814697266 56.5487174987793 1.500003814697266 50.00058746337891 C 1.500003814697266 43.45190048217773 2.782132387161255 37.10044479370117 5.310760974884033 31.1220874786377 C 7.753446578979492 25.34691619873047 11.25068950653076 20.15997314453125 15.70531845092773 15.70532989501953 C 20.15996170043945 11.25068664550781 25.34690475463867 7.753444194793701 31.1220760345459 5.310758590698242 C 37.10043334960938 2.782130002975464 43.45188903808594 1.500001311302185 50.00000381469727 1.500001311302185 C 56.54811859130859 1.500001311302185 62.89957427978516 2.782130002975464 68.8779296875 5.310758590698242 C 74.65310668945312 7.753444194793701 79.84004974365234 11.25068664550781 84.29469299316406 15.70532989501953 C 88.74932098388672 20.15997314453125 92.24655914306641 25.34691619873047 94.68924713134766 31.1220874786377 C 97.21787261962891 37.10044479370117 98.5 43.45190048217773 98.5 50.00001525878906 C 98.5 56.5487174987793 97.21787261962891 62.90017318725586 94.68924713134766 68.87853240966797 C 92.24655914306641 74.65370178222656 88.74932098388672 79.84064483642578 84.29469299316406 84.2952880859375 C 79.84004974365234 88.74991607666016 74.65310668945312 92.24716186523438 68.8779296875 94.68984222412109 C 62.89957427978516 97.21847534179688 56.54811859130859 98.50060272216797 50.00000381469727 98.50060272216797 Z" stroke="none"/>
        <path d="M 50.00000381469727 2.999992370605469 C 43.65372848510742 2.999992370605469 37.49886703491211 4.242256164550781 31.70640563964844 6.692253112792969 C 26.11003112792969 9.059318542480469 21.08334350585938 12.4486083984375 16.7659912109375 16.76597595214844 C 12.44861602783203 21.08335113525391 9.059326171875 26.11002349853516 6.692268371582031 31.70640563964844 C 4.242263793945312 37.49887084960938 3.000007629394531 43.65373229980469 3.000007629394531 50.00059509277344 C 3.000007629394531 56.34687042236328 4.242263793945312 62.50173187255859 6.692268371582031 68.294189453125 C 9.059326171875 73.89056396484375 12.44861602783203 78.91725158691406 16.7659912109375 83.23461151123047 C 21.08334350585938 87.55197906494141 26.11003112792969 90.94126892089844 31.70640563964844 93.30833435058594 C 37.49886703491211 95.75833129882812 43.65372848510742 97.00059509277344 50.00000381469727 97.00059509277344 C 56.34627914428711 97.00059509277344 62.50114059448242 95.75833129882812 68.29360198974609 93.30833435058594 C 73.88996887207031 90.94126892089844 78.91664886474609 87.55197906494141 83.23401641845703 83.23461151123047 C 87.5513916015625 78.91725158691406 90.94068145751953 73.89056396484375 93.3077392578125 68.294189453125 C 95.75774383544922 62.50173187255859 97 56.34687042236328 97 50.00000762939453 C 97 43.65373229980469 95.75774383544922 37.49887084960938 93.3077392578125 31.70640563964844 C 90.94068145751953 26.11002349853516 87.5513916015625 21.08335113525391 83.23401641845703 16.76597595214844 C 78.91664886474609 12.4486083984375 73.88996887207031 9.059318542480469 68.29360198974609 6.692253112792969 C 62.50114059448242 4.242256164550781 56.34627914428711 2.999992370605469 50.00000381469727 2.999992370605469 M 50.00000381469727 -7.62939453125e-06 C 77.61423492431641 -7.62939453125e-06 100 22.38576507568359 100 50.00000762939453 L 100 50.00059509277344 C 100 77.61483764648438 77.61423492431641 100.0005950927734 50.00000381469727 100.0005950927734 C 22.38575744628906 100.0005950927734 7.62939453125e-06 77.61483764648438 7.62939453125e-06 50.00059509277344 L 7.62939453125e-06 50.00000762939453 C 7.62939453125e-06 22.38576507568359 22.38575744628906 -7.62939453125e-06 50.00000381469727 -7.62939453125e-06 Z" stroke="none" fill="#fff"/>
      </g>
    </g>
    <g id="radio" transform="translate(850.427 2547.035)">
      <path id="Trazado_978926" data-name="Trazado 978926" d="M58.84,49.236l32.849-11.8,1.044,2.907-32.849,11.8Zm0,0" transform="translate(-52.864 -33.636)" fill="#86a4bc"/>
      <path id="Trazado_978927" data-name="Trazado 978927" d="M63.98,63.548,96.83,51.75l.522,1.454L64.5,65Zm0,0" transform="translate(-57.483 -46.494)" fill="#b7d0e5"/>
      <path id="Trazado_978928" data-name="Trazado 978928" d="M58.061,153.743v23.366a5.2,5.2,0,0,1-5.2,5.2H12.808a5.2,5.2,0,0,1-5.2-5.2V153.743a5.2,5.2,0,0,1,5.2-5.2H52.857a5.2,5.2,0,0,1,5.2,5.2Zm0,0" transform="translate(-6.833 -133.453)" fill="#e53a47"/>
      <path id="Trazado_978929" data-name="Trazado 978929" d="M76.278,153.743v23.366a5.2,5.2,0,0,1-5.2,5.2H33.085a5.2,5.2,0,0,1-5.2-5.2V153.743a5.2,5.2,0,0,1,5.2-5.2H71.075a5.2,5.2,0,0,1,5.2,5.2Zm0,0" transform="translate(-25.051 -133.453)" fill="#f96065"/>
      <g id="Grupo_1112830" data-name="Grupo 1112830" transform="translate(3.336 19.708)">
        <path id="Trazado_978930" data-name="Trazado 978930" d="M107.153,196.777H97.079a.782.782,0,0,1-.344-1.485,12.287,12.287,0,0,1,10.762,0A.782.782,0,0,1,107.153,196.777Zm0,0" transform="translate(-89.852 -194.051)" fill="#27425b"/>
        <path id="Trazado_978931" data-name="Trazado 978931" d="M67.39,250.453H48.459a1.351,1.351,0,0,1-1.167-2.03l.015-.026a1.348,1.348,0,0,1,1.167-.669h18.9a1.348,1.348,0,0,1,1.167.669l.015.026a1.351,1.351,0,0,1-1.167,2.03Zm0,0" transform="translate(-45.66 -242.276)" fill="#27425b"/>
        <path id="Trazado_978932" data-name="Trazado 978932" d="M57.373,302.761v.028a1.345,1.345,0,0,1-1.35,1.335H34.193a1.345,1.345,0,0,1-1.35-1.335v-.056a1.345,1.345,0,0,1,1.35-1.335h21.83a1.345,1.345,0,0,1,1.35,1.335Zm0,0" transform="translate(-32.844 -290.496)" fill="#27425b"/>
        <path id="Trazado_978933" data-name="Trazado 978933" d="M68.557,357.092l-.015.027a1.348,1.348,0,0,1-1.167.669h-18.9a1.348,1.348,0,0,1-1.167-.669l-.015-.027a1.351,1.351,0,0,1,1.167-2.03H67.39a1.351,1.351,0,0,1,1.167,2.03Zm0,0" transform="translate(-45.66 -338.71)" fill="#27425b"/>
        <path id="Trazado_978934" data-name="Trazado 978934" d="M107.153,408.738a.782.782,0,0,1,.344,1.485,12.287,12.287,0,0,1-10.762,0,.782.782,0,0,1,.344-1.485Zm0,0" transform="translate(-89.852 -386.934)" fill="#27425b"/>
      </g>
      <path id="Trazado_978935" data-name="Trazado 978935" d="M382.843,15.266a1.775,1.775,0,0,1-2.2-.9,1.848,1.848,0,0,1-.073-.174l-1.514-4.215a1.776,1.776,0,1,1,3.342-1.2l.657,1.829.858,2.387a1.776,1.776,0,0,1-1.072,2.272Zm0,0" transform="translate(-340.466 -6.829)" fill="#86a4bc"/>
      <path id="Trazado_978936" data-name="Trazado 978936" d="M389.294,32.957a1.775,1.775,0,0,1-2.2-.9l-.858-2.39a1.775,1.775,0,0,1,3.27-1.371l.858,2.387a1.776,1.776,0,0,1-1.072,2.272Zm0,0" transform="translate(-346.916 -24.521)" fill="#b7d0e5"/>
      <path id="Trazado_978937" data-name="Trazado 978937" d="M312.347,231.271H298.379a1.82,1.82,0,0,1-1.82-1.82V226.4a1.82,1.82,0,0,1,1.82-1.82h13.967a1.82,1.82,0,0,1,1.821,1.82v3.053A1.82,1.82,0,0,1,312.347,231.271Zm0,0" transform="translate(-266.44 -201.769)" fill="#aef4e9"/>
      <path id="Trazado_978938" data-name="Trazado 978938" d="M384.125,251.953a1.39,1.39,0,0,0-1.39,1.39v2.523h2.78v-2.523A1.39,1.39,0,0,0,384.125,251.953Zm0,0" transform="translate(-343.863 -226.364)" fill="#6399cc"/>
      <path id="Trazado_978939" data-name="Trazado 978939" d="M347.694,332.523a4.531,4.531,0,1,1-4.531-4.531A4.531,4.531,0,0,1,347.694,332.523Zm0,0" transform="translate(-304.241 -294.681)" fill="#86a4bc"/>
      <path id="Trazado_978940" data-name="Trazado 978940" d="M364.091,333.362a3.682,3.682,0,1,1-3.6-4.436A4.533,4.533,0,0,1,364.091,333.362Zm0,0" transform="translate(-320.637 -295.519)" fill="#b7d0e5"/>
      <path id="Trazado_978941" data-name="Trazado 978941" d="M51.229,37.344A.773.773,0,0,0,52,36.571V20.289a5.983,5.983,0,0,0-5.976-5.976H20.984L39.409,7.7A2.548,2.548,0,0,0,44.177,5.9L42.663,1.687a2.548,2.548,0,0,0-4.821,1.65L21.589,9.173a.772.772,0,0,0,.522,1.454L38.362,4.791l.522,1.453-22.47,8.069H11.845l7.571-2.719a.772.772,0,0,0-.522-1.454L7.276,14.313h-1.3A5.983,5.983,0,0,0,0,20.289V43.656a5.983,5.983,0,0,0,5.976,5.976H46.025A5.983,5.983,0,0,0,52,43.656v-4a.772.772,0,0,0-1.544,0v4a4.437,4.437,0,0,1-4.431,4.431H5.977a4.437,4.437,0,0,1-4.432-4.431V20.289a4.436,4.436,0,0,1,4.432-4.431H46.025a4.436,4.436,0,0,1,4.431,4.431V36.571a.772.772,0,0,0,.772.772ZM39.926,1.6a1,1,0,0,1,1.284.605l1.514,4.216a1,1,0,1,1-1.89.678L40.6,6.454l0-.005L39.555,3.542v0l-.234-.652A1,1,0,0,1,39.926,1.6Zm0,0" transform="translate(-0.001 0.001)"/>
      <path id="Trazado_978942" data-name="Trazado 978942" d="M90.237,190.719h10.074a1.554,1.554,0,0,0,.684-2.95,13.06,13.06,0,0,0-11.441,0,1.554,1.554,0,0,0,.684,2.95Zm0-1.563a11.514,11.514,0,0,1,10.083,0l.006,0a.049.049,0,0,1,0,.015H90.23a.049.049,0,0,1,0-.015l.006,0Zm0,0" transform="translate(-79.674 -167.513)"/>
      <path id="Trazado_978943" data-name="Trazado 978943" d="M39.794,241.177l-.015.027a2.123,2.123,0,0,0,1.836,3.188H60.545a2.123,2.123,0,0,0,1.837-3.185l-.018-.031a2.125,2.125,0,0,0-1.835-1.054H41.63a2.126,2.126,0,0,0-1.836,1.056Zm21.235.775.013.023a.573.573,0,0,1,0,.584.565.565,0,0,1-.5.287H41.615a.565.565,0,0,1-.5-.287.574.574,0,0,1,0-.584l.015-.025a.577.577,0,0,1,.5-.284h18.9a.578.578,0,0,1,.5.286Zm0,0" transform="translate(-35.48 -215.734)"/>
      <path id="Trazado_978944" data-name="Trazado 978944" d="M51.313,295.959V295.9a2.12,2.12,0,0,0-2.122-2.105H27.361a2.12,2.12,0,0,0-2.122,2.107v.057a2.119,2.119,0,0,0,2.122,2.105h21.83a2.119,2.119,0,0,0,2.122-2.1Zm-1.544-.006a.573.573,0,0,1-.578.564H27.361a.572.572,0,0,1-.578-.562V295.9a.572.572,0,0,1,.578-.564h21.83a.573.573,0,0,1,.578.567Zm0,0" transform="translate(-22.676 -263.954)"/>
      <path id="Trazado_978945" data-name="Trazado 978945" d="M62.363,350.675l.017-.029a2.124,2.124,0,0,0-1.836-3.188H41.614a2.124,2.124,0,0,0-1.836,3.189l.016.028a2.126,2.126,0,0,0,1.835,1.054h18.9a2.125,2.125,0,0,0,1.834-1.053ZM41.132,349.9l-.015-.026a.574.574,0,0,1,0-.585.566.566,0,0,1,.5-.287H60.545a.565.565,0,0,1,.5.287.574.574,0,0,1,0,.585l0,0-.013.022a.576.576,0,0,1-.5.284H41.63a.575.575,0,0,1-.5-.283Zm0,0" transform="translate(-35.479 -312.169)"/>
      <path id="Trazado_978946" data-name="Trazado 978946" d="M100.31,401.133H90.236a1.554,1.554,0,0,0-.684,2.95,13.06,13.06,0,0,0,11.441,0,1.554,1.554,0,0,0-.683-2.95Zm0,1.563a11.514,11.514,0,0,1-10.083,0l-.006,0a.049.049,0,0,1,0-.015h10.088a.049.049,0,0,1,0,.015Zm0,0" transform="translate(-79.673 -360.393)"/>
      <path id="Trazado_978947" data-name="Trazado 978947" d="M308.106,222.622V219.57a2.6,2.6,0,0,0-2.593-2.593H291.546a2.6,2.6,0,0,0-2.593,2.593v3.052a2.6,2.6,0,0,0,2.593,2.593h13.967A2.6,2.6,0,0,0,308.106,222.622Zm-17.608,0V219.57a1.049,1.049,0,0,1,1.048-1.048h13.967a1.049,1.049,0,0,1,1.048,1.048v3.052a1.049,1.049,0,0,1-1.048,1.048h-3.483v-1.751a2.162,2.162,0,0,0-4.325,0v1.751h-6.16a1.05,1.05,0,0,1-1.048-1.048Zm8.753,1.048v-1.75a.618.618,0,0,1,1.236,0v1.75Zm0,0" transform="translate(-259.607 -194.94)"/>
      <path id="Trazado_978948" data-name="Trazado 978948" d="M336.33,320.387a5.3,5.3,0,1,0,0,10.606,5.3,5.3,0,1,0,0-10.606Zm3.759,5.3a3.771,3.771,0,0,1-2.988,3.68,3.823,3.823,0,0,1-.771.079,3.759,3.759,0,1,1,3.759-3.759Zm0,0" transform="translate(-297.407 -287.847)"/>
      <path id="Trazado_978949" data-name="Trazado 978949" d="M385.632,344.87a.771.771,0,1,0,.951.074A.776.776,0,0,0,385.632,344.87Zm0,0" transform="translate(-346.158 -309.729)"/>
    </g>
  </g>
</svg>
