<svg xmlns="http://www.w3.org/2000/svg" width="295" height="271" viewBox="0 0 295 271">
  <g id="_6" data-name="6" transform="translate(-1125.051 -612)">
    <rect id="Rectángulo_407061" data-name="Rectángulo 407061" width="295" height="271" rx="10" transform="translate(1125.051 612)" fill="#f7e081"/>
    <g id="Grupo_1114844" data-name="Grupo 1114844" transform="translate(1168.051 681.972)">
      <path id="Trazado_980545" data-name="Trazado 980545" d="M1074.43,1658.88c13.984,0,13.984,53.631,27.969,53.631s13.984-53.631,27.969-53.631,13.984,53.631,27.969,53.631,13.985-53.631,27.969-53.631,13.985,53.631,27.971,53.631,13.985-53.631,27.971-53.631" transform="translate(-1057.822 -1625.432)" fill="none" stroke="#000" stroke-linecap="round" stroke-linejoin="round" stroke-miterlimit="10" stroke-width="6"/>
      <g id="Grupo_1114842" data-name="Grupo 1114842" transform="translate(0 41.994)">
        <line id="Línea_563" data-name="Línea 563" x1="209.419" transform="translate(0 11.327)" fill="none" stroke="#000" stroke-linecap="round" stroke-linejoin="round" stroke-miterlimit="10" stroke-width="6"/>
        <path id="Trazado_980546" data-name="Trazado 980546" d="M2992.13,1748.64l10.271,11.274-10.174,11.382" transform="translate(-2792.936 -1748.64)" fill="none" stroke="#000" stroke-linecap="round" stroke-linejoin="round" stroke-miterlimit="10" stroke-width="6"/>
      </g>
      <g id="Grupo_1114843" data-name="Grupo 1114843" transform="translate(90.787)">
        <line id="Línea_564" data-name="Línea 564" y2="131.813" transform="translate(9.777 0.039)" fill="none" stroke="#000" stroke-linecap="round" stroke-linejoin="round" stroke-miterlimit="10" stroke-width="6"/>
        <path id="Trazado_980547" data-name="Trazado 980547" d="M1853.53,1318.415l9.777-10.835,9.778,10.835" transform="translate(-1853.53 -1307.58)" fill="none" stroke="#000" stroke-linecap="round" stroke-linejoin="round" stroke-miterlimit="10" stroke-width="6"/>
      </g>
    </g>
  </g>
</svg>
