<svg xmlns="http://www.w3.org/2000/svg" xmlns:xlink="http://www.w3.org/1999/xlink" width="124.002" height="124.002" viewBox="0 0 124.002 124.002">
  <defs>
    <filter id="Trazado_896985" x="0" y="0" width="124.002" height="124.002" filterUnits="userSpaceOnUse">
      <feOffset dy="3" input="SourceAlpha"/>
      <feGaussianBlur stdDeviation="3" result="blur"/>
      <feFlood flood-opacity="0.161"/>
      <feComposite operator="in" in2="blur"/>
      <feComposite in="SourceGraphic"/>
    </filter>
  </defs>
  <g id="Grupo_1115564" data-name="Grupo 1115564" transform="translate(9 6)">
    <g id="Grupo_1098742" data-name="Grupo 1098742" transform="translate(0 0)">
      <g transform="matrix(1, 0, 0, 1, -9, -6)" filter="url(#Trazado_896985)">
        <g id="Trazado_896985-2" data-name="Trazado 896985" transform="translate(9 6)" fill="#68d5e9">
          <path d="M 53.00100708007812 104.5019454956055 C 46.04774856567383 104.5019454956055 39.30329132080078 103.1404800415039 32.95494842529297 100.4553604125977 C 26.82243537902832 97.86153411865234 21.31455039978027 94.14791870117188 16.58430671691895 89.41769409179688 C 11.85404968261719 84.68744659423828 8.140435218811035 79.17957305908203 5.546592712402344 73.04706573486328 C 2.861478567123413 66.69874572753906 1.500007033348083 59.95429229736328 1.500007033348083 53.00104904174805 C 1.500007033348083 46.04766082763672 2.861478567123413 39.30321884155273 5.546592712402344 32.95489120483398 C 8.140435218811035 26.8223762512207 11.85404968261719 21.31450462341309 16.58430671691895 16.58427619934082 C 21.31455039978027 11.85403347015381 26.82243537902832 8.140419006347656 32.95494842529297 5.546590805053711 C 39.30329132080078 2.86147665977478 46.04774856567383 1.500005125999451 53.00100708007812 1.500005125999451 C 59.95426559448242 1.500005125999451 66.69873809814453 2.86147665977478 73.04706573486328 5.546590805053711 C 79.17959594726562 8.140419006347656 84.68747711181641 11.85403347015381 89.417724609375 16.58427619934082 C 94.14797973632812 21.31450462341309 97.86159515380859 26.8223762512207 100.455436706543 32.95489120483398 C 103.1405487060547 39.30321884155273 104.5020217895508 46.04766082763672 104.5020217895508 53.00090408325195 C 104.5020217895508 59.95429229736328 103.1405487060547 66.69874572753906 100.455436706543 73.04706573486328 C 97.86159515380859 79.17957305908203 94.14797973632812 84.68744659423828 89.417724609375 89.41769409179688 C 84.68747711181641 94.14791870117188 79.17959594726562 97.86153411865234 73.04706573486328 100.4553604125977 C 66.69873809814453 103.1404800415039 59.95426559448242 104.5019454956055 53.00100708007812 104.5019454956055 Z" stroke="none"/>
          <path d="M 53.00100708007812 2.999992370605469 C 46.24959182739258 2.999992370605469 39.70172119140625 4.32159423828125 33.53927612304688 6.928077697753906 C 27.58554077148438 9.446296691894531 22.23792266845703 13.05195617675781 17.64494323730469 17.64492797851562 C 13.05197143554688 22.23789215087891 9.446304321289062 27.58551025390625 6.928092956542969 33.53923034667969 C 4.321586608886719 39.70164489746094 2.999992370605469 46.24951171875 2.999992370605469 53.00104141235352 C 2.999992370605469 59.75244140625 4.321586608886719 66.30030822753906 6.928092956542969 72.46272277832031 C 9.446304321289062 78.41644287109375 13.05197143554688 83.76406097412109 17.64494323730469 88.35702514648438 C 22.23792266845703 92.94997406005859 27.58554077148438 96.55564117431641 33.53927612304688 99.07386016845703 C 39.70172119140625 101.6803436279297 46.24959182739258 103.0019454956055 53.00100708007812 103.0019454956055 C 59.75242233276367 103.0019454956055 66.30029296875 101.6803436279297 72.46273803710938 99.07386016845703 C 78.41645812988281 96.55564117431641 83.76409149169922 92.94997406005859 88.3570556640625 88.35702514648438 C 92.95002746582031 83.76406097412109 96.55570983886719 78.41644287109375 99.07390594482422 72.46272277832031 C 101.6804046630859 66.30030822753906 103.0020065307617 59.75244140625 103.0020065307617 53.00091171264648 C 103.0020065307617 46.24951171875 101.6804046630859 39.70164489746094 99.07390594482422 33.53920745849609 C 96.55570983886719 27.58551025390625 92.95002746582031 22.23789215087891 88.3570556640625 17.64492797851562 C 83.76409149169922 13.05195617675781 78.41645812988281 9.446296691894531 72.46273803710938 6.928077697753906 C 66.30029296875 4.32159423828125 59.75242233276367 2.999992370605469 53.00100708007812 2.999992370605469 M 53.00100708007812 -7.62939453125e-06 C 82.27265930175781 -7.62939453125e-06 106.0020065307617 23.72930908203125 106.0020065307617 53.00091171264648 L 106.0020065307617 53.00104141235352 C 106.0020065307617 82.27264404296875 82.27265930175781 106.0019454956055 53.00100708007812 106.0019454956055 C 23.72935485839844 106.0019454956055 -7.62939453125e-06 82.27264404296875 -7.62939453125e-06 53.00104141235352 L -7.62939453125e-06 53.00091171264648 C -7.62939453125e-06 23.72930908203125 23.72935485839844 -7.62939453125e-06 53.00100708007812 -7.62939453125e-06 Z" stroke="none" fill="#fff"/>
        </g>
      </g>
      <g id="Rectángulo_400907" data-name="Rectángulo 400907" transform="translate(0)" fill="none" stroke="#fff" stroke-width="3">
        <rect width="106.002" height="106.002" rx="53.001" stroke="none"/>
        <rect x="1.5" y="1.5" width="103.002" height="103.002" rx="51.501" fill="none"/>
      </g>
    </g>
    <g id="Grupo_1115585" data-name="Grupo 1115585" transform="translate(20.296 24.678)">
      <g id="Grupo_1115570" data-name="Grupo 1115570" transform="translate(0.96 12.165)">
        <path id="Trazado_983116" data-name="Trazado 983116" d="M67.15,159.267H11.34a3.84,3.84,0,0,0-3.84,3.84v32a3.84,3.84,0,0,0,3.84,3.84H67.15a3.84,3.84,0,0,0,3.84-3.84v-32A3.84,3.84,0,0,0,67.15,159.267Z" transform="translate(-7.5 -155.427)" fill="#88ddbd"/>
        <path id="Trazado_983117" data-name="Trazado 983117" d="M303.5,224.868V203.107a3.84,3.84,0,0,1,3.84-3.84h12.8a3.84,3.84,0,0,1,3.84,3.84v21.761a3.84,3.84,0,0,1-3.84,3.84h-12.8A3.84,3.84,0,0,1,303.5,224.868Z" transform="translate(-265.611 -190.307)" fill="#757575"/>
        <ellipse id="Elipse_11615" data-name="Elipse 11615" cx="5.76" cy="5.76" rx="5.76" ry="5.76" transform="translate(5.12 24.961)" fill="#757575"/>
        <ellipse id="Elipse_11616" data-name="Elipse 11616" cx="5.76" cy="5.76" rx="5.76" ry="5.76" transform="translate(21.761 24.961)" fill="#757575"/>
        <path id="Trazado_983118" data-name="Trazado 983118" d="M62.5,133.107a3.84,3.84,0,1,1,7.68,0Z" transform="translate(-55.46 -129.267)" fill="#ffce5d"/>
        <path id="Trazado_983119" data-name="Trazado 983119" d="M292.541,133.107H269.5v-1.28a2.56,2.56,0,0,1,2.56-2.56h17.921a2.56,2.56,0,0,1,2.56,2.56Z" transform="translate(-235.963 -129.267)" fill="#ffce5d"/>
        <g id="Grupo_1115569" data-name="Grupo 1115569" transform="translate(5.12 11.52)">
          <path id="Trazado_983120" data-name="Trazado 983120" d="M75.661,223.107h0a3.84,3.84,0,0,0-3.84-3.84H51.34a3.84,3.84,0,0,0-3.84,3.84h0a3.84,3.84,0,0,0,3.84,3.84H71.821A3.84,3.84,0,0,0,75.661,223.107Z" transform="translate(-47.5 -219.267)" fill="#ffce5d"/>
          <path id="Trazado_983121" data-name="Trazado 983121" d="M47.5,223.107H75.661a3.84,3.84,0,0,0-3.84-3.84H51.34A3.84,3.84,0,0,0,47.5,223.107Z" transform="translate(-47.5 -219.267)" fill="#ffb652"/>
        </g>
        <path id="Trazado_983122" data-name="Trazado 983122" d="M320.141,373.107h-12.8a3.84,3.84,0,0,1-3.84-3.84v3.84a3.84,3.84,0,0,0,3.84,3.84h12.8a3.84,3.84,0,0,0,3.84-3.84v-3.84A3.84,3.84,0,0,1,320.141,373.107Z" transform="translate(-265.611 -338.546)" fill="#616161"/>
        <path id="Trazado_983123" data-name="Trazado 983123" d="M53.26,358.107a5.761,5.761,0,0,1-5.431-3.84,5.76,5.76,0,1,0,10.862,0A5.761,5.761,0,0,1,53.26,358.107Z" transform="translate(-42.38 -325.466)" fill="#616161"/>
        <path id="Trazado_983124" data-name="Trazado 983124" d="M183.26,358.107a5.761,5.761,0,0,1-5.431-3.84,5.76,5.76,0,1,0,10.862,0A5.761,5.761,0,0,1,183.26,358.107Z" transform="translate(-155.739 -325.466)" fill="#616161"/>
        <path id="Trazado_983125" data-name="Trazado 983125" d="M67.15,413.107H11.34a3.84,3.84,0,0,1-3.84-3.84v3.84a3.84,3.84,0,0,0,3.84,3.84H67.15a3.84,3.84,0,0,0,3.84-3.84v-3.84A3.84,3.84,0,0,1,67.15,413.107Z" transform="translate(-7.5 -373.426)" fill="#39ccac"/>
      </g>
      <g id="Grupo_1115571" data-name="Grupo 1115571" transform="translate(0 0)">
        <path id="Trazado_983126" data-name="Trazado 983126" d="M63.49,272.217a2.883,2.883,0,0,1-2.88,2.88H4.8a2.883,2.883,0,0,1-2.88-2.88v-4.882H0v4.882a4.806,4.806,0,0,0,4.8,4.8H60.61a4.806,4.806,0,0,0,4.8-4.8V247.7H63.49Z" transform="translate(0 -220.371)"/>
        <path id="Trazado_983127" data-name="Trazado 983127" d="M60.61,49.278H58.5v-.32a3.524,3.524,0,0,0-3.52-3.52H37.057a3.524,3.524,0,0,0-3.52,3.52v.32H16.544a4.773,4.773,0,0,0-.693-1.673L47.119,36.034l-.666-1.8L14.315,46.126a4.8,4.8,0,0,0-7.178,3.151H4.8a4.806,4.806,0,0,0-4.8,4.8v25.2H1.92v-25.2A2.883,2.883,0,0,1,4.8,51.2H60.61a2.883,2.883,0,0,1,2.88,2.88v5.559h1.92V54.078A4.806,4.806,0,0,0,60.61,49.278Zm-51.484,0a2.88,2.88,0,0,1,5.43,0Zm30.172,0h-3.84v-.32a1.6,1.6,0,0,1,1.6-1.6H39.3Zm5.76,0h-3.84v-1.92h3.84Zm5.76,0h-3.84v-1.92h3.84Zm5.76,0h-3.84v-1.92h2.24a1.6,1.6,0,0,1,1.6,1.6Z" transform="translate(0 -34.233)"/>
        <path id="Trazado_983128" data-name="Trazado 983128" d="M296,196.567v21.761a4.805,4.805,0,0,0,4.8,4.8h2.743v-1.92H300.8a2.883,2.883,0,0,1-2.88-2.88V196.567a2.883,2.883,0,0,1,2.88-2.88h8.046v-1.92H300.8A4.805,4.805,0,0,0,296,196.567Z" transform="translate(-258.111 -171.602)"/>
        <path id="Trazado_983129" data-name="Trazado 983129" d="M378.065,221.208h-8.137v1.92h8.137a4.805,4.805,0,0,0,4.8-4.8V196.567a4.805,4.805,0,0,0-4.8-4.8h-2.834v1.92h2.834a2.883,2.883,0,0,1,2.88,2.88v21.761A2.883,2.883,0,0,1,378.065,221.208Z" transform="translate(-322.576 -171.602)"/>
        <path id="Trazado_983130" data-name="Trazado 983130" d="M44.8,213.687H63.068v-1.92H44.8a4.8,4.8,0,1,0,0,9.6H65.281a4.8,4.8,0,0,0,0-9.6h-.292v1.92h.292a2.88,2.88,0,0,1,0,5.76H49.728V215.8h-1.92v3.648H44.8a2.88,2.88,0,0,1,0-5.76Z" transform="translate(-34.88 -189.042)"/>
        <path id="Trazado_983131" data-name="Trazado 983131" d="M46.72,330.207a6.72,6.72,0,1,0-6.72-6.72A6.728,6.728,0,0,0,46.72,330.207Zm0-11.52a4.8,4.8,0,1,1-4.8,4.8A4.805,4.805,0,0,1,46.72,318.687Z" transform="translate(-34.88 -280.602)"/>
        <path id="Trazado_983132" data-name="Trazado 983132" d="M176.72,318.687a4.767,4.767,0,0,1,2.784.889l1.115-1.563a6.72,6.72,0,1,0,1.575,1.575l-1.563,1.115a4.8,4.8,0,1,1-3.911-2.016Z" transform="translate(-148.239 -280.602)"/>
      </g>
      <g id="Grupo_1115572" data-name="Grupo 1115572" transform="translate(12.48 18.885)">
        <path id="Trazado_983133" data-name="Trazado 983133" d="M112.86,183.687h-7.68v-1.92h7.68Zm-9.6,0h-1.92v-1.92h1.92Zm-3.84,0H97.5v-1.92h1.92Z" transform="translate(-97.5 -181.767)" fill="#fff"/>
        <path id="Trazado_983134" data-name="Trazado 983134" d="M131.46,433.687h-5.12v-1.92h5.12Zm-7.04,0H122.5v-1.92h1.92Z" transform="translate(-119.3 -399.766)" fill="#fff"/>
        <path id="Trazado_983135" data-name="Trazado 983135" d="M207.26,243.687h-1.92v-1.92h1.92Zm-3.84,0H201.5v-1.92h1.92Z" transform="translate(-188.188 -234.087)" fill="#fff"/>
        <path id="Trazado_983136" data-name="Trazado 983136" d="M210.665,351.69l-1.358-1.358a.96.96,0,0,0-1.358-1.358l-1.358-1.358a2.88,2.88,0,0,1,4.073,4.073Z" transform="translate(-192.628 -325.652)" fill="#fff"/>
        <rect id="Rectángulo_407658" data-name="Rectángulo 407658" width="7.68" height="1.92" transform="translate(32.769 7.552)" fill="#fff"/>
        <rect id="Rectángulo_407659" data-name="Rectángulo 407659" width="12.8" height="1.92" transform="translate(30.209 11.776)" fill="#fff"/>
        <rect id="Rectángulo_407660" data-name="Rectángulo 407660" width="12.8" height="1.92" transform="translate(30.209 16)" fill="#fff"/>
        <rect id="Rectángulo_407661" data-name="Rectángulo 407661" width="12.8" height="1.92" transform="translate(30.209 20.225)" fill="#fff"/>
        <rect id="Rectángulo_407662" data-name="Rectángulo 407662" width="7.68" height="1.92" transform="translate(32.769 24.449)" fill="#fff"/>
      </g>
    </g>
  </g>
</svg>
