<svg xmlns="http://www.w3.org/2000/svg" xmlns:xlink="http://www.w3.org/1999/xlink" width="124.002" height="124.002" viewBox="0 0 124.002 124.002">
  <defs>
    <filter id="Trazado_896985" x="0" y="0" width="124.002" height="124.002" filterUnits="userSpaceOnUse">
      <feOffset dy="3" input="SourceAlpha"/>
      <feGaussianBlur stdDeviation="3" result="blur"/>
      <feFlood flood-opacity="0.161"/>
      <feComposite operator="in" in2="blur"/>
      <feComposite in="SourceGraphic"/>
    </filter>
  </defs>
  <g id="Grupo_1115566" data-name="Grupo 1115566" transform="translate(9 6)">
    <g id="Grupo_1098742" data-name="Grupo 1098742" transform="translate(0 0)">
      <g transform="matrix(1, 0, 0, 1, -9, -6)" filter="url(#Trazado_896985)">
        <g id="Trazado_896985-2" data-name="Trazado 896985" transform="translate(9 6)" fill="#68d5e9">
          <path d="M 53.00100708007812 104.5019454956055 C 46.04774856567383 104.5019454956055 39.30329132080078 103.1404800415039 32.95494842529297 100.4553604125977 C 26.82243537902832 97.86153411865234 21.31455039978027 94.14791870117188 16.58430671691895 89.41769409179688 C 11.85404968261719 84.68744659423828 8.140435218811035 79.17957305908203 5.546592712402344 73.04706573486328 C 2.861478567123413 66.69874572753906 1.500007033348083 59.95429229736328 1.500007033348083 53.00104904174805 C 1.500007033348083 46.04766082763672 2.861478567123413 39.30321884155273 5.546592712402344 32.95489120483398 C 8.140435218811035 26.8223762512207 11.85404968261719 21.31450462341309 16.58430671691895 16.58427619934082 C 21.31455039978027 11.85403347015381 26.82243537902832 8.140419006347656 32.95494842529297 5.546590805053711 C 39.30329132080078 2.86147665977478 46.04774856567383 1.500005125999451 53.00100708007812 1.500005125999451 C 59.95426559448242 1.500005125999451 66.69873809814453 2.86147665977478 73.04706573486328 5.546590805053711 C 79.17959594726562 8.140419006347656 84.68747711181641 11.85403347015381 89.417724609375 16.58427619934082 C 94.14797973632812 21.31450462341309 97.86159515380859 26.8223762512207 100.455436706543 32.95489120483398 C 103.1405487060547 39.30321884155273 104.5020217895508 46.04766082763672 104.5020217895508 53.00090408325195 C 104.5020217895508 59.95429229736328 103.1405487060547 66.69874572753906 100.455436706543 73.04706573486328 C 97.86159515380859 79.17957305908203 94.14797973632812 84.68744659423828 89.417724609375 89.41769409179688 C 84.68747711181641 94.14791870117188 79.17959594726562 97.86153411865234 73.04706573486328 100.4553604125977 C 66.69873809814453 103.1404800415039 59.95426559448242 104.5019454956055 53.00100708007812 104.5019454956055 Z" stroke="none"/>
          <path d="M 53.00100708007812 2.999992370605469 C 46.24959182739258 2.999992370605469 39.70172119140625 4.32159423828125 33.53927612304688 6.928077697753906 C 27.58554077148438 9.446296691894531 22.23792266845703 13.05195617675781 17.64494323730469 17.64492797851562 C 13.05197143554688 22.23789215087891 9.446304321289062 27.58551025390625 6.928092956542969 33.53923034667969 C 4.321586608886719 39.70164489746094 2.999992370605469 46.24951171875 2.999992370605469 53.00104141235352 C 2.999992370605469 59.75244140625 4.321586608886719 66.30030822753906 6.928092956542969 72.46272277832031 C 9.446304321289062 78.41644287109375 13.05197143554688 83.76406097412109 17.64494323730469 88.35702514648438 C 22.23792266845703 92.94997406005859 27.58554077148438 96.55564117431641 33.53927612304688 99.07386016845703 C 39.70172119140625 101.6803436279297 46.24959182739258 103.0019454956055 53.00100708007812 103.0019454956055 C 59.75242233276367 103.0019454956055 66.30029296875 101.6803436279297 72.46273803710938 99.07386016845703 C 78.41645812988281 96.55564117431641 83.76409149169922 92.94997406005859 88.3570556640625 88.35702514648438 C 92.95002746582031 83.76406097412109 96.55570983886719 78.41644287109375 99.07390594482422 72.46272277832031 C 101.6804046630859 66.30030822753906 103.0020065307617 59.75244140625 103.0020065307617 53.00091171264648 C 103.0020065307617 46.24951171875 101.6804046630859 39.70164489746094 99.07390594482422 33.53920745849609 C 96.55570983886719 27.58551025390625 92.95002746582031 22.23789215087891 88.3570556640625 17.64492797851562 C 83.76409149169922 13.05195617675781 78.41645812988281 9.446296691894531 72.46273803710938 6.928077697753906 C 66.30029296875 4.32159423828125 59.75242233276367 2.999992370605469 53.00100708007812 2.999992370605469 M 53.00100708007812 -7.62939453125e-06 C 82.27265930175781 -7.62939453125e-06 106.0020065307617 23.72930908203125 106.0020065307617 53.00091171264648 L 106.0020065307617 53.00104141235352 C 106.0020065307617 82.27264404296875 82.27265930175781 106.0019454956055 53.00100708007812 106.0019454956055 C 23.72935485839844 106.0019454956055 -7.62939453125e-06 82.27264404296875 -7.62939453125e-06 53.00104141235352 L -7.62939453125e-06 53.00091171264648 C -7.62939453125e-06 23.72930908203125 23.72935485839844 -7.62939453125e-06 53.00100708007812 -7.62939453125e-06 Z" stroke="none" fill="#fff"/>
        </g>
      </g>
      <g id="Rectángulo_400907" data-name="Rectángulo 400907" transform="translate(0)" fill="none" stroke="#fff" stroke-width="3">
        <rect width="106.002" height="106.002" rx="53.001" stroke="none"/>
        <rect x="1.5" y="1.5" width="103.002" height="103.002" rx="51.501" fill="none"/>
      </g>
    </g>
    <g id="Grupo_1115586" data-name="Grupo 1115586" transform="translate(20.275 20.275)">
      <g id="Grupo_1115576" data-name="Grupo 1115576" transform="translate(8.883 9.999)">
        <g id="Grupo_1115575" data-name="Grupo 1115575">
          <path id="Trazado_983137" data-name="Trazado 983137" d="M412.538,114.632v3.835h1.918a1.918,1.918,0,0,0,0-3.835Z" transform="translate(-368.683 -109.977)" fill="#e3edf6"/>
          <path id="Trazado_983138" data-name="Trazado 983138" d="M73.319,114.632v3.835H71.4a1.918,1.918,0,1,1,0-3.835Z" transform="translate(-69.484 -109.977)" fill="#e3edf6"/>
          <path id="Trazado_983139" data-name="Trazado 983139" d="M120.292,414.5h34.7v11.505h-34.7Z" transform="translate(-113.797 -371.511)" fill="#e3edf6"/>
          <path id="Trazado_983140" data-name="Trazado 983140" d="M154.995,423.129v2.876H120.3V414.5h2.876v8.629Z" transform="translate(-113.8 -371.511)" fill="#c5d9ec"/>
          <path id="Trazado_983141" data-name="Trazado 983141" d="M183.283,444.5h5.753v7.67h-5.753Z" transform="translate(-168.735 -397.676)" fill="#94b7f7"/>
          <path id="Trazado_983142" data-name="Trazado 983142" d="M283.741,444.5h5.753v7.67h-5.753Z" transform="translate(-256.351 -397.676)" fill="#94b7f7"/>
          <path id="Trazado_983143" data-name="Trazado 983143" d="M355.689,80.851v7.887l7.267,2.629V78.222Z" transform="translate(-319.101 -78.222)" fill="#fee95d"/>
          <path id="Trazado_983144" data-name="Trazado 983144" d="M106.752,80.851v7.887l-7.268,2.629V78.222Z" transform="translate(-95.649 -78.222)" fill="#fee95d"/>
          <g id="Grupo_1115574" data-name="Grupo 1115574" transform="translate(14.548 51.618)">
            <path id="Trazado_983145" data-name="Trazado 983145" d="M183.284,482h5.753v2.876h-5.753Z" transform="translate(-183.284 -482)" fill="#5b92f2"/>
            <path id="Trazado_983146" data-name="Trazado 983146" d="M283.741,482h5.753v2.876h-5.753Z" transform="translate(-270.899 -482)" fill="#5b92f2"/>
            <path id="Trazado_983147" data-name="Trazado 983147" d="M183.284,482h5.753v2.876h-5.753Z" transform="translate(-183.284 -482)" fill="#5b92f2"/>
            <path id="Trazado_983148" data-name="Trazado 983148" d="M283.741,482h5.753v2.876h-5.753Z" transform="translate(-270.899 -482)" fill="#5b92f2"/>
          </g>
          <path id="Trazado_983149" data-name="Trazado 983149" d="M102.682,79.376V90.209l-3.2,1.156V78.22Z" transform="translate(-95.651 -78.22)" fill="#fcad42"/>
          <path id="Trazado_983150" data-name="Trazado 983150" d="M358.884,89.74v10.2l-3.2-1.156V90.9Z" transform="translate(-319.101 -88.267)" fill="#fcad42"/>
        </g>
      </g>
      <g id="Grupo_1115577" data-name="Grupo 1115577" transform="translate(0 0)">
        <path id="Trazado_983151" data-name="Trazado 983151" d="M108.717,13.7h-.959V8.633l-9.185,3.322v3.657H94.546L93.809,4.6h-3.92V.959H87.971V4.6H85.287V0H83.369V4.6h-3.6l-.737,11.015H75.006V11.956L65.821,8.633V13.7h-.959a2.876,2.876,0,0,0,0,5.753h.959V24.51l9.185-3.322V17.53h3.9l-.452,6.756,1.913.128.238-3.562,4.83,4.83-5.523,5.523.327-4.88L78.324,26.2,76.6,52.03H68.481V65.452H105.1V58.927h-1.918v4.608H97.045v-7.67h-7.67v7.67H84.2v-7.67h-7.67v7.67H70.4V53.947H103.18v3.06H105.1V52.03H96.983l-2.309-34.5h3.9v3.658l9.185,3.322V19.448h.959a2.876,2.876,0,0,0,0-5.753ZM64.862,17.53a.959.959,0,1,1,0-1.918h.959V17.53Zm8.226,2.312-5.35,1.935V11.366l5.35,1.935Zm18.2,37.94h3.835v5.753H91.293Zm-12.842,0h3.835v5.753H78.451Zm16.366-9.417-6.671-6.671L93.98,35.86ZM85.434,11.679,80.915,16.2l.567-8.47ZM82.982,6.515H90.6L86.79,10.323ZM92.1,7.728l.567,8.47-4.518-4.519Zm1.571,23.478-5.523-5.523,4.83-4.83ZM81.144,18.681l5.646-5.646,5.645,5.646L86.79,24.326Zm12.3,15.008-6.65,6.65-6.65-6.65,6.65-6.65Zm-8.006,8.006-6.671,6.671L79.6,35.86ZM78.517,52.03l.051-.758L86.79,43.05l8.222,8.222.051.757H78.517Zm27.323-30.252-5.35-1.935V13.3l5.35-1.935Zm2.876-4.247h-.959V15.613h.959a.959.959,0,1,1,0,1.918Z" transform="translate(-54.062 0)"/>
        <path id="Trazado_983152" data-name="Trazado 983152" d="M478.625,71.3l-1.356,1.356a8.639,8.639,0,0,1,0,12.2l1.356,1.356A10.559,10.559,0,0,0,478.625,71.3Z" transform="translate(-416.257 -62.182)"/>
        <path id="Trazado_983153" data-name="Trazado 983153" d="M457.412,92.509l-1.356,1.356a4.8,4.8,0,0,1,0,6.779L457.412,102A6.719,6.719,0,0,0,457.412,92.509Z" transform="translate(-397.755 -80.683)"/>
        <path id="Trazado_983154" data-name="Trazado 983154" d="M4.443,72.652,3.088,71.3a10.552,10.552,0,0,0,0,14.915l1.356-1.356A8.635,8.635,0,0,1,4.443,72.652Z" transform="translate(-0.001 -62.182)"/>
        <path id="Trazado_983155" data-name="Trazado 983155" d="M31.971,92.509a6.719,6.719,0,0,0,0,9.491l1.356-1.356a4.8,4.8,0,0,1,0-6.779Z" transform="translate(-26.172 -80.683)"/>
      </g>
    </g>
  </g>
</svg>
